<svg width="24" height="24" viewBox="0 0 24 24" fill="none" xmlns="http://www.w3.org/2000/svg">
<path d="M12 2C17.5228 2 22 6.47715 22 12C22 17.5228 17.5228 22 12 22C6.47715 22 2 17.5228 2 12C2 6.47715 6.47715 2 12 2ZM8 10.667C7.26667 10.667 6.66699 11.2667 6.66699 12C6.66699 12.7333 7.26667 13.333 8 13.333C8.73333 13.333 9.33301 12.7333 9.33301 12C9.33301 11.2667 8.73333 10.667 8 10.667ZM12 10.667C11.2667 10.667 10.667 11.2667 10.667 12C10.667 12.7333 11.2667 13.333 12 13.333C12.7333 13.333 13.333 12.7333 13.333 12C13.333 11.2667 12.7333 10.667 12 10.667ZM16 10.667C15.2667 10.667 14.667 11.2667 14.667 12C14.667 12.7333 15.2667 13.333 16 13.333C16.7333 13.333 17.333 12.7333 17.333 12C17.333 11.2667 16.7333 10.667 16 10.667Z" fill="black"/>
</svg>
