<svg width="24" height="24" viewBox="0 0 24 24" fill="none" xmlns="http://www.w3.org/2000/svg">
<g clip-path="url(#clip0_872_1732)">
<path d="M18.375 0H5.625C2.5184 0 0 2.5184 0 5.625V18.375C0 21.4816 2.5184 24 5.625 24H18.375C21.4816 24 24 21.4816 24 18.375V5.625C24 2.5184 21.4816 0 18.375 0Z" fill="#F4F2ED"/>
<path fill-rule="evenodd" clip-rule="evenodd" d="M11.3767 2.83633C11.2634 3.55236 10.6956 3.59043 10.4691 2.89724C10.3149 2.42572 9.93347 2.4389 9.98053 2.91409C10.0522 3.63825 9.4875 3.87675 9.13402 3.2716C9.00685 3.05399 8.88753 2.95207 8.79967 2.98609C8.72456 3.01521 8.63364 3.03905 8.59764 3.03905C8.56161 3.03905 8.54842 3.21116 8.5683 3.42155C8.6327 4.10368 8.21765 4.30435 7.79402 3.79585C7.47135 3.40851 7.12207 3.53071 7.28738 3.97306C7.53232 4.62856 7.10454 4.97864 6.57382 4.55699C6.37756 4.40105 6.28984 4.38263 6.13715 4.46519C5.9088 4.58858 5.91201 4.55885 6.08868 4.9166C6.35971 5.46531 5.9831 5.7619 5.43217 5.43356C4.97123 5.15886 4.71777 5.40701 5.00685 5.84999C5.37239 6.41007 5.03941 6.82987 4.46092 6.53841C4.05831 6.3355 3.86195 6.63296 4.15229 7.00584C4.54247 7.50688 4.25476 7.99586 3.69517 7.78282C3.57136 7.73567 3.46395 7.70902 3.45651 7.72358C3.44901 7.73814 3.38993 7.82032 3.3252 7.90622C3.22598 8.03788 3.25387 8.10922 3.50301 8.36085C3.87062 8.73221 3.74002 9.06083 3.2037 9.11399C2.67925 9.16596 2.59003 9.47006 3.02572 9.72047C3.47931 9.98119 3.2698 10.5576 2.72147 10.5576C2.4363 10.5576 2.51587 10.9633 2.83727 11.148C3.23089 11.3743 3.23061 11.7689 2.83662 11.9191C2.5328 12.035 2.40862 12.5562 2.68483 12.5562C3.23245 12.5562 3.30086 13.2163 2.7742 13.4186C2.61138 13.4812 2.55292 13.5583 2.5915 13.6597C2.62269 13.7419 2.64817 13.8484 2.64817 13.8964C2.64817 13.9445 2.7669 13.9837 2.912 13.9837C3.43367 13.9837 3.57443 14.4563 3.15368 14.7952C2.85933 15.0322 2.96382 15.4346 3.29686 15.3466C3.79049 15.2163 4.04235 15.7405 3.67558 16.1348C3.38208 16.4504 3.54664 16.679 4.07429 16.6886C4.552 16.6974 4.66804 16.9491 4.39117 17.3759C4.16455 17.7253 4.41001 18.0112 4.80678 17.8599C5.29005 17.6756 5.5788 18.0881 5.28977 18.5498C5.12107 18.8193 5.44712 19.0472 5.76428 18.8816C6.2809 18.6117 6.60856 18.8523 6.4171 19.3609C6.29489 19.6856 6.29126 19.6702 6.51914 19.7934C6.67085 19.8755 6.75113 19.8687 6.87248 19.7637C7.3085 19.3865 7.69943 19.5851 7.61048 20.1387C7.53661 20.5987 7.82183 20.741 8.15099 20.4085C8.53019 20.0255 9.06878 20.315 8.93536 20.8301C8.90699 20.9398 8.94379 21.0359 9.02637 21.0679C9.28049 21.1664 9.39937 21.1237 9.52378 20.8887C9.77128 20.4217 10.2002 20.5508 10.3142 21.1265C10.3881 21.4994 10.7942 21.5317 10.8836 21.172C11.0134 20.6496 11.5218 20.6534 11.7097 21.1783C11.8562 21.5877 12.2215 21.6383 12.315 21.2621C12.4492 20.7223 12.915 20.6547 13.163 21.139C13.3634 21.5305 13.6886 21.4779 13.7768 21.0397C13.9078 20.3891 14.4705 20.323 14.663 20.9356C14.7028 21.0623 14.7772 21.1154 14.8663 21.0809C14.9436 21.051 15.0434 21.0264 15.0882 21.0264C15.1329 21.0264 15.1824 20.823 15.1982 20.5744C15.2347 20.0013 15.5826 19.8835 15.9281 20.3273C16.2287 20.7131 16.4516 20.5404 16.4518 19.9217C16.4519 19.3618 16.7094 19.2486 17.1814 19.6009C17.5482 19.8748 17.7927 19.6991 17.6335 19.276C17.3844 18.6144 17.6939 18.3079 18.2664 18.649C18.7567 18.9412 18.93 18.72 18.6359 18.1776C18.3312 17.6158 18.7601 17.268 19.2928 17.6449C19.6726 17.9136 19.9038 17.4857 19.5694 17.1331C19.1341 16.6741 19.2508 16.4107 19.8894 16.4107C20.5212 16.4107 20.6032 16.2405 20.1783 15.8113C19.6967 15.3248 19.8683 14.9898 20.5704 15.0458C21.1006 15.0883 21.2162 14.7545 20.7402 14.5553C20.0208 14.2543 20.2226 13.6545 21.0355 13.6777C21.2697 13.6846 21.5187 13.3138 21.3255 13.246C20.4316 12.9324 20.2951 12.3635 21.0783 12.215C21.5252 12.1303 21.541 11.7522 21.1013 11.6634C20.3502 11.5117 20.378 10.8894 21.1445 10.6961C21.6047 10.5802 21.4554 10.2292 20.9361 10.206C20.1956 10.173 20.0521 9.58697 20.7141 9.29972C20.8573 9.23751 20.9873 9.17899 21.0027 9.16957C21.2275 9.03305 20.8688 8.69018 20.5912 8.77623C19.7378 9.0408 19.5336 8.38878 20.3033 7.8571C20.6593 7.61123 20.3452 7.29888 19.9216 7.47761C19.2068 7.7793 18.863 7.23278 19.416 6.67412C19.7889 6.29748 19.539 5.93897 19.1042 6.22673C18.5116 6.61887 17.9961 6.0576 18.4733 5.54011C18.8532 5.1283 18.4988 4.82761 18.0666 5.19492C17.4979 5.6782 16.9968 5.32773 17.3182 4.67157C17.5859 4.12495 17.3059 3.77591 16.958 4.22265C16.3694 4.9785 15.8588 4.6069 16.167 3.64696C16.2178 3.48859 16.1849 3.43358 16.0118 3.38766C15.8912 3.35563 15.7789 3.36901 15.7625 3.4174C15.4858 4.23331 14.5461 4.08717 14.7516 3.26017C14.8389 2.90871 14.8381 2.90676 14.5657 2.83314C14.381 2.78327 14.3318 2.80554 14.3318 2.93926C14.3318 3.18471 13.9711 3.61008 13.763 3.61008C13.5351 3.61008 13.3897 3.33436 13.3897 2.90252C13.3897 2.71589 13.3507 2.56319 13.3031 2.56319C13.2555 2.56319 13.1496 2.5372 13.0675 2.50542C12.9685 2.46707 12.9185 2.50066 12.9185 2.6053C12.9185 3.44957 12.0722 3.60456 11.9205 2.78803C11.8293 2.2969 11.4569 2.32997 11.3767 2.83633ZM13.5292 4.42037C16.7755 5.11488 16.3717 7.37778 12.7772 8.63608C8.05709 10.2885 4.25971 8.8241 6.77344 6.32094C8.37721 4.72387 11.2158 3.92533 13.5293 4.42037H13.5292ZM17.2055 7.13114C17.4388 7.39167 17.4122 7.89485 17.1537 8.10617C16.5104 8.63242 15.6333 7.7204 16.2163 7.13142C16.4652 6.88003 16.9803 6.87988 17.2055 7.13114ZM18.3259 8.78637C19.9116 9.45562 20.0704 13.1198 18.6297 15.7992C17.7527 17.4305 16.2691 18.6341 15.4055 18.4152C12.8575 17.7693 15.1494 9.10415 17.986 8.65837C18.0007 8.65608 18.1537 8.71366 18.3259 8.78637ZM6.28593 9.55987C6.76727 10.0461 6.3231 10.8904 5.69666 10.6801C5.13033 10.4902 5.03846 9.74794 5.54675 9.46941C5.90612 9.27241 6.01447 9.28568 6.28593 9.55987ZM12.4239 10.1929C13.2888 10.4128 13.9827 11.473 13.8081 12.3076C13.4163 14.1793 10.8915 14.4533 10.2272 12.6963C9.67584 11.2382 10.9272 9.81216 12.4239 10.1929ZM6.99736 11.8669C9.88097 13.3008 12.7151 17.5105 11.7607 18.9424C10.6388 20.626 6.60634 18.5215 5.06989 15.4506C3.62827 12.5691 4.63712 10.6933 6.99736 11.8669ZM13.8179 17.8339C14.1998 18.2197 14.0929 18.7173 13.5822 18.9309C13.0306 19.1617 12.4946 18.5329 12.7755 17.9843C13.005 17.536 13.4583 17.4706 13.8179 17.8339Z" fill="#242938"/>
</g>
<defs>
<clipPath id="clip0_872_1732">
<rect width="24" height="24" fill="white"/>
</clipPath>
</defs>
</svg>
