<svg width="24" height="24" viewBox="0 0 24 24" fill="none" xmlns="http://www.w3.org/2000/svg">
<g clip-path="url(#clip0_872_1762)">
<path d="M18.375 0H5.625C2.5184 0 0 2.5184 0 5.625V18.375C0 21.4816 2.5184 24 5.625 24H18.375C21.4816 24 24 21.4816 24 18.375V5.625C24 2.5184 21.4816 0 18.375 0Z" fill="#5A45FE"/>
<path fill-rule="evenodd" clip-rule="evenodd" d="M4.37032 15.0646L8.38694 5.93594C9.06503 4.39712 10.3691 3.5625 12.0123 3.5625C13.6554 3.5625 14.9595 4.39712 15.6377 5.93594L19.6543 15.0646C19.8368 15.508 19.9933 16.0818 19.9933 16.5773C19.9933 18.8465 18.4023 20.4375 16.1332 20.4375C15.3604 20.4375 14.7463 20.2403 14.1251 20.0406C13.4885 19.836 12.8439 19.6289 12.0123 19.6289C11.1903 19.6289 10.5295 19.8381 9.88031 20.0435C9.25242 20.2421 8.63496 20.4375 7.89134 20.4375C5.62224 20.4375 4.03125 18.8465 4.03125 16.5773C4.03125 16.0818 4.18774 15.508 4.37032 15.0646ZM12.0123 7.52701L8.04787 16.4992C9.22155 15.9514 10.5778 15.6906 12.0123 15.6906C13.3946 15.6906 14.803 15.9514 15.9246 16.4992L12.0123 7.52701Z" fill="white"/>
</g>
<defs>
<clipPath id="clip0_872_1762">
<rect width="24" height="24" fill="white"/>
</clipPath>
</defs>
</svg>
