<svg width="24" height="24" viewBox="0 0 24 24" fill="none" xmlns="http://www.w3.org/2000/svg">
<g clip-path="url(#clip0_872_1783)">
<path d="M18.375 0H5.625C2.5184 0 0 2.5184 0 5.625V18.375C0 21.4816 2.5184 24 5.625 24H18.375C21.4816 24 24 21.4816 24 18.375V5.625C24 2.5184 21.4816 0 18.375 0Z" fill="url(#paint0_linear_872_1783)"/>
<path d="M13.1503 6.84807L10.6508 6.84375L7.1875 16.0206L9.44816 16.0245L10.0134 14.4696L13.4235 14.4754L12.7788 12.7536L10.5339 12.7497L11.9316 8.80083L14.6442 16.0335L16.9049 16.0374L13.1503 6.84807Z" fill="white"/>
<path d="M21.8563 9.29284C21.8499 9.26187 21.8407 9.23149 21.8285 9.20212C21.8256 9.19201 21.8156 9.17329 21.8156 9.17329C21.7733 9.08537 21.7061 9.01079 21.6224 8.95843C21.5386 8.90607 21.4417 8.87813 21.3431 8.87793C21.2064 8.8777 21.0761 8.93072 20.981 9.02533C20.8858 9.11995 20.8335 9.24841 20.8357 9.38241C20.8365 9.43923 20.8475 9.49369 20.8658 9.54451L20.8643 9.54507C21.1069 10.3499 21.2362 11.1818 21.2485 12.0172C21.2871 14.4471 20.358 16.7301 18.6329 18.4453C16.9075 20.1607 14.5923 21.1028 12.1137 21.0985C9.63535 21.0942 7.28992 20.1439 5.51028 18.4226C3.73023 16.7013 2.72899 14.415 2.69048 11.9851C2.65197 9.5551 3.58098 7.27219 5.30637 5.55693C7.03154 3.84157 9.34693 2.89948 11.8253 2.90376C14.0385 2.90759 16.145 3.6663 17.8378 5.05431C17.7823 5.19826 17.755 5.35161 17.7576 5.5064C17.7683 6.1888 18.3413 6.7427 19.0374 6.7439C19.7333 6.7451 20.2889 6.19317 20.278 5.51076C20.2673 4.82836 19.6942 4.27416 18.9983 4.27295C18.8464 4.27269 18.7013 4.29873 18.5673 4.34671C16.7383 2.8219 14.3766 1.89728 11.8093 1.89284C6.11519 1.88299 1.57098 6.40065 1.65947 11.9833C1.74796 17.5659 6.43561 22.0996 12.1298 22.1094C17.8239 22.1193 22.3681 17.6018 22.2797 12.0189C22.2647 11.0747 22.1171 10.1604 21.8563 9.29284Z" fill="white"/>
</g>
<defs>
<linearGradient id="paint0_linear_872_1783" x1="0" y1="0" x2="24" y2="24" gradientUnits="userSpaceOnUse">
<stop stop-color="#4010AC"/>
<stop offset="1" stop-color="#D540A8"/>
</linearGradient>
<clipPath id="clip0_872_1783">
<rect width="24" height="24" fill="white"/>
</clipPath>
</defs>
</svg>
