<svg width="24" height="24" viewBox="0 0 24 24" fill="none" xmlns="http://www.w3.org/2000/svg">
<g clip-path="url(#clip0_872_1909)">
<path d="M18.375 0H5.625C2.5184 0 0 2.5184 0 5.625V18.375C0 21.4816 2.5184 24 5.625 24H18.375C21.4816 24 24 21.4816 24 18.375V5.625C24 2.5184 21.4816 0 18.375 0Z" fill="#F4F2ED"/>
<path d="M11.065 2.49904C11.0201 2.50354 10.8775 2.52023 10.7485 2.53204C8.91527 2.72385 7.10983 3.50029 5.63758 4.73292C5.36589 4.95848 4.74695 5.57742 4.52139 5.8491C3.30264 7.30523 2.59014 8.9391 2.32708 10.8728C2.26858 11.3022 2.26858 12.7508 2.32708 13.18C2.58995 15.1135 3.30264 16.7475 4.52139 18.2037C4.74695 18.4755 5.36589 19.0943 5.63758 19.3199C7.0937 20.5386 8.72758 21.2511 10.6613 21.5142C11.0906 21.5729 12.5393 21.5729 12.9685 21.5142C14.902 21.2513 16.536 20.5386 17.9921 19.3199C18.264 19.0943 18.8828 18.4754 19.1083 18.2037C20.3271 16.7475 21.0396 15.1137 21.3021 13.18C21.3613 12.7506 21.3613 11.302 21.3021 10.8728C21.0396 8.93929 20.3271 7.30523 19.1083 5.8491C18.8828 5.57742 18.2638 4.95848 17.9921 4.73292C16.5413 3.51867 14.8903 2.79717 12.9823 2.5416C12.7759 2.51292 12.4763 2.50129 11.9203 2.49679C11.4962 2.49173 11.1088 2.49473 11.065 2.49904ZM11.1821 3.51192C11.1821 3.78585 11.2003 4.38135 11.2268 4.94685C11.2406 5.22285 11.2568 5.61923 11.2643 5.82567C11.2898 6.55748 11.3674 8.47692 11.379 8.64848L11.3908 8.8191L11.2853 8.80748C11.2268 8.80298 11.1726 8.7891 11.163 8.78179C11.1565 8.77242 11.1396 8.61042 11.13 8.42067C11.0884 7.58629 10.95 4.34835 10.936 3.87529L10.9213 3.3546L10.9873 3.34579C11.0224 3.34054 11.0811 3.33398 11.1184 3.33117L11.1821 3.32892V3.51192ZM13.4254 3.45567C13.4276 3.45773 13.435 4.1661 13.4415 5.02879C13.4511 5.89392 13.4629 6.66942 13.4702 6.75379C13.4768 6.84079 13.4745 6.9156 13.4627 6.92067C13.4533 6.92723 13.3946 6.92723 13.3361 6.92067L13.2285 6.91129L13.2124 6.2286C13.2048 5.91852 13.196 5.60845 13.1861 5.29842C13.1676 4.8831 13.1509 3.4746 13.1655 3.43954C13.1743 3.41329 13.2006 3.41085 13.2986 3.42773C13.3669 3.4416 13.4233 3.45342 13.4254 3.45567ZM8.0027 4.24073C8.01733 4.26192 8.1272 5.55398 8.26333 7.24373C8.30814 7.8186 8.35202 8.34379 8.35933 8.40904C8.37095 8.52829 8.3687 8.53354 8.29333 8.58042C8.2517 8.60592 8.20914 8.62729 8.19958 8.62729C8.19302 8.62729 8.17914 8.56635 8.17183 8.49098C8.13883 8.18629 8.01208 6.71423 7.92358 5.64998C7.87145 5.02373 7.82458 4.46348 7.81802 4.40254C7.80639 4.29942 7.80864 4.28985 7.86939 4.2576C7.94402 4.21729 7.98658 4.21073 8.00252 4.24073H8.0027ZM14.4566 4.71248C14.5226 4.73592 14.5292 4.74754 14.5438 4.88085C14.5673 5.11523 14.56 6.23592 14.5345 6.23592C14.4662 6.23592 14.3256 6.15604 14.314 6.11142C14.3065 6.08348 14.3001 5.75104 14.3001 5.37304C14.3001 4.61142 14.2905 4.65604 14.4566 4.71248ZM10.1267 4.82235C10.1267 4.88535 10.1436 5.23467 10.1618 5.6031C10.1809 5.9706 10.2021 6.43729 10.2116 6.63942C10.2278 7.04742 10.2323 7.03279 10.0753 7.04235C9.9977 7.04442 9.9977 7.04442 9.99339 6.92723C9.98889 6.86217 9.97727 6.65779 9.96264 6.47029C9.95083 6.28279 9.92308 5.87704 9.90395 5.56785C9.8912 5.34012 9.87489 5.11258 9.85502 4.88535C9.84095 4.76817 9.8432 4.76367 9.9062 4.74023C9.94427 4.72635 10.0093 4.71473 10.0519 4.71473C10.1267 4.71248 10.1267 4.71248 10.1267 4.82235ZM16.6298 5.14392L16.7096 5.17598L16.7265 5.49023C16.7331 5.6616 16.7381 6.0321 16.7331 6.31148L16.7265 6.82185L16.6277 6.77273L16.5295 6.72585L16.5221 5.94735C16.5178 5.51892 16.5199 5.15554 16.5244 5.13867C16.5338 5.1036 16.5338 5.1036 16.6298 5.14392ZM12.3495 5.45067C12.3634 5.46473 12.3964 6.60135 12.3986 7.17848L12.4009 7.52573L12.291 7.50885C12.2273 7.50135 12.1759 7.49498 12.1738 7.49273C12.1663 7.48767 12.0962 5.75085 12.0962 5.58192V5.40829L12.2155 5.42217C12.2837 5.43154 12.3422 5.44335 12.3495 5.45067ZM17.7482 5.61698C17.7769 5.64998 17.7812 6.16335 17.7885 8.99498C17.7951 12.2468 17.7951 12.3312 17.7533 12.3312C17.7234 12.3293 17.6946 12.3186 17.6708 12.3004C17.6355 12.2747 17.631 11.9912 17.6194 9.21323C17.6098 7.53004 17.598 6.00135 17.5915 5.81629L17.5768 5.4786L17.6449 5.52754C17.6852 5.55623 17.73 5.59579 17.7482 5.61698ZM15.6454 6.09754C15.6572 6.10692 15.6688 6.24023 15.6711 6.39342C15.6829 6.9111 15.685 10.0877 15.6733 10.0973C15.6688 10.1016 15.6265 10.0898 15.5796 10.0716L15.4952 10.0364V6.04823L15.5612 6.06229C15.5965 6.07167 15.6338 6.08573 15.6456 6.09754H15.6454ZM9.17533 6.2286C9.18189 6.29235 9.19352 6.43504 9.20083 6.55223C9.20833 6.66735 9.22427 6.93023 9.23833 7.13385C9.26683 7.54635 9.26158 7.5726 9.12827 7.5726C9.05814 7.5726 9.04858 7.5651 9.03902 7.49498C9.01558 7.35642 8.93345 6.20292 8.94527 6.18454C8.95689 6.16767 9.07933 6.12604 9.13502 6.12079C9.14964 6.11873 9.16783 6.16767 9.17533 6.2286ZM5.29783 6.82692C5.32352 7.07517 5.3747 7.59604 5.41277 7.98267C5.45233 8.36948 5.48533 8.6976 5.48533 8.71148C5.48533 8.73998 5.30439 8.82867 5.28602 8.81029C5.27439 8.79867 5.04002 6.7236 5.04002 6.62985C5.04002 6.5736 5.22002 6.33698 5.24364 6.36267C5.25095 6.36698 5.27439 6.57567 5.29783 6.82692ZM14.4896 7.0731L14.5579 7.11248L14.56 7.61948C14.5622 7.89548 14.5675 8.20542 14.5675 8.30573C14.5718 8.51667 14.5461 8.55173 14.4193 8.50785L14.347 8.4816V8.28004C14.347 8.1681 14.3395 7.84204 14.3301 7.55348L14.316 7.03279H14.3704C14.3981 7.03279 14.4523 7.05173 14.4896 7.0731ZM6.32683 7.98267C6.36939 8.43248 6.4367 9.19204 6.48133 9.67017L6.5612 10.5383L6.4697 10.6289L6.38102 10.7205L6.36414 10.5351C6.35477 10.432 6.30789 9.95442 6.25877 9.47104C6.20577 8.95238 6.15427 8.43357 6.10427 7.9146L6.03827 7.23923L6.12977 7.15504C6.21189 7.07742 6.22145 7.07517 6.23758 7.11754C6.24695 7.14117 6.28652 7.53004 6.32683 7.98267ZM4.57127 8.26617C4.62245 8.72835 4.75877 9.95667 4.87595 10.9952C4.99314 12.0338 5.10283 13.0343 5.1242 13.2218C5.14333 13.4093 5.17539 13.6934 5.19452 13.8554C5.22752 14.1291 5.22752 14.1482 5.1902 14.176C5.13377 14.2185 5.11033 14.2135 5.11033 14.1644C5.11033 14.1432 5.08914 13.965 5.06345 13.7732C5.02089 13.4517 4.95058 12.9075 4.79383 11.6865C4.74552 11.3234 4.69864 10.9603 4.6532 10.5968C4.60633 10.2422 4.53827 9.71498 4.5002 9.42417C4.4627 9.13335 4.39989 8.63667 4.35958 8.31529C4.31777 7.99654 4.29208 7.71323 4.29883 7.68248C4.3157 7.61948 4.45333 7.39898 4.46795 7.41285C4.47227 7.41942 4.51914 7.80173 4.57108 8.26598L4.57127 8.26617ZM3.85352 9.27623C3.88858 9.55823 3.95458 10.0716 3.9992 10.4202C4.04308 10.7674 4.09952 11.2009 4.1252 11.382L4.16983 11.7102L4.1207 11.7525C4.09295 11.776 4.06445 11.7848 4.05489 11.776C4.04608 11.7664 4.02695 11.6727 4.01308 11.5694C3.94975 11.1236 3.88482 10.678 3.81827 10.2327L3.65195 9.08423L3.70558 8.92467C3.73408 8.83823 3.76408 8.76792 3.77139 8.76792C3.78095 8.76792 3.81602 8.99779 3.85352 9.27604V9.27623ZM16.7235 8.96929C16.7565 9.00229 16.7616 9.14742 16.7616 10.2239V11.4405H16.6958C16.5529 11.4405 16.5551 11.4756 16.5458 10.1442L16.539 8.93198H16.6136C16.6532 8.93198 16.7053 8.9481 16.7235 8.96929ZM11.5922 9.38892C12.1217 9.46879 12.5841 9.61673 13.041 9.8511C13.3361 10.0035 13.4768 10.1089 13.8049 10.423C14.2926 10.8899 14.593 11.2977 14.8742 11.8742C15.2845 12.7135 15.4442 13.4562 15.6454 15.4491C15.7371 16.3425 15.8563 17.962 15.882 18.6254C15.8895 18.8181 15.9055 19.1346 15.9201 19.3285C15.9458 19.7417 15.9758 19.6853 15.6126 19.861C15.1086 20.1051 14.623 20.2735 13.9836 20.431C13.2006 20.6228 12.6938 20.6835 11.9203 20.6865L11.3578 20.6888L11.3623 20.4192C11.3623 20.2712 11.3762 19.927 11.3908 19.6575C11.4611 18.3516 11.4465 16.7037 11.3556 15.7889C11.3036 15.2639 11.2033 14.6264 11.1469 14.4857C11.1353 14.4552 11.1887 14.4295 11.4208 14.3496C11.8457 14.2017 12.2134 14.0164 12.2696 13.9257C12.3709 13.752 12.19 13.503 11.9599 13.503C11.9205 13.503 11.8009 13.5454 11.6905 13.5945C11.1653 13.8362 10.1128 14.1195 9.50552 14.1833C9.08589 14.2281 8.43395 14.2017 7.98208 14.1195C7.73608 14.0749 7.29508 13.9088 6.92664 13.719C6.5027 13.4985 6.24264 13.2057 6.16502 12.8584C6.12245 12.6709 6.13427 12.2959 6.18845 12.085C6.24695 11.8529 6.41102 11.5152 6.5612 11.3181C7.22927 10.4393 8.60758 9.67748 10.0211 9.41029C10.4717 9.32592 11.1088 9.31654 11.5924 9.38892H11.5922ZM18.8241 9.46148C18.9085 9.49654 18.9178 9.5061 18.9178 9.58598C18.9231 10.2261 18.9085 11.6888 18.8966 11.7497C18.8944 11.7707 18.7729 11.773 18.721 11.7546C18.6887 11.743 18.6835 11.6162 18.6835 10.582C18.6835 9.84154 18.693 9.42417 18.7069 9.42417C18.7187 9.42417 18.7729 9.44104 18.8241 9.46148ZM19.8488 10.749L19.9331 10.7843L19.917 12.7251C19.8979 15.1986 19.8956 15.271 19.8064 15.4842C19.6613 15.8335 19.6686 15.9038 19.6826 14.371C19.687 13.6041 19.6986 12.8284 19.7038 12.6475C19.7081 12.4675 19.7126 11.9582 19.7155 11.5152C19.7155 10.9804 19.722 10.714 19.7389 10.714C19.753 10.714 19.8019 10.7301 19.8488 10.749ZM5.75045 11.3327C5.76433 11.5225 5.75927 11.5409 5.69102 11.6909L5.61639 11.8506L5.58864 11.6162C5.54383 11.2412 5.54383 11.2244 5.63252 11.1687C5.67283 11.1402 5.7152 11.1218 5.72195 11.1263C5.72927 11.1306 5.74314 11.2244 5.75045 11.3327ZM4.30108 12.7465C4.32227 12.9383 4.48633 14.2135 4.57108 14.8397C4.69727 15.808 4.70664 15.9464 4.65039 15.8879C4.64383 15.8804 4.58945 15.5545 4.5332 15.1634C4.16758 12.6359 4.16983 12.6527 4.20058 12.6336C4.26358 12.591 4.28495 12.6145 4.30089 12.7463L4.30108 12.7465ZM5.98914 13.8201C6.0032 13.8788 6.07127 14.5139 6.07127 14.5913C6.07127 14.6565 5.98689 14.718 5.94958 14.68C5.93795 14.6682 5.9072 14.469 5.88377 14.2397C5.85808 14.0076 5.83239 13.7659 5.82508 13.7029L5.8112 13.5857L5.89333 13.6795C5.9402 13.7307 5.98183 13.7939 5.98914 13.8201ZM7.88102 14.7034C7.9067 14.7269 7.92358 14.8206 7.94402 15.0741C7.97927 15.531 7.98433 15.496 7.88833 15.496C7.78952 15.496 7.79177 15.5033 7.75952 15.09C7.72652 14.6704 7.72652 14.6757 7.78952 14.6757C7.82027 14.6757 7.85983 14.6895 7.88102 14.7034ZM9.73783 14.7385C9.74214 14.7619 9.75377 14.9025 9.76333 15.0507C9.77083 15.1986 9.79202 15.531 9.8102 15.7889C9.8762 16.7357 9.87845 16.8559 9.83889 16.8559C9.79408 16.8559 9.78902 16.8209 9.73764 16.1522C9.71486 15.8292 9.68898 15.5064 9.66002 15.1838C9.63958 14.929 9.62495 14.715 9.63227 14.7107C9.65795 14.6822 9.72602 14.7034 9.73783 14.7385ZM5.33083 15.189C5.3447 15.2102 5.4332 15.9602 5.54383 16.9849C5.57683 17.2939 5.60908 17.592 5.61639 17.6477L5.6282 17.749L5.56952 17.7115C5.52489 17.6807 5.50877 17.6507 5.50877 17.5965C5.50877 17.4484 5.40752 16.4759 5.33064 15.8804C5.28602 15.5429 5.25095 15.2455 5.25095 15.2168C5.25095 15.1679 5.3072 15.1487 5.33083 15.189ZM18.8593 16.1689L18.8432 17.149L18.7845 17.2352C18.6506 17.4325 18.658 17.4696 18.6653 16.3727L18.6696 15.367L18.756 15.2775C18.8029 15.2307 18.8498 15.1913 18.8591 15.1913C18.8666 15.1913 18.8666 15.6321 18.8591 16.1689H18.8593ZM16.6913 17.7233C16.7031 19.0855 16.7001 19.191 16.6628 19.2327C16.6393 19.2584 16.6181 19.2752 16.6116 19.2679C16.5947 19.2495 16.5713 16.2788 16.5902 16.2627C16.5998 16.2533 16.6232 16.2488 16.6446 16.251C16.6746 16.2576 16.6819 16.4247 16.6915 17.7231L16.6913 17.7233ZM9.0347 16.7901C9.05064 16.935 9.10933 17.6316 9.13277 17.9597C9.14664 18.1802 9.14664 18.1875 9.09527 18.2035C9.06752 18.2132 9.03452 18.211 9.02514 18.1994C9.00902 18.1825 8.95689 17.6624 8.89389 16.8604L8.87702 16.6684H8.95033C9.01783 16.6684 9.02289 16.6729 9.0347 16.7901ZM7.19177 17.6104C7.20789 17.6273 7.2197 17.6858 7.2197 17.7445C7.2197 17.8052 7.2482 18.1215 7.2782 18.4497C7.36764 19.3478 7.37495 19.4693 7.33464 19.4459C7.27389 19.4106 7.2197 19.3572 7.23152 19.3433C7.23658 19.3339 7.22702 19.2165 7.20789 19.0827C7.18896 18.9189 7.17333 18.7547 7.16102 18.5903C7.1522 18.4549 7.13102 18.2059 7.11208 18.0396C7.06727 17.6294 7.07027 17.5825 7.12145 17.5825C7.14744 17.5832 7.17234 17.5932 7.19177 17.6104ZM8.30064 19.188C8.30814 19.24 8.32202 19.4318 8.33139 19.615C8.34752 19.9665 8.3402 19.9922 8.24439 19.9197C8.21645 19.8985 8.19752 19.8098 8.16958 19.5426C8.12064 19.059 8.11764 19.0782 8.20914 19.0877C8.2772 19.0943 8.28677 19.1039 8.30064 19.188Z" fill="black"/>
<path d="M7.46402 10.5118C7.22008 10.6172 7.20171 10.9483 7.43102 11.0655C7.5979 11.1497 7.76646 11.1094 7.85365 10.9643C8.01771 10.6971 7.75033 10.3879 7.46402 10.5118ZM9.05327 10.7374C8.82827 10.875 8.82827 11.2082 9.05327 11.3468C9.27602 11.4799 9.56459 11.3042 9.56459 11.0368C9.56459 10.779 9.26927 10.6056 9.05327 10.7374Z" fill="black"/>
</g>
<defs>
<clipPath id="clip0_872_1909">
<rect width="24" height="24" fill="white"/>
</clipPath>
</defs>
</svg>
