<svg width="24" height="24" viewBox="0 0 24 24" fill="none" xmlns="http://www.w3.org/2000/svg">
<g clip-path="url(#clip0_872_1920)">
<path d="M18.375 0H5.625C2.5184 0 0 2.5184 0 5.625V18.375C0 21.4816 2.5184 24 5.625 24H18.375C21.4816 24 24 21.4816 24 18.375V5.625C24 2.5184 21.4816 0 18.375 0Z" fill="#092E20"/>
<path d="M10.5646 4.78125H13.2472V17.1984C11.8711 17.4597 10.8607 17.5643 9.76341 17.5643C6.48837 17.5642 4.78125 16.0837 4.78125 13.2442C4.78125 10.5092 6.593 8.73254 9.3975 8.73254C9.83297 8.73254 10.1639 8.76727 10.5646 8.87178V4.78125ZM10.5646 11.0317C10.2511 10.9273 9.98981 10.8924 9.65887 10.8924C8.30012 10.8924 7.51617 11.7286 7.51617 13.1918C7.51617 14.6203 8.26528 15.4042 9.64144 15.4042C9.93741 15.4042 10.1814 15.3867 10.5646 15.3346V11.0317Z" fill="white"/>
<path d="M17.5143 8.92392V15.1426C17.5143 17.2854 17.3575 18.313 16.8872 19.2015C16.4516 20.0552 15.8767 20.5951 14.6922 21.1874L12.2012 20.0028C13.3857 19.4455 13.9606 18.9579 14.3263 18.2085C14.7096 17.4421 14.8317 16.5536 14.8317 14.2195V8.92392H17.5143ZM14.8317 4.79541H17.5143V7.54775H14.8317V4.79541Z" fill="white"/>
</g>
<defs>
<clipPath id="clip0_872_1920">
<rect width="24" height="24" fill="white"/>
</clipPath>
</defs>
</svg>
