<svg width="24" height="24" viewBox="0 0 24 24" fill="none" xmlns="http://www.w3.org/2000/svg">
<g clip-path="url(#clip0_872_2023)">
<path d="M18.375 0H5.625C2.5184 0 0 2.5184 0 5.625V18.375C0 21.4816 2.5184 24 5.625 24H18.375C21.4816 24 24 21.4816 24 18.375V5.625C24 2.5184 21.4816 0 18.375 0Z" fill="#512BD4"/>
<path d="M2.25489 15.8383C2.0452 15.8383 1.86697 15.7698 1.72018 15.6327C1.5734 15.4919 1.5 15.3249 1.5 15.1314C1.5 14.9344 1.5734 14.7656 1.72018 14.6248C1.86697 14.4842 2.0452 14.4138 2.25489 14.4138C2.46808 14.4138 2.64806 14.4842 2.79486 14.6248C2.94513 14.7656 3.02027 14.9344 3.02027 15.1314C3.02027 15.3249 2.94513 15.4919 2.79486 15.6327C2.64806 15.7698 2.46808 15.8383 2.25489 15.8383Z" fill="white"/>
<path d="M10.6383 15.7223H9.27534L5.68439 10.1613C5.59353 10.0206 5.51835 9.8745 5.45897 9.72328H5.42749C5.45546 9.88509 5.46944 10.2316 5.46944 10.7627V15.7223H4.26367V8.15625H5.71579L9.18624 13.5855C9.33303 13.8107 9.42736 13.9654 9.46936 14.0498H9.49026C9.45539 13.8493 9.43786 13.5099 9.43786 13.0314V8.15625H10.6383V15.7223Z" fill="white"/>
<path d="M16.5091 15.7223H12.2891V8.15625H16.3414V9.22207H13.5368V11.3642H16.1213V12.4247H13.5368V14.6618H16.5091V15.7223Z" fill="white"/>
<path d="M22.5074 9.22207H20.3476V15.7223H19.0999V9.22207H16.9453V8.15625H22.5074V9.22207Z" fill="white"/>
</g>
<defs>
<clipPath id="clip0_872_2023">
<rect width="24" height="24" fill="white"/>
</clipPath>
</defs>
</svg>
