<svg width="24" height="24" viewBox="0 0 24 24" fill="none" xmlns="http://www.w3.org/2000/svg">
<g clip-path="url(#clip0_872_2191)">
<path d="M18.375 0H5.625C2.5184 0 0 2.5184 0 5.625V18.375C0 21.4816 2.5184 24 5.625 24H18.375C21.4816 24 24 21.4816 24 18.375V5.625C24 2.5184 21.4816 0 18.375 0Z" fill="#F4F2ED"/>
<path d="M21.3754 17.1503C21.1025 17.2537 20.8012 17.2534 20.5284 17.1497C20.2556 17.046 20.0303 16.8459 19.895 16.5873C19.0453 15.3154 18.1071 14.1009 17.2053 12.8603L16.8143 12.3391C15.7405 13.7777 14.6666 15.1591 13.6867 16.5926C13.559 16.8397 13.3459 17.032 13.087 17.1336C12.828 17.2353 12.541 17.2394 12.2793 17.1452L16.3087 11.7396L12.5607 6.8553C12.8305 6.75788 13.1257 6.75654 13.3963 6.85151C13.667 6.94648 13.8966 7.13194 14.0464 7.37657C14.9169 8.64846 15.8813 9.86303 16.8403 11.1506C17.8047 9.87343 18.7586 8.65367 19.65 7.39221C19.7784 7.14909 19.9916 6.96165 20.2493 6.86554C20.5068 6.76943 20.7908 6.77135 21.047 6.87094L19.5926 8.79963C18.9411 9.65968 18.2999 10.525 17.6223 11.3642C17.5676 11.4132 17.524 11.473 17.494 11.5399C17.4641 11.6069 17.4487 11.6793 17.4487 11.7527C17.4487 11.8259 17.4641 11.8983 17.494 11.9653C17.524 12.0322 17.5676 12.092 17.6223 12.141C18.8681 13.7934 20.1035 15.451 21.3754 17.1503Z" fill="#0F0F0F"/>
<path d="M2.625 11.6719C2.73446 11.1506 2.80223 10.5824 2.9534 10.0508C3.85519 6.84496 7.53013 5.51051 10.0582 7.49655C11.5387 8.65898 11.9088 10.3062 11.8358 12.1619H3.49552C3.35999 15.4772 5.7526 17.4788 8.81244 16.4572C9.30879 16.2796 9.75309 15.9813 10.1053 15.589C10.4575 15.1968 10.7064 14.723 10.8297 14.2104C10.9913 13.6892 11.252 13.6006 11.7472 13.7517C11.6656 14.3863 11.4412 14.9942 11.0909 15.5296C10.7407 16.065 10.2735 16.514 9.72469 16.8428C8.81787 17.3388 7.7775 17.5352 6.75232 17.4041C5.72713 17.2731 4.76965 16.8212 4.01678 16.1131C3.27198 15.2756 2.82162 14.2176 2.73446 13.1002C2.73446 12.923 2.6667 12.7457 2.63021 12.5789C2.62673 12.2696 2.625 11.9673 2.625 11.6719ZM3.50594 11.4477H11.0487C11.0017 9.04471 9.48487 7.34017 7.46237 7.32453C5.21048 7.29325 3.59977 8.96131 3.50073 11.4373L3.50594 11.4477Z" fill="#0F0F0F"/>
</g>
<defs>
<clipPath id="clip0_872_2191">
<rect width="24" height="24" fill="white"/>
</clipPath>
</defs>
</svg>
