<svg width="24" height="24" viewBox="0 0 24 24" fill="none" xmlns="http://www.w3.org/2000/svg">
<g clip-path="url(#clip0_872_2195)">
<path d="M18.375 0H5.625C2.5184 0 0 2.5184 0 5.625V18.375C0 21.4816 2.5184 24 5.625 24H18.375C21.4816 24 24 21.4816 24 18.375V5.625C24 2.5184 21.4816 0 18.375 0Z" fill="#049789"/>
<path d="M11.9531 3.84375C7.47591 3.84375 3.84375 7.47591 3.84375 11.9531C3.84375 16.4303 7.47591 20.0625 11.9531 20.0625C16.4303 20.0625 20.0625 16.4303 20.0625 11.9531C20.0625 7.47591 16.4303 3.84375 11.9531 3.84375ZM11.5306 18.4537V13.367H8.70287L12.7657 5.45264V10.5393H15.4878L11.5306 18.4537Z" fill="white"/>
</g>
<defs>
<clipPath id="clip0_872_2195">
<rect width="24" height="24" fill="white"/>
</clipPath>
</defs>
</svg>
