<svg width="24" height="24" viewBox="0 0 24 24" fill="none" xmlns="http://www.w3.org/2000/svg">
<g clip-path="url(#clip0_872_2230)">
<path d="M18.375 0H5.625C2.5184 0 0 2.5184 0 5.625V18.375C0 21.4816 2.5184 24 5.625 24H18.375C21.4816 24 24 21.4816 24 18.375V5.625C24 2.5184 21.4816 0 18.375 0Z" fill="#F4F2ED"/>
<path d="M8.41667 18.1806C7.7381 17.6468 7.01425 17.1352 6.51962 16.4146C5.47883 15.1439 4.67747 13.6727 4.12963 12.1268C3.7985 11.1214 3.68509 10.0436 3.25821 9.07715C2.81166 8.37521 3.33473 7.60787 4.10362 7.38475C4.44595 7.31905 5.04786 6.99615 4.32129 7.22694C3.6699 7.70486 3.60686 6.79313 4.27481 6.73539C4.73066 6.6748 4.89846 6.30162 4.74258 5.96569C4.25325 5.64659 5.92913 5.29589 5.0859 4.81976C4.20747 3.87204 6.31462 3.6896 5.79475 4.76592C5.67032 5.59357 7.26713 4.61423 6.89663 5.56998C7.27321 6.02896 8.3068 5.67445 8.28116 6.31836C8.82973 6.35606 9.018 6.81763 9.53297 6.85306C10.0667 7.09408 11.0342 7.28401 11.2158 7.88544C10.6863 8.30464 9.46022 7.01953 9.40125 8.17992C9.56119 9.8941 9.5205 11.66 10.1477 13.2923C10.4443 14.2808 11.1635 15.0589 11.8129 15.8287C12.4343 16.5826 13.276 17.1134 14.1339 17.5603C14.8866 17.9153 15.6979 18.1507 16.5181 18.2983C16.8507 18.0439 17.4381 17.0979 17.9571 17.4968C17.9816 17.9451 16.927 18.4338 17.9074 18.3842C18.4831 18.2106 18.8824 18.8295 19.3565 18.2712C19.7932 18.7885 21.1718 17.9407 20.8611 18.9982C20.4409 19.2693 19.8279 19.1054 19.4071 19.4783C18.7131 19.1318 18.1606 19.7886 17.3923 19.7055C16.5391 19.8583 15.6711 19.92 14.806 19.9213C13.3869 19.8092 11.9377 19.7619 10.5877 19.2679C9.82725 19.0469 9.08508 18.6138 8.41667 18.1806ZM9.61519 18.6998C10.3578 19.021 11.084 19.3595 11.8978 19.4616C13.189 19.6412 14.5224 19.9174 15.8182 19.6655C15.2317 19.4006 14.6255 19.7686 14.0411 19.4761C13.3404 19.6268 12.5884 19.4377 11.8761 19.3445C11.0659 18.9836 10.1917 18.7356 9.43303 18.2671C8.48507 17.9209 9.92325 18.7112 10.1793 18.7751C10.7719 19.1115 9.52762 18.6027 9.35221 18.4629C8.85588 18.1845 8.79262 18.2427 9.30306 18.5255C9.40584 18.5856 9.50747 18.6487 9.61519 18.6998ZM8.2021 17.7012C8.92172 17.9678 8.19892 17.1953 7.86917 17.2401C7.72307 16.9867 7.31098 16.8265 7.60167 16.6903C7.07878 16.8719 7.05392 16 6.80813 16.1246C6.25496 15.95 6.59284 15.3311 5.93391 14.9512C5.87376 14.5508 5.27924 14.2035 5.08961 13.5996C5.00586 13.2904 4.41793 12.4024 4.77909 13.2288C5.08661 14.0243 5.62766 14.7056 6.07792 15.3861C6.42755 16.034 6.84038 16.7111 7.47711 17.1154C7.69175 17.3213 7.89899 17.6367 8.2021 17.7012ZM6.12903 15.4252C6.15414 15.3165 6.26063 15.6604 6.12903 15.4252V15.4252ZM9.06391 18.0208C8.83476 17.9309 9.22326 17.9495 9.06391 18.0208V18.0208ZM9.45459 18.1633C9.27622 18.2733 9.41409 17.9665 9.45459 18.1633V18.1633ZM9.9435 18.3672C9.58472 18.2275 10.1763 18.1456 9.9435 18.3672V18.3672ZM10.7816 18.8344C10.3288 18.7554 10.9231 18.6252 10.7816 18.8344V18.8344ZM9.17227 17.7125C8.70526 17.7093 9.53381 17.4786 9.17227 17.7125V17.7125ZM9.53906 17.8954C9.40837 17.9508 9.52884 17.7717 9.53906 17.8954V17.8954ZM11.3724 19.0397C11.6671 19.2257 13.0934 19.4473 12.2003 19.1159C12.0509 19.1474 10.5442 18.6898 11.3724 19.0397ZM8.46196 16.7729C8.0045 16.636 8.4333 16.6489 8.46196 16.7729V16.7729ZM9.31543 17.2703C8.85441 17.1508 9.53756 17.1155 9.31543 17.2703V17.2703ZM10.0333 17.7105C9.51628 17.5898 10.3521 17.5903 10.0333 17.7105V17.7105ZM8.11466 16.3947C8.4605 16.6599 9.50934 16.4287 8.64428 16.2364C8.25054 16.0265 7.36314 15.8828 7.96802 16.3629L8.11466 16.3947ZM10.5196 17.8625C9.91547 17.7223 10.6636 17.617 10.5196 17.8625V17.8625ZM9.78881 17.2817C10.6344 17.5209 9.07768 16.7469 9.58012 17.1937L9.6915 17.2441L9.78881 17.2817ZM11.2539 18.1285C10.5306 18.0181 12.0548 18.1362 11.2539 18.1285V18.1285ZM7.80651 15.9313C7.60888 15.9439 7.77524 15.7822 7.80651 15.9313V15.9313ZM12.6086 18.8885C12.3473 19.0889 12.63 18.619 12.6086 18.8885V18.8885ZM9.17323 16.7683C8.92299 16.7625 9.12479 16.6265 9.17323 16.7683V16.7683ZM7.88247 15.8378C7.253 15.6352 8.34225 15.8101 7.88247 15.8378V15.8378ZM6.35339 14.8493C5.85307 14.4532 6.29616 14.6289 6.35339 14.8493V14.8493ZM10.3676 17.3969C10.2833 17.3008 10.328 17.4179 10.3676 17.3969V17.3969ZM12.8662 18.9302C12.7301 18.9857 12.8582 18.7834 12.8662 18.9302V18.9302ZM10.1465 17.1685C9.7544 17.1113 10.1915 16.9794 10.1465 17.1685V17.1685ZM8.28506 15.9889C7.73711 15.7576 8.62712 15.9522 8.28506 15.9889V15.9889ZM11.4337 17.9454C10.9143 17.8423 11.9668 17.7342 11.4337 17.9454V17.9454ZM9.79594 16.8337C10.4103 16.9129 9.06501 16.4158 9.66112 16.7891L9.79594 16.8337ZM11.931 18.1464C12.5046 17.8035 12.3155 18.9493 12.9041 18.2432C13.4847 17.8193 12.4027 18.7673 13.1182 18.3188C13.6357 17.9727 14.4001 18.4829 14.883 18.6493C15.2302 18.6323 15.5677 18.9496 15.9238 18.7566C16.609 18.572 14.5837 18.4828 15.1147 18.1553C14.4876 18.3378 14.0243 17.9378 13.7158 17.5361C13.0124 17.3737 12.1992 17.0141 11.8482 16.3917C11.7051 16.158 12.0549 16.4246 11.7247 16.0426C11.3008 15.6656 11.0892 15.2378 10.8047 14.7795C10.4647 14.5982 10.4252 14.0645 10.3909 14.7616C10.3935 14.3216 9.98044 14.0255 9.87966 14.1486C9.87787 13.7249 10.3217 13.9373 10.011 13.6238C9.94415 13.1846 9.72394 12.7269 9.65775 12.2311C9.5549 11.9921 9.64322 11.4803 9.30674 12.0213C9.18415 12.5932 9.26605 11.3186 9.45666 11.7389C9.70697 11.31 9.36686 11.3604 9.35293 11.42C9.51591 11.0582 9.45609 10.5449 9.3104 10.7407C9.39722 10.3571 9.44766 9.32922 9.1804 9.51141C9.34238 9.11033 9.48759 7.67625 8.78442 8.22302C8.49944 8.22702 8.00593 8.32647 7.77265 8.44248C8.50408 8.84567 7.69908 8.58809 7.40134 8.52401C7.36254 8.89707 7.06763 8.73572 6.69921 8.73938C7.28767 8.81218 6.41265 9.34123 6.07506 9.13573C5.63663 9.34527 6.45344 9.86831 6.08386 10.03C6.12928 10.2739 5.41219 9.942 5.4685 10.5051C5.04288 10.326 5.4099 11.1729 5.62283 10.8865C6.34675 11.0825 6.13246 11.5291 6.15089 11.9534C6.03294 12.2007 5.56855 11.3723 6.04746 11.4107C5.66964 10.7969 5.62953 11.1888 5.31557 11.474C5.24253 11.4946 6.11641 11.8796 5.568 12.07C6.05048 12.1445 6.06421 12.5666 6.16243 12.8338C6.45243 13.1359 6.39307 12.5003 6.74007 12.8633C6.52049 12.5399 5.57699 11.9521 6.33664 12.1406C6.33258 11.8151 6.19925 11.5527 6.43198 11.5591C6.66246 11.1417 6.1906 12.5882 6.7101 12.0578C6.8539 11.9949 6.88953 11.6398 7.14801 12.0912C7.52345 12.4606 7.28362 12.7283 6.75402 12.39C6.84877 12.7115 7.46249 12.8263 7.34716 13.329C7.46942 13.771 7.64048 13.6083 7.78958 13.5827C7.90655 14.0123 7.97297 13.6964 7.97852 13.4919C8.51406 13.6066 8.38862 13.9232 8.55619 14.1443C8.92522 14.3109 8.02797 13.0152 8.66154 13.7547C9.32812 14.3566 8.91154 14.6078 8.31334 14.5114C8.69195 14.4808 8.81405 15.0233 9.28761 15.0042C9.71944 15.2096 10.0118 15.9987 9.26748 15.6702C9.0093 15.4374 8.09565 15.1503 8.84189 15.5931C9.53109 15.9122 10.0785 16.1032 10.7433 16.5038C11.219 16.8434 11.4245 17.2324 11.6048 17.3093C11.205 17.5003 10.3999 17.1569 10.9977 17.0516C10.6249 16.9838 10.2054 16.7951 10.5626 17.2598C10.8663 17.5133 11.6386 17.4864 11.7771 17.5151C11.6597 17.7738 11.4583 17.7943 11.7818 17.8144C11.4209 18.0068 11.8975 18.0365 11.931 18.1464ZM11.1929 16.062C10.9732 15.8323 10.9165 15.4021 11.1539 15.7764C11.2756 15.8253 11.5439 16.4794 11.1929 16.062ZM13.5967 17.5889C13.6007 17.693 13.7337 17.58 13.5967 17.5889V17.5889ZM10.8461 15.4988C10.8377 15.1516 10.9255 15.7666 10.8461 15.4988V15.4988ZM10.6072 15.1774C10.331 14.6437 10.9554 15.3285 10.6072 15.1774V15.1774ZM7.712 13.1791C7.79184 13.4567 7.87429 13.1358 7.712 13.1791V13.1791ZM10.0162 14.428C10.1159 14.0538 10.1333 14.7421 10.0162 14.428V14.428ZM8.38836 13.2962C8.2736 13.0897 8.62839 13.4899 8.38836 13.2962V13.2962ZM9.78544 13.744C9.52369 13.1576 9.97069 13.4237 9.84328 13.8401L9.78544 13.744ZM7.37618 12.1373C7.25918 11.945 7.06565 11.3805 7.12795 11.2082C7.18431 11.4888 7.72468 12.4158 7.39301 11.5922C7.0265 10.9018 7.83113 11.8163 7.91391 11.9885C7.95245 12.1598 7.68777 11.9417 7.86711 12.3434C7.54006 11.8861 7.67404 12.596 7.37618 12.1373ZM6.6316 11.6243C6.66225 11.177 6.80205 11.9309 6.6316 11.6243V11.6243ZM6.96652 11.7395C7.12634 11.402 7.23752 12.2101 6.96652 11.7395V11.7395ZM6.16086 11.1162C5.88365 10.8408 5.68304 10.5869 6.17383 10.9453C6.36293 10.9527 5.75367 10.3678 6.21937 10.7596C6.70907 10.8488 6.46118 11.5625 6.16086 11.1162ZM6.58406 11.1052C6.66952 11.2623 6.74505 10.9457 6.58406 11.1052V11.1052ZM6.84446 11.1887C6.6004 10.7312 7.14067 11.3805 6.84446 11.1887V11.1887ZM6.3268 10.694C5.52093 9.97678 7.33943 11.069 6.45846 10.8269L6.3268 10.694ZM8.63575 12.0355C8.28702 11.8265 8.54333 10.5635 8.66226 11.4273C9.00128 11.3176 8.64354 11.8733 8.8964 11.8682C8.85656 12.2188 8.74343 12.3449 8.63575 12.0355ZM9.48975 12.5403C9.52397 12.1597 9.56175 12.8005 9.48975 12.5403V12.5403ZM9.34144 12.3937C9.34541 12.5852 9.37987 12.2311 9.34144 12.3937V12.3937ZM6.48488 10.4583C5.96717 9.744 7.98951 11.1808 6.81648 10.6395C6.6939 10.6074 6.54642 10.596 6.48488 10.4583ZM8.12946 11.3303C8.08046 10.7288 8.23889 11.4299 8.12946 11.3303V11.3303ZM9.37809 12.1313C9.38531 12.3578 9.47465 11.7886 9.37809 12.1313V12.1313ZM6.5642 10.1857C6.87189 10.1198 7.83935 10.7261 6.95091 10.3588C6.85221 10.2496 6.64175 10.2992 6.5642 10.1857ZM9.20652 11.5027C9.23941 10.8877 9.39019 11.1353 9.20765 11.5907L9.20652 11.5027ZM6.79325 9.97172C6.91862 9.78778 6.46043 9.14022 6.85928 9.73941C7.03163 9.87638 7.35829 9.96881 7.06988 10.0265C7.52346 10.4266 6.95925 10.1348 6.79325 9.97172ZM9.07582 11.3106C9.15221 11.721 9.16244 10.61 9.07582 11.3106V11.3106ZM6.5314 9.32462C6.58197 9.45225 6.62716 9.2837 6.5314 9.32462V9.32462ZM7.1268 9.67903C7.28002 9.35747 7.40946 10.0376 7.1268 9.67903V9.67903ZM8.80626 10.6133C8.80463 10.4898 8.83794 10.7929 8.80626 10.6133V10.6133ZM8.70897 10.3979C8.47587 9.82285 8.9258 10.7024 8.70897 10.3979V10.3979ZM8.56584 10.0208C8.52672 9.78319 8.69883 10.3193 8.56584 10.0208V10.0208ZM8.79877 9.64219C8.63882 9.3603 9.00078 8.39998 9.04116 8.99557C8.87233 9.45966 8.99246 9.71925 9.11024 9.0968C9.32774 8.60693 9.06325 10.0635 8.79877 9.64219ZM9.03816 8.21403C9.05362 8.31719 9.10788 8.12841 9.03816 8.21403V8.21403ZM8.6384 16.0911C8.54359 16.0083 8.65031 16.1438 8.6384 16.0911V16.0911ZM9.46191 16.5077C9.91997 16.6252 9.91762 16.4363 9.50362 16.3803C9.28096 16.1731 8.5783 15.9534 9.20721 16.3546C9.24887 16.4601 9.38044 16.4576 9.46191 16.5077ZM7.8355 15.4274C8.08787 15.6156 8.78607 15.9608 8.19501 15.499C8.39429 15.2675 7.81359 15.1443 8.00622 14.9894C7.51625 14.6896 7.61971 14.7162 7.96297 14.7257C7.37413 14.4624 8.04798 14.4821 8.01624 14.3473C7.78919 14.3024 6.88846 13.9469 7.41835 14.3765C6.87968 14.1019 7.28999 14.4788 7.12717 14.439C6.57635 14.2887 7.61772 14.8584 7.0397 14.7171C7.3557 14.9675 7.89028 15.3585 7.1733 14.9821C7.07883 15.118 7.68637 15.3242 7.8355 15.4274ZM8.6968 15.9222C8.18337 15.5099 9.74409 16.2596 8.6968 15.9222V15.9222ZM13.1058 18.5932C12.9627 18.7704 13.1193 18.3854 13.1058 18.5932V18.5932ZM13.559 18.7839C13.8006 18.5498 13.5688 19.1569 13.9594 18.7266C13.9636 18.4186 13.9473 18.2366 13.5106 18.6108C13.3902 18.6775 13.3365 18.9614 13.559 18.7839ZM6.3655 14.2663C5.84537 13.9761 6.2913 13.9746 6.3655 14.2663V14.2663ZM6.84939 14.5834C6.20826 14.3137 6.6697 14.2854 6.84939 14.5834V14.5834ZM9.60225 16.2436C9.87103 16.4823 10.8367 16.4187 9.92878 16.2729C9.79425 16.0741 9.07481 16.122 9.60225 16.2436ZM13.3867 18.5807C12.9858 18.7356 13.8003 18.2336 13.3867 18.5807V18.5807ZM14.2469 19.1719C14.0687 19.2207 14.2495 19.0605 14.2469 19.1719V19.1719ZM14.2483 19.016C13.8044 19.0447 14.7064 18.5306 14.2483 19.016V19.016ZM5.17534 13.2698C4.78491 12.7128 4.93264 12.4624 4.55613 12.0076C4.48485 11.6598 3.91023 10.8704 4.25892 11.7067C4.5783 12.1957 4.67321 12.9529 5.17534 13.2698ZM14.1046 18.8617C13.7587 18.6244 14.9473 18.317 14.1046 18.8617V18.8617ZM14.7479 19.1138C14.481 19.0379 15.17 18.7513 14.7479 19.1138V19.1138ZM6.22206 13.6506C5.91013 13.6275 6.34285 13.4708 6.22206 13.6506V13.6506ZM14.6136 18.9416C15.0222 18.6782 14.5194 18.7186 14.5395 18.9659L14.6136 18.9416ZM9.068 15.4463C8.85221 15.4613 9.05395 15.2683 9.068 15.4463V15.4463ZM9.41072 15.6434C9.24325 15.678 9.30179 15.4232 9.41072 15.6434V15.6434ZM15.2692 19.1197C15.7927 18.742 14.9519 19.0474 15.1594 19.1912L15.2692 19.1197ZM15.0688 19.0228C14.6185 19.1812 15.4953 18.6654 15.0688 19.0228V19.0228ZM16.093 19.7048C15.7451 19.6428 16.3793 19.5131 16.093 19.7048V19.7048ZM6.48467 13.5209C6.86848 13.607 8.01847 14.4662 7.34002 13.5803C6.99255 13.4775 7.20095 12.6281 6.84651 12.7785C7.08441 13.1759 7.04224 13.345 6.54277 13.0945C5.91503 12.7881 6.19 13.2463 6.31268 13.3727C6.1455 13.4107 6.53383 13.5177 6.48467 13.5209ZM4.73603 12.14C4.80474 11.8558 4.10335 10.5765 4.40482 11.499C4.51365 11.6922 4.50259 12.0584 4.73603 12.14ZM7.94553 14.1187C7.74789 13.9534 7.93613 14.0953 7.94553 14.1187V14.1187ZM8.43222 14.232C7.89426 14.1098 8.43197 13.9309 8.43222 14.232V14.232ZM12.6498 16.8908C12.3318 16.886 12.5693 16.6851 12.6498 16.8908V16.8908ZM12.8523 17.0387C12.7355 17.0609 12.8224 16.9236 12.8523 17.0387V17.0387ZM14.5239 18.0916C14.3233 18.0765 14.6847 17.9728 14.5239 18.0916V18.0916ZM5.60949 12.363C5.11677 12.236 6.06936 12.1849 5.60949 12.363V12.363ZM12.2784 16.5645C11.9853 16.6383 12.2734 16.2668 12.2784 16.5645V16.5645ZM5.4278 11.9395C5.15452 11.8738 5.72319 11.8398 5.4278 11.9395V11.9395ZM6.28521 12.3549C6.19451 12.392 6.27985 12.2571 6.28521 12.3549V12.3549ZM16.7431 18.7678C17.123 18.6908 17.9886 18.9611 18.1285 18.6671C17.6672 18.6559 16.5325 18.3416 16.4788 18.7421L16.5799 18.758L16.7431 18.7678ZM6.55772 12.4236C6.32246 12.4123 6.56432 12.1219 6.55772 12.4236V12.4236ZM4.30336 10.8598C3.91397 10.7728 4.20097 10.2849 4.30336 10.8598V10.8598ZM4.84094 10.9949C4.34889 10.8288 4.84754 10.8103 4.84094 10.9949V10.9949ZM5.14815 11.1458C5.05935 11.0738 5.07864 11.2367 5.14815 11.1458V11.1458ZM7.08118 12.3858C6.86573 12.3239 7.17218 12.3023 7.08118 12.3858V12.3858ZM4.94353 10.8055C4.3209 10.7405 4.89157 10.3714 4.94353 10.8055V10.8055ZM3.84141 10.0904C3.73401 10.166 3.82573 9.88997 3.84141 10.0904V10.0904ZM4.00535 9.96656C3.86459 9.99675 3.9786 9.729 4.00535 9.96656V9.96656ZM4.91114 10.5072C5.29416 10.3568 4.21347 10.1961 4.83288 10.4788L4.91114 10.5072ZM17.0338 17.9952C16.7223 17.9258 17.279 17.7705 17.0338 17.9952V17.9952ZM18.4984 18.7544C18.251 18.7927 18.5966 18.4638 18.4984 18.7544V18.7544ZM5.00371 10.0325C4.70005 10.0883 5.04406 9.75141 5.00371 10.0325V10.0325ZM3.71498 9.16904C3.64575 8.77217 3.65522 8.07555 4.31741 8.31097C3.43349 8.48646 4.92918 9.4096 4.7403 8.68075C5.11197 8.69894 5.46737 8.46109 5.27232 8.82205C6.00461 8.74117 6.51231 8.10617 7.21965 8.19515C7.77064 8.12224 8.37306 8.06694 8.96682 7.84515C9.45497 7.80998 9.92494 7.28438 9.65737 6.97284C8.99162 6.91651 8.29474 6.99981 7.5589 7.14607C6.74351 7.31557 6.00287 7.63763 5.18016 7.77586C4.37825 7.88359 5.34145 8.07267 5.11175 8.11479C4.6933 8.25998 5.61079 8.35788 5.0575 8.51095C4.7158 8.44598 4.36014 8.32857 4.5061 7.96848C3.73794 8.06817 3.06295 8.38697 3.66984 9.16868L3.71498 9.16904ZM5.56596 8.22634C5.74607 7.56284 6.53089 8.77232 5.86117 8.31447C5.78118 8.25461 5.64962 8.20576 5.56596 8.22634ZM5.60101 7.90466C5.73919 8.01323 5.86095 7.71101 5.60101 7.90466V7.90466ZM5.93107 7.9099C5.95454 7.60459 6.68666 8.07153 6.0518 8.01981L5.93107 7.9099ZM6.38258 7.72836C6.42997 7.89972 6.54746 7.5357 6.38258 7.72836V7.72836ZM6.49808 7.65102C6.77263 7.32114 8.05287 7.44048 7.11578 7.61885C6.86461 7.42976 6.67207 7.73035 6.49808 7.65102ZM8.16883 7.39347C8.12706 6.49239 8.99887 7.71369 8.16883 7.39347V7.39347ZM8.6429 7.39088C8.81622 6.93672 9.31549 7.20864 8.7231 7.29962C8.73596 7.34795 8.70573 7.53408 8.6429 7.39088ZM4.81677 9.79941C4.26701 9.52425 5.33464 9.48225 4.81677 9.79941V9.79941ZM5.19967 9.90572C4.80516 9.82744 5.38124 9.71269 5.19967 9.90572V9.90572ZM4.07147 9.10507C3.7213 9.01864 4.36737 8.87775 4.07147 9.10507V9.10507ZM19.3627 18.6713C19.1366 18.7901 19.3714 18.4076 19.3627 18.6713V18.6713ZM17.809 17.6109C17.6093 17.6375 17.8532 17.3074 17.809 17.6109V17.6109ZM19.7901 18.7735C20.2038 18.7749 21.0436 18.6451 20.1434 18.6455C20.0021 18.6675 19.3204 18.6628 19.7901 18.7735ZM5.53649 9.71963C5.87131 9.69666 6.06034 9.35033 5.47173 9.37023C4.55948 9.27579 6.27659 9.6826 5.35471 9.56625C5.23083 9.64828 5.52929 9.74232 5.53649 9.71963ZM5.83137 9.86888C5.72783 9.98316 5.79641 9.65391 5.83137 9.86888V9.86888ZM6.18116 8.93618C5.98011 8.888 6.32646 8.75596 6.18116 8.93618V8.93618ZM5.06764 7.07486C5.6652 6.87157 6.48235 6.64314 6.7645 7.17494C6.47736 6.82934 6.64862 6.48911 6.91983 6.99442C7.30333 7.50567 7.49531 6.76188 7.24588 6.5904C7.53013 6.94358 7.85343 7.11047 7.43619 6.61272C7.88959 6.06733 6.52836 6.68414 6.21896 6.67793C6.0701 6.74474 4.68206 7.03192 5.06764 7.07486ZM5.41784 6.40415C5.75863 6.14693 6.59649 6.55715 6.05885 6.14852C6.00628 6.10209 4.88139 6.45839 5.41784 6.40415ZM6.66027 6.45544C7.05913 6.46562 6.48823 5.91962 6.96351 6.16703C6.88546 5.91203 6.41016 5.86429 6.17778 5.7624C6.04635 5.99555 6.4453 6.45857 6.66027 6.45544ZM5.6357 5.32762C5.39387 5.42246 5.77368 5.14057 5.6357 5.32762V5.32762ZM6.14349 5.44916C6.78625 5.36391 5.97966 5.17237 6.01398 5.44231L6.14349 5.44916ZM5.19532 4.70725C4.74276 4.11645 6.04644 4.80656 5.58664 4.18797C5.19963 3.8798 4.82774 4.53477 5.19532 4.70725ZM11.0033 7.83561C11.2109 7.46764 10.1464 7.33961 10.8635 7.70519C10.9296 7.72726 10.9146 7.86106 11.0033 7.83561Z" fill="black"/>
</g>
<defs>
<clipPath id="clip0_872_2230">
<rect width="24" height="24" fill="white"/>
</clipPath>
</defs>
</svg>
