<svg width="24" height="24" viewBox="0 0 24 24" fill="none" xmlns="http://www.w3.org/2000/svg">
<g clip-path="url(#clip0_872_2328)">
<path d="M18.375 0H5.625C2.5184 0 0 2.5184 0 5.625V18.375C0 21.4816 2.5184 24 5.625 24H18.375C21.4816 24 24 21.4816 24 18.375V5.625C24 2.5184 21.4816 0 18.375 0Z" fill="#F4F2ED"/>
<path d="M4.48633 16.5181L5.17464 16.9155L12.8427 3.63447L12.1544 3.23706L4.48633 16.5181Z" fill="#E535AB"/>
<path d="M19.6662 15.457H4.33008V16.2518H19.6662V15.457Z" fill="#E535AB"/>
<path d="M4.63281 15.9034L12.3037 20.3323L12.7011 19.644L5.03022 15.2151L4.63281 15.9034Z" fill="#E535AB"/>
<path d="M11.2969 4.36043L18.9678 8.78938L19.3652 8.10107L11.6943 3.67212L11.2969 4.36043Z" fill="#E535AB"/>
<path d="M4.63477 8.09814L5.03217 8.78645L12.7031 4.3575L12.3057 3.66919L4.63477 8.09814Z" fill="#E535AB"/>
<path d="M11.1582 3.63447L18.8263 16.9155L19.5146 16.5181L11.8465 3.23706L11.1582 3.63447Z" fill="#E535AB"/>
<path d="M5.73231 7.57104H4.9375V16.4289H5.73231V7.57104Z" fill="#E535AB"/>
<path d="M19.0624 7.57104H18.2676V16.4289H19.0624V7.57104Z" fill="#E535AB"/>
<path d="M11.8223 19.3946L12.1694 19.9959L18.841 16.1439L18.4939 15.5427L11.8223 19.3946Z" fill="#E535AB"/>
<path d="M20.116 16.6875C19.6564 17.4871 18.6317 17.76 17.8321 17.3003C17.0325 16.8407 16.7596 15.8161 17.2192 15.0165C17.6789 14.2168 18.7036 13.9439 19.5032 14.4035C20.3075 14.868 20.5804 15.8879 20.116 16.6875Z" fill="#E535AB"/>
<path d="M6.77614 8.98359C6.31649 9.78315 5.29185 10.0561 4.49224 9.59649C3.69264 9.13681 3.41973 8.11217 3.87937 7.31256C4.33903 6.51295 5.36367 6.24004 6.16327 6.69969C6.96288 7.16413 7.2358 8.18399 6.77614 8.98359Z" fill="#E535AB"/>
<path d="M3.88328 16.6875C3.42363 15.8879 3.69655 14.868 4.49615 14.4035C5.29575 13.9439 6.31561 14.2168 6.78005 15.0165C7.23971 15.8161 6.96678 16.8359 6.16718 17.3003C5.36279 17.76 4.34294 17.4871 3.88328 16.6875Z" fill="#E535AB"/>
<path d="M17.2231 8.98359C16.7635 8.18399 17.0364 7.16413 17.836 6.69969C18.6356 6.24004 19.6555 6.51295 20.1199 7.31256C20.5796 8.11217 20.3067 9.13202 19.507 9.59649C18.7074 10.0561 17.6828 9.78315 17.2231 8.98359Z" fill="#E535AB"/>
<path d="M11.9991 21.3751C11.075 21.3751 10.3281 20.6281 10.3281 19.7041C10.3281 18.78 11.075 18.033 11.9991 18.033C12.9232 18.033 13.6701 18.78 13.6701 19.7041C13.6701 20.6234 12.9232 21.3751 11.9991 21.3751Z" fill="#E535AB"/>
<path d="M11.9991 5.96706C11.075 5.96706 10.3281 5.22012 10.3281 4.29603C10.3281 3.37193 11.075 2.625 11.9991 2.625C12.9232 2.625 13.6701 3.37193 13.6701 4.29603C13.6701 5.22012 12.9232 5.96706 11.9991 5.96706Z" fill="#E535AB"/>
</g>
<defs>
<clipPath id="clip0_872_2328">
<rect width="24" height="24" fill="white"/>
</clipPath>
</defs>
</svg>
