<svg width="24" height="24" viewBox="0 0 24 24" fill="none" xmlns="http://www.w3.org/2000/svg">
<g clip-path="url(#clip0_872_2447)">
<path d="M18.375 0H5.625C2.5184 0 0 2.5184 0 5.625V18.375C0 21.4816 2.5184 24 5.625 24H18.375C21.4816 24 24 21.4816 24 18.375V5.625C24 2.5184 21.4816 0 18.375 0Z" fill="#A9CBD4"/>
<mask id="mask0_872_2447" style="mask-type:luminance" maskUnits="userSpaceOnUse" x="6" y="2" width="12" height="20">
<path d="M17.7225 2.625H6.1875V21.375H17.7225V2.625Z" fill="white"/>
</mask>
<g mask="url(#mask0_872_2447)">
<path d="M15.2811 13.0013C14.5517 13.0013 13.8979 13.3245 13.4501 13.8332L12.3028 13.0209C12.4246 12.6857 12.4945 12.3256 12.4945 11.9487C12.4945 11.5784 12.427 11.2243 12.3093 10.894L13.454 10.0904C13.9017 10.5965 14.5538 10.9178 15.2811 10.9178C16.6271 10.9178 17.7225 9.82276 17.7225 8.47642C17.7225 7.13011 16.6271 6.03496 15.2811 6.03496C13.9349 6.03496 12.8396 7.13011 12.8396 8.47642C12.8396 8.71739 12.876 8.94976 12.9413 9.16982L11.7958 9.97388C11.3173 9.38016 10.6283 8.96571 9.84328 8.83919V7.45859C10.9492 7.22631 11.7825 6.24372 11.7825 5.06963C11.7825 3.72332 10.6871 2.62817 9.34102 2.62817C7.99489 2.62817 6.89956 3.72332 6.89956 5.06963C6.89956 6.228 7.71125 7.19847 8.79504 7.44733V8.84585C7.31595 9.10548 6.1875 10.3963 6.1875 11.9487C6.1875 13.5087 7.32712 14.8043 8.8169 15.055V16.5318C7.72202 16.7724 6.89956 17.7488 6.89956 18.9151C6.89956 20.2614 7.99489 21.3566 9.34102 21.3566C10.6871 21.3566 11.7825 20.2614 11.7825 18.9151C11.7825 17.7488 10.96 16.7724 9.86512 16.5318V15.055C10.6192 14.928 11.3014 14.5313 11.7847 13.9387L12.9397 14.7562C12.8755 14.9742 12.8396 15.2043 12.8396 15.4429C12.8396 16.7891 13.9349 17.8843 15.2811 17.8843C16.6271 17.8843 17.7225 16.7891 17.7225 15.4429C17.7225 14.0965 16.6271 13.0013 15.2811 13.0013ZM15.2811 7.29269C15.9338 7.29269 16.4648 7.82384 16.4648 8.47642C16.4648 9.12901 15.9338 9.6601 15.2811 9.6601C14.6283 9.6601 14.0974 9.12901 14.0974 8.47642C14.0974 7.82384 14.6283 7.29269 15.2811 7.29269ZM8.15728 5.06963C8.15728 4.41705 8.68825 3.88594 9.34102 3.88594C9.99375 3.88594 10.5248 4.41705 10.5248 5.06963C10.5248 5.72221 9.99375 6.25332 9.34102 6.25332C8.68825 6.25332 8.15728 5.72221 8.15728 5.06963ZM10.5248 18.9151C10.5248 19.5677 9.99375 20.0988 9.34102 20.0988C8.68825 20.0988 8.15728 19.5677 8.15728 18.9151C8.15728 18.2626 8.68825 17.7314 9.34102 17.7314C9.99375 17.7314 10.5248 18.2626 10.5248 18.9151ZM9.34092 13.5996C8.43052 13.5996 7.68989 12.8591 7.68989 11.9487C7.68989 11.0383 8.43052 10.2977 9.34092 10.2977C10.2513 10.2977 10.9919 11.0383 10.9919 11.9487C10.9919 12.8591 10.2513 13.5996 9.34092 13.5996ZM15.2811 16.6266C14.6283 16.6266 14.0974 16.0954 14.0974 15.4429C14.0974 14.7903 14.6283 14.2592 15.2811 14.2592C15.9338 14.2592 16.4648 14.7903 16.4648 15.4429C16.4648 16.0954 15.9338 16.6266 15.2811 16.6266Z" fill="black"/>
</g>
</g>
<defs>
<clipPath id="clip0_872_2447">
<rect width="24" height="24" fill="white"/>
</clipPath>
</defs>
</svg>
