<svg width="24" height="24" viewBox="0 0 24 24" fill="none" xmlns="http://www.w3.org/2000/svg">
<g clip-path="url(#clip0_872_2586)">
<path d="M18.375 0H5.625C2.5184 0 0 2.5184 0 5.625V18.375C0 21.4816 2.5184 24 5.625 24H18.375C21.4816 24 24 21.4816 24 18.375V5.625C24 2.5184 21.4816 0 18.375 0Z" fill="#F4F2ED"/>
<path d="M8.94433 3.1875L2.90625 9.0431L8.94433 14.8958V9.0431H14.9794L8.94433 3.1875Z" fill="#F26636"/>
<path d="M21.0165 14.8945L14.9784 9.04175V14.8945H8.94336L14.9784 20.75L21.0165 14.8945Z" fill="#6373FF"/>
<path d="M14.9799 9.04175H8.94336V14.8959H14.9799V9.04175Z" fill="#27282C"/>
</g>
<defs>
<clipPath id="clip0_872_2586">
<rect width="24" height="24" fill="white"/>
</clipPath>
</defs>
</svg>
