<svg width="24" height="24" viewBox="0 0 24 24" fill="none" xmlns="http://www.w3.org/2000/svg">
<g clip-path="url(#clip0_872_2470)">
<path d="M18.375 0H5.625C2.5184 0 0 2.5184 0 5.625V18.375C0 21.4816 2.5184 24 5.625 24H18.375C21.4816 24 24 21.4816 24 18.375V5.625C24 2.5184 21.4816 0 18.375 0Z" fill="#F4F2ED"/>
<path fill-rule="evenodd" clip-rule="evenodd" d="M20.2356 7.34192C20.2416 7.36474 20.2448 7.38828 20.2448 7.41192V11.0869C20.2448 11.134 20.2325 11.1803 20.2092 11.2211C20.1859 11.262 20.1523 11.2958 20.112 11.3193L17.0702 13.0951V16.6149C17.0702 16.7108 17.02 16.7992 16.9381 16.8474L10.5886 20.5538C10.5741 20.5622 10.5582 20.5675 10.5424 20.5733C10.5364 20.5753 10.5308 20.579 10.5246 20.5807C10.4801 20.5925 10.4335 20.5925 10.3891 20.5807C10.3819 20.5786 10.3752 20.5746 10.3683 20.5719C10.3538 20.5666 10.3386 20.5619 10.3247 20.5538L3.97654 16.8474C3.93621 16.8239 3.9027 16.7901 3.87938 16.7493C3.85607 16.7085 3.84378 16.6621 3.84375 16.6149V5.5902C3.84375 5.56608 3.84705 5.54263 3.85299 5.51986C3.85498 5.51215 3.8596 5.50512 3.86225 5.49742C3.8672 5.48335 3.87183 5.46895 3.87909 5.45588C3.88404 5.44718 3.89131 5.44014 3.89726 5.43211C3.90486 5.42138 3.91179 5.41033 3.92071 5.40096C3.9283 5.39325 3.93821 5.38756 3.94681 5.38087C3.95638 5.37282 3.96497 5.36411 3.97587 5.35775H3.9762L7.15044 3.50454C7.19063 3.4811 7.2362 3.46875 7.28257 3.46875C7.32893 3.46875 7.3745 3.4811 7.41469 3.50454L10.589 5.35775H10.5896C10.6001 5.36445 10.6091 5.37282 10.6187 5.38053C10.6272 5.38722 10.6368 5.39325 10.6444 5.40062C10.6537 5.41033 10.6603 5.42138 10.6682 5.43211C10.6738 5.44014 10.6814 5.44718 10.686 5.45588C10.6936 5.46928 10.6979 5.48335 10.7033 5.49742C10.7059 5.50512 10.7105 5.51215 10.7124 5.5202C10.7185 5.54302 10.7216 5.56656 10.7217 5.5902V12.4762L13.3668 10.9318V7.41158C13.3668 7.38814 13.3701 7.36435 13.3761 7.34192C13.3784 7.33387 13.3826 7.32684 13.3853 7.31914C13.3906 7.30508 13.3952 7.29068 13.4025 7.27761C13.4075 7.2689 13.4147 7.26187 13.4203 7.25383C13.4283 7.24311 13.4348 7.23205 13.4441 7.22268C13.4517 7.21497 13.4613 7.20928 13.4699 7.20258C13.4798 7.19454 13.4884 7.18583 13.499 7.17947H13.4993L16.6739 5.32627C16.714 5.30278 16.7596 5.29042 16.806 5.29042C16.8524 5.29042 16.898 5.30278 16.9381 5.32627L20.1124 7.17947C20.1236 7.18617 20.1322 7.19454 20.1421 7.20225C20.1503 7.20894 20.1599 7.21497 20.1675 7.22234C20.1768 7.23205 20.1833 7.24311 20.1913 7.25383C20.1972 7.26187 20.2045 7.2689 20.2091 7.27761C20.2167 7.29068 20.221 7.30508 20.2263 7.31914C20.2293 7.32684 20.2336 7.33387 20.2356 7.34192ZM19.7156 10.9318V7.87581L18.6048 8.52425L17.0702 9.42019V12.4762L19.7159 10.9318H19.7156ZM16.5413 16.4599V13.4019L15.0319 14.2762L10.7213 16.7708V19.8575L16.5413 16.4599ZM4.3729 6.05408V16.4599L10.1922 19.8572V16.771L7.15209 15.0263L7.1511 15.0257L7.14978 15.025C7.13954 15.019 7.13095 15.0103 7.12137 15.0029C7.11311 14.9963 7.10354 14.9909 7.09628 14.9835L7.09562 14.9826C7.08703 14.9741 7.08108 14.9638 7.07381 14.9543C7.0672 14.9453 7.05928 14.9377 7.05399 14.9283L7.05362 14.9273C7.04768 14.9172 7.04404 14.9051 7.03974 14.8938C7.03545 14.8838 7.02983 14.8744 7.0272 14.8636V14.8632C7.0239 14.8506 7.02323 14.8372 7.02191 14.824C7.02059 14.814 7.01795 14.804 7.01795 14.7939V14.7933V7.59848L5.48372 6.70219L4.3729 6.05442V6.05408ZM7.28289 4.04647L4.63814 5.5902L7.28224 7.13392L9.92663 5.58986L7.28224 4.04647H7.28289ZM8.65829 13.6806L10.1926 12.785V6.05408L9.08174 6.70253L7.54715 7.59848V14.3294L8.65829 13.6806ZM16.806 5.8682L14.1615 7.41192L16.806 8.95564L19.45 7.41158L16.806 5.8682ZM16.5413 9.42019L15.0068 8.52425L13.896 7.87581V10.9318L15.4302 11.8274L16.5413 12.4762V9.42019ZM10.4565 16.3069L14.3352 14.0614L16.2742 12.9394L13.6317 11.3966L10.5893 13.1728L7.81634 14.7916L10.4565 16.3069Z" fill="#FF2D20"/>
</g>
<defs>
<clipPath id="clip0_872_2470">
<rect width="24" height="24" fill="white"/>
</clipPath>
</defs>
</svg>
