<svg width="24" height="24" viewBox="0 0 24 24" fill="none" xmlns="http://www.w3.org/2000/svg">
<g clip-path="url(#clip0_872_2687)">
<path d="M18.375 0H5.625C2.5184 0 0 2.5184 0 5.625V18.375C0 21.4816 2.5184 24 5.625 24H18.375C21.4816 24 24 21.4816 24 18.375V5.625C24 2.5184 21.4816 0 18.375 0Z" fill="#F4F2ED"/>
<path d="M13.7557 1.6875C13.6099 1.6875 13.4744 1.71958 13.3493 1.76236C13.6151 1.94418 13.761 2.18481 13.8339 2.45753C13.8392 2.49496 13.8496 2.5217 13.8547 2.55912C13.86 2.59121 13.8652 2.62329 13.8652 2.65538C13.8861 3.12595 13.7453 3.18477 13.6463 3.46283C13.4952 3.82112 13.5369 4.20613 13.7193 4.51627C13.7349 4.55371 13.7557 4.59649 13.7818 4.63392C13.5838 3.28103 14.6833 3.07782 14.8866 2.65538C14.9021 2.28641 14.6051 2.04043 14.3707 1.86931C14.1466 1.73028 13.9433 1.6875 13.7557 1.6875ZM15.4129 1.9923C15.392 2.11529 15.4076 2.08321 15.4025 2.14738C15.3972 2.19016 15.3972 2.24363 15.392 2.28641C15.3816 2.32919 15.3712 2.37197 15.3555 2.41475C15.3451 2.45752 15.3294 2.5003 15.3139 2.54308C15.293 2.58587 15.2774 2.62329 15.2565 2.66607C15.2409 2.68748 15.2304 2.70885 15.2149 2.73024C15.2045 2.74628 15.194 2.76232 15.1836 2.77837C15.1575 2.81581 15.1314 2.85323 15.1054 2.88532C15.0742 2.91741 15.0481 2.95483 15.0116 2.98158C15.0116 2.98693 15.0116 2.98693 15.0116 2.98693C14.9803 3.01367 14.9491 3.04575 14.9126 3.07249C14.8032 3.15804 14.6782 3.22222 14.5635 3.30243C14.527 3.32916 14.4906 3.35055 14.4592 3.38263C14.4228 3.40937 14.3916 3.43611 14.3602 3.4682C14.3238 3.50028 14.2977 3.53236 14.2665 3.56979C14.2404 3.60188 14.2091 3.63931 14.1883 3.67674C14.1622 3.71418 14.1362 3.7516 14.1154 3.78904C14.0945 3.83182 14.0789 3.86925 14.058 3.91203C14.0424 3.95481 14.0268 3.99224 14.0164 4.03502C14.0007 4.08314 13.9903 4.12593 13.9799 4.16871C13.9747 4.1901 13.9747 4.21683 13.9694 4.23822C13.9643 4.25962 13.9642 4.281 13.959 4.30239C13.959 4.34517 13.9538 4.39329 13.9538 4.43607C13.9538 4.46816 13.9538 4.50024 13.959 4.53232C13.959 4.5751 13.9643 4.61788 13.9747 4.66601C13.9799 4.70879 13.9903 4.75157 14.0007 4.79435C14.0164 4.83713 14.0268 4.87991 14.0424 4.92269C14.0528 4.94943 14.0685 4.97617 14.0789 4.99755L12.8804 4.52163C12.6772 4.46281 12.4792 4.40933 12.2759 4.36121C12.1665 4.33448 12.0571 4.30774 11.9476 4.281C11.6349 4.21683 11.3171 4.16871 10.9992 4.13663C10.9888 4.13663 10.9837 4.13126 10.9732 4.13126C10.6605 4.09918 10.3531 4.08314 10.0404 4.08314C9.81112 4.08314 9.58191 4.09383 9.35783 4.10988C9.03996 4.13127 8.7221 4.17404 8.40423 4.22752C8.32607 4.2382 8.2479 4.25425 8.16974 4.2703C8.0082 4.30238 7.85187 4.33982 7.70076 4.37724C7.6226 4.39865 7.54444 4.42002 7.46627 4.44142C7.38811 4.4735 7.31515 4.51093 7.2422 4.54301C7.18488 4.56975 7.12756 4.59649 7.07024 4.62322C7.05982 4.62858 7.04939 4.62858 7.04419 4.63391C6.99208 4.66065 6.94518 4.68203 6.89828 4.70878C6.88266 4.71413 6.87223 4.71946 6.86181 4.72482C6.80449 4.75156 6.74717 4.78364 6.70027 4.81038C6.6638 4.82642 6.62732 4.84781 6.59605 4.86385C6.58043 4.87454 6.55957 4.88525 6.54916 4.89059C6.50226 4.91733 6.45536 4.94407 6.41367 4.9708C6.36678 4.99754 6.32509 5.02427 6.28861 5.05101C6.25213 5.07775 6.21566 5.09914 6.1844 5.12587C6.17918 5.13123 6.17398 5.13123 6.16876 5.13656C6.13749 5.15796 6.10102 5.18468 6.06975 5.21142C6.06975 5.21142 6.06454 5.21677 6.05934 5.22211C6.03329 5.24351 6.00723 5.26489 5.98117 5.28628C5.97076 5.29163 5.96032 5.30232 5.94991 5.30767C5.92386 5.32908 5.8978 5.35581 5.87175 5.37719C5.86653 5.38788 5.85611 5.39324 5.8509 5.39859C5.81963 5.43068 5.78837 5.45741 5.7571 5.4895C5.75188 5.4895 5.75188 5.49486 5.74669 5.50018C5.71542 5.52692 5.68416 5.55901 5.65289 5.59109C5.64767 5.59644 5.64767 5.60178 5.64248 5.60178C5.61642 5.62852 5.59037 5.65525 5.56432 5.68733C5.5539 5.69802 5.53826 5.70874 5.52784 5.71942C5.50178 5.75151 5.47052 5.78359 5.43925 5.81568C5.43403 5.82636 5.42362 5.83172 5.4184 5.84241C5.37671 5.88519 5.34023 5.92797 5.29855 5.97075C5.29333 5.9761 5.28814 5.98144 5.28292 5.98679C5.19954 6.0777 5.11096 6.1686 5.01716 6.24881C4.92337 6.33437 4.82437 6.41458 4.72536 6.4841C4.62113 6.55897 4.52213 6.62313 4.4127 6.6873C4.30848 6.74612 4.19905 6.79959 4.08442 6.84772C3.97498 6.89585 3.86034 6.93863 3.74571 6.97606C3.52685 7.02419 3.30278 7.11509 3.10998 7.13113C3.06829 7.13113 3.02139 7.14182 2.9797 7.14717C2.93281 7.15786 2.89112 7.16857 2.84944 7.17926C2.80775 7.1953 2.76606 7.21134 2.72437 7.22738C2.68268 7.24343 2.641 7.26482 2.59931 7.28621C2.56283 7.31295 2.52115 7.33433 2.48468 7.36107C2.4482 7.38781 2.41172 7.41989 2.38045 7.45198C2.34398 7.47872 2.30751 7.51615 2.27624 7.54823C2.24497 7.58567 2.21371 7.61775 2.18766 7.65518C2.1616 7.69796 2.13034 7.7354 2.10949 7.77818C2.08343 7.81561 2.05738 7.85838 2.03654 7.90116C2.01568 7.94929 1.99485 7.99207 1.97921 8.0402C1.96358 8.08297 1.94795 8.1311 1.93232 8.17923C1.9219 8.22201 1.91147 8.26478 1.90627 8.30756C1.90627 8.31292 1.90104 8.31825 1.90104 8.3236C1.89063 8.37173 1.89063 8.43591 1.88542 8.46799C1.88019 8.50542 1.875 8.5375 1.875 8.57494C1.875 8.59634 1.875 8.62306 1.88022 8.64445C1.88543 8.68189 1.89063 8.71397 1.90107 8.74606C1.91149 8.77814 1.92192 8.81022 1.93754 8.84231C1.93754 8.84767 1.93754 8.84767 1.93754 8.84767C1.95318 8.87975 1.97402 8.91183 1.99487 8.94392C2.01572 8.976 2.03655 9.00808 2.0626 9.04017C2.08867 9.06691 2.11993 9.09899 2.1512 9.12573C2.18245 9.15781 2.21373 9.18455 2.2502 9.21128C2.37526 9.32358 2.40653 9.36101 2.56807 9.44653C2.59412 9.46266 2.62017 9.47334 2.65144 9.48938C2.65666 9.48938 2.66185 9.49472 2.66707 9.49472C2.66707 9.50541 2.66708 9.51075 2.67229 9.52144C2.67751 9.56419 2.68793 9.60703 2.69834 9.64978C2.70876 9.69788 2.7244 9.74072 2.74003 9.77813C2.75567 9.81019 2.76608 9.84225 2.78172 9.87441C2.78694 9.88509 2.79214 9.89578 2.79735 9.90112C2.81821 9.94388 2.83904 9.98128 2.85988 10.0188C2.88593 10.0562 2.91199 10.0936 2.93805 10.1311C2.9641 10.1632 2.99537 10.2006 3.02663 10.2326C3.0579 10.2648 3.08917 10.2915 3.12563 10.3236C3.12563 10.3236 3.13086 10.3289 3.13605 10.3289C3.16732 10.3556 3.19858 10.3824 3.22985 10.4038C3.26632 10.4305 3.3028 10.4519 3.34448 10.4733C3.38096 10.4947 3.42265 10.516 3.46433 10.5322C3.4956 10.5482 3.53208 10.5589 3.56856 10.5696C3.57378 10.5749 3.57897 10.5749 3.58941 10.5802C3.61026 10.5856 3.6363 10.5909 3.65715 10.5963C3.64151 10.885 3.6363 11.1578 3.678 11.254C3.72489 11.361 3.95418 11.0347 4.18345 10.6604C4.15219 11.0294 4.13135 11.4625 4.18345 11.5909C4.24077 11.7246 4.55343 11.3075 4.82439 10.8476C8.51891 9.97059 11.8903 12.5909 12.2447 16.2913C12.1769 15.7137 11.4839 15.3929 11.166 15.4732C11.0097 15.8688 10.7439 16.3768 10.3166 16.6923C10.3532 16.3394 10.3375 15.9757 10.2646 15.6229C10.1499 16.1148 9.92587 16.5747 9.61837 16.9703C9.12337 17.0078 8.62834 16.7618 8.3678 16.3928C8.34694 16.3768 8.34174 16.3447 8.32611 16.3234C8.31048 16.2859 8.29484 16.2485 8.28442 16.2111C8.26879 16.1737 8.25836 16.1362 8.25315 16.0988C8.24794 16.0613 8.24794 16.0239 8.24794 15.9811C8.24794 15.9544 8.24794 15.9277 8.24794 15.9009C8.25315 15.8634 8.26357 15.826 8.27399 15.7886C8.2844 15.7512 8.29484 15.7137 8.31047 15.6763C8.33132 15.6389 8.34694 15.6015 8.373 15.564C8.46158 15.3073 8.46158 15.0988 8.30004 14.9758C8.26878 14.9544 8.23751 14.9384 8.20103 14.9224C8.18018 14.9169 8.15414 14.9062 8.13329 14.9009C8.11766 14.8956 8.10724 14.8902 8.09161 14.8849C8.05513 14.8742 8.01865 14.8635 7.98218 14.8582C7.94571 14.8475 7.90923 14.8421 7.87275 14.8421C7.83627 14.8368 7.79459 14.8314 7.75811 14.8314C7.73206 14.8314 7.706 14.8368 7.67994 14.8368C7.63826 14.8368 7.60178 14.8421 7.56531 14.8528C7.52883 14.8582 7.49236 14.8635 7.45588 14.8742C7.4194 14.8849 7.38293 14.8957 7.34645 14.9117C7.30998 14.9277 7.27871 14.9438 7.24223 14.9598C7.21097 14.9758 7.1797 14.9972 7.14322 15.0132C5.92909 15.826 6.6534 17.7297 7.48193 18.2805C7.16928 18.3394 6.85142 18.4088 6.76283 18.4784C6.75761 18.4837 6.75242 18.4891 6.75242 18.4891C6.97649 18.6281 7.21098 18.7458 7.45589 18.8473C7.78939 18.9596 8.14372 19.0613 8.30005 19.104V19.1093C8.73255 19.2003 9.17027 19.2323 9.61322 19.2056C11.9216 19.0399 13.8131 17.2378 14.1571 14.8635C14.1675 14.9117 14.1779 14.9544 14.1883 15.0025C14.204 15.0988 14.2248 15.2004 14.2353 15.302C14.2353 15.302 14.2353 15.302 14.2353 15.3074C14.2457 15.3555 14.2508 15.4036 14.2561 15.4464C14.2561 15.4571 14.2561 15.4625 14.2561 15.4678C14.2613 15.5159 14.2665 15.5641 14.2665 15.6068C14.2717 15.6656 14.2769 15.7245 14.2769 15.7833C14.2769 15.81 14.2769 15.8368 14.2769 15.8689C14.2769 15.8956 14.2822 15.9277 14.2822 15.9544C14.2822 15.9865 14.2769 16.0186 14.2769 16.0507C14.2769 16.0774 14.2769 16.1042 14.2769 16.1256C14.2769 16.163 14.2717 16.195 14.2717 16.2325C14.2717 16.2539 14.2717 16.2753 14.2665 16.302C14.2665 16.3394 14.2612 16.3769 14.2612 16.4197C14.256 16.4357 14.256 16.4517 14.256 16.4678C14.2508 16.5106 14.2456 16.548 14.2404 16.5907C14.2404 16.6068 14.2404 16.6228 14.2352 16.6389C14.2299 16.6924 14.2195 16.7405 14.2144 16.794V16.7993V16.8047C14.204 16.8528 14.1935 16.9063 14.1831 16.9544C14.1831 16.9598 14.1831 16.9651 14.1831 16.9704C14.1727 17.0185 14.1623 17.0667 14.1518 17.1148C14.1518 17.1202 14.1466 17.1308 14.1466 17.1362C14.1362 17.1844 14.1258 17.2325 14.1101 17.2807C14.1101 17.286 14.1101 17.2913 14.1101 17.2967C14.0945 17.3501 14.0788 17.3982 14.0684 17.4464C14.0633 17.4517 14.0632 17.4571 14.0632 17.4571C14.0476 17.5105 14.0319 17.564 14.0163 17.6175C13.9955 17.6709 13.9798 17.7191 13.959 17.7726C13.9382 17.826 13.9225 17.8795 13.9017 17.9276C13.8808 17.9812 13.86 18.0293 13.8392 18.0827H13.8339C13.813 18.1309 13.7922 18.1843 13.7662 18.2324C13.7609 18.2484 13.7557 18.2592 13.7505 18.2699C13.7453 18.2752 13.7453 18.2806 13.7401 18.2859C13.4014 18.9864 12.9012 19.6013 12.2759 20.0827C12.2342 20.1094 12.1925 20.1414 12.1508 20.1736C12.1404 20.1842 12.1248 20.1896 12.1144 20.2003C12.0778 20.227 12.0413 20.2537 11.9997 20.2805L12.0153 20.3126H12.0205C12.0935 20.3019 12.1664 20.2912 12.2394 20.2805H12.2446C12.3801 20.2591 12.5156 20.2324 12.6511 20.2057C12.6876 20.2003 12.7292 20.1896 12.7657 20.1789C12.7917 20.1735 12.8126 20.1683 12.8387 20.1628C12.8752 20.1575 12.9116 20.1468 12.9481 20.1414C12.9793 20.1307 13.0106 20.1254 13.0418 20.1147C13.563 19.9864 14.0684 19.8099 14.553 19.6013C13.7245 20.7618 12.6146 21.6976 11.3171 22.3125C11.9164 22.2698 12.5156 22.1681 13.094 21.997C15.194 21.3607 16.9605 19.9115 18.0183 17.9597C17.8046 19.1949 17.3252 20.3714 16.6165 21.3981C17.122 21.0559 17.5858 20.6602 18.0079 20.211C19.1751 18.9597 19.9411 17.3715 20.2016 15.6657C20.3788 16.5106 20.4309 17.3822 20.3527 18.2431C24.115 12.8583 20.6654 7.27559 19.222 5.80506C19.2168 5.79437 19.2116 5.78902 19.2116 5.77832C19.2064 5.78367 19.2064 5.78367 19.2064 5.78901C19.2064 5.78365 19.2064 5.78365 19.2011 5.77832C19.2011 5.84249 19.1959 5.90665 19.1907 5.97083C19.1751 6.09382 19.1595 6.21145 19.1386 6.3291C19.1125 6.44675 19.0813 6.56438 19.05 6.68203C19.0135 6.79433 18.9719 6.91196 18.9249 7.02427C18.8781 7.13121 18.8259 7.24351 18.7687 7.35046C18.7113 7.45206 18.6488 7.55901 18.5811 7.65526C18.5133 7.75686 18.4403 7.85311 18.3674 7.94402C18.2892 8.04027 18.2059 8.12583 18.1225 8.21138C18.0704 8.25952 18.0234 8.30229 17.9714 8.34507C17.9297 8.38251 17.8932 8.41459 17.8515 8.45202C17.7577 8.52688 17.6639 8.5964 17.5597 8.66057C17.4607 8.72474 17.3565 8.7889 17.2523 8.84238C17.1428 8.89585 17.0334 8.94398 16.924 8.99211C16.8145 9.03488 16.6999 9.07232 16.5853 9.10441C16.4707 9.13649 16.3507 9.16323 16.2362 9.18461C16.1163 9.20602 15.9965 9.2167 15.8818 9.2274C15.7985 9.23275 15.715 9.23809 15.6317 9.23809C15.5119 9.23809 15.392 9.2274 15.2773 9.21668C15.1575 9.206 15.0377 9.18995 14.923 9.16321C14.8031 9.14181 14.6886 9.10973 14.5739 9.0723H14.5687C14.6833 9.06162 14.798 9.05091 14.9126 9.02952C15.0324 9.00813 15.1471 8.9814 15.2618 8.94931C15.3763 8.91723 15.491 8.87979 15.6004 8.83702C15.715 8.79424 15.8244 8.74076 15.9287 8.68729C16.0381 8.63381 16.1371 8.57499 16.2413 8.51082C16.3403 8.44131 16.4393 8.37179 16.5332 8.29693C16.6269 8.22206 16.7155 8.14186 16.7989 8.05629C16.8875 7.97608 16.9657 7.88518 17.0438 7.79427C17.122 7.69802 17.195 7.60177 17.2627 7.50551C17.2731 7.48947 17.2836 7.46808 17.294 7.45204C17.3461 7.36648 17.3981 7.28093 17.4451 7.19536C17.5024 7.08841 17.5545 6.98147 17.6014 6.86917C17.6483 6.75687 17.69 6.64458 17.7264 6.52694C17.7629 6.41464 17.789 6.297 17.815 6.17935C17.8359 6.05636 17.8567 5.93872 17.8672 5.82108C17.8776 5.69809 17.888 5.5751 17.888 5.45746C17.888 5.37189 17.8828 5.28634 17.8776 5.20078C17.8672 5.07779 17.8515 4.96014 17.8359 4.84251C17.815 4.71952 17.789 4.60187 17.7577 4.48423C17.7213 4.37194 17.6848 4.25429 17.6431 4.142C17.6014 4.0297 17.5493 3.9174 17.4972 3.81045C17.4398 3.70351 17.3826 3.59656 17.32 3.49496C17.2522 3.39336 17.1846 3.2971 17.1116 3.20085C17.0334 3.10994 16.9552 3.01904 16.8719 2.92813C16.8302 2.88535 16.7833 2.83723 16.7364 2.79445C16.5019 2.60729 16.257 2.43082 16.0121 2.2704C15.9757 2.24901 15.9443 2.23297 15.9079 2.21692C15.7359 2.10463 15.5744 2.04577 15.4129 1.9923Z" fill="#E0234E"/>
</g>
<defs>
<clipPath id="clip0_872_2687">
<rect width="24" height="24" fill="white"/>
</clipPath>
</defs>
</svg>
