<svg width="24" height="24" viewBox="0 0 24 24" fill="none" xmlns="http://www.w3.org/2000/svg">
<g clip-path="url(#clip0_872_2703)">
<path d="M18.375 0H5.625C2.5184 0 0 2.5184 0 5.625V18.375C0 21.4816 2.5184 24 5.625 24H18.375C21.4816 24 24 21.4816 24 18.375V5.625C24 2.5184 21.4816 0 18.375 0Z" fill="#242938"/>
<path d="M11.2386 2.91716C11.6997 2.6532 12.3003 2.65203 12.761 2.91716C15.0787 4.22676 17.3971 5.53436 19.7144 6.84476C20.1503 7.09027 20.4418 7.57536 20.4374 8.07757V15.9568C20.4407 16.4798 20.1203 16.9765 19.6605 17.2164C17.3504 18.5189 15.0414 19.8229 12.7317 21.1253C12.2612 21.3944 11.6485 21.3737 11.1925 21.0825C10.5 20.6811 9.80625 20.2815 9.11364 19.8804C8.97208 19.7961 8.81254 19.7289 8.71261 19.5917C8.80093 19.4726 8.95892 19.4578 9.08727 19.4058C9.37631 19.3138 9.64191 19.1662 9.90741 19.0231C9.97463 18.9772 10.0566 18.9948 10.121 19.0358C10.7132 19.3754 11.3003 19.7249 11.8944 20.0612C12.0212 20.1344 12.1495 20.0372 12.2579 19.9768C14.5248 18.6955 16.7945 17.4192 19.0611 16.1376C19.1451 16.0972 19.1915 16.008 19.1846 15.916C19.1862 13.3168 19.185 10.7172 19.1855 8.11798C19.195 8.01361 19.1347 7.91765 19.0403 7.87491C16.7382 6.57846 14.4372 5.28005 12.1356 3.98327C12.0539 3.92712 11.9462 3.92698 11.8644 3.98285C9.56269 5.28005 7.26223 6.57967 4.96054 7.87603C4.86649 7.91883 4.80338 8.01323 4.81457 8.11798C4.81496 10.7172 4.81457 13.3168 4.81457 15.9164C4.80639 16.0084 4.85634 16.0957 4.93974 16.1352C5.55396 16.4835 6.16898 16.8293 6.78358 17.1765C7.12984 17.3628 7.55497 17.4736 7.93645 17.3308C8.27309 17.2101 8.50906 16.8665 8.50264 16.5091C8.50583 13.9251 8.50104 11.3407 8.50503 8.75698C8.49665 8.64226 8.60543 8.54748 8.71697 8.5583C9.01211 8.55628 9.30759 8.55432 9.60272 8.55909C9.72591 8.55628 9.81066 8.67981 9.79547 8.79538C9.79425 11.3958 9.79866 13.9962 9.7935 16.5966C9.79425 17.2897 9.50953 18.0438 8.8685 18.3829C8.07879 18.7919 7.10268 18.7052 6.32249 18.3129C5.64708 17.9758 5.00253 17.5779 4.33911 17.2168C3.87807 16.9782 3.55931 16.4796 3.56256 15.9569V8.07757C3.55772 7.56496 3.86086 7.07107 4.31029 6.82917C6.62 5.5257 8.92932 4.2212 11.2386 2.91716Z" fill="#81CD39"/>
<path d="M13.2545 8.37505C14.2618 8.3102 15.3402 8.33665 16.2467 8.83287C16.9486 9.21321 17.3377 10.0114 17.35 10.7911C17.3305 10.8962 17.2205 10.9542 17.1201 10.947C16.8279 10.9466 16.5355 10.951 16.2432 10.945C16.1192 10.9498 16.0472 10.8355 16.0316 10.7259C15.9476 10.3528 15.7441 9.98333 15.393 9.80333C14.854 9.53351 14.229 9.54711 13.6412 9.55273C13.2121 9.57542 12.7507 9.61264 12.3871 9.86492C12.108 10.0561 12.0233 10.442 12.1228 10.7527C12.2168 10.9759 12.4743 11.0479 12.6851 11.1142C13.8991 11.4318 15.1855 11.4001 16.3764 11.8179C16.8694 11.9883 17.3516 12.3195 17.5204 12.8357C17.7412 13.5275 17.6444 14.3544 17.1521 14.9098C16.753 15.3668 16.1716 15.6156 15.5918 15.7507C14.8204 15.9228 14.0199 15.9272 13.2365 15.8508C12.4999 15.7668 11.7333 15.5733 11.1647 15.0714C10.6784 14.6492 10.441 13.9912 10.4645 13.3564C10.4701 13.2491 10.5769 13.1743 10.6796 13.1831C10.9739 13.1808 11.2683 13.1799 11.5626 13.1836C11.6802 13.1751 11.7673 13.2768 11.7734 13.3876C11.8276 13.743 11.9612 14.1161 12.2712 14.3268C12.8694 14.7127 13.62 14.6863 14.305 14.6971C14.8724 14.672 15.5095 14.6644 15.9725 14.2893C16.2168 14.0753 16.2892 13.7174 16.2232 13.4095C16.1516 13.1495 15.8797 13.0284 15.6461 12.9492C14.4477 12.5702 13.1469 12.7077 11.9601 12.279C11.4782 12.1087 11.0123 11.7868 10.8272 11.2918C10.5689 10.5912 10.6872 9.72458 11.2311 9.18796C11.7613 8.65414 12.5267 8.44861 13.2545 8.37505Z" fill="#81CD39"/>
</g>
<defs>
<clipPath id="clip0_872_2703">
<rect width="24" height="24" fill="white"/>
</clipPath>
</defs>
</svg>
