<svg width="24" height="24" viewBox="0 0 24 24" fill="none" xmlns="http://www.w3.org/2000/svg">
<g clip-path="url(#clip0_872_2899)">
<path d="M18.375 0H5.625C2.5184 0 0 2.5184 0 5.625V18.375C0 21.4816 2.5184 24 5.625 24H18.375C21.4816 24 24 21.4816 24 18.375V5.625C24 2.5184 21.4816 0 18.375 0Z" fill="#F4F2ED"/>
<path d="M18.4512 10.5403H13.777C13.6643 10.5403 13.5563 10.4956 13.4767 10.4159C13.397 10.3363 13.3522 10.2283 13.3522 10.1157V5.24678C13.3522 4.88622 13.0597 4.59375 12.6991 4.59375H11.0305C10.6697 4.59375 10.3774 4.88622 10.3774 5.24678V10.0863C10.3774 10.3373 10.1743 10.5414 9.92306 10.5425L8.39132 10.5498C8.13798 10.5512 7.93215 10.3457 7.93264 10.0927L7.94214 5.24788C7.94297 4.88678 7.65035 4.59375 7.28906 4.59375H5.62189C5.26104 4.59375 4.96875 4.88622 4.96875 5.24678V18.8805C4.96875 19.2007 5.22835 19.4603 5.54856 19.4603H18.4512C18.7717 19.4603 19.0312 19.2007 19.0312 18.8805V11.1202C19.0312 10.7998 18.7717 10.5403 18.4512 10.5403ZM16.2593 15.6593C16.2593 16.079 15.9188 16.4194 15.4988 16.4194H14.1803C13.7603 16.4194 13.4198 16.079 13.4198 15.6593V14.3413C13.4198 13.9215 13.7603 13.5812 14.1803 13.5812H15.4988C15.9188 13.5812 16.2593 13.9215 16.2593 14.3413V15.6593Z" fill="#FF6600"/>
</g>
<defs>
<clipPath id="clip0_872_2899">
<rect width="24" height="24" fill="white"/>
</clipPath>
</defs>
</svg>
