<svg width="24" height="24" viewBox="0 0 24 24" fill="none" xmlns="http://www.w3.org/2000/svg">
<g clip-path="url(#clip0_872_2902)">
<path d="M18.375 0H5.625C2.5184 0 0 2.5184 0 5.625V18.375C0 21.4816 2.5184 24 5.625 24H18.375C21.4816 24 24 21.4816 24 18.375V5.625C24 2.5184 21.4816 0 18.375 0Z" fill="#D30001"/>
<path d="M21.3628 10.9484L21.375 10.9605C21.375 10.9605 21.2345 11.0597 21.0857 11.1837C16.3898 7.71147 13.5212 9.34837 12.6201 9.78656C8.52777 12.07 9.71034 17.6756 9.73444 17.7875L9.73481 17.7892H3.20371C3.20371 17.7892 3.45172 15.3421 5.18782 12.4486C6.92393 9.55509 9.88359 7.36425 12.2893 7.14931C16.9281 6.68464 21.1087 10.6997 21.3628 10.9484ZM9.98278 16.1358L10.8757 16.4582C10.917 16.782 10.9756 17.0886 11.037 17.3683L11.074 17.5329L10.082 17.1774C10.0406 16.9294 9.99938 16.5739 9.98278 16.1358ZM3.03835 13.4572L3.98909 13.8044C3.87335 14.0721 3.72596 14.4157 3.61892 14.6857L3.57573 14.7965L2.625 14.4492C2.70767 14.226 2.88127 13.8127 3.03835 13.4572ZM10.3549 13.1265L10.9501 13.5977C10.8839 13.8557 10.8337 14.1136 10.7992 14.3715L10.7765 14.565L10.1068 14.0359C10.1729 13.7382 10.2473 13.4324 10.3549 13.1265ZM11.8181 10.82L12.1901 11.3821C12.0446 11.5342 11.9097 11.6863 11.7896 11.8469L11.7023 11.9691L11.3056 11.3738C11.4544 11.1837 11.628 10.9936 11.8181 10.82ZM5.89881 9.59644L6.48578 10.109C6.33697 10.2639 6.19282 10.4283 6.05679 10.5949L5.92361 10.762L5.28704 10.2164C5.47718 10.0098 5.68386 9.80306 5.89881 9.59644ZM14.0916 9.56334L14.2734 10.109C14.0817 10.1685 13.8899 10.2439 13.6981 10.3309L13.5542 10.3983L13.3641 9.82791C13.5708 9.73697 13.8105 9.64603 14.0916 9.56334ZM16.0261 9.36491C16.2378 9.37819 16.4547 9.40191 16.6769 9.44053L16.8445 9.47241L16.8115 9.98494C16.5933 9.93862 16.375 9.90825 16.1568 9.89372L15.9931 9.88575L16.0261 9.36491ZM9.23875 7.08317L9.61078 7.6536C9.44953 7.73421 9.29302 7.82411 9.13413 7.91983L8.9742 8.01736L8.59391 7.43866C8.81712 7.30638 9.03207 7.19064 9.23875 7.08317ZM16.0427 6.76901C16.5346 6.90955 16.7462 7.00585 16.8309 7.05095L16.8445 7.05836L16.8115 7.61227C16.6351 7.54062 16.4587 7.47264 16.28 7.40834L16.0096 7.31465L16.0427 6.76901ZM12.8846 6.28125L13.0499 6.78555H12.9672C12.7874 6.78555 12.6076 6.7902 12.4278 6.80299L12.2481 6.81862L12.0909 6.33085C12.3638 6.29779 12.6283 6.28125 12.8846 6.28125Z" fill="white"/>
</g>
<defs>
<clipPath id="clip0_872_2902">
<rect width="24" height="24" fill="white"/>
</clipPath>
</defs>
</svg>
