<svg width="24" height="24" viewBox="0 0 24 24" fill="none" xmlns="http://www.w3.org/2000/svg">
<g clip-path="url(#clip0_872_3087)">
<path d="M18.375 0H5.625C2.5184 0 0 2.5184 0 5.625V18.375C0 21.4816 2.5184 24 5.625 24H18.375C21.4816 24 24 21.4816 24 18.375V5.625C24 2.5184 21.4816 0 18.375 0Z" fill="#F4F2ED"/>
<path d="M19.6448 16.1082C17.3372 19.1829 12.4075 18.145 9.24706 18.2943C9.24706 18.2943 8.68756 18.3254 8.12403 18.4182C8.12403 18.4182 8.33711 18.3273 8.60887 18.2336C10.8287 17.466 11.8777 17.3118 13.2264 16.619C15.7607 15.3207 18.2829 12.493 18.7961 9.55548C17.8314 12.3807 14.8977 14.8123 12.2264 15.7997C10.3979 16.4744 7.09143 17.131 7.09095 17.1313C7.0925 17.1337 6.95918 17.0621 6.95731 17.0605C4.70862 15.9665 4.64374 11.0962 8.7278 9.52623C10.5185 8.83746 12.2312 9.21578 14.1669 8.75504C16.2315 8.26417 18.6227 6.71663 19.5946 4.69342C20.6842 7.92517 21.993 12.9813 19.6448 16.1082ZM19.685 3.69197C19.4103 4.34467 19.0749 4.93282 18.6885 5.45889C16.9872 3.71287 14.6126 2.625 11.9879 2.625C6.8249 2.625 2.625 6.82537 2.625 11.9874C2.625 14.6935 3.78008 17.1341 5.62166 18.8449L5.82669 19.0265C5.48431 18.7473 5.43166 18.2445 5.70916 17.9018C5.98837 17.5589 6.49166 17.5058 6.83422 17.7834C7.17769 18.0617 7.23002 18.5658 6.95192 18.9091C6.67485 19.2526 6.17064 19.3044 5.82763 19.0273L5.96716 19.1509C7.59613 20.5224 9.696 21.3509 11.9879 21.3509C16.9229 21.3509 20.9752 17.5104 21.3221 12.6631C21.579 10.2897 20.878 7.276 19.685 3.69197Z" fill="#5FB832"/>
</g>
<defs>
<clipPath id="clip0_872_3087">
<rect width="24" height="24" fill="white"/>
</clipPath>
</defs>
</svg>
