<svg width="24" height="24" viewBox="0 0 24 24" fill="none" xmlns="http://www.w3.org/2000/svg">
<g clip-path="url(#clip0_872_3147)">
<path d="M18.375 0H5.625C2.5184 0 0 2.5184 0 5.625V18.375C0 21.4816 2.5184 24 5.625 24H18.375C21.4816 24 24 21.4816 24 18.375V5.625C24 2.5184 21.4816 0 18.375 0Z" fill="#F4F2ED"/>
<path d="M12 21.375C17.1776 21.375 21.375 17.1776 21.375 12C21.375 6.82233 17.1776 2.625 12 2.625C6.82233 2.625 2.625 6.82233 2.625 12C2.625 17.1776 6.82233 21.375 12 21.375Z" fill="#1A171B"/>
<path d="M16.0991 6.09387C15.1467 6.12709 14.3153 6.65196 13.6967 7.37815C13.0114 8.17425 12.5556 9.11854 12.2272 10.0825C11.6396 9.60099 11.1864 8.97758 10.2439 8.70576C9.51532 8.49662 8.75015 8.58299 8.0465 9.10728C7.71315 9.35627 7.4835 9.7327 7.37431 10.0865C7.09151 11.0059 7.67155 11.8243 7.93499 12.1181L8.51098 12.7353C8.6297 12.8565 8.91568 13.1721 8.77587 13.6247C8.62479 14.117 8.03147 14.4356 7.42284 14.2479C7.15102 14.1649 6.76048 13.9624 6.84801 13.6773C6.88411 13.5606 6.96759 13.4734 7.01237 13.3726C7.05338 13.2859 7.07302 13.221 7.08545 13.1828C7.19666 12.8197 7.04472 12.3474 6.65591 12.2276C6.2931 12.1164 5.92191 12.2044 5.77806 12.6716C5.61485 13.2022 5.86877 14.1652 7.22901 14.5846C8.82266 15.0743 10.1708 14.2065 10.362 13.0748C10.4824 12.366 10.1624 11.8394 9.57598 11.1619L9.09824 10.6336C8.8088 10.3444 8.70943 9.85167 9.00898 9.47302C9.26173 9.1535 9.62164 9.01715 10.2112 9.17747C11.0718 9.41114 11.4554 10.0082 12.0954 10.4897C11.8311 11.3566 11.6584 12.2267 11.5022 13.0069L11.4068 13.5886C10.9492 15.9885 10.6 17.3063 9.69242 18.0629C9.5096 18.1928 9.24815 18.3875 8.85415 18.4011C8.64761 18.4075 8.58089 18.2654 8.57799 18.2035C8.57309 18.0585 8.69527 17.9921 8.77644 17.9268C8.89776 17.8606 9.0812 17.7509 9.06877 17.3993C9.05548 16.984 8.71146 16.6237 8.21403 16.6402C7.8414 16.653 7.2735 17.0036 7.29487 17.6455C7.31712 18.3084 7.93499 18.8053 8.86657 18.7738C9.36456 18.7567 10.4767 18.5539 11.5727 17.2512C12.8482 15.7577 13.2049 14.0457 13.4734 12.7926L13.7729 11.1383C13.9393 11.1582 14.1172 11.1715 14.3107 11.1761C15.8995 11.2096 16.6941 10.3866 16.7059 9.78811C16.7138 9.42586 16.4683 9.06943 16.1245 9.07752C15.8784 9.08446 15.5693 9.24824 15.4951 9.58852C15.4226 9.92245 16.0006 10.2238 15.5488 10.5164C15.2279 10.724 14.6524 10.8705 13.8422 10.7515L13.9895 9.93717C14.2902 8.39292 14.6612 6.49337 16.0682 6.44715C16.1707 6.44195 16.5459 6.45177 16.5546 6.6999C16.5573 6.7828 16.5367 6.8039 16.4396 6.99368C16.3409 7.14158 16.3036 7.26752 16.3083 7.41223C16.3218 7.80654 16.6217 8.06564 17.0552 8.05004C17.6359 8.03126 17.8028 7.46596 17.7933 7.17566C17.7698 6.49366 17.0509 6.06267 16.0991 6.09387Z" fill="#F4F2ED"/>
</g>
<defs>
<clipPath id="clip0_872_3147">
<rect width="24" height="24" fill="white"/>
</clipPath>
</defs>
</svg>
