<svg width="24" height="24" viewBox="0 0 24 24" fill="none" xmlns="http://www.w3.org/2000/svg">
<g clip-path="url(#clip0_872_3258)">
<path d="M18.375 0H5.625C2.5184 0 0 2.5184 0 5.625V18.375C0 21.4816 2.5184 24 5.625 24H18.375C21.4816 24 24 21.4816 24 18.375V5.625C24 2.5184 21.4816 0 18.375 0Z" fill="#0073AA"/>
<path d="M3.95703 11.9995C3.95703 15.1828 5.80698 17.9338 8.48955 19.2374L4.6533 8.72656C4.20708 9.72679 3.95703 10.8336 3.95703 11.9995Z" fill="white"/>
<path d="M17.4298 11.5935C17.4298 10.5997 17.0728 9.91139 16.7666 9.3756C16.3589 8.71315 15.9768 8.15215 15.9768 7.48969C15.9768 6.75042 16.5375 6.06225 17.3272 6.06225C17.363 6.06225 17.3967 6.06669 17.4315 6.06869C16.0007 4.75784 14.0945 3.95752 12.0006 3.95752C9.1911 3.95752 6.71924 5.39904 5.28125 7.58243C5.46993 7.58809 5.64775 7.59207 5.79879 7.59207C6.63998 7.59207 7.94209 7.49 7.94209 7.49C8.37562 7.46444 8.42673 8.10119 7.99366 8.15246C7.99366 8.15246 7.55799 8.20372 7.0732 8.22913L10.0018 16.9402L11.7618 11.6618L10.5088 8.22882C10.0758 8.20342 9.66551 8.15215 9.66551 8.15215C9.23211 8.12675 9.28292 7.46414 9.71633 7.48969C9.71633 7.48969 11.0444 7.59177 11.8346 7.59177C12.6757 7.59177 13.9779 7.48969 13.9779 7.48969C14.4118 7.46414 14.4627 8.10089 14.0295 8.15215C14.0295 8.15215 13.5929 8.20342 13.109 8.22882L16.0154 16.8739L16.8175 14.1934C17.1652 13.081 17.4298 12.282 17.4298 11.5935Z" fill="white"/>
<path d="M12.1415 12.7029L9.72852 19.7144C10.4489 19.9262 11.2109 20.0421 12.0004 20.0421C12.9368 20.0421 13.835 19.8802 14.6709 19.5862C14.6494 19.5518 14.6298 19.5152 14.6137 19.4754L12.1415 12.7029Z" fill="white"/>
<path d="M19.0568 8.14111C19.0914 8.39728 19.111 8.67227 19.111 8.96807C19.111 9.78413 18.9586 10.7016 18.4995 11.8487L16.043 18.9511C18.4339 17.5568 20.0421 14.9666 20.0421 11.9997C20.0422 10.6014 19.6851 9.28667 19.0568 8.14111Z" fill="white"/>
<path d="M11.9998 2.625C6.83065 2.625 2.625 6.83034 2.625 11.9994C2.625 17.1692 6.83065 21.3743 11.9998 21.3743C17.1687 21.3743 21.375 17.1692 21.375 11.9994C21.3748 6.83034 17.1687 2.625 11.9998 2.625ZM11.9998 20.9447C7.06769 20.9447 3.05485 16.9318 3.05485 11.9994C3.05485 7.06739 7.06754 3.05485 11.9998 3.05485C16.9317 3.05485 20.9442 7.06739 20.9442 11.9994C20.9442 16.9318 16.9317 20.9447 11.9998 20.9447Z" fill="white"/>
</g>
<defs>
<clipPath id="clip0_872_3258">
<rect width="24" height="24" fill="white"/>
</clipPath>
</defs>
</svg>
