<svg width="24" height="24" viewBox="0 0 24 24" fill="none" xmlns="http://www.w3.org/2000/svg">
<g clip-path="url(#clip0_872_1758)">
<path d="M18.375 0H5.625C2.5184 0 0 2.5184 0 5.625V18.375C0 21.4816 2.5184 24 5.625 24H18.375C21.4816 24 24 21.4816 24 18.375V5.625C24 2.5184 21.4816 0 18.375 0Z" fill="black"/>
<path d="M9.00345 15.3635C8.93824 15.3636 8.87377 15.3496 8.81447 15.3224C8.7593 15.2975 8.70957 15.2621 8.6681 15.218C8.62664 15.174 8.59427 15.1222 8.57283 15.0656C8.5514 15.0091 8.54132 14.9488 8.54319 14.8883C8.54504 14.8279 8.55881 14.7683 8.58368 14.7132L10.0739 11.4088L10.08 11.3959L11.5326 8.17422C11.5739 8.09886 11.6347 8.03599 11.7087 7.99219C11.7825 7.9484 11.8669 7.92529 11.9529 7.92529C12.0389 7.92529 12.1231 7.9484 12.1971 7.99219C12.2711 8.03599 12.3319 8.09886 12.3732 8.17422L15.3226 14.7132C15.3647 14.8065 15.3746 14.911 15.3507 15.0105C15.3268 15.11 15.2705 15.1987 15.1906 15.2627C15.1108 15.3266 15.0119 15.3621 14.9096 15.3637C14.8073 15.3653 14.7074 15.3328 14.6256 15.2713L10.6802 12.306L9.42371 15.092C9.38724 15.1729 9.3282 15.2416 9.25364 15.2898C9.17909 15.3379 9.09222 15.3635 9.00345 15.3635ZM11.069 11.4448L13.7445 13.456L11.9529 9.48477L11.069 11.4448Z" fill="white"/>
<path d="M11.953 20.1562C10.3306 20.1562 8.74466 19.6751 7.39568 18.7737C6.0467 17.8724 4.99529 16.5912 4.37442 15.0923C3.75356 13.5934 3.59111 11.944 3.90762 10.3528C4.22414 8.76155 5.0054 7.29989 6.15262 6.15267C7.29984 5.00544 8.76147 4.22417 10.3527 3.90764C11.9439 3.5911 13.5933 3.75354 15.0923 4.37439C16.5911 4.99525 17.8723 6.04664 18.7737 7.39562C19.6751 8.7446 20.1563 10.3306 20.1563 11.9529C20.1539 14.1278 19.2889 16.213 17.751 17.7509C16.2131 19.2888 14.1279 20.1538 11.953 20.1562ZM11.953 4.6717C10.5129 4.67172 9.10513 5.09878 7.90772 5.89889C6.7103 6.699 5.77704 7.83622 5.22594 9.16673C4.67484 10.4973 4.53066 11.9613 4.81164 13.3737C5.09261 14.7863 5.78612 16.0837 6.80446 17.102C7.8228 18.1203 9.12025 18.8137 10.5327 19.0946C11.9452 19.3756 13.4093 19.2314 14.7398 18.6803C16.0703 18.1291 17.2074 17.1958 18.0075 15.9983C18.8076 14.8009 19.2346 13.3931 19.2346 11.9529C19.2323 10.0225 18.4645 8.1717 17.0994 6.80665C15.7343 5.44162 13.8835 4.67381 11.953 4.6717Z" fill="#EE0000"/>
</g>
<defs>
<clipPath id="clip0_872_1758">
<rect width="24" height="24" fill="white"/>
</clipPath>
</defs>
</svg>
