<svg width="24" height="24" viewBox="0 0 24 24" fill="none" xmlns="http://www.w3.org/2000/svg">
<g clip-path="url(#clip0_872_1800)">
<path d="M18.375 0H5.625C2.5184 0 0 2.5184 0 5.625V18.375C0 21.4816 2.5184 24 5.625 24H18.375C21.4816 24 24 21.4816 24 18.375V5.625C24 2.5184 21.4816 0 18.375 0Z" fill="#F4F2ED"/>
<path d="M7.94561 10.4963C7.94561 10.7245 7.97029 10.9095 8.01346 11.0452C8.0628 11.1809 8.12448 11.3289 8.21083 11.4893C8.24167 11.5387 8.254 11.588 8.254 11.6312C8.254 11.6929 8.217 11.7546 8.13682 11.8162L7.74825 12.0753C7.69274 12.1122 7.63723 12.1308 7.58789 12.1308C7.52621 12.1308 7.46453 12.0999 7.40286 12.0444C7.3165 11.9519 7.24249 11.8532 7.18082 11.7546C7.11914 11.6497 7.05746 11.5325 6.98962 11.3906C6.50853 11.9581 5.90408 12.2418 5.17629 12.2418C4.6582 12.2418 4.24496 12.0938 3.94274 11.7977C3.64052 11.5016 3.48633 11.1069 3.48633 10.6135C3.48633 10.0892 3.67135 9.66366 4.04759 9.34293C4.42383 9.0222 4.92341 8.86184 5.55869 8.86184C5.7684 8.86184 5.98427 8.88035 6.21247 8.91118C6.44068 8.94202 6.67506 8.99137 6.92177 9.04688V8.59663C6.92177 8.12788 6.82309 7.80098 6.63188 7.60979C6.43451 7.41859 6.10146 7.32607 5.62654 7.32607C5.41067 7.32607 5.18862 7.35074 4.96042 7.40625C4.73221 7.46176 4.51017 7.52961 4.2943 7.61595C4.19561 7.65913 4.12161 7.6838 4.07843 7.69613C4.03525 7.70847 4.00442 7.71464 3.97974 7.71464C3.8934 7.71464 3.85022 7.65296 3.85022 7.52344V7.22122C3.85022 7.12253 3.86256 7.04852 3.8934 7.00535C3.92423 6.96218 3.97974 6.91899 4.0661 6.87582C4.28197 6.7648 4.54102 6.67229 4.84323 6.59827C5.14545 6.51809 5.46618 6.48109 5.8054 6.48109C6.53936 6.48109 7.07596 6.64762 7.42135 6.98067C7.76059 7.31374 7.93328 7.81949 7.93328 8.49794V10.4963H7.94561ZM5.4415 11.4338C5.64504 11.4338 5.85474 11.3968 6.07678 11.3228C6.29883 11.2488 6.49619 11.113 6.66272 10.9281C6.76141 10.8109 6.83542 10.6813 6.87243 10.5333C6.90943 10.3853 6.93411 10.2064 6.93411 9.99675V9.73762C6.75524 9.6945 6.56404 9.65747 6.36667 9.63281C6.1693 9.60816 5.9781 9.59578 5.7869 9.59578C5.37366 9.59578 5.07143 9.67603 4.8679 9.84253C4.66436 10.009 4.56568 10.2434 4.56568 10.5518C4.56568 10.8417 4.6397 11.0575 4.79389 11.2056C4.94192 11.3598 5.15779 11.4338 5.4415 11.4338ZM10.3942 12.0999C10.2832 12.0999 10.2091 12.0814 10.1598 12.0383C10.1105 12.0012 10.0673 11.9149 10.0304 11.7977L8.5809 7.03001C8.54389 6.90667 8.52539 6.82648 8.52539 6.78331C8.52539 6.68462 8.57473 6.62911 8.67341 6.62911H9.27786C9.39502 6.62911 9.47527 6.64762 9.51839 6.69079C9.5677 6.7278 9.60473 6.81414 9.64177 6.93133L10.6779 11.0144L11.6401 6.93133C11.671 6.80797 11.7079 6.7278 11.7573 6.69079C11.8066 6.65378 11.893 6.62911 12.004 6.62911H12.4974C12.6146 6.62911 12.6948 6.64762 12.7441 6.69079C12.7935 6.7278 12.8367 6.81414 12.8613 6.93133L13.8359 11.0637L14.9028 6.93133C14.9399 6.80797 14.9831 6.7278 15.0262 6.69079C15.0755 6.65378 15.1558 6.62911 15.2668 6.62911H15.8403C15.939 6.62911 15.9945 6.67845 15.9945 6.78331C15.9945 6.81414 15.9884 6.84499 15.9822 6.88199C15.9761 6.91899 15.9637 6.96833 15.939 7.03618L14.4526 11.8039C14.4156 11.9272 14.3724 12.0074 14.3231 12.0444C14.2738 12.0814 14.1935 12.1061 14.0887 12.1061H13.5583C13.4411 12.1061 13.3609 12.0876 13.3116 12.0444C13.2622 12.0012 13.2191 11.9211 13.1944 11.7977L12.2384 7.81949L11.2886 11.7915C11.2577 11.9149 11.2207 11.995 11.1714 12.0383C11.122 12.0814 11.0356 12.0999 10.9246 12.0999H10.3942ZM18.3198 12.2664C17.9991 12.2664 17.6784 12.2294 17.37 12.1554C17.0616 12.0814 16.821 12.0012 16.6606 11.9087C16.562 11.8532 16.4941 11.7915 16.4695 11.736C16.4448 11.6805 16.4325 11.6188 16.4325 11.5633V11.2488C16.4325 11.1192 16.4818 11.0575 16.5743 11.0575C16.6113 11.0575 16.6484 11.0637 16.6853 11.0761C16.7223 11.0884 16.7778 11.113 16.8395 11.1378C17.0492 11.2302 17.2774 11.3043 17.518 11.3536C17.7647 11.403 18.0052 11.4277 18.252 11.4277C18.6405 11.4277 18.9427 11.3598 19.1524 11.2241C19.3621 11.0884 19.4731 10.891 19.4731 10.6382C19.4731 10.4655 19.4176 10.3236 19.3066 10.2064C19.1956 10.0892 18.9859 9.98437 18.6837 9.88566L17.7894 9.60816C17.3391 9.46631 17.006 9.25657 16.8025 8.97903C16.599 8.70765 16.4941 8.40543 16.4941 8.0847C16.4941 7.82566 16.5496 7.59745 16.6606 7.40008C16.7716 7.20271 16.9197 7.03001 17.1047 6.89433C17.2898 6.75247 17.4995 6.64762 17.7462 6.5736C17.9929 6.49958 18.252 6.46875 18.5234 6.46875C18.659 6.46875 18.8009 6.47492 18.9366 6.49342C19.0785 6.51192 19.2079 6.5366 19.3375 6.56126C19.4609 6.59211 19.578 6.62294 19.689 6.65995C19.8 6.69696 19.8864 6.73396 19.9481 6.77097C20.0344 6.82031 20.0961 6.86965 20.1331 6.92516C20.1701 6.9745 20.1886 7.04235 20.1886 7.1287V7.41859C20.1886 7.54811 20.1393 7.61595 20.0468 7.61595C19.9974 7.61595 19.9172 7.59128 19.8124 7.54194C19.4609 7.38158 19.0661 7.3014 18.6282 7.3014C18.2766 7.3014 17.9991 7.35691 17.8079 7.4741C17.6167 7.59128 17.518 7.77015 17.518 8.02302C17.518 8.19573 17.5797 8.34375 17.703 8.46094C17.8263 8.57812 18.0546 8.69531 18.3815 8.80016L19.2573 9.07771C19.7013 9.21957 20.0221 9.41691 20.2133 9.66984C20.4045 9.92269 20.497 10.2126 20.497 10.5333C20.497 10.7985 20.4415 11.0391 20.3367 11.2488C20.2257 11.4585 20.0776 11.6435 19.8864 11.7915C19.6952 11.9457 19.467 12.0567 19.2018 12.137C18.9242 12.2233 18.6344 12.2664 18.3198 12.2664Z" fill="#252F3E"/>
<path fill-rule="evenodd" clip-rule="evenodd" d="M19.4847 15.2639C17.4555 16.7627 14.5073 17.5583 11.9723 17.5583C8.41973 17.5583 5.21867 16.2445 2.8009 14.0612C2.60971 13.8885 2.7824 13.6541 3.01061 13.7898C5.62574 15.307 8.85148 16.2261 12.1882 16.2261C14.4395 16.2261 16.9128 15.7573 19.1887 14.7952C19.5278 14.6409 19.8177 15.0172 19.4847 15.2639Z" fill="#FF9900"/>
<path fill-rule="evenodd" clip-rule="evenodd" d="M20.329 14.3018C20.07 13.9687 18.6144 14.1414 17.9544 14.2216C17.7571 14.2463 17.7263 14.0735 17.9051 13.9441C19.0646 13.1299 20.9705 13.3643 21.1926 13.6356C21.4146 13.9132 21.1309 15.8191 20.0453 16.7319C19.8788 16.8737 19.7184 16.7997 19.7924 16.6147C20.0392 16.0041 20.5881 14.6286 20.329 14.3018Z" fill="#FF9900"/>
</g>
<defs>
<clipPath id="clip0_872_1800">
<rect width="24" height="24" fill="white"/>
</clipPath>
</defs>
</svg>
