<svg width="24" height="24" viewBox="0 0 24 24" fill="none" xmlns="http://www.w3.org/2000/svg">
<g clip-path="url(#clip0_872_1805)">
<path d="M18.375 0H5.625C2.5184 0 0 2.5184 0 5.625V18.375C0 21.4816 2.5184 24 5.625 24H18.375C21.4816 24 24 21.4816 24 18.375V5.625C24 2.5184 21.4816 0 18.375 0Z" fill="#F4F2ED"/>
<path d="M8.87571 3.18772H14.424L8.66434 20.253C8.60514 20.4283 8.49244 20.5807 8.3421 20.6887C8.19176 20.7967 8.01136 20.8547 7.82628 20.8548H3.50834C3.36811 20.8548 3.22989 20.8214 3.10512 20.7574C2.98035 20.6933 2.8726 20.6006 2.79081 20.4867C2.70902 20.3728 2.65552 20.2411 2.63475 20.1023C2.61397 19.9637 2.62652 19.822 2.67134 19.6892L8.03744 3.78946C8.09661 3.61403 8.20933 3.46159 8.35971 3.3536C8.5101 3.24561 8.69058 3.18751 8.87571 3.1875V3.18772Z" fill="url(#paint0_linear_872_1805)"/>
<path d="M16.9383 14.6338H8.14008C8.05828 14.6337 7.97835 14.6583 7.91071 14.7043C7.84306 14.7502 7.79083 14.8156 7.76082 14.8916C7.73081 14.9677 7.72441 15.0511 7.74246 15.1309C7.7605 15.2106 7.80216 15.2832 7.86201 15.3389L13.5156 20.6158C13.6801 20.7693 13.8969 20.8547 14.122 20.8547H19.1039L16.9383 14.6338Z" fill="#0078D4"/>
<path d="M8.87654 3.18775C8.68938 3.18703 8.50689 3.24618 8.35573 3.35655C8.20457 3.46691 8.09266 3.62272 8.03636 3.80121L2.67877 19.6747C2.63093 19.8081 2.61591 19.951 2.63499 20.0914C2.65406 20.2318 2.70666 20.3655 2.78834 20.4812C2.87004 20.597 2.97839 20.6914 3.10427 20.7564C3.23015 20.8214 3.36983 20.8552 3.5115 20.8548H7.94089C8.10586 20.8253 8.26005 20.7525 8.38771 20.644C8.51537 20.5354 8.61192 20.395 8.66751 20.2368L9.7359 17.0881L13.5523 20.6476C13.7122 20.7799 13.9128 20.8531 14.1203 20.8548H19.0837L16.9068 14.634L10.561 14.6355L14.4449 3.18775H8.87654Z" fill="url(#paint1_linear_872_1805)"/>
<path d="M15.9619 3.78864C15.9028 3.61349 15.7903 3.4613 15.6401 3.35349C15.4899 3.2457 15.3097 3.18773 15.1249 3.18774H8.94141C9.12624 3.18775 9.30642 3.24574 9.45654 3.35354C9.60673 3.46133 9.71932 3.61351 9.77839 3.78864L15.1447 19.689C15.1895 19.8219 15.2021 19.9635 15.1814 20.1023C15.1607 20.241 15.1071 20.3728 15.0254 20.4868C14.9435 20.6007 14.8358 20.6935 14.711 20.7575C14.5863 20.8215 14.448 20.855 14.3077 20.855H20.4914C20.6316 20.8549 20.7699 20.8215 20.8946 20.7575C21.0194 20.6934 21.1271 20.6006 21.2089 20.4867C21.2907 20.3727 21.3441 20.2409 21.3649 20.1022C21.3857 19.9635 21.3731 19.8219 21.3282 19.689L15.9619 3.78864Z" fill="url(#paint2_linear_872_1805)"/>
</g>
<defs>
<linearGradient id="paint0_linear_872_1805" x1="10.8979" y1="4.49691" x2="5.1359" y2="21.5194" gradientUnits="userSpaceOnUse">
<stop stop-color="#114A8B"/>
<stop offset="1" stop-color="#0669BC"/>
</linearGradient>
<linearGradient id="paint1_linear_872_1805" x1="12.6987" y1="12.4299" x2="11.3658" y2="12.8805" gradientUnits="userSpaceOnUse">
<stop stop-opacity="0.3"/>
<stop offset="0.071" stop-opacity="0.2"/>
<stop offset="0.321" stop-opacity="0.1"/>
<stop offset="0.623" stop-opacity="0.05"/>
<stop offset="1" stop-opacity="0"/>
</linearGradient>
<linearGradient id="paint2_linear_872_1805" x1="11.9644" y1="4.00044" x2="18.2894" y2="20.8514" gradientUnits="userSpaceOnUse">
<stop stop-color="#3CCBF4"/>
<stop offset="1" stop-color="#2892DF"/>
</linearGradient>
<clipPath id="clip0_872_1805">
<rect width="24" height="24" fill="white"/>
</clipPath>
</defs>
</svg>
