<svg width="24" height="24" viewBox="0 0 24 24" fill="none" xmlns="http://www.w3.org/2000/svg">
<g clip-path="url(#clip0_872_1820)">
<path d="M18.375 0H5.625C2.5184 0 0 2.5184 0 5.625V18.375C0 21.4816 2.5184 24 5.625 24H18.375C21.4816 24 24 21.4816 24 18.375V5.625C24 2.5184 21.4816 0 18.375 0Z" fill="#F4F2ED"/>
<path fill-rule="evenodd" clip-rule="evenodd" d="M19.108 6.45332L13.1887 2.93955C12.4822 2.52015 11.6113 2.52015 10.9048 2.93955L4.98538 6.45332C4.27907 6.87273 3.84375 7.64766 3.84375 8.48647V15.514C3.84375 16.3526 4.27907 17.1279 4.98559 17.5474L10.905 21.0605C11.2582 21.2703 11.6522 21.3749 12.0468 21.3749C12.4412 21.3749 12.8352 21.2703 13.1885 21.0605L19.1078 17.5474C19.8143 17.1279 20.2499 16.3526 20.2499 15.514V8.48647C20.2499 7.64766 19.8143 6.87273 19.108 6.45332Z" fill="#FEFEFE"/>
<path fill-rule="evenodd" clip-rule="evenodd" d="M11.1119 20.7007L5.19249 17.1875C4.61351 16.8438 4.25385 16.2026 4.25385 15.5139V8.48652C4.25385 7.79778 4.61352 7.15658 5.19229 6.81305L11.1119 3.29928C11.3957 3.13081 11.7189 3.04172 12.0468 3.04172C12.3744 3.04172 12.6977 3.13081 12.9817 3.29928L18.9011 6.81305C19.389 7.10263 19.7181 7.6041 19.8106 8.16654C19.6143 7.74756 19.1715 7.63366 18.6556 7.93504L13.0555 11.394C12.3573 11.8022 11.8424 12.2603 11.8419 13.1023V20.0026C11.8416 20.5068 12.0452 20.8334 12.3579 20.928C12.2552 20.9459 12.1516 20.9582 12.0468 20.9582C11.7189 20.9582 11.3957 20.8692 11.1119 20.7007ZM19.108 6.45317L13.1887 2.93961C12.8354 2.7298 12.441 2.625 12.0468 2.625C11.6525 2.625 11.2581 2.7298 10.9048 2.93961L4.98538 6.45317C4.27907 6.87258 3.84375 7.64771 3.84375 8.48652V15.5139C3.84375 16.3525 4.27907 17.1278 4.98559 17.5472L10.905 21.0605C11.2584 21.2701 11.6525 21.375 12.0468 21.375C12.4412 21.375 12.8352 21.2701 13.1885 21.0605L19.108 17.5472C19.8145 17.1278 20.2499 16.3525 20.2499 15.5139V8.48652C20.2499 7.64771 19.8145 6.87258 19.108 6.45317Z" fill="#3E474A"/>
<path fill-rule="evenodd" clip-rule="evenodd" d="M17.5557 16.1933L16.0817 17.0755C16.0426 17.0983 16.014 17.1239 16.0137 17.1709V17.5565C16.0137 17.6037 16.0454 17.6233 16.0844 17.6003L17.5812 16.6907C17.6202 16.6679 17.6262 16.6243 17.6265 16.5773V16.2371C17.6265 16.1902 17.5948 16.1705 17.5557 16.1933Z" fill="#47B353"/>
<path fill-rule="evenodd" clip-rule="evenodd" d="M14.4169 12.9466C14.4646 12.9224 14.5039 12.9522 14.5045 13.0146L14.5095 13.5245C14.7229 13.4396 14.9084 13.4169 15.0764 13.4557C15.1129 13.4654 15.129 13.515 15.1141 13.5739L15.0019 14.0258C14.9931 14.0599 14.9739 14.0944 14.9508 14.1159C14.941 14.1254 14.9311 14.1328 14.9212 14.1378C14.9061 14.1455 14.8912 14.1479 14.877 14.145C14.8003 14.1277 14.6179 14.0878 14.3311 14.2332C14.0301 14.3855 13.9249 14.647 13.9269 14.841C13.9294 15.0728 14.0483 15.143 14.4588 15.15C15.0057 15.1591 15.242 15.3981 15.2478 15.949C15.2534 16.4899 14.9646 17.0708 14.5229 17.4268L14.5326 17.9315C14.5332 17.9923 14.4937 18.0619 14.446 18.0861L14.147 18.2583C14.0991 18.2825 14.0599 18.2527 14.0592 18.1919L14.054 17.6954C13.798 17.8018 13.5385 17.8275 13.3728 17.761C13.3415 17.7488 13.3281 17.7027 13.3405 17.6502L13.4489 17.1938C13.4575 17.1578 13.4765 17.1218 13.5024 17.0989C13.5115 17.09 13.521 17.0832 13.5304 17.0784C13.5476 17.0698 13.5644 17.0679 13.5786 17.0732C13.7572 17.1334 13.9857 17.1053 14.2054 16.9941C14.4844 16.8529 14.6711 16.5683 14.6682 16.2855C14.6655 16.0289 14.5266 15.9223 14.1889 15.9198C13.7589 15.921 13.3581 15.8363 13.3515 15.2034C13.3461 14.6823 13.6171 14.1401 14.046 13.7972L14.0406 13.2877C14.04 13.2251 14.0782 13.1562 14.1274 13.1314L14.4169 12.9466Z" fill="#FEFEFE"/>
</g>
<defs>
<clipPath id="clip0_872_1820">
<rect width="24" height="24" fill="white"/>
</clipPath>
</defs>
</svg>
