<svg width="24" height="24" viewBox="0 0 24 24" fill="none" xmlns="http://www.w3.org/2000/svg">
<g clip-path="url(#clip0_872_1868)">
<path d="M18.375 0H5.625C2.5184 0 0 2.5184 0 5.625V18.375C0 21.4816 2.5184 24 5.625 24H18.375C21.4816 24 24 21.4816 24 18.375V5.625C24 2.5184 21.4816 0 18.375 0Z" fill="#F4F2ED"/>
<mask id="mask0_872_1868" style="mask-type:luminance" maskUnits="userSpaceOnUse" x="2" y="2" width="20" height="20">
<path d="M21.375 2.625H2.625V21.375H21.375V2.625Z" fill="white"/>
</mask>
<g mask="url(#mask0_872_1868)">
<path d="M7.40625 16.1015H19.8146V12.6679L17.4574 11.3162L17.0508 11.1404L7.40625 11.2066V16.1015Z" fill="white"/>
<path d="M15.5227 15.6456C15.6381 15.2501 15.5942 14.8874 15.402 14.6179C15.2262 14.3706 14.9291 14.2276 14.5723 14.2112L7.80763 14.1233C7.76368 14.1233 7.72559 14.101 7.70333 14.0682C7.68106 14.0354 7.67578 13.9921 7.68692 13.9476C7.70919 13.8814 7.77481 13.8322 7.8463 13.8268L14.6713 13.739C15.4799 13.7003 16.3588 13.0463 16.6658 12.2448L17.056 11.2283C17.0733 11.1864 17.0773 11.1405 17.0678 11.0963C16.6283 9.10713 14.8529 7.62354 12.7318 7.62354C10.7748 7.62354 9.11661 8.88741 8.52247 10.6411C8.1375 10.3552 7.64356 10.2017 7.12091 10.2509C6.18106 10.3447 5.42169 11.097 5.33497 12.0368C5.3122 12.2706 5.32883 12.5064 5.38419 12.7346C4.64482 12.7547 3.94254 13.0627 3.42709 13.5932C2.91163 14.1236 2.62382 14.8345 2.625 15.5741C2.625 15.7112 2.63672 15.8495 2.65255 15.9861C2.66427 16.0522 2.71875 16.1015 2.78438 16.1015H15.2695C15.3054 16.1008 15.3402 16.0887 15.3688 16.0671C15.3975 16.0453 15.4185 16.0151 15.4289 15.9807L15.5227 15.6456Z" fill="#F38020"/>
<path d="M17.6757 11.2986L17.4882 11.3044C17.4442 11.3044 17.4062 11.3372 17.3886 11.3806L17.1249 12.2981C17.0095 12.6937 17.0534 13.0564 17.2456 13.3259C17.4214 13.5731 17.7185 13.7161 18.0753 13.7325L19.515 13.8205C19.5589 13.8205 19.597 13.8427 19.6192 13.8755C19.6416 13.9083 19.6468 13.9575 19.6356 13.9962C19.6134 14.0624 19.5478 14.1116 19.4763 14.1169L17.9763 14.2048C17.163 14.2435 16.2888 14.8974 15.9817 15.6989L15.8716 15.9791C15.8494 16.0341 15.888 16.0892 15.9478 16.0892H21.1023C21.1321 16.0896 21.1612 16.0801 21.1851 16.0622C21.209 16.0443 21.2262 16.0189 21.2341 15.9901C21.3255 15.6652 21.3726 15.3293 21.3741 14.9917C21.3713 14.0123 20.9806 13.0737 20.2875 12.3817C19.5943 11.6896 18.6552 11.3004 17.6757 11.2991" fill="#FAAE40"/>
</g>
</g>
<defs>
<clipPath id="clip0_872_1868">
<rect width="24" height="24" fill="white"/>
</clipPath>
</defs>
</svg>
