<svg width="24" height="24" viewBox="0 0 24 24" fill="none" xmlns="http://www.w3.org/2000/svg">
<g clip-path="url(#clip0_872_1974)">
<path d="M18.375 0H5.625C2.5184 0 0 2.5184 0 5.625V18.375C0 21.4816 2.5184 24 5.625 24H18.375C21.4816 24 24 21.4816 24 18.375V5.625C24 2.5184 21.4816 0 18.375 0Z" fill="#F4F4ED"/>
<path d="M12.7831 12.1061L3.42578 20.1056L11.9963 2.98071L12.7831 12.1061Z" fill="url(#paint0_linear_872_1974)" stroke="black"/>
<path d="M13.216 17.1017L12 2.979L20.5814 20.1071L13.216 17.1017Z" fill="url(#paint1_linear_872_1974)" stroke="black"/>
<path d="M8.98237 15.3325L20.5906 20.105L3.42773 20.1031L8.98237 15.3325Z" fill="url(#paint2_linear_872_1974)" stroke="black"/>
<path d="M9 15.3441L12.7769 12.1221L13.3028 17.0979L9 15.3441Z" fill="url(#paint3_linear_872_1974)"/>
</g>
<defs>
<linearGradient id="paint0_linear_872_1974" x1="7.39787" y1="15.4438" x2="11.5912" y2="6.5734" gradientUnits="userSpaceOnUse">
<stop stop-color="#1011A1"/>
<stop offset="1" stop-color="#6969E1"/>
</linearGradient>
<linearGradient id="paint1_linear_872_1974" x1="13.0419" y1="8.72364" x2="18.9018" y2="18.6155" gradientUnits="userSpaceOnUse">
<stop stop-color="#B40E0E"/>
<stop offset="1" stop-color="#FF5959"/>
</linearGradient>
<linearGradient id="paint2_linear_872_1974" x1="15.4616" y1="19.3144" x2="7.18252" y2="18.6155" gradientUnits="userSpaceOnUse">
<stop stop-color="#01A300"/>
<stop offset="1" stop-color="#01DF00"/>
</linearGradient>
<linearGradient id="paint3_linear_872_1974" x1="12.5585" y1="16.2501" x2="12.4509" y2="12.6481" gradientUnits="userSpaceOnUse">
<stop stop-color="#848484"/>
<stop offset="1" stop-color="#D2D2D2"/>
</linearGradient>
<clipPath id="clip0_872_1974">
<rect width="24" height="24" fill="white"/>
</clipPath>
</defs>
</svg>
