<svg width="24" height="24" viewBox="0 0 24 24" fill="none" xmlns="http://www.w3.org/2000/svg">
<g clip-path="url(#clip0_872_2033)">
<path d="M18.375 0H5.625C2.5184 0 0 2.5184 0 5.625V18.375C0 21.4816 2.5184 24 5.625 24H18.375C21.4816 24 24 21.4816 24 18.375V5.625C24 2.5184 21.4816 0 18.375 0Z" fill="#2396ED"/>
<path d="M13.2363 11.449H15.1785V9.69178H13.2363V11.449ZM10.9242 11.449H12.8663V9.69178H10.9242V11.449ZM8.65832 11.449H10.6005V9.69178H8.65832V11.449ZM6.39243 11.449H8.28837V9.69178H6.39243V11.449ZM4.08031 11.449H6.02249V9.69178H4.08031V11.449ZM6.39243 9.32187H8.28837V7.56465H6.39243V9.32187ZM8.65832 9.32187H10.6005V7.56465H8.65832V9.32187ZM10.9242 9.32187H12.8663V7.56465H10.9242V9.32187ZM10.9242 7.19471H12.8663V5.4375H10.9242V7.19471ZM21.375 10.6629C21.375 10.6629 20.5426 9.87675 18.8317 10.1542C18.6467 8.8132 17.2132 8.02708 17.2132 8.02708C17.2132 8.02708 15.8722 9.64556 16.8432 11.449C16.5658 11.5878 16.1033 11.7727 15.4097 11.7727H2.69303C2.46182 12.6514 2.46182 18.4778 8.84329 18.4778C13.4213 18.4778 16.8432 16.3507 18.4617 12.4663C20.8663 12.6514 21.375 10.6629 21.375 10.6629Z" fill="white"/>
</g>
<defs>
<clipPath id="clip0_872_2033">
<rect width="24" height="24" fill="white"/>
</clipPath>
</defs>
</svg>
