<svg width="24" height="24" viewBox="0 0 24 24" fill="none" xmlns="http://www.w3.org/2000/svg">
<g clip-path="url(#clip0_872_2263)">
<path d="M18.375 0H5.625C2.5184 0 0 2.5184 0 5.625V18.375C0 21.4816 2.5184 24 5.625 24H18.375C21.4816 24 24 21.4816 24 18.375V5.625C24 2.5184 21.4816 0 18.375 0Z" fill="#F4F2ED"/>
<path d="M15.0948 8.66151L16.7247 7.03165L16.8333 6.34537C13.8633 3.64472 9.14201 3.95094 6.46464 6.98435C5.72094 7.82685 5.16921 8.87721 4.875 9.96187L5.45873 9.87956L8.71838 9.34208L8.97004 9.08471C10.42 7.49227 12.8716 7.27805 14.5458 8.63295L15.0948 8.66151Z" fill="#EA4335"/>
<path d="M19.0464 9.914C18.6718 8.53437 17.9026 7.29416 16.8332 6.34546L14.5457 8.63296C15.5116 9.42218 16.062 10.6112 16.0383 11.8584V12.2644C17.1627 12.2644 18.0742 13.1758 18.0742 14.3002C18.0742 15.4246 17.1627 16.3133 16.0383 16.3133H11.9609L11.5605 16.7479V19.1898L11.9609 19.573H16.0383C18.9629 19.5957 21.3522 17.2662 21.375 14.3417C21.3887 12.569 20.5148 10.9071 19.0464 9.914Z" fill="#4285F4"/>
<path d="M7.88821 19.5731H11.96V16.3134H7.88821C7.5981 16.3133 7.31714 16.2509 7.05332 16.1304L6.47566 16.3077L4.83438 17.9375L4.69141 18.4922C5.61183 19.1872 6.73486 19.578 7.88821 19.5731Z" fill="#34A853"/>
<path d="M7.88894 8.99881C4.96431 9.01625 2.60767 11.4013 2.6251 14.3259C2.63484 15.959 3.39759 17.4964 4.69214 18.492L7.05405 16.1301C6.02933 15.6672 5.57397 14.4612 6.03694 13.4366C6.49983 12.4119 7.70584 11.9566 8.73042 12.4194C9.18196 12.6234 9.54356 12.9851 9.74756 13.4366L12.1094 11.0748C11.1045 9.76094 9.543 8.99289 7.88894 8.99881Z" fill="#FBBC05"/>
</g>
<defs>
<clipPath id="clip0_872_2263">
<rect width="24" height="24" fill="white"/>
</clipPath>
</defs>
</svg>
