<svg width="24" height="24" viewBox="0 0 24 24" fill="none" xmlns="http://www.w3.org/2000/svg">
<g clip-path="url(#clip0_872_2287)">
<path d="M18.375 0H5.625C2.5184 0 0 2.5184 0 5.625V18.375C0 21.4816 2.5184 24 5.625 24H18.375C21.4816 24 24 21.4816 24 18.375V5.625C24 2.5184 21.4816 0 18.375 0Z" fill="#F4F4ED"/>
<path fill-rule="evenodd" clip-rule="evenodd" d="M7.13111 4.03125C8.84317 4.03125 10.2309 5.41907 10.2309 7.13111C10.2309 8.84317 8.84317 10.2309 7.13111 10.2309C5.41907 10.2309 4.03125 8.84317 4.03125 7.13111C4.03125 5.41907 5.41907 4.03125 7.13111 4.03125Z" stroke="#2088FF" stroke-linecap="round" stroke-linejoin="round"/>
<path fill-rule="evenodd" clip-rule="evenodd" d="M11.6095 10.231C12.7508 10.231 13.6761 11.1563 13.6761 12.2976C13.6761 13.4389 12.7508 14.3641 11.6095 14.3641C10.4682 14.3641 9.54297 13.4389 9.54297 12.2976C9.54297 11.1563 10.4682 10.231 11.6095 10.231Z" stroke="#2088FF" stroke-linecap="round" stroke-linejoin="round"/>
<path fill-rule="evenodd" clip-rule="evenodd" d="M11.6095 15.7419C12.7508 15.7419 13.6761 16.6672 13.6761 17.8086C13.6761 18.9499 12.7508 19.8751 11.6095 19.8751C10.4682 19.8751 9.54297 18.9499 9.54297 17.8086C9.54297 16.6672 10.4682 15.7419 11.6095 15.7419Z" stroke="#2088FF" stroke-linecap="round" stroke-linejoin="round"/>
<path fill-rule="evenodd" clip-rule="evenodd" d="M17.8088 15.7419C18.9501 15.7419 19.8753 16.6672 19.8753 17.8086C19.8753 18.9499 18.9501 19.8751 17.8088 19.8751C16.6674 19.8751 15.7422 18.9499 15.7422 17.8086C15.7422 16.6672 16.6674 15.7419 17.8088 15.7419Z" stroke="#79B8FF" stroke-linecap="round" stroke-linejoin="round"/>
<path d="M12.3108 11.8179L11.2537 12.8736L10.7402 12.3619" stroke="#2088FF" stroke-linecap="round" stroke-linejoin="round"/>
<path fill-rule="evenodd" clip-rule="evenodd" d="M17.8088 10.231C18.9501 10.231 19.8753 11.1563 19.8753 12.2976C19.8753 13.4389 18.9501 14.3641 17.8088 14.3641C16.6674 14.3641 15.7422 13.4389 15.7422 12.2976C15.7422 11.1563 16.6674 10.231 17.8088 10.231Z" stroke="#2088FF" stroke-linecap="round" stroke-linejoin="round"/>
<path d="M18.51 11.8179L17.4528 12.8736L16.9395 12.3619" stroke="#2088FF" stroke-linecap="round" stroke-linejoin="round"/>
<path d="M6.09766 6.03322C6.09766 5.76214 6.39631 5.59731 6.62567 5.74179L8.3868 6.85121C8.60217 6.98687 8.60103 7.30122 8.38473 7.43535L6.62358 8.52736C6.39414 8.66961 6.09766 8.50459 6.09766 8.23463V6.03322Z" stroke="#2088FF" stroke-linecap="round" stroke-linejoin="round"/>
<path d="M6.78711 10.231V15.3974C6.78711 16.729 7.88143 17.8084 9.19812 17.8084H9.54251" stroke="#2088FF" stroke-linecap="round" stroke-linejoin="round"/>
<path d="M9.52369 12.6418C9.71391 12.6418 9.86813 12.4877 9.86813 12.2974C9.86813 12.1071 9.71391 11.953 9.52369 11.953V12.6418ZM6.44141 10.2429C6.44141 11.5678 7.51543 12.6418 8.84029 12.6418V11.953C7.89586 11.953 7.13026 11.1874 7.13026 10.2429H6.44141ZM8.84029 12.6418H9.52369V11.953H8.84029V12.6418Z" fill="#2088FF"/>
<path d="M13.6934 12.2976H15.7409" stroke="#2088FF" stroke-linecap="round" stroke-linejoin="round"/>
<path fill-rule="evenodd" clip-rule="evenodd" d="M10.9206 17.4641C11.1106 17.4641 11.265 17.6184 11.265 17.8085C11.265 17.9989 11.1106 18.153 10.9206 18.153C10.7306 18.153 10.5762 17.9989 10.5762 17.8085C10.5762 17.6184 10.7306 17.4641 10.9206 17.4641Z" fill="#79B8FF"/>
<path fill-rule="evenodd" clip-rule="evenodd" d="M12.2976 17.4641C12.4876 17.4641 12.642 17.6184 12.642 17.8085C12.642 17.9989 12.4876 18.153 12.2976 18.153C12.1075 18.153 11.9531 17.9989 11.9531 17.8085C11.9531 17.6184 12.1075 17.4641 12.2976 17.4641Z" fill="#79B8FF"/>
<path d="M15.3995 17.8108L15.0508 17.8251" stroke="#79B8FF" stroke-linecap="round"/>
</g>
<defs>
<clipPath id="clip0_872_2287">
<rect width="24" height="24" fill="white"/>
</clipPath>
</defs>
</svg>
