<svg width="24" height="24" viewBox="0 0 24 24" fill="none" xmlns="http://www.w3.org/2000/svg">
<g clip-path="url(#clip0_872_2303)">
<path d="M18.375 0H5.625C2.5184 0 0 2.5184 0 5.625V18.375C0 21.4816 2.5184 24 5.625 24H18.375C21.4816 24 24 21.4816 24 18.375V5.625C24 2.5184 21.4816 0 18.375 0Z" fill="#F4F2ED"/>
<path d="M11.9995 20.6252L15.521 10.0134H8.47852L11.9995 20.6248V20.6252Z" fill="#E24329"/>
<path d="M11.9991 20.6252L8.47806 10.0134H3.54297L11.9991 20.6248V20.6252Z" fill="#FC6D26"/>
<path d="M3.54382 10.0132L2.47338 13.2382C2.3756 13.5322 2.48219 13.8545 2.73794 14.0363L12 20.6252L3.54382 10.0135V10.0132Z" fill="#FCA326"/>
<path d="M3.54297 10.013H8.47806L6.35706 3.62152C6.24794 3.29283 5.77253 3.29283 5.66359 3.62152L3.54297 10.0132V10.013Z" fill="#E24329"/>
<path d="M12 20.6252L15.5214 10.0134H20.4567L12 20.6248V20.6252Z" fill="#FC6D26"/>
<path d="M20.4565 10.0132L21.5268 13.2382C21.6244 13.5322 21.5174 13.8545 21.262 14.0363L12 20.6252L20.4565 10.0135V10.0132Z" fill="#FCA326"/>
<path d="M20.4565 10.0129H15.5215L17.6423 3.62152C17.7515 3.29283 18.2268 3.29283 18.3358 3.62152L20.4568 10.0132L20.4565 10.0129Z" fill="#E24329"/>
</g>
<defs>
<clipPath id="clip0_872_2303">
<rect width="24" height="24" fill="white"/>
</clipPath>
</defs>
</svg>
