<svg width="24" height="24" viewBox="0 0 24 24" fill="none" xmlns="http://www.w3.org/2000/svg">
<g clip-path="url(#clip0_872_2322)">
<path d="M18.375 0H5.625C2.5184 0 0 2.5184 0 5.625V18.375C0 21.4816 2.5184 24 5.625 24H18.375C21.4816 24 24 21.4816 24 18.375V5.625C24 2.5184 21.4816 0 18.375 0Z" fill="#F4F2ED"/>
<path d="M19.9382 6.26202C19.4194 5.74485 18.7201 5.44936 17.9876 5.43785C17.2552 5.42634 16.5469 5.69971 16.012 6.20033C15.9856 6.22468 15.9644 6.25424 15.9499 6.28716C15.9353 6.32007 15.9278 6.35562 15.9277 6.3916C15.9267 6.42777 15.9332 6.46376 15.9466 6.49736C15.96 6.53096 15.9802 6.56146 16.0058 6.58698L16.3616 6.94278C16.4076 6.98846 16.4683 7.0161 16.5329 7.02063C16.5975 7.02517 16.6615 7.0063 16.7134 6.96747C17.041 6.72101 17.45 6.60807 17.8577 6.65149C18.2654 6.6949 18.6414 6.89141 18.9098 7.20135C19.1782 7.51128 19.3191 7.91153 19.3038 8.32125C19.2885 8.73098 19.1183 9.11964 18.8276 9.40875C16.5859 11.6505 13.5913 5.36737 6.80224 8.59841C6.68649 8.65217 6.58318 8.72939 6.49885 8.82518C6.41451 8.92097 6.351 9.03323 6.31233 9.15485C6.27365 9.27647 6.26067 9.40481 6.2742 9.53166C6.28773 9.6586 6.32747 9.78131 6.39091 9.89203L7.55704 11.9076C7.67809 12.117 7.8768 12.2703 8.1101 12.3342C8.34341 12.3982 8.5925 12.3675 8.80339 12.249L8.83218 12.2264L8.80955 12.2428L9.32578 11.9549C9.9014 11.5972 10.4456 11.1912 10.9526 10.7415C11.0026 10.6954 11.0675 10.6688 11.1354 10.6666C11.2033 10.6643 11.2699 10.6865 11.3228 10.7291C11.3538 10.7533 11.3791 10.784 11.3968 10.819C11.4146 10.8541 11.4244 10.8926 11.4256 10.9319C11.4267 10.9712 11.4192 11.0102 11.4037 11.0463C11.388 11.0823 11.3647 11.1144 11.3351 11.1405C10.8035 11.6209 10.2301 12.0531 9.62194 12.432H9.60347L9.0872 12.7221C8.7488 12.9091 8.35068 12.9563 7.97789 12.8537C7.60511 12.7511 7.28725 12.5068 7.09223 12.1729L5.98985 10.2726C3.8756 11.7759 2.59429 14.6532 3.27916 18.2915C3.29026 18.3533 3.3227 18.4091 3.37083 18.4493C3.41895 18.4896 3.47969 18.5116 3.54241 18.5116H4.79493C4.86055 18.5111 4.9238 18.4869 4.97295 18.4434C5.0221 18.3999 5.05385 18.3401 5.06229 18.2751C5.1182 17.8313 5.33417 17.4231 5.66968 17.1271C6.00518 16.8312 6.43715 16.668 6.88451 16.668C7.33186 16.668 7.76383 16.8312 8.09933 17.1271C8.43484 17.4231 8.65082 17.8313 8.70672 18.2751C8.71471 18.3399 8.74603 18.3998 8.79485 18.4433C8.84366 18.4868 8.90663 18.511 8.97203 18.5116H10.1937C10.2593 18.5111 10.3225 18.4869 10.3717 18.4434C10.4209 18.3999 10.4527 18.3401 10.4611 18.2751C10.517 17.8313 10.733 17.4231 11.0684 17.1271C11.4039 16.8312 11.8359 16.668 12.2833 16.668C12.7306 16.668 13.1626 16.8312 13.4981 17.1271C13.8337 17.4231 14.0496 17.8313 14.1055 18.2751C14.1137 18.3425 14.1471 18.4043 14.199 18.4481C14.2508 18.492 14.3173 18.5147 14.3852 18.5116H15.5925C15.6631 18.511 15.7307 18.4831 15.7809 18.4335C15.8313 18.384 15.8602 18.3169 15.8619 18.2463C15.8887 16.5433 16.3473 14.5895 17.6573 13.6085C22.178 10.219 20.9851 7.31504 19.9382 6.26202ZM15.3148 11.3852L14.451 10.9512C14.4506 10.8583 14.4742 10.7669 14.5192 10.6857C14.5643 10.6044 14.6295 10.5362 14.7085 10.4873C14.7876 10.4385 14.8778 10.4108 14.9707 10.4068C15.0634 10.4028 15.1557 10.4227 15.2386 10.4646C15.3216 10.5064 15.3923 10.5688 15.4443 10.6459C15.4962 10.7229 15.5274 10.812 15.5351 10.9045C15.5427 10.9972 15.5265 11.0902 15.488 11.1746C15.4493 11.2592 15.3897 11.3324 15.3148 11.3873V11.3852Z" fill="#02303A"/>
</g>
<defs>
<clipPath id="clip0_872_2322">
<rect width="24" height="24" fill="white"/>
</clipPath>
</defs>
</svg>
