<svg width="24" height="24" viewBox="0 0 24 24" fill="none" xmlns="http://www.w3.org/2000/svg">
<g clip-path="url(#clip0_872_2325)">
<path d="M18.375 0H5.625C2.5184 0 0 2.5184 0 5.625V18.375C0 21.4816 2.5184 24 5.625 24H18.375C21.4816 24 24 21.4816 24 18.375V5.625C24 2.5184 21.4816 0 18.375 0Z" fill="#F4F2ED"/>
<path d="M20.6929 10.9177C20.6597 10.6179 20.6263 10.2516 20.4931 9.85191C20.3932 9.45225 20.2267 9.01931 19.9936 8.55307C19.7604 8.08681 19.4607 7.62055 19.0943 7.1543C18.9611 6.98779 18.7946 6.78796 18.5948 6.62145C18.8612 5.55573 18.2618 4.65653 18.2618 4.65653C17.2627 4.58992 16.5966 4.95625 16.3634 5.15608C16.3301 5.15608 16.2968 5.12278 16.2302 5.08947C16.0638 5.02287 15.8972 4.95625 15.6974 4.88965C15.4976 4.82304 15.331 4.78974 15.1312 4.72313C14.9314 4.68983 14.7315 4.65653 14.5651 4.62322C14.5317 4.62322 14.4984 4.62322 14.4652 4.62322C14.0321 3.22447 12.7666 2.625 12.7666 2.625C11.3679 3.5242 11.1015 4.75644 11.1015 4.75644C11.1015 4.75644 11.1015 4.78974 11.1015 4.82304C11.0348 4.85634 10.9349 4.85634 10.8683 4.88965C10.7684 4.92295 10.6685 4.95625 10.5352 4.98956C10.4354 5.02287 10.3355 5.05617 10.2022 5.12278C10.0025 5.22269 9.76931 5.3226 9.56953 5.42251C9.36967 5.52242 9.16985 5.65564 8.97003 5.78886C8.93672 5.78886 8.93672 5.75555 8.93672 5.75555C6.9718 5.02287 5.24001 5.92207 5.24001 5.92207C5.07349 7.9869 6.00599 9.31904 6.20582 9.55219C6.17251 9.68541 6.10591 9.81862 6.0726 9.95184C5.93939 10.4181 5.80617 10.9177 5.73956 11.4172C5.73956 11.4838 5.70625 11.5504 5.70625 11.617C3.90786 12.5162 3.375 14.3479 3.375 14.3479C4.87367 16.0797 6.63877 16.1796 6.63877 16.1796C6.87189 16.5793 7.10502 16.9456 7.40475 17.3119C7.53796 17.4451 7.67118 17.6117 7.7711 17.7449C7.23823 19.3102 7.8377 20.6091 7.8377 20.6091C9.50287 20.6756 10.6019 19.8763 10.8351 19.6765C11.0016 19.7431 11.1681 19.7764 11.3346 19.843C11.8342 19.9762 12.367 20.0429 12.8998 20.0761C13.033 20.0761 13.1663 20.0761 13.2996 20.0761H13.3661H13.3994H13.466H13.5326C14.3319 21.2084 15.6974 21.375 15.6974 21.375C16.6965 20.3425 16.7298 19.3102 16.7298 19.077C16.7298 19.0437 16.7298 19.0437 16.7298 19.0437V19.0104C16.9296 18.8772 17.1293 18.7107 17.3293 18.5442C17.7289 18.1778 18.0619 17.7782 18.3617 17.3453C18.395 17.3119 18.4282 17.2787 18.4282 17.212C19.5606 17.2787 20.3266 16.5127 20.3266 16.5127C20.1267 15.347 19.4606 14.7808 19.3274 14.681C19.3274 14.681 19.3274 14.681 19.2942 14.681C19.2942 14.6143 19.2942 14.5477 19.2942 14.4811C19.2942 14.3479 19.2942 14.2147 19.2942 14.1148V13.9483V13.9149V13.8817C19.2942 13.8483 19.2942 13.8483 19.2942 13.8483V13.7817V13.6819C19.2942 13.6485 19.2942 13.6152 19.2942 13.5819C19.2942 13.5487 19.2942 13.5153 19.2942 13.482V13.3821V13.2821C19.2608 13.149 19.2608 13.0158 19.2276 12.9158C19.0943 12.4163 18.9278 11.95 18.6614 11.5171C18.395 11.0842 18.0953 10.7178 17.7289 10.3848C17.3625 10.0517 16.9629 9.81862 16.53 9.61875C16.097 9.41897 15.664 9.31904 15.1978 9.25244C14.9647 9.21913 14.7649 9.21913 14.5317 9.21913H14.4652H14.4319H14.3985H14.3652H14.2987C14.2653 9.21913 14.232 9.21913 14.1987 9.21913C14.0988 9.21913 13.9656 9.25244 13.8657 9.25244C13.4328 9.31904 12.9998 9.48553 12.6335 9.71869C12.2671 9.95184 11.9341 10.2183 11.6677 10.518C11.4012 10.8177 11.2013 11.1841 11.0681 11.5504C10.9349 11.9167 10.8683 12.283 10.8351 12.6494C10.8351 12.7493 10.8351 12.8159 10.8351 12.9158C10.8351 12.9491 10.8351 12.9491 10.8351 12.9825V13.0491C10.8351 13.0823 10.8351 13.149 10.8351 13.1823C10.8683 13.3488 10.9016 13.5487 10.9349 13.7152C11.0348 14.0482 11.2013 14.3479 11.3679 14.6143C11.5677 14.8807 11.8009 15.0806 12.034 15.247C12.2671 15.4136 12.5335 15.5468 12.8 15.6134C13.0664 15.6801 13.2996 15.7133 13.5659 15.7133C13.5992 15.7133 13.6326 15.7133 13.6658 15.7133H13.6991H13.7325C13.7658 15.7133 13.7991 15.7133 13.7991 15.7133C13.7991 15.7133 13.7991 15.7133 13.8323 15.7133H13.8657H13.899C13.9323 15.7133 13.9656 15.7133 13.9989 15.7133C14.0321 15.7133 14.0655 15.7133 14.0988 15.6801C14.1653 15.6801 14.1987 15.6468 14.2653 15.6468C14.3652 15.6134 14.4652 15.5801 14.5651 15.5136C14.6649 15.4802 14.7315 15.4136 14.8314 15.347C14.8647 15.347 14.8648 15.3138 14.8981 15.2804C14.998 15.2138 14.998 15.0806 14.9314 15.014C14.8648 14.9474 14.7649 14.914 14.6983 14.9807C14.6649 14.9807 14.6649 15.014 14.6317 15.014C14.5651 15.0472 14.4984 15.0806 14.3985 15.1138C14.3319 15.1472 14.232 15.1472 14.1653 15.1805C14.1321 15.1805 14.0655 15.1805 14.0321 15.1805C13.9989 15.1805 13.9989 15.1805 13.9656 15.1805C13.9323 15.1805 13.9323 15.1805 13.899 15.1805C13.8657 15.1805 13.8657 15.1805 13.8323 15.1805C13.7991 15.1805 13.7658 15.1805 13.7658 15.1805H13.7325H13.6991C13.6658 15.1805 13.6658 15.1805 13.6326 15.1805C13.4328 15.1472 13.2662 15.1138 13.0664 15.014C12.8665 14.9474 12.7 14.8142 12.5334 14.681C12.367 14.5477 12.2338 14.3479 12.1339 14.1814C12.034 14.0149 11.9341 13.7817 11.9007 13.5487C11.8674 13.4487 11.8674 13.3155 11.8674 13.2156C11.8674 13.1823 11.8674 13.149 11.8674 13.1157V13.0823V13.0491C11.8674 12.9825 11.8674 12.9158 11.9007 12.8492C12.0007 12.3497 12.2338 11.8835 12.6335 11.4838C12.7334 11.3839 12.8332 11.3172 12.9332 11.2173C13.033 11.1507 13.1663 11.0842 13.2662 11.0175C13.3994 10.9509 13.5326 10.9177 13.6326 10.8843C13.7658 10.851 13.899 10.8177 14.0321 10.8177C14.0988 10.8177 14.1653 10.8177 14.232 10.8177C14.2653 10.8177 14.2653 10.8177 14.2653 10.8177H14.3319H14.3652H14.4319C14.5651 10.8177 14.7315 10.851 14.8647 10.8843C15.1645 10.9509 15.4309 11.0509 15.6974 11.2173C16.2302 11.5171 16.6631 11.9834 16.9629 12.5162C17.0962 12.7826 17.1961 13.0823 17.2627 13.3821C17.2627 13.4487 17.2959 13.5487 17.2959 13.6152V13.6819V13.7484C17.2959 13.7817 17.2959 13.7817 17.2959 13.8151C17.2959 13.8483 17.2959 13.8483 17.2959 13.8817V13.9483V14.0149C17.2959 14.0482 17.2959 14.1147 17.2959 14.1481C17.2959 14.248 17.2959 14.3146 17.2627 14.4145C17.2627 14.4811 17.2294 14.581 17.2294 14.6476C17.2294 14.7142 17.196 14.8142 17.1627 14.8807C17.1293 15.0472 17.0628 15.2138 16.9962 15.347C16.863 15.6468 16.6965 15.9465 16.4966 16.2462C16.097 16.7791 15.5642 17.2453 14.9314 17.5118C14.6317 17.645 14.2987 17.7449 13.9656 17.8115C13.7991 17.8448 13.6326 17.8448 13.466 17.878H13.4328H13.3994H13.3328H13.2662H13.2329C13.133 17.878 13.0664 17.878 12.9665 17.878C12.6002 17.8448 12.2338 17.7782 11.9007 17.6782C11.5677 17.5784 11.2013 17.4451 10.9016 17.2787C10.2689 16.9456 9.70266 16.4794 9.23645 15.9131C9.00333 15.6468 8.8035 15.347 8.67029 15.014C8.50376 14.681 8.37056 14.3479 8.27064 14.0149C8.17073 13.6819 8.10413 13.3155 8.10413 12.9825V12.9158V12.8826V12.8159V12.6161V12.5828V12.5162V12.4829C8.10413 12.4496 8.10413 12.383 8.10413 12.3497C8.10413 12.1832 8.13743 11.9834 8.13743 11.8168C8.17073 11.6503 8.20403 11.4504 8.23734 11.284C8.27064 11.1174 8.30395 10.9177 8.37055 10.7511C8.47046 10.4181 8.60368 10.0851 8.7369 9.75197C9.03663 9.11922 9.40294 8.55307 9.86925 8.12011C9.96909 8.0202 10.1023 7.88699 10.2355 7.78707C10.3688 7.68716 10.502 7.58725 10.6352 7.52064C10.7684 7.42073 10.9016 7.35412 11.0348 7.28752C11.1015 7.25422 11.1681 7.22091 11.2347 7.18761C11.268 7.18761 11.3013 7.1543 11.3346 7.1543C11.3678 7.1543 11.4012 7.121 11.4345 7.121C11.5677 7.0544 11.7342 7.02109 11.8674 6.95449C11.9007 6.95449 11.9341 6.92118 11.9674 6.92118C12.0007 6.92118 12.034 6.88787 12.0672 6.88787C12.1339 6.85457 12.2338 6.85457 12.3004 6.82127C12.3337 6.82127 12.367 6.78796 12.4336 6.78796C12.4669 6.78796 12.5003 6.78796 12.5668 6.75466C12.6002 6.75466 12.6335 6.75466 12.7 6.72136H12.7666H12.8333C12.8665 6.72136 12.8998 6.72136 12.9665 6.68805C12.9998 6.68805 13.0664 6.68805 13.0997 6.65475C13.133 6.65475 13.1996 6.65475 13.2329 6.65475C13.2662 6.65475 13.2996 6.65475 13.3328 6.65475H13.3994H13.4328H13.466C13.4993 6.65475 13.5659 6.65475 13.5992 6.65475H13.6658H13.6991C13.7325 6.65475 13.7658 6.65475 13.7991 6.65475C13.9656 6.65475 14.0988 6.65475 14.2653 6.65475C14.5651 6.65475 14.8647 6.68805 15.1645 6.75466C15.7307 6.85457 16.2636 7.0544 16.7632 7.28752C17.2627 7.52064 17.6956 7.82037 18.0619 8.15341C18.0953 8.18672 18.0953 8.18672 18.1285 8.22003C18.1618 8.25333 18.1618 8.25333 18.1951 8.28663C18.2285 8.31994 18.295 8.35324 18.3283 8.41984C18.3617 8.48645 18.4282 8.48645 18.4616 8.55307C18.4949 8.61967 18.5615 8.65298 18.5948 8.68628C18.7613 8.85279 18.8945 9.01931 19.0278 9.21913C19.2942 9.55219 19.5274 9.91847 19.6938 10.2516C19.6938 10.2848 19.7272 10.2848 19.7272 10.3181C19.7272 10.3515 19.7604 10.3515 19.7604 10.3848C19.7937 10.4181 19.7937 10.4513 19.827 10.518C19.8604 10.5513 19.8604 10.5846 19.8936 10.6512C19.9269 10.6845 19.9269 10.7178 19.9602 10.7844C20.0269 10.9509 20.0935 11.0842 20.1267 11.2173C20.1934 11.4504 20.2599 11.6503 20.2933 11.8168C20.3266 11.8835 20.3932 11.95 20.4598 11.9167C20.5264 11.9167 20.593 11.8502 20.593 11.7834C20.7262 11.3839 20.7262 11.1507 20.6929 10.9177Z" fill="url(#paint0_linear_872_2325)"/>
</g>
<defs>
<linearGradient id="paint0_linear_872_2325" x1="12.0974" y1="26.442" x2="12.0974" y2="4.75153" gradientUnits="userSpaceOnUse">
<stop stop-color="#FFF100"/>
<stop offset="1" stop-color="#F05A28"/>
</linearGradient>
<clipPath id="clip0_872_2325">
<rect width="24" height="24" fill="white"/>
</clipPath>
</defs>
</svg>
