<svg width="24" height="24" viewBox="0 0 24 24" fill="none" xmlns="http://www.w3.org/2000/svg">
<g clip-path="url(#clip0_872_2389)">
<path d="M18.375 0H5.625C2.5184 0 0 2.5184 0 5.625V18.375C0 21.4816 2.5184 24 5.625 24H18.375C21.4816 24 24 21.4816 24 18.375V5.625C24 2.5184 21.4816 0 18.375 0Z" fill="#430098"/>
<path d="M6.5625 20.4375V15.616L9.27456 18.0268L6.5625 20.4375ZM15 20.4375V13.2385C14.9883 12.6759 14.7173 12 13.4933 12C11.0423 12 8.29279 13.2328 8.26537 13.2451L6.5625 14.0166V3.5625H8.97322V10.4062C10.1768 10.0145 11.8591 9.58931 13.4933 9.58931C14.9834 9.58931 15.8753 10.1751 16.3612 10.6666C17.398 11.7152 17.4122 13.051 17.4108 13.2053V20.4375H15ZM15.6027 7.47991H13.1919C14.1394 6.23689 14.7342 4.92877 15 3.5625H17.4107C17.248 4.93178 16.6929 6.24442 15.6027 7.47991Z" fill="white"/>
</g>
<defs>
<clipPath id="clip0_872_2389">
<rect width="24" height="24" fill="white"/>
</clipPath>
</defs>
</svg>
