<svg width="24" height="24" viewBox="0 0 24 24" fill="none" xmlns="http://www.w3.org/2000/svg">
<g clip-path="url(#clip0_872_2467)">
<path d="M18.375 0H5.625C2.5184 0 0 2.5184 0 5.625V18.375C0 21.4816 2.5184 24 5.625 24H18.375C21.4816 24 24 21.4816 24 18.375V5.625C24 2.5184 21.4816 0 18.375 0Z" fill="#326CE5"/>
<path d="M12.0068 2.8125C11.6996 2.8341 11.4668 3.09728 11.4829 3.40447V3.55486C11.4972 3.72525 11.5228 3.89404 11.5565 4.06123C11.6055 4.3814 11.6231 4.70557 11.6092 5.02918C11.5788 5.13557 11.518 5.23157 11.4349 5.30516L11.4229 5.53075C11.0989 5.55795 10.7773 5.60754 10.4605 5.67954C9.12776 5.98032 7.91422 6.67148 6.97747 7.66743L6.78548 7.53143C6.67989 7.56344 6.5663 7.55144 6.46951 7.49944C6.20985 7.30726 5.96953 7.09025 5.75195 6.85147C5.64265 6.72088 5.52592 6.59668 5.40236 6.47949L5.28397 6.38511C5.17837 6.30031 5.04878 6.25151 4.9136 6.24511C4.83292 6.24083 4.75237 6.2557 4.67855 6.28852C4.60472 6.32133 4.5397 6.37115 4.48882 6.4339C4.30803 6.68749 4.36722 7.03867 4.62001 7.22026L4.7304 7.30825C4.87251 7.4028 5.01994 7.48907 5.17198 7.56664C5.45516 7.72423 5.72235 7.90902 5.97034 8.12661C6.03377 8.21707 6.07062 8.32347 6.07672 8.43379L6.25112 8.59378C5.30957 10.0065 4.92319 11.7176 5.16478 13.3983L4.94079 13.4623C4.8824 13.5551 4.8048 13.6343 4.71201 13.6927C4.3995 13.7762 4.07961 13.829 3.75685 13.8502C3.58557 13.8538 3.41463 13.8671 3.24488 13.8903L3.10329 13.9222H3.08729C2.98903 13.9359 2.89648 13.9765 2.81995 14.0397C2.74342 14.1028 2.68591 14.1859 2.65382 14.2798C2.62173 14.3737 2.61632 14.4746 2.63819 14.5714C2.66006 14.6681 2.70836 14.7569 2.77771 14.8279C2.8477 14.8984 2.93595 14.9482 3.03258 14.9714C3.1292 14.9948 3.23041 14.9907 3.32488 14.9598H3.33528L3.47927 14.9438C3.64166 14.8958 3.80166 14.8366 3.95765 14.7695C4.25763 14.6495 4.56881 14.5574 4.8872 14.4975C4.99759 14.5039 5.10318 14.5415 5.19277 14.6054L5.43277 14.5655C5.95273 16.179 7.04547 17.5461 8.5046 18.4076L8.40699 18.6116C8.4518 18.7052 8.4686 18.8092 8.45499 18.9124C8.323 19.218 8.16142 19.5108 7.97262 19.7859C7.86906 19.9224 7.77344 20.0648 7.68623 20.2123L7.61824 20.3563C7.56891 20.4419 7.54418 20.5395 7.5468 20.6382C7.54942 20.7369 7.57928 20.833 7.63307 20.9159C7.68686 20.9988 7.76251 21.0652 7.85166 21.1077C7.94079 21.1503 8.03996 21.1673 8.13821 21.1571C8.23669 21.146 8.33017 21.1078 8.40826 21.0469C8.48635 20.9858 8.54601 20.9044 8.58059 20.8115L8.64698 20.6755C8.70778 20.5155 8.75898 20.3523 8.80057 20.1876C8.94217 19.838 9.01896 19.4628 9.21255 19.2308C9.27582 19.1713 9.35556 19.1323 9.44137 19.1188L9.56137 18.9004C11.143 19.5083 12.8932 19.5127 14.4779 18.9124L14.5842 19.1164C14.6931 19.1324 14.7907 19.1924 14.8563 19.2803C15.0067 19.5667 15.1283 19.8668 15.2211 20.1763C15.2633 20.3421 15.3152 20.5053 15.3762 20.6651L15.4426 20.8011C15.4776 20.8936 15.5374 20.9747 15.6155 21.0353C15.6936 21.0959 15.7869 21.1337 15.8853 21.1446C15.9835 21.1554 16.0829 21.1388 16.1723 21.0968C16.2619 21.0547 16.3379 20.9886 16.3922 20.9059C16.4459 20.8227 16.4755 20.7263 16.4778 20.6273C16.48 20.5283 16.4548 20.4307 16.4049 20.3452L16.3354 20.2012C16.2482 20.0542 16.1526 19.9123 16.049 19.7764C15.865 19.5108 15.7066 19.2276 15.569 18.9308C15.5561 18.8766 15.5543 18.8202 15.5637 18.7653C15.5731 18.7103 15.5933 18.6578 15.6234 18.6108C15.5893 18.541 15.5596 18.4692 15.5346 18.3956C16.9905 17.5277 18.0785 16.1557 18.5929 14.5399L18.82 14.5798C18.9016 14.5055 19.0088 14.4663 19.1184 14.4695C19.436 14.5302 19.7471 14.6294 20.048 14.7414C20.204 14.8134 20.3639 14.8742 20.5263 14.9255C20.5647 14.9359 20.6207 14.9446 20.6639 14.955H20.6743C20.7687 14.9856 20.8698 14.9892 20.9662 14.9657C21.0625 14.9422 21.1505 14.8923 21.2202 14.8218C21.29 14.7512 21.3388 14.6626 21.3612 14.5659C21.3835 14.4693 21.3787 14.3683 21.3471 14.2743C21.3147 14.1803 21.257 14.0972 21.1801 14.0342C21.1032 13.9712 21.0104 13.9308 20.9119 13.9175L20.7567 13.8807C20.5869 13.8576 20.416 13.8442 20.2448 13.8407C19.9216 13.8199 19.6016 13.7671 19.2896 13.6831C19.1936 13.6295 19.1136 13.5495 19.0592 13.4528L18.8432 13.3887C19.0735 11.7088 18.6789 10.0028 17.7345 8.59458L17.9233 8.42019C17.9153 8.3106 17.9513 8.2018 18.0225 8.1178C18.268 7.90662 18.5345 7.72023 18.8144 7.56104C18.9665 7.48343 19.1138 7.39717 19.256 7.30265L19.3728 7.20826C19.4587 7.15489 19.5279 7.07826 19.5722 6.98723C19.6164 6.89621 19.634 6.79452 19.6229 6.69393C19.6117 6.59333 19.5724 6.49794 19.5093 6.4188C19.4462 6.33966 19.362 6.27999 19.2664 6.24671C19.1709 6.21347 19.0679 6.20792 18.9694 6.23071C18.8709 6.2535 18.7808 6.30369 18.7096 6.37551L18.5913 6.46989C18.4677 6.58711 18.351 6.71131 18.2417 6.84188C18.0305 7.08346 17.7968 7.30345 17.5433 7.50024C17.441 7.54191 17.329 7.55409 17.2201 7.53544L17.0177 7.67943C15.8498 6.4555 14.2762 5.69554 12.59 5.54355C12.59 5.46355 12.5796 5.34356 12.578 5.30596C12.4876 5.24357 12.4244 5.14838 12.4036 5.04037C12.3924 4.71732 12.4129 4.39395 12.4643 4.07483C12.4987 3.90684 12.5227 3.73885 12.5379 3.56846V3.40847C12.554 3.10129 12.3219 2.8381 12.014 2.8165L12.0068 2.8125ZM11.3396 6.94508L11.1797 9.73931H11.1677C11.1596 9.91209 11.0581 10.0593 10.9021 10.1425C10.7461 10.2257 10.5613 10.2009 10.4221 10.0993L8.13022 8.47538C8.85969 7.75889 9.77484 7.26044 10.7724 7.03627C10.9597 6.99627 11.1485 6.96587 11.338 6.94508H11.3396ZM12.674 6.94508C13.8779 7.09466 14.9986 7.63543 15.8658 8.48419L13.5955 10.0977C13.4556 10.2097 13.2636 10.2321 13.1011 10.1553C12.9387 10.0785 12.8348 9.91528 12.8323 9.73612L12.674 6.94508ZM7.29826 9.5265L9.39412 11.3968V11.4088C9.52453 11.5224 9.58134 11.6993 9.54291 11.868C9.50456 12.0367 9.37494 12.1703 9.20935 12.216V12.224L6.5199 12.9975C6.38682 11.7859 6.66096 10.5643 7.29906 9.52575L7.29826 9.5265ZM16.7002 9.5265C17.3369 10.5624 17.6185 11.7776 17.5017 12.9879L14.8083 12.212V12.2016C14.6403 12.156 14.5122 12.0224 14.4746 11.8536C14.437 11.6848 14.4931 11.5096 14.6235 11.3945L16.7033 9.53297L16.7002 9.5265ZM11.5772 11.5424H12.4348L12.9588 12.2079L12.7684 13.04L11.998 13.4103L11.226 13.04L11.0444 12.2079L11.5772 11.5424ZM14.3243 13.8127C14.3602 13.8087 14.4043 13.8087 14.4322 13.8127L17.2057 14.2807C16.8057 15.4326 16.0162 16.4166 14.9858 17.0749L13.9139 14.4799C13.8844 14.4102 13.8721 14.3346 13.878 14.2592C13.8838 14.1838 13.9077 14.111 13.9477 14.0468C13.9876 13.9825 14.0423 13.9288 14.1073 13.8902C14.1723 13.8516 14.2456 13.8291 14.3211 13.8247L14.3243 13.8127ZM9.66609 13.8247C9.82294 13.8271 9.96769 13.9079 10.0533 14.0391C10.1389 14.1703 10.1525 14.335 10.0909 14.479V14.4894L9.02537 17.0637C8.00542 16.4102 7.23106 15.4382 6.81908 14.2983L9.5685 13.8319C9.59897 13.8287 9.63009 13.8287 9.66131 13.8319L9.66609 13.8247ZM11.9892 14.9446C12.0766 14.9419 12.163 14.9634 12.2389 15.0069C12.3147 15.0504 12.3771 15.1142 12.4188 15.191H12.4292L13.7843 17.6364L13.2427 17.7965C12.246 18.0245 11.2053 17.9708 10.2365 17.6413L11.5964 15.1958C11.6788 15.0518 11.8308 14.9638 11.9964 14.9598L11.9892 14.9446Z" fill="white" stroke="white" stroke-width="0.11"/>
</g>
<defs>
<clipPath id="clip0_872_2467">
<rect width="24" height="24" fill="white"/>
</clipPath>
</defs>
</svg>
