<svg width="24" height="24" viewBox="0 0 24 24" fill="none" xmlns="http://www.w3.org/2000/svg">
<g clip-path="url(#clip0_872_2600)">
<path d="M18.375 0H5.625C2.5184 0 0 2.5184 0 5.625V18.375C0 21.4816 2.5184 24 5.625 24H18.375C21.4816 24 24 21.4816 24 18.375V5.625C24 2.5184 21.4816 0 18.375 0Z" fill="#F4F2ED"/>
<path d="M8.05848 18.7431L10.3582 20.02H13.836L17.0893 17.5774L18.5477 13.7468L15.1821 9.69429L14.2286 7.41821L9.57298 7.58475L9.62904 8.86159L8.73158 10.527L7.32929 13.2472L7.04883 15.5233L8.05848 18.7431Z" fill="#ECEFF1"/>
<path d="M17.5371 10.749C16.6397 9.47212 15.9105 8.69496 15.5179 7.08504C15.1252 5.47512 15.6301 5.91924 15.2935 4.53138C15.1252 3.80969 14.8447 3.31006 14.5643 2.92146C14.2278 2.53285 13.8351 2.3108 13.6107 2.25528C13.106 1.97771 11.928 1.53359 10.4696 2.3108C8.95511 3.088 9.12338 4.75343 9.40386 8.13982C9.40386 8.36188 9.34775 8.63946 9.23557 8.86151C9.0112 9.36114 8.61855 9.80522 8.282 10.1939C7.88936 10.749 7.49671 11.3042 7.21626 11.9148C6.54316 13.1917 5.92615 14.8015 6.09442 15.4122C6.37488 15.3567 9.9087 20.6861 9.9087 20.7971C10.133 20.7416 11.0866 20.7416 11.928 20.7416C13.106 20.6861 13.779 20.6306 14.7326 20.8526C14.7326 20.6861 14.6765 20.5195 14.6765 20.353C14.6765 20.0199 14.7326 19.7423 14.7887 19.3538C14.8447 19.0762 14.9009 18.7987 14.957 18.4656C14.396 18.9652 13.3864 19.5203 12.4328 19.6868C11.5914 19.8533 10.1891 19.5758 9.51599 18.7431C9.57214 18.7431 9.68427 18.7431 9.74042 18.6876C9.90871 18.6321 10.077 18.5766 10.133 18.4656C10.3013 18.188 10.1891 17.9104 10.077 17.7439C9.96477 17.5773 9.12339 16.9666 8.73075 16.6336C8.3381 16.3005 8.11373 16.1339 7.88937 15.9119C7.88937 15.9119 7.55281 15.5788 7.44062 15.4677C7.32844 15.3567 7.27235 15.2457 7.21626 15.1901C7.10408 14.9126 7.04798 14.5795 7.10408 14.1354C7.16017 13.5247 7.38453 13.0251 7.665 12.47C7.77718 12.2479 8.05764 11.8038 8.05764 11.8038C8.05764 11.8038 7.10408 14.1354 7.60891 14.8571C7.60891 14.8571 7.665 14.1354 7.88937 13.4137C8.05764 12.9141 8.3381 12.1924 8.67465 11.8038C9.0112 11.4152 9.85255 9.97181 9.9087 9.08357C9.9087 8.69497 9.96477 8.30636 9.96477 8.0288C9.74042 7.80673 13.6669 7.25159 13.8912 7.86225C13.9473 8.08431 14.7326 10.0828 15.1813 11.1376C15.4056 11.6373 15.6861 12.0814 15.8544 12.6365C16.0227 13.2472 16.1348 14.0798 16.1348 14.9126C16.1348 15.0791 16.1348 15.3567 16.0788 15.6343C16.191 15.6343 18.3785 13.3027 15.7984 11.3597C15.7984 11.3597 17.3689 12.0814 17.425 13.5247C17.4811 14.6905 16.9762 15.6343 16.8641 15.8008C16.9202 15.8008 18.042 16.3005 18.098 16.3005C18.3225 16.3005 18.7712 16.1339 18.7712 16.1339C18.8273 15.9674 18.9955 15.5232 18.9955 15.3567C19.3882 14.0798 18.4346 12.0259 17.5371 10.749Z" fill="#263238"/>
<path d="M10.4128 7.08508C10.8155 7.08508 11.142 6.58798 11.142 5.97479C11.142 5.36159 10.8155 4.8645 10.4128 4.8645C10.0101 4.8645 9.68359 5.36159 9.68359 5.97479C9.68359 6.58798 10.0101 7.08508 10.4128 7.08508Z" fill="#ECEFF1"/>
<path d="M12.9379 7.196C13.4646 7.196 13.8915 6.62434 13.8915 5.91917C13.8915 5.21399 13.4646 4.64233 12.9379 4.64233C12.4113 4.64233 11.9844 5.21399 11.9844 5.91917C11.9844 6.62434 12.4113 7.196 12.9379 7.196Z" fill="#ECEFF1"/>
<path d="M10.8214 6.05078C10.7748 5.68576 10.5626 5.41168 10.3474 5.43859C10.1323 5.46551 9.99566 5.78323 10.0423 6.14824C10.0889 6.51325 10.3011 6.78733 10.5163 6.76042C10.7314 6.7335 10.868 6.41578 10.8214 6.05078Z" fill="#212121"/>
<path d="M12.8813 6.86306C13.1911 6.86306 13.4422 6.53995 13.4422 6.14137C13.4422 5.7428 13.1911 5.41968 12.8813 5.41968C12.5715 5.41968 12.3203 5.7428 12.3203 6.14137C12.3203 6.53995 12.5715 6.86306 12.8813 6.86306Z" fill="#212121"/>
<path d="M20.3419 18.3544C20.1175 18.2434 19.7248 18.0768 19.3883 17.5772C19.2201 17.2997 19.2761 16.5225 18.9956 16.1894C18.8274 15.9674 18.603 16.0784 18.547 16.0784C18.0421 16.1894 16.8641 16.9666 16.0789 16.0784C15.9667 15.9674 15.7984 15.8008 15.518 15.8008C15.2375 15.8008 15.1254 15.9118 15.0131 16.1339C14.9009 16.356 14.9009 16.5225 14.9009 17.0777C14.9009 17.5217 14.9009 18.0213 14.8449 18.4099C14.7326 19.3537 14.5645 19.9089 14.5645 20.464C14.5645 21.0747 14.7326 21.4633 14.9571 21.6298C15.1254 21.7964 15.4058 21.9074 16.0228 21.9074C16.6398 21.9074 17.0324 21.6854 17.4251 21.2967C17.7055 21.0192 17.9299 20.9081 18.7152 20.353C19.3322 19.9644 20.2858 19.4647 20.454 19.2982C20.5662 19.1872 20.7345 19.1316 20.7345 18.7985C20.7345 18.521 20.5102 18.4099 20.3419 18.3544Z" fill="#FFC107"/>
<path d="M9.0674 18.5211C8.50647 17.6328 8.45038 17.4663 8.05774 16.9111C7.72118 16.3561 6.992 15.3013 6.54326 15.3013C6.20671 15.3013 6.03843 15.4678 5.81407 15.6899C5.58969 15.9119 5.36533 16.4116 4.97269 16.6891C4.63613 16.9666 3.68258 16.9111 3.4582 17.2442C3.23383 17.5773 3.68258 18.077 3.68258 18.9097C3.68258 19.2428 3.40211 19.4648 3.34602 19.6869C3.28993 19.9645 3.23383 20.131 3.34602 20.3531C3.57038 20.6862 3.85085 20.7972 5.75798 21.1858C6.76762 21.4079 7.72118 21.963 8.3382 22.0186C8.95521 22.0741 10.0209 22.0186 10.0209 20.5196C10.0771 19.6314 9.57225 19.4093 9.0674 18.5211Z" fill="#FFC107"/>
<path d="M10.1327 8.47283C9.79613 8.25078 9.51562 8.02871 9.51562 7.69563C9.51562 7.36254 9.74006 7.25152 10.0766 6.97394C10.1327 6.91842 10.7497 6.36328 11.3667 6.36328C11.9837 6.36328 12.7129 6.75188 12.9934 6.86291C13.4982 6.97394 14.003 7.08497 13.9469 7.47357C13.8908 8.02871 13.8348 8.13975 13.2738 8.41732C12.8812 8.52834 12.152 9.139 11.6471 9.139C11.4228 9.139 11.0862 9.139 10.8619 9.08349C10.6936 9.02798 10.4131 8.75041 10.1327 8.47283Z" fill="#FFC107"/>
<path d="M10.0202 8.02882C10.1324 8.13985 10.3007 8.25088 10.469 8.30639C10.5811 8.36191 10.7494 8.41742 10.7494 8.41742C10.9738 8.41742 11.1421 8.41742 11.2543 8.41742C11.5348 8.41742 11.9274 8.3064 12.32 8.08433C12.7126 7.91779 12.7688 7.80676 13.0492 7.69573C13.3297 7.52919 13.6101 7.36264 13.498 7.30713C13.3857 7.25162 13.2735 7.30713 12.8809 7.52919C12.5443 7.75125 12.2639 7.86228 11.9274 8.02882C11.7591 8.08433 11.5348 8.19536 11.3665 8.19536C11.1982 8.19536 11.0299 8.19536 10.8616 8.19536C10.6933 8.19536 10.5811 8.13985 10.4128 8.08433C10.3007 8.02882 10.2446 7.9733 10.1885 7.9733C10.0764 7.91779 9.85194 7.69573 9.73981 7.64022C9.73981 7.64022 9.62759 7.64022 9.68366 7.69573C9.85194 7.86228 9.90809 7.91779 10.0202 8.02882Z" fill="#634703"/>
<path d="M11.7031 6.80746C11.7592 6.91849 11.8714 6.91849 11.9275 6.974C11.9835 7.02951 12.0397 7.02951 12.0397 7.02951C12.0957 6.974 12.0397 6.86298 11.9835 6.86298C11.9835 6.75195 11.7031 6.75195 11.7031 6.80746Z" fill="#634703"/>
<path d="M10.8066 6.91849C10.8066 6.97401 10.9188 7.02952 10.9188 6.97401C10.9749 6.91849 11.031 6.86298 11.087 6.86298C11.1993 6.80746 11.1431 6.75195 10.9749 6.75195C10.8627 6.80746 10.8627 6.86298 10.8066 6.91849Z" fill="#634703"/>
<path d="M16.2478 16.7445C16.2478 16.8 16.2478 16.8555 16.2478 16.911C16.36 17.1331 16.6404 17.1886 16.8647 17.1886C17.2013 17.1886 17.5379 16.9665 17.7062 16.7445C17.7062 16.689 17.7622 16.6334 17.8184 16.5779C17.9305 16.4114 17.9867 16.3004 18.0427 16.2449C18.0427 16.2449 17.9867 16.1894 17.9867 16.1339C17.9305 16.0229 17.7622 15.9118 17.5379 15.8563C17.3696 15.8008 17.0892 15.7453 16.977 15.7453C16.4721 15.6898 16.1917 15.8563 16.0234 16.0229C16.0234 16.0229 16.0795 16.0229 16.0795 16.0784C16.1917 16.1894 16.2478 16.3004 16.2478 16.4669C16.3038 16.5779 16.2478 16.6334 16.2478 16.7445Z" fill="#455A64"/>
</g>
<defs>
<clipPath id="clip0_872_2600">
<rect width="24" height="24" fill="white"/>
</clipPath>
</defs>
</svg>
