<svg width="24" height="24" viewBox="0 0 24 24" fill="none" xmlns="http://www.w3.org/2000/svg">
<g clip-path="url(#clip0_872_2650)">
<path d="M18.375 0H5.625C2.5184 0 0 2.5184 0 5.625V18.375C0 21.4816 2.5184 24 5.625 24H18.375C21.4816 24 24 21.4816 24 18.375V5.625C24 2.5184 21.4816 0 18.375 0Z" fill="#F4F2ED"/>
<path d="M4.99984 2.53118C4.96734 2.60789 4.93656 2.70714 4.90795 2.82679L4.8869 2.92033C4.88003 2.95276 4.87329 2.98644 4.86671 3.02133L4.84742 3.12958L4.82905 3.2449L4.81166 3.3671L4.79528 3.49595L4.77997 3.63128L4.76576 3.77289C4.76348 3.797 4.76125 3.82136 4.75907 3.84597L4.74658 3.99662L4.73529 4.15305L4.72525 4.31506C4.72368 4.34252 4.72217 4.37019 4.7207 4.39809L5.72422 4.88379C5.70903 4.29791 5.7279 3.74392 5.78068 3.23492L5.79103 3.1442L5.78387 3.22732L5.77495 3.36474L5.77169 3.43029L5.76618 3.57987L5.76413 3.66399L5.76189 3.85117L5.7622 4.00831L5.76456 4.18002L5.76744 4.30269L5.77392 4.49908L5.77982 4.63836L5.78711 4.78437C5.78845 4.80927 5.78984 4.83446 5.7913 4.85993C5.97822 4.70751 6.20209 4.50743 6.4349 4.28871L6.59112 4.14045C6.61727 4.11538 6.64346 4.09017 6.66964 4.06485L6.82637 3.9119L6.98115 3.7582L7.1321 3.60568L7.27741 3.45624C7.11685 3.12821 6.9437 2.8872 6.78264 2.71117L6.72943 2.65486C6.69431 2.61889 6.65991 2.586 6.62652 2.55596L6.57722 2.51301L6.52963 2.47414C6.51407 2.46184 6.49883 2.45019 6.48394 2.43917L6.44038 2.40793L6.39913 2.38023L6.34205 2.34493L6.29132 2.31657L6.23477 2.28852L6.19235 2.27028L6.11495 2.2423L6.05858 2.22422L6.00354 2.20868L5.96164 2.19813L5.9161 2.18794C5.90823 2.18629 5.90024 2.18467 5.89211 2.18309L5.84199 2.17418L5.78938 2.16662C5.51194 2.13185 5.15353 2.16831 4.99984 2.53118Z" fill="url(#paint0_linear_872_2650)"/>
<path d="M5.98615 7.84605C5.93983 7.51211 5.89754 7.18367 5.85929 6.86073C5.82824 6.59255 5.80282 6.32836 5.78201 6.06675L5.76416 5.83222C5.76385 5.82603 5.76368 5.82005 5.76374 5.81437C5.7418 5.49637 5.72592 5.18661 5.71883 4.88308L4.71733 4.40015L4.71459 4.46152L4.70787 4.58894C4.69789 4.82887 4.69047 5.08383 4.68838 5.3518C4.68593 5.65386 4.68881 5.96894 4.69426 6.29904C4.70134 6.60257 4.71375 6.91911 4.73019 7.24114C4.74237 7.44788 4.75568 7.65618 4.77098 7.86717L4.78937 8.11119L6.12913 8.78993L6.08189 8.47374L5.98615 7.84605Z" fill="url(#paint1_linear_872_2650)"/>
<path d="M7.92383 15.6261L7.94457 15.6975L8.07763 16.1497C8.09675 16.2139 8.11611 16.2784 8.13582 16.3432L8.19932 16.5487L8.22103 16.6227C8.22487 16.6348 8.22899 16.6468 8.23363 16.6589L8.44947 17.3506C8.64061 17.311 8.87361 17.3824 9.11973 17.4897L9.21881 17.5344C9.03762 17.3165 8.78682 17.1706 8.48713 17.1368C9.30769 16.5895 9.84759 15.8846 9.77174 15.0437C9.76359 14.9692 9.75356 14.8921 9.73865 14.8143C9.72627 15.1242 9.60252 15.3517 9.24388 15.5949L9.19972 15.6242C9.57065 14.9714 9.67274 14.5285 9.62887 13.9559C9.61799 13.8202 9.60112 13.6761 9.57609 13.521C9.45749 14.3736 8.99965 14.9253 8.33004 15.2517L7.92383 15.6261Z" fill="url(#paint2_linear_872_2650)"/>
<path d="M7.44422 14.6257L7.35901 14.3062L7.1876 13.6594C7.10628 13.3469 7.02771 13.0325 6.94986 12.7132C6.87202 12.394 6.79692 12.0727 6.72183 11.7514C6.64545 11.4226 6.57384 11.0945 6.50498 10.7645L6.43698 10.4381L6.30644 9.78517C6.28312 9.66695 6.26182 9.55154 6.24124 9.43126C6.20377 9.23042 6.16904 9.02753 6.13432 8.82464L6.12716 8.79184L4.79492 8.11182L4.79928 8.15403C4.79979 8.16134 4.80001 8.16869 4.79971 8.17596C4.82659 8.47765 4.85274 8.7841 4.88842 9.09201C4.92337 9.40473 4.96309 9.71814 5.00958 10.035C5.0491 10.302 5.09136 10.567 5.13564 10.8348L5.16466 10.9954C5.22601 11.3267 5.29158 11.6466 5.36281 11.9453C5.4425 12.2844 5.52785 12.6024 5.61412 12.8985C5.67211 13.0928 5.72882 13.2795 5.787 13.4567L5.83862 13.606L5.94536 13.903C6.0727 14.2494 6.21378 14.5856 6.36586 14.9139L7.7124 15.5961C7.64064 15.3485 7.57437 15.0969 7.50132 14.8417L7.464 14.6987L7.44422 14.6257Z" fill="url(#paint3_linear_872_2650)"/>
<path d="M6.38573 14.9587C6.54801 15.3059 6.72503 15.6421 6.92045 15.965L7.02882 16.1402C6.90123 16.0889 6.73986 16.0634 6.58307 16.0519L6.50524 16.0473C6.49239 16.0468 6.47962 16.0463 6.46694 16.0458L6.39224 16.0442L6.28696 16.0446L6.19298 16.0473L6.1139 16.0515L6.00319 16.0605C6.00226 16.0606 6.00197 16.0607 6.00197 16.0607C6.68283 16.2969 7.27992 16.5861 7.65657 17.0244C7.50689 17.1892 7.22669 17.3145 6.87445 17.4165C7.13669 17.445 7.33647 17.4334 7.48053 17.4099L7.53888 17.3992C7.54805 17.3973 7.55693 17.3954 7.56553 17.3935L7.61387 17.3815L7.65567 17.3692L7.7064 17.3516L7.7324 17.3409C7.51607 17.5213 7.38071 17.8286 7.26818 18.173L7.22932 18.296C7.22297 18.3167 7.21668 18.3375 7.21043 18.3584C7.49691 17.8901 7.78107 17.58 8.05779 17.4615C8.36683 18.4863 8.72425 19.5769 9.1165 20.715L9.29996 21.2436C9.36191 21.4209 9.42465 21.5992 9.48803 21.7785C9.57934 21.6609 9.58956 21.5307 9.55131 21.398L9.42587 21.0437L9.28301 20.6296L9.06166 19.9729L8.88028 19.4222L8.67986 18.801L8.48848 18.1948L8.31282 17.6267L8.18361 17.2013L8.07844 16.8501C8.06437 16.804 8.05152 16.7571 8.03767 16.7096L7.99805 16.5792L7.88448 16.1868L7.76898 15.7831L7.71704 15.597L7.71502 15.5943L6.36849 14.9121C6.37154 14.9239 6.37493 14.9337 6.37902 14.9435L6.38573 14.9587Z" fill="url(#paint4_linear_872_2650)"/>
<path d="M6.28481 8.81858L6.30869 8.94907C6.32596 9.0379 6.342 9.12762 6.35904 9.21786L6.50471 9.96526L6.55822 10.2255L6.63616 10.5933C6.64945 10.6555 6.66287 10.7181 6.67637 10.7811C6.71658 10.9673 6.75898 11.1564 6.80339 11.3496L6.89486 11.7415L6.9859 12.1238C7.00147 12.1884 7.01724 12.2533 7.03319 12.3187L7.13096 12.7143L7.22872 13.0988C7.27834 13.2931 7.32941 13.4905 7.38337 13.692C7.42275 13.8407 7.46364 13.9915 7.50544 14.1443L7.6455 14.6542L7.75131 15.0289L7.86058 15.4117C7.87909 15.4761 7.89777 15.5407 7.91659 15.6055C7.91789 15.613 7.91917 15.6205 7.9232 15.6261L8.32941 15.2518L8.31957 15.2559L8.29788 15.2665C8.77995 14.8112 9.19308 13.8989 9.28752 13.0768C9.33099 12.6982 9.32698 12.2951 9.27493 11.8555C9.23741 11.5277 9.17074 11.1834 9.07913 10.8107C8.99927 10.4888 8.90052 10.1468 8.78014 9.78686C8.7056 9.93883 8.59972 10.0884 8.47001 10.2343L8.39966 10.3114L8.37558 10.3364L8.32454 10.3876C8.68008 9.83486 8.72237 9.24137 8.61692 8.62519C8.55228 8.80796 8.42538 9.07873 8.21487 9.32204C8.18794 9.35449 8.15625 9.38617 8.12455 9.41795C8.11905 9.42198 8.11445 9.42723 8.10873 9.43267L8.09908 9.44083C8.21704 9.24432 8.30421 9.0577 8.36004 8.8687C8.36895 8.84243 8.37574 8.81582 8.38183 8.78912L8.3906 8.749C8.40487 8.68778 8.41438 8.62582 8.42388 8.56387L8.4374 8.44399C8.44274 8.37346 8.44426 8.30099 8.4408 8.2274L8.43152 8.09196C8.43062 8.08198 8.42943 8.07204 8.42772 8.06202L8.41356 7.97529C8.41118 7.96138 8.40867 7.94771 8.40586 7.93427C8.3783 7.77325 8.34806 7.62974 8.31686 7.50245L8.28763 7.3882L8.2612 7.29169L8.22685 7.17753L8.18221 7.04378C8.17748 7.03033 8.17276 7.01741 8.16795 7.00509L8.14098 6.93763C8.13233 6.91687 8.12404 6.8979 8.11619 6.8808L8.09401 6.83521C8.08974 6.85244 8.08425 6.87056 8.07693 6.88877L8.06453 6.91605C7.98066 7.11293 7.78557 7.383 7.60767 7.57277C7.60492 7.57479 7.60217 7.57681 7.60143 7.58158L7.56474 7.61822C7.55849 7.62485 7.55227 7.63175 7.54629 7.63897L7.55325 7.62541L6.27344 8.79732C6.28426 8.8063 6.28554 8.81381 6.28481 8.81858Z" fill="url(#paint5_linear_872_2650)"/>
<path d="M5.79102 4.86034C5.79618 4.95381 5.80237 5.05124 5.8095 5.15252L5.82501 5.36017C5.8278 5.39562 5.83068 5.4315 5.83367 5.46779L5.8527 5.69049C5.85607 5.72843 5.85952 5.76679 5.86305 5.80554L5.86605 5.8425C5.86677 5.84839 5.86778 5.85423 5.86931 5.86016C5.88014 5.97432 5.89219 6.09175 5.90552 6.21286L5.93391 6.46008C5.94396 6.5442 5.95459 6.63005 5.96583 6.71779L6.01909 7.1199C6.04399 7.30245 6.07094 7.49158 6.10109 7.68883L6.12432 7.8383C6.14729 7.99061 6.17278 8.14635 6.19977 8.30629L6.28417 8.79942L7.56398 7.6275C7.83085 7.14406 7.88919 6.84325 7.88556 6.46953C7.88429 6.39433 7.88076 6.31605 7.8758 6.23583L7.87041 6.155C7.84992 5.82747 7.81057 5.47998 7.75471 5.14458C7.70217 4.81944 7.63789 4.50713 7.56428 4.23975C7.51766 4.06674 7.46811 3.91279 7.41765 3.78066C7.37178 3.66631 7.32445 3.56149 7.27639 3.46143L7.13128 3.60957C7.10657 3.63459 7.08162 3.65975 7.05648 3.68502L6.90353 3.83745L6.74765 3.99031L6.59071 4.14165C6.56457 4.16664 6.53846 4.19149 6.51241 4.21615L6.35733 4.36159C6.15252 4.55171 5.95717 4.72486 5.79102 4.86034Z" fill="url(#paint6_linear_872_2650)"/>
<path d="M18.1123 2.78212C18.0714 2.79902 18.0266 2.82026 17.9785 2.84566L17.9038 2.88689C17.8524 2.91644 17.7975 2.9501 17.7396 2.98773L17.6503 3.04713L17.5566 3.11238L17.4584 3.18337L17.356 3.25999C17.3386 3.27323 17.3211 3.28669 17.3034 3.30038L17.195 3.38526L17.0828 3.47551L16.9668 3.57103L16.8475 3.67171L16.7247 3.77745L16.5988 3.88814L16.4698 4.00368C16.4482 4.02333 16.4262 4.04319 16.4043 4.06323L16.8263 5.25154C17.2827 4.76445 17.7413 4.33082 18.1912 3.96133L18.3494 3.83291L18.3609 3.82415L18.252 3.91272L18.1453 4.005L18.0295 4.10966L17.9198 4.21253L17.8275 4.30129L17.7613 4.36618L17.6179 4.51L17.5006 4.63052L17.3316 4.80864L17.2417 4.90536L17.1482 5.00731L17.0015 5.17023L16.8992 5.28563C17.0042 5.2956 17.1192 5.30424 17.2418 5.31158L17.4308 5.32165L17.629 5.32984L17.8346 5.33621L18.0454 5.34079L18.2595 5.34365C18.2953 5.34398 18.3312 5.34425 18.3671 5.34444L18.5825 5.34479C18.6183 5.34472 18.6541 5.34457 18.6897 5.34436L18.9018 5.34232C18.9369 5.34185 18.9717 5.34132 19.0063 5.34072L19.2108 5.33638C19.3787 4.83597 19.4171 4.43357 19.4041 4.13311L19.3996 4.05704L19.393 3.98562C19.3918 3.97409 19.3905 3.96277 19.3891 3.95164L19.3801 3.8872L19.3699 3.82744C19.3681 3.81787 19.3662 3.80849 19.3644 3.79932L19.3528 3.7466L19.3408 3.69859L19.3285 3.65533L19.3165 3.6168L19.2939 3.55406L19.2756 3.51047L19.232 3.42058L19.2066 3.3726L19.1853 3.33491L19.1606 3.2935L19.1327 3.24912L19.1015 3.2025L19.067 3.15438C18.8744 2.8951 18.5456 2.60332 18.1123 2.78212Z" fill="url(#paint7_linear_872_2650)"/>
<path d="M14.6839 7.84534C14.9119 7.53972 15.1389 7.24172 15.3646 6.95135C15.5997 6.65066 15.8369 6.36197 16.0769 6.08148C16.0912 6.06408 16.1054 6.04668 16.1191 6.0331C16.354 5.75968 16.5874 5.4977 16.8228 5.24773L16.4003 4.06323L16.3494 4.11046L16.2427 4.2077C16.044 4.39291 15.8355 4.59227 15.6209 4.80633C15.4999 4.92694 15.3775 5.05123 15.253 5.17912L15.0011 5.4397C14.9587 5.48392 14.916 5.52854 14.873 5.57354C14.6376 5.82352 14.3961 6.08819 14.1535 6.3605C13.999 6.53661 13.8442 6.71487 13.6889 6.89688L13.5098 7.10793L14.049 8.71878L14.2622 8.42671L14.6839 7.84534Z" fill="url(#paint8_linear_872_2650)"/>
<path d="M10.0622 15.648L9.98208 15.796L9.77012 16.1917C9.73449 16.2586 9.69877 16.3259 9.66305 16.3937L9.55093 16.6096C9.52946 16.6494 9.50865 16.6853 9.49102 16.7256L9.37307 16.9532L9.11523 17.4539C9.32523 17.5899 9.46533 17.8833 9.58843 18.2131C9.6158 17.8937 9.52974 17.5771 9.31537 17.3117C10.4107 17.5231 11.4055 17.3846 12.0125 16.6473C12.0651 16.5811 12.1183 16.5109 12.1682 16.4364C11.9112 16.6768 11.6299 16.7614 11.1455 16.671L11.0908 16.6603C11.9081 16.4294 12.3421 16.154 12.7618 15.6582C12.861 15.5402 12.9617 15.4109 13.0649 15.2661C12.292 15.8582 11.4851 15.9386 10.6866 15.6694L10.0622 15.648Z" fill="url(#paint9_linear_872_2650)"/>
<path d="M10.428 14.5355L10.6554 14.1361L11.0312 13.4793C11.214 13.1631 11.4006 12.8475 11.5917 12.5286C11.7826 12.2098 11.9774 11.8915 12.1722 11.5731C12.372 11.2478 12.575 10.9268 12.7818 10.6064C12.9842 10.2892 13.1943 9.97311 13.4 9.66036C13.4752 9.54665 13.5497 9.43677 13.6287 9.32364C13.7581 9.13217 13.8913 8.94125 14.0246 8.75033L14.0449 8.71823L13.5128 7.1123L13.4827 7.14977C13.4773 7.15605 13.4716 7.16214 13.4656 7.16776C13.2476 7.43197 13.0252 7.69945 12.8093 7.97568C12.589 8.25515 12.3719 8.53901 12.1575 8.83105C11.9771 9.07742 11.8006 9.32435 11.6235 9.57505L11.5194 9.7274C11.3054 10.0429 11.1041 10.3524 10.9241 10.6495C10.7189 10.9858 10.535 11.3095 10.3691 11.6166C10.2614 11.819 10.1588 12.0143 10.0647 12.2032C9.98674 12.3633 9.91193 12.5277 9.83768 12.6883C9.66499 13.0684 9.51143 13.4511 9.37305 13.8362L9.91502 15.4552L10.0205 15.2631L10.2361 14.8764C10.2723 14.8115 10.3084 14.7461 10.3444 14.6803L10.428 14.5355Z" fill="url(#paint10_linear_872_2650)"/>
<path d="M9.35471 13.8879C9.20953 14.2962 9.0848 14.7077 8.98562 15.1228L8.93361 15.35C8.8848 15.2375 8.80637 15.1212 8.71796 15.0115L8.66388 14.9466C8.65472 14.9359 8.64549 14.9253 8.63623 14.9149L8.58032 14.8532L8.52437 14.7943L8.46932 14.7388L8.39051 14.6629L8.31904 14.5971L8.24065 14.5283L8.17016 14.4702C8.5306 15.2013 8.78151 15.9085 8.7365 16.5605C8.48504 16.5743 8.15992 16.4526 7.79528 16.2549C7.95223 16.4473 8.09636 16.5832 8.21792 16.6783L8.27239 16.7195C8.28119 16.7259 8.28984 16.732 8.29836 16.738L8.34762 16.7711L8.39315 16.7994L8.43472 16.8231L8.47213 16.8427L8.50518 16.8584L8.53362 16.8706C8.53797 16.8724 8.54213 16.8741 8.54606 16.8756C8.24051 16.8499 7.90189 16.9785 7.55209 17.1557L7.4351 17.2165L7.31747 17.2799C7.92011 17.1306 8.39521 17.1068 8.71214 17.2313C8.55649 17.5259 8.39981 17.8276 8.2422 18.1356L8.00509 18.6025C7.6484 19.3096 7.28714 20.0478 6.92223 20.811L6.67842 21.3235C6.59698 21.4955 6.51536 21.6686 6.43359 21.8429C6.60055 21.8206 6.71217 21.724 6.78686 21.5868L7.06295 21.0014L7.31703 20.4751L7.64171 19.8142L7.92849 19.2396L8.21263 18.6781L8.48257 18.1515L8.85718 17.4313L9.12317 16.9272L9.21458 16.7554L9.29339 16.6099L9.36508 16.4735L9.47432 16.2717L9.69838 15.8603C9.73635 15.7908 9.7746 15.721 9.81323 15.6505L9.91916 15.4596L9.91973 15.4557L9.37785 13.8367C9.37086 13.8487 9.36585 13.8592 9.36132 13.8703L9.35471 13.8879Z" fill="url(#paint11_linear_872_2650)"/>
<path d="M14.1523 8.86672L14.0679 8.99074C14.0112 9.07597 13.9528 9.16094 13.8948 9.24713L13.6167 9.6664L13.4183 9.96453L13.3679 10.0417C13.2926 10.1573 13.2168 10.2748 13.1404 10.3942L12.9083 10.7577C12.7542 11.0001 12.5991 11.2498 12.4406 11.5086L12.3211 11.7043C12.1313 12.0156 11.9353 12.3416 11.7383 12.6751L11.5114 13.0623C11.397 13.2582 11.2813 13.4577 11.1646 13.6628C11.0954 13.7835 11.026 13.9062 10.956 14.0304L10.6111 14.6456L10.5055 14.8372L10.2909 15.2277C10.2188 15.3594 10.1462 15.4925 10.0736 15.6268C10.0686 15.6339 10.0636 15.6409 10.0625 15.6486L10.6869 15.6701C10.676 15.6645 10.6646 15.6628 10.6498 15.6568C11.3997 15.6732 12.4571 15.2672 13.1863 14.6804C13.5221 14.4101 13.8391 14.0824 14.1465 13.6872C14.3767 13.3935 14.5966 13.0633 14.8189 12.6906C15.0105 12.3679 15.2027 12.0142 15.3918 11.6288C15.2111 11.6919 15.0069 11.7282 14.7866 11.7426L14.6687 11.7487C14.6426 11.7501 14.6166 11.7497 14.5895 11.7498L14.5477 11.7505C15.273 11.588 15.7786 11.1438 16.1833 10.564C15.9861 10.6597 15.6688 10.7769 15.306 10.8055C15.2585 10.8102 15.2078 10.8105 15.1571 10.8109C15.1495 10.8098 15.1416 10.8103 15.1327 10.8102L15.1183 10.8091C15.3695 10.7446 15.5879 10.6637 15.783 10.5559C15.8111 10.5418 15.8377 10.5258 15.8638 10.5091L15.9028 10.4838C15.9629 10.4458 16.0197 10.4036 16.0767 10.3612L16.1828 10.2754C16.2632 10.2054 16.3409 10.1272 16.4122 10.0402L16.4578 9.9874C16.465 9.97859 16.4719 9.96969 16.4785 9.96022L16.5359 9.87922C16.5451 9.86609 16.5539 9.85315 16.5624 9.84003C16.6703 9.68534 16.7615 9.54312 16.8386 9.41375L16.8707 9.35912C16.9124 9.2873 16.9492 9.22254 16.9816 9.16104L17.0195 9.08864L17.077 8.9722C17.0888 8.94805 17.0997 8.92501 17.1091 8.90302L17.1259 8.86392L17.1544 8.79323C17.1628 8.7714 17.1701 8.75136 17.1763 8.73324L17.1846 8.70752C17.1674 8.718 17.1486 8.72823 17.1283 8.73708L17.0966 8.74917C16.8726 8.84104 16.501 8.90344 16.2071 8.91487C16.2032 8.9143 16.1994 8.91374 16.195 8.917L16.1364 8.91734C16.1261 8.91771 16.1156 8.91834 16.1051 8.91939L16.1214 8.91399L14.16 8.84057C14.1616 8.85639 14.1567 8.86346 14.1523 8.86672Z" fill="url(#paint12_linear_872_2650)"/>
<path d="M16.8986 5.28564C16.8286 5.36499 16.7561 5.44835 16.6814 5.53554L16.5289 5.71503L16.3704 5.90453L16.1787 6.13592C16.1746 6.14123 16.1709 6.14673 16.1673 6.15272C16.058 6.28674 15.9459 6.42714 15.8302 6.57485L15.6539 6.80196C15.624 6.84076 15.5939 6.88004 15.5636 6.91982L15.3104 7.25465L15.1449 7.47645C15.061 7.58949 14.9756 7.70585 14.8885 7.82614L14.801 7.94777C14.713 8.06851 14.6247 8.19275 14.5349 8.32036L14.3531 8.58004L14.166 8.84848L16.1274 8.92191C16.7263 8.74476 17.0123 8.54896 17.3063 8.24522C17.365 8.18368 17.4244 8.11785 17.4841 8.04934L17.544 7.97999C17.7878 7.70005 18.0322 7.38903 18.2537 7.07466C18.4697 6.77116 18.6661 6.46868 18.8193 6.19495C18.9192 6.01863 19.0016 5.85534 19.066 5.70888C19.12 5.58038 19.165 5.45839 19.2059 5.33965L19.0025 5.34321L18.7932 5.34538L18.5802 5.34612L18.3655 5.34536C18.3295 5.3451 18.2937 5.34478 18.258 5.3444L18.0443 5.34127L17.8337 5.33648C17.799 5.33555 17.7645 5.33454 17.7303 5.33346L17.5283 5.32608C17.4952 5.3247 17.4625 5.32325 17.4302 5.32172L17.2412 5.31161C17.1187 5.30425 17.0036 5.29562 16.8986 5.28564Z" fill="url(#paint13_linear_872_2650)"/>
</g>
<defs>
<linearGradient id="paint0_linear_872_2650" x1="5.24949" y1="3.88982" x2="8.50215" y2="2.82914" gradientUnits="userSpaceOnUse">
<stop stop-color="#F69923"/>
<stop offset="0.3123" stop-color="#F79A23"/>
<stop offset="0.8383" stop-color="#E97826"/>
</linearGradient>
<linearGradient id="paint1_linear_872_2650" x1="4.99253" y1="21.7385" x2="8.98344" y2="5.89427" gradientUnits="userSpaceOnUse">
<stop offset="0.3233" stop-color="#9E2064"/>
<stop offset="0.6302" stop-color="#C92037"/>
<stop offset="0.7514" stop-color="#CD2335"/>
<stop offset="1" stop-color="#E97826"/>
</linearGradient>
<linearGradient id="paint2_linear_872_2650" x1="8.57149" y1="21.2393" x2="11.1932" y2="8.47087" gradientUnits="userSpaceOnUse">
<stop stop-color="#282662"/>
<stop offset="0.0954839" stop-color="#662E8D"/>
<stop offset="0.7882" stop-color="#9F2064"/>
<stop offset="0.9487" stop-color="#CD2032"/>
</linearGradient>
<linearGradient id="paint3_linear_872_2650" x1="5.67709" y1="20.8722" x2="11.4799" y2="6.7616" gradientUnits="userSpaceOnUse">
<stop offset="0.3233" stop-color="#9E2064"/>
<stop offset="0.6302" stop-color="#C92037"/>
<stop offset="0.7514" stop-color="#CD2335"/>
<stop offset="1" stop-color="#E97826"/>
</linearGradient>
<linearGradient id="paint4_linear_872_2650" x1="7.12763" y1="20.2202" x2="11.8003" y2="14.3985" gradientUnits="userSpaceOnUse">
<stop stop-color="#282662"/>
<stop offset="0.0954839" stop-color="#662E8D"/>
<stop offset="0.7882" stop-color="#9F2064"/>
<stop offset="0.9487" stop-color="#CD2032"/>
</linearGradient>
<linearGradient id="paint5_linear_872_2650" x1="7.4861" y1="23.3338" x2="11.7525" y2="3.1384" gradientUnits="userSpaceOnUse">
<stop offset="0.3233" stop-color="#9E2064"/>
<stop offset="0.6302" stop-color="#C92037"/>
<stop offset="0.7514" stop-color="#CD2335"/>
<stop offset="1" stop-color="#E97826"/>
</linearGradient>
<linearGradient id="paint6_linear_872_2650" x1="6.25819" y1="28.3259" x2="10.2732" y2="4.9538" gradientUnits="userSpaceOnUse">
<stop offset="0.3233" stop-color="#9E2064"/>
<stop offset="0.6302" stop-color="#C92037"/>
<stop offset="0.7514" stop-color="#CD2335"/>
<stop offset="1" stop-color="#E97826"/>
</linearGradient>
<linearGradient id="paint7_linear_872_2650" x1="16.9037" y1="4.30577" x2="21.1253" y2="3.18057" gradientUnits="userSpaceOnUse">
<stop stop-color="#F69923"/>
<stop offset="0.3123" stop-color="#F79A23"/>
<stop offset="0.8383" stop-color="#E97826"/>
</linearGradient>
<linearGradient id="paint8_linear_872_2650" x1="10.6797" y1="22.4513" x2="19.2694" y2="6.7139" gradientUnits="userSpaceOnUse">
<stop offset="0.3233" stop-color="#9E2064"/>
<stop offset="0.6302" stop-color="#C92037"/>
<stop offset="0.7514" stop-color="#CD2335"/>
<stop offset="1" stop-color="#E97826"/>
</linearGradient>
<linearGradient id="paint9_linear_872_2650" x1="8.30088" y1="19.0746" x2="12.1798" y2="12.5598" gradientUnits="userSpaceOnUse">
<stop stop-color="#282662"/>
<stop offset="0.0954839" stop-color="#662E8D"/>
<stop offset="0.7882" stop-color="#9F2064"/>
<stop offset="0.9487" stop-color="#CD2032"/>
</linearGradient>
<linearGradient id="paint10_linear_872_2650" x1="9.80374" y1="21.3367" x2="18.5144" y2="6.59163" gradientUnits="userSpaceOnUse">
<stop offset="0.3233" stop-color="#9E2064"/>
<stop offset="0.6302" stop-color="#C92037"/>
<stop offset="0.7514" stop-color="#CD2335"/>
<stop offset="1" stop-color="#E97826"/>
</linearGradient>
<linearGradient id="paint11_linear_872_2650" x1="7.72508" y1="20.0259" x2="12.5029" y2="12.9175" gradientUnits="userSpaceOnUse">
<stop stop-color="#282662"/>
<stop offset="0.0954839" stop-color="#662E8D"/>
<stop offset="0.7882" stop-color="#9F2064"/>
<stop offset="0.9487" stop-color="#CD2032"/>
</linearGradient>
<linearGradient id="paint12_linear_872_2650" x1="7.58798" y1="21.3503" x2="17.6297" y2="5.25986" gradientUnits="userSpaceOnUse">
<stop offset="0.3233" stop-color="#9E2064"/>
<stop offset="0.6302" stop-color="#C92037"/>
<stop offset="0.7514" stop-color="#CD2335"/>
<stop offset="1" stop-color="#E97826"/>
</linearGradient>
<linearGradient id="paint13_linear_872_2650" x1="7.62098" y1="14.9744" x2="14.052" y2="4.37544" gradientUnits="userSpaceOnUse">
<stop offset="0.3233" stop-color="#9E2064"/>
<stop offset="0.6302" stop-color="#C92037"/>
<stop offset="0.7514" stop-color="#CD2335"/>
<stop offset="1" stop-color="#E97826"/>
</linearGradient>
<clipPath id="clip0_872_2650">
<rect width="24" height="24" fill="white"/>
</clipPath>
</defs>
</svg>
