<svg width="24" height="24" viewBox="0 0 24 24" fill="none" xmlns="http://www.w3.org/2000/svg">
<g clip-path="url(#clip0_872_2690)">
<path d="M18.375 0H5.625C2.5184 0 0 2.5184 0 5.625V18.375C0 21.4816 2.5184 24 5.625 24H18.375C21.4816 24 24 21.4816 24 18.375V5.625C24 2.5184 21.4816 0 18.375 0Z" fill="#F4F2ED"/>
<path d="M16.1988 9.13174L16.1919 9.1288C16.1881 9.12734 16.1842 9.12587 16.1807 9.12245C16.1751 9.11642 16.1709 9.10919 16.1686 9.10131C16.1662 9.09342 16.1657 9.0851 16.167 9.07697L16.545 6.76593L18.3177 8.53907L16.4741 9.32343C16.469 9.32549 16.4635 9.32649 16.458 9.32636H16.4507C16.4482 9.3249 16.4457 9.32294 16.4408 9.31805C16.3722 9.24166 16.2902 9.17851 16.1988 9.13174ZM18.77 8.99091L20.6654 10.8863C21.0591 11.2805 21.2561 11.477 21.328 11.7049C21.3387 11.7386 21.3475 11.7724 21.3544 11.8071L16.8247 9.88875C16.8223 9.88772 16.8199 9.88678 16.8174 9.88575C16.7993 9.87844 16.7782 9.87009 16.7782 9.85153C16.7782 9.83297 16.7998 9.82416 16.8179 9.81684L16.8237 9.81441L18.77 8.99091ZM21.2771 12.4154C21.1793 12.5992 20.9887 12.79 20.6659 13.1132L18.5289 15.2497L15.7651 14.6741L15.7504 14.6712C15.7259 14.6673 15.7 14.6629 15.7 14.6408C15.6895 14.5268 15.6557 14.4162 15.6006 14.3158C15.5454 14.2155 15.4702 14.1276 15.3797 14.0575C15.3684 14.0463 15.3714 14.0287 15.3748 14.0125C15.3748 14.0101 15.3748 14.0077 15.3758 14.0057L15.8956 10.8144L15.8976 10.8037C15.9006 10.7792 15.9049 10.7509 15.9269 10.7509C16.0383 10.737 16.1458 10.7011 16.2432 10.6452C16.3406 10.5894 16.4259 10.5148 16.4942 10.4257C16.4986 10.4208 16.5015 10.4153 16.5074 10.4124C16.5231 10.4051 16.5416 10.4124 16.5577 10.4193L21.2767 12.4154H21.2771ZM18.0375 15.7411L14.5235 19.2551L15.125 15.5583L15.1259 15.5533C15.1265 15.5484 15.1274 15.5436 15.1289 15.5392C15.1338 15.5274 15.1464 15.5226 15.1587 15.5177L15.1645 15.5153C15.2962 15.459 15.4128 15.3724 15.5045 15.2624C15.5162 15.2487 15.5303 15.2355 15.5484 15.2331C15.5531 15.2323 15.5579 15.2323 15.5626 15.2331L18.0369 15.7417L18.0375 15.7411ZM13.7797 19.9989L13.3836 20.395L9.00456 14.0662C9.00298 14.064 9.00135 14.0617 8.99967 14.0594C8.99283 14.0501 8.9855 14.0408 8.98696 14.0301C8.98745 14.0223 8.99234 14.0154 8.99772 14.0095L9.00261 14.0033C9.01582 13.9837 9.02706 13.9641 9.03928 13.9431L9.04907 13.9259L9.05053 13.9245C9.05737 13.9128 9.06373 13.9015 9.07547 13.8952C9.08574 13.8903 9.09992 13.8923 9.11117 13.8947L13.9626 14.8952C13.9762 14.8973 13.9889 14.9028 13.9998 14.9113C14.0062 14.9177 14.0076 14.9245 14.0091 14.9323C14.0429 15.0604 14.1059 15.1789 14.1931 15.2785C14.2803 15.3782 14.3893 15.4564 14.5118 15.5069C14.5254 15.5138 14.5195 15.5289 14.5132 15.5451C14.5101 15.5521 14.5076 15.5595 14.5058 15.5671C14.4447 15.9387 13.9206 19.1358 13.7797 19.9989ZM12.9523 20.8258C12.6604 21.1148 12.4882 21.2678 12.2936 21.3295C12.1017 21.3902 11.8958 21.3902 11.7038 21.3295C11.476 21.2572 11.279 21.0606 10.8853 20.6664L6.48765 16.2688L7.63633 14.4873C7.6417 14.4786 7.64708 14.4707 7.65589 14.4643C7.66811 14.4555 7.68572 14.4594 7.70039 14.4643C7.96404 14.5439 8.24711 14.5296 8.50138 14.4237C8.51458 14.4188 8.52778 14.4155 8.53806 14.4247C8.54318 14.4294 8.54778 14.4347 8.55174 14.4404L12.9523 20.8263V20.8258ZM6.06368 15.8448L5.05487 14.836L7.04707 13.9861C7.05217 13.9838 7.05766 13.9827 7.06321 13.9827C7.07984 13.9827 7.08962 13.9993 7.09842 14.0145C7.11845 14.0453 7.13965 14.0753 7.16199 14.1044L7.16835 14.1123C7.17422 14.1205 7.17031 14.1289 7.16444 14.1368L6.06417 15.8448H6.06368ZM4.6084 14.3895L3.3321 13.1132C3.11498 12.8961 2.95752 12.7387 2.84798 12.6032L6.72874 13.4081C6.73361 13.409 6.7385 13.4098 6.7434 13.4106C6.76736 13.4144 6.79377 13.4188 6.79377 13.4413C6.79377 13.4658 6.76492 13.477 6.74047 13.4863L6.72922 13.4912L4.6084 14.3895ZM2.625 11.9469C2.62942 11.8647 2.64421 11.7834 2.66901 11.7049C2.74138 11.477 2.93797 11.2805 3.3321 10.8863L4.96538 9.25301C5.71739 10.3444 6.47144 11.4344 7.22752 12.523C7.24072 12.5406 7.25539 12.5602 7.24024 12.5748C7.16884 12.6535 7.09745 12.7396 7.04707 12.8331C7.04161 12.8451 7.0332 12.8555 7.02262 12.8633C7.01627 12.8673 7.00943 12.8658 7.00208 12.8643H7.00111L2.625 11.9465V11.9469ZM5.40255 8.81584L7.59867 6.61972C7.80503 6.71018 8.55615 7.02755 9.22804 7.31117C9.73659 7.52633 10.2002 7.72193 10.3459 7.78551C10.3606 7.79138 10.3738 7.79724 10.3801 7.81192C10.384 7.82072 10.3821 7.83196 10.3801 7.84125C10.3454 7.99978 10.3506 8.16445 10.3952 8.32048C10.4398 8.47652 10.5225 8.61901 10.6358 8.73516C10.6506 8.74983 10.6358 8.77086 10.6232 8.78895L10.6163 8.79922L8.38646 12.253C8.38059 12.2629 8.37521 12.2711 8.36543 12.2775C8.3537 12.2848 8.33707 12.2814 8.32338 12.278C8.23665 12.2553 8.14749 12.2431 8.05785 12.2418C7.97766 12.2418 7.89061 12.2565 7.80259 12.2726H7.8021C7.79232 12.2741 7.78352 12.276 7.77569 12.2702C7.76706 12.2632 7.75962 12.2547 7.75369 12.2452L5.40255 8.81584ZM8.0422 6.17619L10.8853 3.33311C11.279 2.93947 11.476 2.74239 11.7038 2.67051C11.8958 2.60983 12.1017 2.60983 12.2936 2.67051C12.5215 2.74239 12.7186 2.93947 13.1122 3.33311L13.7284 3.94926L11.7063 7.08085C11.7013 7.08997 11.6945 7.09795 11.6863 7.10432C11.674 7.11263 11.657 7.10921 11.6422 7.10432C11.4829 7.05594 11.314 7.04713 11.1504 7.07866C10.9868 7.11019 10.8334 7.18109 10.7033 7.28526C10.6901 7.29894 10.6706 7.29113 10.6539 7.28378C10.3899 7.16888 8.33609 6.30089 8.0422 6.17619ZM14.1578 4.3786L16.0247 6.24563L15.5749 9.03198V9.03932C15.5744 9.04567 15.5731 9.05193 15.5709 9.0579C15.5661 9.06768 15.5562 9.06964 15.5465 9.07257C15.4503 9.10171 15.3597 9.14683 15.2785 9.20607C15.275 9.20856 15.2718 9.21134 15.2687 9.21438C15.2633 9.22025 15.258 9.22563 15.2492 9.2266C15.242 9.22683 15.2348 9.22567 15.2281 9.22318L12.3831 8.01436L12.3777 8.01191C12.3596 8.00458 12.3382 7.99578 12.3382 7.9772C12.3214 7.81866 12.2696 7.66582 12.1866 7.52976C12.1729 7.50727 12.1577 7.48379 12.1694 7.4608L14.1578 4.3786ZM12.2349 8.58698L14.9019 9.71662C14.9167 9.72347 14.9328 9.72975 14.9392 9.74494C14.9417 9.75403 14.9417 9.76369 14.9392 9.77278C14.9313 9.81197 14.9244 9.85641 14.9244 9.90141V9.97622C14.9244 9.99487 14.9054 10.0027 14.8878 10.01L14.8824 10.0119C14.4599 10.1924 8.95077 12.5416 8.94246 12.5416C8.93415 12.5416 8.92535 12.5416 8.91703 12.5333C8.90236 12.5186 8.91703 12.4981 8.93023 12.4794C8.93256 12.4762 8.93485 12.473 8.93708 12.4697L11.1288 9.07599L11.1327 9.07013C11.1455 9.04958 11.1601 9.02661 11.1835 9.02661L11.2056 9.03003C11.2554 9.03687 11.2995 9.04323 11.3439 9.04323C11.6765 9.04323 11.9845 8.88137 12.1703 8.60459C12.1748 8.5972 12.1805 8.59059 12.187 8.58503C12.2002 8.57525 12.2197 8.58014 12.2349 8.58698ZM9.18061 13.0785L15.1856 10.5176C15.1856 10.5176 15.1944 10.5176 15.2027 10.5259C15.2355 10.5587 15.2633 10.5806 15.2902 10.6012L15.3035 10.6095C15.3157 10.6163 15.3279 10.6242 15.3289 10.6369C15.3289 10.6418 15.3289 10.6448 15.3279 10.6492L14.8134 13.8091L14.8115 13.8218C14.8081 13.8462 14.8046 13.8742 14.7817 13.8742C14.6445 13.8833 14.5117 13.9259 14.3947 13.9981C14.2778 14.0703 14.1801 14.1698 14.1103 14.2883L14.1078 14.2922C14.1009 14.3034 14.0947 14.3142 14.0834 14.3201C14.0731 14.325 14.0599 14.323 14.0492 14.3206L9.26032 13.3328C9.25542 13.3318 9.18598 13.079 9.18061 13.0785Z" fill="url(#paint0_radial_872_2690)"/>
</g>
<defs>
<radialGradient id="paint0_radial_872_2690" cx="0" cy="0" r="1" gradientUnits="userSpaceOnUse" gradientTransform="translate(1.99617 11.7354) rotate(90) scale(18.7294 21.6237)">
<stop stop-color="#20C6B7"/>
<stop offset="1" stop-color="#4D9ABF"/>
</radialGradient>
<clipPath id="clip0_872_2690">
<rect width="24" height="24" fill="white"/>
</clipPath>
</defs>
</svg>
