<svg width="24" height="24" viewBox="0 0 24 24" fill="none" xmlns="http://www.w3.org/2000/svg">
<g clip-path="url(#clip0_872_2696)">
<path d="M18.375 0H5.625C2.5184 0 0 2.5184 0 5.625V18.375C0 21.4816 2.5184 24 5.625 24H18.375C21.4816 24 24 21.4816 24 18.375V5.625C24 2.5184 21.4816 0 18.375 0Z" fill="#009639"/>
<path d="M18.3129 19.9687C17.8824 19.9687 17.4585 19.8012 17.1419 19.484L7.34287 9.68503V18.3131C7.34287 19.2277 6.60172 19.9687 5.68706 19.9687C4.77306 19.9687 4.03125 19.2277 4.03125 18.3131V5.6876C4.03125 5.01739 4.43527 4.41407 5.05388 4.15777C5.67183 3.90081 6.38449 4.04253 6.85805 4.51672L16.6571 14.3156V5.6876C16.6571 4.77302 17.3983 4.03194 18.3129 4.03194C19.2277 4.03194 19.9688 4.77302 19.9688 5.6876V18.3131C19.9688 18.9826 19.5647 19.5866 18.9461 19.8429C18.7415 19.9277 18.5269 19.9687 18.3129 19.9687Z" fill="white"/>
</g>
<defs>
<clipPath id="clip0_872_2696">
<rect width="24" height="24" fill="white"/>
</clipPath>
</defs>
</svg>
