<svg width="24" height="24" viewBox="0 0 24 24" fill="none" xmlns="http://www.w3.org/2000/svg">
<g clip-path="url(#clip0_872_2723)">
<path d="M18.375 0H5.625C2.5184 0 0 2.5184 0 5.625V18.375C0 21.4816 2.5184 24 5.625 24H18.375C21.4816 24 24 21.4816 24 18.375V5.625C24 2.5184 21.4816 0 18.375 0Z" fill="black"/>
<path d="M5.18812 14.4271C5.07931 14.4272 4.97376 14.3899 4.88916 14.3215C4.80455 14.253 4.74602 14.1576 4.72333 14.0512C4.70064 13.9448 4.71519 13.8338 4.76453 13.7367C4.81388 13.6398 4.89503 13.5626 4.99442 13.5183L7.07739 12.5909C7.13435 12.5655 7.19577 12.5516 7.25812 12.55C7.32046 12.5484 7.38253 12.559 7.44077 12.5813C7.499 12.6037 7.55227 12.6372 7.59753 12.6801C7.64279 12.723 7.67915 12.7745 7.70454 12.8314C7.72994 12.8884 7.74386 12.9498 7.74551 13.0121C7.74717 13.0745 7.73653 13.1366 7.7142 13.1948C7.69186 13.2531 7.65828 13.3063 7.61537 13.3516C7.57246 13.3968 7.52104 13.4332 7.46407 13.4586L5.3811 14.386C5.32041 14.4131 5.25464 14.4272 5.18812 14.4271Z" fill="white"/>
<path d="M4.22523 16.9357C4.11641 16.9358 4.01087 16.8985 3.92627 16.83C3.84166 16.7616 3.78312 16.6661 3.76044 16.5597C3.73775 16.4532 3.7523 16.3422 3.80165 16.2453C3.85099 16.1483 3.93214 16.0712 4.03152 16.0269L6.11412 15.0995C6.22918 15.0482 6.35989 15.0447 6.47751 15.0898C6.59512 15.1349 6.69 15.2249 6.74128 15.34C6.79256 15.455 6.79603 15.5858 6.75093 15.7033C6.70584 15.821 6.61586 15.9159 6.50082 15.9671L4.41823 16.8945C4.35755 16.9217 4.29176 16.9358 4.22523 16.9357Z" fill="white"/>
<path d="M17.5983 8.90134C17.4894 8.90145 17.3838 8.86413 17.2992 8.79564C17.2145 8.72716 17.156 8.63165 17.1334 8.52515C17.1108 8.41865 17.1255 8.30762 17.175 8.21065C17.2245 8.11368 17.3058 8.03667 17.4053 7.99252L19.4886 7.06515C19.5456 7.03981 19.607 7.02594 19.6694 7.02433C19.7317 7.02272 19.7937 7.03339 19.8519 7.05576C19.9101 7.07812 19.9634 7.11173 20.0086 7.15467C20.0538 7.19761 20.0901 7.24903 20.1154 7.30599C20.1408 7.36296 20.1546 7.42437 20.1562 7.48669C20.1579 7.54903 20.1472 7.61106 20.1248 7.66926C20.1025 7.72747 20.0688 7.78069 20.0259 7.82591C19.983 7.87113 19.9316 7.90744 19.8746 7.93278L17.7913 8.86015C17.7306 8.88744 17.6648 8.90148 17.5983 8.90134Z" fill="white"/>
<path d="M16.6355 11.4099C16.5265 11.41 16.421 11.3727 16.3363 11.3042C16.2516 11.2357 16.1931 11.1402 16.1706 11.0337C16.1479 10.9272 16.1626 10.8162 16.2121 10.7192C16.2616 10.6222 16.343 10.5453 16.4424 10.5011L18.5251 9.57375C18.582 9.54834 18.6434 9.53446 18.7057 9.53287C18.7681 9.53128 18.8301 9.54196 18.8884 9.56437C18.9465 9.58668 18.9997 9.62034 19.0449 9.66328C19.0902 9.70621 19.1265 9.75759 19.1518 9.81459C19.1772 9.8715 19.1911 9.9329 19.1927 9.99525C19.1943 10.0576 19.1836 10.1197 19.1613 10.1779C19.1389 10.236 19.1052 10.2892 19.0623 10.3345C19.0193 10.3797 18.968 10.416 18.911 10.4413L16.8284 11.3687C16.7677 11.396 16.7019 11.41 16.6355 11.4099Z" fill="white"/>
<path d="M11.9164 19.3243C10.2162 19.3223 8.57029 18.7263 7.26315 17.6391C7.16648 17.5588 7.10561 17.4434 7.09387 17.3182C7.08214 17.1931 7.1205 17.0684 7.20053 16.9714C7.28057 16.8745 7.39577 16.8133 7.52089 16.8011C7.64601 16.7889 7.77085 16.8269 7.86804 16.9066C8.78168 17.6624 9.88818 18.148 11.0629 18.3089C12.2376 18.4698 13.4339 18.2996 14.5171 17.8173C15.6004 17.3352 16.5274 16.5602 17.194 15.5795C17.8606 14.599 18.2401 13.4518 18.29 12.2672C18.2911 12.2043 18.3049 12.1424 18.3307 12.0851C18.3563 12.0278 18.3935 11.9764 18.4397 11.9339C18.4859 11.8914 18.5403 11.8587 18.5995 11.8379C18.6588 11.817 18.7216 11.8083 18.7843 11.8126C18.9101 11.8179 19.0286 11.873 19.1138 11.9658C19.199 12.0586 19.2439 12.1814 19.2385 12.3072C19.1558 14.1945 18.3487 15.9771 16.9847 17.2842C15.6208 18.5913 13.8054 19.322 11.9164 19.3243Z" fill="#EE0000"/>
<path d="M5.09267 12.1745L5.07077 12.1741C4.94491 12.1684 4.82648 12.1129 4.74151 12.0199C4.65655 11.9268 4.61201 11.8038 4.61767 11.678C4.67861 10.3186 5.11734 9.00313 5.88459 7.87934C6.65184 6.75554 7.71721 5.86792 8.96106 5.31615C10.2049 4.76438 11.5779 4.57033 12.926 4.7558C14.274 4.94126 15.5436 5.49889 16.5922 6.36606C16.6891 6.44646 16.7501 6.562 16.7618 6.68733C16.7736 6.81264 16.7352 6.93752 16.655 7.03453C16.5748 7.13154 16.4594 7.19277 16.334 7.20478C16.2088 7.21679 16.0838 7.17861 15.9866 7.0986C15.0742 6.34384 13.9694 5.85846 12.7963 5.69698C11.6233 5.53551 10.4284 5.70435 9.34598 6.18452C8.26357 6.6647 7.3365 7.43719 6.66893 8.41521C6.00135 9.39319 5.61972 10.5381 5.5669 11.721C5.56131 11.8431 5.50892 11.9583 5.42061 12.0428C5.33231 12.1271 5.21486 12.1744 5.09267 12.1745Z" fill="#EE0000"/>
</g>
<defs>
<clipPath id="clip0_872_2723">
<rect width="24" height="24" fill="white"/>
</clipPath>
</defs>
</svg>
