<svg width="24" height="24" viewBox="0 0 24 24" fill="none" xmlns="http://www.w3.org/2000/svg">
<g clip-path="url(#clip0_872_2731)">
<path d="M18.375 0H5.625C2.5184 0 0 2.5184 0 5.625V18.375C0 21.4816 2.5184 24 5.625 24H18.375C21.4816 24 24 21.4816 24 18.375V5.625C24 2.5184 21.4816 0 18.375 0Z" fill="#F4F2ED"/>
<path fill-rule="evenodd" clip-rule="evenodd" d="M18.8139 3.75H5.12527C4.26575 3.75 3.5625 4.45325 3.5625 5.31277V8.98817H7.35367V8.38622C7.35367 7.91883 7.73278 7.54117 8.19871 7.54117H15.7376C16.205 7.54117 16.5827 7.92028 16.5827 8.38622V8.98817H20.3738V5.31277C20.3738 4.45325 19.6706 3.75 18.811 3.75H18.8139Z" fill="#ED1844"/>
<path fill-rule="evenodd" clip-rule="evenodd" d="M16.6432 15.5719C16.6432 16.0393 16.2641 16.417 15.7982 16.417H8.25926C7.79187 16.417 7.41421 16.0379 7.41421 15.5719V14.97H3.62305V18.6453C3.62305 19.5049 4.32629 20.2082 5.18581 20.2082H18.8746C19.7341 20.2082 20.4373 19.5049 20.4373 18.6453V14.97H16.6461L16.6432 15.5719Z" fill="#ED1844"/>
<path fill-rule="evenodd" clip-rule="evenodd" d="M3.62109 10.0879V13.879H7.38332V10.0879H3.62109Z" fill="#ED1844"/>
<path fill-rule="evenodd" clip-rule="evenodd" d="M16.6426 10.0879V13.879H20.4049V10.0879H16.6426Z" fill="#ED1844"/>
</g>
<defs>
<clipPath id="clip0_872_2731">
<rect width="24" height="24" fill="white"/>
</clipPath>
</defs>
</svg>
