<svg width="24" height="24" viewBox="0 0 24 24" fill="none" xmlns="http://www.w3.org/2000/svg">
<g clip-path="url(#clip0_872_2807)">
<path d="M18.375 0H5.625C2.5184 0 0 2.5184 0 5.625V18.375C0 21.4816 2.5184 24 5.625 24H18.375C21.4816 24 24 21.4816 24 18.375V5.625C24 2.5184 21.4816 0 18.375 0Z" fill="#F4F2ED"/>
<path fill-rule="evenodd" clip-rule="evenodd" d="M3.41311 19.0545C3.29478 19.0581 3.17721 19.0343 3.06948 18.9853C2.96176 18.9362 2.86676 18.863 2.79182 18.7713C2.71689 18.6721 2.66533 18.5572 2.64099 18.4353C2.61664 18.3133 2.62014 18.1874 2.65122 18.067L5.46109 5.79252C5.52349 5.5381 5.6671 5.31093 5.87018 5.14542C6.07325 4.97992 6.32471 4.8851 6.58651 4.87532H20.5869C20.7053 4.87192 20.8228 4.89568 20.9304 4.94477C21.0382 4.99387 21.1332 5.06698 21.2082 5.15852C21.2831 5.25778 21.3347 5.37266 21.359 5.4946C21.3833 5.61655 21.3799 5.74241 21.3488 5.86283L18.537 18.138C18.4746 18.3924 18.3309 18.6196 18.1279 18.7851C17.9248 18.9506 17.6734 19.0454 17.4115 19.0552H3.41311V19.0545Z" fill="url(#paint0_linear_872_2807)"/>
<path fill-rule="evenodd" clip-rule="evenodd" d="M6.58698 5.03298H20.5874C20.6855 5.02897 20.7831 5.04863 20.8719 5.09029C20.9608 5.13195 21.0383 5.19439 21.0979 5.27234C21.1575 5.35029 21.1975 5.44144 21.2144 5.53811C21.2314 5.63476 21.2248 5.73408 21.1953 5.82767L18.3835 18.1022C18.3281 18.3212 18.2038 18.5167 18.0288 18.6598C17.854 18.8029 17.6377 18.8859 17.412 18.8968H3.41358C3.31552 18.9008 3.21795 18.8813 3.12909 18.8395C3.04024 18.7979 2.96272 18.7355 2.9031 18.6575C2.84347 18.5796 2.8035 18.4883 2.78654 18.3917C2.76958 18.295 2.77615 18.1958 2.80568 18.1022L5.61755 5.82767C5.67275 5.60887 5.79674 5.41357 5.97125 5.27051C6.14577 5.12745 6.3616 5.04419 6.58698 5.03298Z" fill="url(#paint1_linear_872_2807)"/>
<path fill-rule="evenodd" clip-rule="evenodd" d="M12.0275 15.6768H15.4325C15.6253 15.6849 15.8075 15.7673 15.9411 15.9066C16.0747 16.046 16.1494 16.2316 16.1494 16.4246C16.1494 16.6176 16.0747 16.8032 15.9411 16.9426C15.8075 17.0819 15.6253 17.1643 15.4325 17.1724H12.0275C11.8346 17.1643 11.6524 17.0819 11.5188 16.9426C11.3852 16.8032 11.3105 16.6176 11.3105 16.4246C11.3105 16.2316 11.3852 16.046 11.5188 15.9066C11.6524 15.7673 11.8346 15.6849 12.0275 15.6768Z" fill="#2C5591"/>
<path fill-rule="evenodd" clip-rule="evenodd" d="M14.2352 12.3521C14.1377 12.5161 14.002 12.6539 13.8395 12.7539L7.52014 17.2897C7.34416 17.4041 7.13096 17.4467 6.92452 17.4086C6.71809 17.3704 6.53416 17.2545 6.41067 17.0847C6.28718 16.915 6.23357 16.7043 6.26087 16.4962C6.28818 16.2881 6.39432 16.0983 6.55741 15.9661L12.2561 11.8393V11.755L8.67569 7.94826C8.5422 7.78767 8.47506 7.58219 8.48797 7.37377C8.50088 7.16535 8.59287 6.96972 8.74516 6.82684C8.89744 6.68396 9.09852 6.60461 9.30734 6.60498C9.51621 6.60536 9.71692 6.68544 9.86871 6.82887L14.1655 11.3995C14.281 11.5282 14.3505 11.6915 14.3631 11.864C14.3756 12.0364 14.3306 12.2081 14.2352 12.3521Z" fill="#2C5591"/>
<path fill-rule="evenodd" clip-rule="evenodd" d="M14.0764 12.1942C13.9794 12.3583 13.8438 12.4961 13.6814 12.5959L7.36408 17.1324C7.18804 17.2444 6.97591 17.2852 6.77089 17.2463C6.56587 17.2075 6.38337 17.0919 6.26056 16.9232C6.13776 16.7545 6.08389 16.5452 6.10993 16.3382C6.13595 16.1312 6.23993 15.9419 6.40067 15.8088L12.1 11.6821V11.597L8.51962 7.78826C8.38488 7.62777 8.31674 7.42176 8.32921 7.21258C8.34169 7.0034 8.43383 6.80694 8.58668 6.6636C8.73954 6.52026 8.9415 6.44092 9.15105 6.4419C9.3606 6.44288 9.56186 6.5241 9.71336 6.66887L14.0095 11.2395C14.1254 11.3684 14.195 11.5323 14.2071 11.7053C14.2193 11.8783 14.1732 12.0504 14.0764 12.1942Z" fill="white"/>
<path fill-rule="evenodd" clip-rule="evenodd" d="M11.9336 15.5886H15.3386C15.5267 15.5886 15.707 15.6633 15.84 15.7963C15.973 15.9292 16.0477 16.1096 16.0477 16.2976C16.0477 16.4856 15.973 16.666 15.84 16.7989C15.707 16.9319 15.5267 17.0066 15.3386 17.0066H11.9336C11.7456 17.0066 11.5652 16.9319 11.4323 16.7989C11.2993 16.666 11.2246 16.4856 11.2246 16.2976C11.2246 16.1096 11.2993 15.9292 11.4323 15.7963C11.5652 15.6633 11.7456 15.5886 11.9336 15.5886Z" fill="white"/>
</g>
<defs>
<linearGradient id="paint0_linear_872_2807" x1="16.9041" y1="16.3458" x2="6.14866" y2="6.73852" gradientUnits="userSpaceOnUse">
<stop stop-color="#5391FE"/>
<stop offset="1" stop-color="#3E6DBF"/>
</linearGradient>
<linearGradient id="paint1_linear_872_2807" x1="6.04201" y1="6.61031" x2="16.6876" y2="16.1774" gradientUnits="userSpaceOnUse">
<stop stop-color="#5391FE"/>
<stop offset="1" stop-color="#3E6DBF"/>
</linearGradient>
<clipPath id="clip0_872_2807">
<rect width="24" height="24" fill="white"/>
</clipPath>
</defs>
</svg>
