<svg width="24" height="24" viewBox="0 0 24 24" fill="none" xmlns="http://www.w3.org/2000/svg">
<g clip-path="url(#clip0_872_2827)">
<path d="M18.375 0H5.625C2.5184 0 0 2.5184 0 5.625V18.375C0 21.4816 2.5184 24 5.625 24H18.375C21.4816 24 24 21.4816 24 18.375V5.625C24 2.5184 21.4816 0 18.375 0Z" fill="#E6522C"/>
<path d="M12.0333 21.375C10.3549 21.375 8.99403 20.2537 8.99403 18.8711H15.0726C15.0726 20.2536 13.7118 21.375 12.0333 21.375ZM17.0531 18.0419H7.01285V16.2213H17.0533L17.0531 18.0419ZM17.0171 15.2843H7.0415C7.00832 15.246 6.97439 15.2082 6.94235 15.1694C5.91461 13.9215 5.67258 13.27 5.43751 12.6061C5.43355 12.5842 6.68372 12.8616 7.57026 13.061C7.57026 13.061 8.02643 13.1665 8.69336 13.2881C8.05301 12.5376 7.6728 11.5833 7.6728 10.608C7.6728 8.46676 9.31506 6.59566 8.72258 5.08329C9.29922 5.13023 9.91603 6.30028 9.95766 8.12972C10.5707 7.28258 10.8273 5.73551 10.8273 4.78696C10.8273 3.80485 11.4743 2.66402 12.1217 2.625C11.5447 3.57601 12.2712 4.39129 12.917 6.41376C13.1592 7.17343 13.1283 8.45187 13.3153 9.26263C13.3774 7.57871 13.6669 5.12174 14.7352 4.27347C14.2639 5.34173 14.8049 6.67841 15.1749 7.32103C15.7719 8.3578 16.1338 9.14331 16.1338 10.6289C16.1338 11.625 15.766 12.5628 15.1457 13.2959C15.8511 13.1635 16.3382 13.0442 16.3382 13.0442L18.6289 12.5973C18.6289 12.5973 18.2962 13.966 17.0171 15.2843Z" fill="white"/>
</g>
<defs>
<clipPath id="clip0_872_2827">
<rect width="24" height="24" fill="white"/>
</clipPath>
</defs>
</svg>
