<svg width="24" height="24" viewBox="0 0 24 24" fill="none" xmlns="http://www.w3.org/2000/svg">
<g clip-path="url(#clip0_872_3265)">
<path d="M18.375 0H5.625C2.5184 0 0 2.5184 0 5.625V18.375C0 21.4816 2.5184 24 5.625 24H18.375C21.4816 24 24 21.4816 24 18.375V5.625C24 2.5184 21.4816 0 18.375 0Z" fill="#F4F2ED"/>
<path d="M7.44586 3.80591L9.65484 7.79115L7.62619 11.4427C7.52907 11.6172 7.4781 11.8134 7.4781 12.013C7.4781 12.2127 7.52907 12.4089 7.62619 12.5833L9.65484 16.2439L7.44586 20.2292C7.0302 20.0231 6.68503 19.6984 6.45406 19.296L2.93768 13.1874C2.73281 12.8308 2.625 12.4266 2.625 12.0153C2.625 11.604 2.73281 11.1998 2.93768 10.8432L6.45406 4.7346C6.68573 4.33392 7.03083 4.01078 7.44586 3.80591Z" fill="url(#paint0_linear_872_3265)"/>
<path opacity="0.7" d="M7.62653 11.4473C7.53023 11.6212 7.4797 11.8166 7.4797 12.0153C7.4797 12.214 7.53023 12.4095 7.62653 12.5833L9.65519 16.244L7.4462 20.2292C7.03055 20.0231 6.68539 19.6984 6.45441 19.296L2.93803 13.1875C2.65852 12.7051 4.22286 12.1281 7.62653 11.4519V11.4473Z" fill="url(#paint1_linear_872_3265)"/>
<path opacity="0.5" d="M7.67117 4.20714L9.65475 7.79115L9.32568 8.36368L7.57651 5.40181C7.07159 4.57681 6.30069 5.00508 5.33594 6.67311L5.4802 6.42516L6.45397 4.7346C6.68324 4.33523 7.02505 4.01222 7.43675 3.80591L7.66667 4.20714H7.67117Z" fill="url(#paint2_linear_872_3265)"/>
<path d="M17.545 4.73463L21.0614 10.8432C21.4807 11.5645 21.4807 12.4661 21.0614 13.1874L17.545 19.296C17.3394 19.6522 17.0438 19.9479 16.6876 20.1537C16.3315 20.3595 15.9276 20.4679 15.5164 20.4682H12L16.3729 12.5834C16.4692 12.4095 16.5198 12.214 16.5198 12.0154C16.5198 11.8166 16.4692 11.6212 16.3729 11.4473L12 3.5625H15.5164C15.9276 3.56276 16.3315 3.6712 16.6876 3.87695C17.0438 4.08268 17.3394 4.37847 17.545 4.73463Z" fill="url(#paint3_linear_872_3265)"/>
<path d="M15.3346 20.4412L11.8633 20.4727L16.0649 12.5473C16.1588 12.3711 16.2079 12.1745 16.2079 11.9748C16.2079 11.7751 16.1588 11.5784 16.0649 11.4023L11.8633 3.5625H12.6567L17.0658 11.3662C17.1702 11.5505 17.2248 11.759 17.224 11.9708C17.2232 12.1827 17.1671 12.3908 17.0612 12.5743C16.1123 14.2236 15.1701 15.8766 14.2346 17.5333C13.378 19.039 13.7478 20.0083 15.3346 20.4412Z" fill="url(#paint4_linear_872_3265)"/>
<path d="M8.4822 20.4682C8.12154 20.4682 7.76088 20.3825 7.44531 20.2292L11.7822 12.4075C11.9174 12.1641 11.9174 11.8666 11.7822 11.6231L7.44531 3.80594C7.76768 3.64631 8.12247 3.56302 8.4822 3.5625H11.9986L16.3715 11.4473C16.4678 11.6212 16.5184 11.8166 16.5184 12.0154C16.5184 12.214 16.4678 12.4095 16.3715 12.5834L11.9986 20.4682H8.4822Z" fill="url(#paint5_linear_872_3265)"/>
<path opacity="0.6" d="M16.0658 11.6231L11.5938 3.5625H11.9995L16.3724 11.4473C16.4687 11.6212 16.5193 11.8166 16.5193 12.0154C16.5193 12.214 16.4687 12.4095 16.3724 12.5834L11.9995 20.4682H11.5938L16.0658 12.4075C16.2011 12.1641 16.2011 11.8666 16.0658 11.6231Z" fill="url(#paint6_linear_872_3265)"/>
<path opacity="0.6" d="M11.7822 11.623L7.44531 3.80584C7.58056 3.73371 7.74286 3.67961 7.89613 3.63452C8.85186 5.35214 10.2629 7.95787 12.1338 11.4472C12.2302 11.621 12.2807 11.8165 12.2807 12.0153C12.2807 12.2139 12.2302 12.4094 12.1338 12.5833L7.82851 20.3779C7.67523 20.3329 7.59408 20.3013 7.44982 20.2337L11.7776 12.4119C11.9129 12.1685 11.9129 11.871 11.7776 11.6275L11.7822 11.623Z" fill="url(#paint7_linear_872_3265)"/>
</g>
<defs>
<linearGradient id="paint0_linear_872_3265" x1="6.13997" y1="20.2292" x2="-1.06022" y2="8.64963" gradientUnits="userSpaceOnUse">
<stop stop-color="#EB6F07"/>
<stop offset="1" stop-color="#FAB743"/>
</linearGradient>
<linearGradient id="paint1_linear_872_3265" x1="8.37288" y1="18.7978" x2="4.66563" y2="14.9849" gradientUnits="userSpaceOnUse">
<stop stop-color="#D96504"/>
<stop offset="1" stop-color="#D96504" stop-opacity="0"/>
</linearGradient>
<linearGradient id="paint2_linear_872_3265" x1="7.14984" y1="4.20241" x2="9.1124" y2="7.35504" gradientUnits="userSpaceOnUse">
<stop stop-color="#EB6F07"/>
<stop offset="1" stop-color="#EB720A" stop-opacity="0"/>
</linearGradient>
<linearGradient id="paint3_linear_872_3265" x1="16.6879" y1="20.4682" x2="10.2408" y2="7.03397" gradientUnits="userSpaceOnUse">
<stop stop-color="#EE6F05"/>
<stop offset="1" stop-color="#FAB743"/>
</linearGradient>
<linearGradient id="paint4_linear_872_3265" x1="10.0835" y1="20.4727" x2="20.4061" y2="17.8527" gradientUnits="userSpaceOnUse">
<stop stop-color="#D96504" stop-opacity="0.8"/>
<stop offset="0.498" stop-color="#D96504" stop-opacity="0.2"/>
<stop offset="1" stop-color="#D96504" stop-opacity="0"/>
</linearGradient>
<linearGradient id="paint5_linear_872_3265" x1="11.9818" y1="20.4682" x2="5.4031" y2="7.20244" gradientUnits="userSpaceOnUse">
<stop stop-color="#FFA95F"/>
<stop offset="1" stop-color="#FFEBC8"/>
</linearGradient>
<linearGradient id="paint6_linear_872_3265" x1="11.9927" y1="3.7485" x2="17.479" y2="4.611" gradientUnits="userSpaceOnUse">
<stop stop-color="white" stop-opacity="0.5"/>
<stop offset="1" stop-color="white" stop-opacity="0.1"/>
</linearGradient>
<linearGradient id="paint7_linear_872_3265" x1="6.78291" y1="21.0811" x2="13.5641" y2="20.0822" gradientUnits="userSpaceOnUse">
<stop stop-color="white" stop-opacity="0.5"/>
<stop offset="1" stop-color="white" stop-opacity="0.1"/>
</linearGradient>
<clipPath id="clip0_872_3265">
<rect width="24" height="24" fill="white"/>
</clipPath>
</defs>
</svg>
