<svg width="24" height="24" viewBox="0 0 24 24" fill="none" xmlns="http://www.w3.org/2000/svg">
<g clip-path="url(#clip0_872_1842)">
<path d="M18.375 0H5.625C2.5184 0 0 2.5184 0 5.625V18.375C0 21.4816 2.5184 24 5.625 24H18.375C21.4816 24 24 21.4816 24 18.375V5.625C24 2.5184 21.4816 0 18.375 0Z" fill="#F4F2ED"/>
<path d="M18.8233 11.3939C18.8217 11.3939 18.8202 11.3939 18.8186 11.3939C18.7207 11.7001 18.645 12.0329 18.6306 12.4118C18.6035 13.1235 18.6758 13.5565 18.5939 14.0175C18.512 14.4784 18.2699 14.9322 17.654 15.6437C16.9207 16.4907 15.7588 17.1461 14.4168 17.3676C14.1669 17.5271 13.9033 17.6732 13.6259 17.8033C14.6705 18.1965 15.763 18.2179 16.6291 17.9338C18.1548 17.433 18.0366 17.0734 18.7203 16.0259C18.9357 15.6958 19.1843 15.4439 19.4341 15.237C20.1455 15.5472 20.8463 15.7464 21.2829 15.697C21.5177 15.1528 21.2772 14.5216 20.8776 13.925C21.2054 12.9069 20.708 11.8875 19.6065 11.527C19.3191 11.433 19.061 11.3888 18.8233 11.3934V11.3939ZM19.6496 12.8887C19.7102 12.8874 19.7701 12.8992 19.8252 12.9233C19.8802 12.9474 19.9293 12.9831 19.9688 13.0281C20.0049 13.0692 20.0325 13.117 20.0498 13.169C20.0672 13.221 20.074 13.2761 20.0699 13.3311C20.0659 13.3861 20.051 13.44 20.0262 13.4896C20.0014 13.5393 19.967 13.5839 19.9251 13.6206C19.8408 13.6949 19.7308 13.7331 19.6196 13.727C19.5084 13.7208 19.405 13.6709 19.3321 13.588C19.296 13.547 19.2685 13.4991 19.2512 13.4471C19.2338 13.3951 19.227 13.34 19.2311 13.2851C19.2351 13.23 19.25 13.1761 19.2748 13.1265C19.2996 13.0768 19.334 13.0323 19.3758 12.9956C19.4519 12.9286 19.5491 12.8908 19.6496 12.8887ZM12.8223 17.4198C12.8349 17.4273 12.848 17.4339 12.8607 17.4413C12.8737 17.4364 12.887 17.4313 12.9001 17.4263C12.8741 17.424 12.8482 17.4224 12.8223 17.4198Z" fill="#787878"/>
<path d="M13.3427 5.06254C12.7463 5.05904 12.1347 5.29699 11.6092 5.80733C10.9189 6.47761 10.7045 7.08099 10.8255 7.83382L10.8587 8.04035L10.6523 8.0068C9.13583 7.76108 7.25891 7.8852 5.12345 8.74906C5.75119 9.01814 6.90339 9.46725 8.18199 10.0813L8.58744 10.2761L8.1467 10.3654C6.45833 10.7077 4.45489 11.6962 2.625 13.8536C3.4436 13.79 5.11661 13.5931 6.86149 13.5958C7.83143 13.5973 8.78733 13.6643 9.56606 13.8663C10.3448 14.0682 11.0526 14.5303 11.1523 14.8688C11.2521 15.2075 11.1954 15.3857 11.0972 15.6505C10.9989 15.9154 10.6969 16.3178 10.2789 16.5833C9.861 16.8489 9.3307 17.0811 8.77976 17.2784C7.67788 17.673 6.50515 17.9252 5.98742 17.9733C5.87737 17.9835 5.83344 18.0231 5.79103 18.1C5.74863 18.177 5.72524 18.298 5.7218 18.4246C5.7172 18.5935 5.74346 18.6817 5.79118 18.7487C5.8389 18.8156 5.91343 18.8423 5.99022 18.8476C9.24362 19.0677 11.6762 18.2494 13.443 17.5483C15.475 16.6166 16.7594 14.7767 17.0382 13.1201C17.213 12.0821 17.1755 11.5734 17.007 11.1402C16.8385 10.707 16.5156 10.3223 16.1058 9.58763C15.8425 9.11556 15.6956 8.65235 15.6046 8.22094L15.5853 8.13006L15.6578 8.07194C16.4107 7.46838 17.0239 6.80937 17.2465 6.32961C16.7898 5.84384 16.0005 5.74118 15.1175 5.83561L15.0449 5.84319L14.9938 5.79113C14.5233 5.31177 13.9392 5.06608 13.3427 5.06254ZM13.6072 6.18412C13.8661 6.18002 14.0945 6.35951 14.1565 6.6157C14.2295 6.91742 14.0485 7.22006 13.7525 7.29165C13.4563 7.3633 13.1571 7.17681 13.0841 6.87508C13.0111 6.57338 13.192 6.27073 13.4882 6.19913C13.5272 6.18975 13.567 6.18471 13.6072 6.18412Z" fill="#ECECEC"/>
<path d="M17.3113 7.49779C17.1206 7.49389 16.9208 7.51396 16.7143 7.56098C16.7005 7.56417 16.6883 7.56805 16.6746 7.57131C16.4475 7.79578 16.194 8.02111 15.9227 8.242C16.0101 8.62739 16.1397 9.02912 16.3692 9.44041C16.7673 10.1543 17.0955 10.5353 17.2881 11.0306C17.4807 11.5259 17.5142 12.1084 17.3355 13.1699C17.114 14.4857 16.313 15.8791 15.043 16.9077C16.0287 16.6202 16.8689 16.0897 17.4252 15.4472C18.0256 14.7535 18.226 14.3612 18.2962 13.9657C18.3664 13.5704 18.3006 13.137 18.3285 12.4017C18.3466 11.9279 18.4475 11.5134 18.5758 11.149L18.6067 11.0616L18.6987 11.0495C19.5204 10.9429 20.263 10.7333 20.6468 10.4855C20.5235 9.9311 19.9997 9.50097 19.3061 9.17401L19.2399 9.14281L19.2234 9.07163C19.0033 8.12689 18.2657 7.51761 17.3113 7.49779ZM17.7889 8.66461C17.838 8.66456 17.8868 8.67213 17.9335 8.68704C18.0551 8.72593 18.156 8.81244 18.2141 8.92757C18.272 9.0427 18.2824 9.17703 18.2427 9.30097C18.2232 9.36235 18.1918 9.41932 18.1507 9.46863C18.1095 9.51804 18.0593 9.55872 18.0028 9.58854C17.9463 9.61835 17.8848 9.63663 17.8216 9.64235C17.7584 9.64797 17.6949 9.64104 17.6347 9.62182C17.513 9.58291 17.4121 9.49638 17.3541 9.38125C17.2961 9.26609 17.2858 9.13179 17.3254 9.00785C17.3572 8.9084 17.4193 8.82149 17.5026 8.75976C17.586 8.69802 17.6863 8.66469 17.7889 8.66461Z" fill="#B2B2B2"/>
<mask id="mask0_872_1842" style="mask-type:luminance" maskUnits="userSpaceOnUse" x="2" y="5" width="20" height="14">
<path d="M18.8233 11.3939C18.8217 11.3939 18.8202 11.3939 18.8186 11.3939C18.7207 11.7001 18.645 12.0329 18.6306 12.4118C18.6035 13.1235 18.6758 13.5565 18.5939 14.0175C18.512 14.4784 18.2699 14.9322 17.654 15.6437C16.9207 16.4907 15.7588 17.1461 14.4168 17.3676C14.1669 17.5271 13.9033 17.6732 13.6259 17.8033C14.6705 18.1965 15.763 18.2179 16.6291 17.9338C18.1548 17.433 18.0366 17.0734 18.7203 16.0259C18.9357 15.6958 19.1843 15.4439 19.4341 15.237C20.1455 15.5472 20.8463 15.7464 21.2829 15.697C21.5177 15.1528 21.2772 14.5216 20.8776 13.925C21.2054 12.9069 20.708 11.8875 19.6065 11.527C19.3191 11.433 19.061 11.3888 18.8233 11.3934V11.3939ZM19.6496 12.8887C19.7102 12.8874 19.7701 12.8992 19.8252 12.9233C19.8802 12.9474 19.9293 12.9831 19.9688 13.0281C20.0049 13.0692 20.0325 13.117 20.0498 13.169C20.0672 13.221 20.074 13.2761 20.0699 13.3311C20.0659 13.3861 20.051 13.44 20.0262 13.4896C20.0014 13.5393 19.967 13.5839 19.9251 13.6206C19.8408 13.6949 19.7308 13.7331 19.6196 13.727C19.5084 13.7208 19.405 13.6709 19.3321 13.588C19.296 13.547 19.2685 13.4991 19.2512 13.4471C19.2338 13.3951 19.227 13.34 19.2311 13.2851C19.2351 13.23 19.25 13.1761 19.2748 13.1265C19.2996 13.0768 19.334 13.0323 19.3758 12.9956C19.4519 12.9286 19.5491 12.8908 19.6496 12.8887ZM12.8223 17.4198C12.8349 17.4273 12.848 17.4339 12.8607 17.4413C12.8737 17.4364 12.887 17.4313 12.9001 17.4263C12.8741 17.424 12.8482 17.4224 12.8223 17.4198Z" fill="white"/>
<path d="M13.3427 5.06254C12.7463 5.05904 12.1347 5.29699 11.6092 5.80733C10.9189 6.47761 10.7045 7.08099 10.8255 7.83382L10.8587 8.04035L10.6523 8.0068C9.13583 7.76108 7.25891 7.8852 5.12345 8.74906C5.75119 9.01814 6.90339 9.46725 8.18199 10.0813L8.58744 10.2761L8.1467 10.3654C6.45833 10.7077 4.45489 11.6962 2.625 13.8536C3.4436 13.79 5.11661 13.5931 6.86149 13.5958C7.83143 13.5973 8.78733 13.6643 9.56606 13.8663C10.3448 14.0682 11.0526 14.5303 11.1523 14.8688C11.2521 15.2075 11.1954 15.3857 11.0972 15.6505C10.9989 15.9154 10.6969 16.3178 10.2789 16.5833C9.861 16.8489 9.3307 17.0811 8.77976 17.2784C7.67788 17.673 6.50515 17.9252 5.98742 17.9733C5.87737 17.9835 5.83344 18.0231 5.79103 18.1C5.74863 18.177 5.72524 18.298 5.7218 18.4246C5.7172 18.5935 5.74346 18.6817 5.79118 18.7487C5.8389 18.8156 5.91343 18.8423 5.99022 18.8476C9.24362 19.0677 11.6762 18.2494 13.443 17.5483C15.475 16.6166 16.7594 14.7767 17.0382 13.1201C17.213 12.0821 17.1755 11.5734 17.007 11.1402C16.8385 10.707 16.5156 10.3223 16.1058 9.58763C15.8425 9.11556 15.6956 8.65235 15.6046 8.22094L15.5853 8.13006L15.6578 8.07194C16.4107 7.46838 17.0239 6.80937 17.2465 6.32961C16.7898 5.84384 16.0005 5.74118 15.1175 5.83561L15.0449 5.84319L14.9938 5.79113C14.5233 5.31177 13.9392 5.06608 13.3427 5.06254ZM13.6072 6.18412C13.8661 6.18002 14.0945 6.35951 14.1565 6.6157C14.2295 6.91742 14.0485 7.22006 13.7525 7.29165C13.4563 7.3633 13.1571 7.17681 13.0841 6.87508C13.0111 6.57338 13.192 6.27073 13.4882 6.19913C13.5272 6.18975 13.567 6.18471 13.6072 6.18412Z" fill="white"/>
<path d="M17.3113 7.49779C17.1206 7.49389 16.9208 7.51396 16.7143 7.56098C16.7005 7.56417 16.6883 7.56805 16.6746 7.57131C16.4475 7.79578 16.194 8.02111 15.9227 8.242C16.0101 8.62739 16.1397 9.02912 16.3692 9.44041C16.7673 10.1543 17.0955 10.5353 17.2881 11.0306C17.4807 11.5259 17.5142 12.1084 17.3355 13.1699C17.114 14.4857 16.313 15.8791 15.043 16.9077C16.0287 16.6202 16.8689 16.0897 17.4252 15.4472C18.0256 14.7535 18.226 14.3612 18.2962 13.9657C18.3664 13.5704 18.3006 13.137 18.3285 12.4017C18.3466 11.9279 18.4475 11.5134 18.5758 11.149L18.6067 11.0616L18.6987 11.0495C19.5204 10.9429 20.263 10.7333 20.6468 10.4855C20.5235 9.9311 19.9997 9.50097 19.3061 9.17401L19.2399 9.14281L19.2234 9.07163C19.0033 8.12689 18.2657 7.51761 17.3113 7.49779ZM17.7889 8.66461C17.838 8.66456 17.8868 8.67213 17.9335 8.68704C18.0551 8.72593 18.156 8.81244 18.2141 8.92757C18.272 9.0427 18.2824 9.17703 18.2427 9.30097C18.2232 9.36235 18.1918 9.41932 18.1507 9.46863C18.1095 9.51804 18.0593 9.55872 18.0028 9.58854C17.9463 9.61835 17.8848 9.63663 17.8216 9.64235C17.7584 9.64797 17.6949 9.64104 17.6347 9.62182C17.513 9.58291 17.4121 9.49638 17.3541 9.38125C17.2961 9.26609 17.2858 9.13179 17.3254 9.00785C17.3572 8.9084 17.4193 8.82149 17.5026 8.75976C17.586 8.69802 17.6863 8.66469 17.7889 8.66461Z" fill="white"/>
</mask>
<g mask="url(#mask0_872_1842)">
<path d="M18.8231 11.3938L18.8249 11.4875L18.9228 11.4857L18.9167 11.3879L18.8231 11.3938ZM18.8184 11.3938V11.3001H18.75L18.7291 11.3652L18.8184 11.3938ZM14.4166 17.3676L14.4013 17.275L14.3823 17.2781L14.3661 17.2885L14.4166 17.3676ZM13.6257 17.8032L13.586 17.7184L13.3848 17.8127L13.5927 17.891L13.6257 17.8032ZM19.4339 15.2369L19.4714 15.1509L19.4185 15.1279L19.3741 15.1647L19.4339 15.2369ZM21.2828 15.6969L21.2933 15.7901L21.3473 15.784L21.3688 15.7341L21.2828 15.6969ZM20.8775 13.925L20.7882 13.8963L20.7744 13.9394L20.7996 13.9772L20.8775 13.925ZM18.8231 11.3933L18.8213 11.2997L18.7235 11.3016L18.7296 11.3993L18.8231 11.3933ZM12.8221 17.4198L12.831 17.3265L12.7745 17.5006L12.8221 17.4198ZM12.8605 17.4413L12.8134 17.5223L12.8518 17.5446L12.8934 17.5291L12.8605 17.4413ZM12.8999 17.4263L12.9332 17.5139L12.9082 17.3329L12.8999 17.4263ZM10.8589 8.04035L10.8439 8.13289L10.972 8.15373L10.9514 8.02549L10.8589 8.04035ZM10.6525 8.00681L10.6676 7.91427L10.6675 7.91426L10.6525 8.00681ZM5.12364 8.74906L5.08849 8.66216L4.87984 8.74656L5.08671 8.83524L5.12364 8.74906ZM8.58764 10.2761L8.60626 10.368L8.87991 10.3125L8.62824 10.1916L8.58764 10.2761ZM2.6252 13.8536L2.5537 13.793L2.4082 13.9645L2.63246 13.9471L2.6252 13.8536ZM13.4432 17.5483L13.4777 17.6355L13.48 17.6346L13.4822 17.6335L13.4432 17.5483ZM15.6048 8.22094L15.6966 8.20158L15.6965 8.20146L15.6048 8.22094ZM15.5855 8.13006L15.5269 8.0569L15.4818 8.09302L15.4938 8.14954L15.5855 8.13006ZM17.2467 6.32961L17.3318 6.36907L17.3584 6.31156L17.315 6.26539L17.2467 6.32961ZM15.1177 5.83561L15.1274 5.92886L15.1276 5.92883L15.1177 5.83561ZM15.0451 5.8432L14.9782 5.90886L15.0099 5.94114L15.0549 5.93644L15.0451 5.8432ZM14.994 5.79113L15.0609 5.72546L15.0609 5.72545L14.994 5.79113ZM13.4884 6.19914L13.4664 6.10799L13.4664 6.10801L13.4884 6.19914ZM16.7148 7.5611L16.694 7.46968L16.6938 7.46972L16.7148 7.5611ZM16.675 7.57143L16.6533 7.48022L16.6278 7.4863L16.6091 7.50476L16.675 7.57143ZM15.9232 8.24212L15.864 8.16942L15.8189 8.20614L15.8318 8.26284L15.9232 8.24212ZM15.0434 16.9078L14.9844 16.835L15.0697 16.9978L15.0434 16.9078ZM18.6071 11.0618L18.5949 10.9688L18.5379 10.9763L18.5187 11.0306L18.6071 11.0618ZM18.6992 11.0497L18.6871 10.9567L18.6869 10.9568L18.6992 11.0497ZM20.6472 10.4857L20.6981 10.5644L20.753 10.5291L20.7387 10.4653L20.6472 10.4857ZM19.2403 9.14293L19.149 9.1642L19.1593 9.20836L19.2004 9.22771L19.2403 9.14293ZM18.8214 11.3001C18.8217 11.3001 18.8217 11.3001 18.8213 11.3001C18.8209 11.3001 18.8207 11.3001 18.8201 11.3001C18.8198 11.3001 18.8191 11.3001 18.8184 11.3001V11.4876C18.819 11.4876 18.8189 11.4876 18.8203 11.4876C18.8214 11.4876 18.823 11.4876 18.8249 11.4875L18.8214 11.3001ZM18.7291 11.3652C18.6294 11.6771 18.5515 12.0185 18.5367 12.4082L18.7241 12.4153C18.7381 12.0471 18.8116 11.723 18.9077 11.4223L18.7291 11.3652ZM18.5367 12.4082C18.523 12.7674 18.5345 13.0574 18.5389 13.3103C18.5434 13.5642 18.5408 13.78 18.5015 14.001L18.6861 14.0338C18.7287 13.7938 18.7309 13.5626 18.7264 13.307C18.7219 13.0501 18.7107 12.7677 18.7241 12.4153L18.5367 12.4082ZM18.5015 14.001C18.4239 14.4373 18.1947 14.8756 17.5829 15.5824L17.7247 15.7051C18.3447 14.9888 18.5998 14.5194 18.6861 14.0338L18.5015 14.001ZM17.5829 15.5824C16.8653 16.4113 15.7238 17.0568 14.4013 17.275L14.4318 17.46C15.7936 17.2353 16.9759 16.57 17.7247 15.7051L17.5829 15.5824ZM14.3661 17.2885C14.1197 17.4458 13.8595 17.59 13.586 17.7184L13.6656 17.8881C13.9467 17.7563 14.2139 17.6081 14.467 17.4466L14.3661 17.2885ZM13.5927 17.891C14.6554 18.291 15.7699 18.3143 16.6582 18.0228L16.5997 17.8446C15.7558 18.1215 14.6854 18.102 13.6588 17.7155L13.5927 17.891ZM16.6582 18.0228C17.4268 17.7705 17.7979 17.5488 18.0609 17.2463C18.1908 17.0972 18.2917 16.9314 18.4007 16.7423C18.5105 16.5519 18.6295 16.3361 18.7987 16.077L18.6416 15.9745C18.4689 16.2392 18.3463 16.4612 18.2383 16.6486C18.1296 16.8372 18.0364 16.989 17.9196 17.1233C17.6894 17.3878 17.3567 17.5962 16.5997 17.8446L16.6582 18.0228ZM18.7987 16.077C19.0077 15.7567 19.2494 15.5115 19.4937 15.3091L19.3741 15.1647C19.119 15.3761 18.8633 15.6349 18.6416 15.9745L18.7987 16.077ZM19.3964 15.3229C19.7554 15.4793 20.1132 15.6086 20.4379 15.6925C20.7609 15.7761 21.0582 15.8167 21.2933 15.7901L21.2723 15.6038C21.0707 15.6265 20.7993 15.5923 20.4849 15.511C20.1721 15.4301 19.8238 15.3047 19.4714 15.1509L19.3964 15.3229ZM21.3688 15.7341C21.6243 15.1418 21.3571 14.4726 20.9554 13.8728L20.7996 13.9772C21.1971 14.5706 21.4107 15.1636 21.1967 15.6598L21.3688 15.7341ZM20.9667 13.9538C21.3106 12.8855 20.785 11.814 19.6355 11.4379L19.5772 11.6161C20.6307 11.9608 21.0999 12.9283 20.7882 13.8963L20.9667 13.9538ZM19.6355 11.4379C19.3408 11.3415 19.0719 11.2947 18.8213 11.2997L18.8249 11.4871C19.0496 11.4827 19.2972 11.5245 19.5772 11.6161L19.6355 11.4379ZM18.7296 11.3993V11.3996L18.9167 11.3879V11.3875L18.7296 11.3993ZM19.6514 12.9823C19.6985 12.9814 19.7449 12.9906 19.7874 13.0091L19.8625 12.8374C19.7949 12.8078 19.7215 12.7934 19.6475 12.7949L19.6514 12.9823ZM19.7874 13.0091C19.83 13.0278 19.8678 13.0553 19.8984 13.09L20.0391 12.9662C19.9904 12.9108 19.9301 12.8669 19.8625 12.8374L19.7874 13.0091ZM19.8983 13.0899C19.9261 13.1216 19.9473 13.1585 19.9607 13.1986L20.1385 13.1393C20.1173 13.0755 20.0835 13.0166 20.0391 12.9662L19.8983 13.0899ZM19.9607 13.1986C19.9741 13.2388 19.9794 13.2815 19.9763 13.3241L20.1633 13.338C20.1682 13.2707 20.1598 13.2032 20.1385 13.1393L19.9607 13.1986ZM19.9763 13.3241C19.9731 13.3669 19.9615 13.4089 19.9421 13.4477L20.1099 13.5316C20.1401 13.471 20.1583 13.4052 20.1633 13.338L19.9763 13.3241ZM19.9421 13.4477C19.9227 13.4865 19.8959 13.5214 19.8631 13.5502L19.9869 13.691C20.0378 13.6463 20.0796 13.5921 20.1099 13.5316L19.9421 13.4477ZM19.8631 13.5502C19.7969 13.6083 19.711 13.6381 19.6246 13.6333L19.6143 13.8205C19.7503 13.828 19.8842 13.7813 19.9869 13.691L19.8631 13.5502ZM19.6246 13.6333C19.5383 13.6286 19.4584 13.5898 19.4023 13.5261L19.2615 13.6499C19.3512 13.7518 19.4783 13.813 19.6143 13.8205L19.6246 13.6333ZM19.4023 13.5261C19.3746 13.4945 19.3534 13.4575 19.34 13.4174L19.1621 13.4768C19.1834 13.5406 19.2172 13.5994 19.2615 13.6499L19.4023 13.5261ZM19.34 13.4174C19.3266 13.3773 19.3212 13.3346 19.3244 13.2919L19.1374 13.2781C19.1324 13.3454 19.1409 13.4129 19.1621 13.4768L19.34 13.4174ZM19.3244 13.2919C19.3276 13.2491 19.3391 13.2071 19.3585 13.1683L19.1908 13.0845C19.1605 13.1451 19.1424 13.2108 19.1374 13.2781L19.3244 13.2919ZM19.3585 13.1683C19.3779 13.1295 19.4048 13.0947 19.4376 13.0659L19.3137 12.925C19.2628 12.9698 19.2211 13.0239 19.1908 13.0845L19.3585 13.1683ZM19.4375 13.0659C19.4972 13.0135 19.5731 12.984 19.6514 12.9823L19.6476 12.7949C19.5247 12.7974 19.4064 12.8437 19.3137 12.925L19.4375 13.0659ZM12.7745 17.5006C12.7824 17.5052 12.79 17.5094 12.7964 17.5129C12.8032 17.5165 12.8083 17.5193 12.8134 17.5223L12.9076 17.3602C12.8999 17.3558 12.8922 17.3516 12.8861 17.3483C12.8797 17.3447 12.8745 17.3419 12.8696 17.3391L12.7745 17.5006ZM12.8934 17.5291C12.9065 17.5241 12.9214 17.5183 12.9332 17.5139L12.8666 17.3386C12.8524 17.344 12.8407 17.3486 12.8276 17.3534L12.8934 17.5291ZM12.9082 17.3329C12.8772 17.3302 12.8585 17.3291 12.831 17.3265L12.8131 17.5132C12.8378 17.5155 12.8707 17.5178 12.8917 17.5196L12.9082 17.3329ZM13.3434 4.96879C12.7206 4.96514 12.0858 5.21399 11.544 5.74008L11.6746 5.87459C12.1839 5.38 12.7724 5.15295 13.3423 5.15629L13.3434 4.96879ZM11.544 5.74008C11.1925 6.08137 10.9568 6.4109 10.8256 6.75636C10.6941 7.10295 10.6704 7.45897 10.7332 7.84871L10.9183 7.81896C10.8599 7.45587 10.883 7.13377 11.0009 6.82288C11.1193 6.51087 11.3359 6.20357 11.6746 5.87459L11.544 5.74008ZM10.7332 7.84871L10.7664 8.05521L10.9514 8.02549L10.9183 7.81896L10.7332 7.84871ZM10.8739 7.94782L10.6676 7.91427L10.6375 8.09935L10.8439 8.13289L10.8739 7.94782ZM10.6675 7.91426C9.13353 7.66571 7.23929 7.7921 5.08849 8.66216L5.1588 8.83598C7.27894 7.97831 9.13853 7.85646 10.6375 8.09935L10.6675 7.91426ZM5.08671 8.83524C5.71806 9.10586 6.86535 9.55294 8.14161 10.1658L8.22279 9.99675C6.94184 9.38166 5.78472 8.93043 5.16057 8.6629L5.08671 8.83524ZM8.14161 10.1658L8.54704 10.3606L8.62824 10.1916L8.22279 9.99675L8.14161 10.1658ZM8.56902 10.1843L8.12827 10.2735L8.16551 10.4573L8.60626 10.368L8.56902 10.1843ZM8.12827 10.2735C6.41889 10.62 4.39695 11.6198 2.5537 13.793L2.69669 13.9143C4.51322 11.7726 6.49817 10.7953 8.16551 10.4573L8.12827 10.2735ZM2.63246 13.9471C3.45579 13.8831 5.12161 13.6868 6.86154 13.6896L6.86183 13.5021C5.112 13.4993 3.43178 13.6969 2.61793 13.7602L2.63246 13.9471ZM6.86154 13.6896C7.82871 13.6911 8.77537 13.7581 9.54273 13.957L9.58979 13.7755C8.79968 13.5707 7.83454 13.5036 6.86183 13.5021L6.86154 13.6896ZM9.54273 13.957C9.92279 14.0556 10.2853 14.2177 10.5636 14.3953C10.7027 14.4842 10.8189 14.5757 10.9053 14.6635C10.9929 14.7526 11.0439 14.8318 11.0626 14.8954L11.2424 14.8423C11.2113 14.7366 11.1364 14.6311 11.039 14.532C10.9403 14.4316 10.8121 14.3316 10.6644 14.2373C10.3692 14.0488 9.98851 13.8789 9.58979 13.7755L9.54273 13.957ZM11.0626 14.8954C11.1096 15.055 11.1183 15.1714 11.1061 15.2765C11.0936 15.3839 11.0589 15.485 11.0095 15.6179L11.1853 15.6832C11.2343 15.5513 11.2769 15.4308 11.2923 15.2982C11.308 15.1633 11.2951 15.0213 11.2424 14.8423L11.0626 14.8954ZM11.0095 15.6179C10.9193 15.8614 10.6315 16.2483 10.2288 16.5042L10.3294 16.6625C10.7625 16.3872 11.0791 15.9694 11.1853 15.6832L11.0095 15.6179ZM10.2288 16.5042C9.8192 16.7646 9.29625 16.994 8.74836 17.1902L8.81157 17.3666C9.36555 17.1683 9.9031 16.9334 10.3294 16.6625L10.2288 16.5042ZM8.74836 17.1902C7.65183 17.5828 6.48695 17.8328 5.97894 17.8799L5.99629 18.0667C6.52375 18.0176 7.70433 17.7632 8.81157 17.3666L8.74836 17.1902ZM5.97894 17.8799C5.91422 17.8859 5.8584 17.9016 5.81072 17.9346C5.76339 17.9673 5.73329 18.0109 5.7091 18.0548L5.87335 18.1452C5.89158 18.1121 5.90465 18.0975 5.91741 18.0887C5.9298 18.0802 5.95097 18.0709 5.99629 18.0667L5.97894 17.8799ZM5.7091 18.0548C5.65621 18.1508 5.63188 18.2892 5.62828 18.422L5.81572 18.4271C5.81898 18.3068 5.84143 18.2033 5.87335 18.1452L5.7091 18.0548ZM5.62828 18.422C5.62341 18.6015 5.6508 18.7131 5.71506 18.8032L5.8677 18.6942C5.83651 18.6505 5.8114 18.5857 5.81572 18.4271L5.62828 18.422ZM5.71506 18.8032C5.78487 18.901 5.89106 18.9348 5.98408 18.9411L5.99676 18.754C5.93619 18.7499 5.89332 18.7301 5.8677 18.6942L5.71506 18.8032ZM5.98408 18.9411C9.25768 19.1627 11.7054 18.3387 13.4777 17.6355L13.4086 17.4612C11.6473 18.16 9.22994 18.9728 5.99676 18.754L5.98408 18.9411ZM13.4822 17.6335C15.5415 16.6893 16.8467 14.8239 17.1309 13.1357L16.946 13.1046C16.6725 14.7294 15.4089 16.5439 13.4041 17.4631L13.4822 17.6335ZM17.1309 13.1357C17.3065 12.0919 17.2722 11.563 17.0946 11.1063L16.9198 11.1743C17.0791 11.5839 17.1197 12.0725 16.946 13.1046L17.1309 13.1357ZM17.0946 11.1063C17.0067 10.8803 16.8792 10.6689 16.7263 10.4269C16.5726 10.1836 16.3912 9.90647 16.1879 9.54197L16.0241 9.63328C16.2306 10.0035 16.4155 10.2861 16.5678 10.5271C16.7209 10.7693 16.8392 10.967 16.9198 11.1743L17.0946 11.1063ZM16.1879 9.54197C15.9302 9.07999 15.7861 8.62614 15.6966 8.20158L15.5131 8.2403C15.6055 8.67857 15.7553 9.15113 16.0241 9.63328L16.1879 9.54197ZM15.6965 8.20146L15.6772 8.11058L15.4938 8.14954L15.5131 8.24042L15.6965 8.20146ZM15.6441 8.20323L15.7166 8.14511L15.5994 7.99878L15.5269 8.0569L15.6441 8.20323ZM15.7166 8.14511C16.4719 7.53973 17.0995 6.86946 17.3318 6.36907L17.1617 6.29015C16.9486 6.74929 16.35 7.39703 15.5994 7.99878L15.7166 8.14511ZM17.315 6.26539C16.8258 5.74511 15.9954 5.64746 15.1076 5.7424L15.1276 5.92883C16.0059 5.83491 16.7541 5.94257 17.1784 6.39383L17.315 6.26539ZM15.1079 5.74237L15.0354 5.74995L15.0549 5.93644L15.1274 5.92886L15.1079 5.74237ZM15.112 5.77753L15.0609 5.72546L14.9271 5.85678L14.9782 5.90886L15.112 5.77753ZM15.0609 5.72545C14.5739 5.22933 13.9663 4.97249 13.3434 4.96879L13.3423 5.15629C13.9124 5.15967 14.4729 5.3942 14.9271 5.85678L15.0609 5.72545ZM13.6088 6.27786C13.8227 6.27447 14.0137 6.42306 14.0656 6.63776L14.2479 6.59367C14.1758 6.29601 13.9098 6.08558 13.6059 6.09038L13.6088 6.27786ZM14.0656 6.63776C14.1268 6.89076 13.9749 7.14149 13.7306 7.20053L13.7747 7.38278C14.1227 7.29864 14.3326 6.94409 14.2479 6.59367L14.0656 6.63776ZM13.7306 7.20053C13.4864 7.25962 13.2366 7.10605 13.1754 6.85304L12.9932 6.89712C13.0779 7.24757 13.4266 7.46699 13.7747 7.38278L13.7306 7.20053ZM13.1754 6.85304C13.1142 6.60004 13.2662 6.3493 13.5104 6.29026L13.4664 6.10801C13.1183 6.19216 12.9084 6.5467 12.9932 6.89712L13.1754 6.85304ZM13.5103 6.29028C13.5426 6.28252 13.5756 6.27835 13.6088 6.27786L13.6059 6.09038C13.5589 6.09107 13.5121 6.09699 13.4664 6.10799L13.5103 6.29028ZM17.3138 7.40418C17.115 7.40012 16.9075 7.42105 16.694 7.46968L16.7356 7.65251C16.9348 7.60713 17.127 7.5879 17.3098 7.59164L17.3138 7.40418ZM16.6938 7.46972C16.6848 7.4718 16.6765 7.47405 16.6701 7.47581C16.6632 7.47771 16.6584 7.47904 16.6533 7.48022L16.6967 7.66264C16.7054 7.66058 16.7135 7.65834 16.7196 7.65667C16.7261 7.65488 16.7309 7.65358 16.7358 7.65247L16.6938 7.46972ZM16.6091 7.50476C16.3845 7.72682 16.1333 7.95014 15.864 8.16942L15.9824 8.31481C16.2556 8.09232 16.5114 7.865 16.7409 7.63811L16.6091 7.50476ZM15.8318 8.26284C15.9204 8.6543 16.0528 9.06502 16.2878 9.48619L16.4514 9.39488C16.2277 8.99347 16.1006 8.60073 16.0147 8.2214L15.8318 8.26284ZM16.2878 9.48619C16.4885 9.8461 16.6721 10.123 16.8269 10.3677C16.9824 10.6134 17.1084 10.8261 17.2012 11.0648L17.3759 10.9968C17.2762 10.7401 17.1417 10.5146 16.9854 10.2675C16.8284 10.0194 16.6489 9.74888 16.4514 9.39488L16.2878 9.48619ZM17.2012 11.0648C17.3847 11.5367 17.4211 12.0993 17.2435 13.1544L17.4284 13.1856C17.6081 12.1179 17.5777 11.5154 17.3759 10.9968L17.2012 11.0648ZM17.2435 13.1544C17.0261 14.4458 16.2382 15.8195 14.9844 16.835L15.1025 16.9807C16.3887 15.9389 17.2028 14.5257 17.4284 13.1856L17.2435 13.1544ZM15.0697 16.9978C16.0705 16.7059 16.927 16.1664 17.4966 15.5086L17.3548 15.3859C16.8117 16.0132 15.9878 16.5347 15.0172 16.8178L15.0697 16.9978ZM17.4966 15.5086C18.1009 14.8105 18.3143 14.4025 18.389 13.9823L18.2043 13.9494C18.1385 14.3199 17.9514 14.6967 17.3548 15.3859L17.4966 15.5086ZM18.389 13.9823C18.4258 13.7746 18.4266 13.5592 18.4224 13.3097C18.4182 13.0587 18.4089 12.7698 18.4227 12.4054L18.2353 12.3982C18.2213 12.7691 18.2308 13.0645 18.2349 13.3129C18.2392 13.5628 18.2377 13.7617 18.2043 13.9494L18.389 13.9823ZM18.4227 12.4054C18.4403 11.9431 18.5387 11.538 18.6647 11.1803L18.4879 11.1179C18.3572 11.489 18.2538 11.9129 18.2353 12.3982L18.4227 12.4054ZM18.6647 11.1803L18.6955 11.093L18.5187 11.0306L18.4879 11.1179L18.6647 11.1803ZM18.6193 11.1548L18.7114 11.1427L18.6869 10.9568L18.5949 10.9688L18.6193 11.1548ZM18.7112 11.1427C19.5362 11.0356 20.296 10.8239 20.6981 10.5644L20.5964 10.4069C20.2307 10.643 19.5054 10.8505 18.6871 10.9567L18.7112 11.1427ZM20.7387 10.4653C20.6054 9.86588 20.0454 9.41878 19.3464 9.08934L19.2665 9.25891C19.9548 9.58338 20.4425 9.99666 20.5557 10.506L20.7387 10.4653ZM19.3464 9.08934L19.2804 9.05815L19.2004 9.22771L19.2665 9.25891L19.3464 9.08934ZM19.3316 9.12166L19.3151 9.05049L19.1325 9.09301L19.149 9.1642L19.3316 9.12166ZM19.3151 9.05049C19.0856 8.06521 18.3122 7.42492 17.3138 7.40418L17.3098 7.59164C18.2201 7.61054 18.9219 8.1888 19.1325 9.09301L19.3151 9.05049ZM17.7894 8.75848C17.8289 8.75845 17.8679 8.76451 17.9054 8.77646L17.9624 8.59786C17.9064 8.57999 17.848 8.57093 17.7893 8.57098L17.7894 8.75848ZM17.9054 8.77646C18.0028 8.80762 18.0839 8.87698 18.1307 8.96988L18.2982 8.88551C18.2289 8.74815 18.1083 8.6445 17.9624 8.59786L17.9054 8.77646ZM18.1307 8.96988C18.1776 9.06285 18.1861 9.17176 18.1539 9.27256L18.3325 9.32963C18.3795 9.18253 18.3673 9.0228 18.2982 8.88551L18.1307 8.96988ZM18.1539 9.27256C18.138 9.32244 18.1125 9.36869 18.0791 9.40875L18.2231 9.52885C18.2721 9.47016 18.3092 9.40247 18.3325 9.32963L18.1539 9.27256ZM18.0791 9.40875C18.0458 9.44878 18.0051 9.48169 17.9595 9.50578L18.047 9.67153C18.1144 9.636 18.1742 9.58753 18.2231 9.52885L18.0791 9.40875ZM17.9595 9.50578C17.9139 9.52978 17.8644 9.5445 17.8136 9.5491L17.8305 9.73585C17.9061 9.729 17.9797 9.70706 18.047 9.67153L17.9595 9.50578ZM17.8136 9.5491C17.7629 9.55369 17.7119 9.54806 17.6636 9.5326L17.6065 9.71119C17.6788 9.73425 17.7549 9.7426 17.8305 9.73585L17.8136 9.5491ZM17.6636 9.5326C17.5662 9.50147 17.485 9.4321 17.4383 9.33916L17.2708 9.42356C17.34 9.56091 17.4607 9.6646 17.6065 9.71119L17.6636 9.5326ZM17.4383 9.33916C17.3915 9.24619 17.3829 9.1373 17.4151 9.03651L17.2365 8.97943C17.1895 9.12653 17.2016 9.28624 17.2708 9.42356L17.4383 9.33916ZM17.4151 9.03651C17.441 8.95567 17.4914 8.88518 17.5588 8.83523L17.4473 8.68453C17.348 8.75804 17.2742 8.86137 17.2365 8.97943L17.4151 9.03651ZM17.5588 8.83523C17.6263 8.7853 17.7071 8.75855 17.7894 8.75848L17.7894 8.57098C17.6664 8.57109 17.5466 8.61101 17.4473 8.68453L17.5588 8.83523Z" fill="black"/>
</g>
</g>
<defs>
<clipPath id="clip0_872_1842">
<rect width="24" height="24" fill="white"/>
</clipPath>
</defs>
</svg>
