<svg width="24" height="24" viewBox="0 0 24 24" fill="none" xmlns="http://www.w3.org/2000/svg">
<g clip-path="url(#clip0_872_2312)">
<path d="M18.375 0H5.625C2.5184 0 0 2.5184 0 5.625V18.375C0 21.4816 2.5184 24 5.625 24H18.375C21.4816 24 24 21.4816 24 18.375V5.625C24 2.5184 21.4816 0 18.375 0Z" fill="#F4F2ED"/>
<path d="M20.8147 15.3452C20.8147 15.3452 20.7854 15.1681 20.7683 15.1697L17.5105 15.4797C17.2513 15.5044 17.05 15.7083 17.0318 15.9644L16.9423 17.2296L14.4219 17.4069L14.2504 16.2603C14.2123 16.0053 13.9864 15.8131 13.725 15.8131H10.2867C10.0254 15.8131 9.79954 16.0053 9.76139 16.2603L9.58983 17.4069L7.06948 17.2296L6.97998 15.9644C6.96179 15.7082 6.76046 15.5043 6.50124 15.4796L3.24183 15.1697C3.22499 15.1681 3.21265 15.3454 3.19581 15.3454L3.19141 16.0406L5.95182 16.4797L6.04222 17.7561C6.0605 18.0144 6.27191 18.2234 6.5341 18.242L10.0052 18.4862C10.0184 18.487 10.0313 18.4876 10.0443 18.4876C10.3051 18.4876 10.5306 18.2952 10.5688 18.0402L10.7451 16.8605H13.2667L13.443 18.0402C13.4812 18.2951 13.7069 18.4875 13.9681 18.4875C13.9809 18.4875 13.9936 18.487 14.0062 18.4862L17.4778 18.242C17.7398 18.2234 17.9513 18.0144 17.9696 17.7561L18.0599 16.4797L20.8192 16.0387L20.8147 15.3452Z" fill="white"/>
<path d="M3.19517 10.1023V14.3215V14.8574V15.3451C3.2049 15.3452 3.21462 15.3456 3.22426 15.3464L6.48331 15.6563C6.65403 15.6726 6.78782 15.808 6.79971 15.9768L6.90019 17.3956L9.74306 17.5957L9.93891 16.2862C9.96431 16.1164 10.112 15.9906 10.2862 15.9906H13.7245C13.8985 15.9906 14.0463 16.1164 14.0716 16.2862L14.2674 17.5957L17.1104 17.3956L17.2108 15.9768C17.2228 15.808 17.3565 15.6727 17.5272 15.6563L20.785 15.3464C20.7947 15.3456 20.8043 15.3452 20.814 15.3451V14.9268L20.8154 14.9263V10.1023H20.8274C21.2592 9.55884 21.6587 8.98619 22.0418 8.37526C21.533 7.52102 20.9095 6.75761 20.2432 6.05032C19.6252 6.35713 19.0249 6.70469 18.4579 7.07453C18.1742 6.79642 17.8546 6.56891 17.5407 6.33111C17.2324 6.08682 16.8848 5.90772 16.5552 5.69904C16.6533 4.97826 16.7018 4.26867 16.7213 3.52808C15.8708 3.10594 14.9639 2.82605 14.0465 2.625C13.6802 3.23212 13.3453 3.88958 13.0536 4.53232C12.7076 4.47531 12.3601 4.45417 12.0121 4.45009V4.44955C12.0097 4.44955 12.0074 4.45009 12.0053 4.45009C12.0032 4.45009 12.0009 4.44955 11.9988 4.44955V4.45009C11.6501 4.45417 11.3029 4.47531 10.9568 4.53232C10.6653 3.88958 10.3305 3.23212 9.96366 2.625C9.04672 2.82605 8.13967 3.10594 7.28925 3.52808C7.3087 4.26867 7.35723 4.97826 7.45565 5.69904C7.12538 5.90772 6.77827 6.08682 6.46981 6.33111C6.15637 6.56891 5.83629 6.79642 5.55248 7.07453C4.98551 6.70469 4.3854 6.35713 3.76719 6.05032C3.10081 6.75761 2.47774 7.52102 1.96875 8.37526C2.35169 8.98619 2.75146 9.55884 3.1831 10.1023H3.19517Z" fill="#478CBF"/>
<path d="M17.89 16.3172L17.789 17.7436C17.7769 17.9155 17.6382 18.0523 17.4639 18.0647L13.9924 18.309C13.984 18.3096 13.9755 18.3099 13.9671 18.3099C13.7946 18.3099 13.6458 18.185 13.6203 18.0142L13.4212 16.6827H10.5887L10.3896 18.0142C10.3629 18.1933 10.2004 18.3222 10.0175 18.309L6.54602 18.0647C6.3717 18.0523 6.23305 17.9155 6.22089 17.7436L6.11996 16.3172L3.18945 16.0386C3.1908 16.3492 3.19486 16.6895 3.19486 16.7573C3.19486 19.8096 7.12101 21.2768 11.999 21.2936H12.0049H12.0109C16.8889 21.2768 20.8137 19.8096 20.8137 16.7573C20.8137 16.6883 20.818 16.3494 20.8194 16.0386L17.89 16.3172Z" fill="#478CBF"/>
<path d="M9.34965 12.2305C9.34965 13.3006 8.47042 14.1676 7.38563 14.1676C6.30138 14.1676 5.42188 13.3006 5.42188 12.2305C5.42188 11.161 6.30138 10.2944 7.38563 10.2944C8.47042 10.2944 9.34965 11.161 9.34965 12.2305Z" fill="white"/>
<path d="M8.87689 12.3453C8.87689 13.0551 8.29352 13.6305 7.57321 13.6305C6.85326 13.6305 6.26953 13.0551 6.26953 12.3453C6.26953 11.6354 6.85326 11.0596 7.57321 11.0596C8.29352 11.0596 8.87689 11.6354 8.87689 12.3453Z" fill="#414042"/>
<path d="M12.0052 14.3439C11.656 14.3439 11.373 14.0901 11.373 13.7772V11.9941C11.373 11.6816 11.656 11.4275 12.0052 11.4275C12.3543 11.4275 12.6379 11.6816 12.6379 11.9941V13.7772C12.6379 14.0901 12.3543 14.3439 12.0052 14.3439Z" fill="white"/>
<path d="M14.6621 12.2305C14.6621 13.3006 15.5414 14.1676 16.6264 14.1676C17.7105 14.1676 18.59 13.3006 18.59 12.2305C18.59 11.161 17.7105 10.2944 16.6264 10.2944C15.5414 10.2944 14.6621 11.161 14.6621 12.2305Z" fill="white"/>
<path d="M15.1348 12.3453C15.1348 13.0551 15.718 13.6305 16.4378 13.6305C17.1583 13.6305 17.7415 13.0551 17.7415 12.3453C17.7415 11.6354 17.1583 11.0596 16.4378 11.0596C15.718 11.0596 15.1348 11.6354 15.1348 12.3453Z" fill="#414042"/>
</g>
<defs>
<clipPath id="clip0_872_2312">
<rect width="24" height="24" fill="white"/>
</clipPath>
</defs>
</svg>
