<svg width="24" height="24" viewBox="0 0 24 24" fill="none" xmlns="http://www.w3.org/2000/svg">
<g clip-path="url(#clip0_872_2361)">
<path d="M18.375 0H5.625C2.5184 0 0 2.5184 0 5.625V18.375C0 21.4816 2.5184 24 5.625 24H18.375C21.4816 24 24 21.4816 24 18.375V5.625C24 2.5184 21.4816 0 18.375 0Z" fill="#F4F2ED"/>
<path d="M12 5.67195L7.1943 5.13971L3.5625 3.5625H7.7811L12 5.67223" fill="#FBC707"/>
<path d="M12 5.67195L16.9158 5.24977L20.4375 3.5625H16.2186L12 5.67223" fill="#FBC707"/>
<path d="M12 18.3283L16.5856 18.4933L20.4375 20.4377H16.2186L12 18.3279" fill="#F68712"/>
<path d="M12 18.3283H7.37772L3.5625 20.4377H7.7811L12 18.3279" fill="#F25C19"/>
<path d="M5.6718 12.0001V16.4389L3.5625 20.4377V16.2189L5.6718 12.0001Z" fill="#FFF200"/>
<path d="M5.6718 12.0002L5.32336 7.59767L3.5625 3.5625V7.7812L5.6718 12.0002Z" fill="#FFF200"/>
<path d="M18.3281 12.0002L18.7869 7.37755L20.4378 3.5625V7.7812L18.3281 12.0002Z" fill="#F1471D"/>
<path d="M18.3281 12.0001L18.7136 16.9525L20.4378 20.4377V16.2189L18.3281 12.0001Z" fill="#F1471D"/>
<path d="M3.5625 3.5625L12 5.67195L10.6427 11.0462L5.6718 12.0002L3.5625 3.56295" fill="#FAB20B"/>
<path d="M20.4375 3.5625L18.3278 12.0002L12.6603 10.9725L12 5.67169L20.4375 3.56295" fill="#F47216"/>
<path d="M20.4375 20.4379L12 18.3284L12.9538 12.7342L18.3278 12.0007L20.4375 20.4373" fill="#F25C19"/>
<path d="M3.5625 20.4378L5.6718 12.0002L10.7527 13.1373L12 18.3284L3.5625 20.4373" fill="#F89C0E"/>
<path d="M12.0001 5.67188L5.67188 12.0001L12.0001 18.3282L18.3279 12.0001L12.0001 5.67216" fill="#F68712"/>
</g>
<defs>
<clipPath id="clip0_872_2361">
<rect width="24" height="24" fill="white"/>
</clipPath>
</defs>
</svg>
