<svg width="24" height="24" viewBox="0 0 24 24" fill="none" xmlns="http://www.w3.org/2000/svg">
<g clip-path="url(#clip0_872_2376)">
<path d="M18.375 0H5.625C2.5184 0 0 2.5184 0 5.625V18.375C0 21.4816 2.5184 24 5.625 24H18.375C21.4816 24 24 21.4816 24 18.375V5.625C24 2.5184 21.4816 0 18.375 0Z" fill="#F4F2ED"/>
<path d="M5.32617 5.2478H18.7163V18.7349H5.32617V5.2478Z" fill="#00CC33"/>
<path d="M3.09375 3H7.55713L12.0205 5.24784L5.32544 11.9914L3.09375 7.4957V3Z" fill="#FFCC33"/>
<path d="M12.0215 5.24784L16.4848 3H20.9482V7.4957L18.7165 11.9914L12.0215 5.24784Z" fill="#FF3366"/>
<path d="M5.32544 11.9915L12.0205 18.735L7.55713 20.9828H3.09375V16.4871L5.32544 11.9915Z" fill="#3333FF"/>
<path d="M18.7165 11.9915L20.9482 16.4871V20.9828H16.4848L12.0215 18.735L18.7165 11.9915Z" fill="#00CCFF"/>
</g>
<defs>
<clipPath id="clip0_872_2376">
<rect width="24" height="24" fill="white"/>
</clipPath>
</defs>
</svg>
