<svg width="24" height="24" viewBox="0 0 24 24" fill="none" xmlns="http://www.w3.org/2000/svg">
<g clip-path="url(#clip0_872_3179)">
<path d="M18.375 0H5.625C2.5184 0 0 2.5184 0 5.625V18.375C0 21.4816 2.5184 24 5.625 24H18.375C21.4816 24 24 21.4816 24 18.375V5.625C24 2.5184 21.4816 0 18.375 0Z" fill="#F4F2ED"/>
<path d="M20.2541 15.7326V7.00711L12.6921 2.64439V5.99884L15.6587 7.70514C15.7751 7.76332 15.7751 7.93782 15.6587 7.99599L12.1298 10.0319C12.0328 10.0901 11.8971 10.0901 11.8002 10.0319L8.27118 7.97661C8.15484 7.91844 8.15484 7.74393 8.27118 7.68576L11.2379 5.97945V2.625L3.67578 6.98772V15.7326L6.58426 14.065V10.633C6.58426 10.5167 6.71998 10.4198 6.83633 10.4973L10.3652 12.5333C10.4623 12.5914 10.5398 12.7077 10.5398 12.8241V16.8959C10.5398 17.0123 10.4041 17.1092 10.2877 17.0317L7.32107 15.3254L4.41259 16.9928L11.9746 21.3556L19.5367 16.9928L16.6282 15.3254L13.6616 17.0317C13.5646 17.0899 13.4095 17.0123 13.4095 16.8959V12.8241C13.4095 12.7077 13.4677 12.5914 13.584 12.5333L17.113 10.4973C17.2099 10.4392 17.365 10.5167 17.365 10.633V14.065L20.2541 15.7326Z" fill="#4C4C4C"/>
<path d="M11.9551 21.375L19.5171 17.0123L16.6086 15.3448L13.642 17.051C13.5451 17.1092 13.3899 17.0316 13.3899 16.9153V12.8434C13.3899 12.7271 13.4481 12.6107 13.5645 12.5526L17.0934 10.5166C17.1904 10.4585 17.3455 10.536 17.3455 10.6524V14.0844L20.2539 15.7519V7.00708L11.9551 11.7964V21.375Z" fill="black"/>
<path d="M12.6727 2.625V5.97945L15.6393 7.68576C15.7557 7.74393 15.7557 7.91843 15.6393 7.97661L12.1104 10.0125C12.0135 10.0707 11.8777 10.0707 11.7808 10.0125L8.27118 7.97661C8.15484 7.91843 8.15484 7.74393 8.27118 7.68576L11.2379 5.97945V2.625L3.67578 6.98772L11.9746 11.7771L20.2735 6.98772L12.6727 2.625Z" fill="#808080"/>
<path d="M10.2488 17.0316L7.28215 15.3254L4.37367 16.9929L11.9357 21.3555V11.777L3.65625 7.00708V15.7519L6.56473 14.0844V10.6524C6.56473 10.536 6.70046 10.4391 6.8168 10.5166L10.3458 12.5526C10.4427 12.6107 10.5203 12.7271 10.5203 12.8434V16.9153C10.5008 17.0122 10.3652 17.0898 10.2488 17.0316Z" fill="#4C4C4C"/>
</g>
<defs>
<clipPath id="clip0_872_3179">
<rect width="24" height="24" fill="white"/>
</clipPath>
</defs>
</svg>
