<svg width="24" height="24" viewBox="0 0 24 24" fill="none" xmlns="http://www.w3.org/2000/svg">
<g clip-path="url(#clip0_872_3185)">
<path d="M18.375 0H5.625C2.5184 0 0 2.5184 0 5.625V18.375C0 21.4816 2.5184 24 5.625 24H18.375C21.4816 24 24 21.4816 24 18.375V5.625C24 2.5184 21.4816 0 18.375 0Z" fill="#0E1128"/>
<path fill-rule="evenodd" clip-rule="evenodd" d="M17.9203 13.4177C17.7498 14.2356 16.9917 16.3353 14.5738 17.4722L13.603 16.3852L11.9647 18.0248C11.0324 18.0123 10.1157 17.7855 9.28622 17.3619C8.45667 16.9383 7.73677 16.3295 7.18275 15.5831C7.35676 15.6371 7.53648 15.6707 7.71829 15.6835C7.98667 15.6884 8.27706 15.5904 8.27706 15.1418V10.7174C8.28083 10.6037 8.25785 10.4906 8.20995 10.3873C8.16205 10.284 8.09057 10.1932 8.0012 10.1222C7.91182 10.0513 7.80703 10.0022 7.69518 9.97862C7.58333 9.95518 7.46753 9.95809 7.35698 9.98706C6.59831 10.1611 5.99247 12.0453 5.99247 12.0453C5.98397 11.1753 6.16588 10.3141 6.52557 9.52112C6.88526 8.72827 7.4141 8.02289 8.07532 7.45406C8.94562 6.70465 10.011 6.2154 11.1485 6.04272C10.3202 6.51255 9.85492 7.27878 9.85492 7.92146C9.85492 8.95607 10.481 8.8307 10.6661 8.67855V14.6501C10.6977 14.725 10.7388 14.7956 10.7885 14.8601C10.8712 14.974 10.9801 15.0666 11.1062 15.1302C11.2322 15.1937 11.3716 15.2263 11.5129 15.2252C12.1395 15.2252 12.9526 14.5131 12.9526 14.5131V9.67965C12.9526 9.18794 12.5803 8.59395 12.2074 8.39007C12.2074 8.39007 12.8976 8.26836 13.4301 8.67429C13.5301 8.55264 13.6364 8.43624 13.7485 8.32556C14.9914 7.11142 16.1621 6.76573 17.1372 6.59289C17.1372 6.59289 15.3643 7.97988 15.3643 9.841C15.3643 11.2249 15.4004 14.6002 15.4004 14.6002C16.0582 15.2326 17.0364 14.3191 17.9203 13.4177Z" fill="white"/>
<path fill-rule="evenodd" clip-rule="evenodd" d="M12.0441 2.15625C10.0884 2.15625 8.17675 2.73355 6.5507 3.81517C4.92465 4.89678 3.65731 6.43412 2.90892 8.23277C2.16054 10.0314 1.96472 12.0106 2.34625 13.9201C2.72777 15.8295 3.6695 17.5835 5.05233 18.9601C6.43517 20.3367 8.19701 21.2742 10.1151 21.654C12.0331 22.0338 14.0213 21.8389 15.828 21.0938C17.6348 20.3488 19.179 19.0871 20.2655 17.4684C21.352 15.8497 21.9319 13.9465 21.9319 11.9997C21.9319 9.38906 20.8901 6.88533 19.0358 5.03932C17.1815 3.19332 14.6665 2.15625 12.0441 2.15625ZM12.0441 21.4488C10.1666 21.4488 8.3314 20.8945 6.77038 19.8562C5.20937 18.8178 3.99272 17.3419 3.2743 15.6152C2.55586 13.8884 2.36792 11.9884 2.73423 10.1553C3.10054 8.32224 4.00466 6.63847 5.33224 5.31694C6.65982 3.9954 8.35124 3.09545 10.1926 2.7309C12.0339 2.36635 13.9426 2.55357 15.6771 3.26889C17.4115 3.98421 18.894 5.19549 19.937 6.74956C20.9798 8.30363 21.5365 10.1307 21.5363 11.9997C21.5363 14.5059 20.5363 16.9095 18.7562 18.6817C16.976 20.4538 14.5616 21.4493 12.0441 21.4493V21.4488Z" fill="white"/>
</g>
<defs>
<clipPath id="clip0_872_3185">
<rect width="24" height="24" fill="white"/>
</clipPath>
</defs>
</svg>
