<svg width="24" height="24" viewBox="0 0 24 24" fill="none" xmlns="http://www.w3.org/2000/svg">
<g clip-path="url(#clip0_872_2883)">
<path d="M18.375 0H5.625C2.5184 0 0 2.5184 0 5.625V18.375C0 21.4816 2.5184 24 5.625 24H18.375C21.4816 24 24 21.4816 24 18.375V5.625C24 2.5184 21.4816 0 18.375 0Z" fill="#F4F2ED"/>
<path d="M16.9664 8.47643L15.7094 9.7335C17.7664 11.7905 17.7664 15.1045 15.7094 17.1234C13.6523 19.1804 10.3383 19.1804 8.31942 17.1234C6.26242 15.0665 6.26242 11.7524 8.31942 9.7335L11.5763 6.47658L12.0335 6.01947V3.5625L7.1195 8.47643C4.37683 11.2191 4.37683 15.6379 7.1195 18.3805C9.86213 21.1232 14.2809 21.1232 16.9664 18.3805C19.7091 15.6188 19.7091 11.2191 16.9664 8.47643Z" fill="#EE4C2C"/>
<path d="M14.51 8.17171C15.0148 8.17171 15.4241 7.7624 15.4241 7.25749C15.4241 6.75258 15.0148 6.34326 14.51 6.34326C14.005 6.34326 13.5957 6.75258 13.5957 7.25749C13.5957 7.7624 14.005 8.17171 14.51 8.17171Z" fill="#EE4C2C"/>
</g>
<defs>
<clipPath id="clip0_872_2883">
<rect width="24" height="24" fill="white"/>
</clipPath>
</defs>
</svg>
