<svg width="24" height="24" viewBox="0 0 24 24" fill="none" xmlns="http://www.w3.org/2000/svg">
<g clip-path="url(#clip0_872_3160)">
<path d="M18.375 0H5.625C2.5184 0 0 2.5184 0 5.625V18.375C0 21.4816 2.5184 24 5.625 24H18.375C21.4816 24 24 21.4816 24 18.375V5.625C24 2.5184 21.4816 0 18.375 0Z" fill="#F4F2ED"/>
<path d="M11.6464 21.4688L8.49591 19.5834V8.46656L3.75 11.293L3.76153 7.08234L11.6464 2.4375V21.4688ZM12.3547 2.4375V21.4688L15.5056 19.5834V14.2295L17.884 15.6464L17.8699 11.9843L15.5056 10.5926V8.46656L20.25 11.293L20.2386 7.08234L12.3547 2.4375Z" fill="#FF6F00"/>
</g>
<defs>
<clipPath id="clip0_872_3160">
<rect width="24" height="24" fill="white"/>
</clipPath>
</defs>
</svg>
