<svg width="32" height="32" viewBox="0 0 32 32" fill="none" xmlns="http://www.w3.org/2000/svg">
<path d="M10.6667 8H10.6801M21.3334 24H21.3467M25.3334 6.66667V25.3333C25.3334 26.0406 25.0525 26.7189 24.5524 27.219C24.0523 27.719 23.374 28 22.6667 28H9.33341C8.62617 28 7.94789 27.719 7.4478 27.219C6.9477 26.7189 6.66675 26.0406 6.66675 25.3333V6.66667C6.66675 5.95942 6.9477 5.28115 7.4478 4.78105C7.94789 4.28095 8.62617 4 9.33341 4H22.6667C23.374 4 24.0523 4.28095 24.5524 4.78105C25.0525 5.28115 25.3334 5.95942 25.3334 6.66667Z" stroke="#737373" stroke-width="2" stroke-linecap="round" stroke-linejoin="round"/>
<path d="M15.6667 18.8161L13.4934 19.9534C13.429 19.9865 13.3568 20.0012 13.2846 19.9958C13.2124 19.9903 13.1431 19.965 13.0845 19.9226C13.0258 19.8802 12.98 19.8224 12.9521 19.7556C12.9243 19.6888 12.9155 19.6156 12.9267 19.5441L13.3401 17.1334L11.5841 15.4267C11.5317 15.376 11.4946 15.3115 11.477 15.2407C11.4595 15.1698 11.4622 15.0955 11.4848 15.0262C11.5075 14.9568 11.5492 14.8952 11.6051 14.8484C11.6611 14.8016 11.7291 14.7714 11.8014 14.7614L14.2281 14.4094L15.3147 12.2174C15.3472 12.1519 15.3972 12.0968 15.4593 12.0582C15.5214 12.0197 15.593 11.9993 15.6661 11.9993C15.7391 11.9993 15.8108 12.0197 15.8728 12.0582C15.9349 12.0968 15.985 12.1519 16.0174 12.2174L17.1027 14.4094L19.5294 14.7614C19.6018 14.7712 19.67 14.8012 19.7261 14.8479C19.7823 14.8947 19.8241 14.9562 19.8469 15.0256C19.8698 15.095 19.8726 15.1695 19.8551 15.2404C19.8376 15.3113 19.8005 15.3759 19.7481 15.4267L17.9907 17.1334L18.4041 19.5427C18.4166 19.6146 18.4088 19.6885 18.3814 19.7561C18.354 19.8237 18.3081 19.8823 18.249 19.9251C18.19 19.9679 18.1201 19.9933 18.0473 19.9983C17.9745 20.0033 17.9018 19.9877 17.8374 19.9534L15.6667 18.8161Z" stroke="#737373" stroke-width="2" stroke-linecap="round" stroke-linejoin="round"/>
</svg>
