<svg width="32" height="32" viewBox="0 0 32 32" fill="none" xmlns="http://www.w3.org/2000/svg">
<path d="M26 4H6C5.46957 4 4.96086 4.21071 4.58579 4.58579C4.21071 4.96086 4 5.46957 4 6V26C4 26.5304 4.21071 27.0391 4.58579 27.4142C4.96086 27.7893 5.46957 28 6 28H26C26.5304 28 27.0391 27.7893 27.4142 27.4142C27.7893 27.0391 28 26.5304 28 26V6C28 5.46957 27.7893 4.96086 27.4142 4.58579C27.0391 4.21071 26.5304 4 26 4Z" stroke="#737373" stroke-width="2" stroke-linecap="round" stroke-linejoin="round"/>
<path d="M28 24.0001L20.6667 17.3334L14 23.3334L9.33333 19.3334L4 23.3334M12 15.3334C12.8841 15.3334 13.7319 14.9822 14.357 14.3571C14.9821 13.732 15.3333 12.8841 15.3333 12.0001C15.3333 11.116 14.9821 10.2682 14.357 9.64306C13.7319 9.01794 12.8841 8.66675 12 8.66675C11.1159 8.66675 10.2681 9.01794 9.64298 9.64306C9.01786 10.2682 8.66667 11.116 8.66667 12.0001C8.66667 12.8841 9.01786 13.732 9.64298 14.3571C10.2681 14.9822 11.1159 15.3334 12 15.3334Z" stroke="#737373" stroke-width="2" stroke-linecap="round" stroke-linejoin="round"/>
</svg>
