<svg width="32" height="32" viewBox="0 0 32 32" fill="none" xmlns="http://www.w3.org/2000/svg">
<path fill-rule="evenodd" clip-rule="evenodd" d="M21.558 6.78725C21.5581 6.14193 21.3787 5.5093 21.04 4.96002C20.7013 4.41074 20.2166 3.96643 19.6399 3.67673C19.0633 3.38703 18.4175 3.26334 17.7746 3.31947C17.1317 3.3756 16.5171 3.60935 15.9994 3.99461L7.00076 10.6914H3.48066C2.55753 10.6914 1.67221 11.0581 1.01946 11.7109C0.366711 12.3636 0 13.2489 0 14.172V17.8314C0 18.7545 0.366711 19.6398 1.01946 20.2926C1.67221 20.9453 2.55753 21.312 3.48066 21.312H7.00076L15.9994 28.0088C16.5171 28.3941 17.1317 28.6278 17.7746 28.684C18.4175 28.7401 19.0633 28.6164 19.6399 28.3267C20.2166 28.037 20.7013 27.5927 21.04 27.0434C21.3787 26.4941 21.5581 25.8615 21.558 25.2162V6.78725ZM19.2376 6.78725V25.2162C19.2376 25.4316 19.1776 25.6428 19.0643 25.8261C18.951 26.0094 18.789 26.1575 18.5962 26.2539C18.4035 26.3503 18.1878 26.3911 17.9732 26.3717C17.7586 26.3524 17.5536 26.2736 17.3812 26.1443L8.07744 19.2213C7.87661 19.0707 7.63235 18.9893 7.38131 18.9893H3.48066C3.17295 18.9893 2.87784 18.867 2.66026 18.6495C2.44267 18.4319 2.32044 18.1368 2.32044 17.8291V14.172C2.32044 13.8643 2.44267 13.5692 2.66026 13.3516C2.87784 13.1341 3.17295 13.0118 3.48066 13.0118H7.38479C7.63583 13.0118 7.8801 12.9304 8.08093 12.7798L17.3882 5.85444C17.5606 5.72516 17.7655 5.64643 17.9801 5.62708C18.1947 5.60773 18.4105 5.64852 18.6032 5.74488C18.7959 5.84124 18.958 5.98936 19.0713 6.17265C19.1846 6.35594 19.2446 6.56715 19.2446 6.78261L19.2376 6.78725Z" fill="#737373"/>
<path fill-rule="evenodd" clip-rule="evenodd" d="M24.3948 13.2172C24.8081 13.5253 25.1438 13.9257 25.375 14.3865C25.6063 14.8473 25.7267 15.3557 25.7267 15.8712C25.7267 16.3868 25.6063 16.8952 25.375 17.356C25.1438 17.8168 24.8081 18.2171 24.3948 18.5252C24.2729 18.6167 24.1702 18.7312 24.0925 18.8623C24.0149 18.9934 23.9639 19.1385 23.9423 19.2893C23.9208 19.4402 23.9292 19.5938 23.967 19.7414C24.0048 19.889 24.0713 20.0277 24.1627 20.1496C24.2541 20.2714 24.3687 20.3741 24.4998 20.4518C24.6309 20.5294 24.776 20.5804 24.9268 20.602C25.0776 20.6235 25.2312 20.6152 25.3788 20.5773C25.5264 20.5395 25.6651 20.473 25.787 20.3816C26.4892 19.8574 27.0594 19.1766 27.4522 18.3933C27.8449 17.61 28.0495 16.7458 28.0495 15.8695C28.0495 14.9932 27.8449 14.129 27.4522 13.3457C27.0594 12.5624 26.4892 11.8816 25.787 11.3574C25.6651 11.266 25.5264 11.1995 25.3788 11.1617C25.2312 11.1239 25.0776 11.1155 24.9268 11.137C24.776 11.1586 24.6309 11.2096 24.4998 11.2872C24.3687 11.3649 24.2541 11.4676 24.1627 11.5895C24.0713 11.7113 24.0048 11.85 23.967 11.9976C23.9292 12.1452 23.9208 12.2988 23.9423 12.4497C23.9639 12.6005 24.0149 12.7456 24.0925 12.8767C24.1702 13.0078 24.2729 13.1223 24.3948 13.2138V13.2172Z" fill="#737373"/>
<path fill-rule="evenodd" clip-rule="evenodd" d="M25.1729 9.19702C26.5039 9.73472 27.6439 10.6578 28.4467 11.8479C29.2495 13.038 29.6784 14.4409 29.6784 15.8764C29.6784 17.312 29.2495 18.7148 28.4467 19.9049C27.6439 21.095 26.5039 22.0181 25.1729 22.5558C25.0306 22.6122 24.9009 22.6962 24.7913 22.803C24.6817 22.9097 24.5942 23.0371 24.534 23.1778C24.4738 23.3185 24.442 23.4697 24.4405 23.6227C24.439 23.7757 24.4677 23.9275 24.5251 24.0694C24.5825 24.2112 24.6674 24.3403 24.7749 24.4492C24.8823 24.5581 25.0103 24.6447 25.1514 24.704C25.2925 24.7632 25.4439 24.794 25.5969 24.7945C25.75 24.795 25.9016 24.7652 26.043 24.7068C27.8025 23.9958 29.3095 22.7753 30.3706 21.202C31.4318 19.6286 31.9987 17.7741 31.9987 15.8764C31.9987 13.9787 31.4318 12.1242 30.3706 10.5508C29.3095 8.9775 27.8025 7.75703 26.043 7.04598C25.7583 6.93303 25.4404 6.93728 25.1587 7.05781C24.8771 7.17834 24.6546 7.40537 24.5397 7.68936C24.4248 7.97335 24.4269 8.29125 24.5455 8.5737C24.6641 8.85615 24.8897 9.08022 25.1729 9.19702Z" fill="#737373"/>
</svg>
