<svg width="32" height="32" viewBox="0 0 32 32" fill="none" xmlns="http://www.w3.org/2000/svg">
<g clip-path="url(#clip0_289_68)">
<path fill-rule="evenodd" clip-rule="evenodd" d="M22.3691 6.43943C22.3687 5.77014 22.1824 5.1141 21.8309 4.54453C21.4795 3.97496 20.9766 3.51426 20.3785 3.21385C19.7805 2.91343 19.1107 2.78512 18.4439 2.84323C17.7771 2.90134 17.1396 3.14358 16.6025 3.54292L7.26414 10.4904H3.6116C2.65375 10.4904 1.73512 10.8709 1.05781 11.5483C0.380507 12.2256 0 13.1442 0 14.102V17.899C0 18.8569 0.380507 19.7755 1.05781 20.4528C1.73512 21.1301 2.65375 21.5106 3.6116 21.5106H7.26414L16.6025 28.4594C17.1397 28.8591 17.7774 29.1017 18.4445 29.1599C19.1116 29.2181 19.7817 29.0898 20.38 28.7892C20.9783 28.4886 21.4813 28.0276 21.8328 27.4576C22.1842 26.8877 22.3703 26.2313 22.3703 25.5617L22.3691 6.43943ZM19.9613 6.43943V25.5617C19.9613 25.7852 19.8991 26.0044 19.7815 26.1946C19.664 26.3847 19.4958 26.5384 19.2958 26.6384C19.0959 26.7384 18.872 26.7807 18.6493 26.7607C18.4267 26.7406 18.214 26.6589 18.0351 26.5248L8.37771 19.3377C8.16933 19.1814 7.91587 19.0969 7.65539 19.0969H3.6116C3.29232 19.0969 2.98611 18.9701 2.76034 18.7443C2.53457 18.5185 2.40773 18.2123 2.40773 17.893V14.102C2.40773 13.7828 2.53457 13.4765 2.76034 13.2508C2.98611 13.025 3.29232 12.8982 3.6116 12.8982H7.66262C7.9231 12.8982 8.17655 12.8137 8.38494 12.6574L18.0424 5.47031C18.2212 5.33617 18.4339 5.25448 18.6566 5.2344C18.8792 5.21433 19.1031 5.25665 19.3031 5.35664C19.503 5.45662 19.6712 5.61031 19.7888 5.8005C19.9063 5.99068 19.9685 6.20984 19.9685 6.43341L19.9613 6.43943Z" fill="#737373"/>
<path fill-rule="evenodd" clip-rule="evenodd" d="M24.7359 13.0728L29.8331 19.8698C29.9279 19.9963 30.0468 20.1029 30.1828 20.1834C30.3188 20.264 30.4694 20.3169 30.6259 20.3393C30.7824 20.3616 30.9418 20.353 31.0949 20.3137C31.2481 20.2745 31.392 20.2055 31.5185 20.1106C31.645 20.0158 31.7515 19.8969 31.8321 19.7609C31.9126 19.6248 31.9656 19.4743 31.9879 19.3178C32.0103 19.1613 32.0016 19.0019 31.9624 18.8487C31.9231 18.6956 31.8541 18.5517 31.7593 18.4252L26.6621 11.6282C26.4705 11.3727 26.1853 11.2039 25.8692 11.1587C25.5532 11.1136 25.2321 11.1958 24.9767 11.3874C24.7212 11.579 24.5524 11.8641 24.5072 12.1802C24.4621 12.4963 24.5443 12.8174 24.7359 13.0728Z" fill="#737373"/>
<path fill-rule="evenodd" clip-rule="evenodd" d="M29.8331 11.6282L24.7359 18.4252C24.5443 18.6806 24.4621 19.0017 24.5072 19.3178C24.5524 19.6338 24.7212 19.919 24.9767 20.1106C25.2321 20.3022 25.5532 20.3844 25.8692 20.3393C26.1853 20.2941 26.4705 20.1253 26.6621 19.8698L31.7593 13.0728C31.9508 12.8174 32.0331 12.4963 31.9879 12.1802C31.9428 11.8641 31.7739 11.579 31.5185 11.3874C31.392 11.2925 31.2481 11.2235 31.0949 11.1843C30.9418 11.145 30.7824 11.1363 30.6259 11.1587C30.3098 11.2039 30.0246 11.3727 29.8331 11.6282Z" fill="#737373"/>
</g>
<defs>
<clipPath id="clip0_289_68">
<rect width="32" height="32" fill="white"/>
</clipPath>
</defs>
</svg>
