<svg width="24" height="24" viewBox="0 0 24 24" fill="none" xmlns="http://www.w3.org/2000/svg">
<g clip-path="url(#clip0_872_1770)">
<path d="M18.375 0H5.625C2.5184 0 0 2.5184 0 5.625V18.375C0 21.4816 2.5184 24 5.625 24H18.375C21.4816 24 24 21.4816 24 18.375V5.625C24 2.5184 21.4816 0 18.375 0Z" fill="#F02E65"/>
<path fill-rule="evenodd" clip-rule="evenodd" d="M14.9949 18.0751C13.8924 18.0751 12.8589 17.7796 11.9695 17.2633C11.3021 17.6497 10.5605 17.9081 9.78197 18.017C8.19649 18.2387 6.58782 17.8215 5.30992 16.8572C4.67654 16.3799 4.14342 15.7825 3.74102 15.0992C3.33863 14.4157 3.07483 13.6597 2.96471 12.8744C2.8546 12.0891 2.90034 11.2897 3.09929 10.5219C3.29825 9.75422 3.64653 9.0333 4.12424 8.40027C4.60195 7.76723 5.19971 7.23453 5.88338 6.83261C6.56705 6.4307 7.3232 6.16744 8.10869 6.05787C8.89413 5.94832 9.69347 5.99461 10.461 6.19411C10.9908 6.33181 11.4983 6.54064 11.9699 6.81403C12.8593 6.29799 13.8926 6.00251 14.9949 6.00251C18.3288 6.00251 21.0312 8.70501 21.0312 12.0388C21.0312 15.3726 18.3288 18.0751 14.9949 18.0751ZM10.9591 7.54985L10.961 7.54826C10.1228 7.17216 9.18866 7.03506 8.26422 7.16435C6.97146 7.34513 5.80341 8.03209 5.01711 9.07407C4.23081 10.1161 3.89064 11.4277 4.07143 12.7206C4.25222 14.0133 4.93916 15.1813 5.98115 15.9676C7.02311 16.7539 8.3348 17.0941 9.62756 16.9132C10.9204 16.7325 12.0884 16.0456 12.8747 15.0036C13.661 13.9615 14.0012 12.65 13.8203 11.3572C13.737 10.7607 13.5458 10.1908 13.2618 9.67275C12.7474 8.73821 11.938 7.98881 10.9591 7.54985Z" fill="white"/>
<path d="M9.10825 9.95044C9.101 9.96825 9.00874 10.3308 8.90932 10.7607C8.80619 11.1907 8.64272 11.8694 8.55051 12.2708C8.37266 13.0064 8.26606 13.4897 8.26606 13.5537C8.26606 13.5713 8.37628 13.5857 8.51121 13.5857H8.75651L8.86651 13.0952C8.93063 12.8288 9.0728 12.2175 9.18647 11.7379C9.30021 11.2581 9.43868 10.6754 9.49212 10.4407C9.54528 10.2062 9.59862 9.99319 9.60931 9.96825C9.62009 9.93638 9.55953 9.92578 9.3748 9.92578C9.23615 9.92578 9.11522 9.93638 9.10825 9.95044ZM7.19997 11.4891L6.87305 11.8445L6.9691 11.9581C7.02223 12.022 7.16809 12.1821 7.29247 12.3135L7.51988 12.5551H8.1666L7.86108 12.2245C7.69393 12.0471 7.55533 11.8764 7.55533 11.8552C7.55533 11.8303 7.68335 11.6705 7.83973 11.4998C7.996 11.3258 8.12395 11.1764 8.12395 11.1586C8.12395 11.1444 7.98892 11.1338 7.82551 11.1338H7.53058L7.19997 11.4891ZM9.6874 11.155C9.6874 11.1658 9.74787 11.2332 9.82231 11.3078C10.0997 11.5851 10.2951 11.8197 10.2844 11.8658C10.2774 11.8907 10.1422 12.0576 9.97887 12.2317L9.68403 12.5551H10.0144L10.3449 12.5515L10.6467 12.2212C10.8139 12.0365 10.9489 11.8728 10.9489 11.8515C10.9489 11.8339 10.8068 11.6668 10.629 11.4786L10.3093 11.1338H10.0001C9.82597 11.1338 9.6874 11.1444 9.6874 11.155Z" fill="white"/>
</g>
<defs>
<clipPath id="clip0_872_1770">
<rect width="24" height="24" fill="white"/>
</clipPath>
</defs>
</svg>
