<svg width="24" height="24" viewBox="0 0 24 24" fill="none" xmlns="http://www.w3.org/2000/svg">
<g clip-path="url(#clip0_872_1980)">
<path d="M18.375 0H5.625C2.5184 0 0 2.5184 0 5.625V18.375C0 21.4816 2.5184 24 5.625 24H18.375C21.4816 24 24 21.4816 24 18.375V5.625C24 2.5184 21.4816 0 18.375 0Z" fill="#F4F2ED"/>
<path d="M4.86176 16.0959C5.01489 16.0959 5.15995 16.1322 5.23257 16.2047C5.24466 16.3177 5.14383 16.499 5.07936 16.499C5.0028 16.4708 4.93026 16.4545 4.84161 16.4545C4.47492 16.4545 4.2935 16.8335 4.2935 17.2082C4.2935 17.4419 4.3741 17.583 4.55955 17.583C4.75699 17.583 4.95847 17.4501 5.0713 17.3493C5.09951 17.3694 5.13577 17.4339 5.13577 17.5064C5.13577 17.587 5.11159 17.6636 5.03907 17.7361C4.91012 17.8651 4.69252 17.9739 4.37812 17.9739C4.01546 17.9739 3.76562 17.7684 3.76562 17.2888C3.76562 16.6601 4.18067 16.0959 4.85773 16.0959H4.86176Z" fill="#373535"/>
<path d="M6.04728 17.5629C6.24474 17.5629 6.60345 17.2163 6.7042 16.5554C6.70823 16.5151 6.71225 16.503 6.72031 16.4627C6.67599 16.4466 6.61555 16.4345 6.55501 16.4345C6.40592 16.4345 6.25279 16.4788 6.11578 16.6642C5.97476 16.8616 5.91431 17.1074 5.91431 17.3049C5.91431 17.4741 5.96266 17.5629 6.04326 17.5629H6.04728ZM5.39844 17.3815C5.39844 17.1438 5.47903 16.7287 5.78133 16.4264C6.03923 16.1604 6.35353 16.0959 6.63973 16.0959C6.82911 16.0959 7.08701 16.1563 7.24819 16.1887C7.2079 16.3659 7.11118 17.0349 7.06686 17.4218C7.04671 17.587 7.03865 17.8167 7.04671 17.9014C6.91374 17.9577 6.66389 17.9739 6.59532 17.9739C6.55913 17.9739 6.55098 17.8087 6.56316 17.6515C6.56711 17.5991 6.57524 17.5225 6.57919 17.4903C6.42204 17.7522 6.11176 17.9739 5.78536 17.9739C5.55164 17.9739 5.39844 17.7804 5.39844 17.3856V17.3815Z" fill="#373535"/>
<path d="M8.25048 16.0959C8.41569 16.0959 8.57284 16.1564 8.64546 16.2329C8.64143 16.3459 8.55278 16.5352 8.41167 16.4828C8.35122 16.4626 8.29078 16.4466 8.21018 16.4466C8.10138 16.4466 8.0087 16.4949 8.0087 16.5956C8.0087 16.6721 8.06512 16.7287 8.3351 16.918C8.5286 17.0591 8.60517 17.184 8.60517 17.3613C8.60517 17.6556 8.32704 17.9739 7.84349 17.9739C7.64604 17.9739 7.47268 17.8974 7.41627 17.8167C7.34373 17.6959 7.40015 17.4581 7.48082 17.4984C7.5856 17.5507 7.75887 17.6072 7.8999 17.6072C8.03288 17.6072 8.1175 17.5466 8.1175 17.4661C8.1175 17.3977 8.05706 17.3371 7.81125 17.1639C7.60566 17.0108 7.54119 16.8697 7.54119 16.7085C7.54119 16.3741 7.82737 16.0959 8.24645 16.0959H8.25048Z" fill="#373535"/>
<path d="M9.64105 16.0959C9.80633 16.0959 9.96346 16.1564 10.036 16.2329C10.032 16.3459 9.9434 16.5352 9.8023 16.4828C9.74183 16.4626 9.68137 16.4466 9.60083 16.4466C9.49199 16.4466 9.39937 16.4949 9.39937 16.5956C9.39937 16.6721 9.45571 16.7287 9.72571 16.918C9.91912 17.0591 9.99571 17.184 9.99571 17.3613C9.99571 17.6556 9.71755 17.9739 9.23404 17.9739C9.03658 17.9739 8.86331 17.8974 8.80689 17.8167C8.73436 17.6959 8.79078 17.4581 8.87137 17.4984C8.97614 17.5507 9.14941 17.6072 9.29045 17.6072C9.42346 17.6072 9.50802 17.5466 9.50802 17.4661C9.50802 17.3977 9.44765 17.3371 9.2018 17.1639C8.99629 17.0108 8.93182 16.8697 8.93182 16.7085C8.93182 16.3741 9.21791 16.0959 9.63712 16.0959H9.64105Z" fill="#373535"/>
<path d="M10.9106 17.5629C11.1081 17.5629 11.4668 17.2163 11.5675 16.5554C11.5715 16.5151 11.5756 16.503 11.5837 16.4627C11.5392 16.4466 11.479 16.4345 11.4184 16.4345C11.2693 16.4345 11.1162 16.4788 10.9791 16.6642C10.8382 16.8616 10.7776 17.1074 10.7776 17.3049C10.7776 17.4741 10.826 17.5629 10.9066 17.5629H10.9106ZM10.2617 17.3815C10.2617 17.1438 10.3424 16.7287 10.6446 16.4264C10.9025 16.1604 11.2168 16.0959 11.5031 16.0959C11.6924 16.0959 11.9504 16.1563 12.1116 16.1887C12.0713 16.3659 11.9745 17.0349 11.9303 17.4218C11.91 17.587 11.9021 17.8167 11.91 17.9014C11.777 17.9577 11.5272 17.9739 11.4587 17.9739C11.4225 17.9739 11.4144 17.8087 11.4265 17.6515C11.4305 17.5991 11.4386 17.5225 11.4426 17.4903C11.2855 17.7522 10.9752 17.9739 10.6487 17.9739C10.415 17.9739 10.2617 17.7804 10.2617 17.3856V17.3815Z" fill="#373535"/>
<path d="M13.0221 16.6198C13.2075 16.3216 13.4492 16.0959 13.7878 16.0959C14.0739 16.0959 14.1666 16.3619 14.1143 16.7407C14.0861 16.918 14.0377 17.1719 14.0054 17.4056C13.9772 17.6032 13.9571 17.7804 13.9612 17.9014C13.8564 17.9538 13.5501 17.9739 13.4816 17.9739C13.4533 17.9739 13.4492 17.7522 13.4856 17.5185C13.5178 17.3251 13.5863 16.9745 13.6185 16.7729C13.6388 16.6562 13.6347 16.515 13.5219 16.515C13.3726 16.515 13.0182 16.7529 12.8408 17.728C12.8286 17.8087 12.7964 17.8569 12.752 17.8852C12.6916 17.9215 12.5626 17.9538 12.3008 17.9578C12.3492 17.712 12.4258 17.2082 12.4821 16.8375C12.5344 16.499 12.5547 16.2813 12.5425 16.1967C12.6111 16.1725 12.9698 16.0959 13.0099 16.0959C13.0544 16.0959 13.0624 16.2209 13.0221 16.5232C13.0182 16.5514 13.014 16.5956 13.0099 16.6198H13.0221Z" fill="#373535"/>
<path d="M15.0698 17.5589C15.247 17.5589 15.6058 17.2284 15.7065 16.6441C15.7106 16.6118 15.7227 16.5514 15.7307 16.5151C15.6782 16.4667 15.6097 16.4344 15.501 16.4344C15.0939 16.4344 14.9126 16.9221 14.9126 17.2727C14.9126 17.4621 14.9771 17.5589 15.0657 17.5589H15.0698ZM14.8038 17.9739C14.5459 17.9739 14.3848 17.7442 14.3848 17.3493C14.3848 16.6965 14.7916 16.096 15.4768 16.096C15.5977 16.096 15.7065 16.1281 15.775 16.1685C15.8113 15.9831 15.8958 15.4109 15.9 15.2416C16.0127 15.2215 16.2545 15.1853 16.3633 15.1853C16.4078 15.1853 16.4199 15.2296 16.4037 15.3302C16.3068 15.9347 16.1338 17.0954 16.1014 17.3534C16.0771 17.571 16.0732 17.7845 16.0771 17.9054C15.9483 17.9618 15.6863 17.9739 15.6179 17.9739C15.5895 17.9739 15.5735 17.7886 15.5816 17.6234C15.5856 17.571 15.5936 17.4943 15.5936 17.4823C15.3921 17.8127 15.114 17.9739 14.8078 17.9739H14.8038Z" fill="#373535"/>
<path d="M17.1654 16.6763C17.379 16.2007 17.6328 16.0959 17.7981 16.0959C17.8505 16.0959 17.931 16.1282 17.9673 16.1685C17.9835 16.3014 17.8787 16.5674 17.786 16.6681C17.7375 16.644 17.6772 16.6198 17.6087 16.6198C17.4716 16.6198 17.2016 16.8335 17.0323 17.7522C17.0202 17.8288 16.9961 17.8611 16.9518 17.8812C16.8834 17.9215 16.6133 17.9538 16.4844 17.9578C16.5447 17.6273 16.6495 16.9543 16.6899 16.5594C16.702 16.4586 16.7059 16.2732 16.6979 16.2007C16.7744 16.1645 17.0768 16.0959 17.1452 16.0959C17.1815 16.0959 17.2097 16.3177 17.1532 16.6763H17.1654Z" fill="#373535"/>
<path d="M18.5863 17.5629C18.784 17.5629 19.1425 17.2163 19.2433 16.5554C19.2473 16.5151 19.2514 16.503 19.2595 16.4627C19.2151 16.4466 19.1547 16.4345 19.0942 16.4345C18.945 16.4345 18.7919 16.4788 18.6549 16.6642C18.5139 16.8616 18.4533 17.1074 18.4533 17.3049C18.4533 17.4741 18.5017 17.5629 18.5824 17.5629H18.5863ZM17.9375 17.3815C17.9375 17.1438 18.0181 16.7287 18.3204 16.4264C18.5783 16.1604 18.8926 16.0959 19.1788 16.0959C19.3681 16.0959 19.626 16.1563 19.7874 16.1887C19.7471 16.3659 19.6503 17.0349 19.606 17.4218C19.5858 17.587 19.5777 17.8167 19.5858 17.9014C19.4529 17.9577 19.203 17.9739 19.1344 17.9739C19.0982 17.9739 19.0902 17.8087 19.1022 17.6515C19.1063 17.5991 19.1143 17.5225 19.1184 17.4903C18.9612 17.7522 18.6509 17.9739 18.3245 17.9739C18.0907 17.9739 17.9375 17.7804 17.9375 17.3856V17.3815Z" fill="#373535"/>
<path d="M17.4037 9.26688C17.5366 10.8159 15.0988 12.2902 11.9588 12.5597C8.81866 12.829 6.16534 11.7914 6.03254 10.2424C5.89955 8.69317 8.33738 7.21892 11.4774 6.94952C14.6175 6.68022 17.2708 7.71758 17.4037 9.26688Z" fill="#BBE6FB"/>
<g opacity="0.350006">
<g opacity="0.350006">
<path opacity="0.350006" d="M11.5691 7.13119C10.3713 7.11172 8.96966 7.5873 7.92674 8.03265C7.8182 8.34544 7.75977 8.67814 7.75977 9.02301C7.75977 10.8605 9.41892 12.3503 11.4658 12.3503C13.5125 12.3503 15.1717 10.8605 15.1717 9.02301C15.1717 8.44149 15.0052 7.89514 14.7131 7.41948C13.8787 7.28978 12.7311 7.15008 11.5691 7.13119Z" fill="white"/>
</g>
</g>
<path d="M11.4668 7.13092C10.8037 7.09046 9.66072 7.43641 8.70767 7.78153C8.56285 8.12329 8.48242 8.49729 8.48242 8.88976C8.48242 10.4998 9.94216 11.8049 11.4863 11.8049C13.0203 11.8049 14.3776 10.4976 14.4902 8.88976C14.5268 8.36616 14.3466 7.87278 14.0963 7.44741C13.1083 7.27338 12.0596 7.1671 11.4668 7.13092Z" fill="white"/>
<path d="M9.76426 8.67827C9.84563 8.49811 9.96892 8.40988 10.0883 8.25886C10.075 8.22309 10.046 8.10615 10.046 8.0656C10.046 7.88461 10.1928 7.73769 10.3738 7.73769C10.4166 7.73769 10.4574 7.74618 10.4948 7.76103C11.0375 7.34741 11.7519 7.16708 12.47 7.3276C12.5356 7.34238 12.5999 7.36026 12.663 7.3799C11.9534 7.28151 11.1535 7.53286 10.6094 7.972C10.626 8.0112 10.6721 8.12328 10.6721 8.16836C10.6721 8.34944 10.5549 8.39351 10.3738 8.39351C10.3328 8.39351 10.2935 8.38562 10.2571 8.37177C10.1342 8.53682 9.98354 8.85121 9.90985 9.04774C10.2107 9.31687 10.4826 9.41444 10.8369 9.54681C10.8359 9.52994 10.849 9.51428 10.849 9.49713C10.849 8.95119 11.3296 8.50751 11.8756 8.50751C12.3649 8.50751 12.7701 8.86329 12.8491 9.33006C13.0932 9.17475 13.3293 9.05571 13.5092 8.82552C13.4673 8.77431 13.422 8.62933 13.422 8.55797C13.422 8.39368 13.5553 8.26045 13.7196 8.26045C13.7428 8.26045 13.7652 8.26381 13.7869 8.26884C13.8783 8.08114 13.9472 7.88217 13.9913 7.677C13.1375 7.04494 11.4856 7.13116 11.4856 7.13116C11.4856 7.13116 10.1711 7.06257 9.28125 7.49625C9.3406 7.92532 9.51179 8.33323 9.76426 8.67827Z" fill="#373535"/>
<path d="M13.8447 8.43207C13.905 8.48647 13.938 8.53424 13.9639 8.58075C14.0437 8.7243 13.8836 8.85568 13.7192 8.85568C13.7025 8.85568 13.6864 8.85341 13.6704 8.85073C13.4853 9.14002 13.161 9.51096 12.873 9.69772C13.3147 9.77009 13.7311 9.9469 14.0626 10.2203C14.304 9.7879 14.4891 9.16344 14.4891 8.63304C14.4891 8.22933 14.3109 7.93341 14.0418 7.71631C14.0277 7.93257 13.9123 8.23504 13.8447 8.43207Z" fill="#373535"/>
<path d="M10.2593 11.171C10.4065 10.7646 10.7685 10.4496 11.1109 10.1726C11.0608 10.1041 10.9856 9.93421 10.9543 9.85377C10.5367 9.72683 10.1672 9.48908 9.8805 9.17432C9.87844 9.18347 9.87581 9.19236 9.87366 9.20151C9.81966 9.44333 9.80981 9.68577 9.83663 9.92211C10.0366 9.95943 10.188 10.1346 10.188 10.3454C10.188 10.4705 10.0784 10.6516 9.99338 10.7304C10.0858 10.9298 10.1488 11.0261 10.2593 11.171Z" fill="#373535"/>
<path d="M10.2347 11.5121C10.0592 11.3377 9.93776 10.9895 9.82385 10.7708C9.80257 10.7741 9.78073 10.7764 9.75842 10.7764C9.52029 10.7764 9.27088 10.5766 9.32729 10.3454C9.35852 10.2174 9.44679 10.1338 9.5906 10.064C9.55788 9.79894 9.54898 9.41794 9.61057 9.14241C9.6282 9.06357 9.66551 9.02664 9.69026 8.95159C9.42757 8.56719 9.25787 8.06264 9.25787 7.56205C9.25787 7.54375 9.25878 7.5257 9.25921 7.50757C8.81528 7.73021 8.48242 8.08094 8.48242 8.63308C8.48242 9.85435 9.18584 11.0525 10.2324 11.5221C10.2332 11.5188 10.2338 11.5154 10.2347 11.5121Z" fill="#373535"/>
<path d="M12.8078 9.82373C12.6725 10.2084 12.3068 10.4847 11.8759 10.4847C11.6454 10.4847 11.4339 10.4052 11.2659 10.273C10.9194 10.5428 10.6051 11.0168 10.4453 11.428C10.517 11.5051 10.567 11.5686 10.6474 11.637C10.8898 11.7001 11.2235 11.637 11.4859 11.637C12.5412 11.637 13.4758 11.1676 14.0117 10.3444C13.6553 10.0977 13.2351 9.86282 12.8078 9.82373Z" fill="#373535"/>
<path d="M9.73697 8.8211C9.81835 8.64094 9.92035 8.47421 10.0396 8.32319C10.0264 8.28751 10.0186 8.24898 10.0186 8.20843C10.0186 8.02743 10.1654 7.88052 10.3465 7.88052C10.3893 7.88052 10.4301 7.889 10.4674 7.90386C11.0101 7.49023 11.7247 7.30991 12.4427 7.47042C12.5082 7.4852 12.5725 7.50308 12.6356 7.52273C11.926 7.42434 11.1928 7.64186 10.6488 8.08107C10.6654 8.1202 10.6745 8.16335 10.6745 8.20843C10.6745 8.38951 10.5276 8.53633 10.3465 8.53633C10.3054 8.53633 10.2661 8.52845 10.2297 8.51459C10.1068 8.67964 10.0063 8.86198 9.93263 9.05859C10.191 9.33705 10.5082 9.55722 10.8623 9.6896C10.8616 9.67272 10.8598 9.65604 10.8598 9.63888C10.8598 9.09293 11.3023 8.65034 11.8483 8.65034C12.3376 8.65034 12.7427 9.00612 12.8218 9.47285C13.0659 9.31758 13.2829 9.11811 13.4627 8.88792C13.4207 8.83671 13.3946 8.77215 13.3946 8.7008C13.3946 8.5365 13.5279 8.40327 13.6923 8.40327C13.7155 8.40327 13.7378 8.40664 13.7596 8.41167C13.8509 8.22396 13.9198 8.025 13.9639 7.81982C13.1102 7.18777 11.4582 7.27398 11.4582 7.27398C11.4582 7.27398 10.1438 7.20539 9.25391 7.63908C9.31326 8.06815 9.48441 8.47606 9.73697 8.8211Z" fill="#1287B1"/>
<path d="M13.8918 8.48062C13.9521 8.53502 13.9908 8.613 13.9908 8.70065C13.9908 8.86494 13.8575 8.99825 13.6932 8.99825C13.6765 8.99825 13.6604 8.99599 13.6444 8.9933C13.4592 9.28259 13.214 9.5292 12.9258 9.71595C13.3516 9.78251 13.7524 9.96317 14.0837 10.2365C14.3251 9.80408 14.463 9.30601 14.463 8.77562C14.463 8.37191 14.2848 8.07597 14.0157 7.85889C14.0017 8.07514 13.9593 8.28358 13.8918 8.48062Z" fill="#1287B1"/>
<path d="M10.3045 11.2685C10.4517 10.8621 10.7074 10.4974 11.0498 10.2205C10.9997 10.1518 10.9584 10.0769 10.9271 9.99641C10.5093 9.86938 10.1399 9.63163 9.85326 9.31689C9.8512 9.32605 9.84848 9.33495 9.84642 9.3441C9.79233 9.58598 9.78239 9.82832 9.80939 10.0648C10.0093 10.102 10.1607 10.2772 10.1607 10.488C10.1607 10.613 10.107 10.7254 10.022 10.8043C10.0992 10.9678 10.194 11.1236 10.3045 11.2685Z" fill="#1287B1"/>
<path d="M10.2333 11.5072C10.0578 11.3327 9.91042 11.1322 9.7966 10.9137C9.77523 10.9169 9.75338 10.9192 9.73107 10.9192C9.49304 10.9192 9.30004 10.7261 9.30004 10.4881C9.30004 10.3176 9.39938 10.1705 9.5432 10.1006C9.51057 9.8357 9.52163 9.56064 9.58332 9.28515C9.60095 9.2064 9.62242 9.1295 9.64717 9.05436C9.38448 8.67004 9.23061 8.20538 9.23061 7.70478C9.23061 7.68648 9.23145 7.66844 9.23186 7.65039C8.78794 7.87293 8.45508 8.22377 8.45508 8.77582C8.45508 9.99723 9.18443 11.0475 10.231 11.5171C10.2318 11.5138 10.2324 11.5105 10.2333 11.5072Z" fill="#1287B1"/>
<path d="M12.7802 9.96631C12.645 10.351 12.2793 10.6272 11.8484 10.6272C11.6178 10.6272 11.4064 10.5477 11.2383 10.4157C10.8918 10.6855 10.6304 11.0532 10.4707 11.4645C10.5423 11.5417 10.6188 11.6143 10.6993 11.6827C10.9417 11.7459 11.196 11.7796 11.4584 11.7796C12.5136 11.7796 13.4414 11.2348 13.9772 10.4117C13.6209 10.1649 13.2075 10.0055 12.7802 9.96631Z" fill="#1287B1"/>
<path d="M12.8149 9.71155L13.7282 9.49368L12.8114 9.4469L13.5575 8.87673L12.7109 9.18021L13.2863 8.38294L12.4917 8.91107L12.7695 7.9778L12.2238 8.74703L12.2113 7.77497L11.8524 8.64084L11.5529 7.76465L11.5692 8.79681L11.0518 7.8716L11.3318 8.85399L10.4925 8.24366L11.1499 9.06973L10.1081 8.68659L10.9303 9.29497L9.87594 9.32738L10.954 9.60562L9.875 9.83887L10.9401 9.91612L10.0419 10.4913L10.9667 10.1559L10.325 10.9686L11.1359 10.3147L10.8439 11.4053L11.47 10.5178L11.3822 11.566L11.7375 10.6158L12.0401 11.6145L12.1136 10.6128L12.5625 11.4674L12.2973 10.4899L13.1194 11.1267L12.5887 10.3147L13.4907 10.6661L12.8009 9.9884L13.7258 10.0611L12.8149 9.71155Z" fill="white"/>
<g opacity="0.350006">
<g opacity="0.350006">
<path opacity="0.350006" d="M3.0918 11.4591C5.92427 8.62676 8.18647 7.75234 10.2396 7.35316C10.5112 7.30036 10.5626 6.70674 10.5626 6.70674C10.5626 6.70674 10.6006 7.14396 10.7907 7.20096C10.9809 7.25804 11.2279 6.5166 11.2279 6.5166C11.2279 6.5166 10.9998 7.18199 11.2279 7.22002C11.4561 7.25804 11.8742 6.57368 11.8742 6.57368C11.8742 6.57368 11.7032 7.16293 11.8173 7.20096C11.9312 7.23899 12.5015 6.34559 12.5015 6.34559C12.5015 6.34559 12.1593 6.93484 12.4825 6.99192C12.8058 7.04892 13.2773 6.58972 13.2773 6.58972C13.2773 6.58972 12.9066 7.00989 13.0718 7.0679C13.7752 7.31514 14.3443 6.40091 14.3443 6.40091C14.3443 6.40091 14.2125 6.80178 13.8703 7.23899C14.6116 7.42905 15.1622 6.31226 15.1622 6.31226L14.6116 7.42905C14.8968 7.58125 16.0375 6.26953 16.0375 6.26953C16.0375 6.26953 15.4481 7.29608 15.106 7.50511C15.296 7.65723 15.9804 7.04892 15.9804 7.04892C15.9804 7.04892 15.4291 7.7332 15.6382 7.77123C15.9424 8.01838 17.0638 6.49763 17.0638 6.49763C17.0638 6.49763 16.6268 7.39103 15.9804 8.09444C16.5206 8.36468 17.8624 6.63068 17.8624 6.63068C17.8624 6.63068 17.8243 7.18198 16.8548 8.05641C17.5772 7.96138 18.5087 6.59266 18.5087 6.59266C18.5087 6.59266 18.1665 7.61919 17.349 8.3415C18.0583 8.26771 19.1929 6.5166 19.1929 6.5166C19.1929 6.5166 18.7557 7.7332 17.8624 8.43662C18.8509 8.65523 20.2766 7.18198 20.2766 7.18198C20.2766 7.18198 19.7158 8.22758 18.9838 8.65523C19.8013 8.96887 20.923 7.6762 20.923 7.6762C20.923 7.6762 19.8013 9.40617 18.0145 9.33009C17.4282 9.30517 15.6548 7.55137 11.8553 7.69525C6.83673 7.88541 5.77224 10.0144 3.0918 11.4591Z" fill="#373535"/>
</g>
</g>
<path d="M3.20898 11.2439C6.04145 8.41151 8.30357 7.53717 10.3566 7.1379C10.6284 7.0851 10.6798 6.49157 10.6798 6.49157C10.6798 6.49157 10.7178 6.92887 10.908 6.98578C11.098 7.04279 11.345 6.30151 11.345 6.30151C11.345 6.30151 11.117 6.9669 11.345 7.00484C11.5732 7.04279 11.9915 6.35851 11.9915 6.35851C11.9915 6.35851 11.8204 6.94776 11.9344 6.98578C12.0485 7.02382 12.6186 6.13033 12.6186 6.13033C12.6186 6.13033 12.2765 6.71967 12.5997 6.77667C12.9229 6.83376 13.3944 6.37455 13.3944 6.37455C13.3944 6.37455 13.0237 6.79472 13.1889 6.85273C13.8923 7.09988 14.4614 6.18574 14.4614 6.18574C14.4614 6.18574 14.3295 6.58661 13.9875 7.02382C14.7288 7.21396 15.2794 6.09701 15.2794 6.09701L14.7288 7.21396C15.014 7.366 16.1545 6.05444 16.1545 6.05444C16.1545 6.05444 15.5653 7.08082 15.2231 7.28994C15.4132 7.44206 16.0976 6.83376 16.0976 6.83376C16.0976 6.83376 15.5463 7.51812 15.7554 7.55606C16.0595 7.80329 17.181 6.28245 17.181 6.28245C17.181 6.28245 16.7437 7.17594 16.0976 7.87927C16.6378 8.14959 17.9795 6.41551 17.9795 6.41551C17.9795 6.41551 17.9416 6.9669 16.972 7.84132C17.6944 7.74621 18.6259 6.37749 18.6259 6.37749C18.6259 6.37749 18.2837 7.40403 17.4662 8.12641C18.1755 8.05262 19.31 6.30151 19.31 6.30151C19.31 6.30151 18.873 7.51812 17.9795 8.22145C18.968 8.44005 20.3938 6.9669 20.3938 6.9669C20.3938 6.9669 19.833 8.01233 19.1011 8.44005C19.9186 8.75369 21.0401 7.46103 21.0401 7.46103C21.0401 7.46103 19.9186 9.19099 18.1315 9.11493C17.5454 9.08991 15.7719 7.33611 11.9723 7.48008C6.95391 7.67015 5.88934 9.79923 3.20898 11.2439Z" fill="#373535"/>
<g opacity="0.350006">
<g opacity="0.350006">
<path opacity="0.350006" d="M3.01758 11.7689C4.51458 12.5199 5.88338 11.6549 7.60847 12.141C8.92002 12.5108 10.517 12.9665 12.6839 12.6528C14.851 12.3393 16.7046 11.3982 17.5886 9.7158C17.8642 8.96506 18.9857 9.88698 18.9857 9.88698C18.9857 9.88698 18.1684 9.5448 18.1874 9.70642C18.2064 9.86795 19.4136 10.4288 19.4136 10.4288C19.4136 10.4288 18.3204 10.0866 18.387 10.3432C18.4536 10.5998 19.7556 11.6263 19.7556 11.6263C19.7556 11.6263 18.2824 10.5048 18.1589 10.6568C18.0352 10.8089 18.7862 11.4268 18.7862 11.4268C18.7862 11.4268 17.541 10.6568 17.1037 10.8839C16.7892 11.047 18.3965 12.1016 18.3965 12.1016C18.3965 12.1016 17.3509 11.3032 17.1037 11.5122C16.8566 11.7215 18.2824 13.4323 18.2824 13.4323C18.2824 13.4323 16.6664 11.6833 16.505 11.7689C16.3433 11.8544 16.9516 12.691 16.9516 12.691C16.9516 12.691 16.1532 11.8165 15.9347 11.9685C15.7161 12.1207 17.0752 14.3922 17.0752 14.3922C17.0752 14.3922 15.6021 12.0637 14.9937 12.4532C15.949 14.5491 15.5925 14.8485 15.5925 14.8485C15.5925 14.8485 15.4706 12.7103 14.2808 12.7669C13.682 12.7955 14.5659 14.3637 14.5659 14.3637C14.5659 14.3637 13.7524 12.9313 13.2105 12.9599C14.2091 14.8497 13.8531 15.6183 13.8531 15.6183C13.8531 15.6183 14.0183 14.0043 12.6639 13.1062C13.1771 13.5623 12.3419 15.6183 12.3419 15.6183C12.3419 15.6183 13.0766 12.5885 11.8 13.1662C11.5983 13.2572 11.7858 14.6774 11.7858 14.6774C11.7858 14.6774 11.5291 13.052 11.1442 13.1376C10.9199 13.1874 9.71849 15.3902 9.71849 15.3902C9.71849 15.3902 10.7023 13.0092 10.403 13.1091C10.1848 13.1818 9.77558 14.1641 9.77558 14.1641C9.77558 14.1641 9.97508 13.1946 9.77558 13.1376C9.57599 13.0806 8.46383 14.1641 8.46383 14.1641C8.46383 14.1641 9.29083 13.1946 9.1482 12.995C8.93211 12.6925 8.67883 12.6783 8.37829 12.7955C7.941 12.9658 7.35184 13.7649 7.35184 13.7649C7.35184 13.7649 7.93915 12.9559 7.83648 12.6528C7.67168 12.1659 5.98312 13.5938 5.98312 13.5938C5.98312 13.5938 6.98111 12.6528 6.75302 12.4532C6.52492 12.2536 5.28633 12.3153 4.89957 12.3143C3.75903 12.3107 3.36379 12.0431 3.01758 11.7689Z" fill="#373535"/>
</g>
</g>
<path d="M2.96094 11.5978C4.45793 12.3486 5.82665 11.4838 7.55174 11.97C8.86329 12.3395 10.4603 12.7953 12.6273 12.4816C14.7944 12.168 16.6478 11.227 17.5319 9.54474C17.8075 8.79389 18.929 9.71574 18.929 9.71574C18.929 9.71574 18.1116 9.37365 18.1307 9.53527C18.1497 9.6968 19.3568 10.2575 19.3568 10.2575C19.3568 10.2575 18.2637 9.91543 18.3302 10.1721C18.3968 10.4286 19.699 11.4552 19.699 11.4552C19.699 11.4552 18.2256 10.3336 18.1021 10.4857C17.9787 10.6378 18.7295 11.2556 18.7295 11.2556C18.7295 11.2556 17.4843 10.4857 17.0471 10.7127C16.7325 10.8758 18.3397 11.9304 18.3397 11.9304C18.3397 11.9304 17.2941 11.132 17.0471 11.3411C16.7999 11.5503 18.2258 13.2611 18.2258 13.2611C18.2258 13.2611 16.6097 11.5122 16.4483 11.5978C16.2868 11.6834 16.895 12.5197 16.895 12.5197C16.895 12.5197 16.0965 11.6452 15.878 11.7974C15.6594 11.9494 17.0186 14.2211 17.0186 14.2211C17.0186 14.2211 15.5453 11.8924 14.9369 12.2821C15.8923 14.3779 15.5358 14.6774 15.5358 14.6774C15.5358 14.6774 15.4139 12.5391 14.2241 12.5958C13.6253 12.6243 14.5092 14.1926 14.5092 14.1926C14.5092 14.1926 13.6956 12.7601 13.1539 12.7887C14.1525 14.6785 13.7965 15.4471 13.7965 15.4471C13.7965 15.4471 13.9616 13.8331 12.6072 12.9349C13.1204 13.3911 12.2851 15.4471 12.2851 15.4471C12.2851 15.4471 13.02 12.4173 11.7434 12.995C11.5417 13.0861 11.7292 14.5063 11.7292 14.5063C11.7292 14.5063 11.4724 12.8809 11.0877 12.9664C10.8631 13.0162 9.66173 15.2191 9.66173 15.2191C9.66173 15.2191 10.6455 12.8381 10.3462 12.938C10.128 13.0106 9.71882 13.9929 9.71882 13.9929C9.71882 13.9929 9.91842 13.0234 9.71882 12.9664C9.51932 12.9094 8.40719 13.9929 8.40719 13.9929C8.40719 13.9929 9.23418 13.0234 9.09146 12.8238C8.87538 12.5213 8.62211 12.5072 8.32165 12.6243C7.88427 12.7947 7.2951 13.5937 7.2951 13.5937C7.2951 13.5937 7.88242 12.7846 7.77983 12.4816C7.61495 11.9948 5.92647 13.4226 5.92647 13.4226C5.92647 13.4226 6.92446 12.4816 6.69629 12.2821C6.4682 12.0825 5.2296 12.1442 4.84284 12.143C3.70229 12.1395 3.30715 11.872 2.96094 11.5978Z" fill="#373535"/>
</g>
<defs>
<clipPath id="clip0_872_1980">
<rect width="24" height="24" fill="white"/>
</clipPath>
</defs>
</svg>
