<svg width="24" height="24" viewBox="0 0 24 24" fill="none" xmlns="http://www.w3.org/2000/svg">
<g clip-path="url(#clip0_872_2036)">
<path d="M18.375 0H5.625C2.5184 0 0 2.5184 0 5.625V18.375C0 21.4816 2.5184 24 5.625 24H18.375C21.4816 24 24 21.4816 24 18.375V5.625C24 2.5184 21.4816 0 18.375 0Z" fill="#F4F2ED"/>
<path d="M14.4559 21.5486H14.6872L18.4617 19.6612L18.5245 19.5724V4.50641L18.4617 4.41716L14.6872 2.53125H14.4531L14.4559 21.5486Z" fill="#5294CF"/>
<path d="M9.54297 21.5486H9.30853L5.53723 19.6612L5.46071 19.5295L5.42188 4.58315L5.53723 4.41716L9.30853 2.53125H9.54588L9.54297 21.5486Z" fill="#1F5B98"/>
<path d="M9.31641 2.53125H14.6838V21.5486H9.31641V2.53125Z" fill="#2D72B8"/>
<path d="M20.4375 11.6128L20.3099 11.5845L18.4888 11.4147L18.4617 11.4281L14.6839 11.2771H9.31615L5.5382 11.4281V8.54726L5.53424 8.54937L5.5382 8.54093L9.31615 7.66554H14.6839L18.4617 8.54093L19.8505 9.27915V8.80454L20.4375 8.74034L20.3768 8.62181L18.5183 7.29297L18.4617 7.31136L14.6839 6.14073H9.31615L5.5382 7.31136V4.41724L3.5625 6.73181V8.75326L3.57779 8.74218L4.14943 8.80454V9.28891L3.5625 9.603V11.6144L3.57779 11.6128L4.14943 11.6212V12.4655L3.65623 12.4728L3.5625 12.4639V14.476L4.14943 14.7916V15.2815L3.58709 15.3437L3.5625 15.3252V17.3463L5.5382 19.6612V16.7674L9.31615 17.938H14.6839L18.4729 16.7639L18.5232 16.786L20.3572 15.4767L20.4375 15.3463L19.8505 15.2815V14.8014L19.7737 14.7707L18.5183 15.4474L18.4729 15.5422L14.6839 16.4126V16.4137H9.31615V16.4126L5.5382 15.5386V12.6472L9.31615 12.7977V12.8014H14.6839L18.4617 12.6472L18.5478 12.6867L20.313 12.5347L20.4375 12.4739L19.8505 12.4655V11.6212L20.4375 11.6128Z" fill="#1A476F"/>
<path d="M18.4609 16.7673V19.6612L20.4367 17.3463V15.3384L18.4724 16.7639L18.4609 16.7673Z" fill="#2D72B8"/>
<path d="M18.4609 15.5448L18.4724 15.5422L20.4367 14.4856V12.4653L18.4609 12.647V15.5448Z" fill="#2D72B8"/>
<path d="M18.4724 8.54342L18.4609 8.54077V11.4279L20.4367 11.6126V9.59326L18.4724 8.54342Z" fill="#2D72B8"/>
<path d="M18.4724 7.3227L20.4367 8.74034V6.73235L18.4609 4.41724V7.31136L18.4724 7.31532V7.3227Z" fill="#2D72B8"/>
</g>
<defs>
<clipPath id="clip0_872_2036">
<rect width="24" height="24" fill="white"/>
</clipPath>
</defs>
</svg>
