<svg width="24" height="24" viewBox="0 0 24 24" fill="none" xmlns="http://www.w3.org/2000/svg">
<g clip-path="url(#clip0_872_2383)">
<path d="M18.375 0H5.625C2.5184 0 0 2.5184 0 5.625V18.375C0 21.4816 2.5184 24 5.625 24H18.375C21.4816 24 24 21.4816 24 18.375V5.625C24 2.5184 21.4816 0 18.375 0Z" fill="#F4F4ED"/>
<path d="M7.08902 3.5625L10.3348 9.18398L7.08743 14.8133L3.84375 9.18398L7.08902 3.5625Z" fill="#59666C"/>
<path d="M13.5826 3.56274H7.0918L10.3376 9.18423H16.8302L13.5826 3.56274Z" fill="#BCAE79"/>
<path d="M16.8259 20.4374L13.5801 14.816L16.8275 9.18652L20.0711 14.816L16.8259 20.4374Z" fill="#59666C"/>
<path d="M10.3336 20.4371H16.8252L13.582 14.8157H7.08594L10.3336 20.4371Z" fill="#BCAE79"/>
</g>
<defs>
<clipPath id="clip0_872_2383">
<rect width="24" height="24" fill="white"/>
</clipPath>
</defs>
</svg>
