<svg width="24" height="24" viewBox="0 0 24 24" fill="none" xmlns="http://www.w3.org/2000/svg">
<g clip-path="url(#clip0_872_2669)">
<path d="M18.375 0H5.625C2.5184 0 0 2.5184 0 5.625V18.375C0 21.4816 2.5184 24 5.625 24H18.375C21.4816 24 24 21.4816 24 18.375V5.625C24 2.5184 21.4816 0 18.375 0Z" fill="#023430"/>
<path d="M16.0475 10.0867C15.0596 5.72903 13.0009 4.56897 12.4757 3.74893C12.2591 3.38768 12.0672 3.01218 11.9015 2.625C11.8737 3.01211 11.8227 3.256 11.4937 3.54956C10.833 4.13863 8.02704 6.42519 7.79089 11.3764C7.57088 15.9928 11.1847 18.8393 11.662 19.1336C12.0292 19.3143 12.4763 19.1375 12.6944 18.9716C14.4364 17.7761 16.8165 14.5888 16.0493 10.0867" fill="#10AA50"/>
<path d="M12.0512 16.6753C11.9602 17.8179 11.8951 18.4819 11.6641 19.1348C11.6641 19.1348 11.8157 20.2226 11.9222 21.3749H12.2989C12.3888 20.5635 12.526 19.758 12.7099 18.9625C12.2222 18.7225 12.0699 17.6779 12.0512 16.6753Z" fill="#B8C4C2"/>
<path d="M12.7086 18.9634C12.2157 18.7356 12.0731 17.669 12.0512 16.6755C12.173 15.0364 12.2086 13.3922 12.1577 11.7494C12.1318 10.8874 12.1698 3.76579 11.9453 2.72314C12.099 3.07628 12.2759 3.41878 12.4751 3.74837C13.0003 4.56905 15.0597 5.72911 16.0469 10.0867C16.8159 14.5812 14.4487 17.7601 12.7086 18.9634Z" fill="#12924F"/>
</g>
<defs>
<clipPath id="clip0_872_2669">
<rect width="24" height="24" fill="white"/>
</clipPath>
</defs>
</svg>
