<svg width="24" height="24" viewBox="0 0 24 24" fill="none" xmlns="http://www.w3.org/2000/svg">
<g clip-path="url(#clip0_872_2674)">
<path d="M18.375 0H5.625C2.5184 0 0 2.5184 0 5.625V18.375C0 21.4816 2.5184 24 5.625 24H18.375C21.4816 24 24 21.4816 24 18.375V5.625C24 2.5184 21.4816 0 18.375 0Z" fill="#F4F2ED"/>
<mask id="mask0_872_2674" style="mask-type:luminance" maskUnits="userSpaceOnUse" x="3" y="3" width="18" height="18">
<path d="M20.4375 3.5625H3.5625V20.4375H20.4375V3.5625Z" fill="white"/>
</mask>
<g mask="url(#mask0_872_2674)">
<path fill-rule="evenodd" clip-rule="evenodd" d="M19.1055 16.7073C18.1876 16.6818 17.4756 16.7758 16.8789 17.0269C16.7071 17.0959 16.4313 17.0959 16.4086 17.3121C16.5005 17.4029 16.5116 17.5514 16.5921 17.6772C16.7296 17.9055 16.971 18.213 17.1888 18.3725L17.9233 18.8974C18.3708 19.1708 18.8758 19.3307 19.3118 19.6044C19.5644 19.7642 19.8167 19.9695 20.0693 20.1408C20.1979 20.232 20.2758 20.3806 20.4366 20.4373V20.4028C20.3564 20.3005 20.3332 20.1523 20.2532 20.0377L19.9085 19.7072C19.576 19.2624 19.1626 18.8743 18.715 18.5553C18.3477 18.3043 17.5446 17.9622 17.3954 17.5404L17.3728 17.5148C17.6249 17.4893 17.9233 17.4005 18.1645 17.3321C18.555 17.2298 18.9105 17.2523 19.3118 17.1498L19.8631 16.99V16.8877C19.6564 16.6825 19.5073 16.4087 19.2894 16.215C18.7042 15.7131 18.0611 15.2225 17.3954 14.812C17.0397 14.584 16.5805 14.4354 16.2018 14.2419C16.0637 14.1734 15.8345 14.1392 15.7543 14.0252C15.5472 13.7747 15.4327 13.4435 15.2836 13.1468L14.3426 11.1623C14.1361 10.7175 14.0095 10.2726 13.7574 9.8621C12.5751 7.92311 11.2895 6.74846 9.31552 5.59631C8.89109 5.35678 8.38614 5.25376 7.8493 5.1285L6.98861 5.08248C6.80469 5.00272 6.62128 4.78594 6.46052 4.68317C5.80638 4.27262 4.1192 3.38301 3.63689 4.55536C3.32692 5.2967 4.09605 6.02655 4.35713 6.4031C4.55263 6.66538 4.80471 6.96192 4.94285 7.25846C5.02002 7.45223 5.04575 7.65776 5.12626 7.86304C5.30966 8.36485 5.48201 8.92393 5.72303 9.39176C5.85165 9.63129 5.9867 9.88254 6.14747 10.0991C6.2393 10.2269 6.40007 10.2816 6.43428 10.4869C6.2735 10.7151 6.26245 11.0569 6.17061 11.3425C5.75724 12.6314 5.91801 14.2281 6.50321 15.1771C6.68714 15.4621 7.12057 16.0896 7.7086 15.8499C8.22512 15.6446 8.10988 14.9945 8.25907 14.4242C8.2938 14.2875 8.27065 14.1962 8.33933 14.1047V14.1303L8.81006 15.0769C9.16581 15.6357 9.78577 16.2175 10.302 16.6055C10.5772 16.8109 10.7954 17.1647 11.1395 17.2899V17.2554H11.1169C11.0479 17.1531 10.9445 17.1071 10.8527 17.0273C10.6462 16.8221 10.4167 16.571 10.2559 16.343C9.77415 15.7044 9.34973 14.9971 8.97083 14.2672C8.78691 13.9137 8.62614 13.5259 8.47746 13.1723C8.40801 13.0354 8.40801 12.8298 8.29355 12.7618C8.1212 13.0123 7.86911 13.2296 7.7423 13.5374C7.52417 14.0277 7.50153 14.6323 7.42128 15.2597C7.37497 15.2711 7.39555 15.2597 7.37497 15.2852C7.00816 15.1942 6.8816 14.8174 6.74399 14.4983C6.3998 13.6885 6.34219 12.3883 6.64057 11.4529C6.72083 11.2134 7.06552 10.4606 6.92791 10.2325C6.85845 10.0158 6.62951 9.89051 6.50296 9.71923C6.35376 9.50248 6.19351 9.22891 6.0901 8.98938C5.81486 8.35028 5.67725 7.64344 5.3786 7.00461C5.24046 6.70807 4.9997 6.40003 4.80446 6.1265C4.58633 5.81846 4.34582 5.60168 4.17348 5.23688C4.11611 5.10906 4.03585 4.90609 4.12769 4.76907C4.15032 4.67781 4.19662 4.64125 4.28795 4.6208C4.43714 4.49298 4.86208 4.65506 5.01127 4.72306C5.43571 4.89433 5.79145 5.05385 6.1472 5.29312C6.30798 5.40714 6.48033 5.62392 6.68688 5.68118H6.92816C7.29548 5.76094 7.70834 5.70675 8.05226 5.809C8.66061 6.00329 9.21134 6.28806 9.70524 6.59636C11.2085 7.54298 12.4484 8.88891 13.2858 10.4974C13.4235 10.7597 13.4808 10.9992 13.6074 11.2729C13.8487 11.8321 14.1471 12.4022 14.3876 12.9499C14.6289 13.486 14.8583 14.0339 15.2026 14.4786C15.3749 14.7182 16.0632 14.8434 16.3729 14.9689C16.6026 15.0712 16.9581 15.1633 17.1652 15.2885C17.5551 15.5281 17.9454 15.8018 18.3124 16.0641C18.4958 16.2006 19.07 16.4859 19.1041 16.7134L19.1055 16.7073ZM7.40147 6.79576C7.2429 6.79436 7.08483 6.81353 6.93125 6.85277V6.87833H6.95389C7.04571 7.06085 7.20649 7.18637 7.32121 7.34614L7.58539 7.89372L7.60802 7.86815C7.76879 7.75413 7.8493 7.57161 7.8493 7.29808C7.78037 7.21832 7.76905 7.13831 7.71169 7.05855C7.64275 6.94454 7.49356 6.88727 7.40147 6.79627V6.79576Z" fill="#00678C"/>
</g>
</g>
<defs>
<clipPath id="clip0_872_2674">
<rect width="24" height="24" fill="white"/>
</clipPath>
</defs>
</svg>
