<svg width="24" height="24" viewBox="0 0 24 24" fill="none" xmlns="http://www.w3.org/2000/svg">
<g clip-path="url(#clip0_872_2765)">
<path d="M18.375 0H5.625C2.5184 0 0 2.5184 0 5.625V18.375C0 21.4816 2.5184 24 5.625 24H18.375C21.4816 24 24 21.4816 24 18.375V5.625C24 2.5184 21.4816 0 18.375 0Z" fill="white"/>
<path d="M3.5625 12.0002C3.5625 7.34018 7.34018 3.5625 12.0002 3.5625C15.4265 3.5625 18.3758 5.60473 19.6973 8.53834L8.53834 19.6973C8.0595 19.4816 7.60438 19.2225 7.17801 18.925L14.1029 12.0002H12.0002L6.03384 17.9665C4.50692 16.4396 3.5625 14.3302 3.5625 12.0002Z" fill="black"/>
<path d="M20.4367 12.0029L12.002 20.4377C16.6596 20.4362 20.4351 16.6607 20.4367 12.0029Z" fill="black"/>
</g>
<defs>
<clipPath id="clip0_872_2765">
<rect width="24" height="24" fill="white"/>
</clipPath>
</defs>
</svg>
