<svg width="24" height="24" viewBox="0 0 24 24" fill="none" xmlns="http://www.w3.org/2000/svg">
<g clip-path="url(#clip0_872_2819)">
<path d="M18.375 0H5.625C2.5184 0 0 2.5184 0 5.625V18.375C0 21.4816 2.5184 24 5.625 24H18.375C21.4816 24 24 21.4816 24 18.375V5.625C24 2.5184 21.4816 0 18.375 0Z" fill="#677EEB"/>
<path fill-rule="evenodd" clip-rule="evenodd" d="M4.93749 15.486C4.75777 15.2025 4.75506 14.8414 4.93049 14.5552L11.5362 3.78007C11.9036 3.18076 12.7907 3.23316 13.085 3.87155L19.1196 16.9619C19.3435 17.4476 19.0858 18.0191 18.5734 18.1729L9.18621 20.989C8.80852 21.1023 8.40157 20.9505 8.19045 20.6174L4.93749 15.486ZM12.2983 6.93063C12.3619 6.61365 12.7963 6.56794 12.9245 6.86473L17.0871 16.4966C17.1655 16.678 17.068 16.8872 16.8786 16.9436L10.3928 18.8798C10.1544 18.9509 9.92601 18.7426 9.97504 18.4987L12.2983 6.93063Z" fill="#F7FAFC"/>
</g>
<defs>
<clipPath id="clip0_872_2819">
<rect width="24" height="24" fill="white"/>
</clipPath>
</defs>
</svg>
