<svg width="24" height="24" viewBox="0 0 24 24" fill="none" xmlns="http://www.w3.org/2000/svg">
<g clip-path="url(#clip0_872_2923)">
<path d="M18.375 0H5.625C2.5184 0 0 2.5184 0 5.625V18.375C0 21.4816 2.5184 24 5.625 24H18.375C21.4816 24 24 21.4816 24 18.375V5.625C24 2.5184 21.4816 0 18.375 0Z" fill="#F4F2ED"/>
<mask id="mask0_872_2923" style="mask-type:luminance" maskUnits="userSpaceOnUse" x="2" y="2" width="20" height="20">
<path d="M21.375 2.625H2.625V21.375H21.375V2.625Z" fill="white"/>
</mask>
<g mask="url(#mask0_872_2923)">
<path d="M20.6391 16.3565C19.6386 16.8784 14.4557 19.0093 13.3522 19.5844C12.2487 20.1595 11.6359 20.1541 10.764 19.7375C9.89212 19.3209 4.37666 17.0931 3.38253 16.6179C2.88547 16.3803 2.625 16.1805 2.625 15.9916V14.0963C2.625 14.0963 9.80615 12.533 10.9657 12.117C12.1254 11.7009 12.5266 11.686 13.5138 12.0474C14.501 12.4087 20.3996 13.473 21.3743 13.8304V15.6994C21.3743 15.8868 21.1497 16.097 20.6402 16.3575L20.6391 16.3565Z" fill="#A41E11"/>
<path d="M20.6397 14.4604C19.639 14.9823 14.4561 17.1133 13.3527 17.6883C12.2492 18.2635 11.6363 18.258 10.7645 17.8414C9.89258 17.4249 4.37714 15.197 3.383 14.7219C2.38887 14.2467 2.36898 13.9202 3.34473 13.5378L10.9657 10.5872C12.125 10.1717 12.5266 10.1563 13.5137 10.5177C14.5009 10.8791 19.6525 12.9295 20.6268 13.2923C21.601 13.6552 21.6393 13.9435 20.6387 14.4654L20.6397 14.4604Z" fill="#D82C20"/>
<path d="M20.6391 13.2657C19.6386 13.7876 14.4557 15.9185 13.3522 16.4936C12.2487 17.0687 11.6359 17.0632 10.764 16.6467C9.89212 16.2301 4.37666 14.0023 3.38253 13.5271C2.88547 13.2895 2.625 13.0897 2.625 12.9008V11.0054C2.625 11.0054 9.80615 9.44216 10.9657 9.02616C12.1254 8.61012 12.5266 8.5952 13.5138 8.95657C14.501 9.31794 20.3996 10.3822 21.3743 10.7396V12.6086C21.3743 12.7959 21.1497 13.0062 20.6402 13.2666L20.6391 13.2657Z" fill="#A41E11"/>
<path d="M20.6397 11.3702C19.639 11.8921 14.4561 14.0231 13.3527 14.5982C12.2492 15.1733 11.6363 15.1679 10.7645 14.7513C9.89258 14.3347 4.37714 12.1069 3.383 11.6317C2.38887 11.1565 2.36898 10.83 3.34473 10.4476L10.9657 7.49759C12.125 7.08155 12.5266 7.06664 13.5137 7.42801C14.5009 7.78937 19.6525 9.84024 20.6277 10.1967C21.603 10.5531 21.6403 10.8479 20.6397 11.3698V11.3702Z" fill="#D82C20"/>
<path d="M20.6391 10.0606C19.6386 10.5825 14.4557 12.7134 13.3522 13.289C12.2487 13.8646 11.6359 13.8586 10.764 13.4421C9.89212 13.0256 4.37666 10.7977 3.38253 10.3225C2.88547 10.0849 2.625 9.88515 2.625 9.69624V7.79991C2.625 7.79991 9.80615 6.23664 10.9657 5.8206C12.1254 5.40455 12.5266 5.38964 13.5138 5.751C14.501 6.11237 20.3996 7.1766 21.3743 7.53398V9.40299C21.3743 9.59039 21.1497 9.80058 20.6402 10.0611L20.6391 10.0606Z" fill="#A41E11"/>
<path d="M20.6397 8.16467C19.639 8.68659 14.4561 10.8175 13.3527 11.3927C12.2492 11.9677 11.6363 11.9623 10.7645 11.5457C9.89258 11.1292 4.37714 8.90132 3.383 8.42613C2.38887 7.95093 2.36898 7.62437 3.34473 7.24212L10.9657 4.29203C12.125 3.87599 12.5266 3.86107 13.5137 4.22244C14.5009 4.58381 19.6525 6.6347 20.6277 6.9911C21.603 7.34749 21.6403 7.64225 20.6397 8.16418V8.16467Z" fill="#D82C20"/>
<path d="M12.4674 7.38322L11.8799 6.40648L10.004 6.23748L11.4037 5.73246L10.9836 4.95703L12.294 5.46901L13.5296 5.06439L13.1956 5.86567L14.4552 6.33788L12.8308 6.50689L12.4674 7.38322ZM9.33789 9.32774L13.6822 8.66067L12.37 10.5853L9.33789 9.32774Z" fill="white"/>
<path d="M8.16799 8.62655C9.45053 8.62655 10.4903 8.22352 10.4903 7.72636C10.4903 7.22919 9.45053 6.82617 8.16799 6.82617C6.88543 6.82617 5.8457 7.22919 5.8457 7.72636C5.8457 8.22352 6.88543 8.62655 8.16799 8.62655Z" fill="white"/>
<path d="M18.9468 7.59512L16.377 8.61012L16.375 6.57861L18.9468 7.59512Z" fill="#7A0C00"/>
<path d="M16.3774 8.61012L16.0991 8.71947L13.5312 7.70447L16.3759 6.5791L16.3774 8.61012Z" fill="#AD2115"/>
</g>
</g>
<defs>
<clipPath id="clip0_872_2923">
<rect width="24" height="24" fill="white"/>
</clipPath>
</defs>
</svg>
