<svg width="24" height="24" viewBox="0 0 24 24" fill="none" xmlns="http://www.w3.org/2000/svg">
<g clip-path="url(#clip0_872_3039)">
<path d="M18.375 0H5.625C2.5184 0 0 2.5184 0 5.625V18.375C0 21.4816 2.5184 24 5.625 24H18.375C21.4816 24 24 21.4816 24 18.375V5.625C24 2.5184 21.4816 0 18.375 0Z" fill="#F4F2ED"/>
<path d="M17.9956 8.62298V15.3736L12.0082 18.7344L11.9531 18.7824V21.327L12.0082 21.375L20.4382 16.7131V7.3125H20.3577L17.9809 8.58524V8.63787" fill="#2F406A"/>
<path d="M5.964 15.4131L12.013 18.7544V21.375L3.46875 16.6875V7.3125H3.55477L5.93912 8.63468L5.96431 8.71169V15.4424" fill="#2379BD"/>
<path d="M5.97982 8.67722L3.46875 7.29719L11.9767 2.625L20.4387 7.27791L17.9928 8.58613L11.966 5.31325L5.96971 8.6676" fill="#03AFEF"/>
<path d="M11.9018 14.6107L11.8359 14.549V12.0443L11.9018 12.0109V11.9493L14.1974 10.6946H14.2687V13.2801L11.8867 14.6015" fill="#2F406A"/>
<path d="M9.48109 13.4143V10.6946H9.54737L11.8937 11.9845V14.67L9.46094 13.414" fill="#2379BD"/>
<path d="M11.8749 9.3445L9.52148 10.7092L11.9149 12.0593L14.2683 10.7143L11.8745 9.32983" fill="#03AFEF"/>
<path d="M8.99045 16.3314L8.92773 16.2689V13.7243L8.99045 13.6906V13.6281L11.1741 12.356H11.2418V14.9774L8.97603 16.317" fill="#2F406A"/>
<path d="M6.55469 15.0753V12.356H6.62144L8.98743 13.6459V16.3314L6.55498 15.0753" fill="#2379BD"/>
<path d="M8.91309 10.9962L6.55469 12.3562L8.94828 13.7209L11.3015 12.3759L8.90793 10.9915" fill="#03AFEF"/>
<path d="M14.9858 16.3908L14.9199 16.3292V13.8226L14.9858 13.7895V13.7278L17.2815 12.4746H17.3526V15.057L14.9706 16.3766" fill="#2F406A"/>
<path d="M12.6158 15.1343V12.4155H12.6922L15.0383 13.7054V16.391L12.6055 15.1343" fill="#2379BD"/>
<path d="M14.9899 11.0508L12.666 12.3858L15.0297 13.7209L17.3535 12.4051L14.9899 11.0508Z" fill="#03AFEF"/>
<path d="M12.0796 18.0521L12.0137 17.9896V15.4448L12.0796 15.4111V15.3486L14.3752 14.0767H14.4465V16.6976L12.0644 18.0371" fill="#2F406A"/>
<path d="M9.64062 16.7913V14.0767H9.70738L12.0733 15.3666V18.0521L9.64091 16.791" fill="#2379BD"/>
<path d="M12.0261 12.7126L9.64062 14.0568L12.0666 15.382L14.4468 14.0568L12.0258 12.7119" fill="#03AFEF"/>
<path d="M11.9018 11.0507L11.8359 10.988V8.44696L11.9018 8.41308V8.35043L14.1974 7.0752H14.2687V9.70303L11.9018 11.0507Z" fill="#2F406A"/>
<path d="M9.48109 9.80118V7.0752H9.54737L11.8937 8.36823V11.0507L9.46094 9.79143" fill="#2379BD"/>
<path d="M11.8747 5.76978L9.52148 7.10482L11.9151 8.43987L14.2683 7.12417L11.8747 5.76978Z" fill="#03AFEF"/>
<path d="M8.99045 12.712L8.92773 12.6489V10.0595L8.99045 10.0254V9.96217L11.1741 8.67725H11.2418V11.3251L8.97603 12.6782" fill="#2F406A"/>
<path d="M6.55469 11.4562V8.73657H6.62144L8.98743 10.0265V12.7121L6.55498 11.4559" fill="#2379BD"/>
<path d="M8.91309 7.37183L6.55469 8.69969L8.94828 10.0419L11.3015 8.72865L8.90793 7.37681" fill="#03AFEF"/>
<path d="M14.9858 12.8307L14.9199 12.7672V10.1863L14.9858 10.1519V10.0884L17.2815 8.7959H17.3526V11.4594L14.9706 12.8205" fill="#2F406A"/>
<path d="M12.666 11.5689V8.7959H12.7394L14.9801 10.1019V12.8307L12.666 11.5689Z" fill="#2379BD"/>
<path d="M14.9899 7.43174L12.666 8.7662L15.0297 10.1012L17.3535 8.78555L14.9899 7.43115" fill="#03AFEF"/>
<path d="M12.0796 14.4324L12.0137 14.3687V11.7918L12.0796 11.7574V11.6937L14.3752 10.3979H14.4465V13.0681L12.0796 14.4328" fill="#2F406A"/>
<path d="M9.64062 13.1672V10.3979H9.70738L12.0733 11.7118V14.4328L9.64062 13.1672Z" fill="#2379BD"/>
<path d="M12.0285 9.09253L9.64062 10.4252L12.0641 11.7626L14.4468 10.4446L12.0288 9.09312" fill="#03AFEF"/>
</g>
<defs>
<clipPath id="clip0_872_3039">
<rect width="24" height="24" fill="white"/>
</clipPath>
</defs>
</svg>
