<svg width="24" height="24" viewBox="0 0 24 24" fill="none" xmlns="http://www.w3.org/2000/svg">
<g clip-path="url(#clip0_872_3090)">
<mask id="mask0_872_3090" style="mask-type:luminance" maskUnits="userSpaceOnUse" x="0" y="0" width="24" height="24">
<path d="M18.375 0H5.625C2.5184 0 0 2.5184 0 5.625V18.375C0 21.4816 2.5184 24 5.625 24H18.375C21.4816 24 24 21.4816 24 18.375V5.625C24 2.5184 21.4816 0 18.375 0Z" fill="white"/>
</mask>
<g mask="url(#mask0_872_3090)">
<path d="M5.625 0C2.5184 0 0 2.5184 0 5.625V18.375C0 21.4816 2.5184 24 5.625 24H15.7931C15.6263 23.5085 15.4957 22.7301 15.4222 21.8416C15.359 21.0773 15.338 20.2318 15.373 19.4163C15.3636 19.2957 15.3578 19.2173 15.3578 19.2173C15.3578 19.2173 15.1822 18.0352 14.9293 17.064C14.8174 16.6329 14.69 16.2431 14.5562 16.0172C14.4873 15.9007 14.5637 15.4218 14.756 14.7126C14.8685 14.9067 15.3431 15.7374 15.4385 16.0052C15.5458 16.3078 15.5683 16.3945 15.5683 16.3945C15.5683 16.3945 15.308 15.0565 14.8808 14.2758C14.9745 13.9601 15.0863 13.6113 15.2129 13.2383C15.3608 13.4978 15.6971 14.0934 15.8186 14.3757C15.8299 14.4019 15.84 14.4264 15.8474 14.4467C15.8647 14.4956 15.8792 14.5372 15.8922 14.5752C15.9607 14.7738 15.9774 14.837 15.9774 14.837C15.9774 14.837 15.952 14.707 15.9048 14.5066C15.8848 14.4219 15.86 14.3224 15.8323 14.2163C15.7247 13.803 15.5612 13.2619 15.3518 12.8378C15.8892 10.0447 17.6188 6.38723 19.4822 4.41271C19.6428 4.24269 19.8041 4.08353 19.9657 3.94008C21.055 2.97444 22.1587 2.64828 23.0703 3.46027C23.7297 4.04787 23.9995 4.85949 24 5.79379V5.625C24 2.5184 21.4816 0 18.375 0H5.625Z" fill="#D9D9D9"/>
<path d="M5.625 0C2.5184 0 0 2.5184 0 5.625V18.375C0 21.4816 2.5184 24 5.625 24H15.7931C15.6263 23.5085 15.4957 22.7301 15.4222 21.8416C15.359 21.0773 15.338 20.2318 15.373 19.4163C15.3636 19.2957 15.3578 19.2173 15.3578 19.2173C15.3578 19.2173 15.1822 18.0352 14.9293 17.064C14.8174 16.6329 14.69 16.2431 14.5562 16.0172C14.4873 15.9007 14.5637 15.4218 14.756 14.7126C14.8685 14.9067 15.3431 15.7374 15.4385 16.0052C15.5458 16.3078 15.5683 16.3945 15.5683 16.3945C15.5683 16.3945 15.308 15.0565 14.8808 14.2758C14.9745 13.9601 15.0863 13.6113 15.2129 13.2383C15.3608 13.4978 15.6971 14.0934 15.8186 14.3757C15.8299 14.4019 15.84 14.4264 15.8474 14.4467C15.8647 14.4956 15.8792 14.5372 15.8922 14.5752C15.9607 14.7738 15.9774 14.837 15.9774 14.837C15.9774 14.837 15.952 14.707 15.9048 14.5066C15.8848 14.4219 15.86 14.3224 15.8323 14.2163C15.7247 13.803 15.5612 13.2619 15.3518 12.8378C15.8892 10.0447 17.6188 6.38723 19.4822 4.41271C19.6428 4.24269 19.8041 4.08353 19.9657 3.94008C21.055 2.97444 22.1587 2.64828 23.0703 3.46027C23.7297 4.04787 23.9995 4.85949 24 5.79379V5.625C24 2.5184 21.4816 0 18.375 0H5.625Z" fill="url(#paint0_linear_872_3090)"/>
<path d="M23.0703 3.46027C22.1587 2.64828 21.055 2.97445 19.9657 3.94008C19.8041 4.08354 19.6428 4.2427 19.4822 4.41271C17.6188 6.38724 15.8892 10.0447 15.3518 12.8378C15.5612 13.2619 15.7247 13.803 15.8323 14.2163C15.8599 14.3224 15.8848 14.4219 15.9048 14.5066C15.952 14.707 15.9774 14.837 15.9774 14.837C15.9774 14.837 15.9607 14.7738 15.8922 14.5752C15.8792 14.5372 15.8646 14.4956 15.8474 14.4467C15.84 14.4264 15.8298 14.4019 15.8186 14.3757C15.6971 14.0934 15.3608 13.4978 15.2129 13.2383C15.0863 13.6113 14.9745 13.9601 14.8808 14.2758C15.3079 15.0565 15.5683 16.3945 15.5683 16.3945C15.5683 16.3945 15.5458 16.3078 15.4384 16.0052C15.3431 15.7374 14.8684 14.9067 14.7559 14.7126C14.5637 15.4218 14.4873 15.9007 14.5562 16.0172C14.6899 16.2431 14.8174 16.6329 14.9293 17.064C15.1821 18.0352 15.3578 19.2173 15.3578 19.2173C15.3578 19.2173 15.3635 19.2957 15.373 19.4163C15.3379 20.2318 15.3589 21.0773 15.4222 21.8416C15.5059 22.8533 15.6636 23.7224 15.8646 24.1875L16.001 24.1132C15.7059 23.1968 15.586 21.9959 15.6385 20.6108C15.7179 18.4939 16.2057 15.9409 17.1068 13.28C18.6293 9.26309 20.7417 6.04019 22.675 4.50106C20.9129 6.09063 18.528 11.2359 17.8141 13.1413C17.0148 15.275 16.4482 17.2773 16.1069 19.1956C16.6959 17.3972 18.6004 16.6241 18.6004 16.6241C18.6004 16.6241 19.5346 15.4734 20.6262 13.8294C19.9723 13.9784 18.8986 14.2334 18.5389 14.3843C18.0084 14.6066 17.8654 14.6825 17.8654 14.6825C17.8654 14.6825 19.5839 13.6372 21.0582 13.1639C23.0858 9.97406 25.2948 5.44248 23.0703 3.46027Z" fill="#003B57"/>
<path d="M2.67377 4.59375C2.3866 4.59375 2.15309 4.67763 1.97408 4.8453C1.79506 5.01312 1.70424 5.2331 1.70424 5.50263C1.70424 5.64232 1.7268 5.76967 1.77124 5.88637C1.81567 6.00332 1.88483 6.11165 1.9778 6.20953C2.07077 6.30751 2.25686 6.4406 2.5342 6.60981C2.87452 6.8148 3.09724 6.98117 3.20412 7.11107C3.31109 7.24086 3.36416 7.37688 3.36416 7.51868C3.36416 7.70856 3.30082 7.86011 3.17063 7.97405C3.04022 8.08802 2.86582 8.1448 2.64958 8.1448C2.42151 8.1448 2.22284 8.06547 2.05223 7.90794C1.88163 7.75018 1.79551 7.54152 1.79357 7.27999H1.6875V8.22926H1.79357C1.82595 8.13937 1.87076 8.09339 1.92941 8.09339C1.95763 8.09339 2.02372 8.11259 2.12667 8.14847C2.37714 8.23641 2.58281 8.27884 2.74448 8.27884C3.0231 8.27884 3.26093 8.18256 3.45907 7.98689C3.65692 7.79132 3.75682 7.55541 3.75682 7.27999C3.75682 7.06642 3.69086 6.87642 3.56142 6.71079C3.43197 6.54497 3.18023 6.35209 2.80403 6.13058C2.48032 5.93868 2.27018 5.78238 2.17319 5.66053C2.07606 5.53886 2.02618 5.40428 2.02618 5.25659C2.02618 5.09685 2.08566 4.96853 2.20297 4.87284C2.32028 4.77707 2.47399 4.72962 2.66632 4.72962C2.88278 4.72962 3.06322 4.79301 3.20599 4.92058C3.34861 5.04837 3.43108 5.22547 3.45534 5.45305H3.56142V4.63047H3.46279C3.45073 4.67241 3.43957 4.69922 3.42929 4.71127C3.41932 4.72324 3.40012 4.72962 3.37161 4.72962C3.33729 4.72962 3.2761 4.71537 3.18924 4.68739C3.00315 4.62555 2.83158 4.59375 2.67377 4.59375ZM6.14062 4.59375C5.79069 4.59375 5.473 4.67513 5.18598 4.83795C4.8985 5.00048 4.67095 5.22618 4.50303 5.51364C4.33518 5.80108 4.25181 6.10637 4.25181 6.4317C4.25181 6.86879 4.39681 7.25818 4.68912 7.59948C4.98158 7.94056 5.33202 8.15309 5.73866 8.23478C5.83163 8.28257 5.96465 8.40595 6.13875 8.60567C6.33497 8.83104 6.50095 8.99361 6.63747 9.0904C6.77384 9.18726 6.92107 9.25823 7.07664 9.30523C7.23236 9.35202 7.40074 9.375 7.5828 9.375C7.80328 9.375 8.00068 9.33719 8.17457 9.25932L8.13548 9.16385C8.03455 9.19977 7.92692 9.2171 7.81356 9.2171C7.65969 9.2171 7.5042 9.16703 7.34833 9.06653C7.19269 8.96578 6.99803 8.77356 6.76587 8.48999C6.65675 8.35412 6.58142 8.26839 6.53885 8.23478C6.98375 8.14905 7.3496 7.93629 7.63491 7.5958C7.92015 7.25546 8.06291 6.86704 8.06291 6.4317C8.06291 5.91481 7.87653 5.4804 7.50651 5.12622C7.13619 4.77202 6.68079 4.59375 6.14062 4.59375ZM8.30482 4.59375L8.31041 4.70575C8.54339 4.70575 8.67388 4.77347 8.70306 4.90957C8.71392 4.95826 8.71891 5.04817 8.71981 5.17763L8.71794 7.65456C8.71601 7.83955 8.68929 7.95767 8.63793 8.00893C8.5865 8.05983 8.49955 8.0917 8.37368 8.10441L8.36811 8.21641H10.6905L10.75 7.65456H10.644C10.6137 7.80761 10.5442 7.91726 10.4337 7.97955C10.3228 8.0423 10.1269 8.0732 9.84375 8.0732H9.62419C9.36949 8.0732 9.2221 7.98233 9.18318 7.79962C9.17513 7.76347 9.17238 7.7247 9.17201 7.6821L9.18131 5.17763C9.18126 4.99294 9.20491 4.86917 9.25388 4.80858C9.30338 4.7482 9.39263 4.71442 9.52181 4.70575L9.51628 4.59375H8.30482ZM6.17783 4.72962C6.57248 4.72962 6.89472 4.88299 7.14364 5.19232C7.39247 5.50177 7.51582 5.92588 7.51582 6.46292C7.51582 6.97181 7.39069 7.37928 7.13992 7.68577C6.88913 7.99217 6.55537 8.1448 6.14062 8.1448C5.74216 8.1448 5.41903 7.98741 5.17109 7.67108C4.92337 7.35475 4.80077 6.94407 4.80077 6.43905C4.80077 5.92009 4.92486 5.50466 5.17481 5.19416C5.42462 4.88399 5.75913 4.72962 6.17783 4.72962ZM11.5186 5.26209C11.462 5.26209 11.4187 5.28097 11.3865 5.31902C11.3534 5.35691 11.3433 5.40281 11.3548 5.45857C11.366 5.51264 11.3969 5.56003 11.446 5.59994C11.4949 5.63981 11.5476 5.66053 11.6042 5.66053C11.6589 5.66053 11.7007 5.63981 11.7308 5.59994C11.7607 5.56003 11.7698 5.51264 11.7587 5.45857C11.7471 5.40281 11.7172 5.35691 11.6712 5.31902C11.6246 5.28097 11.5733 5.26209 11.5186 5.26209ZM13.0501 5.64218C12.9538 6.0075 12.7452 6.2052 12.4249 6.23708L12.4285 6.34174H12.8026L12.7952 7.57927C12.7957 7.79086 12.8023 7.93172 12.8175 8.00342C12.8543 8.17507 12.968 8.26231 13.158 8.26231C13.4331 8.26231 13.7216 8.097 14.0233 7.76656L13.9322 7.68944C13.7143 7.90705 13.5217 8.01627 13.3535 8.01627C13.2501 8.01627 13.1859 7.9576 13.1617 7.84184C13.1551 7.81373 13.1525 7.78087 13.1525 7.74269L13.1562 6.34174H13.7274L13.7219 6.17465H13.158V5.64218H13.0501ZM15.2589 6.10854C14.9394 6.10854 14.6795 6.26161 14.4774 6.56574C14.2763 6.87039 14.2141 7.20792 14.2932 7.57927C14.3397 7.79679 14.4323 7.96538 14.5742 8.08421C14.7157 8.20298 14.8954 8.26231 15.1101 8.26231C15.31 8.26231 15.5885 8.21236 15.7056 8.11175C15.823 8.0112 15.9313 7.8483 16.0312 7.62518L15.9512 7.54255C15.7918 7.832 15.47 7.97771 15.2273 7.97771C14.8937 7.97771 14.6894 7.79711 14.6133 7.4379C14.6033 7.39205 14.5959 7.34278 14.5909 7.291C14.9878 7.22901 15.2886 7.11922 15.4916 6.96051C15.6944 6.80171 15.8981 6.63339 15.8601 6.45557C15.8374 6.34991 15.7818 6.26683 15.6963 6.20403C15.6097 6.14125 15.3847 6.10854 15.2589 6.10854ZM11.7661 6.1214L11.0776 6.27747V6.39865L11.3157 6.36927C11.4311 6.36927 11.499 6.42082 11.5205 6.52351C11.5277 6.55788 11.5322 6.60613 11.5335 6.66673L11.526 7.77758C11.5241 7.9313 11.5068 8.02066 11.4721 8.04749C11.437 8.07437 11.3446 8.08788 11.1948 8.08788L11.191 8.19254H12.2834L12.2815 8.08788C12.1298 8.08788 12.0314 8.07607 11.9875 8.05299C11.9444 8.03007 11.9148 7.98835 11.9019 7.92446C11.892 7.87842 11.8877 7.79909 11.887 7.68944L11.8908 6.1214H11.7661ZM15.0841 6.32705C15.1506 6.32705 15.2148 6.35238 15.2795 6.40233C15.3432 6.4521 15.3821 6.50745 15.3948 6.56757C15.4571 6.8629 15.1917 7.06708 14.5946 7.18084C14.5776 6.96549 14.6154 6.77001 14.7119 6.59328C14.8076 6.41673 14.9323 6.32705 15.0841 6.32705Z" fill="#003B57"/>
</g>
</g>
<defs>
<linearGradient id="paint0_linear_872_3090" x1="13.8388" y1="0.491147" x2="13.8388" y2="22.6653" gradientUnits="userSpaceOnUse">
<stop stop-color="#97D9F6"/>
<stop offset="0.920245" stop-color="#0F80CC"/>
<stop offset="1" stop-color="#0F80CC"/>
</linearGradient>
<clipPath id="clip0_872_3090">
<rect width="24" height="24" fill="white"/>
</clipPath>
</defs>
</svg>
