<svg width="24" height="24" viewBox="0 0 24 24" fill="none" xmlns="http://www.w3.org/2000/svg">
<g clip-path="url(#clip0_872_1811)">
<path d="M18.375 0H5.625C2.5184 0 0 2.5184 0 5.625V18.375C0 21.4816 2.5184 24 5.625 24H18.375C21.4816 24 24 21.4816 24 18.375V5.625C24 2.5184 21.4816 0 18.375 0Z" fill="#00979C"/>
<path fill-rule="evenodd" clip-rule="evenodd" d="M1.78125 12.798V11.2589C1.81352 11.2429 1.81352 11.2108 1.81352 11.1787C2.29757 9.07852 3.62063 7.81195 5.71818 7.31495C5.89567 7.26685 6.08929 7.28288 6.26677 7.21875H7.2994C7.31554 7.25082 7.36394 7.23479 7.39622 7.23479C8.42886 7.34702 9.36468 7.71577 10.1875 8.35706C10.8975 8.88613 11.4461 9.5595 11.9463 10.2809C12.0108 10.3771 12.0431 10.3771 12.1076 10.2809C12.3981 9.86409 12.7046 9.46331 13.0596 9.09456C13.9148 8.18071 14.9474 7.5394 16.2059 7.31495C16.3834 7.26685 16.5931 7.28288 16.7707 7.21875H17.771C17.7871 7.25082 17.8194 7.23479 17.8517 7.23479C18.1583 7.26685 18.4487 7.33098 18.7391 7.41114C20.9012 8.03641 22.434 10.0084 22.3049 12.2369C22.2081 14.1127 21.2561 15.4595 19.5942 16.3091C18.7714 16.7581 17.8678 16.8703 16.932 16.8543C15.7058 16.8383 14.6408 16.4213 13.7212 15.6198C13.0757 15.0586 12.5755 14.3853 12.1076 13.6798C12.0431 13.5836 12.0108 13.5997 11.9463 13.6958C11.6558 14.1288 11.3493 14.5616 10.9943 14.9784C10.3651 15.6839 9.639 16.261 8.73542 16.5657C7.62211 16.9505 6.49266 16.9665 5.36321 16.6619C3.73358 16.1969 2.62027 15.1708 2.00714 13.5997C1.91033 13.3432 1.86192 13.0546 1.78125 12.798ZM6.91217 15.1548C7.83186 15.1868 8.62247 14.8822 9.30014 14.257C9.99394 13.6157 10.4941 12.814 10.9943 12.0285C11.0105 11.9804 11.0105 11.9483 10.9782 11.9002C10.5587 11.2429 10.123 10.5856 9.54216 10.0404C8.42886 8.98233 7.12192 8.62961 5.65364 9.09456C4.44352 9.49537 3.66904 10.345 3.49156 11.6276C3.31407 12.8301 3.78199 13.792 4.75008 14.5135C5.39548 14.9784 6.12156 15.1708 6.91217 15.1548ZM17.1417 15.1548C17.4967 15.1548 17.8517 15.1387 18.1905 15.0426C19.4651 14.6578 20.3042 13.8722 20.5462 12.5575C20.7882 11.2589 20.2881 10.2168 19.1909 9.47934C17.9808 8.64564 16.222 8.72581 14.9958 9.63966C14.1729 10.2488 13.6243 11.0665 13.0757 11.9163C13.0434 11.9644 13.0596 11.9964 13.0757 12.0445C13.5113 12.7339 13.947 13.4233 14.5118 14.0165C15.2216 14.77 16.0768 15.2029 17.1417 15.1548Z" fill="white"/>
<path fill-rule="evenodd" clip-rule="evenodd" d="M6.89637 11.5154C7.41268 11.5154 7.94514 11.5314 8.46146 11.5154C8.59054 11.5154 8.60668 11.5474 8.60668 11.6757C8.59053 11.82 8.59053 11.9643 8.60668 12.1086C8.62281 12.2369 8.59053 12.2689 8.44532 12.2689H6.38005C6.02508 12.2689 5.67011 12.2529 5.31514 12.2689C5.20219 12.2689 5.16992 12.2369 5.16992 12.1086C5.18606 11.9643 5.18606 11.82 5.16992 11.6596C5.16992 11.5474 5.20219 11.5154 5.31514 11.5154C5.83146 11.5314 6.36391 11.5154 6.89637 11.5154ZM17.0614 10.4893C17.1904 10.4893 17.3195 10.5053 17.4325 10.4893C17.5132 10.4893 17.5455 10.5213 17.5455 10.6015C17.5293 10.826 17.5455 11.0504 17.5293 11.2749C17.5293 11.3871 17.5616 11.4192 17.6745 11.4192C17.8843 11.4031 18.1102 11.4192 18.336 11.4031C18.4329 11.4031 18.4651 11.4192 18.4651 11.5314V12.2689C18.4651 12.3491 18.4329 12.3811 18.3522 12.3811C18.1263 12.3651 17.9004 12.3811 17.6584 12.3651C17.5616 12.3651 17.5293 12.3972 17.5293 12.4934C17.5455 12.7178 17.5293 12.9422 17.5455 13.1668C17.5455 13.2629 17.5132 13.311 17.4164 13.311C17.1743 13.295 16.9323 13.295 16.6903 13.311C16.5935 13.311 16.5612 13.279 16.5612 13.1828C16.5773 12.9422 16.5612 12.7178 16.5773 12.4773C16.5773 12.3972 16.545 12.3651 16.4644 12.3651C16.2385 12.3811 16.0126 12.3651 15.7867 12.3811C15.6576 12.3811 15.6415 12.333 15.6415 12.2369C15.6415 12.0124 15.6576 11.7879 15.6415 11.5634C15.6254 11.4352 15.69 11.4031 15.8028 11.4031C16.0288 11.4192 16.2385 11.4031 16.4644 11.4192C16.545 11.4192 16.5773 11.3871 16.5773 11.3069C16.5612 11.0825 16.5773 10.842 16.5612 10.6176C16.5612 10.5213 16.5935 10.4893 16.6903 10.4893C16.8194 10.5053 16.9323 10.4893 17.0614 10.4893Z" fill="white"/>
</g>
<defs>
<clipPath id="clip0_872_1811">
<rect width="24" height="24" fill="white"/>
</clipPath>
</defs>
</svg>
