<svg width="24" height="24" viewBox="0 0 24 24" fill="none" xmlns="http://www.w3.org/2000/svg">
<g clip-path="url(#clip0_872_2905)">
<path d="M18.375 0H5.625C2.5184 0 0 2.5184 0 5.625V18.375C0 21.4816 2.5184 24 5.625 24H18.375C21.4816 24 24 21.4816 24 18.375V5.625C24 2.5184 21.4816 0 18.375 0Z" fill="#F4F2ED"/>
<path d="M8.49207 2.71905C8.39466 2.72195 8.28975 2.75645 8.17069 2.84645C7.87894 2.73874 7.59619 2.70133 7.34335 2.92061C6.95278 2.87214 6.82585 2.97227 6.72975 3.08936C6.64407 3.08758 6.08832 3.0048 5.8335 3.36911C5.1931 3.29655 4.9905 3.73014 5.21982 4.1342C5.08922 4.32845 4.95347 4.51989 5.25947 4.88992C5.15128 5.09589 5.21832 5.3193 5.47332 5.58995C5.406 5.87936 5.53819 6.08374 5.77538 6.24302C5.73094 6.6392 6.1546 6.86983 6.28116 6.95177C6.32972 7.18258 6.43097 7.40064 6.9151 7.52092C6.9945 7.86536 7.2855 7.9247 7.56713 7.9968C6.63628 8.51542 5.83819 9.19727 5.84372 10.8708L5.70722 11.1039C4.63978 11.7259 3.67969 13.7245 5.18119 15.3492C5.27944 15.8578 5.44369 16.223 5.59013 16.6273C5.80932 18.2564 7.23891 19.0192 7.61588 19.1094C8.16853 19.5126 8.757 19.8951 9.55332 20.1632C10.304 20.9051 11.1173 21.1878 11.9351 21.1875H11.9711C12.7891 21.1879 13.6025 20.9051 14.3529 20.1632C15.1493 19.8952 15.7377 19.5126 16.2904 19.1094C16.6674 19.0192 18.0971 18.2564 18.316 16.6271C18.4625 16.223 18.6269 15.8578 18.7252 15.3492C20.2266 13.7245 19.2665 11.7256 18.1989 11.1036L18.0626 10.8707C18.0681 9.19727 17.2699 8.51505 16.339 7.9967C16.6207 7.92452 16.9117 7.86489 16.9913 7.52083C17.4752 7.40036 17.5763 7.18249 17.625 6.95158C17.7515 6.86936 18.1753 6.63911 18.1309 6.24255C18.368 6.08355 18.5002 5.87908 18.4329 5.58949C18.6879 5.31911 18.7549 5.09561 18.6466 4.88955C18.9527 4.51989 18.8168 4.32817 18.6863 4.13411C18.9155 3.72977 18.7133 3.29636 18.0726 3.36892C17.8178 3.0048 17.2621 3.08758 17.1765 3.08917C17.0802 2.97217 16.9532 2.87205 16.5627 2.92052C16.31 2.70133 16.027 2.73874 15.7354 2.84645C15.3892 2.58461 15.1598 2.79452 14.8981 2.87392C14.4788 2.74249 14.3828 2.92239 14.177 2.9957C13.7197 2.90308 13.5806 3.10464 13.3613 3.31745L13.1063 3.31267C12.4166 3.70192 12.0741 4.49514 11.9528 4.90286C11.8311 4.49495 11.4893 3.70183 10.7997 3.31267L10.5447 3.31727C10.3252 3.10445 10.1862 2.90308 9.729 2.9957C9.52303 2.92239 9.42722 2.74258 9.00769 2.87392C8.83575 2.8218 8.67778 2.71342 8.49178 2.71895L8.49207 2.71905Z" fill="#050606"/>
<path d="M7.13345 4.43257C8.96336 5.33623 10.0269 6.06767 10.6099 6.69054C10.3115 7.83664 8.75448 7.88886 8.18505 7.8567C8.30177 7.80476 8.39898 7.74242 8.43348 7.64689C8.29061 7.54967 7.78417 7.63667 7.43045 7.44617C7.5663 7.41917 7.62986 7.39292 7.69342 7.29701C7.3592 7.19482 6.99939 7.10679 6.7877 6.93757C6.90198 6.93917 7.00858 6.96223 7.15783 6.86295C6.85848 6.70845 6.53917 6.58611 6.2912 6.34986C6.44552 6.34629 6.61258 6.34826 6.66114 6.29389C6.3872 6.13142 6.15611 5.95048 5.96495 5.75286C6.18152 5.77779 6.27283 5.75632 6.32533 5.71995C6.11814 5.51689 5.85611 5.34532 5.73114 5.09501C5.89192 5.14807 6.03902 5.16842 6.14505 5.09023C6.07455 4.93817 5.77333 4.84845 5.59961 4.49323C5.76892 4.50879 5.94845 4.52857 5.98417 4.49323C5.9058 4.18648 5.77108 4.01398 5.6388 3.83557C6.00095 3.83032 6.54977 3.8367 6.52492 3.80726L6.30086 3.58826C6.65477 3.49686 7.01683 3.60298 7.2797 3.68145C7.39764 3.59229 7.27764 3.47961 7.13373 3.36411C7.43439 3.40264 7.70598 3.46901 7.95142 3.56023C8.08277 3.4467 7.86639 3.33326 7.76167 3.21954C8.2262 3.30411 8.42308 3.4227 8.61855 3.54167C8.76058 3.41117 8.6267 3.30054 8.53108 3.18711C8.88123 3.31132 9.06161 3.47192 9.25173 3.63026C9.31614 3.54682 9.41512 3.48579 9.29552 3.28498C9.54403 3.42232 9.73134 3.58423 9.8699 3.76545C10.0237 3.67151 9.96159 3.54307 9.96253 3.42486C10.221 3.62632 10.3849 3.84054 10.5859 4.05007C10.626 4.02195 10.6614 3.92614 10.6928 3.77482C11.3093 4.34792 12.1807 5.79167 10.9167 6.36401C9.84112 5.51417 8.55648 4.89617 7.13298 4.43257H7.13327H7.13345ZM16.8255 4.43257C14.9958 5.33642 13.9319 6.06748 13.3492 6.69054C13.6477 7.83664 15.2047 7.88886 15.7739 7.8567C15.6573 7.80476 15.5602 7.74242 15.5257 7.64689C15.6685 7.54967 16.1752 7.63667 16.5287 7.44617C16.3928 7.41917 16.3292 7.39292 16.2658 7.29701C16.5998 7.19482 16.9597 7.10679 17.1714 6.93757C17.0572 6.93917 16.9504 6.96223 16.8012 6.86295C17.1006 6.70845 17.4199 6.58611 17.6681 6.34986C17.5132 6.34629 17.3466 6.34826 17.298 6.29389C17.572 6.13142 17.8031 5.95048 17.9944 5.75286C17.7777 5.77779 17.6864 5.75632 17.6339 5.71995C17.841 5.51689 18.103 5.34532 18.228 5.09501C18.0672 5.14807 17.9202 5.16842 17.8141 5.09023C17.8845 4.93817 18.1858 4.84845 18.3595 4.49323C18.19 4.50879 18.0107 4.52857 17.9747 4.49323C18.0535 4.18648 18.1881 4.01389 18.3204 3.83539C17.9583 3.83023 17.4094 3.83651 17.4342 3.80726L17.6585 3.58826C17.3044 3.49676 16.9423 3.60279 16.6796 3.68126C16.5615 3.59211 16.6819 3.47942 16.8255 3.36401C16.5251 3.40254 16.2532 3.46892 16.0078 3.56014C15.8765 3.44651 16.0929 3.33317 16.1976 3.21945C15.733 3.30401 15.5363 3.42261 15.3406 3.54129C15.1987 3.41107 15.3326 3.30036 15.4282 3.18701C15.0779 3.31123 14.8975 3.47182 14.7076 3.62989C14.6433 3.54664 14.5441 3.48561 14.6638 3.28461C14.4152 3.42214 14.2278 3.58386 14.0892 3.76526C13.9354 3.67132 13.9976 3.54289 13.9966 3.42476C13.7384 3.62614 13.5742 3.84054 13.3734 4.04998C13.3331 4.02186 13.2977 3.92604 13.2664 3.77464C12.6498 4.34773 11.7786 5.79148 13.0424 6.36392C14.1176 5.51361 15.4019 4.89589 16.8258 4.43248L16.8255 4.43257Z" fill="#63C54D"/>
<path d="M14.1919 16.1038C14.1983 17.1733 13.2221 18.0449 12.0116 18.0507C10.801 18.0563 9.81453 17.1939 9.80806 16.1242V16.1038C9.8016 15.0342 10.7778 14.1625 11.9883 14.1568C13.199 14.1512 14.1854 15.0136 14.1919 16.0832V16.1036V16.1038ZM10.7743 10.5715C11.6824 11.1416 11.8461 12.4339 11.14 13.4579C10.4336 14.482 9.12489 14.85 8.21655 14.2798C7.30848 13.7098 7.1447 12.4172 7.85101 11.3934C8.55723 10.3692 9.866 10.0013 10.7743 10.5715ZM13.2256 10.4682C12.3174 11.0384 12.1537 12.3306 12.86 13.3548C13.5663 14.3787 14.8751 14.7469 15.7831 14.1765C16.6916 13.6064 16.8551 12.3141 16.1488 11.2901C15.4424 10.2662 14.1339 9.89807 13.2256 10.4683V10.4682ZM6.29121 11.5095C7.27165 11.2575 6.62215 15.3964 5.82451 15.0569C4.94673 14.3805 4.66398 12.3998 6.29101 11.5095H6.29121ZM17.6231 11.458C16.6423 11.2063 17.2918 15.3451 18.0898 15.0056C18.9674 14.3291 19.25 12.3482 17.6231 11.458ZM14.3342 8.37005C16.0265 8.09621 17.4344 9.0594 17.3776 10.8177C17.3219 11.4916 13.7107 8.47027 14.3342 8.36987V8.37005ZM9.65872 8.3184C7.96624 8.04455 6.5582 9.00802 6.61511 10.7661C6.6708 11.4401 10.2822 8.41862 9.65872 8.3184ZM11.9899 7.90834C10.9801 7.88321 10.0108 8.62674 10.0083 9.05762C10.0057 9.58166 10.8069 10.118 11.997 10.1317C13.2121 10.1399 13.9875 9.70232 13.9915 9.16168C13.9959 8.54912 12.8862 7.89896 11.9899 7.90834ZM12.068 18.6522C12.9486 18.6152 14.1303 18.9238 14.1325 19.3332C14.1472 19.7307 13.0609 20.6288 12.0096 20.6115C10.9209 20.6566 9.85325 19.757 9.86731 19.4453C9.85091 18.9881 11.1931 18.6313 12.068 18.6522ZM8.80923 16.226C9.43606 16.9498 9.72172 18.2212 9.19877 18.5959C8.70387 18.8821 7.50171 18.7643 6.64718 17.5882C6.07118 16.6016 6.14551 15.5973 6.55005 15.3022C7.15501 14.9491 8.0898 15.4261 8.80905 16.226H8.80923ZM15.1213 15.9965C14.4429 16.7579 14.0652 18.1463 14.56 18.5935C15.033 18.941 16.3032 18.8923 17.2415 17.645C17.9228 16.8073 17.6944 15.4084 17.3053 15.0369C16.7273 14.6083 15.8975 15.1567 15.1213 15.9962L15.1213 15.9965Z" fill="#C51850"/>
</g>
<defs>
<clipPath id="clip0_872_2905">
<rect width="24" height="24" fill="white"/>
</clipPath>
</defs>
</svg>
