<svg width="24" height="24" viewBox="0 0 24 24" fill="none" xmlns="http://www.w3.org/2000/svg">
<g clip-path="url(#clip0_872_2976)">
<path d="M18.375 0H5.625C2.5184 0 0 2.5184 0 5.625V18.375C0 21.4816 2.5184 24 5.625 24H18.375C21.4816 24 24 21.4816 24 18.375V5.625C24 2.5184 21.4816 0 18.375 0Z" fill="#F4F2ED"/>
<path d="M7.62376 5.83914C7.62376 6.83727 6.84028 7.64704 5.87469 7.64704C4.90848 7.64704 4.125 6.83727 4.125 5.83914C4.125 4.84039 4.90848 4.03125 5.87469 4.03125C6.84028 4.03125 7.62376 4.84039 7.62376 5.83914Z" fill="#304060"/>
<path d="M7.62376 12C7.62376 12.9982 6.84028 13.8079 5.87469 13.8079C4.90848 13.8079 4.125 12.9982 4.125 12C4.125 11.0013 4.90848 10.1921 5.87469 10.1921C6.84028 10.1921 7.62376 11.0013 7.62376 12Z" fill="#304060"/>
<path d="M7.62376 18.1609C7.62376 19.1591 6.84028 19.9689 5.87469 19.9689C4.90848 19.9689 4.125 19.1591 4.125 18.1609C4.125 17.1628 4.90848 16.353 5.87469 16.353C6.84028 16.353 7.62376 17.1628 7.62376 18.1609Z" fill="#304060"/>
<path d="M13.7292 12C13.7292 12.9982 12.9464 13.8079 11.9802 13.8079C11.0139 13.8079 10.2305 12.9982 10.2305 12C10.2305 11.0013 11.0139 10.1921 11.9802 10.1921C12.9464 10.1921 13.7292 11.0013 13.7292 12Z" fill="#304060"/>
<path d="M13.7292 5.83914C13.7292 6.83727 12.9464 7.64704 11.9802 7.64704C11.0139 7.64704 10.2305 6.83727 10.2305 5.83914C10.2305 4.84039 11.0139 4.03125 11.9802 4.03125C12.9464 4.03125 13.7292 4.84039 13.7292 5.83914Z" fill="#304060"/>
<path d="M19.8327 12C19.8327 12.9982 19.0493 13.8079 18.083 13.8079C17.1168 13.8079 16.334 12.9982 16.334 12C16.334 11.0013 17.1168 10.1921 18.083 10.1921C19.0493 10.1921 19.8327 11.0013 19.8327 12Z" fill="#304060"/>
<path d="M19.8327 5.83914C19.8327 6.83727 19.0493 7.64704 18.083 7.64704C17.1168 7.64704 16.334 6.83727 16.334 5.83914C16.334 4.84039 17.1168 4.03125 18.083 4.03125C19.0493 4.03125 19.8327 4.84039 19.8327 5.83914Z" fill="#304060"/>
<path d="M19.8327 18.1609C19.8327 19.1591 19.0493 19.9689 18.083 19.9689C17.1168 19.9689 16.334 19.1591 16.334 18.1609C16.334 17.1628 17.1168 16.353 18.083 16.353C19.0493 16.353 19.8327 17.1628 19.8327 18.1609Z" fill="#304060"/>
<path d="M13.7293 18.1609C13.7293 19.1591 12.9464 19.9689 11.9802 19.9689C11.014 19.9689 10.2305 19.1591 10.2305 18.1609C10.2305 17.1628 11.014 16.353 11.9802 16.353C12.9464 16.353 13.7293 17.1628 13.7293 18.1609Z" fill="#304060"/>
</g>
<defs>
<clipPath id="clip0_872_2976">
<rect width="24" height="24" fill="white"/>
</clipPath>
</defs>
</svg>
