<svg width="24" height="24" viewBox="0 0 24 24" fill="none" xmlns="http://www.w3.org/2000/svg">
<g clip-path="url(#clip0_872_1774)">
<path d="M18.375 0H5.625C2.5184 0 0 2.5184 0 5.625V18.375C0 21.4816 2.5184 24 5.625 24H18.375C21.4816 24 24 21.4816 24 18.375V5.625C24 2.5184 21.4816 0 18.375 0Z" fill="#F4F2ED"/>
<path d="M10.0339 4.57666H5.69895C4.83561 4.57666 4.12601 5.31372 4.12601 6.22638C4.09517 7.10725 4.77354 7.84404 5.62217 7.876H10.0802L10.0339 4.57666Z" fill="#073042"/>
<path d="M19.8605 19.2473H5.69989C4.82108 19.2473 4.12695 18.5106 4.12695 17.5977V6.21069C4.12695 7.12344 4.83655 7.86022 5.69989 7.87616H17.5623C17.5623 7.87616 19.8759 7.66822 19.8759 9.47796V19.2473H19.8605Z" fill="#4285F4"/>
<path d="M13.2566 13.4175C13.8891 12.9211 14.0125 11.9922 13.5347 11.3515C13.2722 10.9991 12.8711 10.775 12.4391 10.7589H12.4854C12.5627 10.7429 12.6551 10.7429 12.7326 10.7589V9.84602C12.7326 9.73389 12.6861 9.6378 12.5936 9.58989C12.4546 9.50973 12.285 9.55783 12.208 9.70192C12.177 9.75001 12.1616 9.79802 12.177 9.86205V10.7908C11.4058 10.919 10.8659 11.6718 10.989 12.4887V12.5047C11.051 12.889 11.2517 13.2415 11.5601 13.4656L8.95312 19.2632H10.65L11.853 16.6046C11.9921 16.2842 12.3622 16.1402 12.6861 16.3003C12.8097 16.3645 12.9175 16.4765 12.9791 16.6046L14.2288 19.2632H15.9563L13.2566 13.4175ZM12.3776 13.1613C11.8839 13.1613 11.4983 12.7449 11.4983 12.2325C11.4983 11.7198 11.8993 11.3195 12.3928 11.3354C12.6242 11.3354 12.8251 11.4316 12.9945 11.5919C13.3493 11.944 13.3493 12.5207 13.0099 12.889C12.8558 13.0493 12.6242 13.1613 12.3776 13.1613Z" fill="#3870B2"/>
<path d="M9.09375 5.37769H15.1712V6.53072H9.09375V5.37769Z" fill="white"/>
<path d="M11.9162 11.3195C12.3943 11.3195 12.7956 11.736 12.7802 12.2484C12.7802 12.7449 12.379 13.1613 11.8853 13.1453C11.4073 13.1453 11.0215 12.729 11.0215 12.2326C11.0215 11.9923 11.1139 11.7679 11.2841 11.592C11.4535 11.4156 11.6847 11.3195 11.9162 11.3195ZM12.2556 10.7909V9.83002C12.2556 9.7179 12.2094 9.6219 12.1169 9.57371C11.9781 9.49365 11.8083 9.54174 11.7309 9.68593C11.6999 9.73393 11.6847 9.78202 11.6999 9.84605V10.775C10.9288 10.903 10.3889 11.656 10.5127 12.4727V12.4888C10.5745 12.8729 10.7747 13.2254 11.0833 13.4494L7.79768 20.7687C7.6744 21.0252 7.68977 21.3452 7.85946 21.5855C8.10593 21.9538 8.58452 22.0499 8.9389 21.7937C9.06274 21.7136 9.15518 21.5855 9.21677 21.4574L11.4073 16.5886C11.546 16.2683 11.9162 16.1241 12.2402 16.2842C12.3636 16.3484 12.4714 16.4606 12.5332 16.5886L14.7699 21.4094C14.9552 21.8097 15.4177 21.9698 15.8037 21.7775C16.189 21.5855 16.3434 21.105 16.1581 20.7046L12.7802 13.4176C13.3971 12.9049 13.5052 11.9602 13.0113 11.3195C12.8265 11.0632 12.5641 10.8871 12.2556 10.7909Z" fill="#073042"/>
<path d="M14.2755 6.40275C14.0439 6.40275 13.8588 6.22641 13.8588 5.98631C13.8588 5.87419 13.9049 5.74612 13.9821 5.66597C14.1519 5.50594 14.3988 5.50594 14.5685 5.66597C14.6455 5.74612 14.6918 5.85816 14.6918 5.97028C14.6764 6.21056 14.5067 6.38672 14.2755 6.40275ZM9.70953 6.38672C9.47778 6.38672 9.29298 6.19453 9.29298 5.97028C9.29298 5.85816 9.33939 5.74612 9.41619 5.66597C9.55513 5.48991 9.81772 5.45775 9.98713 5.60213H10.0026C10.1721 5.76216 10.1875 6.03431 10.0335 6.21056L9.98713 6.27441C9.91016 6.35456 9.80235 6.40275 9.69397 6.40275L9.70953 6.38672ZM14.3988 3.80812L15.2163 2.33475C15.2625 2.25469 15.2317 2.15859 15.1701 2.09456C15.0929 2.0625 15.016 2.07853 14.9698 2.14266L14.1211 3.66403C12.7638 3.03947 11.2213 3.03947 9.87932 3.66403L9.04633 2.15859C9.01548 2.11059 8.95361 2.0625 8.89173 2.0625C8.83014 2.0625 8.76836 2.09456 8.73733 2.15859C8.70658 2.20669 8.70658 2.28666 8.73733 2.33475L9.5706 3.80812C8.12036 4.62469 7.17948 6.16256 7.04102 7.86009H16.9438C16.8207 6.14663 15.8641 4.62469 14.4142 3.80812" fill="#3DDC84"/>
<path d="M18.5027 11.0475H17.8547C17.8237 11.0632 17.793 11.0953 17.793 11.1433V21.7937C17.793 21.8416 17.8237 21.8737 17.8703 21.8737H18.5489C19.3355 21.8737 19.968 21.201 19.968 20.4003V9.55786C19.968 10.3746 19.3355 11.0313 18.5489 11.0313H18.5027V11.0475Z" fill="#073042"/>
</g>
<defs>
<clipPath id="clip0_872_1774">
<rect width="24" height="24" fill="white"/>
</clipPath>
</defs>
</svg>
