<svg width="24" height="24" viewBox="0 0 24 24" fill="none" xmlns="http://www.w3.org/2000/svg">
<g clip-path="url(#clip0_872_2233)">
<path d="M18.375 0H5.625C2.5184 0 0 2.5184 0 5.625V18.375C0 21.4816 2.5184 24 5.625 24H18.375C21.4816 24 24 21.4816 24 18.375V5.625C24 2.5184 21.4816 0 18.375 0Z" fill="#F4F2ED"/>
<path d="M13.5876 3.56827L18.8165 3.5625L10.0438 12.3306L7.75755 14.6041L5.15625 11.9996L13.5876 3.56827ZM13.5389 11.3971C13.6068 11.3075 13.7317 11.3517 13.8264 11.3402L18.812 11.3414L14.2682 15.8808L11.6534 13.282L13.5389 11.3971Z" fill="#44D1FD"/>
<path d="M9.04688 15.8851L11.6533 13.282L14.2681 15.8807L14.2789 15.8923L11.6539 18.4929L9.04688 15.8851Z" fill="#1FBCFD"/>
<path d="M11.6543 18.493L14.2793 15.8923L18.8141 20.4316C17.106 20.4355 15.3984 20.4303 13.6909 20.4341C13.5936 20.4559 13.5334 20.3669 13.4713 20.3119L11.6543 18.493Z" fill="#08589C"/>
</g>
<defs>
<clipPath id="clip0_872_2233">
<rect width="24" height="24" fill="white"/>
</clipPath>
</defs>
</svg>
