<svg width="24" height="24" viewBox="0 0 24 24" fill="none" xmlns="http://www.w3.org/2000/svg">
<g clip-path="url(#clip0_872_1744)">
<path d="M18.375 0H5.625C2.5184 0 0 2.5184 0 5.625V18.375C0 21.4816 2.5184 24 5.625 24H18.375C21.4816 24 24 21.4816 24 18.375V5.625C24 2.5184 21.4816 0 18.375 0Z" fill="#F4F2ED"/>
<path d="M10.8289 3.38211C10.6177 2.95461 10.1628 2.71875 9.69166 2.71875C9.23672 2.71875 8.78182 2.95461 8.58685 3.38211L4.57393 11.4898C4.29774 12.0352 4.57393 12.6985 5.1913 12.9344C5.35377 13.0081 5.51624 13.0376 5.6787 13.0376C6.14986 13.0376 6.58852 12.8018 6.79973 12.389L7.35211 11.2687H12.0636L12.616 12.389C12.811 12.8018 13.2659 13.0376 13.7208 13.0376C13.8832 13.0376 14.062 13.0081 14.2245 12.9344C14.8256 12.6985 15.1018 12.0352 14.8256 11.4898L10.8289 3.38211ZM11.1051 9.32282H8.31067L9.69166 6.47776L11.1051 9.32282Z" fill="url(#paint0_linear_872_1744)"/>
<path d="M18.2853 4.16332C18.2853 4.75297 17.7654 5.2247 17.1156 5.2247C16.4657 5.2247 15.9295 4.75297 15.9295 4.16332C15.9295 3.58842 16.4657 3.1167 17.1156 3.1167C17.7654 3.1167 18.2853 3.58842 18.2853 4.16332ZM17.1156 13.0375C16.4007 13.0375 15.832 12.5068 15.832 11.873V6.83149C15.832 6.19761 16.4007 5.66693 17.1156 5.66693C17.8142 5.66693 18.3828 6.19761 18.3828 6.83149V11.873C18.3828 12.5068 17.8142 13.0375 17.1156 13.0375Z" fill="url(#paint1_linear_872_1744)"/>
<path d="M3.37141 19.9778C2.93738 19.9778 2.41654 19.8228 2.06931 19.5904C1.77416 19.3923 1.68736 18.9963 1.89569 18.7036C2.09535 18.4109 2.49466 18.3334 2.7898 18.5314C3.18911 18.7983 3.94434 18.738 4.0051 18.1526C4.03114 17.9545 3.93565 17.7479 3.7794 17.6361C3.58842 17.4983 3.31932 17.4896 3.11099 17.3949C2.85924 17.3003 2.62487 17.1453 2.43389 16.9559C2.07799 16.6287 1.87834 16.2069 1.86098 15.785C1.86098 15.5439 1.90437 15.3115 1.99119 15.079C2.07799 14.8724 2.2082 14.683 2.36445 14.5108C2.52939 14.3472 2.71167 14.2181 2.91133 14.1234C3.13703 14.0201 3.36273 13.9599 3.5971 13.9426C3.91829 13.934 4.39572 14.0029 4.74295 14.2095C5.05545 14.3989 5.15094 14.7864 4.97733 15.0963C4.78635 15.3976 4.39572 15.4923 4.0919 15.3115C3.87489 15.191 3.56238 15.191 3.36273 15.3459C3.24988 15.432 3.17175 15.5784 3.17175 15.7162C3.15439 16.2241 3.80544 16.2327 4.14399 16.3704C4.4044 16.4824 4.64746 16.646 4.83844 16.8612C5.13358 17.1883 5.3072 17.6016 5.31588 18.0493C5.33323 18.5573 5.14226 19.0307 4.77767 19.3923C4.43913 19.7367 3.97037 19.9434 3.48426 19.9691C3.44953 19.9691 3.40613 19.9778 3.37141 19.9778Z" fill="url(#paint2_linear_872_1744)"/>
<path d="M7.92016 19.9692C7.62502 19.9692 7.33856 19.9175 7.07814 19.8057C6.81772 19.6937 6.58334 19.5388 6.38368 19.3408C6.18403 19.1427 6.02778 18.9103 5.91493 18.6606C5.81076 18.3937 5.75 18.1095 5.75 17.8169C5.75 17.5328 5.81076 17.2486 5.91493 16.9731C6.02778 16.7235 6.18403 16.4997 6.38368 16.2931C6.58334 16.0951 6.81772 15.9486 7.07814 15.8368C7.33856 15.7162 7.62502 15.6646 7.92016 15.6646C8.16322 15.6646 8.39759 15.7076 8.63198 15.7851C8.85767 15.8539 9.05733 15.9659 9.23962 16.1122C9.53475 16.3361 9.5955 16.758 9.36983 17.0593C9.23094 17.2314 9.03129 17.3262 8.82295 17.3262C8.68406 17.3262 8.53648 17.2745 8.40627 17.1797C8.26738 17.0679 8.10246 17.0162 7.92016 17.0162C7.46877 17.0162 7.11286 17.3778 7.11286 17.8169C7.11286 18.2645 7.46877 18.6176 7.92016 18.6176C8.10246 18.6176 8.26738 18.5659 8.40627 18.454C8.7101 18.2301 9.13545 18.2818 9.36115 18.5831C9.5955 18.8759 9.53475 19.3063 9.23962 19.5301C8.86635 19.8228 8.3976 19.9692 7.92016 19.9692Z" fill="url(#paint3_linear_872_1744)"/>
<path d="M11.8863 15.6732C11.8602 15.6646 11.8256 15.6646 11.7908 15.6646C11.4957 15.6646 11.2005 15.7335 10.9401 15.8626C10.8359 15.742 10.671 15.6732 10.4974 15.6732C10.1675 15.6732 9.89844 15.9401 9.89844 16.2672V19.2891C9.89844 19.6679 10.2023 19.9692 10.5755 19.9692C10.9574 19.9692 11.2613 19.6679 11.2613 19.2891V17.55C11.2613 17.2573 11.5044 17.0248 11.7908 17.0248H11.8516C12.2162 17.0248 12.52 16.7407 12.5374 16.3791C12.5547 16.0003 12.2596 15.6903 11.8863 15.6732Z" fill="url(#paint4_linear_872_1744)"/>
<path d="M14.3694 14.7865C14.3694 15.1309 14.0916 15.4064 13.7444 15.4064C13.3972 15.4064 13.1107 15.1309 13.1107 14.7865C13.1107 14.4507 13.3972 14.1753 13.7444 14.1753C14.0916 14.1753 14.3694 14.4507 14.3694 14.7865ZM13.7444 19.9693C13.3624 19.9693 13.0586 19.6594 13.0586 19.2892V16.3449C13.0586 15.9746 13.3624 15.6647 13.7444 15.6647C14.1177 15.6647 14.4215 15.9746 14.4215 16.3449V19.2892C14.4215 19.6594 14.1177 19.9693 13.7444 19.9693Z" fill="url(#paint5_linear_872_1744)"/>
<path d="M17.2081 15.6475C16.8262 15.6475 16.4616 15.7508 16.1404 15.923C16.0363 15.7508 15.8453 15.6475 15.6283 15.6475C15.2984 15.6475 15.0293 15.9057 15.0293 16.2416V20.6495C15.0293 21.0197 15.3418 21.3296 15.7237 21.3296C16.097 21.3296 16.4095 21.0197 16.4095 20.6495V19.8144C16.6526 19.9177 16.9304 19.9693 17.2081 19.9693C18.4147 19.9693 19.387 19.0051 19.387 17.8084C19.387 16.6117 18.4147 15.6475 17.2081 15.6475ZM17.781 18.3766C17.6248 18.5316 17.4252 18.6091 17.2081 18.6091C16.9911 18.6091 16.7914 18.5316 16.6352 18.3766C16.479 18.2303 16.3921 18.0236 16.3921 17.8084C16.3921 17.5931 16.479 17.3865 16.6352 17.2316C16.7914 17.0852 16.9911 16.9991 17.2081 16.9991C17.4252 16.9991 17.6248 17.0852 17.781 17.2316C17.9373 17.3865 18.0241 17.5931 18.0241 17.8084C18.0241 18.0236 17.9373 18.2303 17.781 18.3766Z" fill="url(#paint6_linear_872_1744)"/>
<path d="M21.5829 18.6175C21.3399 18.6175 21.1402 18.4195 21.1402 18.1785V16.8613H21.6611C21.9909 16.8613 22.26 16.5944 22.26 16.2672C22.26 15.9315 21.9909 15.6646 21.6611 15.6646H21.1402V14.9672C21.1402 14.597 20.8363 14.2957 20.4631 14.2957C20.0812 14.2957 19.7773 14.597 19.7773 14.9672V18.1785C19.7773 18.6607 19.9683 19.1083 20.3068 19.4527C20.6454 19.7798 21.0968 19.9692 21.5829 19.9692C21.9562 19.9692 22.26 19.6679 22.26 19.2891C22.26 18.9189 21.9562 18.6175 21.5829 18.6175Z" fill="url(#paint7_linear_872_1744)"/>
</g>
<defs>
<linearGradient id="paint0_linear_872_1744" x1="4.46679" y1="9.04209" x2="57.9279" y2="9.04209" gradientUnits="userSpaceOnUse">
<stop stop-color="#82E97A"/>
<stop offset="1" stop-color="#21DEBB"/>
</linearGradient>
<linearGradient id="paint1_linear_872_1744" x1="4.46597" y1="9.04211" x2="57.9271" y2="9.04211" gradientUnits="userSpaceOnUse">
<stop stop-color="#82E97A"/>
<stop offset="1" stop-color="#21DEBB"/>
</linearGradient>
<linearGradient id="paint2_linear_872_1744" x1="-6.30403" y1="17.6357" x2="22.2605" y2="17.6357" gradientUnits="userSpaceOnUse">
<stop stop-color="#82E97A"/>
<stop offset="1" stop-color="#21DEBB"/>
</linearGradient>
<linearGradient id="paint3_linear_872_1744" x1="-6.30384" y1="17.6357" x2="22.2606" y2="17.6357" gradientUnits="userSpaceOnUse">
<stop stop-color="#82E97A"/>
<stop offset="1" stop-color="#21DEBB"/>
</linearGradient>
<linearGradient id="paint4_linear_872_1744" x1="-6.30475" y1="17.6357" x2="22.2597" y2="17.6357" gradientUnits="userSpaceOnUse">
<stop stop-color="#82E97A"/>
<stop offset="1" stop-color="#21DEBB"/>
</linearGradient>
<linearGradient id="paint5_linear_872_1744" x1="-6.30433" y1="17.6359" x2="22.2602" y2="17.6359" gradientUnits="userSpaceOnUse">
<stop stop-color="#82E97A"/>
<stop offset="1" stop-color="#21DEBB"/>
</linearGradient>
<linearGradient id="paint6_linear_872_1744" x1="-6.30417" y1="17.6359" x2="22.2602" y2="17.6359" gradientUnits="userSpaceOnUse">
<stop stop-color="#82E97A"/>
<stop offset="1" stop-color="#21DEBB"/>
</linearGradient>
<linearGradient id="paint7_linear_872_1744" x1="-6.30446" y1="17.6358" x2="22.26" y2="17.6358" gradientUnits="userSpaceOnUse">
<stop stop-color="#82E97A"/>
<stop offset="1" stop-color="#21DEBB"/>
</linearGradient>
<clipPath id="clip0_872_1744">
<rect width="24" height="24" fill="white"/>
</clipPath>
</defs>
</svg>
