<svg width="24" height="24" viewBox="0 0 24 24" fill="none" xmlns="http://www.w3.org/2000/svg">
<g clip-path="url(#clip0_872_1853)">
<path d="M18.375 0H5.625C2.5184 0 0 2.5184 0 5.625V18.375C0 21.4816 2.5184 24 5.625 24H18.375C21.4816 24 24 21.4816 24 18.375V5.625C24 2.5184 21.4816 0 18.375 0Z" fill="#394AAB"/>
<path d="M12.5626 3.09375C15.8573 3.09375 18.7339 4.88309 20.2746 7.54276L20.2596 7.51716L16.3831 9.74916C15.6194 8.45603 14.2192 7.58336 12.6131 7.56539L12.5626 7.56511C10.1133 7.56511 8.12761 9.55069 8.12761 11.9999C8.12761 12.8009 8.34115 13.5517 8.71252 14.2002C9.477 15.5347 10.914 16.4349 12.5626 16.4349C14.2212 16.4349 15.6665 15.5233 16.4271 14.1745L16.4086 14.2069L20.2792 16.4492C18.7553 19.0864 15.9182 20.8702 12.6618 20.9057L12.5626 20.9062C9.25744 20.9062 6.37268 19.1059 4.83581 16.4321C4.08554 15.1268 3.65625 13.6136 3.65625 11.9999C3.65625 7.08126 7.64365 3.09375 12.5626 3.09375Z" fill="white"/>
</g>
<defs>
<clipPath id="clip0_872_1853">
<rect width="24" height="24" fill="white"/>
</clipPath>
</defs>
</svg>
