<svg width="24" height="24" viewBox="0 0 24 24" fill="none" xmlns="http://www.w3.org/2000/svg">
<g clip-path="url(#clip0_872_1856)">
<path d="M18.375 0H5.625C2.5184 0 0 2.5184 0 5.625V18.375C0 21.4816 2.5184 24 5.625 24H18.375C21.4816 24 24 21.4816 24 18.375V5.625C24 2.5184 21.4816 0 18.375 0Z" fill="#F4F2ED"/>
<mask id="mask0_872_1856" style="mask-type:luminance" maskUnits="userSpaceOnUse" x="2" y="2" width="20" height="20">
<path d="M21.375 2.625H2.625V21.375H21.375V2.625Z" fill="white"/>
</mask>
<g mask="url(#mask0_872_1856)">
<path d="M11.9999 2.625C6.83078 2.625 2.625 6.83078 2.625 12.0001C2.625 17.1698 6.83078 21.3754 11.9999 21.3754C17.1692 21.3754 21.375 17.1698 21.375 12.0001C21.375 6.83078 17.1692 2.625 11.9999 2.625Z" fill="white"/>
<path d="M11.6567 12.1687C11.5725 12.3512 11.4795 12.5564 11.3834 12.7746C11.0431 13.5454 10.6664 14.4833 10.5287 15.0842C10.4793 15.2982 10.4487 15.5634 10.4492 15.8575C10.4492 15.9738 10.4555 16.0961 10.4654 16.2206C10.9464 16.3973 11.4659 16.4945 12.0084 16.4955C12.5023 16.4945 12.9767 16.4129 13.4208 16.2652C13.3164 16.1698 13.2168 16.068 13.1262 15.9535C12.5241 15.1857 12.1882 14.0606 11.6567 12.1687Z" fill="#91DC47"/>
<path d="M9.43441 8.35449C8.28457 9.16484 7.53215 10.5013 7.5293 12.0161C7.53215 13.508 8.26193 14.8272 9.38285 15.641C9.65782 14.4957 10.347 13.4471 11.3805 11.345C11.3192 11.1763 11.2492 10.9918 11.1709 10.798C10.8846 10.0797 10.4714 9.24563 10.1026 8.86791C9.9146 8.67061 9.68641 8.5001 9.43441 8.35449Z" fill="#91DC47"/>
<path d="M15.9105 17.1538C15.3173 17.0794 14.8276 16.9897 14.3994 16.8387C13.6789 17.1963 12.8676 17.3985 12.0085 17.3985C9.03608 17.3985 6.62648 14.9892 6.62612 12.0159C6.62612 10.4025 7.33686 8.95631 8.46128 7.96995C8.16054 7.8973 7.84692 7.85488 7.52656 7.85547C5.94731 7.87034 4.28024 8.74434 3.5862 11.1047C3.52131 11.4483 3.53677 11.7081 3.53677 12.016C3.53677 16.6951 7.33005 20.4884 12.0087 20.4884C14.8741 20.4884 17.4054 19.0646 18.9383 16.8871C18.1091 17.0938 17.3119 17.1926 16.6291 17.1946C16.3732 17.1946 16.133 17.181 15.9105 17.1538Z" fill="#63B132"/>
<path d="M14.318 15.5121C14.3703 15.5381 14.4888 15.5804 14.6539 15.6272C15.764 14.8123 16.4854 13.4995 16.4883 12.0159H16.4878C16.4837 9.54239 14.4821 7.54105 12.008 7.53613C11.5163 7.53709 11.0439 7.61824 10.6016 7.7648C11.5111 8.80162 11.9486 10.2833 12.3717 11.904C12.3718 11.9048 12.3722 11.9054 12.3724 11.906C12.3732 11.9073 12.5077 12.356 12.7387 12.9514C12.9681 13.546 13.2949 14.2821 13.6513 14.8185C13.8853 15.178 14.1427 15.4364 14.318 15.5121Z" fill="#90B4FE"/>
<path d="M12.0084 3.54346C9.1707 3.54346 6.66055 4.9404 5.12305 7.08237C5.92322 6.58125 6.74023 6.40049 7.45325 6.40693C8.43807 6.40979 9.21231 6.71513 9.5838 6.92402C9.67352 6.97573 9.75865 7.03139 9.84208 7.08859C10.505 6.79665 11.2374 6.63339 12.0082 6.63339C14.981 6.63376 17.3909 9.04299 17.3914 12.0159H17.3909C17.3909 13.5146 16.7779 14.8698 15.7897 15.8457C16.0322 15.8729 16.291 15.8898 16.5551 15.8885C17.4934 15.889 18.5076 15.6819 19.268 15.0424C19.7637 14.6247 20.1791 14.0133 20.4094 13.0964C20.4545 12.7423 20.4804 12.3823 20.4804 12.016C20.4804 7.33711 16.6875 3.54346 12.0084 3.54346Z" fill="#5881D8"/>
</g>
</g>
<defs>
<clipPath id="clip0_872_1856">
<rect width="24" height="24" fill="white"/>
</clipPath>
</defs>
</svg>
