<svg width="24" height="24" viewBox="0 0 24 24" fill="none" xmlns="http://www.w3.org/2000/svg">
<g clip-path="url(#clip0_872_1880)">
<path d="M18.375 0H5.625C2.5184 0 0 2.5184 0 5.625V18.375C0 21.4816 2.5184 24 5.625 24H18.375C21.4816 24 24 21.4816 24 18.375V5.625C24 2.5184 21.4816 0 18.375 0Z" fill="#F4F2ED"/>
<path d="M6.25388 8.50122C7.89096 8.91778 9.98625 9.12606 12.5064 9.12606C15.0849 9.12606 17.1303 8.91778 18.7631 8.50122C20.5043 8.09716 21.3417 7.55146 21.3417 7.03493C21.3417 6.66835 20.9668 6.31012 20.2878 6.03518C20.4419 6.13932 20.5628 6.31012 20.5628 6.49757C20.5628 7.02243 19.7712 7.45149 18.1883 7.80973C16.7179 8.13048 14.8475 8.35958 12.5648 8.35958C10.3612 8.35958 8.40333 8.13048 6.98702 7.83055C5.46657 7.45566 4.67095 7.05159 4.67095 6.51839C4.67095 6.29762 4.77092 6.11017 5.07501 5.89356C4.12526 6.26013 3.60872 6.57255 3.60872 7.0391C3.66287 7.56813 4.51266 8.09716 6.25388 8.50122ZM9.91547 6.81832C11.69 6.66419 12.2065 5.52281 14.2852 5.33536C15.3057 5.25622 15.9556 5.46033 16.0223 5.81858C16.0847 6.15599 15.5765 6.38093 14.96 6.42675C14.1102 6.51423 13.7603 6.21014 13.6895 5.91855C13.0563 5.98936 12.9563 6.25596 12.9896 6.43925C13.0605 6.79749 13.8228 7.15989 15.1391 7.03493C16.6221 6.91829 17.1219 6.33511 16.997 5.74776C16.8428 4.98129 15.7014 4.33978 13.6562 4.53557C11.0318 4.76884 11.0484 5.98936 9.26144 6.13516C8.5283 6.20597 8.12007 6.03102 8.04925 5.74359C8.00343 5.452 8.36167 5.31454 8.7824 5.28121C9.17397 5.23956 9.64885 5.31037 9.87375 5.43533C10.0404 5.34786 10.0945 5.26038 10.0779 5.16041C9.99872 4.88964 9.45722 4.76884 8.7824 4.81883C7.45357 4.93547 7.45357 5.53115 7.49939 5.79358C7.62436 6.4809 8.6491 6.93495 9.91547 6.81832ZM18.834 9.81338C17.1927 10.1966 15.1016 10.4466 12.5772 10.4466C10.0029 10.4466 7.90346 10.1799 6.27054 9.82172C4.80425 9.44681 4.02112 9.03025 3.74619 8.60536C3.88782 9.56344 4.12942 10.4924 4.44184 11.3754C4.06693 11.6088 3.72953 11.9003 3.42544 12.2919C2.86724 12.9709 2.58399 13.8332 2.6298 14.7121C2.68812 15.5202 3.09219 16.2659 3.74202 16.7574C4.42102 17.2865 5.15416 17.4447 5.99144 17.2865C6.3122 17.2323 6.67044 17.0698 6.99952 16.9615C6.3122 16.9615 5.73318 16.7407 5.15832 16.2826C4.52516 15.8452 4.10442 15.1579 3.99195 14.3955C3.83783 13.6624 3.99195 12.9792 4.40852 12.3794C4.50432 12.2628 4.6043 12.1586 4.71261 12.0669C4.94588 12.6377 5.19582 13.2 5.47907 13.7207C6.11225 14.6829 6.74542 15.5161 7.37859 16.4242C7.65352 16.9532 7.82847 17.4781 7.95344 18.0029C8.37834 18.5903 8.99485 19.0027 9.69469 19.1735C10.5944 19.4859 11.5317 19.6275 12.4898 19.5734H12.5898C13.5645 19.615 14.5434 19.4776 15.4723 19.1693C16.143 18.9694 16.7346 18.5611 17.1594 18.0029H17.2135C17.3136 17.4822 17.4844 16.9574 17.7343 16.4242C18.3591 15.5119 19.0006 14.6829 19.6254 13.7207C20.4878 12.1295 21.0792 10.4007 21.375 8.61369C21.0334 9.0844 20.2462 9.49266 18.834 9.81338Z" fill="#28334C"/>
</g>
<defs>
<clipPath id="clip0_872_1880">
<rect width="24" height="24" fill="white"/>
</clipPath>
</defs>
</svg>
