<svg width="24" height="24" viewBox="0 0 24 24" fill="none" xmlns="http://www.w3.org/2000/svg">
<g clip-path="url(#clip0_872_1883)">
<path d="M18.375 0H5.625C2.5184 0 0 2.5184 0 5.625V18.375C0 21.4816 2.5184 24 5.625 24H18.375C21.4816 24 24 21.4816 24 18.375V5.625C24 2.5184 21.4816 0 18.375 0Z" fill="#00599C"/>
<path d="M10.3837 19.736C6.10551 19.736 2.625 16.2555 2.625 11.9774C2.625 7.69926 6.10551 4.21875 10.3837 4.21875C13.1441 4.21875 15.7188 5.70429 17.1025 8.09562L13.7448 10.0387C13.0522 8.84167 11.7642 8.09806 10.3837 8.09806C8.24453 8.09806 6.50431 9.83831 6.50431 11.9774C6.50431 14.1164 8.24453 15.8567 10.3837 15.8567C11.7643 15.8567 13.0523 15.1131 13.745 13.9159L17.1027 15.8588C15.719 18.2504 13.1443 19.736 10.3837 19.736Z" fill="white"/>
<path d="M18.1428 11.5465H17.2807V10.6843H16.4188V11.5465H15.5566V12.4085H16.4188V13.2706H17.2807V12.4085H18.1428V11.5465Z" fill="white"/>
<path d="M21.3752 11.5465H20.5131V10.6843H19.6512V11.5465H18.7891V12.4085H19.6512V13.2706H20.5131V12.4085H21.3752V11.5465Z" fill="white"/>
</g>
<defs>
<clipPath id="clip0_872_1883">
<rect width="24" height="24" fill="white"/>
</clipPath>
</defs>
</svg>
