<svg width="24" height="24" viewBox="0 0 24 24" fill="none" xmlns="http://www.w3.org/2000/svg">
<g clip-path="url(#clip0_872_2020)">
<path d="M18.375 0H5.625C2.5184 0 0 2.5184 0 5.625V18.375C0 21.4816 2.5184 24 5.625 24H18.375C21.4816 24 24 21.4816 24 18.375V5.625C24 2.5184 21.4816 0 18.375 0Z" fill="#F4F4ED"/>
<path d="M21.2324 14.5289L14.5556 21.1924C14.5289 21.2191 14.4889 21.2324 14.4622 21.2191L5.34158 18.7754C5.30152 18.762 5.27482 18.7353 5.27482 18.7086L2.81774 9.60141C2.80438 9.56138 2.81774 9.53466 2.84445 9.50794L9.52125 2.84445C9.54797 2.81774 9.588 2.80438 9.61472 2.81774L18.7353 5.26146C18.7754 5.27482 18.802 5.30152 18.802 5.32823L21.2458 14.4354C21.2725 14.4755 21.2591 14.5022 21.2324 14.5289ZM12.2855 7.27786L3.32518 9.66816C3.31182 9.66816 3.29847 9.69488 3.31182 9.70819L9.8685 16.2516C9.88181 16.2649 9.90853 16.2649 9.90853 16.2382L12.3122 7.29121C12.3255 7.29121 12.2989 7.26451 12.2855 7.27786Z" fill="black"/>
</g>
<defs>
<clipPath id="clip0_872_2020">
<rect width="24" height="24" fill="white"/>
</clipPath>
</defs>
</svg>
