<svg width="24" height="24" viewBox="0 0 24 24" fill="none" xmlns="http://www.w3.org/2000/svg">
<g clip-path="url(#clip0_872_1888)">
<path d="M18.375 0H5.625C2.5184 0 0 2.5184 0 5.625V18.375C0 21.4816 2.5184 24 5.625 24H18.375C21.4816 24 24 21.4816 24 18.375V5.625C24 2.5184 21.4816 0 18.375 0Z" fill="#953CAD"/>
<path d="M18.3224 9.43774V10.7009H19.5856V9.43774H20.2172V10.7009H21.4803V11.3325H20.2172V12.5956H21.4803V13.2272H20.2172V14.4904H19.5856V13.2272H18.3224V14.4904H17.6908V13.2272H16.4277V12.5956H17.6908V11.3325H16.4277V10.7009H17.6908V9.43774H18.3224ZM19.5856 11.3325H18.3224V12.5956H19.5856V11.3325Z" fill="white"/>
<path d="M11.4376 3.09375C14.7322 3.09375 17.6089 4.88309 19.1496 7.54276L19.1346 7.51716L15.2581 9.74916C14.4944 8.45603 13.0942 7.58336 11.4881 7.56539L11.4376 7.56511C8.98828 7.56511 7.00261 9.55069 7.00261 11.9999C7.00261 12.8009 7.21615 13.5517 7.58752 14.2002C8.35196 15.5347 9.789 16.4349 11.4376 16.4349C13.0962 16.4349 14.5415 15.5233 15.3021 14.1745L15.2836 14.2069L19.1542 16.4492C17.6303 19.0864 14.7932 20.8702 11.5368 20.9057L11.4376 20.9062C8.13244 20.9062 5.24768 19.1059 3.71081 16.4321C2.96054 15.1268 2.53125 13.6136 2.53125 11.9999C2.53125 7.08126 6.51865 3.09375 11.4376 3.09375Z" fill="white"/>
</g>
<defs>
<clipPath id="clip0_872_1888">
<rect width="24" height="24" fill="white"/>
</clipPath>
</defs>
</svg>
