<svg width="24" height="24" viewBox="0 0 24 24" fill="none" xmlns="http://www.w3.org/2000/svg">
<g clip-path="url(#clip0_872_1901)">
<path d="M18.375 0H5.625C2.5184 0 0 2.5184 0 5.625V18.375C0 21.4816 2.5184 24 5.625 24H18.375C21.4816 24 24 21.4816 24 18.375V5.625C24 2.5184 21.4816 0 18.375 0Z" fill="#F4F2ED"/>
<path d="M8.19849 8.15679L7.10742 7.06519L7.11164 14.9497L7.12482 15.3179C7.1301 15.4919 7.16305 15.687 7.21579 15.89L15.8576 18.938L18.0197 17.9809L18.0216 17.9778L8.19797 8.15679H8.19849Z" fill="#00C4B3"/>
<path d="M7.21579 15.89H7.21658C7.21579 15.8868 7.21447 15.8831 7.21289 15.8794C7.21474 15.8834 7.21474 15.8874 7.21552 15.89H7.21579ZM18.0174 17.9809L15.8552 18.938L7.21474 15.89C7.37953 16.5238 7.74524 17.2362 8.13811 17.6249L10.9568 20.4296L17.229 20.4375L18.0148 17.9809H18.0174Z" fill="#22D3C5"/>
<path d="M7.13666 7.06543L3.77669 12.1398C3.49773 12.4378 3.63694 13.0526 4.08598 13.5056L6.02554 15.461L7.24476 15.8908C7.19203 15.6883 7.15881 15.4952 7.1538 15.3186L7.14062 14.9506L7.13666 7.06595V7.06543Z" fill="#0075C9"/>
<path d="M15.9288 7.16682C15.7258 7.1154 15.5312 7.08297 15.3559 7.07795L14.9662 7.06372L7.10742 7.06557L18.0213 17.9779L18.98 15.8157L15.9294 7.16734L15.9288 7.16682Z" fill="#0075C9"/>
<path d="M15.918 7.16508C15.9214 7.1664 15.9251 7.16718 15.928 7.16772V7.16666C15.9246 7.16587 15.9214 7.16587 15.918 7.16455V7.16508ZM17.6622 8.09268C17.2653 7.69322 16.5627 7.32803 15.928 7.16772L18.9787 15.8154L18.0189 17.9774L20.3609 17.2291L20.3661 10.8082L17.6619 8.09241L17.6622 8.09268Z" fill="#00A8E1"/>
<path d="M15.5019 5.9553L13.5507 4.01467C13.0956 3.56722 12.4808 3.42748 12.1855 3.70592L7.11133 7.0651L14.9701 7.06325L15.3597 7.07748C15.5351 7.08276 15.73 7.11493 15.9327 7.16635L15.5024 5.95477L15.5019 5.9553Z" fill="#00C4B3"/>
</g>
<defs>
<clipPath id="clip0_872_1901">
<rect width="24" height="24" fill="white"/>
</clipPath>
</defs>
</svg>
