<svg width="24" height="24" viewBox="0 0 24 24" fill="none" xmlns="http://www.w3.org/2000/svg">
<g clip-path="url(#clip0_872_2251)">
<path d="M18.375 0H5.625C2.5184 0 0 2.5184 0 5.625V18.375C0 21.4816 2.5184 24 5.625 24H18.375C21.4816 24 24 21.4816 24 18.375V5.625C24 2.5184 21.4816 0 18.375 0Z" fill="#F4F2ED"/>
<path fill-rule="evenodd" clip-rule="evenodd" d="M12.5079 2.67212C11.1457 3.15497 9.83072 4.56428 8.56293 6.90007C6.66129 10.4037 4.20522 15.3825 7.58725 19.3245C9.15187 21.1481 11.7352 22.2245 15.1256 20.5198C17.8492 19.1504 18.6067 15.2205 17.6288 13.3737C15.6118 9.5643 13.5654 8.62469 13.0175 6.26223C12.6521 4.68726 12.4823 3.49056 12.5079 2.67212Z" fill="url(#paint0_linear_872_2251)"/>
<path fill-rule="evenodd" clip-rule="evenodd" d="M12.5073 2.625C11.1381 3.11283 9.82317 4.52214 8.56231 6.85295C6.67102 10.3492 4.20458 15.3354 7.58661 19.2773C9.15125 21.1011 11.7014 21.6904 13.1164 20.6088C14.0389 19.9037 14.6663 19.2316 15.0278 17.8154C15.4303 16.2385 15.1215 14.1157 14.9099 13.1404C14.6421 11.9063 14.5545 10.5518 14.6469 9.07701C14.6144 9.0373 14.59 9.00759 14.5739 8.98787C13.8372 8.08631 13.2688 7.30103 13.0169 6.21511C12.6515 4.64014 12.4816 3.44343 12.5073 2.625Z" fill="url(#paint1_linear_872_2251)"/>
<path fill-rule="evenodd" clip-rule="evenodd" d="M11.3733 3.23853C10.0981 4.24638 9.14997 5.93691 8.52887 8.3101C7.59722 11.8699 7.49627 15.1526 7.82485 17.062C8.46182 20.7634 11.7641 22.1684 15.1513 20.4456C17.2357 19.3853 18.1039 17.1094 18.058 14.639C18.0104 12.0811 13.0674 9.18212 12.192 7.04737C11.6084 5.62421 11.3355 4.35459 11.3733 3.23853Z" fill="url(#paint2_linear_872_2251)"/>
<path fill-rule="evenodd" clip-rule="evenodd" d="M14.6069 9.9125C16.1362 11.8739 16.4696 13.2393 15.607 14.0086C14.313 15.1627 11.1488 15.9156 9.18024 14.5197C7.8679 13.589 7.37136 11.5925 7.69062 8.53027C7.14888 9.66162 6.69084 10.8077 6.31649 11.9685C5.94214 13.1293 5.83282 14.3441 5.98854 15.6128C6.45768 16.5619 7.59835 17.1957 9.41057 17.5145C12.1288 17.9924 14.7015 17.7563 16.4279 16.886C17.5788 16.3059 18.1232 15.7283 18.061 15.1534C18.1026 14.3044 17.8408 13.4963 17.2756 12.7288C16.7105 11.9615 15.8209 11.0227 14.6069 9.9125Z" fill="url(#paint3_linear_872_2251)"/>
<path fill-rule="evenodd" clip-rule="evenodd" d="M8.62992 7.95386C8.61713 9.3704 8.98137 10.717 9.72257 11.9936C10.8344 13.9086 12.1323 15.8008 14.0744 17.3693C15.3692 18.4149 16.4038 18.7528 17.1781 18.3828C16.5421 19.5211 15.8658 20.0789 15.1493 20.0561C14.0744 20.022 12.7639 19.5523 10.6641 17.0288C9.26415 15.3466 8.30646 13.7553 7.79102 12.2549C7.87276 11.6597 7.95943 11.0668 8.05104 10.4764C8.14265 9.88583 8.33562 9.04502 8.62992 7.95386Z" fill="url(#paint4_linear_872_2251)"/>
<path fill-rule="evenodd" clip-rule="evenodd" d="M11.9163 9.89769C12.035 11.0517 12.4841 12.8976 11.9163 14.1266C11.3484 15.3556 8.72562 17.5758 9.44961 19.5317C10.1736 21.4875 11.938 21.0484 13.0447 20.1471C14.1515 19.2457 14.7439 17.7801 14.8752 16.7494C15.0065 15.7186 14.561 13.7354 14.4161 12.0103C14.3195 10.8603 14.3851 9.87425 14.6128 9.0522L14.2736 8.62544L12.2775 8.03442C11.9574 8.50731 11.837 9.1284 11.9163 9.89769Z" fill="url(#paint5_linear_872_2251)"/>
<path fill-rule="evenodd" clip-rule="evenodd" d="M12.6274 4.18213C11.9813 4.45512 11.3692 4.99605 10.7911 5.80492C9.9238 7.01822 9.48206 7.74552 9.80906 10.1506C10.027 11.754 10.183 13.2291 10.2771 14.5758L13.0729 6.45267C12.9701 6.03875 12.8846 5.66494 12.8165 5.33122C12.7482 4.99751 12.6852 4.61448 12.6274 4.18213Z" fill="url(#paint6_linear_872_2251)"/>
<path fill-rule="evenodd" clip-rule="evenodd" d="M13.0683 6.43652C12.3586 6.85078 11.8087 7.69949 11.4185 8.98264C11.0283 10.2658 10.6714 12.0596 10.3477 14.3641C10.7794 12.8984 11.0658 11.8368 11.2069 11.1792C11.4185 10.193 11.4908 8.79823 12.0526 7.85134C12.4271 7.22009 12.7657 6.74848 13.0683 6.43652Z" fill="#330A4C" fill-opacity="0.316321"/>
<path fill-rule="evenodd" clip-rule="evenodd" d="M9.78125 20.1851C10.9492 20.3519 11.56 20.5002 11.6134 20.6301C11.6937 20.8249 11.4656 21.003 10.8173 20.8833C10.3851 20.8035 10.0397 20.5707 9.78125 20.1851Z" fill="white"/>
<path fill-rule="evenodd" clip-rule="evenodd" d="M10.3688 4.18213C9.72645 4.94959 9.16976 5.7632 8.69884 6.623C8.22793 7.48279 7.89146 8.12423 7.68941 8.54732C7.62678 8.86287 7.59621 9.32848 7.59771 9.94415C7.5992 10.5598 7.65245 11.2444 7.75746 11.9977C7.8494 10.5224 8.13085 9.0903 8.60182 7.70149C9.07278 6.31266 9.66177 5.13954 10.3688 4.18213Z" fill="#EDEDED" fill-opacity="0.603261"/>
</g>
<defs>
<linearGradient id="paint0_linear_872_2251" x1="12.2455" y1="4.05407" x2="11.5951" y2="21.3608" gradientUnits="userSpaceOnUse">
<stop stop-color="#D9D8DC"/>
<stop offset="1" stop-color="white" stop-opacity="0.385275"/>
</linearGradient>
<linearGradient id="paint1_linear_872_2251" x1="12.5389" y1="4.04978" x2="5.74121" y2="18.9484" gradientUnits="userSpaceOnUse">
<stop stop-color="#8D67AF" stop-opacity="0.671932"/>
<stop offset="1" stop-color="#9F8DAF"/>
</linearGradient>
<linearGradient id="paint2_linear_872_2251" x1="13.2975" y1="8.87701" x2="13.2975" y2="20.8578" gradientUnits="userSpaceOnUse">
<stop stop-color="#26053D" stop-opacity="0.761634"/>
<stop offset="1" stop-color="#B7B4B4" stop-opacity="0.277683"/>
</linearGradient>
<linearGradient id="paint3_linear_872_2251" x1="7.15065" y1="9.68731" x2="10.2007" y2="17.7667" gradientUnits="userSpaceOnUse">
<stop stop-color="#91739F" stop-opacity="0.45955"/>
<stop offset="1" stop-color="#32054F" stop-opacity="0.539912"/>
</linearGradient>
<linearGradient id="paint4_linear_872_2251" x1="15.3028" y1="19.6223" x2="6.91548" y2="12.6725" gradientUnits="userSpaceOnUse">
<stop stop-color="#463D49" stop-opacity="0.331182"/>
<stop offset="1" stop-color="#340A50" stop-opacity="0.821388"/>
</linearGradient>
<linearGradient id="paint5_linear_872_2251" x1="13.5805" y1="8.98975" x2="7.66497" y2="17.9889" gradientUnits="userSpaceOnUse">
<stop stop-color="#715383" stop-opacity="0.145239"/>
<stop offset="1" stop-color="#F4F4F4" stop-opacity="0.233639"/>
</linearGradient>
<linearGradient id="paint6_linear_872_2251" x1="14.1448" y1="11.7347" x2="9.95559" y2="11.4789" gradientUnits="userSpaceOnUse">
<stop stop-color="#A5A1A8" stop-opacity="0.356091"/>
<stop offset="1" stop-color="#370C50" stop-opacity="0.581975"/>
</linearGradient>
<clipPath id="clip0_872_2251">
<rect width="24" height="24" fill="white"/>
</clipPath>
</defs>
</svg>
