<svg width="24" height="24" viewBox="0 0 24 24" fill="none" xmlns="http://www.w3.org/2000/svg">
<g clip-path="url(#clip0_872_2245)">
<path d="M18.375 0H5.625C2.5184 0 0 2.5184 0 5.625V18.375C0 21.4816 2.5184 24 5.625 24H18.375C21.4816 24 24 21.4816 24 18.375V5.625C24 2.5184 21.4816 0 18.375 0Z" fill="#734F96"/>
<path d="M3.28125 19.3312L4.2 19.275C6.06562 19.1531 6.04688 19.1625 6.14062 17.7C6.225 16.3125 6.11872 5.44907 6.05625 5.23125C5.95336 4.87247 5.56729 4.66612 4.41562 4.66641L3.28125 4.65938V2.625H20.7188V10.4156L18.6656 10.3852C18.6469 10.3664 18.5906 9.81562 18.5531 9.30937C18.3375 6.92812 17.8031 5.55804 16.7719 5.02367C16.2281 4.74242 15.379 4.65952 12.6595 4.6587L10.125 4.65938V10.5H10.575C11.3344 10.4906 12.3 10.3125 12.6188 10.1156C13.0313 9.8625 13.3781 9.13124 13.5 8.25C13.5919 7.60685 13.6627 7.12563 13.6627 7.12563L15.6562 7.125V16.4062H13.5938V16.0406C13.5938 15.4406 13.3125 14.0438 13.1156 13.6219C12.8062 12.975 12.2812 12.75 10.7906 12.6094L10.1063 12.5438L10.1437 15.5531C10.1719 18.4125 10.1906 18.5719 10.3687 18.8156C10.5938 19.1156 10.8375 19.1719 12.3281 19.2844L13.3287 19.332L13.3219 21.375H3.28125V19.3312Z" fill="white"/>
</g>
<defs>
<clipPath id="clip0_872_2245">
<rect width="24" height="24" fill="white"/>
</clipPath>
</defs>
</svg>
