<svg width="24" height="24" viewBox="0 0 24 24" fill="none" xmlns="http://www.w3.org/2000/svg">
<g clip-path="url(#clip0_872_2238)">
<path d="M18.375 0H5.625C2.5184 0 0 2.5184 0 5.625V18.375C0 21.4816 2.5184 24 5.625 24H18.375C21.4816 24 24 21.4816 24 18.375V5.625C24 2.5184 21.4816 0 18.375 0Z" fill="#EE524F"/>
<path d="M6.92486 9.34969H4.69141V7.6746V5.99951H6.92486H9.15831V7.6746V9.34969H6.92486Z" fill="#B61B1B"/>
<path d="M6.94048 16.9566H4.70703V15.2816V13.6064H6.94048H9.17394V15.2816V16.9566H6.94048Z" fill="#B61B1B"/>
<path d="M17.0343 9.34969H14.8008V7.6746V5.99951H17.0343H19.2677V7.6746V9.34969H17.0343Z" fill="#B61B1B"/>
<path d="M15.6756 19.3743H14.3457V18.8755V18.3769H15.0107H15.6756V17.5456L15.7528 16.6387H15.0878H14.4229L14.3457 14.7195V12.7246H17.0056H19.6655V14.7195L19.7426 16.6387H19.0776H18.4127L18.3355 17.3794V18.0444H17.6705H17.0056V18.7093V19.3743H15.6756Z" fill="#B61B1B"/>
<path d="M15.6048 19.0606H14.158V18.5182V17.9756H14.8814H15.6048V17.0714V16.1673H14.8814H14.158V13.9973V11.8272H17.0514H19.9448V13.9973V16.1673H19.2215H18.4981V16.8906V17.6139H17.7748H17.0514V18.3373V19.0606H15.6048ZM6.92463 16.529H4.03125V14.1781V11.8272H6.92463H9.81797V14.1781V16.529H6.92463ZM6.92463 8.93381H4.03125V6.76378V4.59375H6.92463H9.81797V6.76378V8.93381H6.92463ZM17.0514 8.93381H14.158V6.76378V4.59375H17.0514H19.9448V6.76378V8.93381H17.0514Z" fill="#414141"/>
</g>
<defs>
<clipPath id="clip0_872_2238">
<rect width="24" height="24" fill="white"/>
</clipPath>
</defs>
</svg>
