<svg width="24" height="24" viewBox="0 0 24 24" fill="none" xmlns="http://www.w3.org/2000/svg">
<g clip-path="url(#clip0_872_2269)">
<path d="M18.375 0H5.625C2.5184 0 0 2.5184 0 5.625V18.375C0 21.4816 2.5184 24 5.625 24H18.375C21.4816 24 24 21.4816 24 18.375V5.625C24 2.5184 21.4816 0 18.375 0Z" fill="#F4F2ED"/>
<path fill-rule="evenodd" clip-rule="evenodd" d="M16.2547 3.77966C16.1039 3.69102 15.9499 3.60796 15.7923 3.53049C15.6314 3.45319 15.4655 3.37779 15.2973 3.31239C15.2442 3.2905 15.1919 3.27051 15.1382 3.25024C14.9913 3.1962 14.8433 3.13755 14.6916 3.09404C13.6071 2.74717 12.4614 2.62093 11.325 2.72307C10.1887 2.82522 9.08579 3.15359 8.08435 3.68794C7.08291 4.22231 6.20412 4.95133 5.50221 5.83007C4.80028 6.70882 4.29006 7.71868 4.00303 8.79737C3.716 9.87607 3.65823 11.0007 3.83326 12.1021C4.0083 13.2034 4.41248 14.258 5.02081 15.2011C5.62915 16.144 6.42879 16.9553 7.37043 17.5849C8.31207 18.2145 9.37579 18.649 10.4959 18.8617V21.1991C15.4987 20.4621 19.9288 16.5838 20.2589 11.4918C20.4578 8.42796 18.8934 5.30008 16.2547 3.77966Z" fill="#23D96C"/>
<path d="M10.0459 21.7109V19.2171C7.94677 18.7284 6.10439 17.5041 4.86851 15.7763C3.63264 14.0486 3.08932 11.9378 3.34171 9.84469C3.59411 7.7516 4.62462 5.82187 6.23765 4.42183C7.85067 3.02181 9.93394 2.24894 12.0919 2.25001C13.0229 2.24849 13.9482 2.39255 14.8327 2.67673C14.9508 2.71024 15.0736 2.75592 15.1923 2.80024L15.2955 2.83835C15.3661 2.86537 15.4193 2.88566 15.4734 2.90809C15.6223 2.96592 15.7898 3.03942 15.9912 3.13617C16.1613 3.21977 16.326 3.3085 16.4854 3.40237C19.2248 4.98089 20.9214 8.24278 20.7087 11.5201C20.3813 16.5632 16.1154 20.8166 10.563 21.6344L10.0459 21.7109ZM12.1032 3.12968H12.0924C10.1265 3.12906 8.23097 3.84383 6.77552 5.1345C5.32008 6.42518 4.40917 8.19916 4.2206 10.1103C4.03203 12.0215 4.57927 13.9328 5.75558 15.4711C6.93189 17.0094 8.65287 18.0646 10.5827 18.4306L10.9465 18.5001V20.6769C15.8273 19.7424 19.5197 15.94 19.8099 11.4644C20.0017 8.509 18.4818 5.57302 16.0264 4.15907L16.0224 4.15637C15.8824 4.0753 15.7369 3.99555 15.5902 3.9234C15.4139 3.83908 15.2673 3.77397 15.1317 3.72154C15.0764 3.69857 15.0308 3.68127 14.9843 3.66371L14.8717 3.62207C14.7648 3.58235 14.6635 3.54451 14.5658 3.51668C13.7713 3.26043 12.94 3.12971 12.1032 3.12942V3.12968Z" fill="#173647"/>
<path fill-rule="evenodd" clip-rule="evenodd" d="M10.4225 6.711C10.5483 6.69584 10.6759 6.71114 10.7942 6.75554C10.9125 6.79993 11.0177 6.87206 11.1007 6.96558C11.2293 7.10275 11.3346 7.25912 11.4125 7.42879C11.6892 8.02333 11.8525 8.87705 11.5108 9.35566C11.1511 9.26588 10.8141 9.10492 10.5207 8.88276C10.2274 8.6606 9.98381 8.38196 9.80522 8.06412C9.71475 7.88995 9.66394 7.69877 9.65625 7.50364C9.66216 7.3027 9.74344 7.11089 9.88472 6.96473C10.0261 6.81855 10.2174 6.72824 10.4225 6.711Z" fill="#173647"/>
<path fill-rule="evenodd" clip-rule="evenodd" d="M8.41324 8.74152C8.45929 8.73785 8.50556 8.73785 8.5516 8.74152C8.76472 8.74513 8.97484 8.7911 9.16919 8.87664C9.784 9.13392 10.4697 9.76277 10.6025 10.3206C10.0751 10.6638 9.12516 10.6357 8.51005 10.3784C8.32685 10.2915 8.15225 10.1883 7.98846 10.0701C7.86394 9.9783 7.77151 9.85117 7.72379 9.70614C7.67606 9.56111 7.6754 9.40511 7.7219 9.25971C7.76839 9.11428 7.85978 8.98643 7.98353 8.89367C8.10728 8.8009 8.25738 8.74777 8.41324 8.74152Z" fill="#173647"/>
<path fill-rule="evenodd" clip-rule="evenodd" d="M9.16832 13.0317C8.97553 13.1217 8.76441 13.1679 8.55073 13.1668C8.3858 13.1857 8.21902 13.1526 8.07474 13.0722C7.93046 12.992 7.81626 12.8687 7.74879 12.7205C7.68133 12.5723 7.66415 12.4069 7.69974 12.2484C7.73535 12.09 7.82184 11.9469 7.94666 11.84C8.09715 11.7032 8.27476 11.5981 8.46852 11.5311C8.69445 11.4372 8.93694 11.3872 9.18244 11.3838C9.58228 11.3768 10.2687 11.2897 10.6016 11.5061C10.5136 12.0629 9.78319 12.7745 9.16832 13.0317Z" fill="#173647"/>
<path fill-rule="evenodd" clip-rule="evenodd" d="M11.7035 14.4129C11.6198 14.5918 11.5188 14.7624 11.402 14.9226C10.9626 15.4803 9.944 15.0887 9.98769 14.3591C9.99163 14.1682 10.0389 13.9806 10.1261 13.8097C10.3895 13.209 11.1061 12.4712 11.7212 12.3425C12.0721 12.8573 11.9672 13.8554 11.7035 14.4129Z" fill="#173647"/>
<path fill-rule="evenodd" clip-rule="evenodd" d="M12.7781 7.41446C12.8621 7.23559 12.9635 7.06492 13.0806 6.90477C13.1636 6.80852 13.2697 6.7337 13.3894 6.68694C13.509 6.64019 13.6387 6.62292 13.7668 6.63666C13.9782 6.64973 14.1763 6.74216 14.3196 6.89458C14.4628 7.04699 14.5402 7.24759 14.5355 7.45444C14.5315 7.64981 14.4843 7.84205 14.3971 8.01793C14.2438 8.33527 14.0235 8.61734 13.7506 8.84556C13.4778 9.0738 13.1585 9.24305 12.8138 9.34216C12.4195 8.87111 12.5147 8.01495 12.7781 7.41446Z" fill="#173647"/>
<path fill-rule="evenodd" clip-rule="evenodd" d="M13.1634 14.9229C13.0377 14.7832 12.9358 14.6247 12.8615 14.4534C12.5981 13.8529 12.6072 12.9541 12.9584 12.4819C13.5732 12.6108 14.2176 13.2495 14.4802 13.8502C14.5674 14.026 14.6145 14.218 14.6186 14.4132C14.6625 15.0566 13.6463 15.4377 13.1634 14.9229Z" fill="#173647"/>
<path fill-rule="evenodd" clip-rule="evenodd" d="M15.8546 13.1259C15.6415 13.1223 15.4313 13.0762 15.237 12.9907C14.6222 12.7335 13.9481 12.1319 13.8164 11.5741C14.1542 11.3579 14.7779 11.3344 15.1822 11.3417C15.4277 11.3454 15.6701 11.3956 15.8962 11.4895C16.079 11.5715 16.2535 11.6701 16.4174 11.7841C17.0323 12.2143 16.6455 13.1686 15.8546 13.1259Z" fill="#173647"/>
</g>
<defs>
<clipPath id="clip0_872_2269">
<rect width="24" height="24" fill="white"/>
</clipPath>
</defs>
</svg>
