<svg width="24" height="24" viewBox="0 0 24 24" fill="none" xmlns="http://www.w3.org/2000/svg">
<g clip-path="url(#clip0_872_2460)">
<path d="M18.375 0H5.625C2.5184 0 0 2.5184 0 5.625V18.375C0 21.4816 2.5184 24 5.625 24H18.375C21.4816 24 24 21.4816 24 18.375V5.625C24 2.5184 21.4816 0 18.375 0Z" fill="#00B4E0"/>
<path d="M3.79727 10.6157C3.75977 10.6157 3.75039 10.5969 3.76914 10.5688L3.96602 10.3157C3.98477 10.2875 4.03164 10.2688 4.06914 10.2688H7.41601C7.45352 10.2688 7.46289 10.2969 7.44414 10.325L7.28476 10.5688C7.26601 10.5969 7.21914 10.625 7.19101 10.625L3.79727 10.6157Z" fill="white"/>
<path d="M2.38125 11.4782C2.34375 11.4782 2.33438 11.4595 2.35313 11.4313L2.55 11.1782C2.56875 11.1501 2.61562 11.1313 2.65312 11.1313H6.92813C6.96563 11.1313 6.98438 11.1595 6.975 11.1876L6.9 11.4126C6.89062 11.4501 6.85313 11.4688 6.81563 11.4688L2.38125 11.4782Z" fill="white"/>
<path d="M4.65078 12.3408C4.61328 12.3408 4.60391 12.3126 4.62266 12.2845L4.75391 12.0501C4.77266 12.022 4.81016 11.9939 4.84766 11.9939H6.72266C6.76016 11.9939 6.77891 12.022 6.77891 12.0595L6.76016 12.2845C6.76016 12.322 6.72266 12.3501 6.69453 12.3501L4.65078 12.3408Z" fill="white"/>
<path d="M14.3818 10.4469C13.7912 10.5969 13.3881 10.7094 12.8068 10.8594C12.6662 10.8969 12.6568 10.9063 12.5349 10.7657C12.3943 10.6063 12.2912 10.5032 12.0943 10.4094C11.5037 10.1188 10.9318 10.2032 10.3974 10.5501C9.75993 10.9626 9.4318 11.5719 9.44118 12.3313C9.45055 13.0813 9.96618 13.7001 10.7068 13.8032C11.3443 13.8876 11.8787 13.6626 12.3006 13.1844C12.3849 13.0813 12.4599 12.9688 12.5537 12.8376C12.2162 12.8376 11.7943 12.8376 10.7443 12.8376C10.5474 12.8376 10.5006 12.7157 10.5662 12.5563C10.6881 12.2657 10.9131 11.7782 11.0443 11.5344C11.0724 11.4782 11.1381 11.3844 11.2787 11.3844C11.7568 11.3844 13.5193 11.3844 14.6912 11.3844C14.6724 11.6376 14.6724 11.8907 14.6349 12.1438C14.5318 12.8188 14.2787 13.4376 13.8662 13.9813C13.1912 14.8719 12.3099 15.4251 11.1943 15.5751C10.2756 15.6969 9.42243 15.5188 8.67243 14.9563C7.97868 14.4313 7.58493 13.7376 7.4818 12.8751C7.35993 11.8532 7.65993 10.9344 8.27868 10.1282C8.9443 9.25634 9.82555 8.70322 10.9037 8.50634C11.7849 8.34697 12.6287 8.45009 13.3881 8.96572C13.8849 9.29384 14.2412 9.74382 14.4756 10.2876C14.5318 10.3719 14.4943 10.4188 14.3818 10.4469Z" fill="white"/>
<path d="M17.4839 15.6314C16.6308 15.6127 15.8527 15.3689 15.1964 14.8064C14.6433 14.3283 14.2964 13.7189 14.1839 12.997C14.0152 11.9377 14.3058 11.0002 14.9433 10.1658C15.6277 9.26582 16.4527 8.79707 17.5683 8.6002C18.5246 8.43145 19.4246 8.5252 20.2402 9.07832C20.9808 9.58454 21.4402 10.2689 21.5621 11.1689C21.7214 12.4345 21.3558 13.4658 20.4839 14.347C19.8652 14.9752 19.1058 15.3689 18.2339 15.547C17.9808 15.5939 17.7277 15.6033 17.4839 15.6314ZM19.7152 11.8439C19.7058 11.722 19.7058 11.6283 19.6871 11.5345C19.5183 10.6064 18.6652 10.0814 17.7746 10.2877C16.9027 10.4845 16.3402 11.0377 16.1339 11.9189C15.9652 12.6502 16.3214 13.3908 16.9964 13.6908C17.5121 13.9158 18.0277 13.8877 18.5246 13.6345C19.2652 13.2502 19.6683 12.6502 19.7152 11.8439Z" fill="white"/>
</g>
<defs>
<clipPath id="clip0_872_2460">
<rect width="24" height="24" fill="white"/>
</clipPath>
</defs>
</svg>
