<svg width="24" height="24" viewBox="0 0 24 24" fill="none" xmlns="http://www.w3.org/2000/svg">
<g clip-path="url(#clip0_872_2356)">
<path d="M18.375 0H5.625C2.5184 0 0 2.5184 0 5.625V18.375C0 21.4816 2.5184 24 5.625 24H18.375C21.4816 24 24 21.4816 24 18.375V5.625C24 2.5184 21.4816 0 18.375 0Z" fill="#F4F2ED"/>
<path d="M2.625 18.579L7.03681 11.9614L2.625 5.34375H5.93385L10.3457 11.9614L5.93385 18.579H2.625Z" fill="#352950"/>
<path d="M7.03715 18.579L11.449 11.9614L7.03715 5.34375H10.346L19.1695 18.579H15.8606L13.1034 14.443L10.3459 18.579H7.03715Z" fill="#4A3A74"/>
<path d="M17.698 14.7187L16.2274 12.5126L21.3744 12.5124V14.7185H17.6979L17.698 14.7187ZM15.4921 11.4099L14.0215 9.20376L21.3744 9.20361V11.4096H15.4917L15.4921 11.4099Z" fill="#7C3679"/>
</g>
<defs>
<clipPath id="clip0_872_2356">
<rect width="24" height="24" fill="white"/>
</clipPath>
</defs>
</svg>
