<svg width="24" height="24" viewBox="0 0 24 24" fill="none" xmlns="http://www.w3.org/2000/svg">
<g clip-path="url(#clip0_872_2422)">
<path d="M18.375 0H5.625C2.5184 0 0 2.5184 0 5.625V18.375C0 21.4816 2.5184 24 5.625 24H18.375C21.4816 24 24 21.4816 24 18.375V5.625C24 2.5184 21.4816 0 18.375 0Z" fill="#F4F2ED"/>
<path d="M9.52819 17.1204C9.52819 17.1204 8.80826 17.5586 10.0293 17.684C11.5038 17.8719 12.2834 17.8404 13.9112 17.5276C13.9112 17.5276 14.3494 17.8097 14.9443 18.0286C11.281 19.5939 6.64771 17.9347 9.52819 17.1204ZM9.05861 15.0856C9.05861 15.0856 8.27581 15.6805 9.49678 15.8055C11.0932 15.962 12.3459 15.9934 14.5061 15.5555C14.5061 15.5555 14.7882 15.8687 15.2575 16.0252C10.8435 17.34 5.89664 16.1501 9.05861 15.0859V15.0856ZM17.6995 18.6547C17.6995 18.6547 18.2317 19.0929 17.1046 19.4375C15.0068 20.0635 8.30723 20.2517 6.42877 19.4375C5.77163 19.1554 7.02372 18.7482 7.4305 18.6861C7.83761 18.5921 8.05656 18.5921 8.05656 18.5921C7.33659 18.0911 3.26648 19.6253 5.99024 20.0667C13.4727 21.288 19.6405 19.5346 17.6993 18.6579L17.6995 18.6547ZM9.87253 12.9564C9.87253 12.9564 6.45986 13.7707 8.65119 14.0521C9.59044 14.1771 11.4375 14.146 13.1595 14.0207C14.5684 13.8956 15.9804 13.645 15.9804 13.645C15.9804 13.645 15.4793 13.8642 15.1351 14.0832C11.6571 14.9919 4.9885 14.5849 6.89838 13.6456C8.52681 12.8628 9.87253 12.9564 9.87253 12.9564ZM15.9772 16.369C19.4841 14.5531 17.8556 12.8 16.7286 13.0193C16.4465 13.0818 16.3215 13.1443 16.3215 13.1443C16.3215 13.1443 16.4153 12.9564 16.6346 12.8943C18.8573 12.1115 20.6108 15.2424 15.9147 16.4634C15.9147 16.4634 15.9461 16.4319 15.9772 16.3694V16.369ZM10.2168 21.3153C13.5981 21.5346 18.7638 21.1902 18.8891 19.5932C18.8891 19.5932 18.6391 20.2193 16.1029 20.6889C13.2227 21.2211 9.65325 21.1585 7.55585 20.8139C7.55585 20.8139 7.99405 21.1896 10.2171 21.3149L10.2168 21.3153Z" fill="#4E7896"/>
<path d="M13.8464 2.625C13.8464 2.625 15.7874 4.59739 11.9994 7.57119C8.96243 9.98175 11.3102 11.3595 11.9994 12.9245C10.2148 11.3281 8.93166 9.91894 9.80776 8.60402C11.0945 6.66401 14.6318 5.72479 13.8464 2.625ZM12.8447 11.6102C13.7525 12.6433 12.5947 13.5826 12.5947 13.5826C12.5947 13.5826 14.9113 12.3933 13.8471 10.9213C12.8764 9.51244 12.1251 8.8236 16.1951 6.47521C16.1951 6.47521 9.77692 8.07158 12.8454 11.6095L12.8447 11.6102Z" fill="#F58219"/>
</g>
<defs>
<clipPath id="clip0_872_2422">
<rect width="24" height="24" fill="white"/>
</clipPath>
</defs>
</svg>
