<svg width="24" height="24" viewBox="0 0 24 24" fill="none" xmlns="http://www.w3.org/2000/svg">
<g clip-path="url(#clip0_872_2426)">
<path d="M18.375 0H5.625C2.5184 0 0 2.5184 0 5.625V18.375C0 21.4816 2.5184 24 5.625 24H18.375C21.4816 24 24 21.4816 24 18.375V5.625C24 2.5184 21.4816 0 18.375 0Z" fill="#F0DB4F"/>
<path d="M6.31058 20.0561L8.14724 18.9446C8.50156 19.5728 8.82388 20.1044 9.59702 20.1044C10.3381 20.1044 10.8054 19.8145 10.8054 18.6869V11.0183H13.0608V18.7187C13.0608 21.0547 11.6915 22.118 9.69368 22.118C7.88948 22.118 6.84217 21.1836 6.31055 20.0559" fill="#323330"/>
<path d="M14.2852 19.8145L16.1215 18.7513C16.605 19.5407 17.2333 20.1207 18.3448 20.1207C19.2794 20.1207 19.8753 19.6534 19.8753 19.009C19.8753 18.2357 19.2631 17.9618 18.232 17.5109L17.6683 17.2691C16.0411 16.5765 14.9617 15.7065 14.9617 13.8699C14.9617 12.1783 16.2505 10.8894 18.2644 10.8894C19.6982 10.8894 20.7292 11.3889 21.4703 12.6938L19.7142 13.8215C19.3275 13.1288 18.9088 12.855 18.2644 12.855C17.6038 12.855 17.1849 13.2738 17.1849 13.8215C17.1849 14.4981 17.6038 14.7721 18.5704 15.191L19.1342 15.4326C21.0513 16.2543 22.1307 17.0919 22.1307 18.9767C22.1307 21.0068 20.5358 22.1183 18.3932 22.1183C16.2989 22.1183 14.9456 21.1195 14.2852 19.8145Z" fill="#323330"/>
</g>
<defs>
<clipPath id="clip0_872_2426">
<rect width="24" height="24" fill="white"/>
</clipPath>
</defs>
</svg>
