<svg width="24" height="24" viewBox="0 0 24 24" fill="none" xmlns="http://www.w3.org/2000/svg">
<g clip-path="url(#clip0_872_2442)">
<path d="M18.375 0H5.625C2.5184 0 0 2.5184 0 5.625V18.375C0 21.4816 2.5184 24 5.625 24H18.375C21.4816 24 24 21.4816 24 18.375V5.625C24 2.5184 21.4816 0 18.375 0Z" fill="#F4F2ED"/>
<path d="M11.1102 17.103C11.1102 19.5813 9.12653 21.589 6.6801 21.589C4.23266 21.589 2.25 19.5813 2.25 17.103C2.25 14.6256 4.23266 12.6169 6.6801 12.6169C9.12653 12.6169 11.1102 14.6256 11.1102 17.103Z" fill="#CB3C33"/>
<path d="M21.7548 17.103C21.7548 19.5813 19.7711 21.589 17.3246 21.589C14.8782 21.589 12.8945 19.5813 12.8945 17.103C12.8945 14.6256 14.8782 12.6169 17.3246 12.6169C19.7711 12.6169 21.7548 14.6256 21.7548 17.103Z" fill="#9558B2"/>
<path d="M16.4325 7.76729C16.4325 10.2446 14.4488 12.2533 12.0023 12.2533C9.55488 12.2533 7.57227 10.2446 7.57227 7.76729C7.57227 5.28996 9.55488 3.28125 12.0023 3.28125C14.4488 3.28125 16.4325 5.28996 16.4325 7.76729Z" fill="#389826"/>
</g>
<defs>
<clipPath id="clip0_872_2442">
<rect width="24" height="24" fill="white"/>
</clipPath>
</defs>
</svg>
