<svg width="24" height="24" viewBox="0 0 24 24" fill="none" xmlns="http://www.w3.org/2000/svg">
<g clip-path="url(#clip0_872_2473)">
<path d="M18.375 0H5.625C2.5184 0 0 2.5184 0 5.625V18.375C0 21.4816 2.5184 24 5.625 24H18.375C21.4816 24 24 21.4816 24 18.375V5.625C24 2.5184 21.4816 0 18.375 0Z" fill="#F4F2ED"/>
<path d="M6.36514 18.1576H6.16384C6.08332 18.9875 5.97059 19.9964 4.55344 19.9964H3.90123C3.52279 19.9964 3.50668 19.9395 3.50668 19.671V15.3505C3.50668 15.0739 3.50668 14.9599 4.26357 14.9599H4.52929V14.7158C4.23941 14.7403 3.51473 14.7403 3.1846 14.7403C2.87058 14.7403 2.24252 14.7403 1.96875 14.7158V14.9599H2.15394C2.77395 14.9599 2.79006 15.0494 2.79006 15.3424V19.614C2.79006 19.9069 2.77395 19.9964 2.15394 19.9964H1.96875V20.2487H6.14774L6.36514 18.1576Z" fill="#9F393D"/>
<path d="M6.22745 14.7075C6.19525 14.6099 6.17914 14.5774 6.07446 14.5774C5.96979 14.5774 5.94563 14.6099 5.91343 14.7075L4.61705 18.0272C4.56069 18.1656 4.46406 18.4178 3.96484 18.4178V18.6212H5.2129V18.4178C4.96329 18.4178 4.8103 18.3039 4.8103 18.1411C4.8103 18.1004 4.81835 18.0842 4.83446 18.0272L5.10823 17.3275H6.70252L7.0246 18.1574C7.04071 18.19 7.05681 18.2306 7.05681 18.255C7.05681 18.4178 6.75083 18.4178 6.59785 18.4178V18.6212H8.18409V18.4178H8.07137C7.69292 18.4178 7.65266 18.3609 7.5963 18.1981L6.22745 14.7075ZM5.90537 15.2852L6.622 17.1241H5.18875L5.90537 15.2852Z" fill="#9F393D"/>
<path d="M12.6775 14.7646H7.77383L7.62891 16.5872H7.82215C7.93488 15.2772 8.05566 15.0087 9.27151 15.0087C9.41642 15.0087 9.62576 15.0087 9.70629 15.025C9.87542 15.0575 9.87542 15.1471 9.87542 15.3342V19.6058C9.87542 19.8825 9.87542 19.9964 9.02995 19.9964H8.70787V20.2486C9.038 20.2242 9.85123 20.2242 10.2216 20.2242C10.592 20.2242 11.4214 20.2242 11.7515 20.2486V19.9964H11.4294C10.584 19.9964 10.584 19.8825 10.584 19.6058V15.3342C10.584 15.1714 10.584 15.0575 10.7289 15.025C10.8175 15.0087 11.0349 15.0087 11.1879 15.0087C12.3957 15.0087 12.5165 15.2772 12.6292 16.5872H12.8305L12.6775 14.7646Z" fill="#9F393D"/>
<path d="M16.9932 19.9881H16.792C16.5906 21.233 16.4054 21.827 15.0285 21.827H13.9657C13.5872 21.827 13.5711 21.77 13.5711 21.5015V19.3372H14.2877C15.0688 19.3372 15.1573 19.5976 15.1573 20.2892H15.3587V18.1411H15.1573C15.1573 18.8327 15.0688 19.085 14.2877 19.085H13.5711V17.1403C13.5711 16.8718 13.5872 16.8149 13.9657 16.8149H14.9964C16.2282 16.8149 16.4377 17.2624 16.5665 18.3934H16.7678L16.5423 16.5708H12.0332V16.8149H12.2184C12.8384 16.8149 12.8545 16.9044 12.8545 17.1973V21.4446C12.8545 21.7375 12.8384 21.827 12.2184 21.827H12.0332V22.0792H16.6551L16.9932 19.9881Z" fill="#9F393D"/>
<path d="M19.4182 17.1161L20.5213 15.4888C20.6905 15.2284 20.9642 14.9681 21.6808 14.9599V14.7158H19.7644V14.9599C20.0865 14.9681 20.2637 15.1471 20.2637 15.3342C20.2637 15.4156 20.2476 15.4319 20.1913 15.5213L19.2733 16.8883L18.2427 15.326C18.2265 15.3017 18.1862 15.2366 18.1862 15.204C18.1862 15.1064 18.3634 14.9681 18.7016 14.9599V14.7158C18.4278 14.7403 17.84 14.7403 17.5341 14.7403C17.2844 14.7403 16.7852 14.7321 16.4873 14.7158V14.9599H16.6403C17.0832 14.9599 17.2362 15.0169 17.3892 15.2447L18.8626 17.4985L17.5501 19.4594C17.4374 19.6221 17.1958 19.9964 16.3906 19.9964V20.2487H18.3071V19.9964C17.9367 19.9883 17.7998 19.7686 17.7998 19.6221C17.7998 19.5489 17.8239 19.5164 17.8803 19.4269L19.0156 17.7263L20.2878 19.6628C20.3039 19.6954 20.3281 19.7279 20.3281 19.7524C20.3281 19.8499 20.1509 19.9883 19.8047 19.9964V20.2487C20.0865 20.2242 20.6743 20.2242 20.9723 20.2242C21.3104 20.2242 21.6808 20.2324 22.019 20.2487V19.9964H21.866C21.4473 19.9964 21.2782 19.9557 21.1092 19.7035L19.4182 17.1161Z" fill="#9F393D"/>
<path d="M6.28437 1.97583C6.42492 2.22906 6.57113 2.44706 6.72363 2.63471L6.72548 2.63655C6.72599 2.63722 6.72679 2.63774 6.72732 2.6384C6.65707 2.62814 6.58471 2.62099 6.50954 2.62178C6.36107 2.62334 6.20163 2.64885 6.02969 2.70299C6.32499 2.95027 6.57642 3.13105 6.79743 3.27144C6.79203 3.26965 6.78621 3.26765 6.78082 3.2659L6.79743 3.27513C6.45502 3.16795 6.08562 3.15485 5.65319 3.36002C5.9637 3.55434 6.22428 3.6961 6.4542 3.80297C6.44748 3.80197 6.44062 3.80021 6.43391 3.79928L6.45052 3.8085C6.0922 3.7468 5.72034 3.78148 5.31546 4.04843C5.57944 4.16606 5.80878 4.25485 6.01309 4.32342H6.01494L6.02787 4.33081C5.68618 4.34409 5.34756 4.45047 5.01648 4.76452C5.3057 4.83626 5.55333 4.88417 5.77133 4.91586C5.76521 4.9171 5.75899 4.91824 5.75288 4.91954C5.74437 4.9194 5.73551 4.91969 5.72703 4.91954L5.73627 4.92324C5.48157 4.98108 5.2332 5.10878 4.99068 5.35327C5.18719 5.39573 5.36401 5.42871 5.5259 5.45293C5.3266 5.54926 5.1373 5.69855 4.96484 5.92724C5.19129 5.94483 5.3919 5.95234 5.57204 5.95309C5.3541 6.05393 5.14873 6.21225 4.96668 6.46801C5.29012 6.48417 5.56047 6.48348 5.79348 6.46986C5.78913 6.47164 5.78491 6.47357 5.78057 6.47539C5.76641 6.47665 5.75219 6.47755 5.73811 6.47907L5.75842 6.48646C5.51616 6.59282 5.29194 6.76518 5.09954 7.05674C5.50151 7.06261 5.8199 7.04364 6.08692 7.01061C6.07878 7.01281 6.07103 7.01566 6.06292 7.01799C6.05262 7.01858 6.04172 7.01907 6.03155 7.01983L6.04447 7.02352C5.72956 7.11733 5.43878 7.29804 5.19736 7.66394C5.52207 7.66868 5.79318 7.65639 6.02602 7.63441C6.02097 7.63717 6.01628 7.64083 6.01125 7.64364C5.73306 7.79883 5.49391 8.03193 5.33576 8.4262C5.62133 8.37211 5.86069 8.31504 6.06846 8.25456C6.06502 8.2573 6.06081 8.25916 6.05739 8.26194L6.07031 8.26009C5.85643 8.4197 5.67663 8.64333 5.55539 8.97434C5.752 8.93088 5.92766 8.8852 6.08507 8.8396C5.94376 9.01046 5.83462 9.22374 5.77318 9.50405C5.98667 9.42539 6.17185 9.34975 6.33608 9.27517C6.33409 9.27749 6.33252 9.2802 6.33054 9.28254C6.32718 9.28519 6.32273 9.28728 6.31947 9.28992L6.32501 9.28808C6.17435 9.46861 6.0594 9.69567 6.00203 9.9968C6.30261 9.87661 6.54711 9.7612 6.75317 9.6517C6.74735 9.65733 6.7402 9.66258 6.73472 9.6683L6.74025 9.66642C6.558 9.8663 6.42193 10.1231 6.36745 10.4766C6.72224 10.32 6.99563 10.1745 7.2201 10.0374C7.21773 10.0398 7.21507 10.0424 7.21273 10.0448L7.22749 10.0374C6.97262 10.2556 6.77709 10.5452 6.70888 10.9878C7.18707 10.7767 7.52153 10.5855 7.78118 10.4084C7.66967 10.6338 7.61075 10.8966 7.63906 11.226C8.10122 10.8714 8.39384 10.5855 8.61169 10.3327C8.61132 10.3364 8.61199 10.3401 8.61169 10.3438C8.59848 10.504 8.60847 10.6777 8.65599 10.8697C8.92998 10.399 9.20401 10.2039 9.48277 10.0429C9.13412 10.269 9.19673 10.452 9.19673 10.6612C9.6113 10.2246 10.1881 9.76083 10.365 9.47077C10.1285 9.82589 10.0341 10.1631 9.97186 10.46C8.76205 11.0999 8.02372 11.2674 7.19796 11.523C7.51829 11.6405 7.86213 11.7547 7.72026 11.918L7.34191 12.2964C7.58383 12.2212 7.83091 12.1127 8.04508 12.2595C8.02407 12.4579 7.77379 12.559 7.55968 12.6747C7.93663 12.5389 8.01794 12.5709 8.11706 12.6028C8.16657 12.8405 7.99461 12.968 7.88267 13.125C8.83211 12.4032 10.0702 11.8332 10.9426 11.595C12.1698 11.1818 13.7532 10.7509 14.1836 9.70327L14.6136 7.9758C15.1181 7.42979 15.582 6.86454 15.8022 6.17637C17.2069 5.90459 18.3434 6.00201 19.5284 6.03242C19.4204 6.01442 15.911 5.41969 15.911 5.41969C14.8851 4.0161 13.3547 4.9707 12.851 6.35726C12.7238 6.70722 11.9982 6.70645 11.788 6.35542C10.9567 4.56578 8.43258 2.67318 6.28437 1.97583Z" fill="black"/>
<path d="M6.25971 1.87502C6.40126 2.13002 6.54842 2.34758 6.70207 2.53613C6.63182 2.52589 6.55944 2.51986 6.48427 2.52065C6.3358 2.52221 6.17708 2.54686 6.00514 2.601C6.30518 2.85226 6.55876 3.03563 6.78244 3.17694C6.43689 3.06657 6.06478 3.05085 5.62767 3.25825C5.94696 3.45804 6.21495 3.60244 6.44951 3.7103C6.08384 3.6429 5.70466 3.6736 5.29082 3.94648C5.56405 4.06823 5.80034 4.15965 6.01002 4.22913C5.66584 4.24116 5.32517 4.34746 4.99175 4.66374C5.28097 4.7355 5.52877 4.78307 5.74674 4.81475C5.47996 4.86865 5.21826 4.99662 4.96462 5.25227C5.16113 5.29473 5.33802 5.32677 5.49991 5.35101C5.30062 5.44733 5.11192 5.59662 4.93945 5.82531C5.1659 5.84289 5.36624 5.8507 5.54637 5.85144C5.32842 5.95229 5.1244 6.11163 4.94236 6.36738C5.26579 6.38354 5.53596 6.38197 5.76901 6.36833C5.51289 6.47304 5.27684 6.64997 5.07497 6.9559C5.47693 6.96177 5.79528 6.94247 6.06227 6.90944C5.73088 6.99941 5.42413 7.18032 5.17175 7.56282C5.49645 7.56756 5.76747 7.55574 6.00033 7.53378C5.71566 7.68891 5.47117 7.92421 5.31017 8.3256C5.60324 8.2701 5.84886 8.21068 6.06036 8.14847C5.84005 8.30879 5.65488 8.53397 5.53087 8.87251C5.72748 8.82905 5.90197 8.78354 6.05938 8.73796C5.91807 8.90881 5.80914 9.12265 5.7477 9.40294C5.9612 9.32433 6.14587 9.24813 6.31009 9.17354C6.15407 9.35612 6.0349 9.58725 5.97614 9.89569C6.27672 9.7755 6.52121 9.66066 6.72728 9.55106C6.53838 9.753 6.39783 10.0128 6.34204 10.3748C6.708 10.2132 6.98877 10.0636 7.21707 9.92278C6.95488 10.1425 6.75327 10.4347 6.68372 10.8859C7.16191 10.6748 7.49563 10.4833 7.75527 10.3061C7.64377 10.5316 7.58467 10.7957 7.61298 11.1249C8.07514 10.7704 8.3679 10.4834 8.58576 10.2306C8.57106 10.3939 8.58265 10.5714 8.63125 10.7678C8.96303 10.1978 9.29275 10.0313 9.63397 9.84113C9.09048 10.1148 9.17105 10.3208 9.17105 10.5597C9.58568 10.1231 10.1638 9.66009 10.3407 9.37007C10.1042 9.72516 10.008 10.0614 9.94578 10.3583C8.73596 10.9982 7.99934 11.1653 7.17351 11.4211C7.49383 11.5387 7.83712 11.6537 7.69524 11.817L7.31677 12.1945C7.55868 12.1193 7.80534 12.012 8.01952 12.1587C7.9985 12.3572 7.74769 12.4573 7.53358 12.573C7.91051 12.4372 7.99203 12.4686 8.09113 12.5004C8.14065 12.7382 7.96883 12.8661 7.85689 13.0231C8.80632 12.3012 10.0452 11.7309 10.9176 11.4927C12.1448 11.0795 13.7271 10.6499 14.1574 9.60234L14.5891 7.87448C15.0936 7.32847 15.5577 6.76225 15.7778 6.07409C17.1826 5.80231 18.3185 5.90043 19.5035 5.93083C19.3955 5.91283 15.8853 5.3181 15.8853 5.3181C14.8594 3.91451 13.3302 4.86856 12.8264 6.25508C12.6993 6.60504 11.9739 6.60516 11.7637 6.25413C10.9324 4.46448 8.40792 2.57236 6.25971 1.87502Z" fill="#008080"/>
<path d="M14.548 5.53786L14.5388 5.55262C14.5025 5.62044 14.4409 5.66674 14.3542 5.69474C14.2677 5.72273 14.1568 5.7317 14.0276 5.72611L13.9464 5.72241L14.0055 5.77964C14.0354 5.80848 14.0438 5.83149 14.0442 5.85161C14.0447 5.87173 14.036 5.89346 14.0165 5.91805C13.9776 5.96725 13.9004 6.02066 13.8283 6.07493L13.8043 6.09154L13.8209 6.11554C13.881 6.20779 13.9085 6.2788 13.915 6.33331C13.9215 6.38782 13.9088 6.42693 13.8836 6.46065C13.8333 6.52813 13.7228 6.57385 13.6234 6.63045L13.605 6.63967L13.6086 6.66183C13.6172 6.71371 13.6032 6.75611 13.5662 6.79839C13.5291 6.84066 13.4669 6.88099 13.3835 6.91652L13.3613 6.92574L13.365 6.94974C13.3817 7.06085 13.415 7.15753 13.485 7.21919C13.5489 7.27561 13.6458 7.29048 13.7692 7.26532C13.7907 7.38377 13.8215 7.49148 13.8929 7.56247C13.9651 7.63443 14.0795 7.65571 14.2325 7.61599C14.2669 7.69894 14.3172 7.75805 14.3746 7.79686C14.4376 7.83947 14.52 7.85665 14.5877 7.8777L14.6278 7.83453C14.5606 7.81365 14.4613 7.78137 14.4078 7.74518C14.3542 7.709 14.3107 7.65936 14.2805 7.57355L14.2712 7.54402L14.2416 7.55325C14.0844 7.60158 13.9972 7.57982 13.9371 7.52002C13.8771 7.46024 13.8434 7.35215 13.8228 7.22658L13.8172 7.19335L13.784 7.20258C13.6544 7.2364 13.5778 7.2191 13.5256 7.17304C13.4768 7.13003 13.448 7.05377 13.4315 6.95896C13.5065 6.92424 13.571 6.88626 13.6123 6.839C13.6528 6.79282 13.6702 6.73582 13.6677 6.67659C13.7593 6.62619 13.8698 6.58289 13.9335 6.49757C13.9668 6.45296 13.984 6.39433 13.976 6.32593C13.9685 6.2637 13.9381 6.1918 13.8855 6.1063C13.9501 6.05875 14.0201 6.01109 14.0645 5.95496C14.0892 5.92376 14.1078 5.88922 14.1069 5.84977C14.1065 5.82801 14.0856 5.80819 14.0737 5.78702C14.186 5.78849 14.2883 5.78109 14.3727 5.75379C14.4617 5.72504 14.5315 5.67263 14.5775 5.60061C14.7105 5.60128 14.8481 5.63051 14.9873 5.64859C15.1303 5.66719 15.2758 5.67217 15.4136 5.61169L15.3878 5.55448C15.2659 5.60799 15.1356 5.60577 14.9965 5.58769C14.8574 5.56962 14.7125 5.53681 14.5665 5.53787L14.548 5.53786Z" fill="white"/>
<path d="M15.0635 5.51469C15.0635 5.65952 14.9461 5.77693 14.8013 5.77693C14.6564 5.77693 14.5391 5.65952 14.5391 5.51469C14.5391 5.36986 14.6564 5.25244 14.8013 5.25244C14.9461 5.25244 15.0635 5.36985 15.0635 5.51469Z" fill="white" stroke="white" stroke-width="0.661"/>
<path d="M15.8468 5.2688C15.6113 5.57508 15.5521 5.49597 15.4088 5.54732L15.3848 5.55655L15.3885 5.58238C15.4436 5.89001 15.626 5.98776 15.7683 6.09957L15.7762 6.07469L15.814 6.06748C15.6715 5.95539 15.5154 5.86045 15.4586 5.599C15.563 5.5743 15.6626 5.60588 15.8849 5.31662L15.8468 5.2688Z" fill="white"/>
<path d="M6.7832 3.17631C7.22808 3.45216 7.96027 3.73661 8.43051 4.03378C8.6892 4.19849 8.92155 4.36262 9.10231 4.5044C9.28307 4.64619 9.41672 4.79268 9.46593 4.8403C9.51506 4.88793 9.54843 4.86542 9.51572 4.80339C9.483 4.74136 9.322 4.59795 9.13922 4.45457C8.95645 4.3112 8.72395 4.14779 8.46373 3.9821C7.94328 3.65072 7.33243 3.35446 6.7832 3.17631Z" fill="white"/>
<path d="M6.70317 2.53606C6.88967 2.57913 7.16492 2.73818 7.47099 2.90836C7.77708 3.07853 8.11067 3.28795 8.41591 3.49157C8.72117 3.69518 8.95653 3.87339 9.14468 4.01695C9.32334 4.16985 9.41156 4.26886 9.44578 4.26856C9.45047 4.26949 9.45506 4.26957 9.46237 4.26856C9.46969 4.26754 9.48197 4.26191 9.48816 4.2501C9.49444 4.2383 9.492 4.22839 9.49003 4.22242C9.48806 4.21645 9.48703 4.21329 9.4845 4.20949C9.47438 4.19434 9.459 4.18014 9.4365 4.15967C9.39159 4.11873 9.31724 4.05852 9.22243 3.98618C9.0328 3.8415 8.75725 3.64418 8.45098 3.43988C8.1447 3.23558 7.80876 3.02436 7.50052 2.85299C7.39094 2.81239 6.85363 2.52822 6.70317 2.53606Z" fill="white"/>
<path d="M6.44727 3.71049C7.01826 3.94355 7.83056 4.21732 8.37274 4.55811C8.66406 4.74311 8.91779 4.92738 9.10728 5.07857C9.20203 5.15416 9.28116 5.22211 9.33983 5.27605C9.39854 5.32999 9.43154 5.37896 9.45058 5.39232C9.49023 5.4203 9.5207 5.40171 9.50223 5.35725C9.48836 5.32368 9.44242 5.28518 9.38223 5.2299C9.32216 5.17464 9.24169 5.1069 9.14604 5.03058C8.95473 4.87795 8.69933 4.69087 8.40596 4.50458C7.81923 4.13201 7.11778 3.80448 6.44727 3.71049Z" fill="white"/>
<path d="M6.00783 4.22831C6.45283 4.2286 7.37207 4.63593 7.75954 4.84007C8.38778 5.17511 8.95906 5.60581 9.27479 5.90679C9.3098 5.94018 9.36095 5.91072 9.32094 5.86435C9.02767 5.52453 8.42197 5.12404 7.78908 4.78651C7.15619 4.44897 6.50088 4.22781 6.00783 4.22831Z" fill="white"/>
<path d="M5.75 4.81446C6.41901 4.91236 7.22095 5.18239 7.80522 5.475C8.13128 5.64055 8.42203 5.81787 8.64499 5.97515C8.86793 6.13244 9.03254 6.30952 9.07317 6.35534C9.11379 6.40116 9.16217 6.40307 9.12484 6.32212C9.08751 6.24117 8.90593 6.08283 8.68005 5.92348C8.45418 5.76411 8.16154 5.58647 7.83295 5.41962C7.17573 5.08593 6.42727 4.82342 5.75 4.81446Z" fill="white"/>
<path d="M5.97211 5.31258C5.80592 5.29808 5.65632 5.33216 5.50391 5.35121C6.09835 5.2955 6.92958 5.56848 7.48369 5.82381C8.13642 6.12981 8.67839 6.54993 8.93804 6.81675C8.97868 6.85851 9.00741 6.80529 8.98603 6.77798C8.74427 6.46934 8.16856 6.07555 7.50953 5.76661C7.01528 5.53489 6.47073 5.35609 5.97211 5.31258Z" fill="white"/>
<path d="M5.54885 5.8482C6.13382 5.89156 6.91702 6.03163 7.46564 6.28348C8.01741 6.54155 8.43612 6.87617 8.64679 7.06603C8.67921 7.09525 8.73653 7.07456 8.69108 7.02174C8.49882 6.79835 8.05177 6.48935 7.49327 6.22813C6.9348 5.96693 6.25643 5.7996 5.54885 5.8482Z" fill="white"/>
<path d="M6.07382 6.33497C5.9504 6.3308 5.89251 6.35389 5.77344 6.36675C6.17047 6.38425 6.80142 6.48984 7.14983 6.60812C7.60197 6.76498 7.97374 7.00128 8.18522 7.1858C8.22605 7.22142 8.25649 7.17363 8.22952 7.14335C8.03146 6.9211 7.62894 6.70824 7.17012 6.54906C6.82603 6.42968 6.44409 6.34749 6.07382 6.33497Z" fill="white"/>
<path d="M6.05666 6.91088C6.90539 6.96816 7.4186 7.1177 7.812 7.4701C7.84147 7.4965 7.88801 7.46016 7.85629 7.42581C7.45259 6.98842 6.65776 6.86653 6.05666 6.91088Z" fill="white"/>
<path d="M6.71096 7.42058C6.45367 7.39988 6.23838 7.45611 6.00391 7.53419C6.6901 7.42482 6.97542 7.47726 7.4953 7.72141C7.55457 7.74924 7.55109 7.68367 7.52483 7.66789C7.24865 7.50188 6.96824 7.44126 6.71096 7.42058Z" fill="white"/>
<path d="M6.68653 7.89856C6.44326 7.92012 6.2367 8.00366 6.06641 8.14217C6.74593 7.88025 6.93373 7.93236 7.45347 8.0797C7.52182 8.09908 7.50058 8.03324 7.47376 8.02248C7.16257 7.89771 6.92981 7.87699 6.68653 7.89856Z" fill="white"/>
<path d="M8.03281 8.31948C7.67025 8.28028 7.2618 8.32425 6.90331 8.38962C6.54483 8.45499 6.23653 8.58779 6.0625 8.72935C6.65852 8.47763 6.76714 8.47816 6.91442 8.45052C7.26759 8.38612 7.61766 8.36101 8.02917 8.38039C8.06649 8.38215 8.06452 8.32291 8.03281 8.31948Z" fill="white"/>
<path d="M8.2438 8.61284C7.8509 8.59799 7.44508 8.69522 7.094 8.79555C6.74295 8.89589 6.48238 9.03279 6.31055 9.17254C6.65823 9.0053 6.98177 8.8921 7.1106 8.85461C7.45674 8.75567 7.80594 8.67003 8.24751 8.67558C8.28181 8.67602 8.30397 8.6151 8.2438 8.61284Z" fill="white"/>
<path d="M8.56476 8.85438C8.19471 8.90901 7.80672 9.01831 7.46846 9.13306C7.13023 9.24781 6.88948 9.38415 6.73242 9.54727C7.13473 9.31633 7.35599 9.23536 7.4869 9.19028C7.82098 9.07693 8.13293 8.99806 8.57579 8.91528C8.62895 8.90535 8.5863 8.8512 8.56476 8.85438Z" fill="white"/>
<path d="M8.75328 9.16275C8.01118 9.28096 7.53027 9.60111 7.22461 9.91864C7.69832 9.56174 8.02785 9.36993 8.76618 9.22364C8.8129 9.21437 8.79881 9.1555 8.75328 9.16275Z" fill="white"/>
<path d="M9.11391 9.43385C8.36751 9.54879 7.93706 10.0025 7.75781 10.3021C8.23006 9.83032 8.59759 9.57354 9.1268 9.49479C9.18036 9.48682 9.16672 9.4257 9.11391 9.43385Z" fill="white"/>
<path d="M9.34035 9.6701C9.22394 9.68463 9.06553 9.76713 8.91587 9.8621C8.7662 9.95707 8.65328 10.0726 8.58594 10.2214C8.76622 10.0353 8.83839 9.98501 8.94909 9.91376C9.09278 9.82254 9.23758 9.76516 9.35512 9.73104C9.41023 9.71501 9.36857 9.66663 9.34035 9.6701Z" fill="white"/>
<path d="M15.0635 5.51469C15.0635 5.65952 14.9461 5.77693 14.8013 5.77693C14.6564 5.77693 14.5391 5.65952 14.5391 5.51469C14.5391 5.36986 14.6564 5.25244 14.8013 5.25244C14.9461 5.25244 15.0635 5.36985 15.0635 5.51469Z" fill="white" stroke="white" stroke-width="0.661"/>
<path d="M15.0635 5.51469C15.0635 5.65952 14.9461 5.77693 14.8013 5.77693C14.6564 5.77693 14.5391 5.65952 14.5391 5.51469C14.5391 5.36986 14.6564 5.25244 14.8013 5.25244C14.9461 5.25244 15.0635 5.36985 15.0635 5.51469Z" fill="#37C871" stroke="white" stroke-width="0.661"/>
</g>
<defs>
<clipPath id="clip0_872_2473">
<rect width="24" height="24" fill="white"/>
</clipPath>
</defs>
</svg>
