<svg width="24" height="24" viewBox="0 0 24 24" fill="none" xmlns="http://www.w3.org/2000/svg">
<g clip-path="url(#clip0_872_2621)">
<path d="M18.375 0H5.625C2.5184 0 0 2.5184 0 5.625V18.375C0 21.4816 2.5184 24 5.625 24H18.375C21.4816 24 24 21.4816 24 18.375V5.625C24 2.5184 21.4816 0 18.375 0Z" fill="#F4F2ED"/>
<mask id="mask0_872_2621" style="mask-type:luminance" maskUnits="userSpaceOnUse" x="2" y="2" width="20" height="20">
<path d="M21.375 2.625H2.625V21.375H21.375V2.625Z" fill="white"/>
</mask>
<g mask="url(#mask0_872_2621)">
<path d="M19.1689 12.0019C19.1689 8.04602 15.9572 4.83472 12.0015 4.83472C8.04565 4.83472 4.83398 8.04602 4.83398 12.0019C4.83398 15.958 8.04565 19.1693 12.0015 19.1693C15.9572 19.1693 19.1689 15.958 19.1689 12.0019Z" fill="#000080"/>
<path d="M17.0686 9.03211C17.0686 7.87378 16.1282 6.93335 14.9699 6.93335C13.8115 6.93335 12.8711 7.87378 12.8711 9.03211C12.8711 10.19 13.8115 11.1308 14.9699 11.1308C16.1282 11.1308 17.0686 10.19 17.0686 9.03211Z" fill="white"/>
<path d="M21.2659 4.8324C21.2659 3.67407 20.3255 2.73364 19.1671 2.73364C18.0089 2.73364 17.0684 3.67407 17.0684 4.8324C17.0684 5.99071 18.0089 6.93115 19.1671 6.93115C20.3255 6.93115 21.2659 5.99292 21.2659 4.8324Z" fill="#000080"/>
<path d="M7.73657 15.0549H10.0591V15.5837H7.13672V10.8811H7.73657V15.0549Z" fill="white"/>
<path d="M12.8326 15.5839V15.1125C12.5158 15.5582 12.2009 15.7322 11.704 15.7322C11.0466 15.7322 10.627 15.3718 10.627 14.8097V12.2041H11.1616V14.5976C11.1616 15.0038 11.4325 15.2631 11.8585 15.2631C12.4188 15.2631 12.781 14.8115 12.781 14.1204V12.2041H13.3156V15.5839H12.8326Z" fill="white"/>
<path d="M17.2462 15.6749C17.0719 15.7203 16.9888 15.7321 16.8779 15.7321C16.5296 15.7321 16.3611 15.5778 16.3234 15.2351C15.9433 15.5837 15.6009 15.7321 15.1753 15.7321C14.4919 15.7321 14.0664 15.346 14.0664 14.7323C14.0664 14.2928 14.2664 13.99 14.6604 13.8296C14.8663 13.7464 14.9831 13.7205 15.7433 13.6233C16.1692 13.5722 16.3037 13.475 16.3037 13.2495V13.1067C16.3037 12.784 16.0326 12.6038 15.5496 12.6038C15.0464 12.6038 14.801 12.7899 14.7557 13.2037H14.2129C14.2268 12.869 14.2902 12.6752 14.4447 12.501C14.6703 12.2493 15.0761 12.1069 15.5672 12.1069C16.3988 12.1069 16.8383 12.4295 16.8383 13.0293V15.0176C16.8383 15.1856 16.9412 15.2827 17.1294 15.2827C17.1609 15.2827 17.187 15.2827 17.2462 15.2687V15.6749ZM16.3037 13.9127C16.1235 13.9958 16.0067 14.0214 15.4386 14.0987C14.8644 14.1818 14.6249 14.3639 14.6249 14.7183C14.6249 15.0611 14.8703 15.2611 15.2899 15.2611C15.6067 15.2611 15.8701 15.1578 16.0901 14.9579C16.2501 14.8096 16.3037 14.7008 16.3037 14.5184V13.9127Z" fill="white"/>
<path d="M20.2589 7.7926C20.9221 9.09558 21.2685 10.5369 21.2685 12C21.2685 17.1163 17.1168 21.268 12.0005 21.268C6.88415 21.268 2.73242 17.1163 2.73242 12C2.73242 6.88366 6.88415 2.73193 12.0005 2.73193C13.6459 2.73193 15.2594 3.16956 16.677 3.99719" stroke="#808080" stroke-width="2.294" stroke-miterlimit="10" stroke-dasharray="8.63 8.63"/>
</g>
</g>
<defs>
<clipPath id="clip0_872_2621">
<rect width="24" height="24" fill="white"/>
</clipPath>
</defs>
</svg>
