<svg width="24" height="24" viewBox="0 0 24 24" fill="none" xmlns="http://www.w3.org/2000/svg">
<g clip-path="url(#clip0_872_2634)">
<path d="M18.375 0H5.625C2.5184 0 0 2.5184 0 5.625V18.375C0 21.4816 2.5184 24 5.625 24H18.375C21.4816 24 24 21.4816 24 18.375V5.625C24 2.5184 21.4816 0 18.375 0Z" fill="#F4F2ED"/>
<path d="M20.3438 6.46875H3.65625C3.13849 6.46875 2.71875 6.88849 2.71875 7.40625V16.5938C2.71875 17.1115 3.13849 17.5312 3.65625 17.5312H20.3438C20.8615 17.5312 21.2812 17.1115 21.2812 16.5938V7.40625C21.2812 6.88849 20.8615 6.46875 20.3438 6.46875Z" stroke="black"/>
<path d="M5.0625 15.1875V8.8125H6.9375L8.8125 11.1562L10.6875 8.8125H12.5625V15.1875H10.6875V11.5312L8.8125 13.875L6.9375 11.5312V15.1875H5.0625ZM16.7812 15.1875L13.9688 12.0938H15.8438V8.8125H17.7188V12.0938H19.5938L16.7812 15.1875Z" fill="black"/>
</g>
<defs>
<clipPath id="clip0_872_2634">
<rect width="24" height="24" fill="white"/>
</clipPath>
</defs>
</svg>
