<svg width="24" height="24" viewBox="0 0 24 24" fill="none" xmlns="http://www.w3.org/2000/svg">
<g clip-path="url(#clip0_872_2645)">
<path d="M18.375 0H5.625C2.5184 0 0 2.5184 0 5.625V18.375C0 21.4816 2.5184 24 5.625 24H18.375C21.4816 24 24 21.4816 24 18.375V5.625C24 2.5184 21.4816 0 18.375 0Z" fill="#F4F4ED"/>
<path d="M3.09375 12.4863L8.13726 10.4486C8.6492 9.77212 9.22565 9.14692 9.85847 8.58186C10.2761 8.36038 11.0608 8.48061 12.4973 6.69608C13.8895 4.95586 14.3325 3.46875 14.9842 3.46875C16.0158 3.46875 16.7752 5.69624 17.9269 9.06912C18.748 11.6454 19.7113 14.1742 20.8124 16.6439C19.6102 15.5238 18.585 14.3152 17.4142 14.3467C16.3258 14.3721 15.1172 15.663 13.7946 17.321C12.7441 18.6499 11.3519 19.5611 10.8077 19.5422C10.8077 19.5422 9.40284 15.5681 8.22584 14.9227C7.98165 14.8229 7.71731 14.7823 7.45444 14.8043C7.19157 14.8263 6.93765 14.9102 6.71343 15.0492L3.09375 12.48V12.4863Z" fill="#4499DD"/>
<path d="M14.3572 3.92456C13.9333 4.49409 13.4207 5.53823 12.4968 6.69627C11.0603 8.4808 10.2819 8.36057 9.85799 8.58205C9.22209 9.14403 8.64535 9.76956 8.13672 10.4489L10.225 11.9739C11.9969 9.55656 12.9461 6.93674 13.6865 5.24081C13.8719 4.78362 14.0963 4.34324 14.3572 3.92456Z" fill="url(#paint0_linear_872_2645)"/>
<path d="M14.9907 3.46875C13.6112 3.46875 12.6684 10.7334 7.57422 14.7897C9.00437 14.5556 10.2446 18.1057 10.8142 19.5422C13.3454 19.1119 15.3704 14.2708 17.4145 14.3468C18.5851 14.3911 19.6103 15.5238 20.8126 16.6439C18.0662 10.8727 16.7816 3.46875 14.9907 3.46875Z" fill="url(#paint1_linear_872_2645)"/>
</g>
<defs>
<linearGradient id="paint0_linear_872_2645" x1="12.4607" y1="11.1063" x2="11.328" y2="7.44869" gradientUnits="userSpaceOnUse">
<stop stop-color="#551122"/>
<stop offset="0.23" stop-color="#552233"/>
<stop offset="0.36" stop-color="#553344"/>
<stop offset="0.51" stop-color="#664455"/>
<stop offset="0.66" stop-color="#556688"/>
<stop offset="0.84" stop-color="#2299DD"/>
</linearGradient>
<linearGradient id="paint1_linear_872_2645" x1="20.6291" y1="13.3931" x2="9.23852" y2="10.5961" gradientUnits="userSpaceOnUse">
<stop offset="0.081" stop-color="#CC3333"/>
<stop offset="0.189" stop-color="#DE5239"/>
<stop offset="0.313" stop-color="#F06E3E"/>
<stop offset="0.421" stop-color="#FA8042"/>
<stop offset="0.5" stop-color="#FE8643"/>
<stop offset="0.58" stop-color="#FA7F42"/>
<stop offset="0.696" stop-color="#EF6C3E"/>
<stop offset="0.833" stop-color="#DC4C37"/>
<stop offset="0.916" stop-color="#CF3633"/>
</linearGradient>
<clipPath id="clip0_872_2645">
<rect width="24" height="24" fill="white"/>
</clipPath>
</defs>
</svg>
