<svg width="24" height="24" viewBox="0 0 24 24" fill="none" xmlns="http://www.w3.org/2000/svg">
<g clip-path="url(#clip0_872_2699)">
<path d="M18.375 0H5.625C2.5184 0 0 2.5184 0 5.625V18.375C0 21.4816 2.5184 24 5.625 24H18.375C21.4816 24 24 21.4816 24 18.375V5.625C24 2.5184 21.4816 0 18.375 0Z" fill="#F4F2ED"/>
<path d="M12.0681 4.31252C12.0681 4.31252 11.2503 4.99571 10.4167 5.67428C9.55903 5.64548 7.87696 5.84849 6.96554 6.19891C6.12594 5.63658 5.3882 5.01571 5.3882 5.01571C5.3882 5.01571 4.75777 6.1623 4.36132 6.83515C3.77337 7.16573 3.18307 7.53757 2.65694 8.02951C2.04502 7.77263 1.33566 7.45943 1.3125 7.44908C2.12288 9.1771 2.66765 10.9074 4.14959 11.9474C6.50894 8.00814 17.4726 8.37121 19.8807 11.9251C21.437 11.0669 22.0423 9.22062 22.6543 7.51604C22.5872 7.53941 21.7544 7.83415 21.2146 8.05182C20.8923 7.68085 20.1325 7.11048 19.7007 6.83514C19.2912 6.04224 18.6951 4.97107 18.6951 4.97107C18.6951 4.97107 17.989 5.52623 17.1707 6.13193C16.065 5.91617 14.7278 5.65402 13.6031 5.71893C12.8375 5.05363 12.0681 4.31252 12.0681 4.31252Z" fill="#F3D400"/>
<path d="M2.15039 11.1214C2.15039 11.1214 3.29898 14.0616 4.0967 16.1046C7.47691 20.8191 16.1086 21.1469 19.8716 16.1959C20.7621 14.0743 21.9634 11.0928 21.9634 11.0928C20.998 12.6047 19.4269 13.6484 18.4593 14.2106C17.7717 14.6089 16.1852 14.8495 16.1852 14.8495L12.0201 12.5677L7.83097 14.8039C7.83097 14.8039 6.26557 14.538 5.55689 14.1878C4.12658 13.3806 3.16459 12.4269 2.15039 11.1214Z" fill="#FFE953"/>
</g>
<defs>
<clipPath id="clip0_872_2699">
<rect width="24" height="24" fill="white"/>
</clipPath>
</defs>
</svg>
