<svg width="24" height="24" viewBox="0 0 24 24" fill="none" xmlns="http://www.w3.org/2000/svg">
<g clip-path="url(#clip0_872_2710)">
<mask id="mask0_872_2710" style="mask-type:luminance" maskUnits="userSpaceOnUse" x="0" y="0" width="24" height="24">
<path d="M18.375 0H5.625C2.5184 0 0 2.5184 0 5.625V18.375C0 21.4816 2.5184 24 5.625 24H18.375C21.4816 24 24 21.4816 24 18.375V5.625C24 2.5184 21.4816 0 18.375 0Z" fill="white"/>
</mask>
<g mask="url(#mask0_872_2710)">
<path d="M18.375 0H5.625C2.5184 0 0 2.5184 0 5.625V18.375C0 21.4816 2.5184 24 5.625 24H18.375C21.4816 24 24 21.4816 24 18.375V5.625C24 2.5184 21.4816 0 18.375 0Z" fill="url(#paint0_linear_872_2710)"/>
<path d="M13.4462 21.7517C13.3949 21.546 13.4976 21.2888 13.3949 21.0831C13.3435 20.8773 13.1896 20.8773 13.1383 20.723C12.933 20.3115 12.6764 19.8486 12.6764 19.3342C12.6764 18.9227 12.5224 18.5112 12.4711 18.0998C12.4711 17.894 12.4711 17.6882 12.4711 17.4825C12.4711 17.3796 12.4711 17.2767 12.4198 17.1739C12.4198 17.1224 12.4198 17.0196 12.3684 17.0196L12.4198 16.8653C12.4198 16.8138 12.8816 16.8138 13.0357 16.8138C13.2922 16.8138 13.4976 16.8138 13.7542 16.8653C14.2673 16.8653 14.6779 16.8653 15.1912 16.8138C16.2689 16.6595 16.7308 16.1965 16.9874 16.0422C17.9625 15.3736 18.4244 14.1906 18.4244 14.1906C18.5783 13.8305 18.5783 13.1618 18.9376 12.9046C19.3481 12.5446 20.0153 12.596 20.4772 12.3903C20.7338 12.2873 20.9392 12.1845 21.247 12.236C21.4523 12.2873 21.8116 12.5446 21.9142 12.1845C21.8629 12.133 21.8116 12.0817 21.7602 12.0302C22.1708 11.9787 21.7602 11.1043 21.6063 10.8985C21.3497 10.6414 20.9904 10.4871 20.5799 10.3842C20.0666 10.2299 19.6047 10.0756 19.1429 10.1784C18.3217 10.3328 18.373 9.86982 17.9111 9.86982C17.3467 9.86982 16.3202 9.92128 16.1149 10.4871C16.0123 10.7442 15.9609 10.7442 15.807 10.95C15.7043 11.1043 15.807 11.2586 15.7556 11.4644C15.7043 11.6701 15.6017 12.3903 15.499 12.6474C15.3451 13.0589 15.1398 13.5733 14.7805 13.5733C14.2673 13.6247 13.8568 13.6762 13.4462 13.5218C13.1896 13.419 12.7791 13.2647 12.5737 13.2132C11.5987 12.8018 11.4446 12.3903 11.4446 12.3903C11.3421 12.236 11.0854 11.9273 10.9828 11.5673C10.8802 11.1558 10.6748 10.8472 10.6236 10.6414C10.5209 10.4357 10.3669 10.0756 10.2129 9.7155C10.0076 9.2526 9.75103 8.89255 9.54581 8.73823C9.23784 8.48105 8.98124 8.06955 8.36538 8.17242C8.26274 8.17242 7.85217 8.22386 7.54424 8.48105C7.33896 8.63536 7.28764 8.99542 7.08234 9.30403C6.97971 9.45835 6.77442 9.97275 6.62046 10.3842C6.51781 10.6928 6.46649 10.8985 6.31252 11.0015C6.20989 11.1043 6.10724 11.2072 5.95327 11.1558C5.85064 11.1043 5.74799 11.0528 5.64535 11.0015C5.49139 10.8985 5.18346 10.3328 4.97817 9.97275C4.82421 9.61266 4.46496 9.09829 4.25967 8.84111C3.95174 8.42961 3.79778 8.32674 3.33589 8.32674C2.4121 8.32674 2.30947 8.84111 1.89889 9.61266C1.6936 9.97275 1.64228 10.4871 1.28303 10.8985C1.12907 11.1043 0.461892 12.0817 0 12.236V19.3342V19.2828C0.0513214 19.1798 0.0513214 19.077 0.102643 19.0256C0.307928 18.6655 0.718499 18.3054 0.923784 17.894C1.02643 17.6882 1.18039 17.4825 1.28303 17.2253C1.33435 17.0709 1.38568 16.7624 1.48832 16.6081C1.59097 16.4023 1.79625 16.3508 2.00153 16.2995C2.36078 16.248 2.61739 16.7624 3.02796 16.9681C3.18192 17.0709 4.00307 17.3282 4.25967 17.3796C4.67024 17.4825 5.08082 17.5339 5.49139 17.6368C5.69667 17.6882 5.90196 17.6882 6.15856 17.7397C6.36385 17.7397 7.13367 17.7911 7.13367 17.8425C6.77442 18.0483 6.51781 18.5627 6.36385 18.9742C6.20989 19.3856 6.10724 19.8486 5.95327 20.2087C5.74799 20.6201 5.33742 20.8259 5.38874 21.3402C5.38874 21.546 5.44007 21.7517 5.38874 21.9575C5.33742 22.2146 5.23477 22.3689 5.18346 22.6262C5.08082 22.9348 4.97817 23.9121 4.87552 24.1692L5.69667 24.0664C5.79931 23.8606 5.85064 22.9348 5.90196 22.8319C6.05592 22.3689 6.26121 22.0089 6.56914 21.6488C6.87706 21.2888 6.87706 20.8773 7.03102 20.4658C7.23631 20.0029 7.49292 19.6943 7.74952 19.2828C8.21142 18.5627 8.51934 17.5853 9.44316 17.3796C9.54581 17.3796 10.1103 17.7911 10.3669 18.0483C10.6748 18.3569 10.9828 18.6655 11.188 19.077C11.5473 19.8486 11.9065 20.9802 12.0092 21.546C12.0606 21.906 12.1118 21.906 12.3684 22.2146C12.4711 22.3176 12.6764 22.729 12.7791 22.8833C12.8303 23.0377 12.9843 23.3977 13.0357 23.6034C13.0869 23.7063 13.2409 24.0664 13.3435 24.375H14.1134C13.8054 23.5006 13.5488 22.6262 13.4462 21.7517Z" fill="white"/>
</g>
</g>
<defs>
<linearGradient id="paint0_linear_872_2710" x1="11.9723" y1="0.0112395" x2="11.9723" y2="24.0976" gradientUnits="userSpaceOnUse">
<stop stop-color="#F29100"/>
<stop offset="1" stop-color="#EC670F"/>
</linearGradient>
<clipPath id="clip0_872_2710">
<rect width="24" height="24" fill="white"/>
</clipPath>
</defs>
</svg>
