<svg width="24" height="24" viewBox="0 0 24 24" fill="none" xmlns="http://www.w3.org/2000/svg">
<g clip-path="url(#clip0_872_2737)">
<path d="M18.375 0H5.625C2.5184 0 0 2.5184 0 5.625V18.375C0 21.4816 2.5184 24 5.625 24H18.375C21.4816 24 24 21.4816 24 18.375V5.625C24 2.5184 21.4816 0 18.375 0Z" fill="#004065"/>
<path d="M8.32152 21.371C7.98865 21.3506 7.70468 21.2682 7.47713 21.1259C7.39967 21.0774 7.38273 21.0498 7.38273 20.9722C7.38273 20.9313 7.38699 20.9162 7.40947 20.8777C7.43979 20.8256 7.51392 20.7619 7.60074 20.7132C7.6854 20.6657 7.92578 20.5687 8.007 20.5491C8.14443 20.5161 8.25256 20.4642 8.35573 20.3821C8.45475 20.3032 8.54104 20.1801 8.57648 20.0672C8.58545 20.0385 8.62046 19.9652 8.65429 19.9042C9.09221 19.1138 9.27329 18.206 9.16482 17.3447C9.1581 17.2912 9.14712 17.1758 9.14044 17.088C9.10804 16.6629 9.04756 16.3185 8.93584 15.9227C8.91866 15.8618 8.90638 15.7972 8.90295 15.7493C8.87799 15.402 8.80722 14.9773 8.70933 14.5875C8.66041 14.3927 8.65704 14.3417 8.6556 13.7759C8.6541 13.1877 8.64704 13.0568 8.60622 12.8603C8.5875 12.7703 8.55266 12.6454 8.54627 12.6454C8.54313 12.6454 8.51476 12.6612 8.48324 12.6807C8.2489 12.8255 7.9331 12.9417 7.60953 13.0023C7.56158 13.0113 7.49649 13.0271 7.46486 13.0374C7.3891 13.0623 7.27565 13.0684 7.1979 13.0519C7.07028 13.0248 6.96067 12.9523 6.8981 12.8537C6.84678 12.7728 6.79412 12.7527 6.7165 12.7844C6.69736 12.7923 6.63613 12.8344 6.58043 12.8782C6.47361 12.9621 6.43091 12.9852 6.38322 12.9852C6.34659 12.9852 6.3171 12.9661 6.28166 12.9193C6.22065 12.8388 5.83892 12.554 5.57973 12.3955C5.52778 12.3638 5.46357 12.321 5.43706 12.3005C5.29944 12.1937 5.11045 12.1071 4.92261 12.0648L4.83636 12.0454L4.81583 12.0107C4.79551 11.9764 4.79531 11.9742 4.79748 11.8204C4.80029 11.6211 4.79616 11.6066 4.71821 11.5426C4.68799 11.5178 4.65518 11.4863 4.64529 11.4726C4.61333 11.4284 4.56041 11.4207 4.45851 11.4454C4.29166 11.4857 4.26002 11.4559 4.16228 11.1664C4.13816 11.0949 4.1078 11.0151 4.0948 10.989C4.04566 10.8902 3.98161 10.83 3.87948 10.7864C3.77367 10.7413 3.63506 10.5842 3.56424 10.4291C3.48664 10.2592 3.45482 10.0767 3.43598 9.69394C3.42578 9.48656 3.41459 9.34871 3.39885 9.23615C3.34107 8.82299 3.34627 8.23644 3.41198 7.75525L3.42855 7.63387L3.50108 7.49514C3.60093 7.30412 3.68411 7.13397 3.77135 6.9423C3.85822 6.75144 3.97798 6.4689 3.97798 6.45483C3.97798 6.44183 3.89057 6.38994 3.8144 6.35774C3.67629 6.29934 3.52638 6.2685 3.16068 6.22323C3.0387 6.20813 2.89483 6.18743 2.84098 6.17723C2.53018 6.11837 2.33923 6.01334 2.20943 5.82986C2.18668 5.79772 2.17635 5.77209 2.16608 5.72235C2.12681 5.53236 2.20463 5.33858 2.4102 5.11438C2.50178 5.01452 2.8705 4.70264 2.94712 4.66027C3.08643 4.58319 3.22109 4.55507 3.55495 4.53334C3.7747 4.51903 3.90617 4.5014 4.01712 4.47132C4.11317 4.44529 4.19987 4.43061 4.32708 4.41881C4.58173 4.39522 4.69769 4.3642 4.78292 4.29689C4.82704 4.26204 4.86733 4.20307 4.88201 4.15186C4.90614 4.06766 4.98866 3.97494 5.09099 3.91704C5.11358 3.90427 5.1986 3.86493 5.27992 3.82961C5.44961 3.75594 5.50811 3.72457 5.57152 3.67325C5.59637 3.65314 5.62409 3.63356 5.63312 3.62974C5.7069 3.59855 5.81678 3.5908 5.9066 3.61046C5.97847 3.62619 6.0486 3.65427 6.22307 3.73719C6.36949 3.80677 6.50834 3.85685 6.55529 3.85701C6.59233 3.85713 6.82905 3.98866 7.00312 4.10582C7.19471 4.2348 7.54034 4.54257 7.59643 4.63416C7.6142 4.66316 7.63674 4.75449 7.65745 4.8813C7.67852 5.01029 7.69824 5.07715 7.73169 5.13313C7.75556 5.17305 7.78004 5.19628 7.88545 5.27901C7.98535 5.35742 8.09409 5.54173 8.14119 5.71253C8.19123 5.894 8.20469 6.08806 8.19339 6.4651C8.18764 6.65679 8.18786 6.79602 8.19413 6.92864C8.20107 7.07562 8.20079 7.13588 8.19285 7.19693C8.17433 7.33956 8.1336 7.46618 8.06458 7.59572C8.04293 7.63636 8.02589 7.68124 8.02013 7.71281C8.00558 7.79248 7.97654 7.85675 7.87556 8.03271C7.73773 8.27288 7.72341 8.31925 7.73664 8.48236C7.74077 8.5332 7.74158 8.60343 7.73843 8.63843C7.72414 8.79778 7.72125 8.92615 7.73121 8.95959C7.7529 9.03248 7.80552 9.06361 7.89609 9.05715C7.92547 9.05505 7.95556 9.05136 7.96299 9.04892C7.99779 9.03751 8.04605 8.90597 8.08898 8.70553C8.12076 8.55717 8.15017 8.45202 8.17204 8.40856C8.17911 8.3945 8.21967 8.29497 8.26218 8.18739C8.39658 7.84724 8.52112 7.5887 8.67249 7.33562C8.89979 6.95558 9.12529 6.6874 9.42497 6.44074C9.60188 6.29509 9.75994 6.19343 9.95784 6.09797C10.0229 6.06657 10.0995 6.02124 10.1671 5.97413C10.2927 5.88651 10.5508 5.67489 10.6639 5.56687C11.036 5.21112 11.3284 4.79993 11.5225 4.35947C11.5823 4.2239 11.6017 4.19489 11.6935 4.10246C11.7782 4.01729 11.8709 3.93842 12.0787 3.77489C12.3443 3.56583 12.4445 3.47081 12.5454 3.33227L12.5991 3.25872L12.7673 3.22578C13.084 3.16374 13.454 3.07188 13.5597 3.02899C13.5913 3.01616 13.7075 2.96321 13.8178 2.91131C14.0382 2.80764 14.1758 2.75498 14.2949 2.7286C14.3599 2.71422 14.4032 2.71031 14.5537 2.70523C14.8413 2.69553 15.0382 2.67804 15.3037 2.63866C15.4519 2.61667 15.4253 2.61326 15.7036 2.69002C15.8885 2.74102 16.1549 2.82724 16.2878 2.87906C16.3945 2.92072 16.5518 3.01606 16.7193 3.1407C17.1542 3.46431 17.4783 3.93258 17.6015 4.41545C17.6325 4.53723 17.7398 4.77157 17.8485 4.95487C18.0102 5.22767 18.1853 5.45563 18.6412 5.98651C18.9009 6.28914 19.0186 6.43187 19.1244 6.57263C19.3368 6.85492 19.4876 7.10806 19.5854 7.34602C19.605 7.39371 19.6537 7.48695 19.6937 7.55322C20.0593 8.16008 20.5285 8.72193 21.0844 9.21849C21.1677 9.29297 21.2237 9.35941 21.2839 9.45553C21.3952 9.63319 21.462 9.83231 21.5355 10.2046C21.5785 10.4223 21.6025 10.5279 21.6352 10.642C21.6641 10.7438 21.6643 10.744 21.7167 10.8003C21.8534 10.9467 21.883 11.1002 21.7898 11.1789C21.7577 11.2061 21.6967 11.2303 21.6602 11.2303C21.645 11.2303 21.6443 11.234 21.6488 11.2911C21.6513 11.3244 21.6684 11.4107 21.6869 11.4827C21.7053 11.5547 21.7245 11.6422 21.7296 11.6769C21.7462 11.7914 21.725 11.8942 21.6685 11.9727C21.6533 11.9938 21.627 12.05 21.6098 12.0976C21.4676 12.4932 21.2676 12.9098 21.0087 13.3493C20.9481 13.4524 20.8867 13.5568 20.8722 13.5815C20.8157 13.6784 20.6924 13.7551 20.5933 13.7551C20.5521 13.7551 20.5427 13.7524 20.516 13.7326C20.4727 13.7005 20.4578 13.6659 20.443 13.5639C20.4359 13.5145 20.4192 13.4149 20.4061 13.3424C20.3704 13.1457 20.3571 13.0478 20.3515 12.9401C20.3407 12.7312 20.388 12.5574 20.4916 12.4243C20.5371 12.366 20.5462 12.3431 20.574 12.2187C20.6124 12.0467 20.6282 11.8404 20.6183 11.6378C20.6091 11.4457 20.5686 11.2354 20.5076 11.0639C20.4776 10.9792 20.477 10.9748 20.4792 10.8801C20.4852 10.6286 20.4155 10.3985 20.2694 10.1882C20.2489 10.1586 20.2288 10.1327 20.2249 10.1306C20.2118 10.1238 20.1441 10.1838 20.1238 10.2202C20.0975 10.2675 20.081 10.3372 20.0653 10.4674C20.0582 10.5264 20.0452 10.5983 20.0365 10.6268C20.0175 10.6892 19.9949 10.8099 19.9671 10.998C19.8229 11.9708 19.8656 12.9146 20.0983 13.8904C20.1229 13.9934 20.1467 14.1058 20.1513 14.1401C20.1632 14.2293 20.1616 14.4158 20.1475 14.5778C20.1216 14.8768 20.1175 14.9744 20.1268 15.0828C20.1407 15.2452 20.1485 15.2707 20.2029 15.3308C20.3237 15.4644 20.3689 15.5933 20.368 15.8014C20.3675 15.9416 20.3557 16.0152 20.2877 16.3112C20.2631 16.418 20.2355 16.5537 20.2263 16.6129C20.2171 16.672 20.1987 16.7828 20.1853 16.8592C20.054 17.6097 20.1222 18.3812 20.3838 19.103C20.4109 19.1777 20.4239 19.2294 20.4342 19.3042C20.4614 19.4998 20.5132 19.7216 20.5783 19.9222L20.6108 20.0221L20.5855 20.0602C20.4709 20.2331 20.2809 20.3573 20.047 20.4122C19.9737 20.4294 19.9545 20.431 19.8271 20.4307C19.6753 20.4304 19.6306 20.4233 19.519 20.3819C19.4663 20.3624 19.4639 20.3622 19.3383 20.365C19.0532 20.3716 18.976 20.3693 18.9348 20.3535C18.8853 20.3345 18.8403 20.2958 18.8159 20.2517C18.7802 20.187 18.7929 20.0595 18.8472 19.9388C18.861 19.9083 18.9123 19.813 18.9611 19.727C19.0851 19.5093 19.1247 19.4007 19.1247 19.2799C19.1247 19.2594 19.1356 19.2072 19.1488 19.164C19.2345 18.8832 19.3137 18.5162 19.3543 18.2117C19.4413 17.5587 19.4248 16.9438 19.3021 16.2616C19.2624 16.0416 19.2526 15.9619 19.2191 15.5933C19.1753 15.1106 19.1439 14.9036 19.082 14.689C19.0576 14.6046 19.0535 14.5965 19.0031 14.5365C18.643 14.1071 18.4032 13.6794 18.2305 13.1587C18.2084 13.0918 18.1599 12.9701 18.1229 12.8881C17.9608 12.5294 17.7908 12.0699 17.6784 11.6864C17.6686 11.653 17.6583 11.6258 17.6555 11.6258C17.6527 11.6258 17.6442 11.6344 17.6368 11.6448C17.6294 11.6553 17.592 11.7078 17.5536 11.7616C17.1337 12.3494 16.8788 13.0085 16.7957 13.7205C16.7779 13.8733 16.7709 14.2524 16.7832 14.4002C16.7886 14.4632 16.7962 14.5787 16.8004 14.6569C16.8058 14.7577 16.8174 14.8537 16.8404 14.9863C16.8973 15.3152 16.9021 15.4218 16.8656 15.5516C16.8443 15.6274 16.7869 15.7254 16.7348 15.7747C16.7123 15.796 16.604 15.927 16.4939 16.0658C16.3838 16.2045 16.2218 16.4086 16.1337 16.5192C15.7065 17.0563 15.4924 17.4066 15.3579 17.7882C15.3014 17.9486 15.3682 18.0502 15.6138 18.1774C15.8368 18.293 15.887 18.3342 15.9589 18.4614C16.0925 18.6979 16.1807 18.9532 16.2212 19.2216C16.2358 19.3178 16.2471 19.5893 16.2384 19.6377C16.2329 19.6688 16.2324 19.6692 16.1736 19.6909C16.1409 19.7029 16.0662 19.7313 16.0075 19.754C15.7456 19.8553 15.5969 19.8727 15.4642 19.8174C15.3921 19.7874 15.3479 19.7422 15.2347 19.5822C15.0941 19.3833 14.7993 19.0101 14.7712 18.9954C14.7499 18.9844 14.7112 19.1079 14.6809 19.2833C14.6438 19.4985 14.6106 19.5784 14.5298 19.6463C14.4752 19.6923 14.4314 19.7117 14.2949 19.7504C13.9815 19.8391 13.6783 19.8801 13.3348 19.8802C13.1082 19.8802 12.9806 19.8705 12.7642 19.8368C12.6682 19.8219 12.6667 19.8214 12.6392 19.793C12.5279 19.6783 12.5673 19.5251 12.7447 19.3828C12.8522 19.2966 12.9113 19.2664 13.1215 19.1901C13.3451 19.1089 13.5476 18.9538 13.6791 18.7631C13.7162 18.7092 13.7854 18.5737 13.7856 18.5545C13.7856 18.5485 13.8026 18.5251 13.8234 18.5025C13.872 18.4497 13.8977 18.4066 13.9129 18.3523C13.9463 18.2328 13.9073 18.1153 13.8037 18.0232C13.7779 18.0002 13.7155 17.9411 13.6651 17.8919C13.5506 17.7801 13.2732 17.549 13.0997 17.4207C13.0274 17.3674 12.8389 17.2318 12.6808 17.1195C12.2388 16.8056 12.0721 16.6791 11.8757 16.5081C11.7657 16.4123 11.7249 16.3644 11.6668 16.2626C11.4887 15.9506 11.4732 15.5457 11.6178 14.9828C11.639 14.9003 11.649 14.8772 11.7019 14.7886C11.7688 14.6767 11.8123 14.5716 11.8439 14.4459C11.8759 14.3187 11.8804 14.1299 11.8553 13.976C11.8267 13.8008 11.8356 13.7297 11.9179 13.4758C11.9684 13.3203 11.9909 13.2338 11.9993 13.1644L12.0049 13.1181L11.965 13.1126C11.9033 13.1042 11.5734 13.1065 11.4816 13.1161C11.3291 13.1319 11.1811 13.157 11.0492 13.1894L11.0036 13.2006L10.9982 13.4067C10.9886 13.7705 10.9506 14.19 10.8983 14.5061C10.8878 14.5701 10.8852 14.5757 10.8529 14.6067C10.7718 14.6844 10.6627 14.8443 10.6126 14.9586C10.5636 15.0708 10.5382 15.1673 10.5246 15.2944C10.5158 15.376 10.5136 15.3829 10.483 15.4257C10.4442 15.48 10.424 15.5242 10.4042 15.5974C10.3916 15.6442 10.389 15.694 10.3863 15.9366C10.382 16.3324 10.382 16.3244 10.3889 16.5331C10.3939 16.683 10.3925 16.7433 10.382 16.8349C10.3505 17.1113 10.2726 17.3703 10.1455 17.621C10.075 17.7603 10.0133 17.9622 9.96281 18.2186C9.91538 18.4595 9.89597 18.6158 9.84694 19.1515C9.81525 19.4981 9.80156 19.6243 9.77681 19.7966C9.738 20.0666 9.66638 20.3732 9.63047 20.423C9.58134 20.4912 9.56981 20.5773 9.5835 20.7746C9.59963 21.008 9.58397 21.0801 9.50091 21.1559C9.44747 21.2047 9.39253 21.2297 9.25962 21.2659C8.95059 21.35 8.60768 21.3884 8.32152 21.371ZM14.6459 17.3364C14.6756 17.3245 14.7185 17.2762 14.7277 17.2441C14.7304 17.2345 14.7555 17.1971 14.7834 17.1608C15.0203 16.854 15.1835 16.5167 15.2681 16.1586C15.3051 16.0026 15.3203 15.8975 15.3314 15.7216C15.3397 15.5914 15.3387 15.552 15.3226 15.3504C15.2515 14.4637 15.1304 13.5724 14.9722 12.7705C14.9493 12.6547 14.9316 12.5834 14.924 12.577C14.9076 12.5632 14.8692 12.5768 14.8219 12.6136C14.7534 12.6668 14.7242 12.7412 14.6976 12.9296C14.6801 13.0528 14.667 13.1077 14.6435 13.1552C14.6223 13.1978 14.6012 13.2911 14.5783 13.443C14.5339 13.7374 14.4797 13.8503 14.3486 13.922C14.3053 13.9456 14.2912 13.9581 14.2752 13.9867C14.2295 14.0684 14.2038 14.1597 14.1844 14.3101C14.148 14.5916 14.128 14.6756 14.0773 14.7607L14.0469 14.8117L14.0601 14.899C14.0817 15.0434 14.0719 15.1456 14.0297 15.2155C13.9886 15.2836 13.9425 15.3059 13.8233 15.3154C13.6853 15.3264 13.6129 15.3702 13.4631 15.5333C13.418 15.5823 13.359 15.64 13.3319 15.6616C13.2377 15.7366 13.1002 15.9366 13.0616 16.0545C13.0349 16.1363 13.0367 16.2303 13.0663 16.3043C13.0925 16.3694 13.1155 16.4025 13.2063 16.5053C13.2432 16.5473 13.3311 16.655 13.4014 16.7447C13.5424 16.9245 13.634 17.0218 13.718 17.0811C13.8408 17.1679 13.9474 17.2052 14.1142 17.2201C14.2343 17.2308 14.2185 17.2268 14.3647 17.2844C14.4279 17.3093 14.4945 17.3336 14.5126 17.3385C14.5591 17.3509 14.6121 17.35 14.6459 17.3364Z" fill="white"/>
</g>
<defs>
<clipPath id="clip0_872_2737">
<rect width="24" height="24" fill="white"/>
</clipPath>
</defs>
</svg>
