<svg width="24" height="24" viewBox="0 0 24 24" fill="none" xmlns="http://www.w3.org/2000/svg">
<g clip-path="url(#clip0_872_2744)">
<path d="M18.375 0H5.625C2.5184 0 0 2.5184 0 5.625V18.375C0 21.4816 2.5184 24 5.625 24H18.375C21.4816 24 24 21.4816 24 18.375V5.625C24 2.5184 21.4816 0 18.375 0Z" fill="#F4F2ED"/>
<path d="M4.60856 9.39795H7.27181C8.0535 9.40451 8.61994 9.62989 8.97113 10.0737C9.32231 10.5175 9.43819 11.1237 9.31894 11.8923C9.27263 12.2434 9.16988 12.5879 9.01088 12.9258C8.85844 13.2636 8.64656 13.5683 8.37488 13.84C8.04356 14.1844 7.68919 14.4031 7.31156 14.4959C6.93394 14.5887 6.543 14.635 6.13894 14.635H4.94644L4.56881 16.5231H3.1875L4.60856 9.39795ZM5.77125 10.5308L5.175 13.5121C5.21475 13.5186 5.2545 13.522 5.29425 13.522C5.34056 13.522 5.38706 13.522 5.43338 13.522C6.06938 13.5286 6.59944 13.4658 7.02338 13.3332C7.44731 13.1941 7.73231 12.7105 7.878 11.8823C7.99725 11.1867 7.878 10.7858 7.52025 10.6799C7.16906 10.5739 6.72862 10.5243 6.19856 10.5308C6.11906 10.5374 6.04294 10.5408 5.97 10.5408C5.90381 10.5408 5.83425 10.5408 5.76131 10.5408L5.77125 10.5308Z" fill="black"/>
<path d="M10.8919 7.5H12.2633L11.8758 9.39806H13.108C13.7838 9.41138 14.2872 9.5505 14.6185 9.81544C14.9564 10.0804 15.0557 10.584 14.9166 11.3259L14.2508 14.6351H12.8596L13.4956 11.475C13.5617 11.1437 13.5419 10.9086 13.4359 10.7694C13.33 10.6303 13.1014 10.5608 12.7502 10.5608L11.6472 10.5508L10.8323 14.6351H9.46094L10.8919 7.5Z" fill="black"/>
<path d="M16.3898 9.39795H19.0531C19.8347 9.40451 20.4012 9.62989 20.7524 10.0737C21.1036 10.5175 21.2194 11.1237 21.1002 11.8923C21.0539 12.2434 20.9511 12.5879 20.7921 12.9258C20.6397 13.2636 20.4278 13.5683 20.1561 13.84C19.8248 14.1844 19.4704 14.4031 19.0928 14.4959C18.7152 14.5887 18.3242 14.635 17.9202 14.635H16.7277L16.3501 16.5231H14.9688L16.3898 9.39795ZM17.5525 10.5308L16.9562 13.5121C16.996 13.5186 17.0357 13.522 17.0755 13.522C17.1218 13.522 17.1683 13.522 17.2146 13.522C17.8506 13.5286 18.3807 13.4658 18.8046 13.3332C19.2286 13.1941 19.5136 12.7105 19.6592 11.8823C19.7785 11.1867 19.6593 10.7858 19.3015 10.6799C18.9503 10.5739 18.5099 10.5243 17.9798 10.5308C17.9003 10.5374 17.8242 10.5408 17.7512 10.5408C17.6851 10.5408 17.6155 10.5408 17.5426 10.5408L17.5525 10.5308Z" fill="black"/>
</g>
<defs>
<clipPath id="clip0_872_2744">
<rect width="24" height="24" fill="white"/>
</clipPath>
</defs>
</svg>
