<svg width="24" height="24" viewBox="0 0 24 24" fill="none" xmlns="http://www.w3.org/2000/svg">
<g clip-path="url(#clip0_872_2879)">
<path d="M18.375 0H5.625C2.5184 0 0 2.5184 0 5.625V18.375C0 21.4816 2.5184 24 5.625 24H18.375C21.4816 24 24 21.4816 24 18.375V5.625C24 2.5184 21.4816 0 18.375 0Z" fill="#F4F2ED"/>
<path d="M11.9324 2.71875C7.17249 2.71875 7.46974 4.78294 7.46974 4.78294L7.47504 6.92141H12.0173V7.56349H5.67087C5.67087 7.56349 2.625 7.21806 2.625 12.0208C2.625 16.8236 5.2835 16.6534 5.2835 16.6534H6.87011V14.4247C6.87011 14.4247 6.78459 11.7662 9.48619 11.7662H13.9913C13.9913 11.7662 16.5224 11.8071 16.5224 9.3199V5.20745C16.5224 5.20745 16.9067 2.71875 11.9324 2.71875ZM9.42778 4.15678C9.87975 4.15678 10.245 4.52204 10.245 4.97396C10.245 5.42588 9.87975 5.79115 9.42778 5.79115C8.97587 5.79115 8.61061 5.42588 8.61061 4.97396C8.61061 4.52204 8.97587 4.15678 9.42778 4.15678Z" fill="url(#paint0_linear_872_2879)"/>
<path d="M12.0676 21.3711C16.8275 21.3711 16.5303 19.307 16.5303 19.307L16.525 17.1684H11.9827V16.5264H18.3292C18.3292 16.5264 21.375 16.8718 21.375 12.069C21.375 7.26621 18.7166 7.43654 18.7166 7.43654H17.1299V9.66526C17.1299 9.66526 17.2154 12.3237 14.5138 12.3237H10.0088C10.0088 12.3237 7.47759 12.2828 7.47759 14.7699V18.8824C7.47759 18.8824 7.09329 21.3711 12.0676 21.3711ZM14.5722 19.933C14.1203 19.933 13.755 19.5678 13.755 19.1159C13.755 18.6639 14.1203 18.2987 14.5722 18.2987C15.0241 18.2987 15.3895 18.6639 15.3895 19.1159C15.3895 19.5678 15.0241 19.933 14.5722 19.933Z" fill="url(#paint1_linear_872_2879)"/>
</g>
<defs>
<linearGradient id="paint0_linear_872_2879" x1="4.42687" y1="4.3965" x2="13.7187" y2="13.5956" gradientUnits="userSpaceOnUse">
<stop stop-color="#387EB8"/>
<stop offset="1" stop-color="#366994"/>
</linearGradient>
<linearGradient id="paint1_linear_872_2879" x1="10.1303" y1="10.3036" x2="20.1086" y2="19.7364" gradientUnits="userSpaceOnUse">
<stop stop-color="#FFE052"/>
<stop offset="1" stop-color="#FFC331"/>
</linearGradient>
<clipPath id="clip0_872_2879">
<rect width="24" height="24" fill="white"/>
</clipPath>
</defs>
</svg>
