<svg width="24" height="24" viewBox="0 0 24 24" fill="none" xmlns="http://www.w3.org/2000/svg">
<g clip-path="url(#clip0_872_2891)">
<path d="M18.375 0H5.625C2.5184 0 0 2.5184 0 5.625V18.375C0 21.4816 2.5184 24 5.625 24H18.375C21.4816 24 24 21.4816 24 18.375V5.625C24 2.5184 21.4816 0 18.375 0Z" fill="#F4F2ED"/>
<mask id="mask0_872_2891" style="mask-type:luminance" maskUnits="userSpaceOnUse" x="2" y="4" width="20" height="16">
<path d="M21.375 4.78125H2.625V19.3099H21.375V4.78125Z" fill="white"/>
</mask>
<g mask="url(#mask0_872_2891)">
<path fill-rule="evenodd" clip-rule="evenodd" d="M11.9858 17.3659C6.82894 17.3659 2.64844 14.5661 2.64844 11.1124C2.64844 7.65867 6.82894 4.85889 11.9858 4.85889C17.1427 4.85889 21.3231 7.65867 21.3231 11.1124C21.3231 14.5661 17.1427 17.3659 11.9858 17.3659ZM13.415 7.30379C9.49536 7.30379 6.31785 9.21785 6.31785 11.5789C6.31785 13.94 9.49536 15.8541 13.415 15.8541C17.3347 15.8541 20.2274 14.5455 20.2274 11.5789C20.2274 8.61332 17.3347 7.30379 13.415 7.30379Z" fill="url(#paint0_linear_872_2891)"/>
<path fill-rule="evenodd" clip-rule="evenodd" d="M16.868 14.5447C16.868 14.5447 17.4331 14.7152 17.7615 14.8813C17.8754 14.939 18.0725 15.054 18.2146 15.2051C18.354 15.353 18.4218 15.5029 18.4218 15.5029L20.649 19.2581L17.0493 19.2597L15.366 16.0985C15.366 16.0985 15.0212 15.5063 14.8091 15.3345C14.6322 15.1913 14.5567 15.1403 14.3818 15.1403C14.2601 15.1403 13.5265 15.1403 13.5265 15.1403L13.5271 19.2574L10.3418 19.2587V8.74194H16.7385C16.7385 8.74194 19.652 8.79449 19.652 11.5664C19.652 14.3383 16.868 14.5447 16.868 14.5447ZM15.4825 11.0232L13.554 11.0219L13.5531 12.8102L15.4825 12.8096C15.4825 12.8096 16.3759 12.8067 16.3759 11.8999C16.3759 10.9748 15.4825 11.0232 15.4825 11.0232Z" fill="url(#paint1_linear_872_2891)"/>
</g>
</g>
<defs>
<linearGradient id="paint0_linear_872_2891" x1="2.64842" y1="4.85891" x2="14.2136" y2="22.1274" gradientUnits="userSpaceOnUse">
<stop stop-color="#CBCED0"/>
<stop offset="1" stop-color="#84838B"/>
</linearGradient>
<linearGradient id="paint1_linear_872_2891" x1="10.3418" y1="8.74193" x2="20.8574" y2="19.0471" gradientUnits="userSpaceOnUse">
<stop stop-color="#276DC3"/>
<stop offset="1" stop-color="#165CAA"/>
</linearGradient>
<clipPath id="clip0_872_2891">
<rect width="24" height="24" fill="white"/>
</clipPath>
</defs>
</svg>
