<svg width="24" height="24" viewBox="0 0 24 24" fill="none" xmlns="http://www.w3.org/2000/svg">
<g clip-path="url(#clip0_872_2944)">
<path d="M18.375 0H5.625C2.5184 0 0 2.5184 0 5.625V18.375C0 21.4816 2.5184 24 5.625 24H18.375C21.4816 24 24 21.4816 24 18.375V5.625C24 2.5184 21.4816 0 18.375 0Z" fill="#F4F2ED"/>
<path d="M4.11887 11.9957C4.11589 13.0362 4.25792 14.0726 4.54135 15.0788C4.82644 16.0593 5.24616 17.0011 5.79003 17.8808C5.83458 17.9546 5.86626 18.0347 5.88391 18.1179C5.90103 18.1783 5.90103 18.2419 5.88391 18.3023C5.86437 18.3527 5.83217 18.3979 5.79003 18.4342L5.65859 18.5307L4.87934 18.9699C4.48433 18.4103 4.13593 17.8229 3.83721 17.2132C3.55691 16.6455 3.32461 16.0582 3.14246 15.4565C2.96276 14.8813 2.83093 14.294 2.74814 13.6997C2.58395 12.4925 2.58395 11.2705 2.74814 10.0633C2.83093 9.46903 2.96276 8.88173 3.14246 8.30655C3.3254 7.70513 3.55768 7.1178 3.83721 6.54982C4.13516 6.0012 4.47398 5.47287 4.85118 4.96875L5.63042 5.41672L5.76186 5.51333C5.80346 5.55 5.83558 5.59507 5.85574 5.64509C5.87286 5.70554 5.87286 5.7691 5.85574 5.82955C5.8378 5.91268 5.80612 5.9927 5.76186 6.06671C4.67274 7.87586 4.10646 9.91931 4.11887 11.9957ZM7.29219 15.0788C7.28971 14.9013 7.32481 14.7252 7.39547 14.5605C7.46271 14.4038 7.56152 14.2607 7.68651 14.1389C7.88521 13.9527 8.13894 13.8264 8.41503 13.7763C8.69113 13.7262 8.97693 13.7546 9.23562 13.8578C9.57384 13.9922 9.84309 14.2441 9.98672 14.5605C10.0621 14.7242 10.1004 14.9006 10.0994 15.0788C10.1007 15.257 10.0624 15.4334 9.98672 15.597C9.91547 15.7538 9.81356 15.8968 9.68625 16.0186C9.55753 16.1394 9.40434 16.235 9.23562 16.2997C8.88038 16.4345 8.483 16.4345 8.12778 16.2997C7.96168 16.2353 7.8115 16.1395 7.68651 16.0186C7.55796 15.8939 7.45697 15.7467 7.38931 15.5855C7.32164 15.4241 7.28864 15.252 7.29219 15.0788ZM17.4318 10.9328L16.9249 11.7585L15.2818 10.8802L14.9626 10.6781C14.8674 10.6132 14.7821 10.5363 14.7091 10.4497C14.7902 10.6637 14.8222 10.8911 14.803 11.1173V12.874H13.8641V11.1173C13.8587 10.8903 13.8968 10.6642 13.9768 10.4497C13.8287 10.6243 13.6432 10.7678 13.4323 10.8713L11.7987 11.7498L11.2917 10.9241L12.9159 10.0457C13.1324 9.92194 13.3709 9.83569 13.6201 9.79097C13.3684 9.76041 13.1275 9.67622 12.9159 9.54506L11.2354 8.6579L11.7424 7.83223L13.3853 8.71059L13.6952 8.9214C13.7892 8.99095 13.8743 9.07055 13.9487 9.15856C13.8736 8.94043 13.8449 8.71067 13.8641 8.48222V6.72548H14.803V8.48222C14.8116 8.5992 14.8116 8.71658 14.803 8.83357C14.7875 8.94251 14.7559 9.04892 14.7091 9.14978C14.8659 8.97758 15.0533 8.83198 15.2631 8.71938L16.8967 7.84101L17.4037 8.66667L15.7794 9.54506L15.4415 9.70313C15.3339 9.74766 15.2201 9.77719 15.1035 9.79097C15.2187 9.81084 15.3318 9.84028 15.4415 9.87881C15.5599 9.92353 15.6731 9.9795 15.7794 10.0457L17.4318 10.9328ZM19.8446 11.9957C19.8474 10.9552 19.7054 9.91884 19.4222 8.91262C19.142 7.90958 18.7255 6.9443 18.1829 6.04036C18.1387 5.96634 18.107 5.88633 18.089 5.8032C18.0735 5.74257 18.0735 5.67937 18.089 5.61874C18.1078 5.56808 18.1402 5.52275 18.1829 5.48699L18.3143 5.39036L19.1217 4.96875C19.5115 5.52985 19.8567 6.11701 20.1545 6.72548C20.4342 7.2934 20.6664 7.88074 20.8492 8.48222C21.0291 9.05737 21.1609 9.64472 21.2436 10.239C21.3262 10.8215 21.3701 11.4082 21.375 11.9957C21.3731 12.583 21.3323 13.1697 21.2529 13.7525C21.1703 14.3467 21.0384 14.934 20.8586 15.5092C20.6767 16.1108 20.4443 16.6983 20.1638 17.2659C19.8663 17.8745 19.5211 18.4616 19.1311 19.0226L18.3425 18.5834L18.211 18.4868C18.168 18.4513 18.1357 18.4059 18.1172 18.355C18.1012 18.2945 18.1012 18.2312 18.1172 18.1706C18.1348 18.0874 18.1665 18.0073 18.211 17.9334C18.7492 17.0409 19.1626 16.0874 19.4409 15.0963C19.7191 14.0836 19.8547 13.0413 19.8446 11.9957Z" fill="#3366CC"/>
</g>
<defs>
<clipPath id="clip0_872_2944">
<rect width="24" height="24" fill="white"/>
</clipPath>
</defs>
</svg>
