<svg width="24" height="24" viewBox="0 0 24 24" fill="none" xmlns="http://www.w3.org/2000/svg">
<g clip-path="url(#clip0_872_3011)">
<path d="M18.375 0H5.625C2.5184 0 0 2.5184 0 5.625V18.375C0 21.4816 2.5184 24 5.625 24H18.375C21.4816 24 24 21.4816 24 18.375V5.625C24 2.5184 21.4816 0 18.375 0Z" fill="#E43717"/>
<path d="M21.2413 11.7704L20.4548 11.2831C20.4481 11.2064 20.4406 11.1299 20.4323 11.0538L21.1096 10.4231C21.1784 10.359 21.2092 10.264 21.1906 10.1722C21.1725 10.08 21.1078 10.0041 21.0199 9.97162L20.1544 9.64913C20.1327 9.57422 20.1099 9.49988 20.0867 9.42516L20.626 8.67626C20.6811 8.60011 20.6923 8.50103 20.6565 8.41468C20.6206 8.32814 20.5423 8.26615 20.4504 8.25092L19.5383 8.10258C19.5029 8.03342 19.466 7.96534 19.4287 7.89832L19.8122 7.05626C19.8514 6.97062 19.8433 6.87172 19.791 6.79289C19.7389 6.71477 19.6506 6.66908 19.5563 6.67267L18.6299 6.70492C18.5821 6.64507 18.5333 6.58578 18.4837 6.52755L18.6969 5.62635C18.7184 5.5348 18.6914 5.43823 18.6248 5.37194C18.5586 5.30565 18.4626 5.27824 18.3702 5.29973L17.469 5.51294C17.4106 5.46349 17.3513 5.41458 17.2913 5.36675L17.3237 4.44047C17.3272 4.34677 17.2815 4.25772 17.2034 4.20577C17.1251 4.15344 17.026 4.14556 16.94 4.18444L16.0996 4.56786C16.0317 4.53059 15.9637 4.49368 15.8954 4.45803L15.7466 3.54608C15.7316 3.45363 15.6696 3.37516 15.5828 3.34004C15.4963 3.30403 15.3966 3.31567 15.3213 3.3705L14.5723 3.90979C14.4984 3.88631 14.4243 3.86374 14.3501 3.84224L14.0275 2.97688C13.9947 2.88873 13.9188 2.82405 13.8269 2.80578C13.7347 2.78768 13.6405 2.81832 13.576 2.88676L12.9453 3.564C12.8692 3.55558 12.7925 3.54787 12.716 3.5416L12.2286 2.75328C12.1793 2.67355 12.092 2.625 11.9974 2.625C11.9028 2.625 11.8164 2.67355 11.7681 2.75328L11.2807 3.5416C11.204 3.54787 11.1273 3.55558 11.0513 3.564L10.4206 2.88676C10.3567 2.81832 10.2617 2.78768 10.1697 2.80578C10.0775 2.82423 10.0014 2.88873 9.969 2.97688L9.6465 3.84224C9.57159 3.86374 9.49744 3.88649 9.42431 3.90979L8.67532 3.3705C8.59917 3.3155 8.49991 3.30385 8.41372 3.34004C8.32718 3.37587 8.265 3.45435 8.24994 3.54608L8.10122 4.45803C8.03242 4.49368 7.96432 4.5304 7.89696 4.56786L7.05658 4.18444C6.97111 4.14538 6.87203 4.15344 6.79318 4.20577C6.71506 4.25772 6.66937 4.34677 6.67295 4.44047L6.7052 5.36675C6.64536 5.41458 6.58604 5.46349 6.52745 5.51294L5.62615 5.29973C5.53459 5.27842 5.43801 5.30565 5.37172 5.37194C5.30506 5.43841 5.278 5.53426 5.2995 5.62635L5.51093 6.52755C5.46166 6.58596 5.41293 6.64507 5.36508 6.70492L4.4387 6.67267C4.34535 6.66998 4.25593 6.71477 4.20397 6.79289C4.15164 6.87065 4.14377 6.97026 4.18265 7.05626L4.5661 7.89832C4.52883 7.96587 4.49192 8.03395 4.45627 8.10258L3.54422 8.25092C3.45158 8.26598 3.37345 8.32796 3.33816 8.41468C3.30232 8.50158 3.31396 8.60101 3.36862 8.67626L3.90796 9.42516C3.88448 9.49913 3.86173 9.57347 3.84022 9.64913L2.97477 9.97162C2.88697 10.0044 2.82228 10.0804 2.80401 10.1722C2.78573 10.2644 2.81637 10.3586 2.885 10.4231L3.56231 11.0538C3.55389 11.1299 3.54637 11.2066 3.53992 11.2831L2.7533 11.7704C2.67356 11.8197 2.625 11.9067 2.625 12.0015C2.625 12.0963 2.67356 12.1825 2.7533 12.2309L3.53992 12.7182C3.54637 12.7949 3.55389 12.8714 3.56231 12.9475L2.885 13.5782C2.81637 13.6421 2.78573 13.7371 2.80401 13.829C2.82228 13.9213 2.88697 13.9971 2.97477 14.0297L3.84022 14.3522C3.86173 14.4271 3.88448 14.5014 3.90796 14.5762L3.36862 15.325C3.31378 15.4013 3.30214 15.5004 3.33816 15.5866C3.37417 15.6735 3.45248 15.7355 3.54601 15.7504L4.45806 15.8987C4.49371 15.9679 4.53026 16.0359 4.56789 16.103L4.18444 16.9432C4.14538 17.0287 4.15344 17.1278 4.20577 17.2066C4.25809 17.2849 4.34714 17.3306 4.4405 17.3268L5.36508 17.2944C5.41328 17.3546 5.46185 17.4135 5.5113 17.4721L5.29986 18.3733C5.27836 18.4647 5.30542 18.5597 5.37207 18.626C5.43819 18.6928 5.53441 18.7194 5.62651 18.698L6.52781 18.4866C6.5864 18.5363 6.64571 18.5847 6.70556 18.6324L6.6733 19.5587C6.66972 19.6523 6.71542 19.7414 6.79354 19.7933C6.8713 19.8455 6.97093 19.8534 7.05694 19.8143L7.89731 19.4309C7.96505 19.4686 8.03314 19.5051 8.10158 19.5408L8.2503 20.4527C8.26536 20.5455 8.32735 20.624 8.41408 20.6605C8.50062 20.6965 8.60043 20.6849 8.67569 20.6302L9.42469 20.091C9.49866 20.1144 9.573 20.1374 9.64866 20.1589L9.97116 21.0242C10.004 21.112 10.0799 21.1771 10.1719 21.195C10.2639 21.2136 10.3583 21.1828 10.4228 21.114L11.0535 20.4368C11.1296 20.4456 11.2063 20.4529 11.2828 20.4597L11.7702 21.2462C11.8193 21.3256 11.9065 21.3745 11.9995 21.3745C12.0925 21.3745 12.1806 21.3258 12.2307 21.2462L12.7181 20.4597C12.7948 20.4529 12.8713 20.4456 12.9474 20.4368L13.5782 21.114C13.6421 21.1828 13.7371 21.2136 13.8291 21.195C13.9213 21.1769 13.9972 21.112 14.0297 21.0242L14.3523 20.1589C14.4271 20.1374 14.5015 20.1144 14.5763 20.091L15.3252 20.6302C15.4013 20.6849 15.5006 20.6965 15.5868 20.6605C15.6735 20.6249 15.7356 20.5462 15.7506 20.4527L15.8993 19.5408C15.9682 19.5051 16.0362 19.468 16.1036 19.4309L16.944 19.8143C17.0294 19.8534 17.1285 19.8455 17.2073 19.7933C17.2854 19.741 17.331 19.6523 17.3276 19.5587L17.2954 18.6324C17.3552 18.5845 17.4145 18.5363 17.4729 18.4866L18.3742 18.698C18.4657 18.7194 18.5623 18.6928 18.6287 18.626C18.6953 18.5595 18.7223 18.464 18.7009 18.3733L18.4894 17.4721C18.5389 17.4135 18.5876 17.3546 18.6353 17.2944L19.5617 17.3268C19.655 17.3306 19.7444 17.2849 19.7963 17.2066C19.8487 17.1285 19.8568 17.029 19.8175 16.9432L19.4341 16.103C19.4715 16.0351 19.5082 15.9669 19.5438 15.8987L20.4558 15.7504C20.5486 15.7355 20.6267 15.6735 20.6618 15.5866C20.6977 15.5001 20.6864 15.4003 20.6314 15.325L20.092 14.5762C20.1154 14.5021 20.1381 14.4277 20.1598 14.3522L21.0252 14.0297C21.1132 13.9967 21.178 13.9209 21.196 13.829C21.2146 13.7369 21.1838 13.6427 21.115 13.5782L20.4377 12.9475C20.4459 12.8714 20.4534 12.7947 20.4601 12.7182L21.2467 12.2309C21.3264 12.1818 21.375 12.0945 21.375 12.0015C21.375 11.9086 21.3266 11.8206 21.2468 11.7704H21.2413ZM15.9733 18.3099C15.6723 18.2451 15.4823 17.948 15.5468 17.647C15.6112 17.346 15.907 17.1543 16.2081 17.2188C16.5091 17.2831 16.7008 17.5807 16.6363 17.8817C16.5718 18.1827 16.2761 18.3744 15.9751 18.3099H15.9733ZM15.7063 16.5004C15.4322 16.4416 15.1616 16.6161 15.1042 16.8909L14.8248 18.1952C13.9628 18.5858 12.997 18.8044 11.9936 18.8044C10.9615 18.8044 9.98681 18.5768 9.10878 18.1684L8.82924 16.864C8.77047 16.5899 8.50134 16.4143 8.22719 16.4735L7.07503 16.7207C6.86181 16.5004 6.66292 16.2656 6.48014 16.0184H12.0886C12.1521 16.0184 12.1943 16.007 12.1943 15.9492V13.9605C12.1943 13.9028 12.1521 13.8914 12.0886 13.8914H10.4491V12.6354H12.2212C12.383 12.6354 13.0867 12.6817 13.3106 13.5814C13.381 13.8573 13.5364 14.7567 13.6421 15.0452C13.7475 15.3677 14.1761 16.0127 14.6331 16.0127H17.4283C17.46 16.0127 17.4938 16.009 17.5296 16.0027C17.336 16.266 17.1228 16.515 16.8953 16.748L15.7162 16.4953L15.7063 16.5004ZM7.94767 18.283C7.64663 18.3479 7.35097 18.1562 7.28647 17.8548C7.22214 17.5538 7.41334 17.2564 7.71472 17.1919C8.01576 17.1276 8.31141 17.3193 8.37592 17.6201C8.44024 17.9212 8.24888 18.2185 7.94767 18.283ZM5.81537 9.66525C5.94008 9.9465 5.81322 10.2762 5.53226 10.4016C5.25095 10.5264 4.92304 10.3995 4.79761 10.1185C4.67218 9.83756 4.79976 9.50756 5.08072 9.38212C5.36204 9.25747 5.68994 9.38428 5.81537 9.66525ZM5.16135 11.2133L6.36188 10.6793C6.61811 10.5655 6.73459 10.2654 6.61991 10.0092L6.37264 9.45028H7.34381V13.8218H5.39071C5.22066 13.2234 5.1291 12.5928 5.1291 11.9407C5.1291 11.6916 5.14253 11.4461 5.16833 11.2043L5.16135 11.2133ZM10.4294 10.7886V9.49866H12.7408C12.8603 9.49866 13.5848 9.63675 13.5848 10.1777C13.5848 10.6273 13.0293 10.7886 12.5724 10.7886H10.4222H10.4294ZM18.8331 11.9496C18.8331 12.1208 18.8268 12.29 18.8143 12.4584H18.1101C18.0397 12.4584 18.0113 12.5047 18.0113 12.5736V12.8961C18.0113 13.6557 17.5831 13.8224 17.2068 13.8636C16.8485 13.9039 16.4525 13.7138 16.4041 13.4945C16.1926 12.3067 15.8414 12.054 15.2859 11.6133C15.9758 11.1761 16.6926 10.5293 16.6926 9.66037C16.6926 8.72696 16.0529 8.1393 15.6174 7.85085C15.0047 7.44773 14.3273 7.36711 14.1445 7.36711H6.86969C7.85699 6.26705 9.19909 5.48588 10.7042 5.19922L11.5626 6.09863C11.7561 6.30109 12.0768 6.31004 12.2811 6.11512L13.2414 5.19779C15.2483 5.57225 16.9506 6.82281 17.9361 8.54815L17.2785 10.0316C17.1651 10.2878 17.2808 10.5889 17.5365 10.7017L18.8016 11.2642C18.8234 11.4882 18.8348 11.7157 18.8348 11.9451L18.8331 11.9496ZM11.5583 4.44262C11.7804 4.22941 12.1334 4.23837 12.3448 4.46071C12.5563 4.68288 12.5491 5.03583 12.3263 5.24903C12.1042 5.46224 11.7512 5.45328 11.5398 5.23076C11.3284 5.00859 11.3355 4.65564 11.5583 4.44244V4.44262ZM18.0805 9.69216C18.205 9.41081 18.5338 9.28362 18.8152 9.40903C19.0965 9.53372 19.2237 9.86409 19.0983 10.1454C18.9738 10.4267 18.6449 10.5539 18.3637 10.4285C18.0823 10.3038 17.9551 9.97341 18.0805 9.69216Z" fill="white"/>
</g>
<defs>
<clipPath id="clip0_872_3011">
<rect width="24" height="24" fill="white"/>
</clipPath>
</defs>
</svg>
