<svg width="24" height="24" viewBox="0 0 24 24" fill="none" xmlns="http://www.w3.org/2000/svg">
<g clip-path="url(#clip0_872_3021)">
<path d="M18.375 0H5.625C2.5184 0 0 2.5184 0 5.625V18.375C0 21.4816 2.5184 24 5.625 24H18.375C21.4816 24 24 21.4816 24 18.375V5.625C24 2.5184 21.4816 0 18.375 0Z" fill="#F4F2ED"/>
<path fill-rule="evenodd" clip-rule="evenodd" d="M6.11133 9.60194C6.27488 9.82741 7.65401 10.2527 9.71119 10.6955C11.7684 11.0898 13.9078 12.6467 15.5717 12.1666C16.6971 11.8413 17.918 8.94245 17.918 8.51191V8.46771C17.918 8.16713 17.6925 7.92578 17.3097 7.7251C15.7405 6.92326 15.4434 6.62798 14.8617 6.788C11.8418 7.62167 6.51004 7.19555 6.11133 9.60194Z" fill="#380D09"/>
<path fill-rule="evenodd" clip-rule="evenodd" d="M6.11133 15.4879C6.27488 15.7169 7.65401 16.1386 9.71119 16.5824C12.0097 17.0014 14.0086 18.3673 15.6733 17.8864C16.7987 17.561 17.918 14.8294 17.918 14.3979V14.3554C17.918 14.0558 17.6925 13.8136 17.3097 13.6138C16.1127 12.9772 14.5311 12.2762 13.9503 12.4362C10.9251 13.268 6.88134 13.451 6.11133 15.4879Z" fill="#380D09"/>
<path fill-rule="evenodd" clip-rule="evenodd" d="M15.6685 3.76279C12.8872 4.56639 8.47489 5.01992 6.09766 5.01992V9.55959C6.09842 9.57516 6.10432 9.59006 6.11446 9.60197C7.73671 9.60197 12.7449 9.07156 15.7666 8.24054C16.2936 8.10641 16.8103 7.93476 17.3128 7.7269C17.6824 7.5607 17.921 7.38565 17.921 7.20354V2.625C17.9175 3.05642 16.7939 3.43834 15.6685 3.76279Z" fill="#DE3423"/>
<path fill-rule="evenodd" clip-rule="evenodd" d="M15.6685 9.64979C14.0038 10.1298 11.7574 10.487 9.71079 10.6956C8.33698 10.8362 7.05333 10.9095 6.09766 10.9095V15.4456C6.09842 15.4613 6.10432 15.4762 6.11446 15.4881C7.73671 15.4881 12.7449 14.9576 15.7666 14.1275C16.2934 13.9929 16.8102 13.8214 17.3128 13.6138C17.6824 13.4468 17.921 13.2727 17.921 13.0905V8.51196C17.9175 8.9425 16.7939 9.32441 15.6685 9.64979Z" fill="#DE3423"/>
<path fill-rule="evenodd" clip-rule="evenodd" d="M15.6681 15.5401C14.0034 16.0202 11.7571 16.3764 9.71041 16.586C8.33484 16.7265 7.04942 16.7999 6.09375 16.7999V21.3749C7.6992 21.3749 12.733 20.8489 15.7627 20.0143C16.8793 19.7067 17.9172 19.3566 17.9172 18.9764V14.3979C17.9172 14.8329 16.7935 15.2112 15.6681 15.5401Z" fill="#DE3423"/>
</g>
<defs>
<clipPath id="clip0_872_3021">
<rect width="24" height="24" fill="white"/>
</clipPath>
</defs>
</svg>
