<svg width="24" height="24" viewBox="0 0 24 24" fill="none" xmlns="http://www.w3.org/2000/svg">
<g clip-path="url(#clip0_872_3144)">
<path d="M18.375 0H5.625C2.5184 0 0 2.5184 0 5.625V18.375C0 21.4816 2.5184 24 5.625 24H18.375C21.4816 24 24 21.4816 24 18.375V5.625C24 2.5184 21.4816 0 18.375 0Z" fill="#F05138"/>
<path d="M19.0009 14.8164C19.0234 14.7258 19.046 14.6353 19.0687 14.5449C20.064 10.5864 17.6436 5.88137 13.5268 3.41577C15.3364 5.85875 16.1281 8.82199 15.4268 11.4007C15.3589 11.6269 15.2911 11.8531 15.2006 12.0793C15.1101 12.0115 14.9971 11.9436 14.8387 11.8757C14.8387 11.8757 10.7445 9.34225 6.31091 4.88608C6.19781 4.77298 8.68602 8.43744 11.4909 11.4007C10.1564 10.6542 6.46925 7.96243 4.11675 5.83613C4.41081 6.31116 4.75012 6.78618 5.11204 7.21596C7.05737 9.70418 9.61347 12.7579 12.6672 15.1104C10.5183 16.4224 7.48716 16.5355 4.47867 15.1104C3.73221 14.7711 3.03099 14.3413 2.375 13.8663C3.64173 15.9021 5.60968 17.6665 8.00741 18.707C10.8575 19.9285 13.7077 19.8607 15.8114 18.7296C15.8114 18.7296 15.834 18.7296 15.834 18.707C15.9244 18.6618 16.015 18.5939 16.1055 18.5487C17.1233 18.0284 19.1139 17.5081 20.1997 19.5892C20.5164 20.0642 21.0819 17.3498 19.0009 14.8164Z" fill="white"/>
</g>
<defs>
<clipPath id="clip0_872_3144">
<rect width="24" height="24" fill="white"/>
</clipPath>
</defs>
</svg>
