<svg width="24" height="24" viewBox="0 0 24 24" fill="none" xmlns="http://www.w3.org/2000/svg">
<g clip-path="url(#clip0_872_3175)">
<path d="M18.375 0H5.625C2.5184 0 0 2.5184 0 5.625V18.375C0 21.4816 2.5184 24 5.625 24H18.375C21.4816 24 24 21.4816 24 18.375V5.625C24 2.5184 21.4816 0 18.375 0Z" fill="#007ACC"/>
<path d="M5.30645 12.0796L5.29883 13.0625H6.86073H8.42263V17.5006V21.9386H9.52743H10.6322V17.5006V13.0625H12.1941H13.7559V12.0986C13.7559 11.5653 13.7446 11.1196 13.7293 11.1081C13.7179 11.093 11.8169 11.0853 9.51215 11.0891L5.31788 11.1006L5.30645 12.0796Z" fill="white"/>
<path d="M19.3665 11.0727C19.9759 11.2251 20.4408 11.4956 20.8674 11.9374C21.0884 12.1737 21.4159 12.6042 21.4427 12.707C21.4503 12.7375 20.4064 13.4384 19.7741 13.8308C19.7512 13.8461 19.6597 13.747 19.5569 13.5946C19.2483 13.1451 18.9245 12.9507 18.4293 12.9165C17.7017 12.8669 17.2331 13.2479 17.2369 13.8841C17.2369 14.0708 17.2636 14.1812 17.3398 14.3336C17.4997 14.6651 17.7969 14.8632 18.7303 15.2669C20.4483 16.0061 21.1835 16.4936 21.6408 17.1869C22.1512 17.9603 22.2655 19.1946 21.9188 20.1127C21.5379 21.1107 20.5931 21.7888 19.2635 22.0136C18.8522 22.086 17.8769 22.0746 17.435 21.9946C16.4712 21.8231 15.5569 21.347 14.9931 20.7222C14.7722 20.4784 14.3417 19.8422 14.3684 19.7965C14.3797 19.7813 14.4788 19.7203 14.5893 19.6556C14.6959 19.5946 15.0998 19.3622 15.4807 19.1412L16.1703 18.7412L16.315 18.9546C16.5169 19.2631 16.9588 19.686 17.2255 19.8269C17.9912 20.2308 19.0427 20.1736 19.5607 19.7089C19.7817 19.507 19.8731 19.2974 19.8731 18.9889C19.8731 18.7107 19.8388 18.5889 19.694 18.3793C19.5074 18.1127 19.1265 17.8879 18.0445 17.4193C16.8064 16.886 16.2731 16.5546 15.7855 16.0288C15.5036 15.7241 15.2369 15.2365 15.1264 14.8288C15.035 14.4898 15.0122 13.6403 15.0845 13.2974C15.3397 12.1013 16.2426 11.267 17.5455 11.0193C17.9684 10.9393 18.9512 10.9698 19.3665 11.0727Z" fill="white"/>
</g>
<defs>
<clipPath id="clip0_872_3175">
<rect width="24" height="24" fill="white"/>
</clipPath>
</defs>
</svg>
