<svg width="24" height="24" viewBox="0 0 24 24" fill="none" xmlns="http://www.w3.org/2000/svg">
<g clip-path="url(#clip0_872_3195)">
<path d="M18.375 0H5.625C2.5184 0 0 2.5184 0 5.625V18.375C0 21.4816 2.5184 24 5.625 24H18.375C21.4816 24 24 21.4816 24 18.375V5.625C24 2.5184 21.4816 0 18.375 0Z" fill="url(#paint0_linear_872_3195)"/>
<path opacity="0.15" d="M12.2799 2.625C11.5998 2.625 10.9172 2.71139 10.2346 2.88156C9.56203 3.04287 8.91268 3.27288 8.28699 3.57158C7.67368 3.85994 7.08877 4.20883 6.54041 4.6134C6.53957 4.61409 6.53873 4.61479 6.53789 4.61548C6.01405 5.00378 5.53353 5.45093 5.10516 5.9487C5.10414 5.95008 5.10313 5.95147 5.10214 5.95285C4.70366 6.42399 4.37282 6.95187 4.11977 7.52027C4.11892 7.52217 4.11808 7.52408 4.11726 7.52599C3.87783 8.07827 3.75273 8.67611 3.75 9.28124C3.75 9.75581 3.80542 10.1773 3.93791 10.5479C3.93922 10.5516 3.94056 10.5551 3.94194 10.5588C4.07897 10.9178 4.28451 11.2316 4.55503 11.4695C4.55737 11.4715 4.55972 11.4737 4.56208 11.4757C4.83413 11.7067 5.16057 11.8681 5.52329 11.9685C5.52714 11.9696 5.531 11.9707 5.53487 11.9716C5.88852 12.0607 6.27694 12.1027 6.70363 12.1027C6.83929 12.1027 6.9694 12.0472 7.06538 11.9481C7.16135 11.8491 7.21534 11.7147 7.21547 11.5746C7.21547 11.3789 7.14896 11.2436 7.08146 11.1322L7.10514 11.1759C7.0772 11.1129 7.05232 11.0485 7.03058 10.9829C7.03058 10.9823 7.02957 10.9829 7.02957 10.9819C6.99381 10.8615 6.96387 10.7394 6.9399 10.6161C6.91274 10.4028 6.90062 10.1878 6.90363 9.97284C6.90363 8.74161 7.17668 7.76276 7.70362 6.98063C8.10513 6.39206 8.66079 5.95963 9.30059 5.60004L9.64866 20.8588C9.65184 20.9968 9.70716 21.1282 9.80278 21.2245C9.8985 21.321 10.0268 21.375 10.1605 21.375H13.4502C13.5545 21.375 13.6563 21.3422 13.742 21.2808C13.8278 21.2194 13.8932 21.1325 13.9298 21.0315L20.2743 3.45346C20.3031 3.37356 20.3127 3.28765 20.3023 3.20308C20.292 3.11851 20.2621 3.03776 20.215 2.96774C20.168 2.89772 20.1052 2.84049 20.0321 2.80093C19.959 2.76137 19.8777 2.74063 19.7952 2.74052H18.2013C18.0947 2.74047 17.9907 2.7748 17.904 2.83871C17.8172 2.90261 17.7518 2.99291 17.7172 3.09699L13.8638 14.6755L13.7056 3.19274C13.7037 3.06305 13.6558 2.93858 13.571 2.84302C13.486 2.74745 13.3701 2.68745 13.2452 2.67443C13.0886 2.65827 12.9317 2.64612 12.7747 2.638H12.7736C12.6092 2.6294 12.4446 2.62524 12.2799 2.62552V2.625Z" fill="#201C2C"/>
<path opacity="0.3" d="M10.1609 20.8464L9.79313 4.73162C8.72248 5.14619 7.88622 5.79494 7.28437 6.67786C6.68924 7.56113 6.39168 8.65931 6.39168 9.9724C6.39168 10.2718 6.40662 10.5176 6.43652 10.7098C6.47346 10.8941 6.51057 11.0437 6.54785 11.1589C6.58513 11.2664 6.61872 11.3509 6.64861 11.4123C6.68555 11.4737 6.70402 11.5275 6.70402 11.5736C6.31007 11.5736 5.96079 11.5353 5.65617 11.4586C5.35122 11.374 5.09463 11.2434 4.8864 11.0667C4.68557 10.8906 4.52939 10.6564 4.4179 10.3643C4.31378 10.0729 4.26172 9.71205 4.26172 9.28186C4.26172 8.75975 4.36936 8.24526 4.58465 7.7384C4.80765 7.2319 5.10874 6.75192 5.48791 6.29849C5.87447 5.84577 6.32435 5.42738 6.83753 5.04333C7.35809 4.65929 7.9119 4.32902 8.49898 4.05252C9.09343 3.7684 9.71035 3.54965 10.3498 3.39631C10.9967 3.23464 11.6398 3.15381 12.2793 3.15381C12.4503 3.15381 12.6064 3.15762 12.7478 3.16526C12.8963 3.1729 13.0447 3.18434 13.1932 3.19961L13.3942 17.7131L18.2002 3.2683H19.7946L13.45 20.8469H10.1604L10.1609 20.8464Z" fill="#201C2C"/>
<path d="M10.1609 20.3259L9.79313 4.21111C8.72248 4.62569 7.88622 5.27443 7.28437 6.15735C6.68924 7.04062 6.39168 8.13881 6.39168 9.45187C6.39168 9.75131 6.40662 9.99712 6.43652 10.1893C6.47346 10.3735 6.51057 10.5232 6.54785 10.6384C6.58513 10.7459 6.61872 10.8304 6.64861 10.8918C6.68555 10.9532 6.70402 11.007 6.70402 11.0531C6.31007 11.0531 5.96079 11.0148 5.65617 10.9382C5.35122 10.8535 5.09463 10.7228 4.8864 10.5463C4.68557 10.3701 4.52939 10.1359 4.4179 9.84374C4.31378 9.55237 4.26172 9.19154 4.26172 8.76135C4.26172 8.23924 4.36936 7.72475 4.58465 7.21789C4.80765 6.71139 5.10874 6.23142 5.48791 5.77798C5.87447 5.32526 6.32435 4.90687 6.83753 4.52283C7.35809 4.13878 7.9119 3.80851 8.49898 3.53202C9.09343 3.24789 9.71035 3.02914 10.3498 2.8758C10.9967 2.71414 11.6398 2.6333 12.2793 2.6333C12.4503 2.6333 12.6064 2.63712 12.7478 2.64476C12.8963 2.65239 13.0447 2.66384 13.1932 2.67911L13.3942 17.1926L18.2002 2.74779H19.7946L13.45 20.3264H10.1604L10.1609 20.3259Z" fill="white"/>
</g>
<defs>
<linearGradient id="paint0_linear_872_3195" x1="12" y1="0" x2="12" y2="24" gradientUnits="userSpaceOnUse">
<stop stop-color="#AD65D6"/>
<stop offset="1" stop-color="#7B37B2"/>
</linearGradient>
<clipPath id="clip0_872_3195">
<rect width="24" height="24" fill="white"/>
</clipPath>
</defs>
</svg>
