<svg width="24" height="24" viewBox="0 0 24 24" fill="none" xmlns="http://www.w3.org/2000/svg">
<g clip-path="url(#clip0_872_3238)">
<mask id="mask0_872_3238" style="mask-type:luminance" maskUnits="userSpaceOnUse" x="0" y="0" width="24" height="24">
<path d="M18.375 0H5.625C2.5184 0 0 2.5184 0 5.625V18.375C0 21.4816 2.5184 24 5.625 24H18.375C21.4816 24 24 21.4816 24 18.375V5.625C24 2.5184 21.4816 0 18.375 0Z" fill="white"/>
</mask>
<g mask="url(#mask0_872_3238)">
<path d="M14.7451 0C14.7451 0.042353 14.7451 0.0847058 14.7451 0.129412C14.7451 1.64941 13.5129 2.88117 11.9933 2.88117C10.4734 2.88117 9.24157 1.64902 9.24157 0.129412C9.24157 0.0847058 9.24157 0.042353 9.24157 0H0V24H24V0H14.7451Z" fill="#654FF0"/>
<path d="M5.57422 12.9338H7.1648L8.25069 18.717H8.27029L9.57541 12.9338H11.0632L12.242 18.788H12.2652L13.5029 12.9338H15.0629L13.0358 21.4314H11.4574L10.2883 15.6483H10.2577L9.00637 21.4314H7.39853L5.57422 12.9338ZM16.8561 12.9338H19.3637L21.8539 21.4314H20.213L19.6714 19.5405H16.815L16.3969 21.4314H14.7989L16.8561 12.9338ZM17.8107 15.0283L17.1169 18.146H19.2762L18.4797 15.0283H17.8107Z" fill="white"/>
</g>
</g>
<defs>
<clipPath id="clip0_872_3238">
<rect width="24" height="24" fill="white"/>
</clipPath>
</defs>
</svg>
