<svg width="24" height="24" viewBox="0 0 24 24" fill="none" xmlns="http://www.w3.org/2000/svg">
<g clip-path="url(#clip0_872_3279)">
<path d="M18.375 0H5.625C2.5184 0 0 2.5184 0 5.625V18.375C0 21.4816 2.5184 24 5.625 24H18.375C21.4816 24 24 21.4816 24 18.375V5.625C24 2.5184 21.4816 0 18.375 0Z" fill="#F4F2ED"/>
<path d="M8.63614 6.73901L6.65086 9.16548L5.6582 7.62136L8.63614 6.73901Z" fill="#F7A41D"/>
<path d="M8.63602 6.73901L7.2022 7.95224L6.65074 9.16548H5.98898V14.7905H6.98162L5.76838 15.3419L4.88602 17.2169H3.5625V6.73901H8.63602Z" fill="#F7A41D"/>
<path d="M6.98185 14.7905L4.88625 17.217L4.00391 16.0037L6.98185 14.7905Z" fill="#F7A41D"/>
<path d="M9.73814 6.73901L10.3999 8.28313L7.64258 9.16549L9.73814 6.73901Z" fill="#F7A41D"/>
<path d="M9.73814 6.73901H15.8043V9.16549H7.64258L9.73814 7.84196V6.73901Z" fill="#F7A41D"/>
<path d="M16.356 14.7905L14.2604 17.217L13.4883 15.7832L16.356 14.7905Z" fill="#F7A41D"/>
<path d="M16.357 14.7905L14.5924 15.7832L14.2614 17.217H8.19531V14.7905H16.357Z" fill="#F7A41D"/>
<path d="M20.1058 4.3125L9.29699 17.2169L3.89258 19.7537L14.7014 6.73897L20.1058 4.3125Z" fill="#F7A41D"/>
<path d="M19.1132 6.73901L19.0028 8.7243L17.0176 9.27578L19.1132 6.73901Z" fill="#F7A41D"/>
<path d="M20.4377 6.73901V17.2169H15.2539L16.7981 15.8935L17.3495 14.7905H18.0113V9.27578H17.0187L18.1215 8.28313L19.1143 6.73901H20.4377Z" fill="#F7A41D"/>
<path d="M17.3495 14.7905L17.9009 16.4449L15.2539 17.217L17.3495 14.7905Z" fill="#F7A41D"/>
</g>
<defs>
<clipPath id="clip0_872_3279">
<rect width="24" height="24" fill="white"/>
</clipPath>
</defs>
</svg>
