<svg width="32" height="32" viewBox="0 0 32 32" fill="none" xmlns="http://www.w3.org/2000/svg">
<path fill-rule="evenodd" clip-rule="evenodd" d="M21.558 6.78713C21.5581 6.14181 21.3787 5.50918 21.04 4.9599C20.7013 4.41062 20.2166 3.96631 19.6399 3.67661C19.0633 3.38691 18.4175 3.26321 17.7746 3.31935C17.1317 3.37548 16.5171 3.60923 15.9994 3.99448L7.00076 10.6913H3.48066C2.55753 10.6913 1.67221 11.058 1.01946 11.7107C0.366711 12.3635 0 13.2488 0 14.1719V17.8313C0 18.7544 0.366711 19.6397 1.01946 20.2925C1.67221 20.9452 2.55753 21.3119 3.48066 21.3119H7.00076L15.9994 28.0087C16.5171 28.394 17.1317 28.6277 17.7746 28.6838C18.4175 28.74 19.0633 28.6163 19.6399 28.3266C20.2166 28.0369 20.7013 27.5926 21.04 27.0433C21.3787 26.494 21.5581 25.8614 21.558 25.216V6.78713ZM19.2376 6.78713V25.216C19.2376 25.4315 19.1776 25.6427 19.0643 25.826C18.951 26.0093 18.789 26.1574 18.5962 26.2538C18.4035 26.3501 18.1878 26.3909 17.9732 26.3716C17.7586 26.3522 17.5536 26.2735 17.3812 26.1442L8.07744 19.2212C7.87662 19.0706 7.63235 18.9892 7.38131 18.9892H3.48066C3.17295 18.9892 2.87784 18.8669 2.66026 18.6493C2.44267 18.4318 2.32044 18.1366 2.32044 17.8289V14.1719C2.32044 13.8642 2.44267 13.5691 2.66026 13.3515C2.87784 13.1339 3.17295 13.0117 3.48066 13.0117H7.38479C7.63583 13.0117 7.8801 12.9303 8.08092 12.7797L17.3882 5.85432C17.5606 5.72504 17.7655 5.64631 17.9801 5.62696C18.1947 5.60761 18.4105 5.6484 18.6032 5.74476C18.7959 5.84112 18.958 5.98924 19.0713 6.17253C19.1846 6.35581 19.2446 6.56702 19.2446 6.78249L19.2376 6.78713Z" fill="black"/>
<path fill-rule="evenodd" clip-rule="evenodd" d="M24.3948 13.2174C24.8081 13.5255 25.1438 13.9258 25.375 14.3866C25.6063 14.8474 25.7267 15.3558 25.7267 15.8714C25.7267 16.3869 25.6063 16.8953 25.375 17.3561C25.1438 17.8169 24.8081 18.2173 24.3948 18.5254C24.2729 18.6168 24.1702 18.7313 24.0925 18.8624C24.0149 18.9935 23.9639 19.1386 23.9423 19.2895C23.9208 19.4403 23.9292 19.5939 23.967 19.7415C24.0048 19.8891 24.0713 20.0278 24.1627 20.1497C24.2541 20.2716 24.3687 20.3743 24.4998 20.4519C24.6309 20.5295 24.776 20.5806 24.9268 20.6021C25.0776 20.6236 25.2312 20.6153 25.3788 20.5775C25.5264 20.5396 25.6651 20.4731 25.787 20.3817C26.4892 19.8575 27.0594 19.1767 27.4522 18.3934C27.8449 17.6101 28.0495 16.7459 28.0495 15.8696C28.0495 14.9933 27.8449 14.1292 27.4522 13.3459C27.0594 12.5625 26.4892 11.8817 25.787 11.3575C25.6651 11.2661 25.5264 11.1996 25.3788 11.1618C25.2312 11.124 25.0776 11.1156 24.9268 11.1371C24.776 11.1587 24.6309 11.2097 24.4998 11.2874C24.3687 11.365 24.2541 11.4677 24.1627 11.5896C24.0713 11.7115 24.0048 11.8502 23.967 11.9978C23.9292 12.1454 23.9208 12.299 23.9423 12.4498C23.9639 12.6006 24.0149 12.7457 24.0925 12.8768C24.1702 13.0079 24.2729 13.1225 24.3948 13.2139V13.2174Z" fill="black"/>
<path fill-rule="evenodd" clip-rule="evenodd" d="M25.1734 9.19715C26.5044 9.73485 27.6444 10.658 28.4472 11.8481C29.25 13.0382 29.6789 14.441 29.6789 15.8765C29.6789 17.3121 29.25 18.7149 28.4472 19.905C27.6444 21.0951 26.5044 22.0182 25.1734 22.5559C25.0311 22.6123 24.9014 22.6963 24.7918 22.8031C24.6821 22.9098 24.5947 23.0372 24.5345 23.1779C24.4743 23.3186 24.4425 23.4698 24.441 23.6228C24.4394 23.7758 24.4682 23.9276 24.5256 24.0695C24.583 24.2113 24.6679 24.3404 24.7753 24.4493C24.8828 24.5583 25.0108 24.6448 25.1519 24.7041C25.293 24.7633 25.4444 24.7941 25.5974 24.7946C25.7504 24.7951 25.9021 24.7653 26.0435 24.707C27.803 23.9959 29.31 22.7754 30.3711 21.2021C31.4323 19.6287 31.9992 17.7743 31.9992 15.8765C31.9992 13.9788 31.4323 12.1243 30.3711 10.551C29.31 8.97762 27.803 7.75715 26.0435 7.0461C25.7588 6.93315 25.4409 6.9374 25.1592 7.05793C24.8776 7.17846 24.6551 7.40549 24.5402 7.68948C24.4253 7.97347 24.4274 8.29137 24.546 8.57382C24.6646 8.85627 24.8901 9.08034 25.1734 9.19715Z" fill="black"/>
</svg>
