<svg width="24" height="24" viewBox="0 0 24 24" fill="none" xmlns="http://www.w3.org/2000/svg">
<path d="M15.0345 15.0001H16.9455C16.9555 15.1201 16.9605 15.2451 16.9605 15.3751C16.9637 15.9291 16.847 16.4772 16.6183 16.9818C16.3897 17.4865 16.0546 17.9357 15.636 18.2986C15.21 18.6736 14.695 18.9676 14.091 19.1806C13.431 19.4023 12.7382 19.5103 12.042 19.5001C11.0951 19.509 10.1565 19.3239 9.28397 18.956C8.41146 18.5881 7.62359 18.0453 6.969 17.3611C6.679 16.9731 6.679 16.6111 6.969 16.2751C7.259 15.9411 7.6265 15.8761 8.0715 16.0801C8.5865 16.6241 9.193 17.0621 9.891 17.3941C10.59 17.7241 11.3145 17.8891 12.0645 17.8891C13.0205 17.8891 13.763 17.6726 14.292 17.2396C14.822 16.8046 15.087 16.2346 15.087 15.5296C15.0885 15.3518 15.0714 15.1743 15.036 15.0001M8.379 10.5001C8.20269 10.2647 8.05467 10.0095 7.938 9.73958C7.7529 9.29616 7.66247 8.81897 7.6725 8.33858C7.6725 7.79458 7.7865 7.28708 8.0145 6.81608C8.2425 6.34508 8.559 5.93708 8.964 5.59208C9.369 5.24708 9.8465 4.97858 10.3965 4.78658C10.9833 4.59024 11.5988 4.4934 12.2175 4.50008C13.0845 4.50008 13.886 4.66508 14.622 4.99508C15.357 5.32708 15.982 5.75758 16.497 6.28658C16.737 6.70958 16.737 7.05558 16.497 7.32458C16.257 7.59458 15.926 7.64558 15.504 7.47758C15.0775 7.05979 14.581 6.72013 14.037 6.47408C13.4637 6.22364 12.843 6.09982 12.2175 6.11108C11.4075 6.11108 10.7565 6.29858 10.2645 6.67358C9.7725 7.04858 9.5265 7.56658 9.5265 8.22758C9.5265 8.58158 9.5965 8.87958 9.7365 9.12158C9.8745 9.36458 10.0615 9.57758 10.2975 9.76058C10.5335 9.94458 10.791 10.1066 11.07 10.2466C11.249 10.3366 11.43 10.4211 11.613 10.5001H8.379ZM3.75 12.0001H20.25C20.4489 12.0001 20.6397 12.0791 20.7803 12.2197C20.921 12.3604 21 12.5512 21 12.7501C21 12.949 20.921 13.1398 20.7803 13.2804C20.6397 13.4211 20.4489 13.5001 20.25 13.5001H3.75C3.55109 13.5001 3.36032 13.4211 3.21967 13.2804C3.07902 13.1398 3 12.949 3 12.7501C3 12.5512 3.07902 12.3604 3.21967 12.2197C3.36032 12.0791 3.55109 12.0001 3.75 12.0001Z" fill="#171717"/>
</svg>
