<svg width="24" height="24" viewBox="0 0 24 24" fill="none" xmlns="http://www.w3.org/2000/svg">
<path d="M16.56 8.94L7.62 0L6.21 1.41L8.59 3.79L3.44 8.94C3.29971 9.07859 3.18833 9.24364 3.1123 9.4256C3.03628 9.60756 2.99714 9.8028 2.99714 10C2.99714 10.1972 3.03628 10.3924 3.1123 10.5744C3.18833 10.7564 3.29971 10.9214 3.44 11.06L8.94 16.56C9.23 16.85 9.62 17 10 17C10.38 17 10.77 16.85 11.06 16.56L16.56 11.06C17.15 10.48 17.15 9.53 16.56 8.94ZM5.21 10L10 5.21L14.79 10H5.21ZM19 11.5C19 11.5 17 13.67 17 15C17 16.1 17.9 17 19 17C20.1 17 21 16.1 21 15C21 13.67 19 11.5 19 11.5ZM2 20H22V24H2V20Z" fill="black"/>
</svg>
