<svg width="24" height="24" viewBox="0 0 24 24" fill="none" xmlns="http://www.w3.org/2000/svg">
<path d="M12.4796 3.00015L7.72955 7.75015L2.99955 12.5901C2.62705 12.9649 2.41797 13.4718 2.41797 14.0001C2.41797 14.5285 2.62705 15.0354 2.99955 15.4101L7.29955 19.7101C7.48581 19.8949 7.73721 19.999 7.99955 20.0001H19.9996V18.0001H12.9996L20.2196 10.7801C20.4055 10.5944 20.553 10.3738 20.6537 10.131C20.7543 9.88823 20.8061 9.62798 20.8061 9.36515C20.8061 9.10232 20.7543 8.84206 20.6537 8.59927C20.553 8.35647 20.4055 8.13589 20.2196 7.95015L15.3096 3.00015C15.1238 2.81419 14.9032 2.66668 14.6604 2.56603C14.4176 2.46538 14.1574 2.41357 13.8946 2.41357C13.6317 2.41357 13.3715 2.46538 13.1287 2.56603C12.8859 2.66668 12.6653 2.81419 12.4796 3.00015ZM8.40955 18.0001L4.40955 14.0001L9.15955 9.16015L9.89955 8.41015L14.8496 13.3601L10.2896 17.9201L10.2196 18.0001H8.40955Z" fill="black"/>
</svg>
