<svg width="19" height="24" viewBox="0 0 19 24" fill="none" xmlns="http://www.w3.org/2000/svg">
<path d="M18.4956 7C18.4957 6.62924 18.4133 6.26311 18.2544 5.92812C18.0955 5.59313 17.8641 5.29768 17.5769 5.06316C17.2898 4.82864 16.954 4.66093 16.594 4.57218C16.2341 4.48342 15.8588 4.47585 15.4956 4.55V4C15.4958 3.6144 15.4068 3.23397 15.2356 2.88847C15.0644 2.54297 14.8156 2.24175 14.5086 2.00838C14.2016 1.77501 13.8449 1.61581 13.4661 1.54323C13.0874 1.47065 12.6971 1.48666 12.3256 1.59C12.1412 1.12203 11.8205 0.720239 11.4051 0.436729C10.9896 0.153218 10.4986 0.00106567 9.99558 0C8.76558 0 7.74558 0.89 7.53558 2.06C7.17033 1.9792 6.7916 1.98139 6.42731 2.06643C6.06301 2.15146 5.72245 2.31716 5.43071 2.55132C5.13898 2.78547 4.90351 3.08211 4.74167 3.41937C4.57982 3.75663 4.49573 4.12592 4.49558 4.5V10.39C4.15558 10.08 3.73558 9.85 3.27558 9.73L2.50558 9.52C1.67558 9.29 0.805579 9.61 0.315579 10.35C-0.0644214 10.92 -0.0844213 11.66 0.165579 12.3L2.72558 18.73C3.34312 20.2861 4.4142 21.6207 5.79976 22.5605C7.18532 23.5002 8.82139 24.0018 10.4956 24C14.9156 24 18.4956 20.42 18.4956 16V7ZM16.4956 16C16.4956 19.31 13.8056 22 10.4956 22C7.88558 22 5.54558 20.41 4.58558 17.99L1.98558 11.45L2.51558 11.59C2.97558 11.71 3.34558 12.05 3.51558 12.49L4.49558 15H6.49558V4.5C6.49558 4.22 6.71558 4 6.99558 4C7.27558 4 7.49558 4.22 7.49558 4.5V12H9.49558V2.5C9.49558 2.22 9.71558 2 9.99558 2C10.2756 2 10.4956 2.22 10.4956 2.5V12H12.4956V4C12.4956 3.72 12.7156 3.5 12.9956 3.5C13.2756 3.5 13.4956 3.72 13.4956 4V12H15.4956V7C15.4956 6.72 15.7156 6.5 15.9956 6.5C16.2756 6.5 16.4956 6.72 16.4956 7V16Z" fill="black"/>
</svg>
