<svg width="24" height="24" viewBox="0 0 24 24" fill="none" xmlns="http://www.w3.org/2000/svg">
<path d="M20.25 19.5H18.75C18.75 18.609 19.1827 17.9932 19.5637 17.451C19.932 16.9275 20.25 16.476 20.25 15.75C20.25 14.5095 19.2405 13.5 18 13.5C16.7595 13.5 15.75 14.5095 15.75 15.75C15.75 16.4752 16.068 16.9275 16.4363 17.451C16.8173 17.9925 17.25 18.609 17.25 19.5H15.75C15.75 19.1025 15.555 18.8047 15.2085 18.3135C14.7825 17.706 14.25 16.95 14.25 15.75C14.25 13.6822 15.9323 12 18 12C20.0677 12 21.75 13.6822 21.75 15.75C21.75 16.95 21.2183 17.706 20.7915 18.3135C20.445 18.8047 20.25 19.1025 20.25 19.5ZM20.25 21H15.75V22.5H20.25V21ZM20.793 9.74998H12.2078L16.5 2.23798L20.793 9.74998ZM14.793 8.24998H18.207L16.5 5.26198L14.793 8.24998ZM6.75 10.5C4.68225 10.5 3 8.81773 3 6.74998C3 4.68223 4.68225 2.99998 6.75 2.99998C8.81775 2.99998 10.5 4.68223 10.5 6.74998C10.5 8.81773 8.81775 10.5 6.75 10.5ZM6.75 4.49998C5.5095 4.49998 4.5 5.50948 4.5 6.74998C4.5 7.99048 5.5095 8.99998 6.75 8.99998C7.9905 8.99998 9 7.99048 9 6.74998C9 5.50948 7.9905 4.49998 6.75 4.49998ZM12 20.25H4.5V12.75H12V20.25ZM6 18.75H10.5V14.25H6V18.75Z" fill="black"/>
</svg>
