<svg width="24" height="24" viewBox="0 0 24 24" fill="none" xmlns="http://www.w3.org/2000/svg">
<path d="M15.89 12.5L19.287 10.94C21.096 10.108 22 9.692 22 9C22 8.308 21.096 7.891 19.287 7.06L14.394 4.813C13.214 4.271 12.624 4 12 4C11.376 4 10.786 4.271 9.606 4.813L4.713 7.061C2.904 7.89 2 8.307 2 9C2 9.693 2.904 10.109 4.713 10.94L8.11 12.5M12 19.5V9M15 17C14.41 17.607 12.84 20 12 20C11.16 20 9.59 17.607 9 17" stroke="black" stroke-width="1.5" stroke-linecap="round" stroke-linejoin="round"/>
</svg>
