<svg width="24" height="24" viewBox="0 0 24 24" fill="none" xmlns="http://www.w3.org/2000/svg">
<path d="M16.978 8L19.288 9.06C21.095 9.892 22 10.308 22 11C22 11.692 21.096 12.109 19.287 12.94L14.394 15.187C13.214 15.729 12.624 16 12 16C11.376 16 10.786 15.729 9.606 15.187L4.713 12.939C2.904 12.11 2 11.693 2 11C2 10.307 2.904 9.891 4.713 9.06L7.022 8M12 2.5V10M15 5C14.41 4.393 12.84 2 12 2C11.16 2 9.59 4.393 9 5" stroke="black" stroke-width="1.5" stroke-linecap="round" stroke-linejoin="round"/>
<path d="M20.233 15.5C21.41 16.062 22 16.44 22 17C22 17.693 21.096 18.109 19.287 18.94L14.394 21.187C13.214 21.729 12.624 22 12 22C11.376 22 10.786 21.73 9.606 21.187L4.713 18.94C2.904 18.11 2 17.694 2 17C2 16.44 2.59 16.062 3.767 15.5" stroke="black" stroke-width="1.5" stroke-linecap="round" stroke-linejoin="round"/>
</svg>
