<svg width="24" height="24" viewBox="0 0 24 24" fill="none" xmlns="http://www.w3.org/2000/svg">
<path d="M12 21.5V7M15 19C14.41 19.607 12.84 22 12 22C11.16 22 9.59 19.607 9 19M20.233 11.5C21.41 12.062 22 12.44 22 13C22 13.693 21.096 14.109 19.287 14.94L15.89 16.5M3.767 11.5C2.59 12.062 2 12.44 2 13C2 13.693 2.904 14.109 4.713 14.94L8.11 16.5M8.11 10.5L4.713 8.94C2.904 8.108 2 7.692 2 7C2 6.308 2.904 5.891 4.713 5.06L9.606 2.813C10.786 2.271 11.376 2 12 2C12.624 2 13.214 2.271 14.394 2.813L19.287 5.061C21.096 5.89 22 6.307 22 7C22 7.693 21.096 8.109 19.287 8.94L15.89 10.5" stroke="black" stroke-width="1.5" stroke-linecap="round" stroke-linejoin="round"/>
</svg>
