<svg width="24" height="24" viewBox="0 0 24 24" fill="none" xmlns="http://www.w3.org/2000/svg">
<path d="M15.89 11.5L19.287 13.06C21.096 13.892 22 14.308 22 15C22 15.692 21.096 16.109 19.287 16.94L14.394 19.187C13.214 19.729 12.624 20 12 20C11.376 20 10.786 19.729 9.606 19.187L4.713 16.939C2.904 16.11 2 15.693 2 15C2 14.307 2.904 13.891 4.713 13.06L8.11 11.5M12 4.5V15M15 7C14.41 6.393 12.84 4 12 4C11.16 4 9.59 6.393 9 7" stroke="black" stroke-width="1.5" stroke-linecap="round" stroke-linejoin="round"/>
</svg>
