<svg width="24" height="24" viewBox="0 0 24 24" fill="none" xmlns="http://www.w3.org/2000/svg">
<g clip-path="url(#clip0_872_1729)">
<path d="M18.375 0H5.625C2.5184 0 0 2.5184 0 5.625V18.375C0 21.4816 2.5184 24 5.625 24H18.375C21.4816 24 24 21.4816 24 18.375V5.625C24 2.5184 21.4816 0 18.375 0Z" fill="#F4F2ED"/>
<path d="M3.375 16.6312C3.375 16.7156 3.3 16.7719 3.23438 16.7719H2.2125C2.12813 16.7719 2.0625 16.7156 2.0625 16.6312V7.36875C2.0625 7.3125 2.1375 7.2375 2.2125 7.2375H3.225C3.3 7.2375 3.36563 7.3125 3.36563 7.36875L3.375 16.6312ZM6.02813 16.6312C6.02813 16.7156 5.95312 16.7719 5.8875 16.7719H4.875C4.79063 16.7719 4.725 16.7156 4.725 16.6312V7.36875C4.725 7.3125 4.8 7.2375 4.875 7.2375H5.8875C5.9625 7.2375 6.02813 7.3125 6.02813 7.36875V16.6312ZM8.68125 16.6312C8.68125 16.7156 8.60625 16.7719 8.54062 16.7719H7.52813C7.44375 16.7719 7.37812 16.7156 7.37812 16.6312V7.36875C7.37812 7.3125 7.45313 7.2375 7.52813 7.2375H8.54062C8.61562 7.2375 8.68125 7.3125 8.68125 7.36875V16.6312ZM11.3531 16.6312C11.3531 16.7156 11.2781 16.7719 11.2125 16.7719H10.2C10.1156 16.7719 10.05 16.7156 10.05 16.6312V7.36875C10.05 7.3125 10.125 7.2375 10.2 7.2375H11.2125C11.2875 7.2375 11.3531 7.3125 11.3531 7.36875V16.6312ZM21.7969 7.21875C21.8813 7.21875 21.9375 7.29375 21.9375 7.36875V8.40937C21.9375 8.49375 21.8813 8.56875 21.7969 8.56875H12.7875C12.7312 8.56875 12.6562 8.49375 12.6562 8.40937V7.36875C12.6562 7.29375 12.7312 7.21875 12.7875 7.21875H21.7969ZM21.7969 9.96563C21.8813 9.96563 21.9375 10.0406 21.9375 10.1156V11.1562C21.9375 11.2406 21.8813 11.3156 21.7969 11.3156H12.7875C12.7312 11.3156 12.6562 11.2406 12.6562 11.1562V10.1156C12.6562 10.0406 12.7312 9.96563 12.7875 9.96563H21.7969ZM21.7969 12.6937C21.8813 12.6937 21.9375 12.7688 21.9375 12.8438V13.8844C21.9375 13.9688 21.8813 14.0438 21.7969 14.0438H12.7875C12.7312 14.0438 12.6562 13.9688 12.6562 13.8844V12.8438C12.6562 12.7688 12.7312 12.6937 12.7875 12.6937H21.7969ZM21.7969 15.4219C21.8813 15.4219 21.9375 15.4969 21.9375 15.5719V16.6125C21.9375 16.6969 21.8813 16.7719 21.7969 16.7719H12.7875C12.7312 16.7719 12.6562 16.6969 12.6562 16.6125V15.5719C12.6562 15.4969 12.7312 15.4219 12.7875 15.4219H21.7969Z" fill="#1F2120"/>
</g>
<defs>
<clipPath id="clip0_872_1729">
<rect width="24" height="24" fill="white"/>
</clipPath>
</defs>
</svg>
