<svg width="24" height="24" viewBox="0 0 24 24" fill="none" xmlns="http://www.w3.org/2000/svg">
<g clip-path="url(#clip0_872_1735)">
<path d="M18.375 0H5.625C2.5184 0 0 2.5184 0 5.625V18.375C0 21.4816 2.5184 24 5.625 24H18.375C21.4816 24 24 21.4816 24 18.375V5.625C24 2.5184 21.4816 0 18.375 0Z" fill="#F4F2ED"/>
<path fill-rule="evenodd" clip-rule="evenodd" d="M12.8574 4.875L20.9988 10.8074V13.1734L12.8574 19.141V16.7752L19.3761 12.0081L12.8574 7.27622V4.875Z" fill="#F1027E"/>
<path fill-rule="evenodd" clip-rule="evenodd" d="M12.8574 9.64209L16.1028 12.0081L12.8574 14.3739V9.64209Z" fill="#F1027E"/>
<path fill-rule="evenodd" clip-rule="evenodd" d="M11.2351 4.875L3.09375 10.8074V13.1734L9.61247 8.44152V17.9405L11.2351 19.141V4.875ZM7.98977 12.0081L4.71643 14.3739L7.96178 16.7398V12.0081H7.98977Z" fill="#6D6D6D"/>
</g>
<defs>
<clipPath id="clip0_872_1735">
<rect width="24" height="24" fill="white"/>
</clipPath>
</defs>
</svg>
