<svg width="24" height="24" viewBox="0 0 24 24" fill="none" xmlns="http://www.w3.org/2000/svg">
<g clip-path="url(#clip0_872_1740)">
<path d="M18.375 0H5.625C2.5184 0 0 2.5184 0 5.625V18.375C0 21.4816 2.5184 24 5.625 24H18.375C21.4816 24 24 21.4816 24 18.375V5.625C24 2.5184 21.4816 0 18.375 0Z" fill="#00005B"/>
<path d="M9.85847 14.6362H6.13846L5.37845 16.9962C5.35846 17.0862 5.27845 17.1462 5.18845 17.1363H3.30845C3.19846 17.1363 3.16846 17.0763 3.19846 16.9563L6.41845 7.72625C6.44845 7.62625 6.47845 7.53625 6.51845 7.41625C6.55846 7.20625 6.57845 6.98625 6.57845 6.76625C6.56845 6.71625 6.60845 6.66625 6.65845 6.65625H6.68845H9.24845C9.31846 6.65625 9.36845 6.68625 9.37847 6.73625L13.0284 16.9362C13.0584 17.0463 13.0284 17.0962 12.9285 17.0962H10.8384C10.7685 17.1063 10.6985 17.0562 10.6785 16.9863L9.85847 14.5863V14.6362ZM6.71845 12.6462H9.25845C9.19845 12.4362 9.11845 12.1863 9.02845 11.9262C8.93845 11.6562 8.84845 11.3662 8.75845 11.0662C8.65846 10.7562 8.56845 10.4562 8.46845 10.1463C8.36845 9.83625 8.27845 9.54628 8.19845 9.25625C8.11846 8.97625 8.04845 8.71625 7.97845 8.47625H7.95845C7.86845 8.90625 7.75846 9.33625 7.61845 9.76622C7.46845 10.2462 7.31845 10.7463 7.15846 11.2462C7.02845 11.7562 6.86845 12.2262 6.71845 12.6462Z" fill="#9999FF"/>
<path d="M18.9183 13.7364H15.7483C15.7882 14.0464 15.8883 14.3563 16.0582 14.6263C16.2382 14.8963 16.4883 15.1063 16.7883 15.2263C17.1883 15.3964 17.6283 15.4864 18.0682 15.4764C18.4183 15.4663 18.7683 15.4363 19.1083 15.3664C19.4183 15.3264 19.7183 15.2464 19.9983 15.1363C20.0483 15.0964 20.0782 15.1164 20.0782 15.2164V16.7464C20.0782 16.7863 20.0683 16.8264 20.0583 16.8664C20.0383 16.8964 20.0183 16.9164 19.9883 16.9363C19.6683 17.0764 19.3383 17.1763 18.9883 17.2363C18.5183 17.3263 18.0483 17.3664 17.5683 17.3563C16.8083 17.3563 16.1683 17.2363 15.6483 17.0064C15.1583 16.7964 14.7283 16.4664 14.3883 16.0564C14.0683 15.6664 13.8383 15.2263 13.6983 14.7463C13.5583 14.2764 13.4883 13.7863 13.4883 13.2864C13.4883 12.7464 13.5683 12.2164 13.7383 11.6964C13.8983 11.1964 14.1483 10.7364 14.4883 10.3264C14.8183 9.92635 15.2283 9.60638 15.6982 9.37632C16.1683 9.14635 16.7283 9.06636 17.3683 9.06636C17.8983 9.05635 18.4282 9.15635 18.9183 9.37632C19.3282 9.55632 19.6882 9.82632 19.9683 10.1764C20.2282 10.5163 20.4383 10.8964 20.5683 11.3164C20.6983 11.7163 20.7583 12.1264 20.7583 12.5364C20.7583 12.7764 20.7483 12.9864 20.7383 13.1764C20.7183 13.3663 20.7082 13.5064 20.6983 13.5964C20.6883 13.6663 20.6283 13.7263 20.5582 13.7263C20.4982 13.7263 20.3883 13.7364 20.2283 13.7464C20.0683 13.7664 19.8783 13.7764 19.6483 13.7764C19.4183 13.7764 19.1782 13.7364 18.9183 13.7364ZM15.7483 12.2764H17.8583C18.1183 12.2764 18.3083 12.2764 18.4283 12.2664C18.5083 12.2563 18.5883 12.2364 18.6583 12.1864V12.0864C18.6583 11.9563 18.6383 11.8363 18.5983 11.7163C18.4183 11.1564 17.8882 10.7764 17.2983 10.7964C16.7483 10.7664 16.2283 11.0563 15.9683 11.5564C15.8483 11.7864 15.7783 12.0264 15.7483 12.2764Z" fill="#9999FF"/>
</g>
<defs>
<clipPath id="clip0_872_1740">
<rect width="24" height="24" fill="white"/>
</clipPath>
</defs>
</svg>
