<svg width="24" height="24" viewBox="0 0 24 24" fill="none" xmlns="http://www.w3.org/2000/svg">
<g clip-path="url(#clip0_872_1792)">
<path d="M18.375 0H5.625C2.5184 0 0 2.5184 0 5.625V18.375C0 21.4816 2.5184 24 5.625 24H18.375C21.4816 24 24 21.4816 24 18.375V5.625C24 2.5184 21.4816 0 18.375 0Z" fill="#242938"/>
<path d="M18.375 0H5.625C2.5184 0 0 2.5184 0 5.625V18.375C0 21.4816 2.5184 24 5.625 24H18.375C21.4816 24 24 21.4816 24 18.375V5.625C24 2.5184 21.4816 0 18.375 0Z" fill="url(#paint0_linear_872_1792)"/>
<path d="M8.99098 10.0173C8.83871 10.2522 8.69135 10.488 8.54931 10.7242C8.3939 10.2964 8.25745 9.87497 8.14117 9.46397C8.55436 9.40472 8.99357 9.35809 9.45647 9.32565C9.29933 9.55116 9.14392 9.78159 8.99098 10.0173ZM20.416 10.8453C19.9582 10.406 19.3038 10.0033 18.471 9.64856C16.8176 8.9445 14.6031 8.48825 12.235 8.36407C11.9495 8.34907 11.6707 8.33885 11.401 8.33339C13.2089 6.17547 14.955 5.02729 15.9718 4.98867C16.1872 4.98043 16.3679 5.02303 16.5096 5.11508C16.9854 5.42437 17.1175 6.38368 16.8627 7.68125C16.8126 7.93739 16.9794 8.1858 17.2355 8.23606C17.4917 8.28623 17.7401 8.11951 17.7904 7.86334C18.2283 5.6327 17.6156 4.70663 17.0247 4.32249C16.7164 4.12202 16.3498 4.02836 15.9359 4.04408C14.3719 4.10352 12.1803 5.77131 10.1805 8.34252C9.38878 8.36978 8.62551 8.43808 7.9115 8.54482C7.83314 8.18085 7.77259 7.82814 7.73155 7.49006C7.5522 6.01191 7.77218 4.96268 8.31989 4.6833C8.40795 4.63844 8.50405 4.61261 8.61393 4.60437C9.1033 4.56755 9.79387 4.89643 10.5571 5.53029C10.7579 5.69704 11.0559 5.66948 11.2228 5.46864C11.3895 5.26783 11.3619 4.96986 11.161 4.80311C10.1808 3.98899 9.30001 3.60488 8.54317 3.66175C8.30912 3.67931 8.08959 3.73972 7.89049 3.84123C7.38169 4.10071 7.03398 4.59758 6.85702 5.31803C6.70547 5.93497 6.68398 6.70407 6.79319 7.6039C6.83636 7.95976 6.8995 8.33012 6.98089 8.7114C6.42265 8.82904 5.90527 8.97245 5.44152 9.13998C3.4126 9.87281 2.9442 10.8389 2.90853 11.5204C2.87443 12.1713 3.20761 13.1399 4.98836 14.0582C5.22035 14.1779 5.50542 14.0867 5.62505 13.8547C5.7447 13.6228 5.65361 13.3377 5.42161 13.2181C4.39722 12.6898 3.8253 12.0891 3.85249 11.5697C3.89081 10.8381 5.11714 10.0638 7.20605 9.62747C7.39955 10.3262 7.64809 11.0521 7.94611 11.7881C7.19531 13.1974 6.64749 14.5864 6.36345 15.822C6.16043 16.7048 6.10111 17.4712 6.18708 18.1002C6.2875 18.8348 6.5813 19.365 7.06019 19.6763C7.30439 19.8351 7.63351 19.9592 8.06581 19.9592C8.69258 19.9591 9.53634 19.698 10.6516 18.9025C10.8641 18.7509 10.9136 18.4558 10.762 18.2433C10.6104 18.0308 10.3153 17.9814 10.1028 18.1329C9.00338 18.9171 8.05852 19.1978 7.57534 18.8838C7.06004 18.5489 6.95137 17.4834 7.28466 16.0337C7.50566 15.0725 7.90003 14.0071 8.43481 12.9089C8.55094 13.1575 8.67214 13.4062 8.7985 13.6544C9.87487 15.7688 11.1925 17.6084 12.5088 18.8344C13.1717 19.4517 13.8057 19.8864 14.3931 20.1263C14.7496 20.2719 15.0844 20.3447 15.3951 20.3447C15.6827 20.3447 15.9499 20.2823 16.1944 20.1576C16.6852 19.9073 17.0265 19.4352 17.2087 18.7546C17.3649 18.1716 17.4 17.4444 17.3132 16.5931C17.1422 14.9193 16.5097 12.878 15.5321 10.8449C15.4192 10.6098 15.1367 10.5108 14.9015 10.6238C14.6662 10.7369 14.5672 11.0194 14.6803 11.2545C15.6116 13.1915 16.2127 15.1215 16.3727 16.6891C16.5135 18.0678 16.2862 19.0497 15.765 19.3155C15.2176 19.5946 14.2413 19.1562 13.153 18.1427C11.9156 16.9902 10.6684 15.2438 9.64078 13.2257C9.40594 12.7642 9.18959 12.3017 8.99261 11.8429C9.23704 11.4058 9.50137 10.9674 9.78394 10.5318C10.0722 10.0877 10.364 9.669 10.6565 9.2763C10.7341 9.27534 10.8122 9.27453 10.8908 9.27426C11.2968 9.27289 11.7318 9.2842 12.1855 9.30806C14.4457 9.42666 16.5465 9.8565 18.1007 10.5183C19.4677 11.1005 20.2645 11.8148 20.2324 12.4291C20.2051 12.9506 19.5714 13.4897 18.4938 13.9082C18.2505 14.0027 18.1297 14.2765 18.2242 14.5199C18.2968 14.7069 18.4755 14.8216 18.6651 14.8216C18.7219 14.8216 18.7796 14.8112 18.8358 14.7893C20.7084 14.0623 21.1422 13.1314 21.1764 12.4785C21.2062 11.9079 20.9505 11.3584 20.416 10.8453Z" fill="#F2F8F6"/>
<path d="M11.0664 12.126C11.0664 12.6968 11.5288 13.1596 12.099 13.1596C12.6694 13.1596 13.1317 12.6968 13.1317 12.126C13.1317 11.5551 12.6694 11.0923 12.099 11.0923C11.5288 11.0923 11.0664 11.5551 11.0664 12.126Z" fill="#F1F8F3"/>
</g>
<defs>
<linearGradient id="paint0_linear_872_1792" x1="12" y1="0.950663" x2="12" y2="24" gradientUnits="userSpaceOnUse">
<stop stop-color="#B2E198"/>
<stop offset="1" stop-color="#04A171"/>
</linearGradient>
<clipPath id="clip0_872_1792">
<rect width="24" height="24" fill="white"/>
</clipPath>
</defs>
</svg>
