<svg width="24" height="24" viewBox="0 0 24 24" fill="none" xmlns="http://www.w3.org/2000/svg">
<g clip-path="url(#clip0_872_1826)">
<path d="M18.375 0H5.625C2.5184 0 0 2.5184 0 5.625V18.375C0 21.4816 2.5184 24 5.625 24H18.375C21.4816 24 24 21.4816 24 18.375V5.625C24 2.5184 21.4816 0 18.375 0Z" fill="#00005B"/>
<path d="M9.86325 14.6719H6.14139L5.38202 17.0344C5.36327 17.1281 5.27889 17.1844 5.19452 17.175H3.31014C3.19764 17.175 3.16952 17.1188 3.19764 16.9969L6.42264 7.73438C6.45077 7.63125 6.47889 7.52812 6.52577 7.40625C6.57264 7.2 6.61014 6.98437 6.61014 6.76875C6.60077 6.72187 6.63827 6.66563 6.69452 6.65625C6.70389 6.65625 6.71327 6.65625 6.72264 6.65625H9.29139C9.35702 6.65625 9.41325 6.68438 9.42263 6.74063L13.0601 17.0156C13.0883 17.1281 13.0601 17.175 12.957 17.175H10.8664C10.8008 17.1844 10.7258 17.1375 10.707 17.0625L9.86325 14.6719ZM6.72264 12.675H9.26327C9.20702 12.4687 9.12264 12.2156 9.02889 11.9531C8.93514 11.6813 8.85077 11.3906 8.75702 11.0906C8.65389 10.7813 8.56952 10.4813 8.46639 10.1719C8.36327 9.8625 8.27889 9.57188 8.19452 9.28125C8.11014 9 8.04452 8.7375 7.96952 8.50312H7.95077C7.85702 8.93437 7.75389 9.36562 7.61327 9.79688C7.46327 10.275 7.31327 10.7813 7.15389 11.2781C7.03202 11.7844 6.87264 12.2531 6.72264 12.675Z" fill="#9999FF"/>
<path d="M20.7385 9.28125V15.4219C20.7385 15.6937 20.7385 15.9281 20.7479 16.1437C20.7573 16.35 20.7666 16.5375 20.776 16.6969C20.7948 16.8562 20.8041 16.95 20.8135 17.0531C20.8229 17.1469 20.7854 17.1844 20.701 17.1844H18.9854C18.901 17.1937 18.826 17.1469 18.7979 17.0719C18.7791 16.9875 18.7604 16.9031 18.7416 16.8187C18.7229 16.7531 18.7229 16.6781 18.7229 16.6125C18.4041 16.9031 18.0104 17.1094 17.5885 17.2312C17.2323 17.3344 16.8479 17.3812 16.4729 17.3812C16.0979 17.3812 15.7323 17.3344 15.3854 17.2125C15.0666 17.1 14.7666 16.9125 14.5323 16.6594C14.2698 16.3781 14.0823 16.05 13.9698 15.6844C13.8291 15.225 13.7635 14.7469 13.7729 14.2594V9.29062C13.7635 9.23437 13.801 9.16875 13.876 9.15937C13.8854 9.15937 13.8948 9.15937 13.9041 9.15937H15.8166C15.8729 9.15 15.9385 9.1875 15.9479 9.2625C15.9479 9.27187 15.9479 9.28125 15.9479 9.29062V13.9969C15.9479 14.4375 16.051 14.7844 16.2385 15.0375C16.426 15.2906 16.8198 15.4219 17.2698 15.4219C17.5041 15.4219 17.7291 15.3844 17.9541 15.3C18.1885 15.2156 18.3948 15.1125 18.5823 14.9719V9.28125C18.5823 9.21562 18.6291 9.16875 18.7229 9.16875H20.6354C20.6823 9.15937 20.7479 9.19687 20.7479 9.25312C20.7385 9.2625 20.7385 9.27187 20.7385 9.28125Z" fill="#9999FF"/>
</g>
<defs>
<clipPath id="clip0_872_1826">
<rect width="24" height="24" fill="white"/>
</clipPath>
</defs>
</svg>
