<svg width="24" height="24" viewBox="0 0 24 24" fill="none" xmlns="http://www.w3.org/2000/svg">
<g clip-path="url(#clip0_872_1797)">
<path d="M18.375 0H5.625C2.5184 0 0 2.5184 0 5.625V18.375C0 21.4816 2.5184 24 5.625 24H18.375C21.4816 24 24 21.4816 24 18.375V5.625C24 2.5184 21.4816 0 18.375 0Z" fill="#F4F2ED"/>
<path d="M9.93375 2.53346L13.9107 2.53125C14.8117 4.11776 15.5714 5.78981 16.2192 7.50532C16.4783 8.14268 16.7402 8.78003 16.9504 9.43744C17.265 10.4003 17.6617 11.3316 17.9625 12.3C18.5535 14.3383 19.0757 16.3981 19.6006 18.4557C19.7963 19.2752 20.0674 20.0719 20.2438 20.8962C19.9656 20.9906 19.6859 21.0817 19.4082 21.179C19.0962 21.2825 18.765 21.2721 18.4418 21.301C17.979 21.348 17.5143 21.3783 17.0509 21.4197L15.935 20.6168C15.8841 20.2463 15.892 19.8677 15.8252 19.4987C15.6355 18.3157 15.338 17.1541 14.9995 16.0084L8.79468 16.9072C8.74839 17.1672 8.70014 17.4279 8.6532 17.6887C8.44563 18.6129 8.49785 19.5704 8.44232 20.5119L7.02497 21.4246C6.93374 21.4976 6.81474 21.4576 6.71095 21.4563C6.36059 21.4197 6.00823 21.4211 5.65919 21.377C5.30353 21.3307 4.92275 21.3969 4.59022 21.2287C4.31192 21.0935 4.02501 20.9776 3.75 20.8348C4.06666 19.2641 4.48777 17.7184 4.89829 16.1719C5.40533 14.2425 6.01221 12.3435 6.63692 10.4528C7.51219 7.71985 8.62412 5.0697 9.93375 2.53334V2.53346ZM11.6572 8.10201C11.1409 9.66506 10.5432 11.1964 9.99056 12.7457L13.2907 10.8488C12.9694 9.91406 12.6455 8.9808 12.3056 8.05372C12.2409 7.89713 12.1761 7.69503 11.9976 7.65088C11.7854 7.67709 11.7233 7.92611 11.6572 8.10201Z" fill="#BF2223"/>
</g>
<defs>
<clipPath id="clip0_872_1797">
<rect width="24" height="24" fill="white"/>
</clipPath>
</defs>
</svg>
