<svg width="24" height="24" viewBox="0 0 24 24" fill="none" xmlns="http://www.w3.org/2000/svg">
<g clip-path="url(#clip0_872_1877)">
<path d="M18.375 0H5.625C2.5184 0 0 2.5184 0 5.625V18.375C0 21.4816 2.5184 24 5.625 24H18.375C21.4816 24 24 21.4816 24 18.375V5.625C24 2.5184 21.4816 0 18.375 0Z" fill="#F4F2ED"/>
<path d="M21.4702 8.29726L12.4723 2.29867C12.1652 2.10948 11.8373 2.10807 11.5277 2.29867L2.52984 8.29726C2.29922 8.45101 2.15625 8.72579 2.15625 9.00029V14.9988C2.15625 15.2736 2.29922 15.5482 2.52984 15.7018L11.5277 21.7013C11.8346 21.8904 12.1627 21.8921 12.4723 21.7013L21.4702 15.7018C21.7008 15.5482 21.8438 15.2736 21.8438 14.999V9.00039C21.8438 8.72579 21.7008 8.45101 21.4702 8.29726ZM12.8461 4.58373L19.4707 9.00029L16.5153 10.9779L12.846 8.52779V4.58401L12.8461 4.58373ZM11.154 4.58373V8.52789L7.48444 10.9778L4.52916 9.00039L11.154 4.58373ZM3.84816 10.5822L5.9685 11.9995L3.84816 13.4169V10.5822ZM11.154 19.4154L4.52916 14.9988L7.48444 13.0213L11.154 15.4713V19.4154ZM12 13.999L9.01181 11.9995L12 10L14.9882 11.9995L12 13.999ZM12.846 19.4154V15.4713L16.5153 13.0213L19.4707 14.9988L12.846 19.4154ZM20.1519 13.4169L18.0315 11.9995L20.1519 10.5824V13.4169Z" fill="black"/>
</g>
<defs>
<clipPath id="clip0_872_1877">
<rect width="24" height="24" fill="white"/>
</clipPath>
</defs>
</svg>
