<svg width="24" height="24" viewBox="0 0 24 24" fill="none" xmlns="http://www.w3.org/2000/svg">
<g clip-path="url(#clip0_872_2015)">
<path d="M18.375 0H5.625C2.5184 0 0 2.5184 0 5.625V18.375C0 21.4816 2.5184 24 5.625 24H18.375C21.4816 24 24 21.4816 24 18.375V5.625C24 2.5184 21.4816 0 18.375 0Z" fill="white"/>
<path fill-rule="evenodd" clip-rule="evenodd" d="M8.1914 13.8016C8.1914 14.7596 7.60129 16.2111 5.73338 16.2081H3.375V7.78125H5.78319C7.58452 7.78125 8.19038 9.2307 8.19089 10.1892L8.1914 13.8016ZM5.86706 9.35802C6.06427 9.35802 6.26199 9.43191 6.45921 9.57956C6.6559 9.72722 6.75502 9.94931 6.75552 10.2447V13.7919C6.75552 14.0878 6.65692 14.3093 6.45971 14.4571C6.2625 14.6048 6.06478 14.6786 5.86757 14.6786H4.98064V9.35802H5.86706Z" fill="black"/>
<path d="M13.3091 9.28615H10.601V11.2428H12.2564V12.7488H10.601V14.705H13.3096V16.211H10.1491C9.58193 16.2258 9.11024 15.7766 9.09601 15.2082V8.83645C9.08228 8.26858 9.53111 7.79697 10.0978 7.78271H13.3096L13.3091 9.28615Z" fill="black"/>
<path d="M18.5767 15.1578C17.9058 16.7239 16.7037 16.4122 16.1655 15.1578L14.207 7.7832H15.8625L17.3726 13.5749L18.8755 7.7832H20.5315L18.5767 15.1578Z" fill="black"/>
</g>
<defs>
<clipPath id="clip0_872_2015">
<rect width="24" height="24" fill="white"/>
</clipPath>
</defs>
</svg>
