<svg width="24" height="24" viewBox="0 0 24 24" fill="none" xmlns="http://www.w3.org/2000/svg">
<g clip-path="url(#clip0_872_1913)">
<path d="M18.375 0H5.625C2.5184 0 0 2.5184 0 5.625V18.375C0 21.4816 2.5184 24 5.625 24H18.375C21.4816 24 24 21.4816 24 18.375V5.625C24 2.5184 21.4816 0 18.375 0Z" fill="#5865F2"/>
<mask id="mask0_872_1913" style="mask-type:luminance" maskUnits="userSpaceOnUse" x="2" y="4" width="20" height="16">
<path d="M21.375 4.78125H2.625V19.3059H21.375V4.78125Z" fill="white"/>
</mask>
<g mask="url(#mask0_872_1913)">
<path d="M18.4976 6.0746C17.3026 5.52625 16.0211 5.12226 14.6812 4.89086C14.6568 4.8864 14.6324 4.89756 14.6198 4.91988C14.455 5.21302 14.2724 5.59544 14.1446 5.89602C12.7034 5.68027 11.2697 5.68027 9.85809 5.89602C9.73022 5.58876 9.54103 5.21302 9.37547 4.91988C9.36288 4.89831 9.3385 4.88715 9.3141 4.89086C7.97493 5.12152 6.6934 5.52551 5.4976 6.0746C5.48725 6.07906 5.47838 6.0865 5.47249 6.09617C3.04171 9.7277 2.37582 13.2699 2.70248 16.7683C2.70397 16.7855 2.71357 16.8018 2.72688 16.8122C4.33063 17.99 5.88414 18.705 7.40881 19.1789C7.43321 19.1863 7.45907 19.1774 7.47459 19.1574C7.83526 18.6648 8.15676 18.1455 8.4324 17.5994C8.44867 17.5674 8.43314 17.5295 8.3999 17.5168C7.88994 17.3233 7.40438 17.0875 6.93728 16.8197C6.90035 16.7981 6.89738 16.7453 6.93138 16.7199C7.02967 16.6463 7.12798 16.5697 7.22184 16.4923C7.23882 16.4782 7.26248 16.4752 7.28244 16.4841C10.351 17.8851 13.6731 17.8851 16.7054 16.4841C16.7254 16.4744 16.7491 16.4774 16.7668 16.4916C16.8607 16.5689 16.9589 16.6463 17.058 16.7199C17.0919 16.7453 17.0898 16.7981 17.0528 16.8197C16.5857 17.0927 16.1002 17.3233 15.5895 17.5161C15.5562 17.5287 15.5414 17.5674 15.5577 17.5994C15.8393 18.1448 16.1607 18.664 16.5147 19.1566C16.5295 19.1774 16.5562 19.1863 16.5805 19.1789C18.1126 18.705 19.6661 17.99 21.2699 16.8122C21.2839 16.8018 21.2928 16.7861 21.2943 16.7691C21.6852 12.7246 20.6394 9.21136 18.522 6.09691C18.5168 6.0865 18.508 6.07906 18.4976 6.0746ZM8.89064 14.6382C7.9668 14.6382 7.20557 13.7901 7.20557 12.7484C7.20557 11.7068 7.95203 10.8586 8.89064 10.8586C9.83663 10.8586 10.5905 11.7143 10.5757 12.7484C10.5757 13.7901 9.82922 14.6382 8.89064 14.6382ZM15.1209 14.6382C14.197 14.6382 13.4359 13.7901 13.4359 12.7484C13.4359 11.7068 14.1823 10.8586 15.1209 10.8586C16.0669 10.8586 16.8207 11.7143 16.806 12.7484C16.806 13.7901 16.0669 14.6382 15.1209 14.6382Z" fill="white"/>
</g>
</g>
<defs>
<clipPath id="clip0_872_1913">
<rect width="24" height="24" fill="white"/>
</clipPath>
</defs>
</svg>
