<svg width="24" height="24" viewBox="0 0 24 24" fill="none" xmlns="http://www.w3.org/2000/svg">
<g clip-path="url(#clip0_872_1963)">
<path d="M18.375 0H5.625C2.5184 0 0 2.5184 0 5.625V18.375C0 21.4816 2.5184 24 5.625 24H18.375C21.4816 24 24 21.4816 24 18.375V5.625C24 2.5184 21.4816 0 18.375 0Z" fill="#5865F2"/>
<path fill-rule="evenodd" clip-rule="evenodd" d="M14.0195 21.2381C16.7462 21.2359 19.4769 21.2524 22.2076 21.2381L22.9786 17H0.9375L1.80966 21.2381C5.87929 21.2114 9.95166 21.2412 14.0195 21.2381Z" fill="#98A0F7"/>
<path fill-rule="evenodd" clip-rule="evenodd" d="M20.2241 17.1629H3.69336V11.6184C3.69336 6.75512 7.39396 2.8125 11.9587 2.8125C16.5235 2.8125 20.2241 6.75512 20.2241 11.6184V17.1629Z" fill="#98A0F7"/>
<path d="M3.25781 14.1773V6.13232M20.707 14.1773V6.13232" stroke="#202225" stroke-width="3.37" stroke-linecap="round" stroke-linejoin="round"/>
<path fill-rule="evenodd" clip-rule="evenodd" d="M21.1675 11.0786H2.79981C2.46179 11.0786 2.1875 12.0278 2.1875 13.1986C2.1875 14.3697 2.46179 15.3186 2.79981 15.3186H21.1675C21.5055 15.3186 21.7797 14.3697 21.7797 13.1986C21.7797 12.0278 21.5055 11.0786 21.1675 11.0786Z" fill="white"/>
<path fill-rule="evenodd" clip-rule="evenodd" d="M13.6626 10.4769C12.8397 11.7045 11.128 11.7045 10.3052 10.4769C9.9177 9.89939 9.2926 9.55664 8.6261 9.55664H6.77453C6.01648 9.55664 5.40234 10.2114 5.40234 11.0189V16.2425H18.5658V11.0189C18.5658 10.2114 17.9513 9.55664 17.1933 9.55664H15.3417C14.6751 9.55664 14.05 9.89939 13.6626 10.4769Z" fill="white"/>
<path fill-rule="evenodd" clip-rule="evenodd" d="M12.9014 9.1355C12.9014 8.59534 12.4901 8.15698 11.9829 8.15698C11.4757 8.15698 11.0645 8.59534 11.0645 9.1355C11.0645 9.67566 11.4757 10.114 11.9829 10.114C12.4901 10.114 12.9014 9.67566 12.9014 9.1355Z" fill="white"/>
<path fill-rule="evenodd" clip-rule="evenodd" d="M9.07471 13.1443C9.07471 12.5137 8.59497 12.0024 8.00318 12.0024C7.41138 12.0024 6.93164 12.5137 6.93164 13.1443C6.93164 13.7746 7.41138 14.2858 8.00318 14.2858C8.59497 14.2858 9.07471 13.7746 9.07471 13.1443ZM17.0339 13.1443C17.0339 12.5137 16.5542 12.0024 15.9624 12.0024C15.3706 12.0024 14.8909 12.5137 14.8909 13.1443C14.8909 13.7746 15.3706 14.2858 15.9624 14.2858C16.5542 14.2858 17.0339 13.7746 17.0339 13.1443Z" fill="black"/>
<path fill-rule="evenodd" clip-rule="evenodd" d="M19.0245 19.6453C19.0245 19.3754 18.819 19.156 18.5656 19.156C18.3118 19.156 18.1064 19.3754 18.1064 19.6453C18.1064 19.9156 18.3118 20.1346 18.5656 20.1346C18.819 20.1346 19.0245 19.9156 19.0245 19.6453ZM17.4941 19.6453C17.4941 19.3754 17.2886 19.156 17.0349 19.156C16.7811 19.156 16.5757 19.3754 16.5757 19.6453C16.5757 19.9156 16.7811 20.1346 17.0349 20.1346C17.2886 20.1346 17.4941 19.9156 17.4941 19.6453ZM15.9634 19.6453C15.9634 19.3754 15.7579 19.156 15.5041 19.156C15.2507 19.156 15.0449 19.3754 15.0449 19.6453C15.0449 19.9156 15.2507 20.1346 15.5041 20.1346C15.7579 20.1346 15.9634 19.9156 15.9634 19.6453Z" fill="white"/>
</g>
<defs>
<clipPath id="clip0_872_1963">
<rect width="24" height="24" fill="white"/>
</clipPath>
</defs>
</svg>
