<svg width="24" height="24" viewBox="0 0 24 24" fill="none" xmlns="http://www.w3.org/2000/svg">
<g clip-path="url(#clip0_872_2046)">
<path d="M18.375 0H5.625C2.5184 0 0 2.5184 0 5.625V18.375C0 21.4816 2.5184 24 5.625 24H18.375C21.4816 24 24 21.4816 24 18.375V5.625C24 2.5184 21.4816 0 18.375 0Z" fill="#F4F2ED"/>
<path d="M7.78517 14.3845H4.91016C5.29083 15.6904 5.99722 16.8608 7.03139 17.895C8.68009 19.5441 10.6626 20.3672 12.9809 20.3672C13.4444 20.3672 13.8933 20.3327 14.3295 20.267C16.0757 20.0033 17.6045 19.2139 18.9145 17.895C19.9553 16.8612 20.6667 15.6904 21.0503 14.3845H19.8836H18.1775H7.78517Z" fill="#2C2255"/>
<path d="M6.19915 10.4795H4.69727C4.64232 10.8095 4.60489 11.1464 4.58789 11.4919H6.37292H7.26835H20.1933H21.3731C21.3559 11.1464 21.3185 10.8095 21.263 10.4795" fill="#2C2255"/>
<path d="M4.58789 12.4321C4.60489 12.7777 4.64215 13.1146 4.69727 13.4444H6.25874H7.44229H20.088H21.2634C21.3187 13.1146 21.3565 12.7777 21.3736 12.4321" fill="#2C2255"/>
<path d="M21.0511 9.53934C20.6679 8.22989 19.9563 7.05407 18.9149 6.01252C17.6084 4.70619 16.084 3.92219 14.3434 3.65846C13.9032 3.59167 13.4497 3.55664 12.9814 3.55664C10.6631 3.55664 8.68042 4.3755 7.0319 6.01252C5.99738 7.05407 5.29065 8.22989 4.91016 9.53934" fill="#2C2255"/>
<path d="M4.08963 11.9622C4.08963 7.52816 7.41983 3.84392 11.752 3.19591C11.6446 3.19196 11.5366 3.1875 11.428 3.1875C6.56646 3.1875 2.625 7.11625 2.625 11.9622C2.625 16.8084 6.56628 20.7368 11.428 20.7368C11.537 20.7368 11.645 20.7328 11.7528 20.7287C7.41982 20.0807 4.08963 16.3965 4.08963 11.9622Z" fill="#F7941E"/>
<path d="M18.6939 11.4918C18.6656 11.1448 18.6073 10.8064 18.52 10.4795H7.44347C7.35624 10.806 7.29768 11.1446 7.26953 11.4918H18.6939Z" fill="url(#paint0_linear_872_2046)"/>
<path d="M18.6937 12.4321H7.26953C7.29768 12.7791 7.35589 13.1173 7.4433 13.4444H18.5201C18.6073 13.1175 18.6655 12.7791 18.6937 12.4321Z" fill="url(#paint1_linear_872_2046)"/>
<path d="M12.9814 17.6952C15.2817 17.6952 17.2645 16.3399 18.1777 14.3845H7.78516C8.69827 16.3399 10.6811 17.6952 12.9814 17.6952Z" fill="url(#paint2_linear_872_2046)"/>
<path d="M6.42347 12.4321H7.26207H18.7157H20.2204H21.3634C21.3712 12.2826 21.3757 12.132 21.3757 11.9802C21.3757 11.8163 21.3697 11.6538 21.3605 11.4917H20.2202H18.7156H7.26189H6.36406H4.5895C4.58023 11.6534 4.57422 11.8163 4.57422 11.9802C4.57422 12.132 4.57868 12.2826 4.58658 12.4321H6.42347Z" fill="white"/>
<path d="M7.75084 9.53931H4.9088C4.8154 9.8454 4.75513 10.1595 4.69727 10.4797H6.16104H7.40744H18.5131H20.0858H21.21C21.1519 10.1598 21.0773 9.84578 20.984 9.53931" fill="white"/>
<path d="M20.1305 13.4443H18.5577H7.45225H6.26544H4.69727C4.75358 13.7642 4.81763 14.0781 4.9095 14.3846H7.79531H18.2146H19.9251H21.0391C21.1308 14.0784 21.2049 13.7645 21.2613 13.4443H20.1305Z" fill="white"/>
</g>
<defs>
<linearGradient id="paint0_linear_872_2046" x1="12.9816" y1="21.5082" x2="12.9816" y2="8.86484" gradientUnits="userSpaceOnUse">
<stop offset="0.303" stop-color="#473788"/>
<stop offset="0.872" stop-color="#2C2255"/>
</linearGradient>
<linearGradient id="paint1_linear_872_2046" x1="12.9815" y1="21.5084" x2="12.9815" y2="8.86503" gradientUnits="userSpaceOnUse">
<stop offset="0.303" stop-color="#473788"/>
<stop offset="0.872" stop-color="#2C2255"/>
</linearGradient>
<linearGradient id="paint2_linear_872_2046" x1="12.9814" y1="21.5079" x2="12.9814" y2="8.86546" gradientUnits="userSpaceOnUse">
<stop offset="0.303" stop-color="#473788"/>
<stop offset="0.863" stop-color="#2C2255"/>
</linearGradient>
<clipPath id="clip0_872_2046">
<rect width="24" height="24" fill="white"/>
</clipPath>
</defs>
</svg>
