<svg width="24" height="24" viewBox="0 0 24 24" fill="none" xmlns="http://www.w3.org/2000/svg">
<g clip-path="url(#clip0_872_2065)">
<path d="M18.375 0H5.625C2.5184 0 0 2.5184 0 5.625V18.375C0 21.4816 2.5184 24 5.625 24H18.375C21.4816 24 24 21.4816 24 18.375V5.625C24 2.5184 21.4816 0 18.375 0Z" fill="url(#paint0_linear_872_2065)"/>
<path fill-rule="evenodd" clip-rule="evenodd" d="M8.11217 21.3513C8.11217 21.3513 9.20629 21.4283 10.6138 21.3048C11.1838 21.2548 13.348 21.0431 14.9661 20.6897C14.9661 20.6897 16.9388 20.2693 17.9943 19.8819C19.0986 19.4767 19.6995 19.1328 19.97 18.6454C19.9582 18.5455 20.0532 18.1914 19.544 17.9787C18.242 17.4349 16.732 17.5332 13.744 17.4701C10.4306 17.3568 9.32831 16.8045 8.74115 16.3597C8.17808 15.9084 8.46122 14.66 10.8738 13.5603C12.0891 12.9746 16.8532 11.894 16.8532 11.894C15.2487 11.1042 12.2569 9.71587 11.6419 9.41606C11.1025 9.15315 10.2394 8.75723 10.0522 8.27823C9.84009 7.81838 10.5532 7.42225 10.9516 7.30881C12.2345 6.9403 14.0456 6.71127 15.6939 6.68555C16.5225 6.67263 16.6569 6.61954 16.6569 6.61954C17.8002 6.43069 18.5527 5.65181 18.2392 4.41828C17.9577 3.15918 16.4731 2.41934 15.0622 2.67546C13.7337 2.91665 10.5315 3.84291 10.5315 3.84291C14.4896 3.80881 15.1522 3.87459 15.448 4.28654C15.6228 4.52982 15.3686 4.8634 14.313 5.03508C13.1637 5.22199 10.7748 5.44709 10.7748 5.44709C8.48302 5.58262 6.86869 5.5917 6.38452 6.6125C6.0682 7.27941 6.72183 7.86902 7.00832 8.23807C8.21897 9.57881 9.96769 10.3019 11.0932 10.8344C11.5168 11.0347 12.7595 11.4131 12.7595 11.4131C9.10777 11.2131 6.47359 12.3297 4.9284 13.6153C3.18073 15.2251 3.95385 17.1438 7.53432 18.3252C9.64912 19.023 10.6979 19.3512 13.8524 19.0684C15.7104 18.9686 16.0033 19.028 16.0219 19.1797C16.0479 19.3935 13.9581 19.9245 13.3876 20.0884C11.9361 20.5053 8.13121 21.3472 8.11217 21.3513Z" fill="white"/>
</g>
<defs>
<linearGradient id="paint0_linear_872_2065" x1="0" y1="0" x2="24" y2="24" gradientUnits="userSpaceOnUse">
<stop stop-color="#8381C5"/>
<stop offset="0.615" stop-color="#7E55B3"/>
<stop offset="1" stop-color="#A52ECB"/>
</linearGradient>
<clipPath id="clip0_872_2065">
<rect width="24" height="24" fill="white"/>
</clipPath>
</defs>
</svg>
