<svg width="24" height="24" viewBox="0 0 24 24" fill="none" xmlns="http://www.w3.org/2000/svg">
<g clip-path="url(#clip0_872_2198)">
<path d="M18.375 0H5.625C2.5184 0 0 2.5184 0 5.625V18.375C0 21.4816 2.5184 24 5.625 24H18.375C21.4816 24 24 21.4816 24 18.375V5.625C24 2.5184 21.4816 0 18.375 0Z" fill="#F4F2ED"/>
<path d="M5.75589 9.44727C5.5552 9.83202 5.24073 10.1452 4.85547 10.3444L9.79863 15.3113L10.9904 14.7068L5.75589 9.44727ZM12.2761 15.9987L11.0843 16.6032L13.589 19.12C13.7898 18.7353 14.1043 18.4219 14.4896 18.2228L12.2761 15.9987Z" fill="#A730B8"/>
<path d="M17.995 11.4126L15.1964 12.8322L15.4028 14.1532L18.5692 12.547C18.2656 12.237 18.0651 11.8408 17.995 11.4126ZM13.5719 13.6562L6.95508 17.0127C7.2587 17.3226 7.45928 17.7188 7.52943 18.1471L13.7782 14.9773L13.5719 13.6562Z" fill="#5496BE"/>
<path d="M11.4432 5.38843L8.25038 11.6273L9.19305 12.5745L12.5736 5.96898C12.1461 5.8966 11.7513 5.69385 11.4432 5.38843ZM7.41998 13.25L5.80273 16.4101C6.23022 16.4825 6.62495 16.6852 6.933 16.9906L8.36259 14.1971L7.41998 13.25Z" fill="#CE3D1A"/>
<path d="M4.82721 10.3582C4.50155 10.5213 4.13918 10.5971 3.77549 10.5782C3.70744 10.5744 3.63962 10.5673 3.57227 10.557L4.51661 16.6028C4.84226 16.4397 5.20463 16.3639 5.56833 16.3828C5.63633 16.3866 5.70411 16.3937 5.77143 16.4041L4.82721 10.3582Z" fill="#D0188F"/>
<path d="M7.53405 18.177C7.55567 18.3174 7.56304 18.4596 7.55607 18.6015C7.53996 18.8909 7.46436 19.1739 7.33398 19.4328L13.3734 20.4028C13.3517 20.2625 13.3443 20.1202 13.3512 19.9783C13.3674 19.6889 13.443 19.4059 13.5734 19.147L7.53405 18.177Z" fill="#5B36E9"/>
<path d="M18.5902 12.5688L15.8027 18.0159C16.2302 18.0883 16.6251 18.2911 16.9332 18.5965L19.7207 13.1495C19.2931 13.0772 18.8984 12.8744 18.5902 12.5688Z" fill="#30B873"/>
<path d="M14.7873 4.86499C14.5866 5.24976 14.272 5.56309 13.8867 5.76218L18.2036 10.0997C18.4043 9.71496 18.7189 9.40165 19.1042 9.20257L14.7873 4.86499Z" fill="#EBE305"/>
<path d="M10.8477 4.23193L5.39062 7.00001C5.6942 7.30991 5.89477 7.70607 5.96492 8.13436L11.4219 5.36617C11.1185 5.0563 10.9179 4.66017 10.8477 4.23193Z" fill="#F47601"/>
<path d="M13.8783 5.76733C13.5483 5.93651 13.1795 6.01546 12.8093 5.9962C12.7476 5.99246 12.6861 5.986 12.625 5.97684L13.1085 9.07504L14.4274 9.28688L13.8783 5.76733ZM13.3893 10.8762L14.5322 18.2012C14.8541 18.0434 15.2108 17.9702 15.5687 17.9889C15.6424 17.9931 15.7159 18.0012 15.7889 18.0131L14.7084 11.088L13.3893 10.8762Z" fill="#57C115"/>
<path d="M5.96909 8.15771C5.99154 8.30026 5.9993 8.44473 5.99225 8.58886C5.97635 8.87603 5.90188 9.1569 5.77344 9.41421L8.87118 9.91221L9.48001 8.72208L5.96909 8.15771ZM11.2783 9.01111L10.6694 10.2013L17.9887 11.3779C17.9677 11.2391 17.9605 11.0985 17.9675 10.9583C17.9837 10.6672 18.0602 10.3826 18.192 10.1225L11.2783 9.01111Z" fill="#DBB210"/>
<path d="M12.8197 5.80484C13.8751 5.86239 14.7773 5.05263 14.8348 3.99621C14.8923 2.9398 14.0833 2.03675 13.0278 1.9792C11.9724 1.92166 11.0702 2.73141 11.0126 3.78783C10.9552 4.84425 11.7642 5.7473 12.8197 5.80484Z" fill="#FFCA00" fill-opacity="0.995968"/>
<path d="M19.9661 12.9857C21.0216 13.0433 21.9238 12.2336 21.9812 11.1771C22.0388 10.1207 21.2297 9.21766 20.1743 9.16011C19.1189 9.10257 18.2166 9.91231 18.1591 10.9688C18.1017 12.0252 18.9106 12.9282 19.9661 12.9857Z" fill="#64FF00" fill-opacity="0.995968"/>
<path d="M15.3489 22.0058C16.4043 22.0634 17.3066 21.2535 17.364 20.1972C17.4215 19.1407 16.6125 18.2377 15.5571 18.1801C14.5017 18.1226 13.5994 18.9324 13.542 19.9888C13.4844 21.0452 14.2935 21.9482 15.3489 22.0058Z" fill="#00A3FF" fill-opacity="0.995968"/>
<path d="M5.35087 20.3998C6.40631 20.4573 7.30853 19.6476 7.36601 18.5912C7.42351 17.5347 6.6145 16.6317 5.55906 16.5742C4.5036 16.5166 3.60139 17.3263 3.5439 18.3828C3.4864 19.4392 4.29541 20.3423 5.35087 20.3998Z" fill="#9500FF" fill-opacity="0.995968"/>
<path d="M3.7864 10.3868C4.84186 10.4444 5.74407 9.63468 5.80156 8.57825C5.85906 7.52183 5.05005 6.61878 3.99459 6.56124C2.93915 6.50369 2.03693 7.31344 1.97945 8.36986C1.92195 9.42627 2.73096 10.3294 3.7864 10.3868Z" fill="#FF0000" fill-opacity="0.995968"/>
</g>
<defs>
<clipPath id="clip0_872_2198">
<rect width="24" height="24" fill="white"/>
</clipPath>
</defs>
</svg>
