<svg width="24" height="24" viewBox="0 0 24 24" fill="none" xmlns="http://www.w3.org/2000/svg">
<g clip-path="url(#clip0_872_2407)">
<path d="M18.375 0H5.625C2.5184 0 0 2.5184 0 5.625V18.375C0 21.4816 2.5184 24 5.625 24H18.375C21.4816 24 24 21.4816 24 18.375V5.625C24 2.5184 21.4816 0 18.375 0Z" fill="#F4F2ED"/>
<mask id="mask0_872_2407" style="mask-type:luminance" maskUnits="userSpaceOnUse" x="5" y="2" width="14" height="20">
<path d="M18.2213 2.625H5.71875V21.375H18.2213V2.625Z" fill="white"/>
</mask>
<g mask="url(#mask0_872_2407)">
<path d="M8.84571 21.375C10.5707 21.375 11.9707 19.9751 11.9707 18.2501V15.125H8.84571C7.12071 15.125 5.7207 16.5251 5.7207 18.2501C5.7207 19.9751 7.12071 21.375 8.84571 21.375Z" fill="#0ACF83"/>
<path d="M5.7207 12C5.7207 10.275 7.12071 8.875 8.84571 8.875H11.9707V15.125H8.84571C7.12071 15.125 5.7207 13.725 5.7207 12Z" fill="#A259FF"/>
<path d="M5.7207 5.75C5.7207 4.025 7.12071 2.625 8.84571 2.625H11.9707V8.875H8.84571C7.12071 8.875 5.7207 7.475 5.7207 5.75Z" fill="#F24E1E"/>
<path d="M11.9707 2.625H15.0957C16.8207 2.625 18.2207 4.025 18.2207 5.75C18.2207 7.475 16.8207 8.875 15.0957 8.875H11.9707V2.625Z" fill="#FF7262"/>
<path d="M18.2207 12C18.2207 13.725 16.8207 15.125 15.0957 15.125C13.3707 15.125 11.9707 13.725 11.9707 12C11.9707 10.275 13.3707 8.875 15.0957 8.875C16.8207 8.875 18.2207 10.275 18.2207 12Z" fill="#1ABCFE"/>
</g>
</g>
<defs>
<clipPath id="clip0_872_2407">
<rect width="24" height="24" fill="white"/>
</clipPath>
</defs>
</svg>
