<svg width="24" height="24" viewBox="0 0 24 24" fill="none" xmlns="http://www.w3.org/2000/svg">
<g clip-path="url(#clip0_872_2280)">
<path d="M18.375 0H5.625C2.5184 0 0 2.5184 0 5.625V18.375C0 21.4816 2.5184 24 5.625 24H18.375C21.4816 24 24 21.4816 24 18.375V5.625C24 2.5184 21.4816 0 18.375 0Z" fill="#F03C2E"/>
<mask id="mask0_872_2280" style="mask-type:luminance" maskUnits="userSpaceOnUse" x="2" y="2" width="20" height="20">
<path d="M21.375 2.625H2.625V21.375H21.375V2.625Z" fill="white"/>
</mask>
<g mask="url(#mask0_872_2280)">
<path d="M21.0199 11.1654L12.8337 2.97924C12.7217 2.86708 12.5885 2.77812 12.4421 2.71743C12.2956 2.65673 12.1385 2.62549 11.98 2.62549C11.8215 2.62549 11.6644 2.65673 11.5179 2.71743C11.3715 2.77812 11.2384 2.86708 11.1263 2.97924L9.4271 4.67845L11.5834 6.8347C12.0849 6.65892 12.6591 6.77904 13.0587 7.17864C13.2489 7.36921 13.3818 7.60944 13.4419 7.87188C13.5021 8.13432 13.4873 8.40841 13.3991 8.66283L15.4774 10.7412C15.9802 10.5677 16.5603 10.6796 16.9616 11.0821C17.0951 11.2156 17.2009 11.3741 17.2731 11.5485C17.3453 11.7228 17.3824 11.9097 17.3824 12.0984C17.3824 12.2871 17.3452 12.474 17.2729 12.6483C17.2007 12.8226 17.0948 12.981 16.9613 13.1145C16.8279 13.248 16.6695 13.3537 16.4951 13.4259C16.3207 13.4982 16.1339 13.5353 15.9452 13.5352C15.7564 13.5352 15.5695 13.498 15.3952 13.4258C15.2209 13.3535 15.0624 13.2477 14.929 13.1142C14.5071 12.6923 14.4029 12.0712 14.6162 11.5515L12.6779 9.61317V14.7138C12.8186 14.7834 12.9471 14.8753 13.0587 14.9857C13.1921 15.1191 13.2979 15.2775 13.3702 15.4518C13.4424 15.6261 13.4795 15.813 13.4795 16.0017C13.4795 16.1904 13.4424 16.3772 13.3702 16.5515C13.2979 16.7259 13.1921 16.8843 13.0587 17.0177C12.9253 17.1511 12.7669 17.257 12.5926 17.3292C12.4182 17.4014 12.2314 17.4386 12.0427 17.4386C11.854 17.4386 11.6672 17.4014 11.4929 17.3292C11.3185 17.257 11.1601 17.1511 11.0267 17.0177C10.8931 16.8843 10.7871 16.726 10.7149 16.5517C10.6425 16.3773 10.6053 16.1904 10.6053 16.0017C10.6053 15.813 10.6425 15.6261 10.7149 15.4517C10.7871 15.2774 10.8931 15.119 11.0267 14.9857C11.1655 14.8474 11.3196 14.7425 11.4972 14.6722V9.52411C11.3261 9.4538 11.1655 9.35013 11.0267 9.21068C10.8249 9.00917 10.6878 8.75214 10.6326 8.47237C10.5776 8.19259 10.607 7.90274 10.7173 7.63978L8.59036 5.514L2.97708 11.1214C2.86485 11.2335 2.77581 11.3667 2.71506 11.5132C2.65431 11.6597 2.62305 11.8168 2.62305 11.9754C2.62305 12.134 2.65431 12.2911 2.71506 12.4377C2.77581 12.5842 2.86485 12.7173 2.97708 12.8295L11.1638 21.015C11.2759 21.1271 11.409 21.216 11.5554 21.2768C11.7019 21.3375 11.859 21.3687 12.0175 21.3687C12.176 21.3687 12.3331 21.3375 12.4796 21.2768C12.626 21.216 12.7592 21.1271 12.8712 21.015L21.0199 12.8792C21.1321 12.7671 21.2211 12.634 21.2819 12.4875C21.3426 12.3409 21.3739 12.1839 21.3739 12.0253C21.3739 11.8666 21.3426 11.7095 21.2819 11.563C21.2211 11.4165 21.1321 11.2833 21.0199 11.1712" fill="white"/>
</g>
</g>
<defs>
<clipPath id="clip0_872_2280">
<rect width="24" height="24" fill="white"/>
</clipPath>
</defs>
</svg>
