<svg width="24" height="24" viewBox="0 0 24 24" fill="none" xmlns="http://www.w3.org/2000/svg">
<g clip-path="url(#clip0_872_2457)">
<path d="M18.375 0H5.625C2.5184 0 0 2.5184 0 5.625V18.375C0 21.4816 2.5184 24 5.625 24H18.375C21.4816 24 24 21.4816 24 18.375V5.625C24 2.5184 21.4816 0 18.375 0Z" fill="#F4F2ED"/>
<path d="M12.0001 2.8125C6.82304 2.8125 2.625 7.00976 2.625 12.1876C2.625 16.3298 5.31125 19.8439 9.03625 21.0835C9.50475 21.1703 9.67678 20.8802 9.67678 20.6326C9.67678 20.409 9.66806 19.6705 9.66403 18.8872C7.05592 19.4543 6.50557 17.781 6.50557 17.781C6.0791 16.6973 5.46463 16.4093 5.46463 16.4093C4.61403 15.8273 5.52875 15.8393 5.52875 15.8393C6.47017 15.9054 6.96587 16.8054 6.96587 16.8054C7.80203 18.2387 9.15905 17.8243 9.69403 17.5848C9.77822 16.9788 10.0211 16.5653 10.2892 16.3312C8.20692 16.0941 6.01793 15.2902 6.01793 11.6979C6.01793 10.6744 6.38416 9.83803 6.98388 9.18152C6.88654 8.94539 6.56564 7.99186 7.0747 6.70052C7.0747 6.70052 7.86196 6.44855 9.65353 7.66149C10.4014 7.45377 11.2033 7.34961 12.0001 7.34603C12.7968 7.34961 13.5995 7.45377 14.3486 7.66149C16.138 6.44855 16.9242 6.70052 16.9242 6.70052C17.4345 7.99186 17.1135 8.94539 17.0161 9.18152C17.6172 9.83803 17.981 10.6744 17.981 11.6979C17.981 15.2988 15.7878 16.0916 13.7002 16.3237C14.0364 16.6147 14.3361 17.1851 14.3361 18.0598C14.3361 19.3142 14.3252 20.3238 14.3252 20.6326C14.3252 20.8821 14.4939 21.1744 14.9692 21.0823C18.6922 19.8413 21.375 16.3283 21.375 12.1876C21.375 7.00976 17.1775 2.8125 12.0001 2.8125ZM6.13627 16.1675C6.11562 16.2141 6.04235 16.228 5.97559 16.1961C5.90759 16.1655 5.8694 16.1019 5.89145 16.0553C5.91163 16.0073 5.98506 15.9939 6.0529 16.0261C6.12106 16.0567 6.15987 16.1208 6.13627 16.1675ZM6.59742 16.5789C6.55271 16.6205 6.46531 16.6012 6.406 16.5356C6.34468 16.4703 6.33319 16.3829 6.37852 16.3408C6.42463 16.2994 6.5094 16.3188 6.57087 16.3841C6.63219 16.4503 6.64415 16.537 6.59742 16.5789ZM6.91379 17.1054C6.85635 17.1454 6.76242 17.108 6.70436 17.0245C6.64691 16.9412 6.64691 16.8413 6.7056 16.8011C6.76382 16.7611 6.85635 16.7971 6.91519 16.8799C6.97247 16.9646 6.97247 17.0647 6.91379 17.1054ZM7.44883 17.7152C7.39745 17.7718 7.28799 17.7566 7.20788 17.6793C7.12592 17.6037 7.10309 17.4965 7.15463 17.4398C7.20665 17.3829 7.31672 17.399 7.39745 17.4757C7.47879 17.551 7.50363 17.6591 7.44883 17.7152ZM8.14032 17.921C8.11765 17.9945 8.01224 18.0278 7.90605 17.9966C7.80002 17.9645 7.73063 17.8785 7.75205 17.8043C7.7741 17.7304 7.87997 17.6956 7.98694 17.729C8.09282 17.7609 8.16236 17.8463 8.14032 17.921ZM8.92727 18.0083C8.9299 18.0856 8.83987 18.1497 8.7284 18.1511C8.61631 18.1537 8.52564 18.091 8.5244 18.015C8.5244 17.9369 8.61243 17.8734 8.72452 17.8716C8.83598 17.8694 8.92727 17.9315 8.92727 18.0083ZM9.70031 17.9787C9.71372 18.0541 9.63628 18.1316 9.52556 18.1523C9.41672 18.1721 9.31596 18.1255 9.30215 18.0507C9.28864 17.9734 9.3675 17.8959 9.47616 17.8759C9.58706 17.8567 9.68625 17.902 9.70031 17.9787Z" fill="#161614"/>
</g>
<defs>
<clipPath id="clip0_872_2457">
<rect width="24" height="24" fill="white"/>
</clipPath>
</defs>
</svg>
