<svg width="24" height="24" viewBox="0 0 24 24" fill="none" xmlns="http://www.w3.org/2000/svg">
<g clip-path="url(#clip0_872_2418)">
<path d="M18.375 0H5.625C2.5184 0 0 2.5184 0 5.625V18.375C0 21.4816 2.5184 24 5.625 24H18.375C21.4816 24 24 21.4816 24 18.375V5.625C24 2.5184 21.4816 0 18.375 0Z" fill="#330000"/>
<path d="M11.6006 14.2812H7.88064L7.12065 16.6312C7.10064 16.7212 7.02065 16.7812 6.93065 16.7712H5.05065C4.94064 16.7712 4.91064 16.7112 4.94064 16.5912L8.16065 7.3212C8.19065 7.2212 8.22065 7.1112 8.26065 6.9912C8.30064 6.7812 8.32065 6.5612 8.32065 6.3412C8.31065 6.2912 8.35065 6.2412 8.40065 6.2312H8.43065H10.9906C11.0707 6.2312 11.1106 6.2612 11.1206 6.3112L14.7706 16.6112C14.8006 16.7212 14.7706 16.7712 14.6707 16.7712H12.5806C12.5107 16.7812 12.4406 16.7312 12.4207 16.6612L11.6006 14.2812ZM8.46065 12.2512H11.0006C10.9406 12.0412 10.8607 11.7912 10.7707 11.5312C10.6807 11.2612 10.5907 10.9712 10.5007 10.6712C10.4006 10.3612 10.3106 10.0612 10.2106 9.75116C10.1107 9.44122 10.0207 9.1512 9.94061 8.8612C9.86064 8.5812 9.79061 8.3212 9.72067 8.0812H9.70061C9.61061 8.5112 9.50064 8.9412 9.36065 9.3712C9.21065 9.85119 9.06065 10.3512 8.90064 10.8512C8.76065 11.3612 8.61065 11.8312 8.46065 12.2512Z" fill="#FF9A00"/>
<path d="M17.0001 7.98119C16.6701 7.99119 16.3501 7.86119 16.1101 7.63119C15.8802 7.38119 15.7602 7.05119 15.7701 6.71119C15.7602 6.37119 15.8901 6.05119 16.1301 5.82119C16.3701 5.59119 16.6902 5.47119 17.0202 5.47119C17.4102 5.47119 17.7102 5.59119 17.9301 5.82119C18.1501 6.06119 18.2701 6.38119 18.2601 6.71119C18.2701 7.05119 18.1501 7.38119 17.9101 7.63119C17.6802 7.87119 17.3401 8.00119 17.0001 7.98119ZM15.8802 16.6612V8.96119C15.8802 8.86119 15.9201 8.82119 16.0101 8.82119H17.9901C18.0801 8.82119 18.1201 8.87119 18.1201 8.96119V16.6612C18.1201 16.7712 18.0801 16.8212 17.9901 16.8212H16.0302C15.9301 16.8212 15.8802 16.7612 15.8802 16.6612Z" fill="#FF9A00"/>
</g>
<defs>
<clipPath id="clip0_872_2418">
<rect width="24" height="24" fill="white"/>
</clipPath>
</defs>
</svg>
