<svg width="24" height="24" viewBox="0 0 24 24" fill="none" xmlns="http://www.w3.org/2000/svg">
<g clip-path="url(#clip0_872_2507)">
<path d="M18.375 0H5.625C2.5184 0 0 2.5184 0 5.625V18.375C0 21.4816 2.5184 24 5.625 24H18.375C21.4816 24 24 21.4816 24 18.375V5.625C24 2.5184 21.4816 0 18.375 0Z" fill="url(#paint0_radial_872_2507)"/>
<path d="M18.375 0H5.625C2.5184 0 0 2.5184 0 5.625V18.375C0 21.4816 2.5184 24 5.625 24H18.375C21.4816 24 24 21.4816 24 18.375V5.625C24 2.5184 21.4816 0 18.375 0Z" fill="url(#paint1_radial_872_2507)"/>
<path d="M12.0008 2.625C9.45478 2.625 9.13522 2.63614 8.13521 2.68164C7.13716 2.72735 6.4559 2.88535 5.8598 3.1172C5.24319 3.35664 4.72013 3.67697 4.19904 4.19826C3.67755 4.71936 3.35723 5.24241 3.117 5.85882C2.88458 6.45512 2.72637 7.13657 2.68145 8.13424C2.63672 9.13425 2.625 9.45394 2.625 12.0001C2.625 14.5463 2.63633 14.8648 2.68164 15.8647C2.72754 16.8628 2.88555 17.5441 3.1172 18.1402C3.35684 18.7568 3.67716 19.2799 4.19845 19.8009C4.71936 20.3225 5.24241 20.6436 5.85862 20.883C6.45512 21.1148 7.13657 21.2728 8.13443 21.3186C9.13445 21.364 9.45375 21.3752 11.9997 21.3752C14.5461 21.3752 14.8646 21.364 15.8646 21.3186C16.8626 21.2728 17.5447 21.1148 18.1412 20.883C18.7576 20.6436 19.2799 20.3225 19.8007 19.8009C20.3223 19.2799 20.6425 18.7568 20.8828 18.1404C21.1133 17.5441 21.2715 16.8626 21.3184 15.8649C21.3633 14.865 21.375 14.5463 21.375 12.0001C21.375 9.45394 21.3633 9.13445 21.3184 8.13443C21.2715 7.13637 21.1133 6.45512 20.8828 5.85902C20.6425 5.24241 20.3223 4.71936 19.8007 4.19826C19.2793 3.67677 18.7578 3.35646 18.1406 3.1172C17.543 2.88535 16.8613 2.72735 15.8632 2.68164C14.8632 2.63614 14.5448 2.625 11.9979 2.625H12.0008ZM11.1598 4.31447C11.4095 4.31408 11.688 4.31447 12.0008 4.31447C14.5041 4.31447 14.8007 4.32346 15.7892 4.36838C16.7032 4.41018 17.1994 4.56291 17.5298 4.69123C17.9674 4.86115 18.2793 5.06428 18.6072 5.39242C18.9353 5.72054 19.1384 6.03305 19.3088 6.47055C19.4371 6.80063 19.59 7.29673 19.6316 8.2108C19.6765 9.19909 19.6863 9.49594 19.6863 11.9979C19.6863 14.4999 19.6765 14.7968 19.6316 15.7851C19.5898 16.6991 19.4371 17.1952 19.3088 17.5253C19.1389 17.9629 18.9353 18.2744 18.6072 18.6023C18.2791 18.9305 17.9676 19.1335 17.5298 19.3035C17.1997 19.4324 16.7032 19.5848 15.7892 19.6266C14.8009 19.6715 14.5041 19.6812 12.0008 19.6812C9.49753 19.6812 9.20085 19.6715 8.21256 19.6266C7.29848 19.5844 6.80239 19.4317 6.47172 19.3033C6.03422 19.1333 5.72171 18.9303 5.39359 18.6022C5.06545 18.274 4.86232 17.9623 4.69201 17.5246C4.56369 17.1945 4.41076 16.6984 4.36916 15.7843C4.32424 14.796 4.31526 14.4992 4.31526 11.9956C4.31526 9.49209 4.32424 9.19674 4.36916 8.20846C4.41096 7.29439 4.56369 6.79828 4.69201 6.46781C4.86194 6.03031 5.06545 5.7178 5.39359 5.38968C5.72171 5.06155 6.03422 4.85843 6.47172 4.68811C6.80219 4.5592 7.29848 4.40685 8.21256 4.36486C9.07741 4.3258 9.41259 4.31408 11.1598 4.31212V4.31447ZM17.0052 5.87113C16.3841 5.87113 15.8802 6.37446 15.8802 6.99575C15.8802 7.61685 16.3841 8.12076 17.0052 8.12076C17.6263 8.12076 18.1302 7.61685 18.1302 6.99575C18.1302 6.37464 17.6263 5.87074 17.0052 5.87074V5.87113ZM12.0008 7.18559C9.34207 7.18559 7.18638 9.34128 7.18638 12.0001C7.18638 14.6589 9.34207 16.8136 12.0008 16.8136C14.6597 16.8136 16.8146 14.6589 16.8146 12.0001C16.8146 9.34128 14.6595 7.18559 12.0007 7.18559H12.0008ZM12.0008 8.87507C13.7267 8.87507 15.1259 10.2741 15.1259 12.0001C15.1259 13.7259 13.7267 15.1252 12.0008 15.1252C10.2749 15.1252 8.87585 13.7259 8.87585 12.0001C8.87585 10.2741 10.2749 8.87507 12.0008 8.87507Z" fill="white"/>
</g>
<defs>
<radialGradient id="paint0_radial_872_2507" cx="0" cy="0" r="1" gradientUnits="userSpaceOnUse" gradientTransform="translate(6.37503 25.8485) rotate(-90) scale(23.7858 22.1227)">
<stop stop-color="#FFDD55"/>
<stop offset="0.1" stop-color="#FFDD55"/>
<stop offset="0.5" stop-color="#FF543E"/>
<stop offset="1" stop-color="#C837AB"/>
</radialGradient>
<radialGradient id="paint1_radial_872_2507" cx="0" cy="0" r="1" gradientUnits="userSpaceOnUse" gradientTransform="translate(-4.02013 1.72892) rotate(78.6806) scale(10.6324 43.827)">
<stop stop-color="#3771C8"/>
<stop offset="0.128" stop-color="#3771C8"/>
<stop offset="1" stop-color="#6600FF" stop-opacity="0"/>
</radialGradient>
<clipPath id="clip0_872_2507">
<rect width="24" height="24" fill="white"/>
</clipPath>
</defs>
</svg>
