<svg width="24" height="24" viewBox="0 0 24 24" fill="none" xmlns="http://www.w3.org/2000/svg">
<g clip-path="url(#clip0_872_2511)">
<path d="M18.375 0H5.625C2.5184 0 0 2.5184 0 5.625V18.375C0 21.4816 2.5184 24 5.625 24H18.375C21.4816 24 24 21.4816 24 18.375V5.625C24 2.5184 21.4816 0 18.375 0Z" fill="white"/>
<path d="M3.9375 16.637L12.0269 21.3076L20.1162 16.637V7.29564L12.0269 2.625L3.9375 7.29564V16.637Z" fill="#469EA2"/>
<path d="M11.1987 3.74219L5.32429 7.13202C5.33392 7.23773 5.33392 7.3441 5.32429 7.44981L11.1891 10.8396C11.4302 10.6613 11.7222 10.5651 12.0221 10.5651C12.322 10.5651 12.614 10.6613 12.8551 10.8396L18.7199 7.44981C18.7103 7.3441 18.7103 7.23773 18.7199 7.13202L12.8648 3.74219C12.6236 3.92047 12.3316 4.01669 12.0317 4.01669C11.7318 4.01669 11.4399 3.92047 11.1987 3.74219ZM19.2881 8.38395L13.4137 11.8123C13.4455 12.1097 13.3826 12.4095 13.2338 12.6689C13.0851 12.9283 12.8581 13.1341 12.5855 13.2568L12.5951 19.998C12.69 20.0399 12.7804 20.0914 12.8648 20.152L18.7295 16.7622C18.6977 16.4649 18.7606 16.1651 18.9094 15.9057C19.0581 15.6462 19.2851 15.4404 19.5577 15.3177V8.53803C19.4638 8.49401 19.3737 8.44248 19.2881 8.38395ZM4.76574 8.42246C4.68144 8.48302 4.59107 8.53466 4.49609 8.57655V15.3562C4.77211 15.4746 5.00217 15.6796 5.15155 15.9401C5.30094 16.2006 5.36157 16.5027 5.32429 16.8007L11.1891 20.1905C11.2734 20.13 11.3637 20.0784 11.4587 20.0365V13.2568C11.1827 13.1384 10.9527 12.9335 10.8033 12.6729C10.6539 12.4124 10.5932 12.1103 10.6305 11.8123L4.76574 8.42246Z" fill="#6ACAD1"/>
<path d="M12.0269 3.63619L19.2592 7.8157V16.165L12.0269 20.3446L4.79459 16.165V7.80607L12.0269 3.63619ZM12.0269 2.64429L3.9375 7.31493V16.6562L12.0269 21.3268L20.1162 16.6562V7.31493L12.0269 2.64429Z" fill="#469EA2"/>
<path d="M12.0847 13.5553H11.9691C11.7704 13.5558 11.5735 13.5171 11.3899 13.4412C11.2062 13.3655 11.0393 13.2541 10.8988 13.1136C10.7584 12.9731 10.647 12.8063 10.5712 12.6225C10.4954 12.4389 10.4566 12.2421 10.4572 12.0433V11.9278C10.4566 11.7291 10.4954 11.5323 10.5712 11.3486C10.647 11.1649 10.7584 10.998 10.8988 10.8576C11.0393 10.717 11.2062 10.6057 11.3899 10.5299C11.5735 10.4541 11.7704 10.4154 11.9691 10.4158H12.0847C12.2833 10.4154 12.4802 10.4541 12.6638 10.5299C12.8475 10.6057 13.0144 10.717 13.1549 10.8576C13.2953 10.998 13.4067 11.1649 13.4826 11.3486C13.5583 11.5323 13.5971 11.7291 13.5966 11.9278V12.0433C13.5971 12.2421 13.5583 12.4389 13.4826 12.6225C13.4067 12.8063 13.2953 12.9731 13.1549 13.1136C13.0144 13.2541 12.8475 13.3655 12.6638 13.4412C12.4802 13.5171 12.2833 13.5558 12.0847 13.5553ZM12.0847 19.7667H11.9691C11.7005 19.766 11.4366 19.837 11.2045 19.9724C10.9726 20.1079 10.7811 20.3029 10.6497 20.5372L12.0269 21.3268L13.404 20.5372C13.2727 20.3029 13.0811 20.1079 12.8492 19.9724C12.6172 19.837 12.3532 19.766 12.0847 19.7667ZM20.1259 15.0961H20.068C19.8694 15.0956 19.6726 15.1344 19.4888 15.2102C19.3052 15.286 19.1383 15.3973 18.9979 15.5379C18.8573 15.6783 18.746 15.8452 18.6702 16.0289C18.5944 16.2126 18.5557 16.4094 18.5561 16.6081V16.7236C18.5547 16.9803 18.6212 17.2328 18.7488 17.4555L20.1259 16.6562V15.0961ZM18.7488 6.52526C18.6223 6.74846 18.5559 7.00063 18.5561 7.25714V7.37271C18.5557 7.5714 18.5944 7.76824 18.6702 7.95191C18.746 8.13557 18.8573 8.30245 18.9979 8.44295C19.1383 8.58344 19.3052 8.69479 19.4888 8.7706C19.6726 8.8464 19.8694 8.88516 20.068 8.88465H20.1259V7.31493L18.7488 6.52526ZM12.0269 2.64429L10.6497 3.43396C10.7804 3.66956 10.9716 3.86604 11.2035 4.00316C11.4354 4.14027 11.6997 4.21305 11.9691 4.21401H12.0847C12.3532 4.21482 12.6172 4.14382 12.8492 4.00837C13.0811 3.87291 13.2727 3.67793 13.404 3.44359L12.0269 2.64429ZM5.31462 6.51562L3.9375 7.31493V8.88465H3.99528C4.19397 8.88516 4.39081 8.8464 4.57447 8.7706C4.75814 8.69479 4.92502 8.58344 5.06552 8.44295C5.20601 8.30245 5.31737 8.13557 5.39317 7.95191C5.46897 7.76824 5.50773 7.5714 5.50722 7.37271V7.25714C5.50396 6.99803 5.43787 6.74357 5.31462 6.51562ZM3.99528 15.0961H3.9375V16.6562L5.31462 17.4555C5.44103 17.2323 5.5074 16.9801 5.50722 16.7236V16.6081C5.50773 16.4094 5.46897 16.2126 5.39317 16.0289C5.31737 15.8452 5.20601 15.6783 5.06552 15.5379C4.92502 15.3973 4.75814 15.286 4.57447 15.2102C4.39081 15.1344 4.19397 15.0956 3.99528 15.0961Z" fill="#469EA2"/>
<path d="M12.0269 21.375V12.0241L3.9375 7.35352V16.7044L12.0269 21.375Z" fill="#083B54" fill-opacity="0.15"/>
<path d="M20.1264 16.6176V7.27637L12.0371 11.947V21.2979L20.1264 16.6176Z" fill="#083B54" fill-opacity="0.05"/>
</g>
<defs>
<clipPath id="clip0_872_2511">
<rect width="24" height="24" fill="white"/>
</clipPath>
</defs>
</svg>
