<svg width="25" height="24" viewBox="0 0 25 24" fill="none" xmlns="http://www.w3.org/2000/svg">
<g clip-path="url(#clip0_872_2504)">
<path d="M4.42709 1.93444e-06H20.5729C21.1544 -0.000537727 21.7304 0.111842 22.2677 0.33071C22.8051 0.549578 23.2934 0.870637 23.7046 1.27551C24.1158 1.68039 24.4418 2.16113 24.6641 2.69023C24.8864 3.21933 25.0006 3.7864 25 4.35898V19.641C25.0006 20.2136 24.8864 20.7807 24.6641 21.3098C24.4418 21.8389 24.1158 22.3196 23.7046 22.7245C23.2934 23.1294 22.8051 23.4504 22.2677 23.6693C21.7304 23.8882 21.1544 24.0005 20.5729 24H4.42709C3.84556 24.0005 3.26963 23.8882 2.73227 23.6693C2.1949 23.4504 1.70664 23.1294 1.29544 22.7245C0.884241 22.3196 0.558165 21.8389 0.335877 21.3098C0.11359 20.7807 -0.000546129 20.2136 1.96466e-06 19.641V4.35898C-0.000546129 3.7864 0.11359 3.21933 0.335877 2.69023C0.558165 2.16113 0.884241 1.68039 1.29544 1.27551C1.70664 0.870637 2.1949 0.549578 2.73227 0.33071C3.26963 0.111842 3.84556 -0.000537727 4.42709 1.93444e-06Z" fill="#001E36"/>
<path d="M8.77148 16.9641H2.82357C2.7194 16.9641 2.67773 16.9025 2.67773 16.7794V6.2974C2.67773 6.19483 2.7194 6.15381 2.81315 6.15381H4.6569C4.72982 6.15381 4.76107 6.19483 4.76107 6.26663V14.882H9.0944C9.18815 14.882 9.2194 14.9333 9.19857 15.0256L8.92773 16.8102C8.92628 16.8338 8.92 16.8569 8.90926 16.878C8.89851 16.8992 8.88354 16.918 8.86523 16.9333C8.83783 16.9526 8.80516 16.9633 8.77148 16.9641ZM10.2611 8.75894H11.9069C12.0007 8.75894 12.0632 8.81022 12.1048 8.92304C12.14 8.99801 12.1645 9.07738 12.1777 9.15894C12.1986 9.2615 12.209 9.37432 12.2194 9.47689C12.2298 9.57945 12.2298 9.71278 12.2298 9.84612C12.5036 9.49256 12.8429 9.19326 13.2298 8.96406C13.6509 8.71486 14.1345 8.58694 14.6257 8.59483C14.7194 8.59483 14.7611 8.64612 14.7611 8.73842V10.7384C14.7611 10.8205 14.709 10.8512 14.6152 10.8512C14.0037 10.8062 13.3913 10.9268 12.8444 11.2C12.653 11.296 12.4802 11.4245 12.334 11.5794V16.8102C12.334 16.9128 12.2923 16.9538 12.209 16.9538H10.3965C10.2923 16.9538 10.2507 16.9025 10.2507 16.7897V11.1077C10.2507 10.8615 10.2507 10.6051 10.2402 10.3384C10.2298 10.0718 10.2298 9.80509 10.2194 9.53842C10.209 9.31278 10.1882 9.08714 10.1569 8.8615C10.1538 8.82934 10.1611 8.79702 10.1777 8.76919C10.2033 8.7558 10.233 8.75215 10.2611 8.75894ZM22.1465 7.24099C21.923 7.15179 21.6882 7.09313 21.4486 7.06663C21.0959 7.02569 20.7412 7.00514 20.3861 7.00509C19.3652 7.00509 18.4694 7.22048 17.7298 7.64099C16.9915 8.06482 16.3916 8.68755 16.0007 9.43586C15.5944 10.1948 15.3965 11.0974 15.3965 12.1025C15.3898 12.7117 15.4669 13.3189 15.6257 13.9077C15.7683 14.4088 15.9935 14.8835 16.2923 15.3128C16.5698 15.7073 16.9153 16.051 17.3132 16.3282C17.7127 16.6104 18.1609 16.8189 18.6361 16.9436C19.1314 17.0784 19.6429 17.1474 20.1569 17.1487C20.5158 17.1506 20.8744 17.1267 21.2298 17.0769C21.519 17.0451 21.8026 16.9761 22.0736 16.8718C22.1253 16.847 22.1681 16.8071 22.1961 16.7576C22.224 16.708 22.2358 16.6512 22.2298 16.5948V15.0666C22.2341 15.0388 22.2316 15.0103 22.2225 14.9835C22.2135 14.9568 22.1981 14.9326 22.1777 14.9128C22.1536 14.894 22.1232 14.8846 22.0924 14.8865C22.0616 14.8884 22.0327 14.9014 22.0111 14.923C21.7753 15.0075 21.5308 15.066 21.2819 15.0974C20.9807 15.1264 20.6783 15.1401 20.3757 15.1384C20.1009 15.1369 19.8276 15.0989 19.5632 15.0256C19.2851 14.9527 19.0187 14.8423 18.7715 14.6974C18.515 14.5437 18.292 14.3415 18.1152 14.1025C17.9157 13.8344 17.761 13.5367 17.6569 13.2205C17.5389 12.8313 17.4827 12.4265 17.4902 12.0205C17.4783 11.455 17.5958 10.8941 17.834 10.3794C18.0493 9.9358 18.389 9.56211 18.8132 9.30253C19.2738 9.03667 19.8002 8.90176 20.334 8.91278C20.6623 8.90952 20.9901 8.93699 21.3132 8.99483C21.575 9.03635 21.8283 9.11948 22.0632 9.24099C22.0842 9.25114 22.1074 9.25641 22.1309 9.25641C22.1543 9.25641 22.1775 9.25114 22.1986 9.24099C22.221 9.22234 22.2384 9.19856 22.2493 9.17174C22.2602 9.14491 22.2642 9.11586 22.2611 9.08714V7.48714C22.2678 7.43962 22.2606 7.39119 22.2403 7.34757C22.22 7.30395 22.1875 7.26696 22.1465 7.24099Z" fill="#31A8FF"/>
</g>
<defs>
<clipPath id="clip0_872_2504">
<rect width="25" height="24" fill="white"/>
</clipPath>
</defs>
</svg>
