<svg width="24" height="24" viewBox="0 0 24 24" fill="none" xmlns="http://www.w3.org/2000/svg">
<g clip-path="url(#clip0_872_2594)">
<path d="M18.375 0H5.625C2.5184 0 0 2.5184 0 5.625V18.375C0 21.4816 2.5184 24 5.625 24H18.375C21.4816 24 24 21.4816 24 18.375V5.625C24 2.5184 21.4816 0 18.375 0Z" fill="white"/>
<path d="M18.375 0H5.625C2.5184 0 0 2.5184 0 5.625V18.375C0 21.4816 2.5184 24 5.625 24H18.375C21.4816 24 24 21.4816 24 18.375V5.625C24 2.5184 21.4816 0 18.375 0Z" fill="#0A66C2"/>
<path d="M17.3175 20.408H20.0615C20.2686 20.408 20.4365 20.2401 20.4365 20.0331L20.4379 14.2354C20.4379 11.2051 19.785 8.87582 16.2437 8.87582C14.8976 8.82583 13.6281 9.51974 12.9431 10.6785C12.9376 10.6877 12.9279 10.6933 12.9172 10.6933C12.9007 10.6933 12.8873 10.6799 12.8873 10.6634V9.53062C12.8873 9.32353 12.7195 9.15564 12.5123 9.15564H9.9082C9.70111 9.15564 9.5332 9.32353 9.5332 9.53062V20.0325C9.5332 20.2397 9.70111 20.4075 9.9082 20.4075H12.6521C12.8592 20.4075 13.0271 20.2397 13.0271 20.0325V14.8413C13.0271 13.3734 13.3055 11.9519 15.1253 11.9519C16.9192 11.9519 16.9425 13.6315 16.9425 14.9363V20.033C16.9425 20.2401 17.1104 20.408 17.3175 20.408Z" fill="white"/>
<path d="M3.5625 5.59008C3.5625 6.70238 4.4782 7.61755 5.59051 7.61755C6.7026 7.61745 7.61767 6.70175 7.61767 5.58966C7.61745 4.47757 6.70228 3.5625 5.59008 3.5625C4.47778 3.5625 3.5625 4.47778 3.5625 5.59008Z" fill="white"/>
<path d="M4.21484 20.4081H6.96238C7.1695 20.4081 7.33738 20.2402 7.33738 20.0331V9.53074C7.33738 9.32366 7.1695 9.15576 6.96238 9.15576H4.21484C4.00774 9.15576 3.83984 9.32366 3.83984 9.53074V20.0331C3.83984 20.2402 4.00774 20.4081 4.21484 20.4081Z" fill="white"/>
</g>
<defs>
<clipPath id="clip0_872_2594">
<rect width="24" height="24" fill="white"/>
</clipPath>
</defs>
</svg>
