<svg width="24" height="24" viewBox="0 0 24 24" fill="none" xmlns="http://www.w3.org/2000/svg">
<g clip-path="url(#clip0_872_2638)">
<path d="M18.375 0H5.625C2.5184 0 0 2.5184 0 5.625V18.375C0 21.4816 2.5184 24 5.625 24H18.375C21.4816 24 24 21.4816 24 18.375V5.625C24 2.5184 21.4816 0 18.375 0Z" fill="#F4F2ED"/>
<path d="M20.4679 13.8783C20.2084 15.1914 18.1433 16.6285 15.7717 16.907C14.5349 17.0521 13.3172 17.1855 12.0187 17.1269C9.89531 17.0313 8.21977 16.6285 8.21977 16.6285C8.21977 16.8318 8.23252 17.0254 8.25802 17.2064C8.53408 19.2673 10.336 19.3908 12.0428 19.4483C13.7656 19.5063 15.2996 19.0306 15.2996 19.0306L15.3704 20.5623C15.3704 20.5623 14.1654 21.1987 12.0187 21.3157C10.8351 21.3796 9.36533 21.2864 7.65347 20.8408C3.94073 19.8743 3.30221 15.9823 3.20452 12.0332C3.17474 10.8607 3.1931 9.75506 3.1931 8.83036C3.1931 4.79219 5.88348 3.60854 5.88348 3.60854C7.24003 2.99586 9.56775 2.7382 11.9877 2.71875H12.0472C14.467 2.7382 16.7963 2.99586 18.1528 3.60854C18.1528 3.60854 20.8431 4.79219 20.8431 8.83036C20.8431 8.83036 20.8768 11.8098 20.4679 13.8783Z" fill="#2B90D9"/>
<path d="M17.6695 9.14366V14.0332H15.6997V9.28738C15.6997 8.28696 15.2716 7.77917 14.4155 7.77917C13.4689 7.77917 12.9945 8.38154 12.9945 9.57265V12.1703H11.0364V9.57265C11.0364 8.38154 10.5618 7.77917 9.61523 7.77917C8.75912 7.77917 8.3311 8.28696 8.3311 9.28738V14.0332H6.36133V9.14366C6.36133 8.14434 6.62006 7.35023 7.13975 6.76272C7.67567 6.1752 8.37751 5.87402 9.24873 5.87402C10.2568 5.87402 11.0201 6.25503 11.5247 7.01716L12.0154 7.82601L12.5061 7.01716C13.0108 6.25503 13.7741 5.87402 14.7822 5.87402C15.6533 5.87402 16.3551 6.1752 16.8912 6.76272C17.4107 7.35023 17.6695 8.14434 17.6695 9.14366Z" fill="white"/>
</g>
<defs>
<clipPath id="clip0_872_2638">
<rect width="24" height="24" fill="white"/>
</clipPath>
</defs>
</svg>
