<svg width="24" height="24" viewBox="0 0 24 24" fill="none" xmlns="http://www.w3.org/2000/svg">
<g clip-path="url(#clip0_872_2666)">
<path d="M18.375 0H5.625C2.5184 0 0 2.5184 0 5.625V18.375C0 21.4816 2.5184 24 5.625 24H18.375C21.4816 24 24 21.4816 24 18.375V5.625C24 2.5184 21.4816 0 18.375 0Z" fill="#F4F2ED"/>
<path d="M4.70922 5.0625C4.42617 5.0625 4.15657 5.11061 3.9005 5.2068C3.44224 5.3717 3.06482 5.66717 2.76831 6.09313C2.48526 6.50536 2.34375 6.96568 2.34375 7.4741V16.5022C2.34375 17.1618 2.57286 17.7321 3.03113 18.213C3.50286 18.6802 4.06225 18.9138 4.70922 18.9138C5.36967 18.9138 5.92898 18.6802 6.38724 18.213C6.85898 17.7321 7.09487 17.1618 7.09487 16.5022V14.8605C7.09996 14.5049 7.45921 14.5982 7.64078 14.8605C7.98084 15.4609 8.70179 15.9765 9.54122 15.9736C10.3806 15.9706 11.0778 15.5475 11.4416 14.8605C11.5794 14.6947 11.9679 14.4124 12.0078 14.8605V16.5022C12.0078 17.1618 12.2368 17.7321 12.6952 18.213C13.1668 18.6802 13.7262 18.9138 14.3732 18.9138C15.0337 18.9138 15.593 18.6802 16.0512 18.213C16.523 17.7321 16.7588 17.1618 16.7588 16.5022V7.4741C16.7588 6.96568 16.6106 6.50536 16.3141 6.09313C16.0311 5.66717 15.6604 5.37171 15.2021 5.2068C14.9326 5.11061 14.663 5.0625 14.3934 5.0625C13.6656 5.0625 13.0523 5.35111 12.5536 5.92825L10.153 8.79245C10.0991 8.83367 9.92053 9.14883 9.54113 9.14883C9.16179 9.14883 9.00345 8.83367 8.94952 8.79245L6.5287 5.92825C6.04348 5.35112 5.43696 5.0625 4.70911 5.0625H4.70922ZM19.6675 5.0625C19.1014 5.0625 18.6162 5.26864 18.2119 5.68089C17.8209 6.07938 17.6256 6.56722 17.6256 7.14436C17.6256 7.72148 17.8209 8.21617 18.2119 8.62838C18.6162 9.02687 19.1014 9.22617 19.6675 9.22617C20.2336 9.22617 20.7188 9.02687 21.1232 8.62838C21.5275 8.21617 21.7297 7.72148 21.7297 7.14436C21.7297 6.56722 21.5275 6.07938 21.1232 5.68089C20.7188 5.26867 20.2336 5.0625 19.6675 5.0625ZM19.6877 9.63834C19.1216 9.63834 18.6364 9.8445 18.232 10.2567C17.8277 10.6689 17.6256 11.1637 17.6256 11.7408V16.8319C17.6256 17.409 17.8277 17.9037 18.232 18.3159C18.6364 18.7144 19.1216 18.9137 19.6877 18.9137C20.2537 18.9137 20.7323 18.7144 21.1232 18.3159C21.5275 17.9037 21.7297 17.409 21.7297 16.8319V11.7408C21.7297 11.1637 21.5275 10.6689 21.1232 10.2567C20.7323 9.8445 20.2537 9.63834 19.6877 9.63834Z" fill="#86B300"/>
</g>
<defs>
<clipPath id="clip0_872_2666">
<rect width="24" height="24" fill="white"/>
</clipPath>
</defs>
</svg>
