<svg width="24" height="24" viewBox="0 0 24 24" fill="none" xmlns="http://www.w3.org/2000/svg">
<g clip-path="url(#clip0_872_2681)">
<path d="M18.375 0H5.625C2.5184 0 0 2.5184 0 5.625V18.375C0 21.4816 2.5184 24 5.625 24H18.375C21.4816 24 24 21.4816 24 18.375V5.625C24 2.5184 21.4816 0 18.375 0Z" fill="#F4F2ED"/>
<path fill-rule="evenodd" clip-rule="evenodd" d="M4.3125 6.65684L8.30582 2.625V21.371L4.3125 17.3859V6.65684Z" fill="url(#paint0_linear_872_2681)"/>
<path fill-rule="evenodd" clip-rule="evenodd" d="M19.7413 6.69481L15.6934 2.6272L15.7755 21.3711L19.7689 17.386L19.7413 6.69481Z" fill="url(#paint1_linear_872_2681)"/>
<path fill-rule="evenodd" clip-rule="evenodd" d="M8.3033 2.62817L18.6853 18.4699L15.7801 21.3751L5.39258 5.56831L8.3033 2.62817Z" fill="url(#paint2_linear_872_2681)"/>
<path fill-rule="evenodd" clip-rule="evenodd" d="M8.30682 9.97645L8.30134 10.6005L5.0957 5.86802L5.39257 5.56567L8.30682 9.97645Z" fill="black" fill-opacity="0.13"/>
</g>
<defs>
<linearGradient id="paint0_linear_872_2681" x1="6.30911" y1="2.625" x2="6.30911" y2="21.3711" gradientUnits="userSpaceOnUse">
<stop stop-color="#16B0ED" stop-opacity="0.8"/>
<stop offset="1" stop-color="#0F59B2" stop-opacity="0.837"/>
</linearGradient>
<linearGradient id="paint1_linear_872_2681" x1="17.7309" y1="2.6272" x2="17.7309" y2="21.3711" gradientUnits="userSpaceOnUse">
<stop stop-color="#7DB643"/>
<stop offset="1" stop-color="#367533"/>
</linearGradient>
<linearGradient id="paint2_linear_872_2681" x1="12.0389" y1="2.62817" x2="12.0389" y2="21.376" gradientUnits="userSpaceOnUse">
<stop stop-color="#88C649" stop-opacity="0.8"/>
<stop offset="1" stop-color="#439240" stop-opacity="0.84"/>
</linearGradient>
<clipPath id="clip0_872_2681">
<rect width="24" height="24" fill="white"/>
</clipPath>
</defs>
</svg>
