<svg width="24" height="24" viewBox="0 0 24 24" fill="none" xmlns="http://www.w3.org/2000/svg">
<g clip-path="url(#clip0_872_2740)">
<path d="M18.375 0H5.625C2.5184 0 0 2.5184 0 5.625V18.375C0 21.4816 2.5184 24 5.625 24H18.375C21.4816 24 24 21.4816 24 18.375V5.625C24 2.5184 21.4816 0 18.375 0Z" fill="#001E36"/>
<path d="M5.40039 16.6912V6.4012C5.40039 6.3312 5.43039 6.2912 5.50039 6.2912C5.67039 6.2912 5.83039 6.2912 6.06039 6.2812C6.30039 6.2712 6.55039 6.27119 6.82039 6.2612C7.09039 6.2512 7.38039 6.2512 7.69039 6.24119C8.00039 6.2312 8.30039 6.2312 8.60039 6.2312C9.42038 6.2312 10.1003 6.3312 10.6604 6.5412C11.1604 6.7112 11.6204 6.99119 12.0004 7.3612C12.3204 7.68119 12.5704 8.0712 12.7304 8.5012C12.8804 8.9212 12.9604 9.3512 12.9604 9.80124C12.9604 10.6612 12.7604 11.3712 12.3604 11.9312C11.9604 12.4912 11.4004 12.9112 10.7504 13.1512C10.0703 13.4012 9.32039 13.4912 8.50039 13.4912C8.26039 13.4912 8.10039 13.4912 8.00039 13.4812C7.90039 13.4712 7.76039 13.4712 7.57039 13.4712V16.6812C7.58039 16.7512 7.53039 16.8112 7.46039 16.8212C7.45039 16.8212 7.44039 16.8212 7.42039 16.8212H5.52039C5.44039 16.8212 5.40039 16.7812 5.40039 16.6912ZM7.58039 8.2212V11.5812C7.72039 11.5912 7.85039 11.6012 7.97039 11.6012H8.50039C8.89039 11.6012 9.28039 11.5412 9.65035 11.4212C9.97041 11.3312 10.2503 11.1412 10.4704 10.8912C10.6804 10.6412 10.7804 10.3012 10.7804 9.86124C10.7903 9.55121 10.7104 9.2412 10.5503 8.9712C10.3804 8.7112 10.1404 8.5112 9.85041 8.4012C9.48038 8.25119 9.08039 8.19119 8.67039 8.2012C8.41039 8.2012 8.18039 8.2012 7.99039 8.2112C7.79039 8.2012 7.65039 8.2112 7.58039 8.2212Z" fill="#31A8FF"/>
<path d="M19.2006 10.9712C18.9006 10.8112 18.5806 10.7012 18.2406 10.6312C17.8706 10.5512 17.5006 10.5012 17.1206 10.5012C16.9206 10.4912 16.7106 10.5212 16.5206 10.5712C16.3906 10.6012 16.2806 10.6712 16.2106 10.7712C16.1606 10.8512 16.1306 10.9512 16.1306 11.0412C16.1306 11.1312 16.1706 11.2212 16.2306 11.3012C16.3206 11.4112 16.4406 11.5012 16.5706 11.5712C16.8006 11.6912 17.0406 11.8012 17.2806 11.9012C17.8206 12.0812 18.3406 12.3312 18.8206 12.6312C19.1506 12.8412 19.4206 13.1212 19.6106 13.4612C19.7706 13.7812 19.8506 14.1312 19.8406 14.4912C19.8506 14.9612 19.7106 15.4312 19.4506 15.8212C19.1706 16.2212 18.7806 16.5312 18.3306 16.7112C17.8406 16.9212 17.2406 17.0312 16.5206 17.0312C16.0606 17.0312 15.6106 16.9912 15.1606 16.9012C14.8106 16.8412 14.4606 16.7312 14.1406 16.5812C14.0706 16.5412 14.0206 16.4712 14.0306 16.3912V14.6512C14.0306 14.6212 14.0406 14.5812 14.0706 14.5612C14.1006 14.5412 14.1306 14.5512 14.1606 14.5712C14.5506 14.8012 14.9606 14.9612 15.4006 15.0612C15.7806 15.1612 16.1806 15.2112 16.5806 15.2112C16.9606 15.2112 17.2306 15.1612 17.4106 15.0712C17.5706 15.0012 17.6806 14.8312 17.6806 14.6512C17.6806 14.5112 17.6006 14.3812 17.4406 14.2512C17.2806 14.1212 16.9506 13.9712 16.4606 13.7812C15.9506 13.6012 15.4806 13.3612 15.0406 13.0612C14.7306 12.8412 14.4706 12.5512 14.2806 12.2112C14.1206 11.8912 14.0406 11.5412 14.0506 11.1912C14.0506 10.7612 14.1706 10.3512 14.3906 9.98122C14.6406 9.58119 15.0106 9.26118 15.4406 9.06118C15.9106 8.82118 16.5006 8.71118 17.2106 8.71118C17.6206 8.71118 18.0406 8.74118 18.4506 8.80118C18.7506 8.84118 19.0406 8.92118 19.3106 9.03118C19.3506 9.04118 19.3906 9.08118 19.4106 9.12118C19.4206 9.16118 19.4306 9.20118 19.4306 9.24118V10.8712C19.4306 10.9112 19.4106 10.9512 19.3806 10.9712C19.2906 10.9912 19.2406 10.9912 19.2006 10.9712Z" fill="#31A8FF"/>
</g>
<defs>
<clipPath id="clip0_872_2740">
<rect width="24" height="24" fill="white"/>
</clipPath>
</defs>
</svg>
