<svg width="24" height="24" viewBox="0 0 24 24" fill="none" xmlns="http://www.w3.org/2000/svg">
<g clip-path="url(#clip0_872_2785)">
<path d="M18.375 0H5.625C2.5184 0 0 2.5184 0 5.625V18.375C0 21.4816 2.5184 24 5.625 24H18.375C21.4816 24 24 21.4816 24 18.375V5.625C24 2.5184 21.4816 0 18.375 0Z" fill="#FF6C37"/>
<path d="M15.8497 8.30751L11.1116 13.0457L9.77539 11.7096C14.435 7.04998 14.8955 7.45418 15.8497 8.30751Z" fill="#EEEEEE"/>
<path d="M11.1121 13.1578C11.0783 13.1578 11.0559 13.1467 11.0334 13.1242L9.68602 11.788C9.64112 11.7431 9.64112 11.6758 9.68602 11.6309C14.4242 6.89262 14.9182 7.34175 15.9176 8.24C15.9401 8.26247 15.9512 8.28493 15.9512 8.31861C15.9512 8.35231 15.9401 8.37476 15.9176 8.39715L11.1794 13.1242C11.1682 13.1467 11.1345 13.1578 11.1121 13.1578ZM9.93305 11.7095L11.1121 12.8884L15.6818 8.31861C14.851 7.57751 14.2895 7.35298 9.93305 11.7095Z" fill="#FF6C37"/>
<path d="M12.469 14.4041L11.1777 13.1129L15.916 8.37476C17.1848 9.65468 15.2872 11.7319 12.469 14.4041Z" fill="#EEEEEE"/>
<path d="M12.4704 14.5165C12.4367 14.5165 12.4143 14.5052 12.3918 14.4827L11.1006 13.1915C11.0781 13.1691 11.0781 13.1466 11.0781 13.113C11.0781 13.0792 11.0894 13.0568 11.1119 13.0343L15.85 8.29614C15.8949 8.25122 15.9623 8.25122 16.0072 8.29614C16.2992 8.56559 16.4564 8.94733 16.4451 9.34031C16.4227 10.5866 15.0079 12.1697 12.5602 14.4827C12.5266 14.5052 12.4928 14.5165 12.4704 14.5165ZM11.3364 13.113C12.0549 13.8427 12.3582 14.1347 12.4704 14.247C14.3567 12.4505 16.1868 10.6091 16.1981 9.34031C16.2093 9.0484 16.0971 8.7565 15.9062 8.5319L11.3364 13.113Z" fill="#FF6C37"/>
<path d="M9.79757 11.7432L10.752 12.6976C10.7744 12.7201 10.7744 12.7425 10.752 12.765C10.7407 12.7763 10.7407 12.7763 10.7295 12.7763L8.75332 13.2029C8.65232 13.2142 8.56248 13.1468 8.54003 13.0457C8.5288 12.9895 8.55126 12.9335 8.58495 12.8997L9.73017 11.7545C9.75267 11.732 9.78633 11.7207 9.79757 11.7432Z" fill="#EEEEEE"/>
<path d="M8.71964 13.315C8.55127 13.315 8.42773 13.1802 8.42773 13.0117C8.42773 12.9333 8.46143 12.8546 8.51757 12.7985L9.66277 11.6532C9.73017 11.597 9.82008 11.597 9.88739 11.6532L10.8418 12.6076C10.9091 12.6637 10.9091 12.7648 10.8418 12.8321C10.8193 12.8546 10.7969 12.8659 10.7631 12.8771L8.78702 13.3038C8.76456 13.3038 8.7421 13.315 8.71964 13.315ZM9.76393 11.8665L8.66356 12.9668C8.64111 12.9893 8.62988 13.023 8.65233 13.0566C8.66356 13.0904 8.69718 13.1016 8.73087 13.0904L10.5835 12.6861L9.76393 11.8665Z" fill="#FF6C37"/>
<path d="M18.3537 5.68014C17.6351 4.98403 16.4786 5.00649 15.7824 5.7363C15.0863 6.4661 15.1088 7.61134 15.8386 8.30752C16.4337 8.88011 17.332 8.98118 18.0393 8.55451L16.7593 7.27451L18.3537 5.68014Z" fill="#EEEEEE"/>
<path d="M17.0952 8.92496C16.0286 8.92496 15.1641 8.0604 15.1641 6.99377C15.1641 5.92706 16.0286 5.0625 17.0952 5.0625C17.5893 5.0625 18.0721 5.25341 18.4313 5.60147C18.4538 5.62393 18.4651 5.64638 18.4651 5.68008C18.4651 5.71377 18.4538 5.73622 18.4313 5.75869L16.9156 7.27445L18.1058 8.4646C18.1508 8.50953 18.1508 8.57691 18.1058 8.62182C18.0946 8.63305 18.0946 8.63305 18.0833 8.64428C17.7914 8.82389 17.4433 8.92496 17.0952 8.92496ZM17.0952 5.29833C16.1521 5.29833 15.3886 6.06183 15.3998 7.005C15.3998 7.94817 16.1633 8.71166 17.1065 8.70044C17.3648 8.70044 17.6229 8.64428 17.8587 8.52075L16.6798 7.35306C16.6573 7.33059 16.6462 7.30813 16.6462 7.27445C16.6462 7.24075 16.6573 7.21829 16.6798 7.19584L18.1844 5.69131C17.8812 5.43309 17.4995 5.29833 17.0952 5.29833Z" fill="#FF6C37"/>
<path d="M18.3878 5.71387L18.3654 5.69141L16.7598 7.27454L18.0286 8.54332C18.1521 8.46471 18.2755 8.37494 18.3767 8.27387C19.0952 7.56645 19.0952 6.42121 18.3878 5.71387Z" fill="#EEEEEE"/>
<path d="M18.0388 8.66659C18.005 8.66659 17.9826 8.65536 17.9601 8.63291L16.6801 7.3529C16.6576 7.33044 16.6465 7.30799 16.6465 7.27429C16.6465 7.2406 16.6576 7.21814 16.6801 7.19568L18.2745 5.60131C18.3195 5.5564 18.3868 5.5564 18.4317 5.60131L18.4654 5.62378C19.2177 6.37604 19.2177 7.58866 18.4767 8.35223C18.3644 8.46446 18.2408 8.56552 18.1061 8.64414C18.0724 8.65536 18.05 8.66659 18.0388 8.66659ZM16.9159 7.27429L18.05 8.4083C18.1398 8.35223 18.2296 8.27362 18.297 8.20624C18.937 7.5662 18.9706 6.52203 18.3531 5.84837L16.9159 7.27429Z" fill="#FF6C37"/>
<path d="M16.04 8.50946C15.7704 8.24001 15.3325 8.24001 15.0631 8.50946L10.8301 12.7424L11.5375 13.4498L16.0175 9.52005C16.3094 9.27295 16.3318 8.83505 16.0849 8.54314C16.0624 8.53192 16.0511 8.52069 16.04 8.50946Z" fill="#EEEEEE"/>
<path d="M11.5267 13.5621C11.4931 13.5621 11.4706 13.5508 11.4481 13.5284L10.7407 12.8211C10.6958 12.7762 10.6958 12.7087 10.7407 12.6638L14.9736 8.43084C15.2881 8.11648 15.7933 8.11648 16.1077 8.43084C16.4221 8.74528 16.4221 9.25049 16.1077 9.56493C16.0966 9.57618 16.0853 9.58734 16.0741 9.59859L11.594 13.5284C11.5829 13.5508 11.5604 13.5621 11.5267 13.5621ZM10.9877 12.7424L11.538 13.2926L15.9393 9.43012C16.1863 9.22802 16.2088 8.85751 16.0066 8.61052C15.8045 8.36354 15.434 8.34107 15.187 8.54314C15.1758 8.55437 15.1646 8.5656 15.1421 8.57683L10.9877 12.7424Z" fill="#FF6C37"/>
<path d="M7.58509 17.5594C7.54017 17.5818 7.51771 17.6267 7.52894 17.6716L7.71985 18.4801C7.76478 18.5923 7.69739 18.7272 7.57386 18.7608C7.48402 18.7945 7.38303 18.7608 7.32688 18.6935L6.0918 17.4696L10.1226 13.4387L11.5149 13.4611L12.458 14.4043C12.2335 14.5952 10.8749 15.9088 7.58509 17.5594Z" fill="#EEEEEE"/>
<path d="M7.49525 18.8728C7.40548 18.8728 7.31564 18.8391 7.25949 18.7718L6.03564 17.5479C6.01318 17.5255 6.00195 17.503 6.00195 17.4694C6.00195 17.4357 6.01318 17.4132 6.03564 17.3907L10.0665 13.3599C10.089 13.3374 10.1226 13.3262 10.1451 13.3262L11.5374 13.3487C11.5711 13.3487 11.5935 13.3599 11.6159 13.3823L12.5591 14.3255C12.5816 14.348 12.5928 14.3816 12.5928 14.4153C12.5928 14.449 12.5816 14.4714 12.5479 14.4939L12.4693 14.5613C11.2791 15.6054 9.66223 16.6497 7.65247 17.649L7.84338 18.4461C7.87699 18.5921 7.80969 18.7493 7.67493 18.8279C7.60754 18.8615 7.5514 18.8728 7.49525 18.8728ZM6.26017 17.4694L7.41671 18.6146C7.45032 18.6708 7.5177 18.6932 7.57386 18.6595C7.63001 18.6259 7.65247 18.5585 7.61878 18.5023L7.42794 17.6939C7.40548 17.5928 7.45033 17.503 7.54017 17.4581C9.52751 16.4588 11.1332 15.4259 12.3121 14.4041L11.4813 13.5732L10.19 13.5507L6.26017 17.4694Z" fill="#FF6C37"/>
<path d="M5.13794 18.4351L6.10358 17.4695L7.54072 18.9067L5.25024 18.7495C5.14917 18.7383 5.08179 18.6485 5.09302 18.5473C5.09302 18.5024 5.10425 18.4575 5.13794 18.4351Z" fill="#EEEEEE"/>
<path d="M7.54076 19.0077L5.23904 18.8505C5.07059 18.8392 4.95829 18.6933 4.96952 18.5249C4.98075 18.4575 5.00322 18.3902 5.05936 18.3453L6.025 17.3796C6.06992 17.3347 6.1373 17.3347 6.18215 17.3796L7.61937 18.8168C7.65306 18.8505 7.66429 18.8954 7.64183 18.9404C7.61937 18.9853 7.58568 19.0077 7.54076 19.0077ZM6.10361 17.6267L5.21658 18.5136C5.1829 18.5361 5.1829 18.5923 5.21658 18.6147C5.22781 18.6259 5.23904 18.6372 5.26151 18.6372L7.24885 18.7719L6.10361 17.6267Z" fill="#FF6C37"/>
<path d="M9.7295 13.9551C9.66209 13.9551 9.61719 13.8989 9.61719 13.8428C9.61719 13.8091 9.62844 13.7867 9.65094 13.7642L10.74 12.6751C10.7849 12.6301 10.8523 12.6301 10.8972 12.6751L11.6046 13.3825C11.6382 13.4161 11.6495 13.4498 11.6382 13.4948C11.627 13.5284 11.5933 13.5621 11.5485 13.5733L9.752 13.9551C9.74075 13.9551 9.7295 13.9551 9.7295 13.9551ZM10.8186 12.9109L10.0776 13.652L11.2902 13.3936L10.8186 12.9109Z" fill="#FF6C37"/>
<path d="M11.5155 13.461L10.2804 13.7305C10.1906 13.753 10.1007 13.6969 10.0783 13.607C10.067 13.5509 10.0783 13.4947 10.1232 13.4498L10.808 12.7649L11.5155 13.461Z" fill="#EEEEEE"/>
<path d="M10.2572 13.8428C10.1 13.8428 9.97656 13.7193 9.97656 13.5621C9.97656 13.4835 10.0102 13.4161 10.0551 13.36L10.7401 12.6751C10.785 12.6301 10.8524 12.6301 10.8973 12.6751L11.6046 13.3825C11.6383 13.4161 11.6495 13.4498 11.6383 13.4948C11.627 13.5284 11.5934 13.5621 11.5486 13.5733L10.3134 13.8428C10.291 13.8428 10.2685 13.8428 10.2572 13.8428ZM10.8186 12.9109L10.2123 13.5172C10.1899 13.5397 10.1899 13.5621 10.2011 13.5846C10.2123 13.607 10.2348 13.6182 10.2685 13.6182L11.3014 13.3936L10.8186 12.9109Z" fill="#FF6C37"/>
<path d="M18.3991 6.79152C18.3767 6.72421 18.298 6.69052 18.2306 6.71299C18.1633 6.73536 18.1297 6.81397 18.1522 6.88136C18.1522 6.89259 18.1633 6.90382 18.1633 6.91505C18.2306 7.04981 18.2083 7.21819 18.1184 7.34171C18.0735 7.39787 18.0848 7.47648 18.1297 7.52139C18.1858 7.56624 18.2644 7.55509 18.3093 7.49894C18.4778 7.28556 18.5114 7.01612 18.3991 6.79152Z" fill="#FF6C37"/>
</g>
<defs>
<clipPath id="clip0_872_2785">
<rect width="24" height="24" fill="white"/>
</clipPath>
</defs>
</svg>
