<svg width="24" height="24" viewBox="0 0 24 24" fill="none" xmlns="http://www.w3.org/2000/svg">
<g clip-path="url(#clip0_872_2815)">
<path d="M18.375 0H5.625C2.5184 0 0 2.5184 0 5.625V18.375C0 21.4816 2.5184 24 5.625 24H18.375C21.4816 24 24 21.4816 24 18.375V5.625C24 2.5184 21.4816 0 18.375 0Z" fill="#00005B"/>
<path d="M5.0625 17.1262V6.82625C5.0625 6.75625 5.0925 6.71625 5.1625 6.71625C5.3325 6.71625 5.4925 6.71625 5.7225 6.70625C5.9625 6.69625 6.2125 6.69625 6.4825 6.68625C6.7525 6.67625 7.0425 6.67625 7.3525 6.66625C7.6625 6.65625 7.9625 6.65625 8.2625 6.65625C9.0825 6.65625 9.76247 6.75625 10.3225 6.96625C10.8225 7.13625 11.2825 7.41625 11.6625 7.78625C11.9825 8.10625 12.2325 8.49625 12.3925 8.92625C12.5425 9.34625 12.6225 9.77625 12.6225 10.2262C12.6225 11.0862 12.4225 11.7963 12.0225 12.3562C11.6225 12.9162 11.0625 13.3362 10.4125 13.5762C9.73247 13.8262 8.9825 13.9162 8.1625 13.9162C7.9225 13.9162 7.7625 13.9162 7.6625 13.9062C7.5625 13.8963 7.4225 13.8963 7.2325 13.8963V17.1063C7.2425 17.1762 7.1925 17.2362 7.1225 17.2463H7.0825H5.1825C5.1025 17.2463 5.0625 17.2062 5.0625 17.1162V17.1262ZM7.2425 8.65625V12.0162C7.3825 12.0262 7.5125 12.0363 7.6325 12.0363H8.1625C8.5525 12.0363 8.9425 11.9763 9.3125 11.8563C9.63253 11.7663 9.91247 11.5763 10.1325 11.3262C10.3425 11.0763 10.4425 10.7362 10.4425 10.2963C10.4525 9.98625 10.3725 9.67622 10.2125 9.40622C10.0425 9.14625 9.8025 8.94625 9.51253 8.83625C9.1425 8.68625 8.7425 8.62625 8.3325 8.63625C8.0725 8.63625 7.8425 8.63625 7.6525 8.64625C7.4525 8.63625 7.3125 8.64625 7.2425 8.65625Z" fill="#9999FF"/>
<path d="M14.0628 9.24623H15.8128C15.9129 9.24623 15.9928 9.31622 16.0228 9.4062C16.0528 9.48626 16.0728 9.56623 16.0828 9.65623C16.1028 9.75626 16.1229 9.86623 16.1328 9.96626C16.1428 10.0762 16.1529 10.1962 16.1529 10.3263C16.4529 9.9762 16.8129 9.68623 17.2228 9.4662C17.6829 9.20623 18.2128 9.07622 18.7428 9.07622C18.8128 9.06623 18.8728 9.11623 18.8829 9.18623V9.22622V11.1762C18.8829 11.2563 18.8328 11.2863 18.7228 11.2863C18.3628 11.2762 17.9928 11.3062 17.6428 11.3862C17.3529 11.4462 17.0728 11.5362 16.8028 11.6562C16.6128 11.7462 16.4328 11.8662 16.2928 12.0262V17.1262C16.2928 17.2263 16.2528 17.2662 16.1628 17.2662H14.1928C14.1129 17.2762 14.0428 17.2263 14.0328 17.1462V17.1063V11.5662C14.0328 11.3262 14.0328 11.0763 14.0229 10.8162C14.0128 10.5562 14.0128 10.2963 14.0028 10.0362C14.0028 9.80623 13.9828 9.5862 13.9629 9.35623C13.9528 9.30623 13.9828 9.25622 14.0328 9.24623C14.0328 9.23623 14.0529 9.23623 14.0628 9.24623Z" fill="#9999FF"/>
</g>
<defs>
<clipPath id="clip0_872_2815">
<rect width="24" height="24" fill="white"/>
</clipPath>
</defs>
</svg>
