<svg width="24" height="24" viewBox="0 0 24 24" fill="none" xmlns="http://www.w3.org/2000/svg">
<g clip-path="url(#clip0_872_2953)">
<path d="M18.375 0H5.625C2.5184 0 0 2.5184 0 5.625V18.375C0 21.4816 2.5184 24 5.625 24H18.375C21.4816 24 24 21.4816 24 18.375V5.625C24 2.5184 21.4816 0 18.375 0Z" fill="#F4F4ED"/>
<path d="M4.96875 4.61719C4.96875 4.03472 5.44097 3.5625 6.02344 3.5625H10.9453C11.5278 3.5625 12 4.03472 12 4.61719V9.18751H6.02344C5.44097 9.18751 4.96875 8.71529 4.96875 8.13282V4.61719Z" fill="#F26207"/>
<path d="M12 9.18774H17.9766C18.559 9.18774 19.0312 9.65996 19.0312 10.2424V13.7581C19.0312 14.3405 18.559 14.8127 17.9766 14.8127H12V9.18774Z" fill="#F26207"/>
<path d="M4.96875 15.8672C4.96875 15.2847 5.44097 14.8125 6.02344 14.8125H12V19.3828C12 19.9653 11.5278 20.4375 10.9453 20.4375H6.02344C5.44097 20.4375 4.96875 19.9653 4.96875 19.3828V15.8672Z" fill="#F26207"/>
</g>
<defs>
<clipPath id="clip0_872_2953">
<rect width="24" height="24" fill="white"/>
</clipPath>
</defs>
</svg>
