<svg width="24" height="24" viewBox="0 0 24 24" fill="none" xmlns="http://www.w3.org/2000/svg">
<g clip-path="url(#clip0_872_3029)">
<mask id="mask0_872_3029" style="mask-type:luminance" maskUnits="userSpaceOnUse" x="0" y="0" width="24" height="24">
<path d="M18.375 0H5.625C2.5184 0 0 2.5184 0 5.625V18.375C0 21.4816 2.5184 24 5.625 24H18.375C21.4816 24 24 21.4816 24 18.375V5.625C24 2.5184 21.4816 0 18.375 0Z" fill="white"/>
</mask>
<g mask="url(#mask0_872_3029)">
<path d="M18.375 0H5.625C2.5184 0 0 2.5184 0 5.625V18.375C0 21.4816 2.5184 24 5.625 24H18.375C21.4816 24 24 21.4816 24 18.375V5.625C24 2.5184 21.4816 0 18.375 0Z" fill="#59B943"/>
<path fill-rule="evenodd" clip-rule="evenodd" d="M21.9165 -0.5625H24V24.4688H23.8063C23.8553 24.4688 23.9021 24.4493 23.9368 24.4148C23.9714 24.3803 23.9908 24.3335 23.9908 24.2847V3.16274C24.0055 3.11978 24.0024 3.07277 23.9824 3.03203C23.9623 2.99131 23.9269 2.9602 23.8837 2.94556C23.8407 2.93092 23.7936 2.93393 23.7528 2.95395C23.7119 2.97397 23.6807 3.00935 23.6661 3.0523L15.9152 11.7323C15.8931 11.7562 15.8662 11.7752 15.8363 11.7882C15.8065 11.8012 15.7743 11.8079 15.7417 11.8079C15.7091 11.8079 15.6769 11.8012 15.647 11.7882C15.6172 11.7752 15.5903 11.7562 15.5682 11.7323L11.6116 7.66101C11.578 7.61922 11.5597 7.56728 11.5597 7.51376C11.5597 7.46023 11.578 7.4083 11.6116 7.36652L12.9181 5.69531C12.94 5.66491 12.9688 5.64014 13.0022 5.62306C13.0356 5.60598 13.0726 5.59706 13.1101 5.59706C13.1476 5.59706 13.1845 5.60598 13.2179 5.62306C13.2513 5.64014 13.2802 5.66491 13.302 5.69531L15.5166 8.13954C15.5387 8.16586 15.5663 8.18702 15.5977 8.20154C15.6289 8.21605 15.6629 8.22358 15.6974 8.22358C15.7318 8.22358 15.7659 8.21605 15.7972 8.20154C15.8284 8.18702 15.856 8.16586 15.8783 8.13954L22.0494 -0.297463C22.0666 -0.322397 22.0767 -0.351461 22.0789 -0.381635C22.0809 -0.411809 22.0748 -0.441992 22.0613 -0.469044C22.0478 -0.496098 22.0271 -0.519034 22.0017 -0.535469C21.9762 -0.551903 21.9469 -0.561237 21.9165 -0.5625ZM0.184545 -0.5625H0V-0.378446C0 -0.427261 0.0194431 -0.474075 0.0540519 -0.508592C0.0886608 -0.543109 0.1356 -0.5625 0.184545 -0.5625ZM0 24.2847V24.4688H0.184545C0.1356 24.4688 0.0886608 24.4493 0.0540519 24.4148C0.0194431 24.3803 0 24.3335 0 24.2847ZM15.8407 15.285C15.3825 15.2711 14.9358 15.4291 14.5893 15.7276C14.2428 16.026 14.022 16.443 13.9706 16.8958C13.9684 16.9046 13.9682 16.9138 13.9701 16.9226C13.9719 16.9315 13.9759 16.9398 13.9816 16.9469C13.9873 16.9539 13.9945 16.9596 14.0029 16.9634C14.0111 16.9672 14.0202 16.969 14.0293 16.9688H17.6596C17.6679 16.9688 17.6763 16.9671 17.6839 16.9637C17.6916 16.9603 17.6984 16.9553 17.7039 16.9492C17.7095 16.943 17.7137 16.9357 17.7161 16.9277C17.7186 16.9197 17.7193 16.9114 17.7183 16.9031C17.6826 16.4422 17.4654 16.0137 17.114 15.7107C16.7625 15.4078 16.305 15.2548 15.8407 15.285ZM2.45076 20.2503C3.61714 21.2723 5.1372 21.8006 6.6879 21.7227H6.68052C9.47822 21.7227 10.8291 20.2944 10.8291 18.4244C10.8291 16.0791 8.64666 15.5566 6.92538 15.1445C5.80462 14.8761 4.87937 14.6546 4.87937 14.0072C4.87937 13.3887 5.41086 12.9691 6.35573 12.9691C7.38434 12.9595 8.38505 13.3026 9.19033 13.9409C9.21413 13.9613 9.24187 13.9764 9.27182 13.9856C9.30176 13.9948 9.33328 13.9978 9.36442 13.9943C9.39553 13.9909 9.42562 13.9811 9.45291 13.9656C9.48009 13.9501 9.50372 13.9291 9.52247 13.9041L10.4304 12.6452C10.4715 12.6026 10.4945 12.5459 10.4945 12.4868C10.4945 12.4279 10.4715 12.3712 10.4304 12.3286C9.33835 11.4433 7.96148 10.983 6.55503 11.0329C4.10427 11.0329 2.62792 12.4612 2.62792 14.1765C2.62792 16.4829 4.7278 16.9803 6.43564 17.3847C7.6061 17.6619 8.5924 17.8955 8.5924 18.638C8.5924 19.2269 8.00186 19.7864 6.79125 19.7864C5.6418 19.79 4.53382 19.3584 3.6909 18.579C3.66483 18.5632 3.63584 18.5527 3.60564 18.5482C3.57545 18.5437 3.54465 18.5452 3.51507 18.5528C3.48549 18.5603 3.45773 18.5737 3.43341 18.5921C3.40909 18.6106 3.38872 18.6337 3.37348 18.66L2.45076 19.9484C2.4139 19.9901 2.39358 20.0438 2.39358 20.0993C2.39358 20.1549 2.4139 20.2086 2.45076 20.2503ZM19.681 18.2174C19.6911 18.1919 19.6957 18.1646 19.6946 18.1373L19.6872 17.9017C19.6872 15.3912 18.1297 13.6759 15.8339 13.6759C15.3042 13.6667 14.7781 13.7647 14.2873 13.9641C13.7966 14.1634 13.3516 14.4599 12.979 14.8356C12.6064 15.2113 12.3141 15.6585 12.1196 16.15C11.9252 16.6416 11.8328 17.1674 11.8477 17.6956C11.8264 18.2368 11.9186 18.7764 12.1185 19.2801C12.3185 19.7836 12.6217 20.24 13.0088 20.6198C13.3959 20.9997 13.8584 21.2947 14.3665 21.4858C14.8747 21.6771 15.4172 21.7602 15.9594 21.73C17.0449 21.7573 18.1089 21.426 18.986 20.7877C19.0258 20.7558 19.0523 20.7103 19.0606 20.66C19.0688 20.6096 19.058 20.5582 19.0302 20.5153L18.3659 19.5508C18.3505 19.5272 18.3303 19.5071 18.3066 19.4918C18.2828 19.4767 18.2561 19.4666 18.2283 19.4624C18.2003 19.4583 18.1718 19.4601 18.1447 19.4677C18.1175 19.4753 18.0923 19.4886 18.0706 19.5067C17.5163 19.8955 16.8584 20.1108 16.1809 20.1251C15.6646 20.1676 15.1509 20.0159 14.7412 19.6999C14.3313 19.3838 14.0549 18.9262 13.9663 18.4171C13.9653 18.4084 13.966 18.3996 13.9685 18.3911C13.9709 18.3827 13.9749 18.3748 13.9805 18.368C13.9859 18.3611 13.9928 18.3554 14.0004 18.3512C14.0082 18.347 14.0167 18.3443 14.0254 18.3435H19.4879C19.5154 18.3445 19.5427 18.3398 19.5682 18.3299C19.5938 18.3199 19.617 18.3047 19.6364 18.2854C19.6558 18.2661 19.671 18.2429 19.681 18.2174Z" fill="white"/>
</g>
</g>
<defs>
<clipPath id="clip0_872_3029">
<rect width="24" height="24" fill="white"/>
</clipPath>
</defs>
</svg>
