<svg width="24" height="24" viewBox="0 0 24 24" fill="none" xmlns="http://www.w3.org/2000/svg">
<g clip-path="url(#clip0_872_3036)">
<path d="M18.375 0H5.625C2.5184 0 0 2.5184 0 5.625V18.375C0 21.4816 2.5184 24 5.625 24H18.375C21.4816 24 24 21.4816 24 18.375V5.625C24 2.5184 21.4816 0 18.375 0Z" fill="#584674"/>
<path d="M12.7673 4.79782C13.0041 4.9316 13.2023 5.1243 13.3426 5.35724L20.2281 17.1449C20.3653 17.3783 20.4377 17.6443 20.4375 17.9152C20.4383 18.1203 20.3986 18.3234 20.3204 18.5131C20.2423 18.7027 20.1273 18.8749 19.9822 19.0197C19.8369 19.1646 19.6645 19.2792 19.4747 19.3569C19.2849 19.4347 19.0817 19.474 18.8767 19.4727H17.2617C17.282 19.0448 17.282 18.6157 17.2617 18.1854H18.8698C18.9151 18.1865 18.9597 18.1754 18.9993 18.1537C19.0389 18.1318 19.072 18.0999 19.0954 18.0611C19.1186 18.0224 19.1313 17.9783 19.132 17.933C19.1328 17.8878 19.1216 17.8432 19.0996 17.8037C18.9746 17.6686 12.2986 6.01943 12.1195 5.92146C12.0604 5.88682 11.9899 5.87696 11.9234 5.89404C11.857 5.91113 11.8 5.95376 11.7649 6.01268L10.1871 8.71549C11.9706 9.86456 13.4212 11.4615 14.3941 13.3468C15.367 15.2321 15.8281 17.3398 15.7313 19.4592H11.5722C11.6682 18.0601 11.3978 16.6602 10.7875 15.3977C10.1772 14.1351 9.24832 13.0535 8.09238 12.2596L7.31194 13.611C8.22789 14.2705 8.95797 15.1554 9.43153 16.18C9.90506 17.2046 10.106 18.3341 10.0148 19.4592H5.10577C4.83817 19.4576 4.57538 19.3879 4.34222 19.2564C4.16527 19.1566 4.00993 19.0224 3.88523 18.862C3.76053 18.7015 3.66896 18.518 3.61584 18.3218C3.56272 18.1256 3.5491 17.9209 3.57578 17.7194C3.60246 17.5179 3.66891 17.3238 3.77125 17.1483L4.7544 15.459C5.16846 15.6026 5.55307 15.8201 5.88958 16.1009L4.8963 17.7902C4.87657 17.828 4.86655 17.8701 4.86715 17.9126C4.86775 17.9553 4.87894 17.9971 4.89971 18.0343C4.9205 18.0715 4.95022 18.1029 4.98619 18.1258C5.02216 18.1487 5.06326 18.1622 5.10577 18.1652H8.69037C8.55693 17.2734 8.2014 16.4294 7.6565 15.711C7.11159 14.9925 6.39478 14.4226 5.57201 14.0535L7.62953 10.496C9.09311 11.2099 10.3448 12.2937 11.261 13.64C12.1771 14.9863 12.7257 16.5485 12.8528 18.1719H14.4136C14.2864 16.278 13.666 14.4502 12.6141 12.8702C11.562 11.2901 10.1151 10.0127 8.41672 9.16483L10.6398 5.35724C10.7801 5.1243 10.9783 4.9316 11.2151 4.79782C11.4518 4.66404 11.7192 4.59375 11.9912 4.59375C12.2632 4.59375 12.5305 4.66404 12.7673 4.79782Z" fill="white"/>
</g>
<defs>
<clipPath id="clip0_872_3036">
<rect width="24" height="24" fill="white"/>
</clipPath>
</defs>
</svg>
