<svg width="24" height="24" viewBox="0 0 24 24" fill="none" xmlns="http://www.w3.org/2000/svg">
<g clip-path="url(#clip0_872_3068)">
<path d="M18.375 0H5.625C2.5184 0 0 2.5184 0 5.625V18.375C0 21.4816 2.5184 24 5.625 24H18.375C21.4816 24 24 21.4816 24 18.375V5.625C24 2.5184 21.4816 0 18.375 0Z" fill="#F4F2ED"/>
<path d="M15.0015 1.78125L2.625 3.39413V3.48758L4.41285 14.1741L6.95365 22.1461L20.0099 18.4283L21.375 6.78261L15.0015 1.78125ZM14.6697 3.01801L19.814 7.06097L15.2427 7.883L12.4526 4.97934L4.68398 6.11078L3.97551 4.41444L14.6697 3.01801ZM12.5582 8.1095L15.2059 11.4124L10.9139 12.326L9.88819 10.5604L5.93543 11.3303L5.21892 9.40678L12.5582 8.1095ZM10.1823 14.0609L11.1558 15.9767L7.18874 16.9645L6.48671 14.9052L10.1823 14.0609Z" fill="#E7242D"/>
</g>
<defs>
<clipPath id="clip0_872_3068">
<rect width="24" height="24" fill="white"/>
</clipPath>
</defs>
</svg>
