<svg width="24" height="24" viewBox="0 0 24 24" fill="none" xmlns="http://www.w3.org/2000/svg">
<g clip-path="url(#clip0_872_3071)">
<path d="M18.375 0H5.625C2.5184 0 0 2.5184 0 5.625V18.375C0 21.4816 2.5184 24 5.625 24H18.375C21.4816 24 24 21.4816 24 18.375V5.625C24 2.5184 21.4816 0 18.375 0Z" fill="#65AFFF"/>
<path opacity="0.45" d="M15.519 2.34375L12.0006 7.85531H4.96875L8.48469 2.34375H15.519Z" fill="black"/>
<path opacity="0.6" d="M12.0002 7.85531H19.0346L15.5187 2.34375H8.48438L12.0002 7.85531Z" fill="black"/>
<path opacity="0.8" d="M8.48469 13.3647L12.0006 7.85531L8.48469 2.34375L4.96875 7.85531L8.48469 13.3647Z" fill="black"/>
<path opacity="0.45" d="M8.51953 21.6322L12.0379 16.1206H19.0722L15.5538 21.6322H8.51953Z" fill="black"/>
<path opacity="0.6" d="M12.0363 16.1206H5.00195L8.51787 21.6322H15.5522L12.0363 16.1206Z" fill="black"/>
<path opacity="0.8" d="M15.553 10.6111L12.0371 16.1205L15.553 21.6321L19.0714 16.1205L15.553 10.6111Z" fill="black"/>
</g>
<defs>
<clipPath id="clip0_872_3071">
<rect width="24" height="24" fill="white"/>
</clipPath>
</defs>
</svg>
