<svg width="24" height="24" viewBox="0 0 24 24" fill="none" xmlns="http://www.w3.org/2000/svg">
<g clip-path="url(#clip0_872_3099)">
<path d="M18.375 0H5.625C2.5184 0 0 2.5184 0 5.625V18.375C0 21.4816 2.5184 24 5.625 24H18.375C21.4816 24 24 21.4816 24 18.375V5.625C24 2.5184 21.4816 0 18.375 0Z" fill="#F4F2ED"/>
<path d="M17.207 19.3479V14.7871H19.2339V21.3749H4.03125V14.7871H6.05827V19.3479H17.207Z" fill="#BCBBBB"/>
<path d="M14.9261 2.625L13.5579 3.63851L18.5747 10.3784L19.943 9.36487L14.9261 2.625ZM17.2065 11.9493L10.7707 6.57771L11.8349 5.31081L18.2707 10.6824L17.2065 11.9493ZM8.64231 10.3277L16.2436 13.875L16.9531 12.3547L9.35177 8.80743L8.64231 10.3277ZM15.7369 15.7956L16.0815 14.3007L7.92272 12.603L7.57812 14.2804L15.7369 15.7956ZM15.6862 17.8277H7.57812V16.3074H15.6862V17.8277Z" fill="#F48024"/>
</g>
<defs>
<clipPath id="clip0_872_3099">
<rect width="24" height="24" fill="white"/>
</clipPath>
</defs>
</svg>
