<svg width="24" height="24" viewBox="0 0 24 24" fill="none" xmlns="http://www.w3.org/2000/svg">
<g clip-path="url(#clip0_872_3171)">
<path d="M18.375 0H5.625C2.5184 0 0 2.5184 0 5.625V18.375C0 21.4816 2.5184 24 5.625 24H18.375C21.4816 24 24 21.4816 24 18.375V5.625C24 2.5184 21.4816 0 18.375 0Z" fill="white"/>
<path d="M18.375 0H5.625C2.5184 0 0 2.5184 0 5.625V18.375C0 21.4816 2.5184 24 5.625 24H18.375C21.4816 24 24 21.4816 24 18.375V5.625C24 2.5184 21.4816 0 18.375 0Z" fill="#1D9BF0"/>
<path d="M18.7099 8.56982C18.7202 8.71859 18.7202 8.86736 18.7202 9.0175C18.7202 13.5923 15.2376 18.8683 8.86941 18.8683V18.8655C6.98823 18.8683 5.14613 18.3294 3.5625 17.3135C3.83603 17.3464 4.11095 17.3628 4.38654 17.3634C5.94549 17.3648 7.45989 16.8417 8.68636 15.8785C7.20487 15.8504 5.90573 14.8845 5.4519 13.4743C5.97086 13.5744 6.5056 13.5538 7.01497 13.4147C5.39979 13.0883 4.23777 11.6693 4.23777 10.0211C4.23777 10.006 4.23777 9.99169 4.23777 9.97725C4.71904 10.2453 5.25788 10.3941 5.80907 10.4106C4.28782 9.39385 3.8189 7.3701 4.73754 5.78783C6.49532 7.95076 9.08878 9.26566 11.8729 9.40482C11.5938 8.20237 11.975 6.94231 12.8744 6.09701C14.2688 4.78623 16.4619 4.85341 17.7728 6.24716C18.5481 6.09428 19.2912 5.80976 19.9713 5.40666C19.7129 6.20808 19.172 6.88884 18.4493 7.32143C19.1356 7.24053 19.8061 7.0568 20.4375 6.7764C19.9727 7.47293 19.3872 8.07965 18.7099 8.56982Z" fill="white"/>
</g>
<defs>
<clipPath id="clip0_872_3171">
<rect width="24" height="24" fill="white"/>
</clipPath>
</defs>
</svg>
