<svg width="24" height="24" viewBox="0 0 24 24" fill="none" xmlns="http://www.w3.org/2000/svg">
<g clip-path="url(#clip0_872_3203)">
<path d="M18.375 0H5.625C2.5184 0 0 2.5184 0 5.625V18.375C0 21.4816 2.5184 24 5.625 24H18.375C21.4816 24 24 21.4816 24 18.375V5.625C24 2.5184 21.4816 0 18.375 0Z" fill="#F4F2ED"/>
<path d="M12.7031 3.69956C12.0073 3.00282 10.8782 3.00282 10.1824 3.69957L3.1322 10.7592C2.4377 11.4547 2.4377 12.5812 3.1322 13.2766L10.1426 20.2964C10.8384 20.9932 11.9676 20.9932 12.6634 20.2964L19.7136 13.2367C20.4081 12.5412 20.4081 11.4147 19.7136 10.7193L12.7031 3.69956Z" fill="#019833" stroke="black"/>
<path d="M15.1655 3.81665L14.9137 4.06869V4.99405L15.1342 5.21475H16.2991V6.10886L8.59394 13.9291V5.22591H9.87447L10.1372 4.96285V4.02644L9.89463 3.83878H3.15599L2.93555 4.05949V5.01613L3.15971 5.24056H4.33174V20.2797C4.33174 20.8464 4.74862 21.3268 5.30965 21.4065C5.67054 21.4578 6.03417 21.3331 6.28767 21.0712L22.0309 4.80449V4.06881L21.7792 3.81677L15.1655 3.81665Z" fill="white" stroke="black"/>
</g>
<defs>
<clipPath id="clip0_872_3203">
<rect width="24" height="24" fill="white"/>
</clipPath>
</defs>
</svg>
