<svg width="24" height="24" viewBox="0 0 24 24" fill="none" xmlns="http://www.w3.org/2000/svg">
<g clip-path="url(#clip0_872_3207)">
<path d="M18.375 0H5.625C2.5184 0 0 2.5184 0 5.625V18.375C0 21.4816 2.5184 24 5.625 24H18.375C21.4816 24 24 21.4816 24 18.375V5.625C24 2.5184 21.4816 0 18.375 0Z" fill="#F4F2ED"/>
<mask id="mask0_872_3207" style="mask-type:alpha" maskUnits="userSpaceOnUse" x="2" y="2" width="20" height="20">
<path d="M6.0624 18.4842L2.9376 16.1405C2.84017 16.0681 2.76111 15.9739 2.70681 15.8652C2.65251 15.7566 2.62449 15.6369 2.62501 15.5155V8.48427C2.62449 8.3629 2.65251 8.2431 2.70681 8.13456C2.76111 8.02601 2.84017 7.93175 2.9376 7.85938L6.0624 5.51562C5.97845 5.59444 5.91502 5.69256 5.8776 5.80147C5.84017 5.91037 5.8299 6.02676 5.84765 6.14052V17.8593C5.8299 17.9731 5.84017 18.0894 5.8776 18.1984C5.91502 18.3072 5.97845 18.4054 6.0624 18.4842Z" fill="white"/>
<path d="M21.0271 5.879C20.8984 5.79444 20.7475 5.74961 20.5935 5.7501C20.4937 5.7493 20.3947 5.76819 20.3022 5.8057C20.2097 5.8432 20.1255 5.89858 20.0544 5.96865L20 6.02344L13.7656 12L10.3162 15.3085L7.12489 18.367L7.07011 18.4219C6.99912 18.492 6.91494 18.5475 6.82243 18.5851C6.72991 18.6226 6.63088 18.6415 6.53105 18.6407C6.36203 18.6403 6.19764 18.5856 6.0623 18.4842L2.9375 16.1406C3.09627 16.2597 3.2945 16.314 3.49186 16.2923C3.68923 16.2705 3.87086 16.1743 3.9998 16.0233L7.46855 11.9962L10.3162 8.6915L15.3046 2.89834C15.377 2.81255 15.4672 2.74364 15.5692 2.69641C15.6711 2.6492 15.7821 2.62483 15.8944 2.625C16.0484 2.62451 16.1992 2.66934 16.3279 2.75391L21.0271 5.879Z" fill="white"/>
<path d="M21.0271 18.1208L16.3397 21.2459C16.1801 21.35 15.9885 21.3932 15.7998 21.3674C15.6112 21.3415 15.4381 21.2484 15.3125 21.1054L10.3162 15.3084L7.46855 11.996L3.9998 7.97243C3.86971 7.82296 3.6879 7.72824 3.49086 7.70727C3.29383 7.68629 3.09614 7.74062 2.9375 7.85936L6.0623 5.51561C6.19764 5.41437 6.36203 5.3595 6.53105 5.35916C6.63088 5.35831 6.72991 5.37721 6.82243 5.41477C6.91494 5.45234 6.99912 5.50781 7.07011 5.57801L7.12489 5.63279L10.3162 8.69139L13.7656 11.9999L20 17.9764L20.0544 18.0312C20.1255 18.1013 20.2097 18.1566 20.3022 18.1941C20.3947 18.2316 20.4937 18.2506 20.5935 18.2497C20.7475 18.2503 20.8984 18.2055 21.0271 18.1208Z" fill="white"/>
<path d="M21.3752 6.53114V17.4688C21.3753 17.5977 21.3436 17.7247 21.2829 17.8384C21.2223 17.9522 21.1345 18.0492 21.0273 18.1209L16.3399 21.246C16.447 21.1743 16.5348 21.0772 16.5955 20.9633C16.6561 20.8495 16.6877 20.7226 16.6876 20.5936V3.40634C16.6859 3.27643 16.6522 3.14896 16.5895 3.03517C16.5268 2.92137 16.4371 2.82477 16.3281 2.75391L21.0273 5.879C21.1341 5.95101 21.2218 6.0481 21.2824 6.16179C21.3431 6.27548 21.3749 6.40229 21.3752 6.53114Z" fill="white"/>
</mask>
<g mask="url(#mask0_872_3207)">
<path d="M6.0624 18.4841L2.9376 16.1405C2.84017 16.0681 2.76111 15.9737 2.70681 15.8652C2.65251 15.7567 2.62449 15.6369 2.62501 15.5155V8.48428C2.62449 8.36291 2.65251 8.2431 2.70681 8.13457C2.76111 8.02602 2.84017 7.93175 2.9376 7.85937L6.0624 5.51562C5.97845 5.59445 5.91502 5.69257 5.8776 5.80147C5.84017 5.91038 5.8299 6.02676 5.84765 6.14053V17.8593C5.8299 17.9731 5.84017 18.0894 5.8776 18.1984C5.91502 18.3072 5.97845 18.4053 6.0624 18.4841Z" fill="#5E438F"/>
<g filter="url(#filter0_dd_872_3207)">
<path d="M21.027 5.879C20.8984 5.79444 20.7476 5.74961 20.5935 5.7501C20.4938 5.7493 20.3947 5.76819 20.3022 5.8057C20.2097 5.8432 20.1255 5.89858 20.0545 5.96865L20 6.02344L16.6794 9.20713L13.7656 12L10.3162 15.3085L7.12488 18.367L7.07011 18.4219C6.99911 18.492 6.91493 18.5475 6.82243 18.5851C6.7299 18.6226 6.63088 18.6415 6.53104 18.6407C6.36203 18.6403 6.19764 18.5856 6.0623 18.4842L2.9375 16.1406C3.09625 16.2597 3.29449 16.314 3.49185 16.2923C3.68922 16.2705 3.87086 16.1743 3.9998 16.0233L5.74999 13.9922L7.46854 11.9962L10.3162 8.6915L15.3045 2.89834C15.377 2.81255 15.4673 2.74364 15.5692 2.69641C15.671 2.6492 15.7821 2.62483 15.8942 2.625C16.0484 2.62451 16.1991 2.66934 16.3279 2.75391L21.027 5.879Z" fill="url(#paint0_linear_872_3207)"/>
</g>
<g filter="url(#filter1_dd_872_3207)">
<path d="M21.027 18.121L16.3396 21.2462C16.1803 21.3504 15.9885 21.3934 15.7998 21.3676C15.6111 21.3417 15.4381 21.2487 15.3125 21.1056L10.3162 15.3086L7.46854 11.9963L5.74999 10.0041L3.9998 7.97267C3.8697 7.82321 3.68789 7.72848 3.49086 7.7075C3.29383 7.68652 3.09614 7.74087 2.9375 7.85958L6.0623 5.51584C6.19764 5.4146 6.36203 5.35973 6.53104 5.3594C6.63088 5.35856 6.7299 5.37746 6.82243 5.41501C6.91493 5.45257 6.99911 5.50805 7.07011 5.57825L7.12488 5.63303L10.3162 8.69161L13.7656 12.0001L16.6835 14.7971L20 17.9767L20.0545 18.0315C20.1255 18.1015 20.2097 18.1569 20.3022 18.1944C20.3947 18.2319 20.4938 18.2508 20.5935 18.25C20.7476 18.2505 20.8984 18.2056 21.027 18.121Z" fill="url(#paint1_linear_872_3207)"/>
</g>
<g filter="url(#filter2_dd_872_3207)">
<path d="M21.3752 6.53114V17.4687C21.3753 17.5977 21.3436 17.7247 21.2829 17.8385C21.2223 17.9521 21.1345 18.0492 21.0273 18.121L16.3398 21.246C16.447 21.1743 16.5348 21.0772 16.5953 20.9634C16.6561 20.8495 16.6877 20.7226 16.6876 20.5936V3.40634C16.6859 3.27644 16.6522 3.14895 16.5895 3.03516C16.5268 2.92136 16.4371 2.82477 16.3281 2.75391L21.0273 5.87899C21.1341 5.951 21.2217 6.0481 21.2824 6.16179C21.343 6.27548 21.3749 6.4023 21.3752 6.53114Z" fill="url(#paint2_linear_872_3207)"/>
</g>
</g>
</g>
<defs>
<filter id="filter0_dd_872_3207" x="-2.24346" y="-1.26072" width="28.4518" height="26.3775" filterUnits="userSpaceOnUse" color-interpolation-filters="sRGB">
<feFlood flood-opacity="0" result="BackgroundImageFix"/>
<feColorMatrix in="SourceAlpha" type="matrix" values="0 0 0 0 0 0 0 0 0 0 0 0 0 0 0 0 0 0 127 0" result="hardAlpha"/>
<feOffset dy="0.246095"/>
<feGaussianBlur stdDeviation="0.246095"/>
<feColorMatrix type="matrix" values="0 0 0 0 0 0 0 0 0 0 0 0 0 0 0 0 0 0 0.24 0"/>
<feBlend mode="normal" in2="BackgroundImageFix" result="effect1_dropShadow_872_3207"/>
<feColorMatrix in="SourceAlpha" type="matrix" values="0 0 0 0 0 0 0 0 0 0 0 0 0 0 0 0 0 0 127 0" result="hardAlpha"/>
<feOffset dy="1.29524"/>
<feGaussianBlur stdDeviation="2.59048"/>
<feColorMatrix type="matrix" values="0 0 0 0 0 0 0 0 0 0 0 0 0 0 0 0 0 0 0.22 0"/>
<feBlend mode="normal" in2="effect1_dropShadow_872_3207" result="effect2_dropShadow_872_3207"/>
<feBlend mode="normal" in="SourceGraphic" in2="effect2_dropShadow_872_3207" result="shape"/>
</filter>
<filter id="filter1_dd_872_3207" x="-2.24346" y="1.47365" width="28.4518" height="26.3775" filterUnits="userSpaceOnUse" color-interpolation-filters="sRGB">
<feFlood flood-opacity="0" result="BackgroundImageFix"/>
<feColorMatrix in="SourceAlpha" type="matrix" values="0 0 0 0 0 0 0 0 0 0 0 0 0 0 0 0 0 0 127 0" result="hardAlpha"/>
<feOffset dy="0.246095"/>
<feGaussianBlur stdDeviation="0.246095"/>
<feColorMatrix type="matrix" values="0 0 0 0 0 0 0 0 0 0 0 0 0 0 0 0 0 0 0.24 0"/>
<feBlend mode="normal" in2="BackgroundImageFix" result="effect1_dropShadow_872_3207"/>
<feColorMatrix in="SourceAlpha" type="matrix" values="0 0 0 0 0 0 0 0 0 0 0 0 0 0 0 0 0 0 127 0" result="hardAlpha"/>
<feOffset dy="1.29524"/>
<feGaussianBlur stdDeviation="2.59048"/>
<feColorMatrix type="matrix" values="0 0 0 0 0 0 0 0 0 0 0 0 0 0 0 0 0 0 0.22 0"/>
<feBlend mode="normal" in2="effect1_dropShadow_872_3207" result="effect2_dropShadow_872_3207"/>
<feBlend mode="normal" in="SourceGraphic" in2="effect2_dropShadow_872_3207" result="shape"/>
</filter>
<filter id="filter2_dd_872_3207" x="0.785265" y="-12.789" width="36.1326" height="49.5779" filterUnits="userSpaceOnUse" color-interpolation-filters="sRGB">
<feFlood flood-opacity="0" result="BackgroundImageFix"/>
<feColorMatrix in="SourceAlpha" type="matrix" values="0 0 0 0 0 0 0 0 0 0 0 0 0 0 0 0 0 0 127 0" result="hardAlpha"/>
<feOffset/>
<feGaussianBlur stdDeviation="0.129524"/>
<feColorMatrix type="matrix" values="0 0 0 0 0 0 0 0 0 0 0 0 0 0 0 0 0 0 0.24 0"/>
<feBlend mode="normal" in2="BackgroundImageFix" result="effect1_dropShadow_872_3207"/>
<feColorMatrix in="SourceAlpha" type="matrix" values="0 0 0 0 0 0 0 0 0 0 0 0 0 0 0 0 0 0 127 0" result="hardAlpha"/>
<feOffset/>
<feGaussianBlur stdDeviation="7.77143"/>
<feColorMatrix type="matrix" values="0 0 0 0 0 0 0 0 0 0 0 0 0 0 0 0 0 0 0.3 0"/>
<feBlend mode="normal" in2="effect1_dropShadow_872_3207" result="effect2_dropShadow_872_3207"/>
<feBlend mode="normal" in="SourceGraphic" in2="effect2_dropShadow_872_3207" result="shape"/>
</filter>
<linearGradient id="paint0_linear_872_3207" x1="17.8592" y1="2.625" x2="3.93645" y2="16.6379" gradientUnits="userSpaceOnUse">
<stop stop-color="#7252AA"/>
<stop offset="1" stop-color="#7252AA"/>
</linearGradient>
<linearGradient id="paint1_linear_872_3207" x1="4.38277" y1="6.04296" x2="17.4686" y2="20.6912" gradientUnits="userSpaceOnUse">
<stop stop-color="#AE7FE2"/>
<stop offset="1" stop-color="#9A70D4"/>
</linearGradient>
<linearGradient id="paint2_linear_872_3207" x1="18.7961" y1="2.37684" x2="18.7961" y2="21.2303" gradientUnits="userSpaceOnUse">
<stop stop-color="#D59DFF"/>
<stop offset="1" stop-color="#C18EF1"/>
</linearGradient>
<clipPath id="clip0_872_3207">
<rect width="24" height="24" fill="white"/>
</clipPath>
</defs>
</svg>
