<svg width="24" height="24" viewBox="0 0 24 24" fill="none" xmlns="http://www.w3.org/2000/svg">
<g clip-path="url(#clip0_872_3227)">
<path d="M18.375 0H5.625C2.5184 0 0 2.5184 0 5.625V18.375C0 21.4816 2.5184 24 5.625 24H18.375C21.4816 24 24 21.4816 24 18.375V5.625C24 2.5184 21.4816 0 18.375 0Z" fill="#F4F2ED"/>
<path d="M3.16166 9.39451C3.16166 9.39451 2.71781 9.07454 3.25043 8.64733L4.49137 7.5377C4.49137 7.5377 4.84645 7.16412 5.22188 7.48961L16.6733 16.1595V20.3169C16.6733 20.3169 16.6678 20.9698 15.8299 20.8976L3.16166 9.39451Z" fill="#2489CA"/>
<path d="M6.11182 12.0742L3.16019 14.7576C3.16019 14.7576 2.85689 14.9833 3.16019 15.3865L4.53059 16.6329C4.53059 16.6329 4.85608 16.9825 5.33692 16.5848L8.46608 14.2121L6.11182 12.0742Z" fill="#1070B3"/>
<path d="M11.2945 12.0964L16.7077 7.963L16.6725 3.82777C16.6725 3.82777 16.4414 2.92527 15.6702 3.39501L8.4668 9.95105L11.2945 12.0964Z" fill="#0877B9"/>
<path d="M15.8289 20.9032C16.1434 21.225 16.5244 21.1196 16.5244 21.1196L20.7428 19.0409C21.2828 18.6728 21.207 18.2161 21.207 18.2161V5.80293C21.207 5.25736 20.6484 5.06873 20.6484 5.06873L16.9923 3.30626C16.1933 2.81248 15.6699 3.39503 15.6699 3.39503C15.6699 3.39503 16.343 2.91049 16.6723 3.82779V20.2411C16.6723 20.3539 16.6482 20.4649 16.6002 20.5648C16.504 20.7589 16.295 20.9402 15.7939 20.8643L15.8289 20.9032Z" fill="#3C99D4"/>
</g>
<defs>
<clipPath id="clip0_872_3227">
<rect width="24" height="24" fill="white"/>
</clipPath>
</defs>
</svg>
