<svg width="24" height="24" viewBox="0 0 24 24" fill="none" xmlns="http://www.w3.org/2000/svg">
<g clip-path="url(#clip0_872_3275)">
<path d="M18.375 0H5.625C2.5184 0 0 2.5184 0 5.625V18.375C0 21.4816 2.5184 24 5.625 24H18.375C21.4816 24 24 21.4816 24 18.375V5.625C24 2.5184 21.4816 0 18.375 0Z" fill="#470137"/>
<path d="M12.5849 7.52026L9.77241 12.1609L12.7724 17.0827C12.7912 17.1202 12.8005 17.1577 12.7912 17.1952C12.7818 17.2327 12.7443 17.2046 12.688 17.214H10.5412C10.3912 17.214 10.288 17.2046 10.2224 17.1109C10.0255 16.7171 9.81928 16.3327 9.62241 15.939C9.42553 15.5546 9.20993 15.1609 8.98493 14.7577C8.75993 14.3546 8.53493 13.9515 8.30993 13.539H8.29118C8.0943 13.9421 7.87868 14.3452 7.66305 14.7484C7.44743 15.1515 7.2318 15.5546 7.02555 15.9484C6.80993 16.3421 6.5943 16.7452 6.37868 17.1296C6.34118 17.2234 6.26618 17.2327 6.16305 17.2327H4.10055C4.06305 17.2327 4.03493 17.2515 4.03493 17.2046C4.02555 17.1671 4.03493 17.1296 4.05368 17.1015L6.9693 12.3202L4.12868 7.51089C4.10055 7.47339 4.09118 7.43589 4.10993 7.41714C4.12868 7.38901 4.16618 7.37964 4.20368 7.37964H6.3318C6.37868 7.37964 6.42555 7.38901 6.46305 7.39839C6.50055 7.41714 6.52868 7.44526 6.5568 7.48276C6.73493 7.88589 6.94118 8.28901 7.1568 8.69214C7.3818 9.09526 7.59743 9.48899 7.8318 9.88274C8.0568 10.2765 8.26305 10.6702 8.45993 11.0734H8.47868C8.67555 10.6609 8.8818 10.2577 9.08805 9.86398C9.2943 9.47023 9.50991 9.07651 9.72553 8.68276C9.94116 8.28901 10.1474 7.88589 10.3537 7.50151C10.363 7.46401 10.3818 7.42651 10.4099 7.40776C10.4474 7.38901 10.4849 7.37964 10.5318 7.38901H12.5099C12.5568 7.37964 12.6037 7.40776 12.613 7.45464C12.6224 7.46401 12.6037 7.50151 12.5849 7.52026Z" fill="#FF61F6"/>
<path d="M16.916 17.4109C16.2222 17.4203 15.5285 17.2796 14.9004 16.989C14.3097 16.7171 13.8222 16.2671 13.4847 15.714C13.1379 15.1421 12.9691 14.4296 12.9691 13.5765C12.9597 12.8828 13.1379 12.1984 13.4847 11.5984C13.841 10.989 14.3566 10.4828 14.9754 10.1453C15.6316 9.77963 16.4191 9.6015 17.3472 9.6015C17.3941 9.6015 17.4597 9.6015 17.5441 9.61088C17.6285 9.62025 17.7222 9.62025 17.8347 9.62963V6.66708C17.8347 6.60146 17.8629 6.56396 17.9285 6.56396H19.8316C19.8785 6.55458 19.916 6.59208 19.9254 6.62958C19.9254 6.63896 19.9254 6.64833 19.9254 6.64833V15.5734C19.9254 15.7421 19.9347 15.9296 19.9441 16.1359C19.9629 16.3328 19.9722 16.5203 19.9816 16.6796C19.9816 16.7453 19.9535 16.8015 19.8879 16.8296C19.4004 17.0359 18.8847 17.1859 18.3597 17.2796C17.8816 17.364 17.4035 17.4109 16.916 17.4109ZM17.8347 15.5359V11.4109C17.7504 11.3921 17.666 11.3734 17.5816 11.364C17.4785 11.3546 17.3754 11.3453 17.2722 11.3453C16.9066 11.3453 16.541 11.4203 16.2129 11.589C15.8941 11.7484 15.6222 11.9828 15.416 12.2828C15.2097 12.5828 15.1066 12.9859 15.1066 13.4734C15.0972 13.8015 15.1535 14.1296 15.266 14.439C15.3597 14.6921 15.5004 14.9171 15.6879 15.1046C15.866 15.2734 16.0816 15.4046 16.3254 15.4796C16.5785 15.564 16.841 15.6015 17.1035 15.6015C17.2441 15.6015 17.3754 15.5921 17.4972 15.5828C17.6191 15.5921 17.7222 15.5734 17.8347 15.5359Z" fill="#FF61F6"/>
</g>
<defs>
<clipPath id="clip0_872_3275">
<rect width="24" height="24" fill="white"/>
</clipPath>
</defs>
</svg>
