<svg width="61" height="36" viewBox="0 0 61 36" fill="none" xmlns="http://www.w3.org/2000/svg">
<path d="M12.8575 20.1297V18.6063H3.91341V16.4463H12.8575V15.0139H3.75329V12.8539H15.3052V20.1297H12.8575ZM15.3052 30.0657H6.20091V31.589H15.5339V33.749H3.75329V27.9057H12.8575V26.6324H3.75329V24.4724H15.3052V30.0657ZM16.6777 20.6526V22.8126H2.35791V20.6526H16.6777ZM19.8846 26.7915V18.4017H28.7601V15.0139H19.8846V12.8539H31.2077V20.5617H22.3322V24.6315H31.2764V26.7915H26.77V31.3617H32.6946V33.5217H18.3749V31.3617H24.2995V26.7915H19.8846ZM42.3982 33.4989H34.9638V12.8539H37.4114V19.9478H39.9506V12.8539H42.3982V33.4989ZM48.4829 33.749H46.0124V12.6038H48.4829V33.749ZM37.4114 31.3389H39.9506V22.1078H37.4114V31.3389Z" fill="#171717"/>
<path d="M38.125 5.24696C38.125 2.34915 40.4884 0 43.4038 0C46.3192 0 48.6828 2.34915 48.6828 5.24696V10.4939H43.4038C40.4884 10.4939 38.125 8.14479 38.125 5.24696Z" fill="#9AE600"/>
<path d="M55.7211 0C58.6365 2.53336e-07 60.9999 2.34915 60.9999 5.24696C60.9999 8.14479 58.6365 10.4939 55.7211 10.4939H50.4421V5.24696C50.4421 2.34915 52.8057 -2.53336e-07 55.7211 0Z" fill="#9AE600"/>
<path d="M60.9999 17.4899C60.9999 20.3877 58.6365 22.7368 55.7211 22.7368C52.8057 22.7368 50.4421 20.3877 50.4421 17.4899V12.2429H55.7211C58.6365 12.2429 60.9999 14.5921 60.9999 17.4899Z" fill="#9AE600"/>
</svg>
