<svg width="24" height="24" viewBox="0 0 24 24" fill="none" xmlns="http://www.w3.org/2000/svg">
<path d="M16.5712 3.99979C19.3301 5.57351 21.1427 8.59636 21.1427 11.9998C21.1427 13.8081 20.6064 15.5758 19.6018 17.0793C18.5972 18.5828 17.1693 19.7547 15.4986 20.4467C13.828 21.1387 11.9897 21.3198 10.2161 20.967C8.44257 20.6142 6.81347 19.7434 5.53482 18.4648C4.25617 17.1861 3.38539 15.557 3.03262 13.7835C2.67984 12.0099 2.8609 10.1716 3.5529 8.50097C4.2449 6.83033 5.41676 5.40241 6.9203 4.39778C8.42383 3.39315 10.1915 2.85693 11.9998 2.85693" stroke="white" stroke-width="2" stroke-linecap="round" stroke-linejoin="round"/>
<path d="M16.5713 8.57143V4H21.1427" stroke="white" stroke-width="2" stroke-linecap="round" stroke-linejoin="round"/>
</svg>
