<svg width="24" height="24" viewBox="0 0 24 24" fill="none" xmlns="http://www.w3.org/2000/svg">
<g clip-path="url(#clip0_872_1765)">
<path d="M18.375 0H5.625C2.5184 0 0 2.5184 0 5.625V18.375C0 21.4816 2.5184 24 5.625 24H18.375C21.4816 24 24 21.4816 24 18.375V5.625C24 2.5184 21.4816 0 18.375 0Z" fill="#F4F2ED"/>
<path d="M3.21094 5.73047L11.9367 2.625L20.8922 5.68242L19.4449 17.2219L11.9367 21.375L4.55039 17.2758L3.21094 5.73047Z" fill="#E23237"/>
<path d="M20.893 5.68242L11.9375 2.625V21.375L19.4457 17.2219L20.893 5.68242Z" fill="#B52E31"/>
<path d="M11.9512 4.81641L6.51367 16.9102L8.54277 16.8691L9.63847 14.1364H14.5018L15.6924 16.8903L17.6271 16.9313L11.9512 4.81641ZM11.9646 8.69883L13.8044 12.5408H10.3603L11.9699 8.69883H11.9646Z" fill="white"/>
</g>
<defs>
<clipPath id="clip0_872_1765">
<rect width="24" height="24" fill="white"/>
</clipPath>
</defs>
</svg>
