<svg width="24" height="24" viewBox="0 0 24 24" fill="none" xmlns="http://www.w3.org/2000/svg">
<g clip-path="url(#clip0_872_1787)">
<path d="M18.375 0H5.625C2.5184 0 0 2.5184 0 5.625V18.375C0 21.4816 2.5184 24 5.625 24H18.375C21.4816 24 24 21.4816 24 18.375V5.625C24 2.5184 21.4816 0 18.375 0Z" fill="url(#paint0_linear_872_1787)"/>
<path fill-rule="evenodd" clip-rule="evenodd" d="M14.7862 3.0948C14.9393 3.28491 15.0173 3.54152 15.1735 4.05449L18.5857 15.2633C17.304 14.5983 15.9284 14.1325 14.5063 13.8822L12.2847 6.37473C12.267 6.31484 12.2303 6.26228 12.1803 6.22493C12.1302 6.18758 12.0695 6.16745 12.007 6.16753C11.9445 6.16763 11.8837 6.18793 11.8339 6.22542C11.7839 6.26291 11.7474 6.31557 11.7299 6.37552L9.53512 13.8785C8.10665 14.1276 6.72474 14.5941 5.4375 15.2617L8.86626 4.05197C9.02304 3.5397 9.10128 3.28365 9.25444 3.09394C9.38962 2.92637 9.5655 2.79623 9.76528 2.71592C9.99159 2.625 10.2593 2.625 10.795 2.625H13.2441C13.7804 2.625 14.0485 2.625 14.275 2.71615C14.475 2.79662 14.651 2.92699 14.7862 3.0948Z" fill="#31274A"/>
<path fill-rule="evenodd" clip-rule="evenodd" d="M15.1945 15.7967C14.632 16.2777 13.5092 16.6057 12.216 16.6057C10.6288 16.6057 9.29837 16.1115 8.94541 15.447C8.81919 15.8279 8.79091 16.2638 8.79091 16.5423C8.79091 16.5423 8.7077 17.9096 9.65873 18.8606C9.65873 18.3668 10.059 17.9665 10.5529 17.9665C11.3993 17.9665 11.3984 18.7049 11.3975 19.3041V19.3575C11.3975 20.2669 11.9533 21.0464 12.7437 21.3749C12.622 21.1245 12.559 20.8497 12.5594 20.5713C12.5594 19.704 13.0686 19.3811 13.6604 19.0059C14.1312 18.7073 14.6543 18.3755 15.0149 17.7099C15.209 17.3514 15.3104 16.95 15.3097 16.5423C15.3097 16.2823 15.2693 16.0318 15.1945 15.7967Z" fill="#FF5D01"/>
<path fill-rule="evenodd" clip-rule="evenodd" d="M15.1945 15.7967C14.632 16.2777 13.5092 16.6057 12.216 16.6057C10.6288 16.6057 9.29837 16.1115 8.94541 15.447C8.81919 15.8279 8.79091 16.2638 8.79091 16.5423C8.79091 16.5423 8.7077 17.9096 9.65873 18.8606C9.65873 18.3668 10.059 17.9665 10.5529 17.9665C11.3993 17.9665 11.3984 18.7049 11.3975 19.3041V19.3575C11.3975 20.2669 11.9533 21.0464 12.7437 21.3749C12.622 21.1245 12.559 20.8497 12.5594 20.5713C12.5594 19.704 13.0686 19.3811 13.6604 19.0059C14.1312 18.7073 14.6543 18.3755 15.0149 17.7099C15.209 17.3514 15.3104 16.95 15.3097 16.5423C15.3097 16.2823 15.2693 16.0318 15.1945 15.7967Z" fill="url(#paint1_linear_872_1787)"/>
</g>
<defs>
<linearGradient id="paint0_linear_872_1787" x1="12" y1="0" x2="12" y2="24" gradientUnits="userSpaceOnUse">
<stop offset="0.192708" stop-color="#FCB3B2"/>
<stop offset="1" stop-color="#C587EE"/>
</linearGradient>
<linearGradient id="paint1_linear_872_1787" x1="17.7271" y1="11.8841" x2="14.3968" y2="18.8561" gradientUnits="userSpaceOnUse">
<stop stop-color="#FF1639"/>
<stop offset="1" stop-color="#FF1639" stop-opacity="0"/>
</linearGradient>
<clipPath id="clip0_872_1787">
<rect width="24" height="24" fill="white"/>
</clipPath>
</defs>
</svg>
