<svg width="24" height="24" viewBox="0 0 24 24" fill="none" xmlns="http://www.w3.org/2000/svg">
<g clip-path="url(#clip0_872_2029)">
<path d="M18.375 0H5.625C2.5184 0 0 2.5184 0 5.625V18.375C0 21.4816 2.5184 24 5.625 24H18.375C21.4816 24 24 21.4816 24 18.375V5.625C24 2.5184 21.4816 0 18.375 0Z" fill="#3B3C37"/>
<path d="M15.4843 8.99189L15.4801 8.95173L15.415 8.95727L15.4193 8.99743L15.4843 8.99189ZM15.9219 10.0443L15.9233 10.0665L15.969 10.0623C15.9676 10.0485 15.9731 10.0263 15.9828 9.9986L15.9787 9.95847C15.9593 9.95988 15.9398 9.98894 15.9219 10.0443ZM14.2145 11.3696C14.2117 11.3322 14.0953 11.1868 13.8654 10.9306C13.8613 10.8835 13.9403 10.8129 14.1023 10.7201L14.5648 10.3172C14.6687 10.1855 14.7296 9.97235 14.7476 9.676L14.7421 9.60813C14.7241 9.40319 14.5759 9.23839 14.2947 9.11237C14.1286 9.0002 13.8294 8.93788 13.3974 8.92681C13.0402 8.95727 12.5735 9.08467 11.9988 9.31039C11.8409 9.42391 11.6609 9.53753 11.4587 9.65106L11.4615 9.68566C11.474 9.68425 11.4934 9.67731 11.5155 9.66213C11.539 9.65931 11.5529 9.67047 11.5543 9.6926L11.5889 9.6746L11.6055 9.67319L11.6069 9.68847C11.6083 9.70647 11.4836 9.80472 11.2316 9.9806L11.251 10.0166L11.2344 10.018L11.1928 10.0028C11.1942 10.0153 11.1762 10.0235 11.1416 10.0263L11.143 10.0415L11.1832 10.0914C11.1707 10.0928 11.1513 10.0873 11.125 10.0775C11.0668 10.0831 11.0101 10.1135 10.9533 10.1718L10.9768 10.0693C11.0613 9.70506 11.1194 9.38238 11.1499 9.10267L11.1458 9.08467C11.0876 9.04728 11.0308 8.99466 10.9782 8.92819C10.9796 8.88526 10.9796 8.86034 10.9782 8.8548L10.9741 8.83956L10.9574 8.84372C10.7746 9.11791 10.4229 9.586 9.90085 10.2479C9.50344 10.7187 9.29846 10.9804 9.286 11.033C9.12398 11.2007 9.04643 11.3017 9.05474 11.3363C9.01181 11.3641 8.99381 11.3917 9.00074 11.4222C8.98827 11.425 8.97996 11.4208 8.9772 11.4083C8.90795 11.5205 8.80548 11.5925 8.66838 11.6244L8.52437 11.6576C8.50498 11.6617 8.49528 11.6756 8.49667 11.6991L8.50082 11.7171L8.55483 11.7047L8.55899 11.7199L8.43712 11.767L8.2211 11.8169L8.10754 11.8238C8.09093 11.8404 8.19755 11.8224 8.15601 11.8321L8.01477 11.8653C7.92891 11.8848 7.88183 11.8778 7.87352 11.8431L7.8569 11.8473C7.85967 11.8625 7.86106 11.8736 7.85828 11.8833L7.84998 11.8487L7.73642 11.875C7.72812 11.8224 7.57441 11.6313 7.27667 11.3017C7.27113 11.238 7.37638 11.1453 7.59102 11.0248L8.19755 10.4916C8.33327 10.3172 8.41358 10.0374 8.4399 9.65247L8.43159 9.56238C8.40805 9.29101 8.21141 9.07221 7.84167 8.90327C7.62288 8.7551 7.22959 8.67616 6.66183 8.6637C6.191 8.70385 5.57616 8.87141 4.82007 9.1636C4.61235 9.31455 4.37555 9.46413 4.10967 9.61225L4.11382 9.65931C4.13183 9.658 4.15537 9.64825 4.18445 9.63166C4.21491 9.62885 4.23153 9.64272 4.2343 9.67047L4.28138 9.64413L4.30492 9.64272L4.30631 9.66494C4.3077 9.68706 4.1429 9.81588 3.80917 10.0513L3.83549 10.0928L3.81194 10.0942L3.7607 10.0762C3.76209 10.09 3.73855 10.0998 3.69008 10.1039L3.69285 10.1288L3.74824 10.1898C3.73024 10.1912 3.70532 10.1855 3.67346 10.1745C3.56545 10.1842 3.46021 10.2618 3.35635 10.4086L3.38266 10.4501C3.47267 10.3669 3.52529 10.3254 3.54052 10.3241L3.54606 10.3919C3.53083 10.3933 3.50729 10.403 3.47544 10.4196L3.53222 10.5055C3.64161 10.3878 3.76209 10.2867 3.89364 10.2022C3.95873 10.2188 3.99335 10.2396 3.99473 10.2618L4.04459 10.2576C4.40186 9.99306 4.75498 9.802 5.10533 9.68425L5.10948 9.73141C5.0444 9.82835 5.00009 9.87813 4.97655 9.88094C4.97931 9.91413 4.99039 9.94328 5.01117 9.96813C5.01671 10.0278 4.85746 10.4293 4.5348 11.1715C3.80224 12.897 3.1874 14.1738 2.6875 14.9991C2.68888 15.0157 2.69857 15.0378 2.71657 15.0656C2.83983 15.0364 2.91737 15.006 2.95061 14.9769L2.97692 14.9742L2.98107 15.0213L3.02677 15.0171L3.07385 14.9908C3.07523 15.0047 3.09047 15.0116 3.12232 15.0088L3.12647 15.0558C3.13063 15.1016 3.10431 15.1708 3.04892 15.2663C2.99907 15.3231 2.94507 15.4422 2.88829 15.6236L2.88967 15.6458L2.93537 15.6416C3.13478 15.4187 3.28572 15.1998 3.38958 14.9867C3.97119 14.8163 4.41432 14.6488 4.72174 14.484C5.03056 14.4576 5.26596 14.376 5.4266 14.2416L5.42383 14.2167L5.30751 14.2513L5.2812 14.2541L5.27843 14.2292C5.50553 14.1946 5.66202 14.1447 5.74925 14.0754C6.191 13.7348 6.52473 13.4938 6.75046 13.3512C7.21436 13.0105 7.51624 12.6782 7.65333 12.3556C7.67826 12.35 7.70319 12.3445 7.73088 12.3376C7.79598 12.3348 7.83197 12.3333 7.84167 12.3306C7.8389 12.3182 7.84443 12.3112 7.8569 12.3084C7.96076 12.2973 7.9109 12.3153 7.97738 12.3002L8.15186 12.2599C8.14078 12.2628 8.13662 12.2683 8.1394 12.2793L8.16571 12.2628C8.16017 12.2628 8.15601 12.2613 8.15186 12.2599L8.18094 12.2531L8.16709 12.2613C8.18648 12.2642 8.20725 12.2628 8.2308 12.2572L8.24326 12.3084L7.44977 13.57L7.27391 13.7901L7.18805 14.0782L7.20467 14.0741L7.29052 14.0381L7.26283 14.1502L7.27113 14.1834L7.29467 14.2126C7.2836 14.2153 7.27944 14.2222 7.28222 14.2347L7.28637 14.2527L7.32238 14.2443C7.375 14.1987 7.39715 14.1572 7.38885 14.1198C7.44562 14.1294 7.48301 14.1336 7.5024 14.1281L7.50655 14.1461C7.47193 14.1543 7.45393 14.1821 7.45116 14.2292L7.45532 14.2472L7.4747 14.243C7.76273 13.9287 8.46898 12.8526 9.03535 12.1229C9.01735 12.0439 9.31231 11.9345 9.92166 11.7933L9.94098 11.7891C9.96319 11.8848 9.91604 12.1159 9.79979 12.483C9.72497 12.7045 9.68897 12.8264 9.69451 12.8458C9.59757 13.1407 9.55191 13.3 9.55744 13.3248L9.34139 14.0325C9.20153 14.3953 9.0949 14.7761 9.02013 15.1777C9.03258 15.175 9.05197 15.1763 9.07967 15.1833L9.11013 15.157C9.1129 15.1694 9.12121 15.1736 9.13368 15.1708L9.12121 15.1196L9.21538 15.1168C9.24307 15.1098 9.26661 15.0753 9.286 15.0116C9.28185 14.916 9.30123 14.8648 9.34416 14.8537C9.40229 14.6266 9.43829 14.513 9.45076 14.5089C9.50476 14.2832 9.54498 14.1543 9.57123 14.1226C9.65298 13.8289 9.71251 13.678 9.75132 13.6683L9.75957 13.7043L9.70004 13.858C9.59616 14.3192 9.49098 14.6834 9.38429 14.9507L9.41476 15.0836L9.43416 15.0794C9.69179 14.5255 10.0628 13.4287 10.5461 11.7891C10.56 11.6451 10.6293 11.533 10.7525 11.4541L10.7248 11.425L10.7206 11.4097C10.776 11.3973 10.8148 11.3751 10.8369 11.3447C10.8342 11.3322 10.7858 11.3142 10.6915 11.2893L10.9325 10.2562C10.9852 10.2092 11.0156 10.1842 11.0253 10.1842L11.0294 10.2368C11.0169 10.2382 10.9976 10.2452 10.9754 10.2603L11.0212 10.3254C11.1042 10.2354 11.1942 10.1579 11.2926 10.0928C11.3424 10.1067 11.3673 10.1233 11.3701 10.1399L11.4061 10.1371C11.6803 9.93635 11.9489 9.79225 12.2135 9.70506L12.2162 9.73966C12.1677 9.81306 12.1345 9.85047 12.1165 9.85188C12.1193 9.87681 12.1262 9.89894 12.1387 9.91835C12.1428 9.964 12.0237 10.2687 11.78 10.8336C11.2233 12.1423 10.7566 13.1103 10.3772 13.7389C10.3786 13.7514 10.3869 13.768 10.4021 13.7901C10.4949 13.768 10.5545 13.7445 10.578 13.7223L10.5946 13.7209L10.5974 13.7555L10.6361 13.7528L10.6708 13.7348C10.6721 13.7445 10.6846 13.7486 10.7081 13.7473L10.7109 13.7846C10.7138 13.8179 10.6943 13.8705 10.6514 13.9425C10.6112 13.9854 10.5697 14.0754 10.5254 14.2126L10.5267 14.2306L10.5628 14.2278C10.7138 14.0588 10.8287 13.8927 10.9075 13.7293C11.3493 13.5991 11.6858 13.4731 11.9184 13.3485C12.1553 13.3277 12.3339 13.2667 12.4558 13.1643L12.4544 13.1463L12.3644 13.1726L12.345 13.1739L12.3436 13.1559C12.5153 13.131 12.6358 13.0923 12.7009 13.041C13.036 12.7834 13.2894 12.5992 13.4611 12.4912C13.9957 12.1022 14.2449 11.7282 14.2145 11.3696ZM14.1231 11.3931L14.1355 11.533C14.1189 11.5676 14.1009 11.5856 14.0843 11.587L14.0635 11.3488C14.1023 11.3627 14.1217 11.3765 14.1231 11.3931ZM3.63746 10.2659L3.61392 10.2673L3.60977 10.2243L3.70532 10.216L3.70669 10.2382C3.69147 10.2396 3.66793 10.2479 3.63746 10.2659ZM3.17078 14.934C3.11539 14.9091 3.06554 14.8994 3.02261 14.9035L3.01708 14.8357C3.0143 14.8094 3.02954 14.7914 3.06277 14.7844C3.09324 14.7817 3.11124 14.8038 3.11401 14.8482C3.19433 14.7498 3.23864 14.7 3.24695 14.6986L3.29819 14.7194C3.28157 14.8578 3.23864 14.9284 3.17078 14.934ZM8.1574 9.71753C8.13386 9.72025 8.08678 9.64694 8.01892 9.50153L8.01477 9.4586C8.05908 9.45438 8.10478 9.52638 8.15325 9.6746L8.1574 9.71753ZM8.09093 9.20099L8.07154 9.24669L7.39438 8.9642C7.84582 8.97943 8.07846 9.05836 8.09093 9.20099ZM5.23135 11.6562L5.1358 11.6645L5.13165 11.6216L5.2272 11.6133L5.23135 11.6562ZM5.1538 10.1814L5.17734 10.18L5.18288 10.2479C5.16072 10.2493 5.13165 10.2825 5.09564 10.3462L5.09148 10.2992C5.13441 10.2479 5.15657 10.2092 5.1538 10.1814ZM4.95301 10.655L4.96131 10.745L4.93777 10.7464L4.92947 10.6564L4.95301 10.655ZM4.84776 10.824L4.89346 10.8198C4.8893 10.8946 4.86854 10.9348 4.83114 10.9375L4.8076 10.9389C4.83668 10.889 4.85053 10.8503 4.84776 10.824ZM4.76882 11.0594L4.79514 11.0566L4.79653 11.0788L4.7536 11.1508L4.7079 11.1549L4.70651 11.1328C4.75221 11.1287 4.77299 11.105 4.76882 11.0594ZM4.69128 11.2713L4.67743 11.3848L4.65389 11.3862L4.64419 11.274L4.69128 11.2713ZM3.91442 13.48C3.88395 13.6351 3.85071 13.714 3.8161 13.7168L3.81471 13.6946C3.80641 13.6185 3.83964 13.5465 3.91442 13.48ZM3.77178 13.7888L3.77317 13.8109C3.77594 13.8414 3.76209 13.8594 3.73162 13.8608L3.73024 13.8386C3.72747 13.8123 3.74132 13.7958 3.77178 13.7888ZM3.73024 14.43L3.80224 14.423L3.80502 14.448C3.78702 14.4494 3.76348 14.459 3.7344 14.4756L3.68869 14.4798C3.68593 14.4562 3.70116 14.4382 3.73024 14.43ZM5.77972 13.7971C5.37537 13.9965 5.13718 14.1322 5.06656 14.2028C4.62897 14.3552 4.41155 14.4494 4.41571 14.4867C4.02659 14.6404 3.7704 14.754 3.64715 14.8246C3.61807 14.8274 3.57653 14.8163 3.52113 14.7914C3.51422 14.7124 3.55022 14.6488 3.62638 14.5975C3.69423 14.592 3.75932 14.6016 3.82163 14.628C3.89364 14.5906 4.01966 14.549 4.1983 14.5047L4.19415 14.4576L4.05013 14.4701C4.06813 14.4452 4.20661 14.3801 4.46695 14.2748L4.53895 14.268L4.54034 14.2901C4.41709 14.3012 4.34924 14.3372 4.334 14.4022C4.33678 14.4313 4.35339 14.4438 4.38386 14.441C4.47663 14.3828 4.52234 14.3482 4.52095 14.3386C4.69682 14.3053 5.18288 14.0505 5.97913 13.5755L5.98328 13.6185C5.98467 13.6392 5.91681 13.6974 5.77972 13.7971ZM4.55834 14.1987C4.67466 14.189 4.77437 14.1419 4.85746 14.0602C4.89069 14.0574 4.90869 14.0699 4.91008 14.0989C4.8533 14.1046 4.74391 14.1516 4.58465 14.243L4.56111 14.2443L4.55834 14.1987ZM6.52889 12.6851L5.9182 13.1684C5.46399 13.4661 5.22027 13.6157 5.18565 13.6185C4.46279 14.0159 4.01273 14.2222 3.83825 14.2375L3.81194 14.2402C3.8341 14.1586 4.15537 13.5007 4.77852 12.2628C5.05271 12.2392 5.48477 12.1118 6.0733 11.8791L6.21732 11.8668C6.51504 11.8404 6.738 11.8985 6.88478 12.037L6.89309 12.127C6.7823 12.4456 6.66045 12.6311 6.52889 12.6851ZM5.33521 12.0135L5.43352 12.0052L5.43491 12.0273L5.33659 12.0357L5.33521 12.0135ZM6.71583 11.7795L6.78784 11.7725C6.85431 11.8044 6.88893 11.8321 6.89171 11.857L6.89309 11.8791C6.82939 11.8848 6.76984 11.8515 6.71583 11.7795ZM6.91109 10.6675C6.84739 10.7436 6.67291 10.8738 6.38764 11.0566C6.29348 11.0649 5.94313 11.2007 5.33659 11.4665C5.30612 11.4527 5.27428 11.4471 5.23966 11.4498L5.2355 11.407C5.22857 11.3197 5.26735 11.2103 5.35321 11.0774C5.40029 10.8281 5.45153 10.6855 5.50831 10.6509L6.01375 9.51391C6.00821 9.44331 6.11623 9.38931 6.33779 9.35194L6.4098 9.34501L6.41534 9.41013C6.63275 9.37685 6.76846 9.35748 6.82108 9.35332C7.22267 9.3187 7.43178 9.40038 7.44839 9.59566L7.49409 9.59153L7.4844 9.4766L7.53424 9.47238C7.65196 9.53753 7.71565 9.61647 7.72397 9.70919C7.7295 9.77294 7.69488 9.85188 7.62149 9.946C7.59102 9.94881 7.57302 9.9266 7.57025 9.88235L7.5204 9.88647L7.50932 10.0249C7.30576 10.3296 7.15758 10.4861 7.06619 10.4943C6.9831 10.6093 6.93186 10.6661 6.91109 10.6675ZM7.22129 11.4637C7.17974 11.4361 7.1465 11.4236 7.12158 11.425L7.11604 11.3571L7.16174 11.3529L7.26283 11.4125C7.26698 11.4443 7.25313 11.461 7.22129 11.4637ZM7.54255 11.8445C7.58687 11.8625 7.61318 11.8819 7.61872 11.8999L7.59656 11.9055L7.59795 11.9069C7.59379 11.9069 7.58825 11.9083 7.5841 11.9096L7.55087 11.9359L7.54255 11.8445ZM7.57302 12.0357L7.56887 12.0177L7.62703 12.0038L7.63118 12.0218L7.57302 12.0357ZM7.71288 12.1922C7.77242 12.1824 7.80151 12.1783 7.91229 12.1533L7.91644 12.1713L7.70596 12.2198C7.70873 12.2102 7.7115 12.2004 7.71288 12.1922ZM7.91783 12.2793C7.82921 12.2877 7.84859 12.2766 7.70734 12.3084L7.70319 12.2904L7.87906 12.2337L7.96352 12.2143L7.97184 12.2476C7.93445 12.2558 7.96215 12.2558 7.91783 12.2793ZM8.10478 12.2351C8.084 12.2406 8.06739 12.2309 8.0577 12.2073L8.11171 12.1949C8.13525 12.1893 8.15047 12.1991 8.15601 12.2226L8.10478 12.2351ZM8.61161 11.6895L8.60746 11.6715L8.6947 11.6507L8.70301 11.6839L8.61161 11.6895ZM9.15306 15.0102C9.1586 14.9853 9.15998 14.9673 9.15722 14.9548L9.1766 14.9507C9.20014 14.9451 9.21399 14.9534 9.21953 14.9756L9.22368 14.9936L9.15306 15.0102ZM9.53251 11.8321L9.49369 11.8251C9.43144 11.8501 9.37876 11.8681 9.33586 11.8778L9.29985 11.8861C9.27907 11.8916 9.26246 11.8833 9.25415 11.8611L9.50757 11.803L9.59063 11.7642L9.61838 11.7961C9.57816 11.8044 9.5491 11.8169 9.53251 11.8321ZM9.72779 11.7698L9.72357 11.7518C9.73604 11.749 9.75263 11.7393 9.77063 11.7213L9.95072 11.6797L9.95485 11.6977C9.85932 11.7213 9.7831 11.7449 9.72779 11.7698ZM9.75544 11.4056C9.74298 11.4083 9.72638 11.4194 9.70557 11.4361C9.70285 11.4236 9.67791 11.4236 9.63085 11.4347C9.62251 11.4001 9.75544 11.3516 10.031 11.2878L10.0698 11.2796L10.0781 11.3128C9.88426 11.3696 9.77626 11.4014 9.75544 11.4056ZM10.2401 10.8821C10.2207 11.1023 10.1432 11.2269 10.0061 11.2588L10.0019 11.2408L9.88004 11.2878L9.82604 11.3003C9.79838 11.3073 9.77344 11.3058 9.75132 11.2989L9.74026 11.2504C9.73604 11.2324 9.91191 10.9888 10.2692 10.5207L10.3107 10.5276C10.326 10.5913 10.3025 10.709 10.2401 10.8821ZM11.0973 10.1482L11.0807 10.1495L11.0779 10.1149L11.1499 10.108L11.1513 10.126C11.1388 10.1288 11.1208 10.1358 11.0973 10.1482ZM10.7442 13.6946C10.7026 13.6752 10.6653 13.6669 10.6334 13.6697L10.6293 13.6171C10.6279 13.5991 10.6389 13.5866 10.6625 13.5797C10.686 13.5769 10.6999 13.5935 10.7026 13.6295C10.7622 13.5534 10.7954 13.5146 10.8023 13.5146L10.8398 13.5299C10.8259 13.6351 10.794 13.6905 10.7442 13.6946ZM14.5302 9.73413C14.5122 9.73553 14.4775 9.68013 14.4235 9.568L14.4208 9.53331C14.4554 9.5306 14.4914 9.5846 14.5274 9.69541L14.5302 9.73413ZM14.4804 9.33809L14.4638 9.37409L13.9513 9.15945C14.2934 9.17053 14.4706 9.23007 14.4804 9.33809ZM12.3076 11.2034L12.2356 11.2103L12.2328 11.1757L12.3048 11.1702L12.3076 11.2034ZM12.2481 10.0831L12.2675 10.0818L12.2716 10.1343C12.2536 10.1358 12.2315 10.1607 12.2051 10.2092L12.2023 10.1745C12.2342 10.1343 12.2495 10.1039 12.2481 10.0831ZM12.0971 10.4432L12.1027 10.511L12.0833 10.5123L12.0777 10.4446L12.0971 10.4432ZM12.0154 10.572L12.0514 10.5692C12.0473 10.6273 12.0321 10.6578 12.0057 10.6606L11.9863 10.662C12.0071 10.6232 12.0168 10.5927 12.0154 10.572ZM11.9573 10.7492L11.9739 10.7478L11.9753 10.7658L11.9434 10.8212L11.9074 10.824L11.906 10.806C11.9434 10.8032 11.96 10.7838 11.9573 10.7492ZM11.8991 10.9098L11.8867 10.9984L11.87 10.9998L11.8631 10.9126L11.8991 10.9098ZM11.3078 12.5896C11.2842 12.7059 11.2593 12.7654 11.233 12.7682L11.2316 12.753C11.2275 12.6948 11.2523 12.6394 11.3078 12.5896ZM11.1983 12.8236L11.1998 12.8388C11.2026 12.8638 11.1915 12.8776 11.1666 12.879L11.1652 12.861C11.1638 12.843 11.1748 12.8305 11.1983 12.8236ZM11.1679 13.3111L11.2233 13.3068L11.2247 13.3248C11.2122 13.3263 11.1928 13.3332 11.1707 13.3457L11.1347 13.3485C11.1333 13.3291 11.1444 13.3166 11.1679 13.3111ZM12.723 12.8305C12.4184 12.9814 12.237 13.0839 12.1802 13.1366C11.8478 13.2528 11.683 13.3248 11.6859 13.354C11.3909 13.4717 11.197 13.5561 11.1056 13.6101C11.0834 13.6115 11.0516 13.6032 11.0101 13.5839C11.0045 13.5243 11.0322 13.4758 11.0904 13.4398C11.143 13.4357 11.1928 13.4426 11.2386 13.462C11.294 13.4343 11.3895 13.4038 11.5252 13.3692L11.5224 13.3346L11.4089 13.3428C11.4227 13.3235 11.5294 13.2737 11.7274 13.1933L11.7828 13.1892L11.7842 13.2044C11.69 13.2127 11.6374 13.2404 11.6263 13.2903C11.6276 13.3124 11.6415 13.3235 11.665 13.3207C11.7343 13.2751 11.7675 13.2487 11.7675 13.2404C11.9004 13.2168 12.2688 13.023 12.8739 12.6602L12.8768 12.6948C12.8782 12.71 12.8269 12.7544 12.723 12.8305ZM11.7953 13.1352C11.8853 13.1268 11.9614 13.0923 12.0251 13.0313C12.0487 13.0285 12.0625 13.0397 12.0639 13.0618C12.0223 13.0659 11.9407 13.1006 11.8174 13.1671L11.798 13.1684L11.7953 13.1352ZM13.2936 11.9844L12.8324 12.3556C12.4876 12.5812 12.3007 12.6948 12.2716 12.6976C11.7233 12.9994 11.3826 13.1559 11.2482 13.1671L11.2288 13.1684C11.2455 13.1061 11.4906 12.6062 11.9642 11.6673C12.1705 11.6493 12.4973 11.551 12.9459 11.3737L13.0582 11.3641C13.2839 11.3447 13.4528 11.3889 13.5636 11.4956L13.5691 11.5635C13.4846 11.8016 13.3933 11.9415 13.2936 11.9844ZM12.3879 11.4748L12.4599 11.4678L12.4614 11.4858L12.3894 11.4928L12.3879 11.4748ZM13.4362 11.2962L13.4916 11.2921C13.5429 11.3169 13.5691 11.3391 13.5705 11.3571L13.5719 11.3723C13.5234 11.3765 13.4778 11.3516 13.4362 11.2962ZM13.5816 10.4528C13.5331 10.511 13.4016 10.6107 13.187 10.7492C13.115 10.7561 12.8491 10.8586 12.3894 11.058C12.3671 11.0497 12.3422 11.0469 12.3159 11.0483L12.3131 11.0137C12.3076 10.9473 12.3367 10.8641 12.4004 10.763C12.4364 10.572 12.4765 10.4653 12.5181 10.4403L12.9044 9.57625C12.9003 9.52506 12.982 9.48353 13.1482 9.45166L13.2036 9.44744L13.2077 9.50013C13.3711 9.47378 13.4736 9.4586 13.5151 9.45438C13.8198 9.42813 13.9791 9.48906 13.9915 9.6386L14.0275 9.63578L14.0206 9.55272L14.0566 9.55C14.1452 9.59847 14.1923 9.6566 14.1979 9.72578C14.202 9.77566 14.1771 9.8366 14.1245 9.90719C14.1009 9.91 14.0871 9.89341 14.0843 9.85741L14.0483 9.86013L14.0372 9.964C13.8834 10.198 13.7713 10.3185 13.7007 10.3241C13.6384 10.4086 13.5996 10.4514 13.5816 10.4528ZM13.7437 11.0289L13.7394 10.9763L13.7754 10.9735L13.8531 11.0206C13.8544 11.0428 13.8433 11.0553 13.8198 11.058C13.7866 11.0373 13.7617 11.0275 13.7437 11.0289ZM7.29745 14.3926L7.26144 14.4009L7.23098 14.4272C7.23651 14.4494 7.25037 14.4576 7.27391 14.4521C7.29745 14.4466 7.30714 14.4327 7.3016 14.4106L7.29745 14.3926ZM7.16035 14.1198L7.1645 14.1378C7.18805 14.1322 7.19775 14.1183 7.19221 14.0962L7.18805 14.0782C7.16589 14.0838 7.1562 14.0976 7.16035 14.1198ZM8.13525 11.8002L8.17679 11.7905L8.16848 11.7545L8.12693 11.7642L8.13525 11.8002ZM20.7008 12.8554C20.2798 12.9496 20.2272 12.933 20.1385 12.9399L20.1413 12.9745L20.1801 12.9718L20.2009 12.9704L20.1954 12.9663L20.241 12.9483C20.6578 12.9025 20.7063 12.9192 20.7022 12.872L20.7008 12.8554ZM18.4339 13.1559L18.4367 13.1906H18.4422L18.4394 13.1559H18.4339ZM18.1735 12.2433L18.1361 12.2309C18.1057 12.3126 18.0905 12.3611 18.0919 12.3749L18.0932 12.3902C18.1224 12.3888 18.1486 12.3389 18.1735 12.2433ZM20.7866 12.8485L20.7894 12.8831L20.8504 12.8943L20.8476 12.8596L20.7866 12.8485ZM17.9215 13.1988L17.8273 13.1878L17.8107 13.2238L17.8121 13.2418L18.3729 13.1947L18.3702 13.1601L17.9215 13.1988ZM17.6667 11.9705L17.6653 11.9525L17.6459 11.9539L17.6113 11.9761L17.6307 12.0093C17.6571 12.0065 17.6695 11.9941 17.6667 11.9705ZM21.0525 12.5937L21.0788 12.591C21.094 12.5896 21.101 12.5771 21.0996 12.555L21.0844 12.5217C20.9888 12.53 20.9445 12.5342 20.867 12.5771L20.8656 12.5591L20.7506 12.5702C20.7479 12.5356 20.7382 12.5176 20.723 12.519L20.6634 12.5245C20.5942 12.53 20.5609 12.5272 20.5263 12.5536C20.5249 12.5411 20.5208 12.5356 20.5138 12.5356L20.4473 12.5411L20.4086 12.5632C20.4072 12.5508 20.4031 12.5452 20.3962 12.5452L20.3726 12.566L20.3712 12.548L20.2784 12.5411L20.2563 12.5425L20.259 12.5771L20.3062 12.5896L20.3504 12.5868C20.3657 12.5965 20.3823 12.5992 20.4017 12.5979L20.4404 12.5785L20.4418 12.5937C20.2244 12.6477 20.2258 12.638 20.0763 12.663C20.0596 12.6519 20.0471 12.6464 20.0389 12.6477L20.0361 12.6505C20.0195 12.6491 20.0098 12.638 20.0084 12.62L20.0859 12.6104C20.0915 12.6104 20.0956 12.6159 20.1385 12.6242C20.2009 12.5937 20.2037 12.5812 20.2369 12.5785L20.2342 12.5439C20.0209 12.5854 20.1068 12.5577 19.8395 12.5812L19.827 12.5826L19.8242 12.548C20.1676 12.5065 20.0528 12.53 20.1704 12.4968C20.1718 12.5092 20.1759 12.5148 20.1829 12.5148C20.1968 12.501 20.2119 12.494 20.2299 12.4912L20.2535 12.4898C20.3739 12.4802 20.4142 12.5037 20.6523 12.4372L20.6537 12.4525L20.6925 12.4331L20.7285 12.4303C20.7257 12.3957 20.7784 12.3902 20.7964 12.3888L20.7936 12.3513C20.3754 12.4358 20.2659 12.4123 20.1496 12.4456L20.1483 12.4303C20.0389 12.4497 20.0347 12.4413 20.007 12.4428C19.9987 12.4442 19.9863 12.4511 19.9724 12.465C19.971 12.4525 19.9669 12.447 19.9585 12.447C19.9544 12.447 19.953 12.4483 19.9516 12.4483L19.5971 12.5065C19.5957 12.4968 19.5916 12.4912 19.5833 12.4926C19.3991 12.5314 19.4489 12.5383 19.2024 12.5605C19.1914 12.5619 19.1761 12.5674 19.1568 12.5799C19.1554 12.5702 19.1499 12.5646 19.1374 12.566L18.9864 12.5785L18.8854 12.6034C18.884 12.5937 18.8784 12.5882 18.866 12.5896C18.8092 12.6048 18.7593 12.6145 18.7192 12.6172H18.7164C18.6915 12.62 18.7288 12.6104 18.7095 12.602L18.679 12.62C18.6347 12.6242 18.6582 12.6172 18.5059 12.6186C18.2386 12.6519 18.2678 12.656 18.2386 12.6574L18.1389 12.6505C18.1404 12.6602 18.1348 12.6671 18.1237 12.6671C18.0101 12.6519 17.952 12.6339 17.9506 12.6131C17.9659 12.5051 17.9921 12.4497 18.0295 12.447L18.0489 12.4456L18.0324 12.4816L18.0517 12.4802C18.0877 12.4608 18.1044 12.4428 18.1029 12.4262L18.1001 12.3888L18.0641 12.3916L18.0614 12.3569C18.0586 12.3306 18.0628 12.3071 18.0725 12.2877L18.1541 12.1562L18.1569 12.1908L18.1958 12.1879L18.1929 12.1533L18.1708 12.1215C18.1999 12.0965 18.222 12.0828 18.24 12.0813L18.2386 12.0633L18.186 12.0675L18.1819 12.0149C18.2871 11.7961 18.3369 11.6687 18.3342 11.6327L18.3715 11.6479C18.3952 11.6465 18.4062 11.6327 18.4048 11.6077L18.3688 11.6105L18.3674 11.5953C18.3647 11.569 18.3702 11.5441 18.3813 11.5219C18.438 11.4623 18.4643 11.4028 18.4588 11.3405C18.4699 11.3391 18.4754 11.3447 18.4768 11.3571C18.5253 11.3294 18.5627 11.256 18.5904 11.1342C18.6762 10.979 18.7981 10.6689 18.9574 10.2049C19.262 9.38519 19.2495 9.29793 19.2924 9.10406L19.2564 9.10683C19.2593 9.13176 19.2537 9.1553 19.2426 9.17745C19.2177 9.16776 19.1983 9.16221 19.1844 9.1636L19.183 9.14837C19.1775 9.07775 19.2066 8.99328 19.273 8.89357L19.2897 8.89219L19.3202 9.01128L19.3562 9.00851C19.3548 9.0002 19.3644 8.95311 19.3839 8.86587C19.3824 8.84787 19.3687 8.8368 19.3409 8.83541L19.3063 8.85756C19.3035 8.83264 19.3049 8.76756 19.309 8.6637L19.291 8.66508C19.2606 8.63462 19.2454 8.60969 19.244 8.58891L19.046 8.6083C19.0446 8.59446 19.0376 8.57369 19.0239 8.54737C19.0224 8.52937 19.0668 8.51137 19.1581 8.49336L19.1983 8.5086L19.2357 8.48645C19.237 8.49891 19.244 8.50445 19.2579 8.50306L19.2953 8.48091C19.2967 8.49336 19.3035 8.49891 19.3174 8.49752L19.3354 8.49614L19.3327 8.45598C19.3049 8.45875 19.2315 8.45875 19.1153 8.45459L19.0779 8.47952L19.0764 8.45736C18.1473 8.53353 17.6197 8.57646 17.4937 8.58891C17.477 8.5903 17.4119 8.58891 17.297 8.58615C17.2984 8.60138 17.2845 8.60969 17.2569 8.61246L17.2166 8.59446L17.081 8.62908C17.0491 8.63184 16.9951 8.63046 16.9203 8.62215C16.8996 8.63877 16.8746 8.64846 16.8442 8.65123C16.8276 8.65262 17.0422 8.64016 17.2416 8.62631C17.2209 8.64292 17.189 8.65262 17.1446 8.65677C17.1142 8.65955 17.0879 8.65538 17.0657 8.64292C17.0352 8.65677 16.937 8.67893 16.7722 8.71217L16.732 8.69693L16.0839 8.79664C16.059 8.78417 16.0299 8.78001 15.9967 8.78279C15.9621 8.78556 15.9039 8.79802 15.8236 8.82018L15.5106 8.95035L15.5342 8.98912C15.5494 8.98774 15.5715 8.97943 15.5979 8.9642L15.7087 8.97389L15.6948 9.07775C15.5923 9.12345 15.5328 9.1913 15.5162 9.27715C15.3624 9.34501 15.2863 9.39344 15.2863 9.4226L15.2876 9.4406L15.3112 9.43919L15.3528 9.41706L15.4013 9.47519L15.4081 9.55553C15.4109 9.58047 15.152 10.1247 14.634 11.1882C14.1854 12.2129 13.9499 12.7738 13.9278 12.8748C13.7741 12.9178 13.6854 12.98 13.6592 13.0632C13.6619 13.0894 13.7077 13.1074 13.7963 13.1144L13.8004 13.1546L13.7603 13.2211L13.7672 13.3013C13.7713 13.3428 13.8834 13.3747 14.1037 13.3969C14.1023 13.3831 14.1092 13.3747 14.1245 13.3733C14.1286 13.4232 14.1147 13.5201 14.0829 13.6641L14.1065 13.6628C14.1979 13.5381 14.2407 13.4523 14.2366 13.4052L14.256 13.4038C14.2781 13.4025 14.3017 13.4273 14.3294 13.4814C14.3017 13.4925 14.2047 13.7126 14.0386 14.1433L14.0621 14.1821L14.0857 14.1807C14.2892 13.6655 14.4166 13.3803 14.4693 13.3263C14.7365 13.3027 15.199 13.2557 15.8554 13.1851L15.897 13.1601C15.8983 13.1739 15.9067 13.1808 15.9219 13.1794L15.9648 13.1753L16.0063 13.1504C16.0077 13.1643 16.0161 13.1712 16.0313 13.1698L16.5284 13.1268C16.6599 13.1158 16.7223 13.0757 16.7168 13.0078C16.7154 12.9898 16.7929 12.969 16.9494 12.9468C16.9646 12.9454 16.9868 12.9496 17.0172 12.9593C17.0159 12.9468 17.0949 12.9344 17.2526 12.9205C17.2569 12.8374 17.2831 12.7931 17.3303 12.789L17.326 12.7488C17.2818 12.753 17.2319 12.764 17.1738 12.7834C17.0699 12.7779 17.0034 12.7696 16.9757 12.7599C16.948 12.7751 16.9272 12.7834 16.912 12.7848L16.5658 12.7959L16.5243 12.818C16.5229 12.8056 16.5145 12.8 16.4993 12.8014L16.4799 12.8028L16.4357 12.825C16.4343 12.8125 16.3983 12.8028 16.3263 12.7931L16.2819 12.8194L16.1961 12.8264L16.1947 12.8043C16.6406 12.7558 16.8608 12.6948 16.8552 12.6228C16.8843 12.62 16.8996 12.6339 16.9023 12.663L17.0325 12.6297L17.0284 12.5896L15.9607 12.6186C15.9621 12.6325 15.9551 12.6408 15.9398 12.6422L15.8097 12.6311C15.7765 12.6339 15.7488 12.6436 15.7267 12.6602L15.6782 12.6422C15.5438 12.6532 15.4441 12.6699 15.3776 12.6906C15.2863 12.6837 15.1852 12.6851 15.073 12.6948L14.8334 12.7156L14.7227 12.7031C14.7172 12.6325 14.8542 12.2849 15.1367 11.6617C15.2184 11.4513 15.2932 11.3197 15.3652 11.2698C15.3804 11.2684 15.4026 11.274 15.433 11.2864L15.6034 11.2283L15.6907 11.2422C15.8374 11.2297 16.0077 11.1882 16.203 11.1162C16.2515 11.112 16.2875 11.1148 16.3138 11.1258L16.4439 11.0954L16.8317 11.0622C16.9965 11.0483 17.1751 11.0123 17.369 10.9528L17.3649 10.9126C17.2929 10.9195 17.2554 10.907 17.2526 10.878C17.2485 10.824 17.1959 10.8018 17.0949 10.8101L17.0906 10.77L17.1973 10.7395L17.477 10.716L17.4729 10.6758C17.4618 10.6772 17.405 10.6758 17.2998 10.6716L17.2956 10.6287L17.4036 10.619C17.4327 10.6162 17.4452 10.6024 17.4424 10.5747C17.297 10.5788 17.2236 10.572 17.2222 10.5526C16.2085 10.6024 15.7003 10.6121 15.6976 10.5802C15.6823 10.5816 15.6616 10.5913 15.6339 10.608L15.6075 10.5663C15.8762 9.99588 16.0341 9.70778 16.0797 9.70366C16.0811 9.72578 16.0701 9.76188 16.0451 9.81025L16.0465 9.82835L16.0895 9.82413C16.1961 9.56931 16.2861 9.43778 16.3609 9.43225C16.6794 9.4046 16.3165 9.38378 16.9979 9.27715C17.0256 9.28962 17.045 9.29516 17.0589 9.29377C17.326 9.23976 17.6986 9.18299 18.1763 9.12483L18.1735 9.08467L17.9187 9.10821L17.916 9.06805C17.9465 9.06529 17.9714 9.05559 17.9921 9.03897L17.9935 9.06113C18.0074 9.05975 18.0267 9.05005 18.0517 9.03343C18.096 9.02928 18.1293 9.03343 18.1528 9.0459C18.2414 9.02236 18.3134 9.00851 18.366 9.00297L18.5253 8.98774C18.5641 8.96281 18.5821 8.94066 18.5807 8.91988L18.5793 8.90188C18.5392 8.90603 18.4934 8.90327 18.4394 8.89357C18.438 8.87141 18.4492 8.85618 18.4754 8.84926L18.7718 8.82156L18.9075 8.78694C18.9089 8.80218 18.9158 8.80772 18.9269 8.80772C18.9407 8.80633 18.9601 8.79664 18.985 8.78001C18.992 8.7814 19.0003 8.7814 19.0072 8.78279C18.9892 8.82018 18.9684 8.87419 18.9476 8.94481L18.9089 8.94757C18.9061 8.92127 18.8992 8.89773 18.8867 8.87695L18.8673 8.87834C18.5073 9.88094 18.3467 10.3476 18.0144 11.1175C17.9534 11.3142 17.9021 11.4236 17.8578 11.4471C17.8592 11.4693 17.8731 11.4803 17.8966 11.4776C17.9049 11.5745 17.8827 11.6701 17.8287 11.7642C17.6751 12.2073 17.5726 12.4497 17.5199 12.494L17.5546 12.7031C17.5559 12.7253 17.5449 12.7377 17.5213 12.7405L17.4853 12.7433C17.4798 12.6851 17.459 12.6574 17.4217 12.6616L17.4023 12.663C17.3552 12.7364 17.3191 12.8208 17.2956 12.9192L17.3316 12.9164C17.38 12.8845 17.4023 12.8471 17.398 12.8043L17.47 12.7973L17.5117 12.8125C17.4784 12.8651 17.4632 12.9067 17.4659 12.9385L17.4853 12.9718L17.4383 13.0825L17.4397 13.1006C17.4812 13.0964 17.5269 13.1103 17.5753 13.1393C17.6086 13.1366 17.6446 13.1213 17.6847 13.095C17.7263 13.0908 17.8813 13.0894 18.1486 13.0894L18.2829 13.0438C18.4464 13.0424 18.4727 13.0465 18.6139 13.0341L18.6721 13.0285L18.7026 13.0078L18.704 13.0258C18.8521 13.0133 18.8618 13.023 18.9781 13.0368L18.9795 13.0548L18.8978 13.0618L18.9006 13.0964C18.9255 13.0937 18.9476 13.0867 18.9656 13.0714C18.9864 13.0701 18.9989 13.0812 19.0003 13.1061C18.967 13.1088 18.9296 13.1172 18.8881 13.131L18.8521 13.1186C18.7953 13.1338 18.8078 13.1379 18.769 13.1407L18.7122 13.1297C18.7136 13.1393 18.7081 13.1463 18.6984 13.1463C18.6998 13.1684 18.7122 13.1794 18.733 13.1781L18.7912 13.1726L19.0944 13.1463L19.2094 13.1213C19.2108 13.131 19.2149 13.1366 19.2246 13.1352L19.28 13.1144L19.3839 13.1061C19.4642 13.0992 19.4628 13.0937 19.6373 13.0659C19.6359 13.0548 19.6401 13.0507 19.6483 13.0493L19.6497 13.0645C19.9336 13.016 19.9516 13.0133 19.9973 12.998L20.0015 13.0064C20.0721 12.9898 20.0319 12.9939 20.0513 12.98C20.0528 12.9925 20.0569 12.998 20.0638 12.998L20.1136 12.9939L20.1109 12.9565L20.0098 12.9552L20.0084 12.9524C20.0043 12.9538 20.0015 12.9538 19.9973 12.9552H19.9835V12.9579C19.9156 12.9718 19.9142 12.962 19.8699 12.9663L19.6165 12.98L19.6151 12.962L19.7564 12.9427L19.8076 12.9385L19.8367 12.9178L19.8381 12.9358C20.0375 12.9192 20.1081 12.969 21.0304 12.7724C21.0803 12.7682 21.076 12.7266 21.1079 12.6408C21.0913 12.6422 21.0747 12.638 21.0594 12.6297C20.9833 12.6588 20.9431 12.645 20.7964 12.6685C20.7839 12.6699 20.7742 12.6588 20.77 12.6366L20.7686 12.6214L20.9099 12.6256C20.9362 12.6228 20.9874 12.6186 21.0636 12.5757C21.0636 12.5882 21.0359 12.5951 21.0525 12.5937ZM14.2339 12.7031L14.1687 12.7086C14.166 12.6824 14.2006 12.5826 14.2726 12.4123L14.3155 12.4082C14.3169 12.4483 14.2906 12.5466 14.2339 12.7031ZM14.3128 12.3873L14.3114 12.3693C14.31 12.3472 14.3239 12.332 14.3543 12.3251L14.3557 12.3431C14.3571 12.3693 14.3432 12.3846 14.3128 12.3873ZM15.1782 13.0563L15.1796 13.0743L15.0716 13.0839L15.0702 13.0659L15.1782 13.0563ZM15.0481 13.0452C15.0495 13.0673 15.0162 13.0923 14.9442 13.1172L14.8113 13.1074L14.7683 13.1117L14.7642 13.0714L15.0481 13.0452ZM15.9233 9.01682L15.8582 9.02236L15.8568 9.0002C15.8554 8.97804 15.8679 8.96281 15.8956 8.95589L15.9191 8.9545L15.9635 8.9725C15.9648 8.99882 15.9523 9.01404 15.9233 9.01682ZM16.9134 8.82294L16.9342 8.82156L16.937 8.86172L16.8773 8.86726C16.876 8.8451 16.8871 8.82987 16.9134 8.82294ZM16.6642 8.91019L16.5658 8.89911L16.5644 8.88111C16.6932 8.87003 16.7362 8.85618 16.8151 8.83402C16.8165 8.84926 16.8303 8.8548 16.8552 8.85202L16.858 8.89219L16.8192 8.89634C16.7888 8.89911 16.7624 8.89495 16.7403 8.88249C16.7168 8.89773 16.6918 8.90742 16.6642 8.91019ZM16.7874 9.26885L16.786 9.25085L16.9452 9.23561L16.9466 9.25361L16.7874 9.26885ZM16.9577 9.13037L16.9563 9.10821L17.0339 9.10129L17.0352 9.12345L16.9577 9.13037ZM16.9757 8.85895L16.955 8.86034L16.973 8.81741L17.1502 8.80079L17.1516 8.82294C17.1059 8.82711 17.0464 8.83956 16.9757 8.85895ZM17.0657 9.24115L17.063 9.20099L17.1405 9.19407C17.1669 9.1913 17.1806 9.20376 17.182 9.23146L17.0657 9.24115ZM17.5352 8.60138L17.4354 8.62908L17.4174 8.63046C17.3704 8.63462 17.3094 8.63323 17.2374 8.62631C17.3663 8.618 17.4894 8.6083 17.5352 8.60138ZM17.4285 9.04451L17.4299 9.06251L17.2929 9.07498L17.2914 9.05697L17.4285 9.04451ZM17.6529 9.15114C17.6515 9.13452 17.6252 9.12345 17.5712 9.11791L17.434 9.15668L17.3289 9.16084C17.3053 9.14421 17.2929 9.13314 17.2914 9.12483L17.4133 9.13176L17.6875 9.08744L17.8273 9.09298L17.8287 9.11513C17.7595 9.12206 17.7013 9.13452 17.6529 9.15114ZM19.064 8.78694C19.0806 8.78833 19.0916 8.78833 19.0958 8.78833C19.1443 8.74124 19.1983 8.70385 19.2606 8.67755C19.2108 8.89634 19.1333 9.05836 19.0266 9.1636L18.949 9.11652C19.0141 8.95173 19.0529 8.84233 19.064 8.78694ZM18.8258 9.19546L18.8452 9.19407C18.8189 9.24392 18.7953 9.27023 18.776 9.27162L18.7718 9.219C18.7842 9.219 18.8022 9.21068 18.8258 9.19546ZM18.6721 9.56238C18.7095 9.41285 18.7455 9.3284 18.7787 9.30623L18.7801 9.32424C18.7607 9.46272 18.7302 9.53613 18.6901 9.54166L18.697 9.62885C18.6638 9.676 18.6486 9.712 18.6499 9.73966L18.6306 9.74106L18.6194 9.6206C18.6416 9.61778 18.6596 9.59847 18.6721 9.56238ZM18.6126 9.76188C18.6139 9.7826 18.6001 9.83106 18.5723 9.90588L18.5529 9.90719L18.5488 9.8546C18.5752 9.79366 18.5973 9.76319 18.6126 9.76188ZM17.495 13.005L17.4937 12.9898L17.5297 12.987L17.5338 13.0397C17.5144 13.041 17.5005 13.0299 17.495 13.005ZM19.0916 13.0465C19.0903 13.034 19.0848 13.0285 19.0723 13.0299L18.9822 13.0383L18.9809 13.0203H18.9892L19.2024 13.0023L19.2038 13.0203C19.1415 13.023 19.1041 13.0327 19.0916 13.0465ZM18.985 13.0023C18.9934 13.0064 18.9892 13.0105 18.985 13.0133C18.9809 13.0119 18.9754 13.0078 18.985 13.0023ZM18.9961 12.753L18.877 12.7626L18.8756 12.7446L18.9836 12.735L19.0779 12.7114C19.0792 12.7225 19.0848 12.7266 19.0972 12.7253C19.2094 12.7059 19.1983 12.7004 19.2523 12.6962C19.2703 12.6948 19.2814 12.7059 19.2828 12.728L18.9961 12.753ZM19.4129 12.717C19.3464 12.71 19.3423 12.7045 19.2953 12.7086L19.2938 12.6934L19.4004 12.6837L19.4019 12.699C19.3908 12.7004 19.4309 12.7031 19.4129 12.717ZM19.4213 12.6976L19.4199 12.6824L19.4781 12.6768L19.4794 12.692L19.4213 12.6976ZM19.5501 12.6865L19.5487 12.6712C19.5583 12.6699 19.5722 12.663 19.5902 12.6491C19.6193 12.6464 19.6345 12.6657 19.6373 12.6879L19.5501 12.6865ZM19.7148 12.6657L19.7135 12.6477L19.7841 12.6422L19.7855 12.6602L19.7148 12.6657ZM19.8131 12.6574C19.8117 12.6366 19.8201 12.6242 19.8381 12.6214L19.8616 12.6519C19.8602 12.6422 19.8644 12.6366 19.8727 12.6352L19.8907 12.6685L19.8131 12.6574ZM18.7676 13.1088L18.7648 13.0743L18.7538 13.0757L18.7566 13.1103L18.7676 13.1088ZM21.2007 12.4788C21.2118 12.4718 21.2173 12.465 21.191 12.4608C21.1785 12.4746 21.2049 12.4788 21.1772 12.4802L21.1785 12.4926C21.1813 12.4898 21.1883 12.4857 21.1938 12.4816L21.1785 12.494V12.4954L21.1494 12.5328L21.2077 12.512H21.2145L21.2118 12.4774L21.2007 12.4788ZM21.3018 12.5577L21.2907 12.5591L21.2934 12.5937L21.3752 12.5868C21.3738 12.5646 21.3198 12.5577 21.3018 12.5577ZM21.1758 12.4968L21.1772 12.4954V12.494C21.1772 12.494 21.1758 12.4954 21.1758 12.4968Z" fill="black"/>
<path d="M15.8594 9.93347L15.8608 9.95559L15.9065 9.95147C15.9051 9.93759 15.9106 9.91547 15.9203 9.88781L15.9162 9.84759C15.8968 9.849 15.8774 9.87806 15.8594 9.93347ZM15.4218 8.88105L15.4177 8.84089L15.3526 8.84643L15.3567 8.88659L15.4218 8.88105ZM14.1519 11.2587C14.1492 11.2213 14.0329 11.0759 13.803 10.8198C13.7989 10.7726 13.8778 10.702 14.0398 10.6092L14.5023 10.2063C14.6062 10.0747 14.6671 9.86147 14.6851 9.56512L14.6796 9.49725C14.6616 9.29233 14.5133 9.12754 14.2323 9.00152C14.0661 8.88936 13.767 8.82704 13.3349 8.81596C12.9776 8.84643 12.511 8.97383 11.9363 9.19955C11.7785 9.3131 11.5984 9.42666 11.3962 9.54019L11.399 9.57478C11.4114 9.57347 11.4308 9.56653 11.453 9.55125C11.4766 9.54853 11.4904 9.55959 11.4918 9.58172L11.5264 9.56372L11.5431 9.56241L11.5444 9.57759C11.5458 9.59559 11.4212 9.69394 11.1691 9.86981L11.1885 9.90581L11.1719 9.90722L11.1304 9.89194C11.1318 9.90441 11.1138 9.91275 11.0791 9.91547L11.0805 9.93075L11.1206 9.98053C11.1082 9.98194 11.0888 9.97641 11.0625 9.96675C11.0044 9.97228 10.9476 10.0028 10.8907 10.0609L10.9143 9.95841C10.9988 9.59419 11.057 9.27156 11.0874 8.99183L11.0833 8.97383C11.0251 8.93644 10.9684 8.88382 10.9157 8.81735C10.9171 8.77442 10.9171 8.74949 10.9157 8.74395L10.9116 8.72872L10.895 8.73288C10.7122 9.00706 10.3604 9.47512 9.83831 10.1371C9.44091 10.6079 9.23597 10.8696 9.2235 10.9222C9.06148 11.0898 8.98394 11.1908 8.99225 11.2255C8.94932 11.2532 8.93132 11.2808 8.93824 11.3113C8.92578 11.3141 8.91746 11.31 8.9147 11.2975C8.84546 11.4097 8.74298 11.4817 8.60589 11.5135L8.46187 11.5467C8.44249 11.5509 8.43279 11.5647 8.43417 11.5883L8.43833 11.6063L8.49233 11.5939L8.49649 11.6091L8.37463 11.6561L8.1586 11.706L8.04505 11.7129C8.02843 11.7295 8.13506 11.7115 8.09352 11.7213L7.95227 11.7545C7.86641 11.7739 7.81933 11.7669 7.81102 11.7323L7.7944 11.7365C7.79718 11.7518 7.79856 11.7628 7.79579 11.7725L7.78748 11.7379L7.67393 11.7641C7.66562 11.7115 7.51191 11.5205 7.21418 11.1908C7.20864 11.1272 7.31389 11.0344 7.52853 10.9139L8.13506 10.3807C8.27078 10.2063 8.35109 9.92653 8.3774 9.54159L8.36909 9.45159C8.34555 9.18016 8.14891 8.96137 7.77917 8.79242C7.56037 8.64425 7.16709 8.56532 6.59933 8.55285C6.12851 8.59301 5.51366 8.76057 4.75757 9.05276C4.54986 9.2037 4.31305 9.35326 4.04718 9.50147L4.05133 9.54853C4.06933 9.54712 4.09287 9.53747 4.12195 9.52078C4.15242 9.51806 4.16903 9.53194 4.17181 9.55959L4.21889 9.53325L4.24243 9.53194L4.24382 9.55406C4.2452 9.57619 4.08041 9.705 3.74667 9.94041L3.77299 9.98194L3.74945 9.98334L3.69821 9.96534C3.69959 9.97922 3.67605 9.98888 3.62758 9.993L3.63036 10.0179L3.68574 10.0789C3.66774 10.0803 3.64282 10.0748 3.61097 10.0637C3.50295 10.0733 3.39771 10.1509 3.29385 10.2977L3.32017 10.3392C3.41018 10.2562 3.4628 10.2146 3.47803 10.2132L3.48357 10.2811C3.46834 10.2824 3.4448 10.2922 3.41294 10.3087L3.46972 10.3946C3.57912 10.2769 3.69959 10.1758 3.83115 10.0913C3.89623 10.1079 3.93085 10.1288 3.93224 10.1509L3.98209 10.1468C4.33937 9.88228 4.69249 9.69112 5.04283 9.57347L5.04699 9.62053C4.9819 9.71747 4.9376 9.76734 4.91405 9.77006C4.91682 9.80334 4.9279 9.83241 4.94867 9.85734C4.95421 9.91687 4.79496 10.3185 4.47231 11.0607C3.73975 12.7862 3.1249 14.0629 2.625 14.8882C2.62639 14.9048 2.63608 14.9271 2.65408 14.9547C2.77732 14.9257 2.85487 14.8952 2.88811 14.8661L2.91443 14.8633L2.91858 14.9104L2.96427 14.9062L3.01135 14.8799C3.01274 14.8938 3.02797 14.9007 3.05982 14.8979L3.06397 14.9451C3.06813 14.9907 3.04182 15.06 2.98642 15.1555C2.93658 15.2122 2.88257 15.3314 2.82579 15.5128L2.82718 15.5349L2.87287 15.5308C3.07229 15.3079 3.22323 15.0891 3.32708 14.8758C3.9087 14.7054 4.35183 14.5379 4.65925 14.3731C4.96806 14.3468 5.20347 14.2651 5.3641 14.1307L5.36134 14.1058L5.24501 14.1405L5.21871 14.1432L5.21593 14.1183C5.44304 14.0837 5.59952 14.0338 5.68676 13.9646C6.12851 13.6239 6.46224 13.383 6.68797 13.2403C7.15187 12.8997 7.45374 12.5674 7.59084 12.2447C7.61577 12.2392 7.64069 12.2336 7.66839 12.2267C7.73348 12.2239 7.76947 12.2226 7.77917 12.2197C7.7764 12.2073 7.78194 12.2003 7.7944 12.1976C7.89827 12.1866 7.84841 12.2046 7.91488 12.1893L8.08937 12.1492L8.11845 12.1422L8.10459 12.1506C8.12398 12.1533 8.14476 12.1519 8.1683 12.1463L8.18076 12.1976L7.38727 13.4591L7.21141 13.6793L7.12555 13.9673L7.14217 13.9632L7.22803 13.9272L7.20033 14.0393L7.20864 14.0726L7.23218 14.1017C7.2211 14.1045 7.21695 14.1113 7.21972 14.1238L7.22387 14.1418L7.25988 14.1336C7.3125 14.0878 7.33465 14.0463 7.32635 14.0089C7.38312 14.0186 7.42051 14.0227 7.4399 14.0172L7.44405 14.0352C7.40944 14.0436 7.39143 14.0712 7.38866 14.1183L7.39282 14.1363L7.4122 14.1322C7.70024 13.8178 8.40648 12.7418 8.97286 12.0121C8.95486 11.9332 9.24982 11.8238 9.85913 11.6825L9.87853 11.6783C9.90066 11.7739 9.85359 12.0052 9.73725 12.3721C9.66244 12.5936 9.62644 12.7155 9.63206 12.7349C9.53512 13.0298 9.48938 13.1891 9.49491 13.2141L9.2789 13.9217C9.13903 14.2845 9.0324 14.6653 8.95762 15.0668C8.97008 15.0641 8.98947 15.0655 9.01717 15.0725L9.04763 15.0461C9.05041 15.0586 9.05872 15.0627 9.07118 15.06L9.05872 15.0087L9.15288 15.006C9.18057 14.9991 9.20412 14.9644 9.2235 14.9007C9.21935 14.8052 9.23873 14.7539 9.28166 14.7428C9.33983 14.5158 9.37584 14.4022 9.38831 14.398C9.44231 14.1723 9.48244 14.0436 9.50878 14.0117C9.59044 13.7181 9.65006 13.5671 9.68878 13.5575L9.69712 13.5935L9.63759 13.7472C9.53372 14.2083 9.42844 14.5725 9.32183 14.8398L9.35229 14.9727L9.37168 14.9686C9.62925 14.4146 10.0004 13.3179 10.4837 11.6783C10.4975 11.5343 10.5668 11.4221 10.69 11.3432L10.6623 11.3141L10.6582 11.2988C10.7136 11.2864 10.7523 11.2643 10.7745 11.2338C10.7717 11.2213 10.7232 11.2033 10.6291 11.1784L10.87 10.1453C10.9226 10.0983 10.9531 10.0733 10.9627 10.0733L10.967 10.1259C10.9545 10.1273 10.9351 10.1343 10.913 10.1495L10.9586 10.2146C11.0417 10.1246 11.1318 10.047 11.23 9.98194C11.2799 9.99581 11.3048 10.0124 11.3076 10.029L11.3437 10.0263C11.6178 9.82547 11.8865 9.68147 12.1509 9.59419L12.1537 9.62888C12.1053 9.70219 12.072 9.73959 12.054 9.741C12.0568 9.76594 12.0637 9.78806 12.0761 9.80747C12.0803 9.85312 11.9612 10.1578 11.7175 10.7228C11.1608 12.0314 10.6942 12.9994 10.3148 13.6281C10.3161 13.6405 10.3244 13.6572 10.3397 13.6793C10.4324 13.6572 10.4919 13.6336 10.5155 13.6115L10.5322 13.6101L10.5349 13.6448L10.5737 13.6419L10.6083 13.6239C10.6097 13.6336 10.6222 13.6378 10.6457 13.6364L10.6484 13.6738C10.6512 13.707 10.6318 13.7597 10.5889 13.8317C10.5487 13.8746 10.5072 13.9646 10.4629 14.1017L10.4643 14.1197L10.5003 14.117C10.6512 13.9479 10.7662 13.7818 10.8451 13.6184C11.2868 13.4882 11.6233 13.3622 11.856 13.2376C12.0928 13.2168 12.2714 13.1558 12.3933 13.0534L12.3919 13.0354L12.3019 13.0617L12.2825 13.0631L12.2812 13.0451C12.4528 13.0202 12.5733 12.9814 12.6383 12.9302C12.9735 12.6726 13.2269 12.4884 13.3987 12.3804C13.9331 11.9913 14.1824 11.6174 14.1519 11.2587ZM14.0605 11.2823L14.073 11.4221C14.0564 11.4567 14.0384 11.4747 14.0218 11.4761L14.001 11.2379C14.0398 11.2518 14.0592 11.2657 14.0605 11.2823ZM3.57496 10.1551L3.55142 10.1564L3.54727 10.1135L3.64282 10.1052L3.6442 10.1273C3.62897 10.1288 3.60543 10.1371 3.57496 10.1551ZM3.10829 14.8232C3.0529 14.7982 3.00305 14.7885 2.96012 14.7927L2.95458 14.7248C2.95181 14.6985 2.96704 14.6805 3.00028 14.6736C3.03074 14.6708 3.04874 14.693 3.05152 14.7373C3.13183 14.639 3.17615 14.5891 3.18445 14.5878L3.23569 14.6085C3.21907 14.747 3.17615 14.8177 3.10829 14.8232ZM8.0949 9.60666C8.07136 9.60947 8.02428 9.53606 7.95642 9.39066L7.95227 9.34772C7.99658 9.34357 8.04228 9.41559 8.09075 9.56372L8.0949 9.60666ZM8.02843 9.09015L8.00904 9.13584L7.33189 8.85335C7.78333 8.86858 8.01597 8.94752 8.02843 9.09015ZM5.16885 11.5454L5.0733 11.5537L5.06915 11.5107L5.1647 11.5025L5.16885 11.5454ZM5.0913 10.0705L5.11484 10.0692L5.12038 10.1371C5.09823 10.1384 5.06915 10.1717 5.03315 10.2353L5.02898 10.1883C5.07191 10.1371 5.09408 10.0983 5.0913 10.0705ZM4.89051 10.5442L4.89882 10.6342L4.87528 10.6356L4.86697 10.5456L4.89051 10.5442ZM4.78526 10.7131L4.83097 10.709C4.82681 10.7838 4.80604 10.8239 4.76865 10.8266L4.74511 10.828C4.77419 10.7782 4.78804 10.7394 4.78526 10.7131ZM4.70633 10.9485L4.73264 10.9458L4.73403 10.9679L4.6911 11.0399L4.64541 11.0441L4.64402 11.0219C4.68971 11.0178 4.71049 10.9942 4.70633 10.9485ZM4.62878 11.1604L4.61494 11.274L4.5914 11.2753L4.5817 11.1632L4.62878 11.1604ZM3.85193 13.3691C3.82146 13.5242 3.78822 13.6031 3.7536 13.6059L3.75221 13.5838C3.74391 13.5076 3.77714 13.4356 3.85193 13.3691ZM3.70928 13.6779L3.71067 13.7001C3.71344 13.7305 3.69959 13.7485 3.66913 13.7499L3.66774 13.7278C3.66498 13.7015 3.67883 13.6849 3.70928 13.6779ZM3.66774 14.3191L3.73975 14.3122L3.74252 14.3371C3.72452 14.3385 3.70098 14.3482 3.6719 14.3648L3.6262 14.369C3.62343 14.3454 3.63866 14.3274 3.66774 14.3191ZM5.71723 13.6863C5.31287 13.8857 5.07469 14.0213 5.00407 14.092C4.56647 14.2443 4.34906 14.3385 4.35322 14.3759C3.96409 14.5296 3.70791 14.6432 3.58465 14.7138C3.55557 14.7165 3.51403 14.7054 3.45864 14.6805C3.45172 14.6016 3.48773 14.5379 3.56389 14.4866C3.63174 14.4811 3.69683 14.4908 3.75914 14.5171C3.83115 14.4798 3.95716 14.4382 4.1358 14.3939L4.13165 14.3467L3.98763 14.3592C4.00563 14.3344 4.14411 14.2692 4.40445 14.164L4.47646 14.1571L4.47785 14.1792C4.35459 14.1903 4.28675 14.2263 4.27151 14.2914C4.27428 14.3205 4.2909 14.333 4.32136 14.3302C4.41414 14.272 4.45984 14.2374 4.45846 14.2277C4.63433 14.1945 5.12038 13.9397 5.91664 13.4647L5.92079 13.5076C5.92218 13.5284 5.85432 13.5865 5.71723 13.6863ZM4.49585 14.0878C4.61217 14.0782 4.71187 14.0311 4.79496 13.9493C4.82819 13.9466 4.8462 13.9591 4.84758 13.9882C4.7908 13.9937 4.68141 14.0407 4.52215 14.1322L4.49861 14.1336L4.49585 14.0878ZM6.4664 12.5743L5.85571 13.0589C5.4015 13.3567 5.15777 13.5062 5.12177 13.509C4.39891 13.9064 3.94885 14.1128 3.77437 14.128L3.74806 14.1307C3.77022 14.0491 4.09148 13.3912 4.71464 12.1533C4.98883 12.1297 5.42088 12.0023 6.00941 11.7697L6.15343 11.7573C6.45116 11.7309 6.67411 11.7891 6.8209 11.9275L6.82921 12.0176C6.71981 12.3347 6.59795 12.5202 6.4664 12.5743ZM5.27271 11.9027L5.37103 11.8943L5.37242 11.9165L5.27409 11.9248L5.27271 11.9027ZM6.65334 11.6686L6.72535 11.6617C6.79182 11.6935 6.82644 11.7213 6.82921 11.7461L6.8306 11.7683C6.76689 11.7739 6.70735 11.7406 6.65334 11.6686ZM6.8486 10.5566C6.78489 10.6328 6.61042 10.763 6.32514 10.9458C6.23098 10.954 5.88063 11.0898 5.27409 11.3557C5.24363 11.3418 5.21178 11.3362 5.17716 11.3391L5.173 11.2961C5.16608 11.2088 5.20486 11.0994 5.29072 10.9665C5.3378 10.7173 5.38903 10.5746 5.44581 10.54L5.95126 9.40313C5.94572 9.33248 6.05373 9.27848 6.2753 9.24109L6.34731 9.23417L6.35285 9.29925C6.57025 9.26602 6.70597 9.24663 6.75859 9.24248C7.16017 9.20785 7.36927 9.28956 7.3859 9.48478L7.43159 9.48066L7.4219 9.36572L7.47175 9.36157C7.58946 9.42666 7.65316 9.50559 7.66147 9.59841C7.66701 9.66206 7.63238 9.741 7.55899 9.83512C7.52853 9.83794 7.51053 9.81581 7.50775 9.77147L7.45791 9.77559L7.44683 9.91406C7.24326 10.2188 7.09508 10.3752 7.0037 10.3836C6.92061 10.4985 6.86937 10.5552 6.8486 10.5566ZM7.15879 11.3528C7.11725 11.3252 7.08401 11.3127 7.05908 11.3141L7.05354 11.2462L7.09925 11.2421L7.20033 11.3017C7.20449 11.3335 7.19064 11.3501 7.15879 11.3528ZM7.48006 11.7338C7.52437 11.7518 7.55068 11.7711 7.55622 11.7891L7.53407 11.7946L7.53545 11.796C7.53129 11.796 7.52575 11.7974 7.5216 11.7988L7.48837 11.8251L7.48006 11.7338ZM7.51053 11.9248L7.50637 11.9068L7.56453 11.8929L7.56868 11.9109L7.51053 11.9248ZM7.65038 12.0813C7.70993 12.0716 7.73902 12.0674 7.8498 12.0425L7.85395 12.0605L7.64347 12.1089C7.64623 12.0993 7.64901 12.0896 7.65038 12.0813ZM7.85534 12.1686C7.76671 12.1768 7.7861 12.1658 7.64485 12.1976L7.64069 12.1796L7.81794 12.1228L7.90242 12.1034L7.91073 12.1367C7.87195 12.145 7.89965 12.145 7.85534 12.1686ZM8.04228 12.1242C8.02151 12.1297 8.00489 12.1201 7.9952 12.0966L8.04921 12.0841C8.07275 12.0786 8.08798 12.0882 8.09352 12.1118L8.04228 12.1242ZM8.54911 11.5786L8.54496 11.5606L8.6322 11.5399L8.64051 11.5731L8.54911 11.5786ZM9.09056 14.8993C9.0961 14.8744 9.09749 14.8564 9.09472 14.8439L9.1141 14.8398C9.13764 14.8342 9.1515 14.8426 9.15703 14.8647L9.16118 14.8827L9.09056 14.8993ZM9.46997 11.7213L9.43125 11.7143C9.36891 11.7393 9.31628 11.7573 9.27336 11.7669L9.23736 11.7753C9.21658 11.7808 9.19996 11.7725 9.19165 11.7503L9.44503 11.6921L9.52819 11.6534L9.55584 11.6853C9.51572 11.6935 9.48666 11.706 9.46997 11.7213ZM9.66525 11.6589L9.66113 11.6409C9.67359 11.6381 9.69019 11.6285 9.70819 11.6105L9.88819 11.5689L9.89231 11.5869C9.79678 11.6105 9.72066 11.634 9.66525 11.6589ZM9.69291 11.2947C9.68044 11.2975 9.66384 11.3086 9.64313 11.3252C9.64031 11.3127 9.61537 11.3127 9.56831 11.3238C9.55997 11.2892 9.69291 11.2407 9.96853 11.1771L10.0073 11.1687L10.0156 11.2019C9.82172 11.2587 9.71372 11.2906 9.69291 11.2947ZM10.1776 10.7713C10.1582 10.9914 10.0807 11.1161 9.94359 11.1479L9.93947 11.1299L9.81759 11.1771L9.76359 11.1895C9.73584 11.1964 9.71091 11.1951 9.68878 11.1881L9.67772 11.1397C9.67359 11.1217 9.84947 10.8779 10.2067 10.4098L10.2483 10.4167C10.2635 10.4805 10.2399 10.5982 10.1776 10.7713ZM11.0348 10.0373L11.0182 10.0388L11.0154 10.0041L11.0874 9.99722L11.0888 10.0152C11.0764 10.0179 11.0584 10.0249 11.0348 10.0373ZM10.6817 13.5838C10.6402 13.5644 10.6027 13.5561 10.5709 13.5589L10.5667 13.5062C10.5653 13.4882 10.5764 13.4758 10.5999 13.4689C10.6236 13.4661 10.6373 13.4827 10.6402 13.5187C10.6997 13.4425 10.7329 13.4037 10.7398 13.4037L10.7772 13.419C10.7633 13.5242 10.7316 13.5796 10.6817 13.5838ZM14.4677 9.62325C14.4497 9.62466 14.4151 9.56925 14.3611 9.45712L14.3583 9.42253C14.3929 9.41972 14.4289 9.47372 14.4649 9.58453L14.4677 9.62325ZM14.4178 9.22724L14.4012 9.26325L13.8889 9.04861C14.2309 9.05968 14.4082 9.11923 14.4178 9.22724ZM12.2451 11.0926L12.1731 11.0994L12.1703 11.0648L12.2423 11.0579L12.2451 11.0926ZM12.1855 9.97228L12.2049 9.97088L12.2091 10.0235C12.1911 10.0249 12.1689 10.0498 12.1426 10.0983L12.1399 10.0637C12.1718 10.0235 12.1869 9.993 12.1855 9.97228ZM12.0346 10.3323L12.0401 10.4002L12.0208 10.4016L12.0152 10.3337L12.0346 10.3323ZM11.9529 10.4611L11.9889 10.4583C11.9848 10.5165 11.9695 10.547 11.9432 10.5497L11.9239 10.5511C11.9446 10.5123 11.9543 10.4818 11.9529 10.4611ZM11.8947 10.6384L11.9114 10.637L11.9127 10.655L11.8809 10.7104L11.8449 10.7131L11.8435 10.6951C11.8809 10.6924 11.8975 10.673 11.8947 10.6384ZM11.8366 10.799L11.8241 10.8876L11.8075 10.889L11.8006 10.8018L11.8366 10.799ZM11.2453 12.4787C11.2218 12.595 11.1968 12.6546 11.1705 12.6574L11.1691 12.6421C11.165 12.584 11.1899 12.5286 11.2453 12.4787ZM11.1359 12.7128L11.1373 12.728C11.14 12.7529 11.129 12.7668 11.104 12.7682L11.1026 12.7501C11.1013 12.7321 11.1124 12.7197 11.1359 12.7128ZM11.1054 13.2002L11.1608 13.1961L11.1623 13.2141C11.1498 13.2155 11.1304 13.2223 11.1082 13.2348L11.0722 13.2376C11.0708 13.2182 11.0819 13.2057 11.1054 13.2002ZM12.6606 12.7197C12.3559 12.8707 12.1745 12.9731 12.1178 13.0257C11.7853 13.1421 11.6206 13.2141 11.6233 13.2431C11.3284 13.3609 11.1345 13.4453 11.0431 13.4993C11.021 13.5007 10.9891 13.4924 10.9476 13.473C10.942 13.4135 10.9697 13.365 11.0279 13.329C11.0805 13.3248 11.1304 13.3317 11.176 13.3511C11.2314 13.3235 11.327 13.293 11.4627 13.2583L11.4599 13.2237L11.3478 13.2335C11.3617 13.2141 11.4683 13.1642 11.6663 13.0838L11.7217 13.0797L11.7231 13.0949C11.6288 13.1033 11.5763 13.131 11.5652 13.1808C11.5666 13.203 11.5804 13.2141 11.6039 13.2112C11.6732 13.1656 11.7065 13.1392 11.7065 13.131C11.8394 13.1074 12.2078 12.9135 12.8129 12.5507L12.8156 12.5854C12.8156 12.5992 12.7644 12.6435 12.6606 12.7197ZM11.7327 13.0243C11.8227 13.0161 11.8989 12.9814 11.9626 12.9204C11.9861 12.9191 12 12.9288 12.0014 12.9509C11.9599 12.9551 11.8781 12.9897 11.7549 13.0562L11.7355 13.0576L11.7327 13.0243ZM13.231 11.8735L12.77 12.2447C12.4252 12.4704 12.2382 12.584 12.2091 12.5867C11.6607 12.8887 11.32 13.0451 11.1858 13.0562L11.1664 13.0576C11.183 12.9953 11.4281 12.4954 11.9017 11.5565C12.108 11.5385 12.4348 11.4401 12.8835 11.2628L12.9956 11.2532C13.2214 11.2338 13.3903 11.2781 13.5011 11.3847L13.5067 11.4526C13.4222 11.6908 13.3308 11.8306 13.231 11.8735ZM12.3254 11.364L12.3974 11.3571L12.3988 11.3751L12.3268 11.382L12.3254 11.364ZM13.3737 11.1853L13.4291 11.1812C13.4803 11.2061 13.5067 11.2283 13.5081 11.2462L13.5094 11.2615C13.4609 11.2657 13.4152 11.2407 13.3737 11.1853ZM13.5191 10.342C13.4707 10.4002 13.3391 10.4999 13.1244 10.6384C13.0524 10.6452 12.7866 10.7478 12.3268 10.9472C12.3047 10.9388 12.2797 10.936 12.2534 10.9374L12.2507 10.9028C12.2451 10.8364 12.2742 10.7533 12.3379 10.6522C12.3739 10.4611 12.4141 10.3545 12.4556 10.3296L12.842 9.46547C12.8378 9.41419 12.9195 9.37265 13.0856 9.3408L13.141 9.33664L13.1453 9.38925C13.3087 9.36295 13.4111 9.34772 13.4527 9.34357C13.7572 9.31725 13.9165 9.37819 13.929 9.52772L13.965 9.525L13.9581 9.44184L13.9941 9.43912C14.0828 9.48759 14.1298 9.54572 14.1353 9.615C14.1395 9.66487 14.1145 9.72581 14.0619 9.79641C14.0384 9.79913 14.0245 9.78253 14.0218 9.74653L13.9858 9.74934L13.9747 9.85312C13.821 10.0872 13.7088 10.2077 13.6382 10.2132C13.5758 10.2977 13.5371 10.3406 13.5191 10.342ZM13.6811 10.918L13.677 10.8654L13.713 10.8627L13.7905 10.9098C13.7919 10.9319 13.7809 10.9444 13.7572 10.9472C13.7241 10.9264 13.6991 10.9167 13.6811 10.918ZM7.23495 14.2817L7.19895 14.29L7.16848 14.3164C7.17402 14.3385 7.18787 14.3468 7.21141 14.3412C7.23495 14.3357 7.24464 14.3219 7.2391 14.2997L7.23495 14.2817ZM7.09786 14.0089L7.10201 14.0269C7.12555 14.0213 7.13525 14.0076 7.12971 13.9853L7.12555 13.9673C7.1034 13.9729 7.09371 13.9867 7.09786 14.0089ZM8.07829 12.1672L8.10459 12.1506C8.09906 12.1506 8.0949 12.1492 8.09075 12.1478C8.08105 12.1506 8.0769 12.1574 8.07829 12.1672ZM8.07275 11.6894L8.11429 11.6797L8.10598 11.6437L8.06444 11.6534L8.07275 11.6894ZM17.859 13.0881L17.7649 13.0769L17.7483 13.1129L17.7496 13.131L18.3105 13.0838L18.3077 13.0493L17.859 13.0881ZM18.3714 13.0451L18.3742 13.0797H18.3797L18.377 13.0451H18.3714ZM20.7242 12.7377L20.7269 12.7723L20.7878 12.7834L20.7851 12.7488L20.7242 12.7377ZM20.6383 12.7446C20.2173 12.8388 20.1647 12.8222 20.0761 12.829L20.0788 12.8637L20.1176 12.8609L20.1383 12.8595L20.1328 12.8554L20.1786 12.8374C20.5954 12.7917 20.6438 12.8083 20.6397 12.7612L20.6383 12.7446ZM18.1111 12.1326L18.0737 12.1201C18.0432 12.2018 18.0279 12.2502 18.0293 12.2641L18.0308 12.2793C18.0598 12.278 18.0862 12.2281 18.1111 12.1326ZM17.6042 11.8597L17.6029 11.8417L17.5835 11.8431L17.5489 11.8653L17.5682 11.8985C17.5945 11.8958 17.607 11.8833 17.6042 11.8597ZM18.7051 12.998L18.7024 12.9634L18.6913 12.9648L18.694 12.9994L18.7051 12.998ZM20.9901 12.4829L21.0163 12.4801C21.0316 12.4787 21.0385 12.4662 21.0371 12.4441L21.0218 12.4109C20.9263 12.4192 20.8821 12.4234 20.8044 12.4662L20.8031 12.4482L20.6882 12.4594C20.6854 12.4247 20.6757 12.4067 20.6604 12.4081L20.6009 12.4136C20.5316 12.4192 20.4984 12.4164 20.4638 12.4427C20.4624 12.4302 20.4583 12.4247 20.4514 12.4247L20.3849 12.4302L20.3461 12.4524C20.3447 12.44 20.3406 12.4344 20.3336 12.4344L20.3101 12.4552L20.3087 12.4372L20.216 12.4302L20.1937 12.4316L20.1966 12.4662L20.2436 12.4787L20.288 12.476C20.3032 12.4856 20.3197 12.4884 20.3392 12.487L20.378 12.4676L20.3794 12.4829C20.162 12.5369 20.1633 12.5272 20.0138 12.5521C19.9972 12.541 19.9847 12.5355 19.9763 12.5369L19.9736 12.5396C19.9569 12.5383 19.9473 12.5272 19.9459 12.5092L20.0234 12.4995C20.029 12.4995 20.0332 12.505 20.0761 12.5134C20.1383 12.4829 20.1412 12.4704 20.1744 12.4676L20.1716 12.433C19.9583 12.4746 20.0442 12.4469 19.7769 12.4704L19.7645 12.4717L19.7618 12.4372C20.1052 12.3956 19.9902 12.4192 20.1079 12.386C20.1093 12.3984 20.1135 12.404 20.1203 12.404C20.1342 12.3901 20.1495 12.3832 20.1675 12.3804L20.191 12.379C20.3115 12.3693 20.3516 12.3929 20.5898 12.3264L20.5912 12.3416L20.63 12.3222L20.666 12.3195C20.6632 12.2848 20.7158 12.2793 20.7338 12.278L20.731 12.2406C20.3129 12.325 20.2035 12.3015 20.0872 12.3347L20.0858 12.3195C19.9763 12.3388 19.9722 12.3306 19.9446 12.332C19.9362 12.3333 19.9237 12.3402 19.9099 12.3541C19.9085 12.3416 19.9043 12.3361 19.8961 12.3361C19.8919 12.3361 19.8905 12.3375 19.8892 12.3375L19.5346 12.3956C19.5333 12.386 19.5291 12.3804 19.5208 12.3818C19.3366 12.4206 19.3865 12.4275 19.14 12.4496C19.1288 12.451 19.1137 12.4566 19.0942 12.469C19.0928 12.4594 19.0873 12.4537 19.0748 12.4552L18.9239 12.4676L18.8228 12.4926C18.8214 12.4829 18.8159 12.4774 18.8034 12.4787C18.7467 12.494 18.6968 12.5036 18.6566 12.5064H18.6539C18.629 12.5092 18.6664 12.4995 18.647 12.4912L18.6165 12.5092C18.5722 12.5134 18.5958 12.5064 18.4434 12.5078C18.1762 12.541 18.2052 12.5452 18.1762 12.5466L18.0764 12.5396C18.0778 12.5494 18.0723 12.5563 18.0612 12.5563C17.9477 12.541 17.8895 12.523 17.8882 12.5022C17.9033 12.3942 17.9297 12.3388 17.967 12.3361L17.9864 12.3347L17.9698 12.3707L17.9892 12.3693C18.0252 12.35 18.0418 12.332 18.0404 12.3153L18.0377 12.278L18.0017 12.2807L17.9989 12.2461C17.9962 12.2197 18.0003 12.1962 18.0099 12.1768L18.0917 12.0453L18.0944 12.0799L18.1332 12.0772L18.1304 12.0425L18.1083 12.0107C18.1373 11.9857 18.1596 11.9719 18.1776 11.9705L18.1762 11.9525L18.1236 11.9567L18.1193 11.904C18.2246 11.6853 18.2745 11.5579 18.2717 11.5219L18.3091 11.5371C18.3326 11.5357 18.3437 11.5219 18.3423 11.4969L18.3063 11.4997L18.305 11.4845C18.3022 11.4581 18.3077 11.4332 18.3187 11.4111C18.3756 11.3515 18.4019 11.292 18.3963 11.2297C18.4074 11.2282 18.413 11.2338 18.4144 11.2462C18.4627 11.2186 18.5002 11.1452 18.5279 11.0233C18.6138 10.8683 18.7356 10.558 18.8948 10.0942C19.1995 9.27432 19.1871 9.18709 19.23 8.99321L19.194 8.99599C19.1967 9.02091 19.1912 9.04446 19.1801 9.06661C19.1552 9.05692 19.1358 9.05137 19.122 9.05276L19.1206 9.03753C19.1151 8.96691 19.1441 8.88243 19.2106 8.78273L19.2272 8.78135L19.2577 8.90044L19.2937 8.89766C19.2922 8.88936 19.302 8.84228 19.3214 8.75503C19.32 8.73703 19.3061 8.72595 19.2785 8.72456L19.2438 8.74673C19.2411 8.7218 19.2425 8.65672 19.2466 8.55285L19.2286 8.55424C19.1981 8.52377 19.1828 8.49885 19.1815 8.47808L18.9834 8.49746C18.9821 8.48362 18.9752 8.46284 18.9613 8.43653C18.9599 8.41853 19.0042 8.40052 19.0957 8.38252L19.1358 8.39776L19.1732 8.3756C19.1746 8.38807 19.1815 8.39361 19.1953 8.39222L19.2327 8.37007C19.2341 8.38253 19.2411 8.38807 19.2549 8.38668L19.2729 8.38529L19.2701 8.34514C19.2425 8.3479 19.1691 8.3479 19.0527 8.34375L19.0153 8.36868L19.0139 8.34652C18.0848 8.42268 17.5571 8.46562 17.4311 8.47808C17.4145 8.47946 17.3495 8.47807 17.2345 8.4753C17.2358 8.49053 17.2221 8.49885 17.1943 8.50162L17.1542 8.48362L17.0184 8.51824C16.9867 8.521 16.9326 8.51962 16.8578 8.51131C16.837 8.52792 16.8121 8.53762 16.7816 8.54039C16.765 8.54178 16.9797 8.52931 17.1791 8.51546C17.1583 8.53208 17.1264 8.54178 17.0822 8.54593C17.0517 8.5487 17.0254 8.54454 17.0033 8.53208C16.9728 8.54593 16.8744 8.56808 16.7096 8.60132L16.6695 8.58608L16.0214 8.68579C15.9965 8.67333 15.9674 8.66918 15.9342 8.67194C15.8995 8.67472 15.8414 8.68717 15.7611 8.70934L15.4481 8.8395L15.4717 8.87827C15.4869 8.8769 15.5091 8.86858 15.5353 8.85335L15.6461 8.86304L15.6322 8.96691C15.5298 9.0126 15.4703 9.08046 15.4537 9.16631C15.2999 9.23417 15.2238 9.28264 15.2238 9.31172L15.2252 9.32972L15.2487 9.32833L15.2902 9.30618L15.3387 9.36434L15.3457 9.44466C15.3484 9.46959 15.0894 10.0138 14.5716 11.0773C14.1229 12.1021 13.8875 12.6629 13.8653 12.764C13.7116 12.8069 13.623 12.8693 13.5967 12.9523C13.5995 12.9787 13.6451 12.9967 13.7337 13.0036L13.7379 13.0437L13.6977 13.1102L13.7047 13.1905C13.7088 13.2321 13.821 13.2639 14.0412 13.2861C14.0398 13.2722 14.0468 13.2639 14.0619 13.2625C14.0661 13.3124 14.0523 13.4093 14.0204 13.5533L14.0439 13.5519C14.1353 13.4273 14.1783 13.3415 14.1742 13.2943L14.1935 13.293C14.2157 13.2916 14.2392 13.3165 14.2669 13.3705C14.2392 13.3816 14.1423 13.6018 13.9761 14.0324L13.9996 14.0712L14.0231 14.0698C14.2268 13.5547 14.3542 13.2695 14.4067 13.2155C14.674 13.1918 15.1365 13.1448 15.7929 13.0742L15.8345 13.0493C15.8359 13.0631 15.8441 13.0701 15.8594 13.0687L15.9023 13.0645L15.9439 13.0396C15.9453 13.0534 15.9535 13.0603 15.9688 13.0589L16.466 13.0161C16.5975 13.0049 16.6598 12.9648 16.6543 12.8969C16.6529 12.8789 16.7304 12.8582 16.8869 12.836C16.9022 12.8347 16.9243 12.8388 16.9548 12.8484C16.9534 12.836 17.0323 12.8235 17.1902 12.8097C17.1943 12.7266 17.2207 12.6823 17.2677 12.6781L17.2636 12.638C17.2193 12.6421 17.1694 12.6532 17.1112 12.6726C17.0074 12.667 16.9409 12.6588 16.9132 12.649C16.8855 12.6643 16.8648 12.6726 16.8495 12.674L16.5033 12.685L16.4618 12.7073C16.4604 12.6948 16.4521 12.6892 16.4368 12.6906L16.4175 12.692L16.3732 12.7141C16.3717 12.7016 16.3357 12.692 16.2638 12.6823L16.2194 12.7086L16.1336 12.7155L16.1322 12.6934C16.5781 12.6449 16.7983 12.584 16.7928 12.512C16.8218 12.5092 16.837 12.523 16.8398 12.5521L16.97 12.5189L16.9658 12.4787L15.8981 12.5078C15.8995 12.5216 15.8926 12.53 15.8774 12.5314L15.7472 12.5202C15.714 12.523 15.6863 12.5327 15.6641 12.5494L15.6157 12.5314C15.4813 12.5424 15.3817 12.559 15.3152 12.5798C15.2238 12.5729 15.1227 12.5743 15.0105 12.584L14.771 12.6048L14.6602 12.5923C14.6546 12.5216 14.7917 12.1741 15.0743 11.5509C15.1559 11.3405 15.2307 11.2088 15.3027 11.1591C15.3179 11.1577 15.3401 11.1632 15.3706 11.1757L15.5409 11.1174L15.6281 11.1313C15.7749 11.1188 15.9453 11.0773 16.1405 11.0053C16.1889 11.0012 16.2249 11.0039 16.2513 11.015L16.3815 10.9845L16.7692 10.9513C16.934 10.9374 17.1127 10.9014 17.3065 10.8419L17.3023 10.8018C17.2303 10.8086 17.1929 10.7962 17.1902 10.7671C17.1861 10.7131 17.1334 10.691 17.0323 10.6993L17.0282 10.6591L17.1348 10.6286L17.4145 10.6051L17.4103 10.565C17.3993 10.5664 17.3425 10.565 17.2372 10.5608L17.2331 10.5179L17.3411 10.5082C17.3702 10.5054 17.3827 10.4916 17.3799 10.4638C17.2345 10.468 17.1611 10.4611 17.1597 10.4417C16.1461 10.4916 15.6379 10.5012 15.6351 10.4694C15.6199 10.4708 15.5991 10.4805 15.5714 10.4971L15.5451 10.4556C15.8137 9.885 15.9715 9.597 16.0173 9.59278C16.0187 9.615 16.0075 9.651 15.984 9.69947L15.9854 9.71747L16.0283 9.71334C16.1349 9.45853 16.2249 9.32694 16.2997 9.32141C16.6182 9.29371 16.2554 9.27294 16.9368 9.16631C16.9644 9.17877 16.9838 9.18431 16.9977 9.18293C17.265 9.12893 17.6375 9.07215 18.1152 9.01399L18.1124 8.97383L17.8577 8.99737L17.8549 8.95721C17.8853 8.95444 17.9103 8.94474 17.931 8.92813L17.9324 8.95028C17.9463 8.9489 17.9657 8.93921 17.9906 8.92259C18.0349 8.91844 18.0682 8.92259 18.0917 8.93505C18.1803 8.91151 18.2523 8.89766 18.305 8.89212L18.4642 8.8769C18.503 8.85197 18.521 8.82981 18.5196 8.80904L18.5182 8.79103C18.478 8.79519 18.4324 8.79242 18.3783 8.78273C18.377 8.76057 18.388 8.74534 18.4144 8.73841L18.7107 8.71072L18.8464 8.6761C18.8478 8.69133 18.8547 8.69687 18.8658 8.69687C18.8797 8.69548 18.899 8.68579 18.9239 8.66917C18.9308 8.67056 18.9392 8.67056 18.9461 8.67194C18.9281 8.70934 18.9073 8.76334 18.8865 8.83397L18.8478 8.83673C18.845 8.81042 18.838 8.78688 18.8257 8.76611L18.8063 8.76749C18.4462 9.77006 18.2856 10.2367 17.9532 11.0067C17.8923 11.2033 17.841 11.3127 17.7968 11.3362C17.7981 11.3585 17.8119 11.3695 17.8355 11.3667C17.8438 11.4637 17.8216 11.5592 17.7676 11.6534C17.6139 12.0966 17.5115 12.3388 17.4588 12.3832L17.4935 12.5923C17.4949 12.6144 17.4837 12.6269 17.4602 12.6296L17.4242 12.6324C17.4187 12.5743 17.3979 12.5466 17.3605 12.5507L17.3411 12.5521C17.2941 12.6255 17.2581 12.71 17.2345 12.8083L17.2705 12.8055C17.319 12.7737 17.3411 12.7363 17.337 12.6934L17.409 12.6864L17.4505 12.7016C17.4173 12.7543 17.4021 12.7958 17.4048 12.8277L17.4242 12.8609L17.3771 12.9717L17.3785 12.9897C17.4201 12.9856 17.4657 12.9994 17.5142 13.0284C17.5475 13.0257 17.5835 13.0104 17.6236 12.9842C17.6651 12.98 17.8203 12.9787 18.0876 12.9787L18.2218 12.9329C18.3852 12.9315 18.4116 12.9357 18.5528 12.9233L18.611 12.9177L18.6414 12.8969L18.6428 12.9149C18.791 12.9024 18.8007 12.9122 18.917 12.926L18.9184 12.944L18.8367 12.9509L18.8394 12.9856C18.8644 12.9828 18.8865 12.9758 18.9045 12.9607C18.9253 12.9592 18.9378 12.9703 18.9392 12.9952C18.9059 12.998 18.8685 13.0063 18.827 13.0202L18.791 13.0077C18.7342 13.0229 18.7467 13.0271 18.7079 13.0298L18.6511 13.0188C18.6525 13.0284 18.647 13.0354 18.6373 13.0354C18.6386 13.0576 18.6511 13.0687 18.6719 13.0673L18.73 13.0617L19.0333 13.0354L19.1483 13.0104C19.1497 13.0202 19.1538 13.0257 19.1635 13.0243L19.2188 13.0036L19.3227 12.9952C19.4031 12.9883 19.4017 12.9828 19.5761 12.9551C19.5748 12.944 19.5789 12.9398 19.5873 12.9384L19.5886 12.9537C19.8725 12.9053 19.8905 12.9024 19.9362 12.8873L19.9403 12.8955C20.011 12.8789 19.9708 12.883 19.9902 12.8693C19.9916 12.8817 19.9958 12.8873 20.0027 12.8873L20.0526 12.883L20.0497 12.8457L19.9487 12.8443L19.9473 12.8415C19.9432 12.8429 19.9403 12.8429 19.9362 12.8443H19.9223V12.847C19.8545 12.8609 19.8532 12.8512 19.8088 12.8554L19.5554 12.8693L19.554 12.8513L19.6953 12.8318L19.7465 12.8277L19.7755 12.8069L19.7769 12.8249C19.9763 12.8083 20.047 12.8582 20.9692 12.6615C21.0191 12.6574 21.015 12.6158 21.0468 12.53C21.0302 12.5314 21.0136 12.5272 20.9983 12.5189C20.9222 12.548 20.8821 12.5341 20.7352 12.5576C20.7228 12.559 20.713 12.548 20.7089 12.5258L20.7075 12.5106L20.8488 12.5147C20.8751 12.512 20.9263 12.5078 21.0025 12.4649C21.0025 12.4774 20.9734 12.4842 20.9901 12.4829ZM14.1713 12.5923L14.1063 12.5978C14.1035 12.5715 14.1381 12.4718 14.2102 12.3015L14.253 12.2973C14.2544 12.3375 14.2282 12.4357 14.1713 12.5923ZM14.2503 12.2766L14.2489 12.2586C14.2475 12.2363 14.2613 12.2212 14.2918 12.2142L14.2932 12.2322C14.2946 12.2586 14.2808 12.2737 14.2503 12.2766ZM15.1158 12.9454L15.1172 12.9634L15.0091 12.9731L15.0078 12.9551L15.1158 12.9454ZM14.9856 12.9343C14.987 12.9564 14.9538 12.9814 14.8818 13.0063L14.7488 12.9967L14.7059 13.0008L14.7017 12.9607L14.9856 12.9343ZM15.8608 8.90597L15.7957 8.91151L15.7943 8.88936C15.7929 8.8672 15.8054 8.85197 15.8331 8.84504L15.8566 8.84365L15.9009 8.86166C15.9023 8.88797 15.8899 8.9032 15.8608 8.90597ZM16.8509 8.7121L16.8717 8.71072L16.8744 8.75088L16.8149 8.75642C16.8135 8.73426 16.8246 8.71903 16.8509 8.7121ZM16.6016 8.79935L16.5033 8.78827L16.502 8.77027C16.6307 8.75918 16.6736 8.74534 16.7526 8.72318C16.754 8.73841 16.7678 8.74395 16.7928 8.74118L16.7955 8.78135L16.7568 8.7855C16.7263 8.78827 16.7 8.78411 16.6778 8.77165C16.6542 8.78688 16.6294 8.79657 16.6016 8.79935ZM16.7249 9.15801L16.7235 9.14001L16.8828 9.12477L16.8841 9.14277L16.7249 9.15801ZM16.8953 9.01953L16.8938 8.99737L16.9714 8.99045L16.9728 9.0126L16.8953 9.01953ZM16.9132 8.7481L16.8924 8.74949L16.9104 8.70656L17.0877 8.68995L17.0891 8.7121C17.0434 8.71626 16.9838 8.72873 16.9132 8.7481ZM17.0033 9.13031L17.0004 9.09015L17.078 9.08322C17.1043 9.08046 17.1182 9.09292 17.1196 9.12062L17.0033 9.13031ZM17.4727 8.49053L17.373 8.51824L17.355 8.51962C17.3078 8.52377 17.247 8.52239 17.1749 8.51546C17.3037 8.50716 17.427 8.49746 17.4727 8.49053ZM17.3661 8.93367L17.3675 8.95167L17.2303 8.96413L17.2289 8.94613L17.3661 8.93367ZM17.5904 9.04029C17.589 9.02368 17.5627 9.0126 17.5087 9.00706L17.3716 9.04583L17.2663 9.04999C17.2428 9.03338 17.2303 9.02229 17.2289 9.01399L17.3508 9.02091L17.625 8.9766L17.7649 8.98214L17.7663 9.00429C17.697 9.01121 17.6389 9.02368 17.5904 9.04029ZM19.0014 8.6761C19.0181 8.67748 19.0292 8.67748 19.0333 8.67748C19.0818 8.6304 19.1358 8.59301 19.1981 8.5667C19.1483 8.7855 19.0707 8.94752 18.9641 9.05276L18.8865 9.00568C18.9517 8.84089 18.9904 8.73149 19.0014 8.6761ZM18.7633 9.08461L18.7827 9.08322C18.7564 9.13308 18.7328 9.15938 18.7134 9.16077L18.7093 9.10815C18.7218 9.10815 18.7398 9.09984 18.7633 9.08461ZM18.6096 9.45159C18.647 9.30203 18.683 9.21755 18.7162 9.19539L18.7176 9.21339C18.6982 9.35187 18.6678 9.42525 18.6276 9.43078L18.6345 9.51806C18.6013 9.56513 18.586 9.60113 18.5874 9.62888L18.568 9.63019L18.557 9.50972C18.5791 9.507 18.5971 9.48759 18.6096 9.45159ZM18.55 9.651C18.5514 9.67172 18.5376 9.72019 18.5099 9.795L18.4905 9.79641L18.4864 9.74381C18.5126 9.68287 18.5348 9.65241 18.55 9.651ZM17.4325 12.8942L17.4311 12.8789L17.4671 12.8762L17.4713 12.9288C17.4519 12.9302 17.4381 12.9191 17.4325 12.8942ZM19.0292 12.9357C19.0278 12.9233 19.0222 12.9177 19.0098 12.9191L18.9198 12.9274L18.9184 12.9094H18.9267L19.14 12.8914L19.1413 12.9094C19.0791 12.9122 19.0417 12.9218 19.0292 12.9357ZM18.9225 12.8914C18.9308 12.8955 18.9267 12.8997 18.9225 12.9024C18.9184 12.9011 18.9128 12.8969 18.9225 12.8914ZM18.9337 12.6421L18.8145 12.6518L18.8132 12.6338L18.9212 12.6241L19.0153 12.6006C19.0167 12.6116 19.0223 12.6158 19.0347 12.6144C19.1468 12.595 19.1358 12.5895 19.1898 12.5854C19.2078 12.584 19.2188 12.595 19.2203 12.6172L18.9337 12.6421ZM19.3505 12.6061C19.284 12.5992 19.2798 12.5936 19.2327 12.5978L19.2313 12.5826L19.338 12.5729L19.3394 12.5881C19.3283 12.5895 19.3685 12.5923 19.3505 12.6061ZM19.3587 12.5867L19.3574 12.5715L19.4155 12.566L19.4169 12.5812L19.3587 12.5867ZM19.4875 12.5756L19.4861 12.5604C19.4959 12.559 19.5097 12.5521 19.5277 12.5383C19.5568 12.5355 19.572 12.5549 19.5748 12.577L19.4875 12.5756ZM19.6523 12.5549L19.6509 12.5369L19.7215 12.5314L19.7229 12.5494L19.6523 12.5549ZM19.7507 12.5466C19.7493 12.5258 19.7575 12.5134 19.7755 12.5106L19.7992 12.541C19.7977 12.5314 19.8019 12.5258 19.8102 12.5244L19.8282 12.5576L19.7507 12.5466ZM21.1132 12.386L21.1147 12.3846V12.3832C21.1147 12.3832 21.1132 12.3846 21.1132 12.386ZM21.1382 12.368C21.1493 12.361 21.1548 12.3541 21.1285 12.35C21.1161 12.3637 21.1423 12.368 21.1147 12.3693L21.1161 12.3818C21.1188 12.379 21.1257 12.3749 21.1312 12.3707L21.1161 12.3832V12.3846L21.087 12.422L21.1451 12.4012H21.1521L21.1493 12.3666L21.1382 12.368ZM21.2393 12.4469L21.2282 12.4482L21.231 12.4829L21.3127 12.476C21.3113 12.4537 21.2572 12.4469 21.2393 12.4469Z" fill="#F9DC3E"/>
</g>
<defs>
<clipPath id="clip0_872_2029">
<rect width="24" height="24" fill="white"/>
</clipPath>
</defs>
</svg>
