<svg width="24" height="24" viewBox="0 0 24 24" fill="none" xmlns="http://www.w3.org/2000/svg">
<g clip-path="url(#clip0_872_1892)">
<path d="M18.375 0H5.625C2.5184 0 0 2.5184 0 5.625V18.375C0 21.4816 2.5184 24 5.625 24H18.375C21.4816 24 24 21.4816 24 18.375V5.625C24 2.5184 21.4816 0 18.375 0Z" fill="#0277BD"/>
<path d="M5.03906 9.62354L5.30745 12.6181H12.0087V9.62354H5.03906Z" fill="#EBEBEB"/>
<path d="M12.0089 3.5625H11.9986H4.5L4.77221 6.55709H12.0089V3.5625Z" fill="#EBEBEB"/>
<path d="M12.0088 20.5164V17.4009L11.9957 17.4043L8.66067 16.5039L8.44747 14.1155H6.82689H5.44141L5.86094 18.8174L11.995 20.5203L12.0088 20.5164Z" fill="#EBEBEB"/>
<path d="M15.6855 12.6181L15.3379 16.5018L11.998 17.4033V20.5187L18.1371 18.8173L18.1821 18.3113L18.8858 10.4277L18.9588 9.62353L19.4995 3.5625H11.998V6.55709H16.2176L15.9452 9.62353H11.998V12.6181H15.6855Z" fill="white"/>
</g>
<defs>
<clipPath id="clip0_872_1892">
<rect width="24" height="24" fill="white"/>
</clipPath>
</defs>
</svg>
