<svg width="24" height="24" viewBox="0 0 24 24" fill="none" xmlns="http://www.w3.org/2000/svg">
<g clip-path="url(#clip0_872_1898)">
<path d="M18.375 0H5.625C2.5184 0 0 2.5184 0 5.625V18.375C0 21.4816 2.5184 24 5.625 24H18.375C21.4816 24 24 21.4816 24 18.375V5.625C24 2.5184 21.4816 0 18.375 0Z" fill="#F4F4ED"/>
<path d="M12.82 11.9678C12.82 8.05066 9.6375 4.875 5.71062 4.875H4.5V7.99271H5.71125C7.9119 7.99271 9.69562 9.77231 9.69562 11.9678C9.69562 14.1633 7.9119 15.9428 5.71125 15.9428H4.5V19.0606H5.71125C9.63694 19.0606 12.82 15.8849 12.82 11.9678ZM19.5 9.2011C19.5 6.81174 17.5581 4.875 15.1638 4.875H10.1637C11.3941 5.64376 12.4032 6.71806 13.0925 7.99271H15.1638C15.8319 7.99271 16.375 8.5339 16.375 9.2011C16.375 9.86831 15.8319 10.4095 15.1638 10.4095H13.9525C14.1481 11.4397 14.1481 12.4972 13.9525 13.5272H15.1638C15.8313 13.5272 16.375 14.0678 16.375 14.7357C16.375 15.4035 15.8319 15.9441 15.1638 15.9441H13.0925C12.4032 17.2187 11.3941 18.2931 10.1637 19.0617H15.1638C16.1769 19.0617 17.1581 18.7076 17.9375 18.061C19.7769 16.5333 20.0288 13.8059 18.4969 11.9691C19.1449 11.1915 19.4997 10.2123 19.5 9.2011Z" fill="#F9A03C"/>
</g>
<defs>
<clipPath id="clip0_872_1898">
<rect width="24" height="24" fill="white"/>
</clipPath>
</defs>
</svg>
