<svg width="24" height="24" viewBox="0 0 24 24" fill="none" xmlns="http://www.w3.org/2000/svg">
<g clip-path="url(#clip0_872_2068)">
<path d="M18.375 0H5.625C2.5184 0 0 2.5184 0 5.625V18.375C0 21.4816 2.5184 24 5.625 24H18.375C21.4816 24 24 21.4816 24 18.375V5.625C24 2.5184 21.4816 0 18.375 0Z" fill="#E04E39"/>
<path d="M6.23438 17.3409L6.28672 17.2186L6.29352 17.2012C6.33511 17.1019 6.3752 17.002 6.41377 16.9015C6.46517 16.7686 6.51073 16.6348 6.56215 16.5049C6.59029 16.4292 6.61743 16.3536 6.64556 16.2789C6.71149 16.0995 6.80167 15.86 6.91126 15.6291C6.97624 15.4944 7.02957 15.3935 7.08487 15.3004C7.14015 15.2073 7.21289 15.0986 7.27883 15.0026L7.33897 14.9212L7.42332 14.8678C7.43581 14.8594 7.44873 14.8516 7.46214 14.8446C7.50089 14.8228 7.54105 14.8037 7.58236 14.7874C7.64152 14.7631 7.71136 14.7388 7.79377 14.7136C7.90919 14.6797 8.03625 14.6477 8.1943 14.6167C8.41931 14.5672 8.66853 14.5196 8.97888 14.4731C9.44338 14.3995 9.93894 14.3345 10.5392 14.2685C11.5973 14.1541 12.6495 14.0745 13.6668 14.0202C14.205 13.995 14.6173 13.9834 15.0032 13.9834H15.2466C15.5206 13.9843 15.7943 14.0021 16.0661 14.0367C16.1521 14.0487 16.2368 14.0685 16.3192 14.0959C16.3444 14.1046 16.3657 14.1144 16.3793 14.1202L16.4589 14.156L16.5219 14.2151C16.548 14.2394 16.5743 14.2636 16.5994 14.2899C16.6998 14.3905 16.7941 14.497 16.8817 14.6089C17.2147 15.0431 17.4953 15.5151 17.7177 16.0151C17.9326 16.4715 18.0921 16.9521 18.1928 17.4465L18.3131 18.0778H16.8215L16.7324 17.657C16.6353 17.1992 15.4018 15.9938 14.7879 15.7562C14.7258 15.7329 14.4611 15.6592 13.6543 15.6592C11.991 15.6592 9.6306 15.955 9.29017 16.0257C8.89254 16.211 8.27576 17.0034 7.92567 17.783L7.78213 18.1041" fill="white"/>
<path d="M16.4613 14.9456C16.3862 14.8495 16.3056 14.7579 16.2198 14.6711L16.1588 14.613L16.1432 14.6072C16.0939 14.5914 16.0433 14.58 15.9919 14.5732C15.7439 14.5418 15.4943 14.5259 15.2443 14.5257C14.7322 14.5189 14.2153 14.5354 13.6994 14.5597C12.6666 14.61 11.6328 14.6934 10.6038 14.8059C10.0898 14.8622 9.57679 14.9262 9.06863 15.0067C8.81553 15.0465 8.56243 15.0901 8.31512 15.1444C8.19194 15.1706 8.06975 15.1997 7.95437 15.2346C7.89983 15.2504 7.84611 15.2688 7.79339 15.2899C7.77211 15.2983 7.75137 15.308 7.7313 15.3189L7.7216 15.3249C7.66126 15.4066 7.60464 15.4911 7.5519 15.5779C7.49857 15.6652 7.44908 15.7642 7.40257 15.862C7.31045 16.056 7.23089 16.2616 7.15427 16.4692C7.07768 16.6767 7.00299 16.8871 6.92058 17.0966C6.8808 17.2014 6.83912 17.2741 6.79546 17.3788C6.77509 17.4283 6.75378 17.4952 6.73242 17.4952H7.42971C7.80694 16.6224 8.51489 15.7224 9.1094 15.48C9.27327 15.4131 11.9082 15.1008 13.6499 15.1008C14.2958 15.1008 14.7429 15.1241 14.9795 15.2162C15.6933 15.4916 17.1131 16.8163 17.2595 17.4952H17.6638C17.5767 17.0489 17.4306 16.6161 17.2294 16.2083C17.0251 15.7581 16.7672 15.3341 16.4614 14.9456H16.4613Z" fill="#BA8449"/>
<path d="M16.1538 14.6098L16.1521 14.6079L16.1504 14.606L16.1555 14.6117L16.1538 14.6098Z" fill="white"/>
<path d="M16.1538 14.6098L16.1521 14.6079L16.1504 14.606L16.1555 14.6117L16.1538 14.6098Z" fill="#BA8449"/>
<path d="M17.2092 18.0769L17.1259 17.6463C17.0414 17.2353 16.9083 16.8358 16.7292 16.4563C16.543 16.0372 16.3084 15.6414 16.03 15.277C15.9786 15.2131 15.933 15.1568 15.8806 15.1044C15.6642 15.0802 15.4467 15.068 15.2289 15.0676H15.0078C14.6393 15.0676 14.2427 15.0783 13.7238 15.1026C12.7279 15.152 11.6979 15.2334 10.6622 15.3459C10.0803 15.4109 9.60028 15.473 9.15223 15.5399C8.86129 15.5855 8.6334 15.6272 8.42974 15.6717C8.32187 15.6946 8.2148 15.7211 8.10874 15.7513L8.07478 15.762C8.05537 15.793 8.03599 15.823 8.01662 15.8589C7.97976 15.9219 7.94002 15.9957 7.89054 16.0985C7.8023 16.2846 7.72663 16.4864 7.66359 16.6571C7.63547 16.7327 7.60833 16.8054 7.58213 16.8791C7.53269 17.015 7.48518 17.1546 7.42599 17.2962C7.3843 17.4028 7.34064 17.5134 7.29508 17.62L7.28926 17.6356C7.26984 17.6822 7.24952 17.7171 7.22914 17.7646L7.08754 18.0769H6.13133L5.9946 18.0216H5.98006C5.87251 17.9705 5.78389 17.8867 5.72691 17.7821C5.66994 17.6776 5.64754 17.5578 5.66293 17.4396V17.4155L5.68037 17.3418L5.70366 17.2525C5.71996 17.1921 5.73709 17.1321 5.75506 17.0721C5.79 16.9509 5.8268 16.8355 5.8656 16.723C5.93834 16.5067 6.02661 16.2817 6.13423 16.0373C6.24187 15.793 6.35828 15.5651 6.47366 15.3585C6.53749 15.2439 6.60543 15.1317 6.67731 15.022C6.75588 14.9017 6.83251 14.7921 6.91685 14.6855C6.96996 14.6174 7.0323 14.5569 7.10208 14.506C7.14169 14.4777 7.18281 14.4515 7.22526 14.4276C7.2818 14.397 7.3401 14.3698 7.39984 14.3461C7.48425 14.3122 7.57034 14.2828 7.65777 14.2579C7.82264 14.2093 7.97684 14.1754 8.09419 14.1501C8.33279 14.1007 8.57908 14.0532 8.90591 14.0076C9.37819 13.9358 9.87572 13.8738 10.4896 13.8137C11.5564 13.7041 12.6232 13.6265 13.6472 13.5828C14.1389 13.5625 14.52 13.5537 14.8759 13.5537H15.2532C15.5507 13.5551 15.8477 13.5758 16.1424 13.6158H16.1522C16.2597 13.6321 16.3655 13.6581 16.4683 13.6934H16.4751C16.5224 13.7104 16.5685 13.7307 16.6128 13.7545C16.6463 13.7729 16.6787 13.7933 16.7098 13.8156L16.7496 13.8447L16.7806 13.8699L16.8126 13.899C16.8437 13.9281 16.8747 13.9572 16.9038 13.9872C17.0152 14.1008 17.1201 14.2206 17.2179 14.3461C17.5693 14.8097 17.8645 15.3133 18.0976 15.8463C18.2155 16.1091 18.3188 16.378 18.407 16.6522C18.4935 16.9152 18.5602 17.1843 18.6067 17.4572L18.7086 18.0749L17.2092 18.0769Z" fill="white"/>
<path d="M6.75781 18.077L7.12439 17.3157C7.42888 16.6669 8.16013 15.4876 8.96697 15.157H8.9825C9.25501 15.0552 11.9889 14.74 13.652 14.74C14.5879 14.74 14.937 14.8369 15.1183 14.9039C15.9621 15.2287 17.4265 16.6049 17.6243 17.4205L17.7872 18.0799L6.75781 18.077Z" fill="white"/>
<path d="M16.6669 18.077L16.5699 17.6746C16.473 17.2915 15.3237 16.1385 14.7273 15.9086C14.672 15.8872 14.4363 15.8213 13.6518 15.8213C12.0439 15.8213 9.72709 16.1064 9.3479 16.1801C9.03565 16.3353 8.47509 16.9879 8.10562 17.7764L7.95626 18.077H6.58984L6.93411 17.3235C7.33658 16.4254 8.125 15.3209 8.90276 15.0028C9.20241 14.8796 11.9721 14.5703 13.6489 14.5703C14.3802 14.5703 14.8651 14.6275 15.1744 14.7468C16.0152 15.0716 17.594 16.4924 17.7929 17.435L17.9277 18.077H16.6669Z" fill="white"/>
<path d="M17.2926 18.077L17.1365 17.9442C16.5458 17.3953 16.3839 16.2664 16.5681 15.7979C16.6698 15.4899 16.9956 15.316 17.3081 15.4032C17.4119 15.3965 17.6611 15.1947 17.7349 15.0735C17.7927 14.9658 17.8796 14.8766 17.9857 14.8159C18.0919 14.7552 18.213 14.7255 18.3351 14.7302C18.7376 14.7302 19.3883 15.0493 19.6017 15.3509C19.6605 15.4302 19.6991 15.5225 19.7143 15.6199C19.7295 15.7174 19.7208 15.8172 19.6889 15.9105C19.6832 15.926 19.6734 15.958 19.6579 16.0017C19.4368 16.666 19.1517 17.4641 18.918 17.8355L18.7618 18.077H17.2926Z" fill="white"/>
<path d="M17.2423 18.077L17.7486 17.2624C17.9455 16.9487 18.1217 16.6225 18.2761 16.2858C17.9901 16.4856 17.5876 16.6194 16.9941 16.6456L16.9776 16.6339L16.9669 16.6892C16.8389 16.6873 16.7142 16.6486 16.6076 16.5777C16.501 16.5067 16.4172 16.4067 16.366 16.2893C16.315 16.1719 16.2986 16.0423 16.3192 15.9161C16.3398 15.7897 16.3963 15.6719 16.482 15.5769C16.5395 15.5131 16.609 15.4615 16.6866 15.4249C16.7642 15.3882 16.8482 15.3674 16.934 15.3635C17.5158 15.3373 17.5915 15.1996 17.701 14.9921C17.8495 14.7137 18.1704 14.5527 18.5826 14.5527C18.6865 14.5523 18.7903 14.5633 18.892 14.5857C19.3858 14.6768 19.7493 15.1001 19.7648 15.6021C19.788 16.12 19.5068 16.8628 18.9288 17.8248L18.7707 18.077H17.2423Z" fill="white"/>
<path d="M19.3988 16.4905C18.7365 16.4905 18.0159 16.0589 17.6465 15.6332C17.3099 15.2453 17.2769 14.9039 17.3079 14.6847C17.3547 14.3597 17.6425 14.1246 17.9703 14.1436C18.0411 14.1446 18.1118 14.1511 18.1818 14.163C18.2467 13.872 18.4019 13.2581 19.0294 13.2581C19.0578 13.2567 19.0863 13.2567 19.1147 13.2581C19.2577 13.2706 19.3938 13.3259 19.5049 13.417C19.616 13.508 19.697 13.6304 19.7373 13.7683C19.8434 13.7122 19.9615 13.6828 20.0815 13.6829C20.1799 13.6836 20.277 13.7046 20.3668 13.7447C20.4566 13.7847 20.5371 13.843 20.6033 13.9157C20.7115 14.0305 20.7823 14.1754 20.806 14.3314C20.8297 14.4873 20.8054 14.6468 20.7362 14.7885C20.8869 14.8818 20.9973 15.0281 21.0455 15.1988C21.0791 15.3137 21.0854 15.435 21.0639 15.5529C21.0424 15.6707 20.9935 15.7819 20.9214 15.8775C20.6304 16.2742 19.9739 16.4681 19.4464 16.4856L19.3988 16.4905ZM18.7394 3.0133C18.14 3.38863 17.4854 4.2498 16.6882 5.42809C16.6264 5.51955 16.5425 5.59408 16.4445 5.64489C16.3464 5.69571 16.2372 5.72119 16.1268 5.71902C15.831 5.71902 15.4595 5.54156 15.0251 5.19147C14.3356 4.63673 14.3211 4.31866 14.3152 4.20518C14.2986 3.87334 14.5501 3.58896 14.8816 3.56514C15.5439 3.50306 16.0928 3.10641 16.6272 2.72336C17.1615 2.3403 17.6532 1.9834 18.2409 1.9834C18.3584 1.98315 18.4754 1.99814 18.589 2.02801" fill="white"/>
<path d="M14.9375 4.1052C16.5396 3.95587 17.4763 2.29559 18.4529 2.55353C17.8012 2.96084 17.1495 3.77932 16.2409 5.1235C16.0266 5.43869 14.5011 4.14589 14.9375 4.1052Z" fill="#FFF8EF"/>
<path d="M4.54883 3.33615C4.94837 2.96665 5.48954 2.77948 6.15578 2.77948C6.72988 2.77948 7.40776 2.92013 8.17101 3.19748C8.39126 3.26204 8.62049 3.29052 8.84984 3.28183H9.1466C9.34055 3.28183 9.73913 3.28183 9.90404 3.65328C9.95682 3.77771 9.97613 3.91378 9.96019 4.048C9.94416 4.18221 9.89344 4.30992 9.81291 4.41848C9.54807 4.83355 8.83336 5.27572 8.14966 5.27572H8.11669C7.74913 5.27572 7.40293 5.08178 7.00144 4.85387C6.50103 4.57458 5.93465 4.25845 5.26843 4.25845C5.17534 4.25837 5.08235 4.26451 4.99009 4.27684L4.54883 3.33615ZM16.8875 7.31228C16.5908 7.31228 16.0399 7.1891 15.6801 6.35801C15.516 5.97063 15.4268 5.55567 15.4173 5.1351C15.4173 4.55323 15.7208 4.4039 15.9022 4.35928C16.033 4.22643 16.2784 3.89477 16.4637 3.64456C17.2152 2.63307 17.7525 1.96875 18.378 1.96875C18.4815 1.96851 18.5843 1.98792 18.6805 2.02597C19.5263 2.36444 19.9316 3.07334 19.7929 3.97136C19.6959 4.63469 19.2799 5.42604 18.6631 6.13787C18.3722 6.47246 17.6293 7.258 16.9728 7.30744L16.8875 7.31228Z" fill="white"/>
<path d="M7.22092 7.60319C7.14993 7.60901 7.07859 7.60901 7.0076 7.60319C5.96021 7.4325 4.65293 6.3793 4.15929 5.29119C3.82183 4.54735 3.97311 4.04114 4.15929 3.74439C4.29238 3.51695 4.48364 3.32907 4.71341 3.20005C4.94317 3.07102 5.20315 3.00551 5.46661 3.01025C6.13379 3.01025 6.80585 3.37781 7.39841 3.70168C7.62339 3.82097 7.9541 4.00525 8.09373 4.0392C8.14512 4.02409 8.1983 4.01593 8.25185 4.01496C8.35881 4.0171 8.4633 4.04746 8.55475 4.10298C8.64619 4.15849 8.72134 4.23718 8.77259 4.33109C9.04415 4.80338 8.88025 6.06994 8.45352 6.80986C8.15677 7.33067 7.7165 7.60319 7.22092 7.60319Z" fill="white"/>
<path d="M10.8646 16.7193C8.40813 16.7193 5.98174 15.5265 5.17486 14.6556C4.33213 13.746 4.02471 12.7219 4.26037 11.5979C4.45432 10.6746 4.96927 9.84645 5.42412 9.11228C5.73736 8.60798 6.03313 8.13182 6.11071 7.78949C7.10864 3.38181 9.61258 2.81738 11.6812 2.81738C11.8131 2.81738 11.9517 2.81738 12.104 2.82416C16.5107 2.95708 16.9529 5.08572 17.2138 6.3581C17.2491 6.564 17.301 6.7667 17.369 6.96423C18.8479 10.598 19.0914 12.7752 18.1856 14.2464C17.2953 15.6923 15.3412 16.3964 11.4436 16.7106C11.2496 16.7252 11.0557 16.7194 10.8617 16.7194H10.8646V16.7193Z" fill="white"/>
<path d="M10.7735 16.7552C8.27239 16.7552 5.95456 15.51 5.17486 14.6692C4.33213 13.7595 4.02471 12.7296 4.26037 11.6046C4.45432 10.6814 4.96927 9.85027 5.42412 9.11616C5.73736 8.61091 6.03313 8.13375 6.11071 7.79142C7.10864 3.38372 9.61258 2.81836 11.6812 2.81836C11.8131 2.81836 11.9517 2.81836 12.104 2.82514C16.5107 2.95703 16.9529 5.08571 17.2138 6.35806C17.2491 6.56395 17.301 6.76665 17.369 6.96418C18.8237 10.5407 19.0642 12.6957 18.17 14.1697C17.145 15.8601 14.7418 16.4129 11.4504 16.7232C11.2312 16.7445 11.0024 16.7552 10.7735 16.7552Z" fill="white"/>
<path d="M17.143 13.6798C17.1745 13.6022 17.2068 13.5249 17.24 13.4481C17.5785 12.6431 17.8219 11.941 17.4242 11.4959C16.9509 10.9712 14.9396 10.0276 13.1649 9.18679C9.75516 7.57889 7.64973 6.54122 7.34619 5.50161C7.307 5.37515 7.29538 5.24176 7.31211 5.11043C7.32885 4.9791 7.37354 4.85289 7.44318 4.74029C8.02505 3.81804 9.67369 2.82593 11.9207 2.82593H11.9886C14.1037 2.84435 15.6457 3.45435 16.5708 4.63752C17.3525 5.63735 17.5299 6.80304 17.6589 7.65354C17.7036 7.94448 17.7559 8.30527 17.815 8.40416C19.4191 11.1613 18.6878 13.1939 18.106 14.1599L17.143 13.6798Z" fill="white"/>
<path d="M15.4699 10.5127C14.6426 10.5127 13.2626 10.307 12.7836 9.84929C12.4083 9.49042 12.2637 8.89792 12.1251 8.31894C12.0649 8.04166 11.9818 7.76985 11.8768 7.50627H11.869C11.8342 7.60322 11.7944 7.70021 11.7614 7.79721C11.5374 8.42175 11.2319 9.27613 10.5812 9.73679C10.3009 9.93751 9.30008 10.1246 8.52232 10.1246C7.74647 10.1246 7.15782 9.95598 6.767 9.62523C6.20355 9.14911 5.77394 8.27432 5.49073 7.02717L5.45194 7.00197C5.28694 6.9118 5.15028 6.77749 5.05724 6.61408C4.90984 6.31827 4.96999 5.79267 5.1232 5.51916C5.17445 5.42128 5.24923 5.33769 5.34082 5.2759C5.43241 5.21411 5.53792 5.17606 5.64786 5.16519H5.71669C5.83856 5.16942 5.95987 5.18368 6.07941 5.20789C6.21564 5.23502 6.35376 5.25154 6.49254 5.25731C6.51708 5.25897 6.54171 5.25897 6.56624 5.25731C7.28432 5.14759 8.00928 5.08894 8.73565 5.08179C10.3484 5.08179 11.1951 5.4125 11.5132 5.53663L11.5771 5.56088C11.7213 5.59644 11.869 5.61499 12.0174 5.61615C12.0823 5.61642 12.1472 5.61189 12.2114 5.60256C12.8939 5.49575 13.5834 5.44 14.2741 5.43576C15.9761 5.43576 16.8789 5.82365 17.265 5.99049L17.3503 6.02635H17.3833C17.5162 6.01771 17.6479 5.99694 17.777 5.9643C17.8789 5.94199 17.9758 5.92159 18.0679 5.91097C18.0934 5.9079 18.119 5.90627 18.1446 5.9061C18.2743 5.90839 18.4009 5.94646 18.5105 6.0161C18.62 6.08575 18.7081 6.18426 18.7652 6.3008C18.9204 6.58496 19.0252 7.18526 18.8069 7.52858C18.6614 7.75743 18.419 7.86607 18.2251 7.95335L18.1426 7.99115C18.0776 8.10268 17.9613 8.33352 17.8643 8.52453C17.5802 9.08607 17.2591 9.72123 16.9634 10.0636C16.7053 10.3652 16.2166 10.5127 15.4699 10.5127Z" fill="white"/>
<g style="mix-blend-mode:multiply" opacity="0.3">
<path d="M15.1385 10.3748C14.4829 10.3748 13.5626 10.2779 12.8993 9.8094C12.5191 9.54278 12.3484 8.99775 12.1118 8.1327C12.0464 7.87366 11.9674 7.61825 11.8752 7.36751C11.8335 7.4645 11.7859 7.5964 11.7462 7.70211C11.4998 8.36156 11.1643 9.26539 10.5514 9.64169C10.2362 9.83565 9.24705 10.0151 8.47702 10.0151C7.65271 10.0151 7.05823 9.83078 6.71103 9.46806C5.83822 8.55261 5.66171 7.67786 5.55893 7.15613C5.54439 7.08145 5.52597 6.98738 5.50949 6.92336C4.99548 6.65378 4.96153 6.25131 4.97219 6.08354C4.98609 5.77507 5.23852 5.53115 5.54729 5.52783C5.70441 5.53387 5.85527 5.59108 5.9769 5.69075L6.00696 5.71111L6.05063 5.72471C6.20357 5.75933 6.34243 5.83949 6.4489 5.95462C6.55537 6.06974 6.62446 6.21444 6.64704 6.36961C6.74008 6.76544 6.86062 7.15431 7.00779 7.53336C7.34722 8.40621 7.58384 8.55649 7.60421 8.56814C7.91745 8.66872 8.24507 8.7172 8.57401 8.71165C9.01889 8.71229 9.46139 8.64693 9.88711 8.51771C10.0083 8.32376 10.2546 7.83884 10.4253 7.50134C10.9441 6.47631 11.0325 6.32112 11.2477 6.20863C11.3888 6.13956 11.5446 6.10625 11.7016 6.11164C11.9623 6.11429 12.2206 6.15949 12.4667 6.24548C12.8449 6.40551 13.0486 6.9001 13.4792 8.16762C13.5568 8.39551 13.6586 8.69227 13.7197 8.84648C14.0456 9.00354 14.7865 9.11218 15.5711 9.11218C15.7921 9.11218 15.9531 9.10346 16.056 9.09375C16.1296 8.94149 16.2344 8.71942 16.3245 8.52837C16.952 7.19686 17.046 7.04555 17.21 6.92046C17.5099 6.71605 17.86 6.59734 18.2224 6.57715C18.3626 6.56936 18.5008 6.61247 18.6116 6.69854C18.7225 6.78463 18.7984 6.90786 18.8256 7.04555C18.913 7.52366 18.4503 7.70017 18.299 7.75837C18.2622 7.77192 18.2021 7.79521 18.1614 7.81364C18.1051 7.91063 18.0003 8.12106 17.9121 8.29852C17.2439 9.60869 17.019 9.96653 16.7658 10.1178C16.4652 10.2924 15.7107 10.3748 15.1385 10.3748Z" fill="white"/>
</g>
<g style="mix-blend-mode:multiply" opacity="0.3">
<path d="M6.52096 6.50153C6.29335 6.49109 6.06896 6.4436 5.85663 6.36092C5.75386 6.32697 5.67335 6.29495 5.61804 6.27364C5.49782 6.22708 5.18359 6.1049 5.18359 5.7296V5.17875H5.71602C5.77112 5.17985 5.82572 5.18934 5.87799 5.20688C5.99143 5.22336 6.36287 5.25149 6.48605 5.26018L6.55781 5.26604C6.65477 5.26604 6.95734 5.2253 7.0873 5.20589C7.17828 5.18986 7.27035 5.18077 7.36271 5.17871H7.83213L7.90484 5.64037C7.9239 5.77186 7.89444 5.90578 7.82198 6.01714C7.74953 6.12849 7.63902 6.20966 7.51109 6.24551L7.38989 6.28723C7.12801 6.39773 6.85178 6.47054 6.56945 6.50347L6.52096 6.50153ZM17.3273 7.289C17.0959 7.27343 16.8747 7.18786 16.6931 7.04363C16.4574 6.8788 16.2392 6.71973 16.2392 6.43173V5.88959H16.8085C16.8896 5.88966 16.97 5.90547 17.0451 5.93618C17.1062 5.9623 17.3361 6.03314 17.433 6.0564C17.4659 6.05156 17.5378 6.02343 17.6677 5.99629C17.7229 5.9765 17.7802 5.96315 17.8384 5.95651H18.3L18.3747 6.42979C18.3962 6.55883 18.371 6.69133 18.3037 6.80348C18.2363 6.91564 18.1312 7.0001 18.0072 7.04169C17.9877 7.04946 17.9383 7.07857 17.9101 7.09505C17.7592 7.18224 17.5956 7.24539 17.4253 7.28223C17.3928 7.28717 17.3601 7.28946 17.3273 7.289Z" fill="white"/>
</g>
<path d="M13.5254 17.4951H15.4649V19.2407H13.5254V17.4951Z" fill="white"/>
<path d="M16.4613 14.9456C16.3862 14.8495 16.3056 14.7579 16.2198 14.6711L16.1588 14.613L16.1432 14.6072C16.0939 14.5914 16.0433 14.58 15.9919 14.5732C15.7439 14.5418 15.4943 14.5259 15.2443 14.5257C14.7322 14.5189 14.2153 14.5354 13.6994 14.5597C12.6666 14.61 11.6328 14.6934 10.6038 14.8059C10.0898 14.8622 9.57679 14.9262 9.06863 15.0067C8.81553 15.0465 8.56243 15.0901 8.31512 15.1444C8.19194 15.1706 8.06975 15.1997 7.95437 15.2346C7.89983 15.2504 7.84611 15.2688 7.79339 15.2899C7.77211 15.2983 7.75137 15.308 7.7313 15.3189L7.7216 15.3249C7.66126 15.4066 7.60464 15.4911 7.5519 15.5779C7.49857 15.6652 7.44908 15.7642 7.40257 15.862C7.31045 16.056 7.23089 16.2616 7.15427 16.4692C7.07768 16.6767 7.00299 16.8871 6.92058 17.0966C6.8808 17.2014 6.83912 17.2741 6.79546 17.3788C6.77509 17.4283 6.75378 17.4952 6.73242 17.4952H7.42971C7.80694 16.6224 8.51489 15.7224 9.1094 15.48C9.27327 15.4131 11.9082 15.1008 13.6499 15.1008C14.2958 15.1008 14.7429 15.1241 14.9795 15.2162C15.6933 15.4916 17.1131 16.8163 17.2595 17.4952H17.6638C17.5767 17.0489 17.4306 16.6161 17.2294 16.2083C17.0251 15.7581 16.7672 15.3341 16.4614 14.9456H16.4613ZM16.1533 14.6085L16.1521 14.6073L16.151 14.6062L16.1544 14.6096L16.1533 14.6085Z" fill="#BA8449"/>
<path d="M17.603 16.0714C17.3881 15.5781 17.1157 15.112 16.7913 14.6827C16.7066 14.5734 16.6156 14.4691 16.5188 14.3704L16.4422 14.2966L16.4277 14.2831L16.417 14.2744L16.4014 14.2628C16.3874 14.2529 16.3728 14.2438 16.3578 14.2356C16.3344 14.2241 16.3105 14.2138 16.286 14.2046C16.212 14.1794 16.1356 14.1613 16.0581 14.1502C15.7907 14.1138 15.5212 14.0947 15.2513 14.093C14.7237 14.0823 14.201 14.093 13.6783 14.1173C12.635 14.1618 11.5933 14.2378 10.5546 14.3452C10.0348 14.3995 9.51595 14.4606 8.99614 14.5392C8.73623 14.5789 8.4773 14.6225 8.22032 14.6768C8.08938 14.7049 7.95847 14.735 7.82367 14.7738C7.75377 14.7939 7.68484 14.8172 7.61709 14.8437C7.57792 14.8595 7.53972 14.8776 7.50266 14.8979C7.47947 14.9104 7.45712 14.9243 7.43574 14.9397C7.40454 14.9627 7.3765 14.9898 7.35234 15.0201C7.27743 15.1134 7.2075 15.2105 7.14287 15.3111C7.07693 15.408 7.0139 15.5147 6.95669 15.6185C6.83256 15.8348 6.73556 16.0453 6.63857 16.2576C6.54162 16.4699 6.46015 16.6833 6.38643 16.9005C6.34983 17.0087 6.31555 17.1178 6.28365 17.2273C6.26723 17.2821 6.25171 17.337 6.23709 17.3923L6.21479 17.4747L6.20508 17.5164C6.20508 17.5231 6.21867 17.5028 6.25262 17.5222L6.26134 17.495H6.73556C6.75692 17.495 6.77824 17.4282 6.7986 17.3787C6.84222 17.2739 6.88394 17.1847 6.92372 17.0809C7.00613 16.8715 7.07983 16.6688 7.15741 16.4612C7.23502 16.2537 7.31356 16.0529 7.40568 15.858C7.45226 15.761 7.50266 15.6641 7.55504 15.5758C7.60742 15.4876 7.66365 15.4062 7.72474 15.3237L7.73445 15.3189C7.75452 15.3078 7.77525 15.2982 7.79653 15.2897C7.84908 15.2683 7.90282 15.2498 7.95748 15.2344C8.07289 15.1995 8.19508 15.1705 8.31826 15.1442C8.56557 15.0899 8.81868 15.0473 9.07181 15.0065C9.57998 14.9261 10.093 14.862 10.6069 14.8058C11.6359 14.6933 12.6697 14.6118 13.7025 14.5595C14.2185 14.5352 14.7354 14.5188 15.2474 14.5256C15.4974 14.5258 15.7471 14.5417 15.9951 14.5731C16.0465 14.5798 16.0971 14.5912 16.1464 14.607L16.162 14.6128L16.223 14.671C16.3087 14.7577 16.3893 14.8494 16.4645 14.9455C16.7702 15.3333 17.0281 15.7566 17.2326 16.2062C17.4326 16.6148 17.5774 17.0483 17.6632 17.4951H18.0705C18.0297 17.301 17.9667 17.0276 17.8901 16.788C17.8082 16.5439 17.7123 16.3046 17.603 16.0714Z" fill="#895C2F"/>
<path d="M14.9215 15.3762C14.7034 15.2918 14.2757 15.2656 13.6502 15.2656C11.8978 15.2656 9.31232 15.573 9.17072 15.6264C8.63927 15.8465 7.97789 16.7193 7.60938 17.4951H17.092C16.9465 16.9133 15.6276 15.6525 14.9215 15.3762Z" fill="#FFF8EF"/>
<path d="M14.9795 15.2238C14.7429 15.1267 14.2958 15.1006 13.65 15.1006C11.9043 15.1006 9.27328 15.4041 9.10937 15.4711C8.5149 15.7145 7.8031 16.6222 7.42969 17.4951H7.60913C7.97474 16.7192 8.63614 15.8512 9.16758 15.6339C9.30918 15.5807 11.8946 15.2655 13.647 15.2655C14.2725 15.2655 14.7002 15.2839 14.9184 15.3682C15.6244 15.6408 16.9434 16.9131 17.0917 17.4951H17.2566C17.1131 16.8161 15.6933 15.4992 14.9795 15.2238Z" fill="#E5D1AE"/>
<path d="M18.2169 15.3229C18.1199 15.5217 17.6021 16.022 17.1666 15.8979C16.9387 15.8329 16.9804 17.0103 17.505 17.4952H18.4574C18.7192 17.1073 19.1294 15.8311 19.176 15.6992C19.2303 15.5449 18.3158 15.124 18.2169 15.3229Z" fill="#BA8449"/>
<path d="M19.2258 15.5944C19.2141 15.3316 19.0503 15.1609 18.7758 15.0988C18.5547 15.0493 18.2579 15.0988 18.1842 15.2375C18.0388 15.5129 17.8574 15.8591 16.9613 15.8979C16.9323 15.8996 16.9052 15.9127 16.8858 15.9343C16.8663 15.956 16.8562 15.9843 16.8575 16.0133C16.8588 16.042 16.8713 16.0691 16.8923 16.0887C16.9134 16.1083 16.9413 16.1189 16.97 16.118C17.9058 16.0774 18.1774 15.7195 18.3723 15.3529C18.5134 15.2967 18.6707 15.2967 18.8117 15.3529C18.8674 15.367 18.9169 15.3994 18.9521 15.4449C18.9873 15.4905 19.0061 15.5465 19.0056 15.604C19.029 16.1132 18.4994 17.0103 18.2085 17.4951H18.4703C18.7942 16.9133 19.2461 16.118 19.2258 15.5944Z" fill="#895C2F"/>
<g style="mix-blend-mode:multiply" opacity="0.15">
<path d="M17.384 17.5852C17.9659 17.4494 18.4789 16.8705 18.5245 16.0335C18.5332 15.8793 18.2171 15.5816 18.2171 15.5002C18.2171 15.4187 19.1946 15.5176 19.2392 15.7445C19.2839 15.9714 18.6331 17.3554 18.4159 17.5813C18.1986 17.8073 17.0456 17.6647 17.384 17.5852Z" fill="#C7893E"/>
</g>
<path d="M17.8456 14.7622C17.7729 15.2645 18.7611 15.9685 19.4293 15.9433C19.9908 15.9249 20.6153 15.6631 20.5241 15.3556C20.433 15.0482 19.8908 15.41 19.8453 15.1927C19.7997 14.9754 20.4796 14.5769 20.208 14.2869C19.9568 14.0202 19.6649 14.7127 19.3662 14.6128C19.0675 14.5129 19.4244 13.8369 19.0588 13.7981C18.6243 13.7536 18.7873 14.7214 18.4614 14.7398C18.2257 14.7562 17.8688 14.5963 17.8456 14.7622Z" fill="#F8B1AB" stroke="#F38089" stroke-width="0.531213"/>
<g style="mix-blend-mode:multiply" opacity="0.5">
<path d="M18.123 14.7594C18.2307 14.8389 18.6079 14.9475 18.6738 14.8068C18.7398 14.6662 18.7912 14.3927 18.7466 14.3521C18.7165 14.4811 18.6748 14.7264 18.5312 14.7807C18.4217 14.8233 18.1986 14.772 18.123 14.7594ZM19.183 14.2163C19.1636 14.3065 19.0948 14.7302 19.31 14.7894C19.504 14.8408 19.6379 14.7254 19.7843 14.4839C19.7057 14.5606 19.502 14.7361 19.3392 14.6672C19.1762 14.5983 19.1704 14.4335 19.183 14.2163Z" fill="#F8B1AB"/>
</g>
<g style="mix-blend-mode:multiply" opacity="0.25">
<path d="M18.2285 15.3616C19.3418 14.8185 19.5688 15.703 19.5145 15.8843C19.08 15.9609 18.2964 15.5061 18.2285 15.3616Z" fill="#F8B1AB"/>
</g>
<g style="mix-blend-mode:multiply" opacity="0.5">
<path d="M19.8504 15.0115C19.6564 15.2258 19.7534 15.3994 19.8756 15.4178C20.0357 15.4479 20.2306 15.2908 20.2054 15.2888C20.1618 15.2888 19.8611 15.3916 19.8029 15.2414C19.7593 15.1278 19.8281 15.0628 19.8504 15.0115Z" fill="#F8B1AB"/>
</g>
<g style="mix-blend-mode:multiply" opacity="0.15">
<path d="M7.14955 16.436C10.7193 18.4862 17.8172 16.406 17.439 15.7301C16.9415 14.8437 16.7426 14.2754 15.6497 14.3345C14.5568 14.3937 7.55876 14.9455 7.27365 15.1627C6.98852 15.3799 6.68214 16.1674 7.14955 16.436Z" fill="#C7893E"/>
</g>
<path d="M14.9375 4.1052C16.5396 3.95587 17.4763 2.29559 18.4529 2.55353C17.8012 2.96084 17.1495 3.77932 16.2409 5.1235C16.0266 5.43869 14.5011 4.14589 14.9375 4.1052Z" fill="#FFF8EF" stroke="#E5D1AE" stroke-width="0.797008" stroke-linecap="round" stroke-linejoin="round"/>
<path d="M4.91797 3.7386C5.64239 3.06944 6.93613 3.3303 7.98638 3.71143C8.58378 3.92866 9.35766 3.75219 9.41201 3.87438C9.53997 4.16532 8.76706 4.74719 8.12896 4.7365C7.49083 4.72584 6.43862 3.53495 4.91797 3.7386Z" fill="#BA8449" stroke="#895C2F" stroke-width="0.531213" stroke-linecap="round" stroke-linejoin="round"/>
<path d="M16.0353 4.89255C16.402 5.00119 17.7994 2.25862 18.4783 2.53015C20.638 3.39424 17.8266 6.70025 16.9266 6.76619C16.0266 6.83215 15.825 4.8305 16.0354 4.89255H16.0353ZM8.22956 4.56671C7.63215 4.82468 5.51411 2.61161 4.61804 4.03721C4.02843 4.97596 5.81284 6.87479 7.08907 7.07848C8.36533 7.28213 8.54474 4.43093 8.22956 4.56671Z" fill="#F8B1AB" stroke="#F38089" stroke-width="0.531213"/>
<g style="mix-blend-mode:multiply">
<path d="M17.7009 3.05981C17.5826 3.43513 16.6196 4.40878 16.7553 5.24574C16.8047 5.55315 17.1345 6.47153 17.2751 6.43567C17.4158 6.39978 17.7687 6.18253 17.7367 6.23201C17.5315 6.41232 17.3086 6.57152 17.0714 6.7072C16.9046 6.61702 16.1705 4.92762 16.2752 4.83356C16.5876 4.55332 17.5651 3.07824 17.7009 3.05981ZM4.65043 4.09166C5.30211 3.6931 6.493 3.86086 7.1893 4.53973C7.43566 4.78119 7.50547 5.60649 6.9488 6.16411C6.72867 6.38718 8.26093 5.3728 8.26576 5.08182C8.27063 4.79089 8.16881 4.70459 7.93992 4.6202C7.09912 4.30601 6.2147 3.59418 5.44661 3.6097C5.28293 3.61151 5.12272 3.65719 4.98269 3.74195C4.84265 3.82672 4.72794 3.94748 4.65043 4.09166Z" fill="#F8B1AB"/>
</g>
<g style="mix-blend-mode:multiply" opacity="0.25">
<path d="M17.9641 2.85136C19.4508 3.67279 17.0554 4.91506 17.2309 6.46286C16.9197 6.4289 16.1516 4.93154 16.3426 4.79965C16.6074 4.61442 17.7148 2.78056 17.9641 2.85136Z" fill="#F8B1AB"/>
</g>
<path d="M6.8036 7.95136L6.79584 7.98044C6.79584 7.99986 6.7842 8.02894 6.76965 8.07744C6.73292 8.19757 6.68755 8.31489 6.63391 8.42847C6.43112 8.83245 6.20443 9.22398 5.95504 9.60099C5.80183 9.84146 5.63887 10.113 5.47594 10.4156C5.30093 10.7351 5.15674 11.0705 5.04535 11.4174C4.92132 11.801 4.87905 12.2063 4.92125 12.6073C4.97833 13.0475 5.14838 13.4655 5.41486 13.8205C5.48372 13.9175 5.55744 14.0077 5.63792 14.0979C5.7158 14.1876 5.80008 14.2715 5.89007 14.3491C6.08243 14.5093 6.28777 14.6534 6.50395 14.7796C6.96561 15.0554 7.45276 15.2859 7.95863 15.4681C8.49357 15.6646 9.04544 15.8113 9.60726 15.9065C10.19 16.0091 10.7828 16.0416 11.3732 16.0035C12.5952 15.9065 13.8656 15.7843 15.1002 15.4556C15.714 15.2908 16.324 15.0783 16.8651 14.735C17.1366 14.5627 17.378 14.3472 17.5799 14.0969C17.6304 14.0339 17.6769 13.966 17.7312 13.903C17.7879 13.8428 17.8348 13.7741 17.8699 13.6993C17.9398 13.5503 17.9965 13.3955 18.0396 13.2367C18.2054 12.5967 18.1744 11.9275 18.0677 11.2864C17.9514 10.6484 17.7854 10.0202 17.5711 9.40796C17.3655 8.79702 17.126 8.20252 16.8923 7.61677C16.8313 7.46838 16.7701 7.33166 16.7099 7.17452C16.6803 7.0965 16.655 7.01686 16.6344 6.93599C16.6121 6.85644 16.5936 6.77787 16.5762 6.70033C16.5054 6.38998 16.453 6.08937 16.3648 5.80521C16.2836 5.52609 16.1631 5.25995 16.0069 5.01481C15.8521 4.77768 15.6584 4.56849 15.4337 4.3961C14.9796 4.06406 14.462 3.82902 13.9131 3.70562C13.3849 3.57968 12.8464 3.50177 12.3043 3.47285C11.7965 3.43214 11.2861 3.43474 10.7788 3.48061C10.3143 3.5245 9.85973 3.64135 9.43176 3.82686C8.70349 4.14776 8.10364 4.70322 7.7278 5.40468C7.58222 5.68005 7.45836 5.96637 7.35735 6.26101C7.26813 6.52866 7.19732 6.76919 7.14303 6.98156C7.11586 7.08727 7.09161 7.18521 7.07417 7.2725C7.04684 7.35238 7.01444 7.43045 6.97718 7.50622C6.9241 7.6104 6.87873 7.71835 6.84144 7.82917C6.8162 7.90382 6.80748 7.9436 6.80748 7.9436L6.8036 7.95136ZM6.48065 7.87375C6.51561 7.71434 6.53541 7.552 6.53981 7.38886C6.54762 7.30019 6.5609 7.2121 6.57959 7.12507C6.5969 7.07834 6.61698 7.03269 6.63969 6.98833L6.69984 6.83318C6.79658 6.58876 6.906 6.34955 7.02762 6.11652C7.35669 5.48802 7.78688 4.91794 8.30096 4.42906C8.6176 4.13245 8.98139 3.89058 9.37739 3.71338C9.81614 3.51978 10.2812 3.39264 10.7575 3.33612C11.2723 3.27512 11.7912 3.25599 12.3091 3.2789C12.8652 3.29082 13.4191 3.35184 13.9646 3.46123C14.525 3.58441 15.1069 3.77832 15.6132 4.15076C15.8688 4.33826 16.0908 4.56779 16.2697 4.82959C16.4459 5.09905 16.5808 5.39322 16.6703 5.70243C16.7573 6.00888 16.8285 6.31962 16.8836 6.63341C16.9001 6.70904 16.9155 6.78373 16.935 6.85647C16.9517 6.92827 16.9731 6.99889 16.999 7.06789C17.0544 7.21516 17.1104 7.36224 17.1668 7.50912C17.3924 8.10588 17.5938 8.72008 17.7709 9.35172C17.9526 9.98274 18.0824 10.6276 18.1589 11.2797C18.1975 11.6079 18.2105 11.9386 18.1977 12.2688C18.1874 12.5973 18.1356 12.9232 18.0434 13.2386C17.9986 13.3974 17.9399 13.5519 17.8679 13.7003C17.8505 13.7371 17.8349 13.7749 17.8184 13.8137C17.8019 13.8526 17.7932 13.8932 17.7767 13.932C17.7623 13.9714 17.7448 14.0097 17.7244 14.0464L17.6584 14.1531C17.4719 14.434 17.2407 14.6823 16.9738 14.8882C16.8411 14.9916 16.7025 15.0871 16.5587 15.1743C16.4132 15.2587 16.2678 15.3373 16.1136 15.4081C15.8123 15.5467 15.501 15.6628 15.1826 15.7552C14.5574 15.9314 13.9211 16.0652 13.2779 16.1558C12.6456 16.2527 12.0172 16.3168 11.3995 16.3672C10.7794 16.4138 10.156 16.3839 9.54323 16.278C8.95962 16.1784 8.38633 16.0255 7.83062 15.8212C7.30238 15.6297 6.79354 15.3885 6.31096 15.1006C6.07754 14.9613 5.85599 14.8031 5.64858 14.6274C5.54455 14.5377 5.44731 14.4405 5.35764 14.3364C5.27139 14.2381 5.19016 14.1355 5.11425 14.029C4.81531 13.6231 4.62654 13.1466 4.56629 12.6461C4.52484 12.1961 4.57871 11.7424 4.72438 11.3146C4.84711 10.9493 5.00326 10.596 5.19083 10.2595C5.36057 9.95011 5.53221 9.67758 5.68348 9.43121C5.92307 9.06361 6.1407 8.68213 6.33524 8.28882C6.38153 8.18957 6.42074 8.08717 6.45257 7.98238C6.46111 7.95563 6.46823 7.92843 6.47391 7.90092L6.48168 7.87184L6.48065 7.87375Z" fill="#E5D1AE"/>
<path d="M6.63807 7.91067C6.2938 9.43126 3.28939 11.8383 5.57132 14.3005C6.34714 15.1385 8.86858 16.4215 11.3997 16.1829C17.974 15.5622 19.6352 13.9747 16.8655 7.16877C16.4155 6.06224 16.9198 3.51266 12.0873 3.36817C10.0595 3.30708 7.61952 3.58545 6.63807 7.91067Z" fill="#FFF8EF"/>
<path d="M7.94663 5.03726L7.93303 5.05956C7.91986 5.0802 7.90789 5.10157 7.89717 5.12358C7.85455 5.20576 7.81981 5.2918 7.79341 5.38053C7.69697 5.73365 7.66413 6.10112 7.69642 6.46575C7.73569 7.03922 7.87484 7.60143 8.1076 8.12701C8.40322 8.81109 8.85849 9.41438 9.43524 9.88622C9.76365 10.1544 10.1283 10.3748 10.5185 10.5408C10.938 10.7165 11.3783 10.8374 11.8287 10.9006C12.3084 10.9664 12.7937 10.981 13.2766 10.9443C13.3997 10.9365 13.5249 10.9229 13.6489 10.9093H13.6936L13.7392 10.9015C13.7673 10.8957 13.7944 10.8908 13.8255 10.8832C13.8846 10.8686 13.9457 10.8512 14.0069 10.8337C14.2522 10.7639 14.5024 10.6872 14.7603 10.6291C15.2744 10.5137 15.8271 10.4555 16.3663 10.5738C16.6367 10.6343 16.8947 10.7402 17.1296 10.887C17.1883 10.921 17.2452 10.958 17.3002 10.9976L17.3827 11.0625L17.4602 11.1314C17.5136 11.177 17.5573 11.2283 17.6096 11.2788C17.6344 11.3035 17.6581 11.3294 17.6804 11.3564C17.7037 11.3845 17.7255 11.414 17.7453 11.4446C17.8882 11.6942 17.9584 11.9787 17.948 12.2661C17.946 12.5477 17.9134 12.8283 17.8511 13.103C17.8211 13.2404 17.7872 13.3768 17.7493 13.5123L17.6949 13.713L17.6669 13.8099L17.6562 13.8565V13.8624C17.6357 13.8478 17.7037 13.9012 17.6077 13.7858C17.4719 13.7858 17.5388 13.809 17.5194 13.8022V13.7964C17.6593 13.5638 17.7766 13.3182 17.8695 13.0632C18.0518 12.5521 18.1299 12.0097 18.0993 11.468C18.0666 10.9318 17.9494 10.4042 17.7522 9.90469C17.658 9.65569 17.5486 9.41279 17.4243 9.17729C17.3631 9.05936 17.2984 8.94326 17.2304 8.82914C17.1903 8.76331 17.156 8.6942 17.1276 8.62256C17.101 8.55228 17.079 8.48037 17.0616 8.40725C16.9967 8.12701 16.9647 7.86322 16.923 7.6014C16.8813 7.33951 16.8435 7.08546 16.7892 6.83621C16.6918 6.35188 16.5204 5.88544 16.281 5.45331C16.0525 5.04807 15.7412 4.69549 15.3675 4.41854C15.0041 4.15626 14.6006 3.95452 14.1727 3.82113C13.7678 3.69345 13.3515 3.60576 12.9294 3.55931C12.538 3.51474 12.1441 3.49499 11.7501 3.50016C11.3957 3.50263 11.0419 3.52952 10.6911 3.58063C10.1214 3.65593 9.56809 3.82571 9.05418 4.08299C8.72754 4.24903 8.4322 4.47052 8.18134 4.7376C8.11621 4.80813 8.05471 4.88193 7.9971 4.95872L7.94183 5.04018L7.94663 5.03726ZM7.78371 4.9403L7.84285 4.85206C7.903 4.76773 7.96774 4.68677 8.0368 4.60959C8.30009 4.32178 8.61112 4.08161 8.95616 3.8997C9.48662 3.62046 10.0593 3.43011 10.6514 3.33625C11.0133 3.27459 11.3792 3.23862 11.7463 3.2286C12.1517 3.21495 12.5575 3.22694 12.9614 3.26449C13.4049 3.30298 13.8435 3.38549 14.2706 3.51082C14.7362 3.6457 15.1763 3.85673 15.5731 4.13536C15.9938 4.43659 16.3467 4.82281 16.6088 5.26904C16.8703 5.73433 17.0566 6.23806 17.1606 6.76156C17.2178 7.02337 17.2576 7.28816 17.2993 7.55191C17.341 7.81571 17.3671 8.0824 17.4225 8.32777C17.4352 8.38589 17.4514 8.44321 17.4709 8.49941C17.4922 8.55345 17.5178 8.60566 17.5475 8.65556C17.6145 8.7758 17.6804 8.898 17.7415 9.02309C17.8651 9.27486 17.9733 9.53401 18.0654 9.79894C18.2558 10.3357 18.3583 10.8996 18.369 11.4689C18.3789 12.0428 18.2731 12.6128 18.0576 13.1447C17.9492 13.4095 17.8147 13.6629 17.6562 13.9012C17.6525 13.9068 17.6487 13.9123 17.6445 13.9177C17.6192 13.9177 17.6814 13.9477 17.5379 13.9487C17.435 13.8264 17.5068 13.8691 17.4864 13.8468V13.8274C17.4908 13.8087 17.496 13.7903 17.502 13.7722L17.535 13.6751L17.597 13.4813C17.6378 13.3502 17.6744 13.2179 17.7066 13.0846C17.7729 12.8204 17.8112 12.5499 17.821 12.2777C17.8377 12.0118 17.7799 11.7465 17.6542 11.5116C17.6372 11.4847 17.6191 11.4584 17.5999 11.433C17.5789 11.407 17.5566 11.3821 17.533 11.3584C17.4861 11.3105 17.4383 11.2636 17.3895 11.2178L17.3148 11.1508L17.2363 11.0898C17.1848 11.047 17.1276 11.0122 17.0733 10.9743C16.8494 10.8321 16.6006 10.7333 16.3401 10.6834C15.8213 10.5816 15.2909 10.6582 14.7953 10.789C14.5451 10.8521 14.3016 10.9336 14.0553 11.0111C13.9942 11.0305 13.9322 11.0499 13.8681 11.0674C13.8371 11.0761 13.8022 11.0839 13.7712 11.0917L13.7237 11.1004H13.6732C13.5452 11.1159 13.4192 11.1323 13.2921 11.1421C12.795 11.1886 12.2943 11.1821 11.7986 11.1227C11.3253 11.0649 10.862 10.9433 10.4215 10.761C10.0093 10.5906 9.62359 10.3619 9.27619 10.0821C8.67475 9.57929 8.20283 8.93938 7.90007 8.21624C7.66306 7.66516 7.52328 7.07717 7.48694 6.47838C7.45908 6.08885 7.50044 5.69746 7.60914 5.32237C7.64107 5.22193 7.68197 5.12456 7.73133 5.03143C7.74879 4.99652 7.76239 4.97909 7.7711 4.96356L7.78465 4.94125L7.78371 4.9403Z" fill="#E5BFA1"/>
<path d="M8.14794 5.15248L8.12174 5.20485L8.11493 5.21745V5.2417C8.11929 5.2814 8.13115 5.3199 8.14988 5.35517C8.21426 5.46538 8.29428 5.56566 8.38744 5.65289C8.60265 5.85351 8.835 6.03491 9.08184 6.19502C9.58711 6.5257 10.1311 6.82729 10.6684 7.11823C11.7575 7.69428 12.8766 8.22477 13.9919 8.76686C14.5495 9.03743 15.1071 9.30994 15.6609 9.59314C15.9382 9.73574 16.2136 9.88405 16.4862 10.0325C16.7587 10.1808 17.0302 10.3418 17.294 10.5173C17.4259 10.6055 17.5559 10.6977 17.6819 10.7996C17.744 10.8519 17.8061 10.9062 17.8652 10.9644L17.9099 11.011L17.9311 11.0343L17.937 11.0401L17.9457 11.0517L17.9544 11.0633L18.0242 11.1604L18.0592 11.2069C18.0708 11.2243 18.0825 11.2457 18.0931 11.264L18.159 11.3824C18.1773 11.4216 18.1935 11.4618 18.2075 11.5026C18.2243 11.5419 18.2379 11.5824 18.2483 11.6239C18.2709 11.7058 18.2865 11.7895 18.2948 11.8741C18.2948 11.9158 18.3055 11.9575 18.3055 11.9991V12.1243C18.288 12.4475 18.22 12.7658 18.1037 13.0679C17.9981 13.3666 17.8662 13.6498 17.7469 13.9329L17.553 13.836C17.7424 13.5096 17.8854 13.1584 17.9777 12.7925C18.0691 12.4273 18.1112 12.0515 18.1028 11.6752C18.0979 11.5783 18.1028 11.4881 18.0912 11.3941L18.0611 11.1138C18.0514 11.0167 18.0282 10.9285 18.0126 10.8365C17.9972 10.7435 17.9768 10.6517 17.9516 10.561L17.8769 10.2885C17.8555 10.1915 17.8148 10.1101 17.7857 10.0208L17.6887 9.75411L17.5713 9.49611C17.5306 9.4108 17.4967 9.32258 17.451 9.23918L17.3144 8.98993L17.2456 8.86579L17.2106 8.79598L17.1883 8.75327L17.1718 8.72034C17.1612 8.69704 17.1505 8.67961 17.1398 8.65244L17.1078 8.56709L17.0932 8.52442L17.0826 8.48662L17.0622 8.41098C16.9652 8.01045 16.9264 7.63513 16.8527 7.25595C16.7873 6.88555 16.6899 6.5215 16.5618 6.16784C16.435 5.82192 16.2604 5.49547 16.0429 5.19804C15.8264 4.90552 15.5621 4.65147 15.2613 4.44647C14.9574 4.24037 14.6265 4.0772 14.278 3.96159C14.1913 3.92961 14.1029 3.90242 14.0132 3.88013C13.9231 3.85683 13.8347 3.83064 13.7436 3.80932C13.5603 3.77537 13.38 3.73274 13.1927 3.71234C13.0958 3.70068 13.0075 3.68516 12.9144 3.67644L12.6331 3.65608L12.4926 3.64542H12.351L12.0707 3.64058H11.7895C11.6926 3.64058 11.5955 3.64058 11.5053 3.65222L11.2328 3.67548L10.9575 3.71332C10.5917 3.77041 10.2323 3.86198 9.88383 3.98679C9.53799 4.10626 9.20756 4.26643 8.8995 4.4639L8.78603 4.53859L8.67644 4.62295C8.60275 4.67533 8.53777 4.73547 8.47085 4.79271C8.34412 4.90763 8.23148 5.03719 8.1353 5.17866L8.14794 5.15248ZM7.68437 4.88773C7.92698 4.53788 8.2381 4.24094 8.59887 4.01489C8.94153 3.79004 9.30973 3.60676 9.69568 3.4689C10.0787 3.33509 10.4736 3.23769 10.875 3.17797L11.1756 3.14017L11.4821 3.11786C11.5868 3.10815 11.6761 3.11009 11.7788 3.10815H12.0785L12.3771 3.12075L12.5255 3.12756L12.6749 3.14211L12.9726 3.17024C13.0696 3.18189 13.1666 3.19932 13.2694 3.21386C13.4633 3.23906 13.6641 3.2895 13.8609 3.33023C13.9579 3.35547 14.0549 3.3855 14.1519 3.41268C14.2488 3.43985 14.3459 3.47374 14.4428 3.50963C14.8294 3.64511 15.1953 3.83378 15.5299 4.07019C15.8677 4.31025 16.1627 4.60529 16.4027 4.943C16.6372 5.27705 16.8236 5.64234 16.9565 6.02818C17.0875 6.40681 17.1848 6.79623 17.2474 7.19192C17.3154 7.57985 17.3512 7.96778 17.4288 8.32853L17.4443 8.39252L17.453 8.42453L17.4618 8.45072L17.4773 8.5031C17.4831 8.52152 17.4967 8.54577 17.5064 8.56709L17.5219 8.60006C17.5219 8.60006 17.5122 8.58163 17.5219 8.59328V8.60104L17.5306 8.61752L17.5655 8.68346L17.6334 8.81535L17.7711 9.07915C17.8167 9.16643 17.8516 9.2605 17.8914 9.35068L18.0087 9.62417L18.1057 9.90636C18.1348 10.0034 18.1745 10.0925 18.1959 10.1905L18.2677 10.4814C18.2922 10.5772 18.3109 10.6744 18.3239 10.7724C18.3385 10.8694 18.3598 10.9664 18.3675 11.0633L18.3909 11.362C18.4015 11.459 18.3909 11.5618 18.3909 11.6616C18.3876 12.0613 18.3318 12.4588 18.225 12.8438C18.1166 13.2278 17.955 13.5947 17.745 13.9339C17.7312 13.958 17.7087 13.9759 17.6821 13.9839C17.6556 13.992 17.6269 13.9895 17.6022 13.9771C17.5773 13.9647 17.5582 13.9432 17.5486 13.9172C17.5392 13.8911 17.54 13.8624 17.551 13.8369C17.6655 13.546 17.7876 13.2637 17.8807 12.9757C17.9811 12.6952 18.0368 12.4008 18.0456 12.1029C18.0555 11.8223 17.9696 11.5467 17.8021 11.3213L17.7295 11.2311L17.7207 11.2195C17.7139 11.2117 17.7275 11.2272 17.7207 11.2253L17.7158 11.2205L17.6974 11.202L17.6606 11.1651C17.6081 11.1155 17.5531 11.0686 17.4958 11.0245C17.3784 10.9343 17.2523 10.851 17.1253 10.7695C16.6004 10.4517 16.0598 10.1603 15.5057 9.89661C14.951 9.62614 14.3905 9.3662 13.828 9.10629C12.7021 8.59232 11.5703 8.08803 10.457 7.52261C9.90033 7.24042 9.34755 6.94853 8.80837 6.60716C8.6745 6.52086 8.54165 6.43164 8.41169 6.3356C8.27765 6.2389 8.15002 6.13362 8.02959 6.02041C7.89376 5.89802 7.77764 5.7554 7.68532 5.59758C7.6309 5.49646 7.5979 5.38522 7.58836 5.27078C7.58513 5.23854 7.58513 5.20604 7.58836 5.17379C7.58745 5.157 7.58745 5.14018 7.58836 5.12339C7.58836 5.10398 7.59708 5.08362 7.6029 5.06424C7.60873 5.04482 7.61456 5.02446 7.62134 5.006L7.63104 4.97988L7.63782 4.96724L7.664 4.91487L7.68437 4.88773Z" fill="#895C2F"/>
<path d="M7.86336 4.98474C6.96532 6.37254 8.03983 11.718 13.6869 10.9975C14.2853 10.9218 16.2714 9.86275 17.6098 11.3505C18.3429 12.1651 17.3537 14.2346 17.6098 13.8078C17.8949 13.3327 18.9945 11.4998 17.3518 8.67578C16.8212 7.77484 17.6941 3.40786 12.0354 3.35841C9.86105 3.33611 8.46076 4.06442 7.86336 4.98474Z" fill="#BA8449"/>
<g style="mix-blend-mode:multiply" opacity="0.15">
<path d="M7.70529 5.32227C9.33457 4.27295 14.2582 4.34474 15.8321 6.86135C16.8795 8.53327 14.9593 12.6529 14.2582 13.1785C13.557 13.7042 12.5688 14.159 9.98626 13.5403C7.80227 13.0147 11.0995 10.9771 8.52381 10.6804C6.17112 10.4088 5.93931 6.46372 7.70529 5.32227Z" fill="#C7893E"/>
</g>
<g style="mix-blend-mode:multiply" opacity="0.25">
<path d="M12.2631 9.37687C12.2631 9.50203 12.0245 9.60281 11.7297 9.60281C11.4349 9.60281 11.1953 9.50587 11.1953 9.37687C11.1953 9.2479 11.432 9.15479 11.7278 9.15479C12.0235 9.15479 12.2631 9.25178 12.2631 9.37687Z" fill="#C7893E"/>
</g>
<path d="M11.3243 8.70691C11.4465 8.62544 12.1001 8.65259 12.1796 8.73408C12.2591 8.81551 12.4444 9.16172 12.2339 9.30431C12.1622 9.35372 12.1564 9.14912 11.9964 9.18208C11.8024 9.22284 11.8993 9.47883 11.752 9.47302C11.5144 9.46627 11.7432 9.19761 11.5347 9.16076C11.3785 9.13358 11.3408 9.28101 11.2767 9.26936C11.0459 9.22962 11.1535 8.82133 11.3243 8.70691Z" fill="#F38089"/>
<path d="M11.6822 8.71259C11.8397 8.70299 11.9977 8.72339 12.1476 8.77269C12.2332 8.87284 12.2809 8.99983 12.2825 9.13154C12.2813 9.15437 12.2753 9.17668 12.2649 9.19705C12.2546 9.21744 12.2401 9.23542 12.2223 9.24985L12.2097 9.23432C12.1927 9.20263 12.1678 9.17589 12.1373 9.15669C12.1069 9.13748 12.0721 9.12647 12.0362 9.12473C12.0213 9.12287 12.0063 9.12287 11.9915 9.12473C11.9417 9.13904 11.8973 9.16826 11.8646 9.20849C11.8318 9.24871 11.8122 9.298 11.8083 9.34974C11.7888 9.42442 11.782 9.44092 11.7597 9.44092C11.6928 9.44092 11.6909 9.41279 11.6928 9.33131C11.6947 9.24985 11.6928 9.13736 11.5502 9.11019C11.535 9.10627 11.5194 9.10367 11.5037 9.10242C11.4332 9.10419 11.3664 9.13508 11.3194 9.18776L11.2922 9.213C11.2708 9.20981 11.2509 9.19947 11.236 9.18364C11.221 9.16781 11.2118 9.1474 11.2098 9.12572C11.2024 9.05521 11.2122 8.98394 11.2383 8.91805C11.2645 8.85217 11.3063 8.79364 11.3602 8.7475C11.4639 8.71327 11.5732 8.69975 11.6822 8.70772V8.71259ZM11.6822 8.65344C11.5627 8.6446 11.4427 8.66113 11.3301 8.70193C11.1594 8.81635 11.0518 9.22465 11.2826 9.26534H11.2904C11.3476 9.26534 11.3873 9.15286 11.5037 9.15286C11.5154 9.15286 11.5279 9.1393 11.5406 9.1422C11.7491 9.1781 11.5202 9.43989 11.7578 9.43989C11.9042 9.43989 11.8034 9.20234 11.9983 9.16256C12.0095 9.16104 12.021 9.16104 12.0322 9.16256C12.1447 9.16256 12.1661 9.2993 12.2146 9.2993C12.2215 9.30145 12.2289 9.30145 12.2359 9.2993C12.4464 9.15674 12.263 8.81441 12.1817 8.73003C12.134 8.68252 11.8907 8.65439 11.6783 8.65439L11.6822 8.65344Z" fill="#F38089"/>
<g style="mix-blend-mode:multiply" opacity="0.25">
<path d="M16.774 10.8549C17.0144 12.4249 15.0545 14.4024 12.4157 14.8068C9.77694 15.2112 7.82375 12.8478 7.58226 11.2777C7.34077 9.70769 8.96618 10.3069 11.6011 9.90157C14.236 9.49628 16.5305 9.28482 16.774 10.8549Z" fill="#F6E8D0"/>
</g>
<path opacity="0.5" d="M9.8873 13.2396C9.93539 13.3054 9.99998 13.3576 10.0744 13.3909C10.1474 13.4262 10.2237 13.4538 10.3023 13.4733C10.4615 13.5126 10.6237 13.5382 10.7873 13.5499C11.11 13.575 11.4341 13.5769 11.757 13.5557C12.0819 13.5363 12.4049 13.5015 12.7268 13.453C12.8868 13.4278 13.0469 13.4006 13.2049 13.3648C13.362 13.3333 13.5157 13.2865 13.6636 13.2251C13.6947 13.2106 13.7344 13.1834 13.7325 13.1736L13.7625 13.0563C13.7859 12.9778 13.813 12.8972 13.8402 12.8197C13.8974 12.6665 13.9585 12.5152 14.0215 12.3639C14.1476 12.0623 14.2853 11.7665 14.4269 11.4717C14.4967 11.3242 14.5704 11.1808 14.6441 11.0314C14.7179 10.8821 14.7945 10.7404 14.871 10.596C14.9485 10.45 15.0302 10.3064 15.1164 10.1654C15.161 10.0946 15.2037 10.0238 15.2532 9.95199L15.3307 9.84633C15.3617 9.80949 15.3966 9.77265 15.4276 9.73674L15.5848 10.016C15.2861 10.113 14.9874 10.21 14.6858 10.2934C14.5354 10.337 14.3833 10.3749 14.232 10.4146C14.0806 10.4544 13.9275 10.4883 13.7752 10.5252C13.6229 10.562 13.4697 10.5911 13.3165 10.6221C13.1632 10.6531 13.008 10.6803 12.8548 10.7094C12.7017 10.7386 12.5455 10.7589 12.3903 10.7851C12.2352 10.8112 12.08 10.8287 11.9248 10.8471C11.7696 10.8656 11.6135 10.885 11.4564 10.8966C11.2993 10.9082 11.1441 10.9266 10.987 10.9315L10.5177 10.9509H10.0454C9.88823 10.9509 9.73017 10.9364 9.57305 10.9286L9.33741 10.9141L9.10175 10.8859L8.86901 10.8549L8.75166 10.8404L8.6343 10.8083L8.16785 10.7114L8.25513 10.4078L8.452 10.5125L8.5005 10.5417L8.54606 10.5746L8.63723 10.6406C8.66754 10.6612 8.69668 10.6835 8.72452 10.7074L8.80499 10.7821L8.88451 10.8569C8.90975 10.8841 8.93109 10.913 8.95435 10.9402C9.00216 10.9937 9.04621 11.0505 9.08622 11.1099C9.12674 11.1675 9.1643 11.227 9.19874 11.2884C9.22976 11.3524 9.26756 11.4116 9.2957 11.4755C9.32382 11.5396 9.35393 11.6026 9.38001 11.6695L9.45183 11.8635L9.51586 12.0574C9.55552 12.1891 9.59236 12.3217 9.62639 12.455C9.66051 12.5882 9.69708 12.7208 9.73598 12.8527C9.75736 12.9186 9.7748 12.9845 9.80095 13.0466C9.82439 13.1132 9.85327 13.1777 9.8873 13.2396ZM9.8873 13.2396C9.85167 13.1806 9.8212 13.1186 9.79608 13.0544C9.76805 12.9914 9.74958 12.9244 9.72727 12.8604L9.60801 12.4657C9.56705 12.3354 9.52308 12.206 9.47611 12.0778L9.40139 11.8839L9.31416 11.6996C9.28214 11.6385 9.24818 11.5802 9.21716 11.5211C9.1861 11.4619 9.14248 11.4076 9.10468 11.3524C9.06617 11.298 9.02405 11.2461 8.97861 11.1973C8.93616 11.1464 8.88907 11.0997 8.83795 11.0576C8.81275 11.0362 8.78949 11.013 8.76426 10.9926L8.67503 10.9402L8.59456 10.8869C8.56702 10.8701 8.53812 10.8555 8.50822 10.8433L8.42094 10.8035L8.38409 10.7841L8.33754 10.7705L8.15425 10.7221C8.11361 10.7111 8.07888 10.6846 8.05748 10.6484C8.0361 10.6121 8.02976 10.569 8.03983 10.5281C8.04987 10.4923 8.07216 10.4611 8.10283 10.44C8.13349 10.4189 8.17056 10.4092 8.20761 10.4127L8.24253 10.4185L8.68961 10.5029L8.80114 10.5223L8.91457 10.5359L9.14152 10.564L9.36847 10.5912L9.5963 10.6047C9.74958 10.6114 9.90089 10.629 10.0541 10.6261H10.5137L10.9725 10.6066C11.1256 10.6066 11.2789 10.5833 11.4322 10.5727C11.5854 10.562 11.7376 10.5436 11.8899 10.5241C12.0421 10.5047 12.1944 10.4893 12.3466 10.4631C12.4989 10.4369 12.6512 10.4194 12.8015 10.3894C12.9518 10.3593 13.1051 10.3351 13.2554 10.304C13.4057 10.273 13.557 10.241 13.7063 10.2071C13.8556 10.1731 14.0059 10.1383 14.1554 10.0984C14.3046 10.0587 14.454 10.0229 14.6014 9.98012C14.8974 9.89771 15.191 9.80715 15.482 9.70862C15.5163 9.69652 15.5537 9.69643 15.5881 9.70824C15.6225 9.72005 15.652 9.74312 15.6717 9.77368C15.6915 9.80424 15.7003 9.84062 15.6968 9.8768C15.6933 9.91299 15.6779 9.94702 15.6526 9.97337L15.639 9.9879L15.5684 10.0519L15.4936 10.1372C15.4442 10.1944 15.3966 10.2585 15.3481 10.3205C15.2512 10.4495 15.1649 10.5833 15.0766 10.7182C14.9884 10.8529 14.904 10.9906 14.8215 11.1303C14.7391 11.2699 14.6567 11.4087 14.5782 11.5502C14.4201 11.8335 14.2688 12.1204 14.1282 12.4124C14.058 12.5573 13.9933 12.7048 13.9342 12.8546C13.9044 12.9288 13.8765 13.0038 13.8508 13.0796L13.8159 13.1959C13.8062 13.2242 13.7865 13.248 13.7606 13.2629C13.7418 13.2752 13.722 13.2859 13.7014 13.2948C13.5464 13.3529 13.3859 13.3954 13.2224 13.422C13.0615 13.4519 12.8998 13.4775 12.7375 13.4986C12.4155 13.5397 12.092 13.5665 11.7676 13.579C11.4422 13.5947 11.116 13.5895 10.7911 13.5635C10.6275 13.5502 10.4653 13.5229 10.3063 13.4821C10.2272 13.4618 10.1505 13.4335 10.0773 13.3977C10.0003 13.3642 9.93361 13.3106 9.88439 13.2425L9.8873 13.2396Z" fill="#D7CAB2"/>
<path opacity="0.5" d="M9.88737 13.2406C9.93602 13.306 10.0004 13.358 10.0745 13.3919C10.1476 13.4276 10.2243 13.4552 10.3033 13.4743C10.4626 13.5135 10.6248 13.5395 10.7883 13.552C11.111 13.5758 11.435 13.578 11.7581 13.5587C12.0826 13.5414 12.4062 13.509 12.7278 13.4618C12.8878 13.4384 13.0488 13.4123 13.2069 13.3783C13.3652 13.3476 13.5202 13.3015 13.6695 13.2406C13.7024 13.2241 13.7441 13.2018 13.75 13.1786L13.7811 13.0602C13.8043 12.9827 13.8325 12.9042 13.8596 12.8275C13.9176 12.6747 13.9794 12.5233 14.0448 12.3736C14.1758 12.0749 14.3173 11.7821 14.4638 11.4901C14.5355 11.3437 14.6102 11.1992 14.6859 11.0547C14.7613 10.9101 14.8396 10.7668 14.9205 10.6251C15 10.4864 15.0853 10.342 15.1736 10.2032C15.2192 10.1344 15.2629 10.0646 15.3123 9.99762L15.3889 9.90069C15.4188 9.866 15.4512 9.83356 15.4859 9.80375L15.5645 9.94334C15.2687 10.0403 14.971 10.1373 14.6703 10.2188C14.521 10.2625 14.3687 10.3002 14.2184 10.34C14.0681 10.3797 13.9158 10.4127 13.7636 10.4496C13.6113 10.4864 13.4591 10.5155 13.3068 10.5465C13.1546 10.5777 13.0003 10.6038 12.8471 10.6329C12.6939 10.6619 12.5397 10.6823 12.3855 10.7075C12.2313 10.7328 12.0771 10.7512 11.9219 10.7706C11.7668 10.79 11.6126 10.8084 11.4565 10.8191C11.3003 10.8297 11.1451 10.8492 10.989 10.854L10.5187 10.8695H10.0493C9.89318 10.8695 9.73699 10.855 9.5809 10.8472L9.34619 10.8327L9.11247 10.8035L8.87874 10.7755L8.76238 10.7609L8.64696 10.7202L8.18534 10.6096L8.22995 10.4709L8.42389 10.5728L8.47239 10.6L8.51701 10.6309L8.60722 10.6911C8.6363 10.7114 8.66828 10.7279 8.69546 10.7512L8.77498 10.822L8.85545 10.8918C8.8797 10.917 8.90204 10.9452 8.9253 10.9713C8.97578 11.0216 9.02217 11.0757 9.06401 11.1333C9.10599 11.1889 9.14483 11.2469 9.18034 11.3068C9.21331 11.3689 9.25114 11.4271 9.27733 11.4892C9.30352 11.5512 9.33744 11.6143 9.36462 11.6832L9.44027 11.8771L9.50721 12.0711C9.54846 12.2024 9.5869 12.3347 9.62262 12.4677C9.65843 12.6006 9.69527 12.7334 9.73502 12.8643C9.7564 12.9293 9.77384 12.9962 9.80102 13.0583C9.82484 13.1213 9.85371 13.1823 9.88737 13.2406ZM9.88737 13.2406C9.85202 13.1816 9.82184 13.1196 9.79709 13.0554C9.76999 12.9924 9.75152 12.9254 9.72921 12.8614L9.61193 12.4658C9.57349 12.3354 9.53149 12.206 9.48584 12.0778L9.41402 11.8839L9.33066 11.6967C9.30059 11.6347 9.26667 11.5755 9.23367 11.5144C9.20071 11.4533 9.16191 11.399 9.12602 11.3418C9.0877 11.2857 9.0466 11.2317 9.00287 11.1798C8.96269 11.1266 8.91826 11.0766 8.87002 11.0305C8.84578 11.0072 8.82248 10.9829 8.79728 10.9617L8.71098 10.9005L8.63048 10.8414C8.60281 10.823 8.57401 10.8065 8.54418 10.792L8.45595 10.7454L8.41229 10.7221L8.36569 10.7066L8.17856 10.6436C8.15814 10.6367 8.14127 10.622 8.13164 10.6028C8.12201 10.5835 8.12041 10.5612 8.12717 10.5407C8.13409 10.524 8.1469 10.5104 8.16316 10.5026C8.17944 10.4948 8.19803 10.4931 8.21541 10.4981L8.22219 10.5117L8.6741 10.5882L8.78758 10.6038L8.902 10.6145L9.13089 10.6416L9.35974 10.6688L9.59056 10.6824C9.74374 10.6891 9.89702 10.7066 10.0522 10.7037L10.5187 10.7066L10.9812 10.6872C11.1355 10.6872 11.2886 10.6639 11.4429 10.6532C11.5971 10.6425 11.7503 10.6242 11.9035 10.6047C12.0567 10.5853 12.2099 10.5688 12.3622 10.5427C12.5145 10.5165 12.6686 10.4991 12.82 10.469C12.9713 10.4389 13.1245 10.4146 13.2758 10.3827C13.4271 10.3507 13.5783 10.3197 13.7287 10.2857C13.8795 10.2518 14.0299 10.2156 14.1796 10.1771C14.3299 10.1382 14.4792 10.1005 14.6276 10.0568C14.9254 9.97531 15.2202 9.88325 15.5121 9.78434C15.5222 9.78078 15.5329 9.77928 15.5436 9.77994C15.5543 9.78059 15.5648 9.78331 15.5744 9.788C15.5841 9.79269 15.5927 9.79925 15.5998 9.80722C15.6069 9.81528 15.6124 9.82456 15.6159 9.83469C15.6206 9.84903 15.6214 9.86431 15.6181 9.87894C15.6149 9.89365 15.6077 9.90715 15.5974 9.91812L15.5906 9.92394L15.5121 9.99959L15.4364 10.0898C15.387 10.1509 15.3395 10.2169 15.2929 10.2837C15.2018 10.4157 15.1145 10.5514 15.0292 10.6891C14.944 10.827 14.8612 10.9663 14.7808 11.1072C14.7004 11.2477 14.6199 11.3892 14.5433 11.5318C14.3901 11.8227 14.2426 12.1079 14.1059 12.4047C14.0407 12.5528 13.976 12.7012 13.912 12.8498C13.8829 12.9254 13.8548 13.0002 13.8295 13.0767L13.7956 13.194C13.7877 13.2183 13.7707 13.2386 13.7481 13.2504C13.7304 13.2626 13.7115 13.273 13.6918 13.2814C13.5384 13.3402 13.3796 13.3837 13.2176 13.4112C13.0575 13.4424 12.8966 13.4695 12.7327 13.4907C12.4109 13.5353 12.0873 13.5647 11.7628 13.5791C11.4377 13.5963 11.1117 13.5918 10.7873 13.5655C10.6236 13.5522 10.4614 13.525 10.3024 13.484C10.2234 13.4637 10.1467 13.4355 10.0735 13.3996C9.99827 13.3644 9.93368 13.3098 9.88634 13.2416L9.88737 13.2406Z" fill="#D7CAB2"/>
<path d="M9.88568 13.2416C10.3066 13.8932 13.7105 13.4442 13.7649 13.1872C13.9142 12.5219 15.1361 10.1867 15.5299 9.86084C14.8239 10.1052 11.1716 11.2728 8.19922 10.5669C9.54818 10.9975 9.55887 12.7353 9.88568 13.2415V13.2416Z" fill="#333333"/>
<path d="M15.0847 10.177C14.5737 10.948 13.7891 12.4521 13.6223 13.1077C13.4206 13.2183 12.3616 13.4151 11.3209 13.4151C10.4909 13.4151 10.1069 13.2803 10.0253 13.1533C9.92847 12.9582 9.85554 12.752 9.8081 12.5394C9.66757 12.0371 9.47547 11.3543 9.0061 10.8762C9.43207 10.929 9.86088 10.9548 10.2902 10.9538C12.2491 10.9538 14.1596 10.4583 15.0858 10.1779L15.0847 10.177ZM15.5357 9.86182C14.9897 10.0558 12.6826 10.7919 10.2902 10.7919C9.58882 10.798 8.8891 10.7229 8.20508 10.5678C9.54916 10.9975 9.55985 12.7353 9.88666 13.2416C10.0476 13.4898 10.6431 13.5781 11.32 13.5781C12.4188 13.5781 13.7338 13.3463 13.7697 13.1901C13.919 12.5249 15.141 10.1897 15.5347 9.86378L15.5357 9.86182Z" fill="#333333"/>
<g style="mix-blend-mode:multiply">
<path d="M9.68335 12.6713C9.90938 12.8653 10.6783 12.0012 10.5969 11.6666C10.3884 10.8161 9.44775 10.9335 9.10345 10.8792C8.75914 10.8248 8.09387 10.531 8.37026 10.6173C9.16744 10.8617 10.6871 10.7531 10.8684 10.8112C11.0974 10.8792 11.2564 11.8063 11.0314 12.0148C10.8064 12.2233 10.0102 13.4355 9.89091 13.228C9.77166 13.0204 9.7425 12.7983 9.68335 12.6713ZM13.2851 11.6666C13.4675 11.8441 13.9456 12.0545 14.2443 11.9469C14.1904 12.1146 14.1175 12.2757 14.0271 12.4269C11.9633 12.2456 12.5248 10.7977 12.6781 10.6619C12.8313 10.5261 14.7418 10.2546 15.1133 10.177C14.5517 10.3002 12.6519 11.0518 13.2851 11.6666Z" fill="#818181"/>
</g>
<path d="M11.2949 13.5828C10.5928 13.5828 10.1312 13.4859 9.95464 13.2919C9.94105 13.2755 9.93823 13.1774 10.0187 12.9941C10.2126 12.5461 10.8187 11.7713 11.8612 11.7083C11.9311 11.7083 12.0009 11.7014 12.0688 11.7014C13.2956 11.7014 14.0345 12.3241 14.0365 12.4356L13.9763 12.58C13.9104 12.7391 13.8095 12.9796 13.7204 13.2473C13.6331 13.3346 12.3976 13.5828 11.2949 13.5828Z" fill="#F8B1AB"/>
<path d="M12.0704 11.6763V11.7548C13.1372 11.7548 13.8985 12.2814 13.978 12.4337C13.9645 12.4676 13.946 12.5093 13.9257 12.5587C13.8607 12.714 13.7627 12.9467 13.6754 13.2065C13.5018 13.3036 12.3546 13.5286 11.2898 13.5286C10.6235 13.5286 10.1658 13.4315 9.99707 13.2628C9.98929 13.2056 10.0454 12.9797 10.2492 12.6887C10.4315 12.4288 10.9552 11.8158 11.8619 11.7626C11.9298 11.7626 12.0006 11.7558 12.0685 11.7558V11.6471L12.0704 11.6763ZM12.0685 11.6471C11.9997 11.6471 11.9288 11.6471 11.8571 11.6539C10.4218 11.7393 9.75847 13.162 9.90979 13.3248C10.1192 13.5547 10.6691 13.6342 11.2898 13.6342C12.3962 13.6342 13.7297 13.3802 13.7695 13.2618C13.8917 12.8953 14.0323 12.583 14.0866 12.4473C14.1409 12.3115 13.3108 11.6443 12.0665 11.6443L12.0685 11.6471Z" fill="#F38089"/>
<g style="mix-blend-mode:multiply">
<path d="M9.93613 13.2454C9.83919 13.6905 12.5468 11.5221 14.0093 12.5665C14.3002 12.1612 12.6874 11.4823 11.7458 11.6394C10.9515 11.7732 10.1349 12.2824 9.93613 13.2454Z" fill="#F8B1AB"/>
</g>
<path d="M10.4824 10.9199C10.6143 11.1643 10.8762 12.3553 10.9848 12.3863C11.0934 12.4173 11.7606 12.6035 11.8576 12.5627C11.9546 12.522 11.9459 12.2912 12.0516 12.3591C12.133 12.4134 12.1738 12.522 12.2552 12.4813C12.4007 12.4086 12.837 12.1419 12.907 12.0196C12.9767 11.8975 12.9613 11.2186 12.907 10.6755C12.614 10.7978 10.9712 10.9742 10.4824 10.9199Z" fill="#FEF6E4"/>
<path d="M12.8517 10.7493C12.9031 11.3069 12.904 11.8994 12.8517 11.9934C12.7993 12.0875 12.4008 12.3436 12.2233 12.4327C12.2197 12.4333 12.2161 12.4333 12.2126 12.4327C12.2 12.4327 12.1758 12.4066 12.1554 12.3843C12.131 12.3568 12.1037 12.3321 12.0739 12.3106C12.055 12.2975 12.0328 12.2901 12.0099 12.2893C11.9401 12.2893 11.9129 12.3601 11.8878 12.4173C11.8732 12.4521 11.8537 12.5007 11.8334 12.5142C11.8263 12.5152 11.8192 12.5152 11.812 12.5142C11.5646 12.4802 11.3201 12.427 11.0809 12.3552L11.0062 12.3358C10.9548 12.2776 10.8462 11.8954 10.7666 11.6143C10.6949 11.3641 10.627 11.1294 10.5727 10.981H10.724C11.3476 10.981 12.4919 10.8511 12.8575 10.7453L12.8517 10.7493ZM12.905 10.6716C12.6568 10.7783 11.3747 10.9266 10.7269 10.9266C10.6472 10.9273 10.5676 10.9237 10.4883 10.916C10.6144 11.1643 10.8762 12.3552 10.9849 12.3862C11.0934 12.4173 11.6365 12.5686 11.812 12.5686C11.8262 12.5692 11.8403 12.5673 11.8537 12.5627C11.9372 12.5268 11.9421 12.3465 12.0099 12.3465C12.0222 12.3471 12.034 12.3515 12.0439 12.359C12.1127 12.4046 12.1525 12.49 12.2126 12.49C12.2247 12.4897 12.2367 12.4867 12.2475 12.4813C12.3929 12.4085 12.8294 12.1418 12.8993 12.0197C12.969 11.8974 12.9535 11.2186 12.8993 10.6755L12.9051 10.6716H12.905Z" fill="#FFD085"/>
<g style="mix-blend-mode:multiply">
<path d="M10.6735 11.4902C10.6289 11.0509 12.6645 10.9083 12.9186 10.9423C12.9186 10.8385 12.9002 10.7667 12.905 10.6514C12.5694 10.82 10.7414 10.9976 10.4883 10.9248C10.5639 11.1084 10.6259 11.2974 10.6735 11.4902Z" fill="#EADCBE"/>
</g>
<g style="mix-blend-mode:multiply">
<path d="M11.6891 11.1584C11.7173 11.2166 11.7425 11.2762 11.7648 11.3369C11.8074 11.4455 11.8617 11.5919 11.9054 11.7384C11.949 11.8848 12.0023 12.0293 12.0324 12.1428L12.0876 12.3251L11.9471 12.3659L11.9044 12.1719C11.8791 12.0594 11.8452 11.91 11.8074 11.7607C11.7695 11.6114 11.7318 11.4639 11.6988 11.3543C11.6658 11.2447 11.6387 11.1749 11.6387 11.1749L11.6891 11.1584Z" fill="#FFD085"/>
</g>
<g style="mix-blend-mode:multiply" opacity="0.4">
<path d="M4.79701 4.23223C5.87834 4.50768 5.70183 6.37644 6.34868 6.52193C6.99553 6.66738 7.83732 4.98483 7.91878 4.61434C6.67262 4.08484 6.09559 3.45934 5.20336 3.64457C4.90858 3.70079 4.49442 4.1537 4.79701 4.23223Z" fill="#F8B1AB"/>
</g>
<g style="mix-blend-mode:multiply" opacity="0.5">
<path d="M7.79096 9.69418C9.14864 9.80275 10.2707 9.85703 10.6692 9.44003C11.0679 9.02305 11.2123 7.17755 11.8728 7.22315C12.4266 7.26095 12.6147 9.667 12.9764 9.73881C13.3382 9.81053 15.8858 10.5088 16.5152 9.85703C17.1445 9.20538 17.4384 8.79808 17.291 8.40239C17.1436 8.00673 13.4274 6.73046 12.669 6.66164C11.9106 6.59277 6.76877 7.23187 6.63882 7.55771C6.50886 7.88355 6.37312 7.837 6.39736 8.18515C6.44488 8.83394 6.43322 9.58553 7.79096 9.69418Z" fill="#C7893E"/>
</g>
<path d="M11.5963 6.95639C11.6932 6.95639 12.0811 6.92921 12.1664 6.99712C12.6591 7.38501 12.6378 8.95705 13.1576 9.45355C13.6163 9.89192 16.1173 10.2139 16.5519 9.71155C16.9863 9.2092 17.6234 7.6895 17.7728 7.578C17.9221 7.46647 18.248 7.38405 18.3431 7.23857C18.4381 7.09312 18.3567 6.42396 18.1258 6.45114C17.895 6.47828 17.4605 6.62761 17.189 6.54809C16.9175 6.46858 15.6014 5.63844 12.2886 6.14079C12.0027 6.17703 11.7124 6.1586 11.4333 6.08647C11.2161 6.03215 9.96697 5.31065 6.64159 5.78777C6.30893 5.83528 5.85412 5.69078 5.6912 5.70631C5.52828 5.72184 5.47491 6.2368 5.54183 6.37258C5.60875 6.50832 5.94913 6.61695 5.98987 6.77988C6.03059 6.9428 6.3293 8.54392 7.11676 9.2092C7.94595 9.9103 10.0776 9.42542 10.2657 9.29066C11.121 8.67971 11.3111 6.95639 11.5963 6.95639Z" fill="#333333"/>
<path d="M8.73477 5.78964C10.2147 5.78964 10.9712 6.08541 11.2563 6.19599C11.3001 6.21511 11.3452 6.23163 11.3911 6.24543C11.5944 6.29641 11.8031 6.32278 12.0127 6.324C12.112 6.32446 12.2112 6.3173 12.3094 6.30265C12.9583 6.20228 13.6138 6.15072 14.2703 6.14845C15.8268 6.14845 16.6367 6.49662 16.9858 6.64596C17.0555 6.67603 17.106 6.69735 17.1468 6.70995C17.2237 6.73162 17.3034 6.74207 17.3834 6.74101C17.5663 6.7337 17.748 6.70737 17.9254 6.66244C18.0011 6.64692 18.0729 6.63138 18.1292 6.6227C18.2048 6.70511 18.2504 7.07169 18.2106 7.15802C18.1285 7.22615 18.0345 7.27842 17.9332 7.31219C17.8439 7.34838 17.7584 7.39355 17.6781 7.44702C17.5908 7.51005 17.4978 7.68462 17.2331 8.20829C16.9809 8.70676 16.6676 9.32743 16.4291 9.60283C16.3457 9.69987 16.0499 9.7968 15.469 9.7968C14.6069 9.7968 13.5178 9.56505 13.2705 9.32937C13.0455 9.11407 12.9253 8.61754 12.8099 8.13848C12.6809 7.60313 12.5548 7.09788 12.2639 6.86903C12.1902 6.81083 12.0699 6.78757 11.8429 6.78757H11.5928C11.3639 6.78757 11.2621 7.07169 11.0933 7.54397C10.9062 8.08805 10.6424 8.82218 10.174 9.15484C10.0702 9.21784 9.30112 9.41468 8.52534 9.41468C7.93181 9.41468 7.48183 9.30028 7.22482 9.08305C6.91351 8.82024 6.47712 8.2102 6.16678 6.80695C6.16 6.77493 6.15513 6.75167 6.15125 6.73812C6.11345 6.58681 5.96799 6.49176 5.83899 6.40836C5.78605 6.3773 5.73664 6.34052 5.6916 6.29877C5.66778 6.15367 5.68388 6.00482 5.73816 5.86816C5.81363 5.87503 5.88873 5.88571 5.96313 5.90018C6.1387 5.93432 6.31676 5.95411 6.49555 5.95937C6.55216 5.96173 6.60885 5.96007 6.66525 5.9545C7.35038 5.85124 8.04192 5.79612 8.73477 5.78964ZM8.73477 5.62671C8.03324 5.63086 7.3329 5.68498 6.63906 5.78868C6.58958 5.79538 6.53967 5.79864 6.48972 5.79836C6.19879 5.79836 5.86614 5.7014 5.7139 5.7014H5.68966C5.52674 5.71495 5.47242 6.23089 5.54029 6.36667C5.6082 6.50242 5.94759 6.61106 5.98837 6.77397C6.02909 6.9369 6.32776 8.53802 7.11522 9.2033C7.44593 9.48255 7.98225 9.57377 8.52046 9.57377C9.33412 9.57377 10.1517 9.36622 10.2661 9.28282C11.1214 8.67186 11.3115 6.94855 11.5967 6.94855C11.6403 6.94855 11.7411 6.94272 11.8469 6.94272C11.9787 6.94272 12.1193 6.95144 12.1668 6.98928C12.6595 7.37717 12.6382 8.94921 13.158 9.44571C13.449 9.72602 14.5797 9.95871 15.469 9.95871C15.9704 9.95871 16.3952 9.88502 16.5523 9.70371C16.9867 9.20136 17.6238 7.68169 17.7732 7.57017C17.9225 7.45863 18.2484 7.37622 18.3435 7.23073C18.4385 7.08528 18.3609 6.44231 18.1398 6.44231H18.1263C17.9439 6.46362 17.6355 6.5616 17.3795 6.5616C17.314 6.56266 17.2487 6.55454 17.1856 6.53736C16.9771 6.47432 16.1478 5.96904 14.2665 5.96904C13.6029 5.97306 12.9407 6.02687 12.2852 6.13002C12.195 6.14317 12.1038 6.14966 12.0127 6.14943C11.8165 6.14821 11.6211 6.12347 11.4308 6.07573C11.2698 6.05149 10.5183 5.62671 8.73477 5.62671Z" fill="#1A1A1A"/>
<g style="mix-blend-mode:multiply" opacity="0.5">
<path fill-rule="evenodd" clip-rule="evenodd" d="M6.91251 6.79354C6.83687 6.89054 6.79033 8.34039 7.39743 8.73315C7.79792 8.99207 9.50185 8.9368 9.84122 8.7467C10.3805 8.44803 10.9052 7.07089 10.7539 6.87501C10.5095 6.54917 8.74542 6.11472 7.41388 6.45415C7.22061 6.52279 7.04804 6.63961 6.91251 6.79354Z" stroke="#333333" stroke-width="1.06243"/>
</g>
<path d="M6.91251 6.79354C6.83687 6.89054 6.79033 8.34039 7.39743 8.73315C7.79792 8.99207 9.50185 8.9368 9.84122 8.7467C10.3805 8.44803 10.9052 7.07089 10.7539 6.87501C10.5095 6.54917 8.74542 6.11472 7.41388 6.45415C7.22061 6.52279 7.04804 6.63961 6.91251 6.79354Z" fill="white"/>
<g style="mix-blend-mode:multiply" opacity="0.5">
<path fill-rule="evenodd" clip-rule="evenodd" d="M16.9101 7.42762C16.9722 7.53332 16.8306 8.97929 16.174 9.2896C15.7434 9.49324 14.0609 9.21883 13.7495 8.98607C13.2569 8.61949 12.9185 7.18616 13.0901 7.01061C13.3743 6.71966 15.181 6.517 16.4553 7.02613C16.6388 7.11878 16.7954 7.25703 16.9101 7.42762Z" stroke="#333333" stroke-width="1.06243"/>
</g>
<path d="M16.9101 7.42762C16.9722 7.53332 16.8306 8.97929 16.174 9.2896C15.7434 9.49324 14.0609 9.21883 13.7495 8.98607C13.2569 8.61949 12.9185 7.18616 13.0901 7.01061C13.3743 6.71966 15.181 6.517 16.4553 7.02613C16.6388 7.11878 16.7954 7.25703 16.9101 7.42762Z" fill="white"/>
<path d="M8.85162 7.67299C8.80704 7.98817 8.64702 8.22674 8.49479 8.20443C8.34249 8.18212 8.25619 7.91349 8.30081 7.59442C8.34542 7.27536 8.50541 7.04068 8.65767 7.06299C8.80994 7.08529 8.89623 7.35781 8.85162 7.67299ZM15.3677 8.03957C15.4016 8.35669 15.3036 8.62143 15.1514 8.64181C14.9991 8.66217 14.8478 8.4139 14.8149 8.09678C14.7819 7.77965 14.8789 7.51007 15.032 7.49454C15.1853 7.47901 15.3356 7.72244 15.3677 8.03957Z" fill="#010101"/>
<g style="mix-blend-mode:multiply" opacity="0.3">
<path d="M5.7121 6.16883C5.89733 6.29201 6.0719 6.21637 6.11263 6.45977C6.15336 6.7032 6.71681 8.83476 7.42277 9.0782C8.5788 9.48068 10.0335 9.08695 10.2274 8.96088C10.4214 8.8348 11.3475 6.76916 11.5037 6.68766C11.6598 6.6062 12.1515 6.69642 12.2572 6.74202C12.5763 6.87776 13.161 9.11897 13.324 9.23243C14.0367 9.73475 16.3177 9.69406 16.4273 9.55821C16.5369 9.42246 17.3971 7.46348 17.5465 7.34616C17.7704 7.17647 18.2863 7.06105 18.2999 7.13573C18.3135 7.21039 17.8858 7.27829 17.7568 7.44122C17.6279 7.60414 16.7667 9.47778 16.4962 9.63978C16.2256 9.80168 14.2258 10.0713 13.2173 9.3614C12.7324 9.02197 12.5452 6.97959 12.165 6.87099C11.9675 6.80596 11.7555 6.79889 11.5541 6.85062C11.3165 7.00673 10.9839 8.73686 10.2711 9.17811C9.98889 9.35364 7.76902 9.7804 7.10858 9.08988C5.87308 7.80101 6.24643 6.64694 5.84785 6.47724C5.57244 6.36087 5.51522 6.21927 5.522 6.11744C5.52882 6.01562 5.61024 6.10096 5.7121 6.16883ZM5.73246 5.73439C5.60346 5.68687 6.2891 5.97199 6.54224 5.95452C6.79534 5.93708 7.22107 5.76057 7.35685 5.71691C7.49263 5.67329 6.71871 5.8139 6.52865 5.80515C6.33858 5.79643 5.80711 5.76057 5.73246 5.73439ZM11.0401 6.11454C11.2777 6.22315 11.3863 6.4879 11.622 6.51507C11.8576 6.54222 12.1312 6.58295 12.2602 6.50826C12.4342 6.40561 12.6164 6.3177 12.8051 6.24545C12.9021 6.22509 12.0924 6.35409 11.7937 6.32691C11.4765 6.29585 11.1283 6.1281 11.0401 6.11454ZM16.8443 6.43361C16.7473 6.39289 17.2031 6.76624 17.3389 6.74586C17.4746 6.7255 17.7268 6.57034 17.8238 6.53544C17.9052 6.50826 17.498 6.6169 17.3757 6.5965C17.1949 6.5552 17.0172 6.50076 16.8443 6.43361Z" fill="#333333"/>
</g>
<g style="mix-blend-mode:multiply" opacity="0.3">
<path d="M6.65533 6.58293C7.25951 5.98553 8.69771 6.18918 8.95956 6.2435C7.23237 6.36862 7.20135 6.49763 6.89975 6.80307C6.81515 7.37653 6.87276 7.96198 7.06751 8.50796C6.77075 8.33728 6.45363 6.78274 6.65533 6.58293ZM17.2386 7.22495C16.7189 6.55385 15.2661 6.56645 14.9994 6.58583C16.6955 6.93691 16.7082 7.07075 16.968 7.41113C16.9768 7.99046 16.8435 8.56311 16.5802 9.07917C16.8944 8.94922 17.4132 7.44996 17.2386 7.22495Z" fill="#333333"/>
</g>
<g style="mix-blend-mode:multiply">
<path d="M6.93078 7.7914C6.99089 7.08246 7.05294 6.51806 8.44846 6.47444C9.56566 6.4395 10.4569 6.70139 10.5888 6.96998C10.6713 7.13872 10.6063 7.89323 10.0467 8.58176C10.4094 8.25881 10.9816 6.99716 10.7324 6.83615C9.82263 6.25427 8.01691 6.23877 7.34487 6.48022C7.17219 6.55532 7.01821 6.66758 6.8939 6.809C6.87646 6.98646 6.87358 7.69247 6.93078 7.7914Z" fill="#D0DDDC"/>
</g>
<g style="mix-blend-mode:multiply">
<path d="M6.97264 7.83891C7.18505 9.20923 9.69679 8.79318 9.84613 8.7389C9.83647 8.81548 8.52915 9.17821 7.42943 8.75732C6.98718 8.58759 6.94744 7.68177 6.97264 7.83891ZM16.7938 8.40429C16.8208 7.69345 16.8286 7.12613 15.4496 6.91082C14.345 6.73918 13.4276 6.89046 13.2646 7.13971C13.1618 7.29776 13.1337 8.0542 13.605 8.80676C13.284 8.44213 12.8709 7.11931 13.1385 6.99133C14.1084 6.52388 15.9092 6.73142 16.5434 7.05338C16.706 7.14886 16.8451 7.2794 16.9508 7.43548C16.9459 7.61196 16.8635 8.31309 16.7938 8.40429Z" fill="#D0DDDC"/>
</g>
<g style="mix-blend-mode:multiply">
<path d="M16.7469 8.44606C16.3677 9.78045 13.9267 9.05992 13.7852 8.98721C13.7852 9.06478 15.0381 9.58461 16.1806 9.3014C16.6402 9.18793 16.7905 8.29281 16.7469 8.44606Z" fill="#D0DDDC"/>
</g>
<g style="mix-blend-mode:screen" opacity="0.25">
<path d="M8.73347 7.36515C8.7826 7.36515 8.82241 7.32532 8.82241 7.27621C8.82241 7.22708 8.7826 7.18726 8.73347 7.18726C8.68435 7.18726 8.64453 7.22708 8.64453 7.27621C8.64453 7.32532 8.68435 7.36515 8.73347 7.36515Z" fill="white"/>
</g>
<g style="mix-blend-mode:screen" opacity="0.25">
<path d="M15.1944 7.74527C15.2436 7.74527 15.2834 7.70545 15.2834 7.65632C15.2834 7.60721 15.2436 7.56738 15.1944 7.56738C15.1453 7.56738 15.1055 7.60721 15.1055 7.65632C15.1055 7.70545 15.1453 7.74527 15.1944 7.74527Z" fill="white"/>
</g>
<g style="mix-blend-mode:screen" opacity="0.1">
<path d="M5.75195 6.08071C5.94589 6.30472 6.06714 6.32608 6.33382 6.29117C8.88142 5.95463 10.2857 5.9721 10.9781 6.62379C11.1285 6.76539 11.0461 6.20967 10.7609 6.13891C8.61671 5.57157 7.06214 6.08071 6.73531 6.12143C6.40848 6.16217 6.16604 6.08748 5.75195 6.08071ZM12.7839 6.40655C12.7266 6.4657 12.7509 7.05534 13.0282 6.83421C13.8293 6.19609 15.506 6.34934 16.6737 6.73726C16.4797 6.37069 15.122 6.11271 14.352 6.12631C13.9913 6.13407 12.942 6.24561 12.7839 6.40655Z" fill="#D0DDDC"/>
</g>
<path d="M17.3457 7.01212C17.5031 7.01212 17.6308 6.97229 17.6308 6.92317C17.6308 6.87405 17.5031 6.83423 17.3457 6.83423C17.1882 6.83423 17.0605 6.87405 17.0605 6.92317C17.0605 6.97229 17.1882 7.01212 17.3457 7.01212Z" fill="#D0DDDC"/>
<path d="M6.60356 6.16601C6.60356 6.18929 6.46972 6.18735 6.31261 6.16601C6.15552 6.14469 6.03527 6.09909 6.03915 6.07484C6.04304 6.05059 6.17299 6.05253 6.33009 6.07484C6.48719 6.09714 6.60744 6.14175 6.60356 6.16601Z" fill="#D0DDDC"/>
<path d="M22.4398 19.2775C22.3903 18.7791 22.0256 18.556 21.6863 18.556C21.5739 18.5564 21.4627 18.5782 21.3585 18.62L21.2916 18.6491L21.2353 18.6908C21.1297 18.7688 21.0138 18.8321 20.8911 18.8789C20.8849 18.765 20.8887 18.6508 20.9027 18.5376V18.5192C20.9948 17.6415 20.8115 17.1294 20.3567 16.9966C20.2801 16.9744 20.2008 16.9633 20.121 16.9636C19.8746 16.9748 19.6376 17.0616 19.4422 17.2118C19.3633 17.1225 19.2651 17.0523 19.155 17.0066C19.0449 16.9609 18.9259 16.9409 18.8069 16.9481C18.3909 16.9481 18.0563 17.1421 17.9341 17.4553C17.9225 17.4854 17.906 17.5348 17.8856 17.5979C17.781 17.3675 17.6103 17.1733 17.3951 17.0401C17.1801 16.9068 16.9302 16.8403 16.6773 16.8492C16.3146 16.8489 15.959 16.9497 15.6503 17.1401L15.625 17.1586C15.216 17.4468 14.8832 17.8302 14.6553 18.2757C14.5295 17.8455 14.2448 17.479 13.8591 17.2507L13.8513 17.2459L13.8174 17.2254C14.247 16.4613 14.6272 15.4478 14.3993 14.4838C14.1568 13.4549 13.5517 13.3008 13.2132 13.3008C13.0667 13.3022 12.9214 13.3284 12.7836 13.3783H12.7652C12.127 13.6295 11.8458 14.0067 11.7847 14.0969C11.2728 14.9199 10.9544 15.8483 10.8537 16.8124C10.835 16.988 10.8156 17.1635 10.7955 17.339C10.6665 17.168 10.4832 17.0459 10.2758 16.9927C10.1959 16.9684 10.1128 16.9559 10.0294 16.9559C9.67734 16.9559 9.38841 17.1721 9.23611 17.3156C9.17123 17.2197 9.08482 17.1403 8.98379 17.0838C8.88276 17.0272 8.76991 16.995 8.65423 16.9898H8.59702C8.26578 16.9959 7.94776 17.1209 7.70092 17.3419C7.63046 17.2188 7.5282 17.1169 7.40484 17.0469C7.28148 16.977 7.14157 16.9415 6.99978 16.9443H6.87953C6.46153 16.9443 6.13279 17.1382 5.99892 17.4689C5.9868 17.501 5.9755 17.5332 5.96503 17.5658C5.63722 17.1586 5.21925 16.9675 4.6587 16.9675H4.60244C4.25333 16.9743 3.38148 17.1207 2.8452 18.3252C2.76477 18.5046 2.69988 18.6905 2.65122 18.8809C2.55467 18.837 2.44987 18.8142 2.34381 18.814C2.22757 18.8146 2.11318 18.8431 2.01024 18.8971C1.90731 18.9511 1.81883 19.029 1.75226 19.1243C1.66883 19.2465 1.40602 19.6762 1.53502 20.0941C1.56963 20.2047 1.62914 20.306 1.709 20.3901C1.78885 20.4742 1.88692 20.5388 1.99566 20.579C2.19641 20.6575 2.44955 20.7342 2.64155 20.7894C2.7962 21.1341 3.03742 21.4327 3.34174 21.6564C3.63173 21.8639 3.98236 21.9693 4.33868 21.9561C4.81692 21.9397 5.28735 21.83 5.72351 21.6332L5.7497 21.6215L5.75651 21.6167C5.89324 21.7577 6.07114 21.8517 6.26466 21.8853C6.344 21.8999 6.4245 21.9074 6.50519 21.9076C6.8669 21.9076 7.12098 21.7282 7.35375 21.382C7.45791 21.5357 7.59963 21.6602 7.76545 21.7437C7.93129 21.8272 8.1157 21.867 8.30121 21.8591C8.32352 21.8591 8.34682 21.8707 8.37106 21.8707C8.58636 21.8707 8.85594 21.7912 9.08289 21.4295C9.17657 21.5948 9.31379 21.7314 9.47963 21.8243C9.64547 21.9171 9.83363 21.9627 10.0236 21.9561C10.279 21.9502 10.5302 21.889 10.7597 21.7767L10.7713 21.7709C10.8935 21.7059 10.9934 21.6506 11.0749 21.6031C11.4398 21.8017 11.8483 21.9069 12.2638 21.9096C12.35 21.9098 12.4361 21.9053 12.5217 21.896H12.5673C13.6342 21.6865 14.3265 21.4304 14.7406 21.2375C15.1012 21.6384 15.6047 21.8822 16.1429 21.9163C16.2176 21.9222 16.2922 21.925 16.366 21.925C16.8173 21.9264 17.2619 21.8154 17.6597 21.6022C17.7694 21.7208 17.9038 21.8137 18.0534 21.8746C18.1499 21.9149 18.2534 21.9357 18.3579 21.9357C19.0213 21.9357 19.3277 21.1483 19.416 20.8796L19.577 20.4519C19.7228 20.6132 19.9104 20.731 20.119 20.7923C20.2475 20.8289 20.3803 20.8472 20.5138 20.8466C21.2411 20.8466 21.9443 20.3307 22.0548 20.2454C22.197 20.1309 22.3072 19.9817 22.3747 19.8121C22.4421 19.6425 22.4646 19.4584 22.4398 19.2775Z" fill="white"/>
<path d="M19.5035 21.5554C19.814 21.5554 20.0657 21.3037 20.0657 20.9933C20.0657 20.6828 19.814 20.4312 19.5035 20.4312C19.1931 20.4312 18.9414 20.6828 18.9414 20.9933C18.9414 21.3037 19.1931 21.5554 19.5035 21.5554Z" fill="white"/>
<path d="M19.5058 20.6628C19.5491 20.6628 19.5919 20.6715 19.632 20.6881C19.672 20.7047 19.7083 20.729 19.7388 20.7598C19.7694 20.7904 19.7937 20.8269 19.8101 20.8669C19.8266 20.9071 19.8349 20.95 19.8347 20.9933C19.8347 21.0588 19.8153 21.1227 19.779 21.1771C19.7426 21.2314 19.6908 21.2737 19.6304 21.2988C19.5699 21.3237 19.5034 21.3302 19.4393 21.3173C19.3752 21.3044 19.3163 21.2728 19.2701 21.2265C19.224 21.1801 19.1926 21.1211 19.18 21.0569C19.1674 20.9927 19.1742 20.9262 19.1995 20.8658C19.2247 20.8054 19.2673 20.754 19.3218 20.7179C19.3763 20.6817 19.4403 20.6626 19.5058 20.6628ZM19.5058 20.7172C19.4325 20.7172 19.3623 20.7463 19.3105 20.7981C19.2587 20.8499 19.2297 20.9201 19.2297 20.9933C19.2297 21.0665 19.2587 21.1368 19.3105 21.1885C19.3623 21.2403 19.4325 21.2694 19.5058 21.2694C19.5789 21.269 19.6488 21.2398 19.7006 21.1881C19.7522 21.1364 19.7815 21.0664 19.7819 20.9933C19.7819 20.9201 19.7527 20.8499 19.701 20.7981C19.6492 20.7463 19.579 20.7172 19.5058 20.7172ZM19.5158 20.8116C19.5429 20.8101 19.57 20.8135 19.5959 20.8217C19.6125 20.828 19.6265 20.8396 19.6359 20.8546C19.646 20.8708 19.651 20.8897 19.6502 20.9089C19.6507 20.9204 19.6489 20.9319 19.6451 20.9427C19.6411 20.9535 19.6351 20.9634 19.6274 20.9718C19.6094 20.9902 19.5856 21.0018 19.56 21.0048C19.5739 21.0123 19.5865 21.0219 19.5973 21.0333C19.6122 21.0498 19.6255 21.0675 19.6373 21.0863L19.6802 21.1535H19.5973L19.5458 21.0777C19.5286 21.0519 19.51 21.0348 19.51 21.0276C19.5039 21.0214 19.4967 21.0166 19.4886 21.0133C19.4773 21.0113 19.4656 21.0113 19.4542 21.0133H19.44V21.1563H19.3727V20.8116H19.5158ZM19.5444 20.8703H19.44V20.9576H19.49C19.5111 20.9583 19.5323 20.9564 19.5529 20.9518C19.5612 20.9497 19.5683 20.9446 19.573 20.9375C19.5777 20.9298 19.5801 20.9208 19.5801 20.9118C19.5805 20.9015 19.5775 20.8915 19.5715 20.8832C19.5643 20.8758 19.5546 20.8713 19.5444 20.8703Z" fill="#E24C32"/>
<path d="M21.9002 19.3317C21.8672 18.9982 21.5666 19.1223 21.5666 19.1223C21.5666 19.1223 21.0817 19.4966 20.6579 19.4549C20.2341 19.4132 20.3669 18.4619 20.3669 18.4619C20.3669 18.4619 20.464 17.589 20.2089 17.5173C19.9539 17.4455 19.6493 17.7452 19.6493 17.7452C19.4037 18.0317 19.2119 18.3603 19.0829 18.7149L19.0325 18.7314C19.0325 18.7314 19.0907 17.7811 19.0238 17.5677C18.9744 17.4601 18.5157 17.4708 18.4419 17.6598C18.3682 17.849 18.0007 19.1863 17.9755 19.7449C17.9755 19.7449 17.2578 20.3539 16.6323 20.4538C16.0068 20.5537 15.8565 20.1629 15.8565 20.1629C15.8565 20.1629 17.5585 19.6877 17.5051 18.328C17.4518 16.9684 16.1328 17.4707 15.9845 17.5832C15.8361 17.6957 15.0729 18.1544 14.8488 19.4365C14.8411 19.4801 14.8275 19.6702 14.8275 19.6702C14.8275 19.6702 14.169 20.1125 13.8015 20.2297C13.8015 20.2297 14.8275 18.5035 13.5765 17.719C13.0014 17.3689 12.5553 18.0865 12.5553 18.0865C12.5553 18.0865 14.2485 16.2022 13.8733 14.6089C13.6938 13.8505 13.3156 13.7691 12.9675 13.8912C12.439 14.1007 12.2382 14.4091 12.2382 14.4091C11.7728 15.1571 11.4833 16.0011 11.3916 16.8772C11.2334 18.3532 11.0037 20.1386 11.0037 20.1386C11.0037 20.1386 10.6788 20.4547 10.3791 20.4722C10.0795 20.4897 10.2123 19.579 10.2123 19.579C10.2123 19.579 10.4451 18.1951 10.4286 17.9615C10.4121 17.7277 10.3956 17.6026 10.1202 17.5192C9.84473 17.4358 9.54126 17.786 9.54126 17.786C9.54126 17.786 8.74889 18.9875 8.68197 19.1707L8.64029 19.2455L8.59857 19.196C8.59857 19.196 9.15718 17.561 8.62381 17.5367C8.09039 17.5124 7.73932 18.1186 7.73932 18.1186C7.73932 18.1186 7.13034 19.1359 7.1051 19.2522L7.06342 19.2018C7.06342 19.2018 7.31846 18.0196 7.26414 17.7277C7.26015 17.6901 7.24824 17.6538 7.22917 17.6211C7.2101 17.5883 7.18433 17.5601 7.15353 17.5381C7.12274 17.5162 7.08764 17.5009 7.05054 17.4935C7.01344 17.4861 6.97518 17.4865 6.9383 17.495C6.9383 17.495 6.58821 17.4532 6.49704 17.6782C6.40587 17.9032 6.07131 19.3957 6.02963 19.8719C6.02963 19.8719 5.15678 20.4965 4.57495 20.5052C3.99307 20.5139 4.05801 20.1406 4.05801 20.1406C4.05801 20.1406 6.16731 19.4181 5.59225 17.9916C5.33329 17.6249 5.03364 17.5066 4.60787 17.5182C4.18214 17.5299 3.64976 17.786 3.30838 18.553C3.15899 18.859 3.07166 19.1917 3.0514 19.5316C3.0514 19.5316 2.68673 19.6062 2.48597 19.4394C2.28525 19.2726 2.18536 19.4394 2.18536 19.4394C2.18536 19.4394 1.84301 19.9292 2.18536 20.062C2.47062 20.1633 2.76218 20.2459 3.05817 20.3093C3.15268 20.6684 3.36727 20.9842 3.66624 21.2044C4.29174 21.6796 5.49233 21.1356 5.49233 21.1356L5.98403 20.8447C5.98403 20.8447 6.00051 21.2898 6.35935 21.3557C6.71816 21.4217 6.86848 21.3509 7.49398 19.8332C7.86056 19.0573 7.88191 19.098 7.88191 19.098L7.92359 19.0883C7.92359 19.0883 7.63946 20.5721 7.74806 20.9726C7.85671 21.3731 8.32994 21.3314 8.32994 21.3314C8.32994 21.3314 8.58887 21.4003 8.79739 20.6672C8.96156 20.1432 9.16849 19.6337 9.4161 19.1437H9.4656C9.4656 19.1437 9.29102 20.642 9.56254 21.1258C9.83413 21.6097 10.5188 21.2771 10.5188 21.2771C10.7115 21.181 10.8981 21.0728 11.0774 20.9532C11.4721 21.2554 11.9664 21.3973 12.4613 21.3509C14.2719 20.9949 14.9148 20.5119 14.9148 20.5119C15.0289 20.7575 15.2076 20.9673 15.4317 21.1192C15.6558 21.271 15.9169 21.3592 16.1872 21.3742C16.4984 21.4044 16.8123 21.3655 17.1066 21.2601C17.4009 21.1546 17.6682 20.9852 17.8891 20.7641C17.8891 20.7641 17.8804 21.2141 18.2645 21.3731C18.6485 21.5322 18.9065 20.6807 18.9065 20.6807L19.5485 18.9497H19.6066C19.6066 18.9497 19.6406 20.061 20.2739 20.2443C20.9071 20.4277 21.7286 19.7953 21.7286 19.7953C21.7286 19.7953 21.9342 19.6654 21.9002 19.3317ZM3.95908 19.4957C3.98431 18.5035 4.63798 18.0701 4.86006 18.2872C5.08213 18.5046 5.00162 18.971 4.57685 19.2629C4.15211 19.5548 3.96105 19.4957 3.96105 19.4957H3.95908ZM12.4263 15.6524C12.4263 15.6524 13.0189 14.1095 13.1605 14.86C13.302 15.6107 11.9172 17.8461 11.9172 17.8461C11.9347 17.3447 12.4263 15.6524 12.4263 15.6524ZM13.1372 19.9466C12.7493 20.9726 11.7941 20.5556 11.7941 20.5556C11.7941 20.5556 11.6864 20.188 11.9948 19.162C12.3031 18.136 13.0286 18.5375 13.0286 18.5375C13.0286 18.5375 13.5252 18.9205 13.1372 19.9466ZM15.7644 19.4957C15.7644 19.4957 15.6722 19.1707 16.0146 18.5452C16.3569 17.9197 16.6236 18.2621 16.6236 18.2621C16.6236 18.2621 16.9145 18.5792 16.5819 19.0544C16.4924 19.1901 16.3708 19.3013 16.2278 19.3783C16.0847 19.4554 15.9249 19.4957 15.7624 19.4957H15.7644Z" fill="#E24C32"/>
</g>
<defs>
<clipPath id="clip0_872_2068">
<rect width="24" height="24" fill="white"/>
</clipPath>
</defs>
</svg>
