<svg width="24" height="24" viewBox="0 0 24 24" fill="none" xmlns="http://www.w3.org/2000/svg">
<g clip-path="url(#clip0_872_2591)">
<path d="M18.375 0H5.625C2.5184 0 0 2.5184 0 5.625V18.375C0 21.4816 2.5184 24 5.625 24H18.375C21.4816 24 24 21.4816 24 18.375V5.625C24 2.5184 21.4816 0 18.375 0Z" fill="#663399"/>
<path d="M21.375 12H15.4091V13.7046H19.5C18.9034 16.2614 17.0284 18.3921 14.5568 19.2443L4.75568 9.44316C5.77841 6.46023 8.67614 4.32954 12 4.32954C14.5568 4.32954 16.8579 5.60796 18.3068 7.56818L19.5852 6.46023C17.8807 4.15909 15.1534 2.625 12 2.625C7.56818 2.625 3.81818 5.77841 2.88068 9.95456L14.1307 21.2046C18.2216 20.1818 21.375 16.4318 21.375 12ZM2.625 12.0852C2.625 14.4716 3.5625 16.7727 5.35227 18.5625C7.14204 20.3523 9.52838 21.2898 11.8296 21.2898L2.625 12.0852Z" fill="white"/>
</g>
<defs>
<clipPath id="clip0_872_2591">
<rect width="24" height="24" fill="white"/>
</clipPath>
</defs>
</svg>
