<svg width="24" height="24" viewBox="0 0 24 24" fill="none" xmlns="http://www.w3.org/2000/svg">
<g clip-path="url(#clip0_872_2351)">
<path d="M18.375 0H5.625C2.5184 0 0 2.5184 0 5.625V18.375C0 21.4816 2.5184 24 5.625 24H18.375C21.4816 24 24 21.4816 24 18.375V5.625C24 2.5184 21.4816 0 18.375 0Z" fill="#D34A47"/>
<path d="M14.4779 21.6909L14.6757 18.3935L15.2222 17.4608C15.2222 17.4608 13.9785 17.9695 11.8966 17.9695C9.8145 17.9695 8.58976 17.4701 8.58976 17.4701L9.20212 18.4876L9.41878 21.6909C9.41878 22.0343 10.5513 22.3126 11.9483 22.3126C13.3453 22.3126 14.4779 22.0343 14.4779 21.6909ZM13.8536 6.29271L14.269 4.65097L16.5691 2.2307L15.9629 1.71436L13.5278 4.29254L13.0455 6.25398C12.6825 6.24182 12.3194 6.23579 11.9562 6.23586C9.39159 6.23586 7.3125 6.52816 7.3125 6.88862C7.3125 7.24913 9.39159 7.54139 11.9562 7.54139C14.5208 7.54139 16.5999 7.24913 16.5999 6.88862C16.5999 6.62317 15.4723 6.39469 13.8536 6.29271Z" fill="white"/>
<path d="M13.6123 7.21212C13.6123 7.21212 13.5223 7.23228 13.2577 7.23341C12.993 7.23451 12.8052 7.2317 12.7303 7.16351C12.7101 7.14521 12.6991 7.10885 12.6992 7.08424C12.6994 7.03739 12.7327 7.00979 12.7751 6.9925L12.8151 7.05536C12.7978 7.06138 12.7877 7.06849 12.7877 7.07608C12.7875 7.11167 13.0584 7.13602 13.2655 7.1334C13.4726 7.13084 13.7229 7.11377 13.7231 7.0787C13.7231 7.06809 13.7042 7.0581 13.6712 7.05022L13.7112 6.98779C13.7648 7.00446 13.8117 7.03666 13.8116 7.09237C13.8111 7.18711 13.6905 7.20151 13.6123 7.21212Z" fill="white"/>
<path d="M16.5653 2.2354C16.6232 2.16861 16.5354 1.99774 16.3693 1.85382C16.2032 1.70997 16.0216 1.64748 15.9637 1.71427C15.9058 1.78107 15.9936 1.95194 16.1598 2.09579C16.3258 2.23967 16.5075 2.30224 16.5653 2.2354ZM14.368 13.6367C14.3135 13.1122 15.5152 12.3526 15.2068 12.3283C14.5429 12.3662 14.2124 13.1063 13.8784 13.8815C13.756 14.1655 13.3372 15.3769 13.0625 15.2278C12.7878 15.0787 13.4185 14.0826 13.5952 13.491C13.3912 13.6405 12.6432 14.2218 12.4505 13.6775C12.1405 13.9407 11.4783 14.0833 11.553 13.3919C11.3881 13.6839 11.0181 14.0917 10.5739 13.9222C9.99047 13.6998 10.9118 11.8416 11.141 11.9353C11.3701 12.0291 11.0947 12.4523 11.0226 12.6167C10.8639 12.9785 10.6807 13.4332 10.8032 13.5263C11.0128 13.6858 11.5835 12.923 11.5962 12.9062C11.7029 12.7652 12.0069 11.8427 12.2521 11.9486C12.4972 12.0546 11.6407 13.2726 11.961 13.5142C12.0255 13.5631 12.2898 13.4842 12.4505 13.3102C12.5544 13.1978 12.5187 12.9487 12.8653 12.122C13.212 11.2953 13.521 10.2658 13.7587 10.3443C13.9964 10.4227 13.8005 10.951 13.7152 11.148C13.3149 12.0725 12.6229 13.5998 12.9493 13.4842C13.2757 13.3686 13.4456 13.3618 13.7652 12.9878C14.0848 12.6138 14.0701 11.9977 14.2831 12.0109C14.4962 12.024 14.4605 12.2215 14.4087 12.3719C14.6184 12.132 15.4026 11.6267 15.5919 12.1271C15.8162 12.7196 14.4699 13.5755 14.8057 13.5318C15.1328 13.4892 15.663 13.1535 15.8894 12.8482L16.5125 7.24651C16.5125 7.24651 15.8855 7.76537 11.8967 7.76537C7.90782 7.76537 7.3457 7.2573 7.3457 7.2573L7.87617 12.3703C8.15773 11.5701 8.82635 9.95137 9.88031 10.0057C10.3597 10.0304 10.9997 10.9536 10.4514 10.9849C10.2194 10.998 10.1959 10.5241 9.92109 10.4544C9.72281 10.4042 9.44672 10.5654 9.26832 10.7401C8.91252 11.0883 8.14727 12.4622 8.24838 13.1471C8.37721 14.0204 9.45337 12.8437 9.63553 12.4943C9.76378 12.2482 9.8504 11.5192 10.1308 11.5957C10.4114 11.6722 10.1063 12.4246 9.90309 13.0898C9.67462 13.8368 9.55462 14.6248 9.26832 14.5343C8.98202 14.4436 9.4484 13.4793 9.43153 13.3102C9.16239 13.5586 8.66664 14.1871 8.03241 13.876L8.36185 17.0512C8.36185 17.0512 9.23744 17.7429 11.875 17.7429C14.5127 17.7429 15.4207 17.0619 15.4207 17.0619L15.8298 13.3844C15.4951 13.7103 14.4358 14.289 14.368 13.6367Z" fill="white"/>
</g>
<defs>
<clipPath id="clip0_872_2351">
<rect width="24" height="24" fill="white"/>
</clipPath>
</defs>
</svg>
