<svg width="24" height="24" viewBox="0 0 24 24" fill="none" xmlns="http://www.w3.org/2000/svg">
<g clip-path="url(#clip0_872_2430)">
<path d="M18.375 0H5.625C2.5184 0 0 2.5184 0 5.625V18.375C0 21.4816 2.5184 24 5.625 24H18.375C21.4816 24 24 21.4816 24 18.375V5.625C24 2.5184 21.4816 0 18.375 0Z" fill="url(#paint0_linear_872_2430)"/>
<path d="M7.42951 6.44438C6.49334 7.81471 6.60994 9.5974 7.32319 11.0517L7.37565 11.1553L7.41108 11.221C7.41765 11.2337 7.42526 11.2463 7.432 11.2587C7.4444 11.2817 7.45681 11.3038 7.46744 11.3265L7.53566 11.4458L7.57465 11.5114L7.65386 11.6376L7.6893 11.6907C7.72474 11.7475 7.76478 11.8038 7.80413 11.8594C7.80501 11.8608 7.80625 11.8624 7.80732 11.8638C7.81352 11.8727 7.82043 11.8815 7.82504 11.8904C7.85906 11.9382 7.89592 11.9854 7.93136 12.0322L7.9707 12.0832L8.06728 12.2041L8.10414 12.2491C8.14806 12.3021 8.19296 12.3544 8.23881 12.4058L8.24164 12.4086C8.24341 12.4108 8.24519 12.4122 8.24696 12.4144C8.29139 12.4646 8.337 12.5136 8.38377 12.5615L8.42771 12.6065L8.53705 12.7157L8.5817 12.7589C8.63084 12.806 8.68076 12.8522 8.73144 12.8977L8.75979 12.9224L8.89571 13.0394L8.95206 13.0852L9.06547 13.1738L9.12608 13.2207L9.29939 13.3474C9.30381 13.3504 9.30771 13.3536 9.31215 13.3566C9.3529 13.385 9.39421 13.4125 9.43564 13.4399L9.48917 13.4762L9.68267 13.5968L9.73621 13.6274L9.88152 13.7103C9.90805 13.7248 9.93524 13.7387 9.96177 13.7525L10.0656 13.8057L10.0895 13.8174L10.1321 13.8383L10.2968 13.9159L10.3318 13.9336C10.3954 13.9618 10.4594 13.9889 10.5239 14.0149L10.5707 14.0337L10.7519 14.1021L10.7746 14.1102C10.8415 14.1339 10.9089 14.1564 10.9766 14.1777L11.0254 14.1925C11.0962 14.2137 11.1627 14.2392 11.234 14.2527C15.7611 15.0956 17.0765 11.4837 17.0765 11.4837C15.9721 12.9492 14.0116 13.3355 12.1542 12.9055C12.0838 12.8877 12.0155 12.867 11.9468 12.8463L11.8951 12.8286C11.8281 12.8077 11.7615 12.7855 11.6956 12.7625L11.6681 12.7524C11.6091 12.7311 11.5505 12.709 11.4921 12.6859L11.4425 12.666C11.3787 12.6404 11.3153 12.6136 11.2525 12.5856L11.2146 12.5686L11.0544 12.4924L11.0084 12.4697C10.9668 12.4488 10.9254 12.4273 10.8843 12.4054L10.8016 12.3611C10.7515 12.3337 10.702 12.3054 10.6531 12.2762L10.6029 12.2478C10.5377 12.2089 10.4732 12.1681 10.4094 12.1273C10.3917 12.1158 10.3746 12.1036 10.3571 12.0919L10.2194 11.9987L10.1751 11.9668L10.0449 11.8711L9.98708 11.8268L9.86961 11.7332L9.81721 11.6907L9.67096 11.5667C9.66599 11.5622 9.66036 11.5578 9.65324 11.553C9.60121 11.5064 9.54992 11.4586 9.49949 11.4105L9.45617 11.3681L9.34563 11.2578L9.3024 11.2135C9.25634 11.1657 9.21115 11.117 9.16683 11.0675C9.16471 11.065 9.16223 11.0627 9.1601 11.0604C9.11326 11.0082 9.06742 10.9549 9.02259 10.9009L8.98662 10.8573L8.88738 10.7327L8.85106 10.6867L8.73676 10.5316C7.70542 9.09892 7.33683 7.12308 8.15907 5.50024L7.42951 6.44438ZM10.3356 5.28972C9.65877 6.28207 9.69542 7.61004 10.2235 8.65945C10.3118 8.83566 10.4119 9.00575 10.523 9.16856C10.6244 9.31653 10.7369 9.49287 10.8715 9.61156C10.9203 9.66472 10.9713 9.71787 11.0234 9.77215C11.0365 9.78575 11.05 9.79868 11.0634 9.81237C11.114 9.86253 11.1658 9.91156 11.2187 9.95928C11.2208 9.96106 11.2228 9.96312 11.225 9.9649C11.2847 10.0179 11.3455 10.0692 11.4078 10.1191L11.4489 10.1517C11.5108 10.2004 11.5741 10.2474 11.6385 10.2927C11.6402 10.2942 11.642 10.2956 11.6438 10.2969C11.6721 10.3168 11.7014 10.3358 11.7303 10.3549C11.7441 10.3642 11.7572 10.3739 11.771 10.3826C11.8173 10.4128 11.8641 10.4421 11.9116 10.4703L11.9315 10.482L12.0555 10.5529C12.07 10.5612 12.0848 10.5685 12.0997 10.5762L12.1883 10.622C12.1928 10.6243 12.1972 10.626 12.2015 10.6282C12.2612 10.6583 12.3213 10.6867 12.3828 10.7142C12.3959 10.72 12.4093 10.7253 12.4228 10.7309C12.4719 10.7522 12.5215 10.7728 12.5717 10.7924L12.6354 10.8162C12.6807 10.833 12.7262 10.8492 12.7719 10.8646L12.8335 10.8846C12.8986 10.9053 12.9629 10.9312 13.0308 10.9427C16.5261 11.5325 17.3333 8.79147 17.3333 8.79147C16.6059 9.85822 15.1973 10.3676 13.6939 9.97025C13.6274 9.95253 13.5614 9.93303 13.496 9.91175C13.4759 9.90556 13.4563 9.899 13.4364 9.89403C13.39 9.87875 13.3439 9.86253 13.298 9.84547L13.2354 9.82175C13.1853 9.80403 13.1357 9.7819 13.0866 9.76062C13.0731 9.75472 13.0596 9.74947 13.0464 9.74328C12.9847 9.71628 12.9239 9.6875 12.8639 9.65693C12.833 9.64156 12.8028 9.62543 12.7724 9.6094L12.7196 9.58184C12.6806 9.56037 12.6421 9.53825 12.6039 9.51537L12.5763 9.49765C12.5291 9.46943 12.4824 9.44037 12.4363 9.41047C12.422 9.40118 12.4083 9.39275 12.3941 9.38178L12.3034 9.32061C12.2392 9.27523 12.1763 9.22832 12.1145 9.1799L12.0719 9.14587C11.414 8.61674 10.8922 7.89375 10.6444 7.07382C10.3844 6.22324 10.4405 5.26898 10.8924 4.49442L10.3356 5.28972ZM12.7793 4.42708C12.3802 5.02533 12.3411 5.76817 12.6199 6.42879C12.9119 7.13 13.5103 7.68022 14.2086 7.94089C14.2374 7.95187 14.2663 7.96162 14.2972 7.97154L14.3356 7.98395C14.3766 7.99705 14.4176 8.0123 14.46 8.02044C16.3901 8.4002 16.9135 7.0118 17.0528 6.80748C16.5942 7.47997 15.8236 7.6414 14.878 7.40767C14.8036 7.38907 14.7212 7.3616 14.6476 7.33573C14.555 7.30224 14.4644 7.26386 14.376 7.22072C14.2077 7.1382 14.0481 7.039 13.8996 6.92461C13.0517 6.27072 12.5259 5.02356 13.0781 4.00781" fill="white"/>
<path d="M8.51517 17.1264L8.3844 17.59L8.51517 17.1265V17.1264Z" fill="white"/>
<path d="M12.3583 16.0649H11.7593C11.726 16.0649 11.693 16.0915 11.686 16.124L11.2606 18.0923C11.2536 18.1248 11.2206 18.1513 11.1875 18.1513H10.7635C10.3439 18.1513 10.3924 17.8612 10.4799 17.4637L10.4826 17.4517L10.5334 17.1806L10.5554 17.0689L10.7489 16.124C10.7556 16.0915 10.7339 16.0647 10.7006 16.0647H10.0857C10.0687 16.0653 10.0524 16.0714 10.0392 16.082C10.026 16.0927 10.0167 16.1074 10.0126 16.1239L9.7356 17.4377C9.58326 18.133 9.62367 18.7962 10.4516 18.8169L10.4755 18.8174H11.7748C11.808 18.8174 11.8409 18.7909 11.848 18.7582L12.4082 16.1239C12.4154 16.0913 12.3935 16.0647 12.3604 16.0647L12.3583 16.0649ZM14.7482 18.1582C14.7816 18.1582 14.8014 18.1848 14.7966 18.2174L14.7385 18.5018L14.7482 18.1582Z" fill="white"/>
<path d="M13.1458 17.7923C13.1453 17.761 13.1807 17.7075 13.214 17.7075L13.1392 17.7063C13.1038 18.0455 13.1458 17.7923 13.1458 17.7923ZM14.7482 18.1584C14.7816 18.1584 14.8014 18.1849 14.7966 18.2175L14.7289 18.5482L14.7482 18.1584Z" fill="white"/>
<path d="M13.6343 18.8514H13.6062H13.6378H13.6343ZM4.8275 17.7991L4.92054 17.3866L4.81422 17.858L4.80181 17.9172L4.82768 17.7989L4.8275 17.7991ZM5.94142 16.0581H5.28345C5.26645 16.0588 5.25011 16.0649 5.23681 16.0755C5.22352 16.0861 5.21397 16.1007 5.20956 16.1172L5.08481 16.6664C5.08271 16.6736 5.08236 16.6811 5.08378 16.6884C5.08521 16.6956 5.08837 16.7024 5.093 16.7083C5.09762 16.7141 5.10358 16.7187 5.11036 16.7217C5.11714 16.7247 5.12455 16.726 5.13194 16.7255H5.79505C5.82836 16.7255 5.86132 16.6989 5.86841 16.6664L5.9889 16.1159C5.99599 16.0835 5.97473 16.0569 5.94106 16.0569L5.94142 16.0581ZM3.8869 19.9323L4.4295 19.9366C4.2693 19.9366 4.00474 19.9336 3.88672 19.9322L3.8869 19.9323Z" fill="white"/>
<path d="M5.75037 16.9151H5.08709C5.07009 16.9157 5.05375 16.9218 5.04045 16.9325C5.02716 16.9431 5.01761 16.9576 5.0132 16.9741L4.82713 17.7991L4.80125 17.9175L4.62406 18.7598C4.61527 18.7991 4.60463 18.838 4.59215 18.8762C4.59215 18.8762 4.46811 19.2448 4.26007 19.2407L4.05363 19.2369C4.0367 19.2373 4.02036 19.2432 4.00698 19.2536C3.99359 19.264 3.98387 19.2783 3.97921 19.2946L3.84187 19.8728C3.8397 19.8799 3.83927 19.8874 3.8406 19.8946C3.84193 19.9019 3.845 19.9088 3.84953 19.9146C3.85406 19.9204 3.85994 19.9251 3.86666 19.9282C3.87337 19.9313 3.88073 19.9327 3.88812 19.9324L4.4309 19.9368C4.95117 19.9368 5.22531 19.6484 5.40127 18.8191L5.79998 16.9762C5.80707 16.9438 5.78545 16.9172 5.75214 16.9172L5.75037 16.9151ZM15.1709 18.8179C15.1376 18.8179 15.1178 18.7914 15.1231 18.7587L15.6219 16.4221L15.1709 18.8179Z" fill="white"/>
<path d="M15.1299 18.7882C15.1258 18.7718 15.1282 18.7319 15.1352 18.6995L15.3719 17.5902L15.1225 18.7585C15.1153 18.7911 15.137 18.8177 15.1703 18.8177H15.2309C15.1976 18.8177 15.1338 18.8044 15.1299 18.7882ZM15.8245 18.8044C15.8065 18.8115 15.7643 18.8177 15.731 18.8177H15.7915C15.8085 18.817 15.8247 18.8108 15.8379 18.8001C15.851 18.7895 15.8602 18.7747 15.8642 18.7583L15.8763 18.6992C15.8697 18.7317 15.8409 18.7971 15.8231 18.8044H15.8245ZM17.9329 16.5784L17.9604 16.6918C17.968 16.7242 17.947 16.7506 17.9138 16.7508" fill="white"/>
<path d="M16.0546 17.8196L16.0791 17.702L16.1742 17.2563L16.0665 17.7609L16.0546 17.8194V17.8196ZM15.6306 16.3835L15.6099 16.481L15.373 17.5903L15.6226 16.422L15.6306 16.3837V16.3835Z" fill="white"/>
<path d="M17.9618 16.6918L17.9344 16.5784L17.8937 16.4012C17.8398 16.192 17.6817 16.071 17.3383 16.071L15.7576 16.07C15.7406 16.0705 15.7244 16.0766 15.7112 16.0873C15.698 16.098 15.6887 16.1127 15.6846 16.1291L15.6602 16.2449L15.6247 16.4197L15.1385 18.6974C15.1313 18.73 15.1291 18.7683 15.1331 18.786C15.1372 18.8037 15.201 18.8156 15.2342 18.8156H15.7339C15.7671 18.8156 15.8091 18.8095 15.8274 18.8023C15.8457 18.795 15.8724 18.7314 15.8806 18.697L16.0702 17.7589L16.2731 16.8083C16.2801 16.7759 16.313 16.7496 16.3461 16.7494L17.9184 16.7486C17.9516 16.7486 17.9727 16.7221 17.965 16.6897L17.9618 16.6918ZM19.9861 15.6652L19.865 15.6657H19.3618C19.3433 15.6668 19.3254 15.6719 19.309 15.6805C19.2927 15.6891 19.2785 15.7011 19.2671 15.7157L18.1543 17.346C18.1355 17.3735 18.1141 17.3694 18.1065 17.3372L18.0245 16.9779C18.0201 16.9615 18.0107 16.9469 17.9974 16.9363C17.984 16.9257 17.9677 16.9196 17.9507 16.919H17.2354C17.202 16.919 17.1822 16.945 17.1914 16.9771L17.5103 18.1002C17.5195 18.1321 17.5201 18.1847 17.5121 18.2171L17.3704 18.7607C17.3679 18.7676 17.3673 18.775 17.3685 18.7823C17.3697 18.7896 17.3727 18.7965 17.3772 18.8023C17.3817 18.8081 17.3876 18.8127 17.3944 18.8157C17.4011 18.8187 17.4085 18.8199 17.4159 18.8193H18.1247C18.158 18.8193 18.1921 18.7927 18.2002 18.7608L18.342 18.2173C18.353 18.1791 18.3705 18.1429 18.3934 18.1103L20.2019 15.7122C20.222 15.6856 20.2112 15.664 20.1778 15.6643L19.9882 15.6656L19.9861 15.6652ZM14.302 17.0717C14.2978 17.1071 14.2645 17.1337 14.2311 17.1337H13.3238C13.2925 17.1337 13.2766 17.1125 13.2814 17.0858L13.282 17.0811L13.2861 17.0657C13.3747 16.8353 13.5493 16.6841 13.8808 16.6841C14.2542 16.6841 14.327 16.8666 14.3017 17.0717H14.302ZM14.0359 16.0248C12.8717 16.0248 12.5958 16.7315 12.4411 17.4447C12.2862 18.1717 12.2996 18.8517 13.5043 18.8517H13.6953L13.8424 18.8512L14.609 18.8466C14.6258 18.8458 14.6419 18.8396 14.6549 18.8289C14.6679 18.8182 14.6771 18.8036 14.681 18.7872L14.7975 18.2181C14.8042 18.1854 14.7825 18.1588 14.7491 18.1588H13.666C13.2354 18.1588 13.1074 18.0443 13.1544 17.7079H14.8858C14.9141 17.7073 14.9398 17.6901 14.9499 17.6632C14.9517 17.6585 14.9535 17.6533 14.9541 17.6481C15.2111 16.6789 15.1374 16.0255 14.0362 16.0255L14.0359 16.0248ZM8.53295 17.0678L8.51665 17.1258C8.51665 17.126 8.38588 17.5893 8.38588 17.5893L8.2551 18.0525C8.24967 18.0689 8.2394 18.0831 8.22568 18.0936C8.21194 18.1039 8.19539 18.1099 8.17819 18.1106H7.48603C6.96115 18.1106 6.83338 17.7001 6.96115 17.0946C7.08873 16.4752 7.33948 16.0901 7.85603 16.0512C8.56201 15.9981 8.70307 16.4946 8.53295 17.0676V17.0678ZM9.00751 18.0752C9.00751 18.0752 9.33357 17.2831 9.40799 16.8254C9.50895 16.2127 9.20244 15.3245 8.01782 15.3245C6.83994 15.3245 6.32852 16.1725 6.13342 17.0965C5.9385 18.025 6.19402 18.8395 7.365 18.8331L9.15228 18.8266C9.16942 18.8257 9.18588 18.8197 9.19943 18.8092C9.21298 18.7986 9.22293 18.7841 9.22795 18.7677L9.37855 18.194C9.38099 18.187 9.38164 18.1795 9.38052 18.1723C9.37939 18.165 9.37639 18.1582 9.3719 18.1523C9.36742 18.1464 9.36155 18.1418 9.35482 18.1388C9.3481 18.1358 9.34073 18.1345 9.33339 18.1351L9.04508 18.1333C9.01672 18.1331 9.00077 18.1149 9.00397 18.0908C9.00467 18.0863 9.00574 18.0819 9.00751 18.0773V18.0752Z" fill="white"/>
<path d="M14.8372 17.5454C14.8372 17.5673 14.8195 17.585 14.7976 17.585C14.7755 17.585 14.7578 17.5673 14.7578 17.5454C14.7578 17.5233 14.7755 17.5056 14.7976 17.5056C14.8195 17.5056 14.8372 17.5233 14.8372 17.5454Z" fill="white"/>
</g>
<defs>
<linearGradient id="paint0_linear_872_2430" x1="0" y1="0" x2="24" y2="24" gradientUnits="userSpaceOnUse">
<stop stop-color="#FF5C00"/>
<stop offset="1" stop-color="#FF0F00"/>
</linearGradient>
<clipPath id="clip0_872_2430">
<rect width="24" height="24" fill="white"/>
</clipPath>
</defs>
</svg>
