<svg width="24" height="24" viewBox="0 0 24 24" fill="none" xmlns="http://www.w3.org/2000/svg">
<g clip-path="url(#clip0_872_2615)">
<path d="M18.375 0H5.625C2.5184 0 0 2.5184 0 5.625V18.375C0 21.4816 2.5184 24 5.625 24H18.375C21.4816 24 24 21.4816 24 18.375V5.625C24 2.5184 21.4816 0 18.375 0Z" fill="#F4F4ED"/>
<path d="M8.25 13.875L10.125 8.25L18.5625 16.6875L15.75 21.375L12 17.625H10.125" fill="#00E8FF"/>
<path d="M12 17.625V10.125L15.75 6.375V13.875M4.5 17.625L8.25 21.375L10.125 17.625L8.25 13.875H6.375" fill="#283198"/>
<path d="M8.25 13.875V6.375L12 2.625V10.125M15.75 21.375V13.875L19.5 10.125V17.625M4.5 17.625V10.125L8.25 13.875" fill="#324FFF"/>
<path d="M8.25 21.375V13.875L12 17.625" fill="#00FFFF"/>
</g>
<defs>
<clipPath id="clip0_872_2615">
<rect width="24" height="24" fill="white"/>
</clipPath>
</defs>
</svg>
