<svg width="24" height="24" viewBox="0 0 24 24" fill="none" xmlns="http://www.w3.org/2000/svg">
<g clip-path="url(#clip0_872_2642)">
<path d="M18.375 0H5.625C2.5184 0 0 2.5184 0 5.625V18.375C0 21.4816 2.5184 24 5.625 24H18.375C21.4816 24 24 21.4816 24 18.375V5.625C24 2.5184 21.4816 0 18.375 0Z" fill="#F4F2ED"/>
<path fill-rule="evenodd" clip-rule="evenodd" d="M18.0029 14.7817C18.0772 14.739 18.1389 14.6776 18.182 14.6035C18.225 14.5295 18.2478 14.4454 18.2481 14.3598L18.2569 11.5341C18.2571 11.4485 18.2799 11.3644 18.323 11.2903C18.3659 11.2163 18.4277 11.1548 18.5019 11.1122L20.0337 10.2323C20.108 10.1897 20.1921 10.1674 20.2777 10.1675C20.3633 10.1677 20.4473 10.1903 20.5214 10.2332C20.5956 10.276 20.6571 10.3376 20.6998 10.4118C20.7426 10.4859 20.7652 10.57 20.7652 10.6557V15.7928C20.7652 15.8788 20.7425 15.9631 20.6994 16.0374C20.6564 16.1118 20.5945 16.1735 20.52 16.2162L14.7393 19.5366C14.6654 19.5789 14.5818 19.6013 14.4967 19.6013C14.4115 19.6014 14.3278 19.5792 14.2539 19.537L9.71728 16.9423C9.64256 16.8996 9.58041 16.838 9.53719 16.7635C9.49397 16.6891 9.47119 16.6045 9.47119 16.5185V13.9282C9.47119 13.9253 9.47466 13.9233 9.47756 13.9247C9.48 13.9262 9.48338 13.9247 9.48338 13.9213V13.9184C9.48338 13.9164 9.48441 13.9145 9.48638 13.9135L13.2227 11.767C13.2261 11.7651 13.2246 11.7597 13.2207 11.7597C13.2197 11.7597 13.2187 11.7593 13.2179 11.7585C13.2173 11.7578 13.2168 11.7568 13.2168 11.7558L13.2241 9.21623C13.2245 9.13035 13.2022 9.0459 13.1594 8.9714C13.1168 8.8969 13.0551 8.83499 12.9808 8.7919C12.9066 8.74882 12.8222 8.72608 12.7363 8.726C12.6504 8.72591 12.5661 8.74848 12.4917 8.79142L9.71484 10.3915C9.64069 10.4342 9.55669 10.4567 9.47119 10.4567C9.38569 10.4567 9.30165 10.4342 9.22754 10.3915L6.44189 8.78752C6.36768 8.74478 6.28353 8.72231 6.1979 8.72238C6.11226 8.72244 6.02814 8.74502 5.95399 8.78786C5.87983 8.8307 5.81825 8.89229 5.77542 8.96645C5.73259 9.0406 5.71001 9.12473 5.70997 9.21037V13.8002C5.71002 13.8858 5.6876 13.9698 5.64495 14.0439C5.60229 14.1181 5.54092 14.1798 5.46694 14.2227C5.39297 14.2658 5.309 14.2885 5.22345 14.2888C5.1379 14.2891 5.05377 14.267 4.97949 14.2245L3.43359 13.3407C3.35872 13.298 3.2965 13.2361 3.25328 13.1615C3.21005 13.0869 3.18736 13.0022 3.1875 12.9159L3.20117 4.89347C3.20136 4.80794 3.22401 4.72397 3.26685 4.64994C3.30969 4.57592 3.37122 4.51445 3.44528 4.47169C3.51935 4.42892 3.60335 4.40635 3.68888 4.40625C3.7744 4.40615 3.85845 4.42852 3.93262 4.47111L9.22803 7.51261C9.30203 7.55511 9.38588 7.57747 9.47119 7.57747C9.5565 7.57747 9.64041 7.55511 9.71438 7.51261L15.0083 4.47111C15.0826 4.42845 15.1668 4.40608 15.2524 4.40625C15.3381 4.40642 15.4222 4.42911 15.4963 4.47205C15.5704 4.51499 15.6319 4.57667 15.6746 4.6509C15.7174 4.72512 15.7398 4.80928 15.7398 4.89493V12.9193C15.7398 13.0052 15.7172 13.0896 15.6742 13.1638C15.6313 13.2382 15.5695 13.2998 15.4951 13.3427L12.7226 14.9393C12.6482 14.9823 12.5864 15.0442 12.5435 15.1186C12.5005 15.193 12.478 15.2776 12.4782 15.3636C12.4784 15.4494 12.5013 15.5338 12.5446 15.6082C12.5878 15.6824 12.65 15.7439 12.7246 15.7866L14.2539 16.6571C14.3278 16.6992 14.4114 16.7213 14.4965 16.7211C14.5815 16.7209 14.665 16.6986 14.7388 16.6562L18.0029 14.7817ZM18.3237 7.58341C18.3238 7.66976 18.3468 7.75455 18.3903 7.82913C18.4338 7.90371 18.4963 7.96541 18.5715 8.00796C18.6466 8.05049 18.7317 8.07234 18.8181 8.07127C18.9044 8.0702 18.9889 8.04625 19.063 8.00186L20.5279 7.12296C20.6002 7.07964 20.66 7.01831 20.7016 6.94498C20.7432 6.87165 20.7651 6.7888 20.7652 6.7045V4.91349C20.765 4.82718 20.7419 4.74246 20.6984 4.66794C20.6548 4.59343 20.5923 4.53179 20.5172 4.48931C20.442 4.44684 20.357 4.42503 20.2707 4.42612C20.1844 4.42721 20.0999 4.45116 20.0258 4.49552L18.561 5.37443C18.4887 5.41776 18.4288 5.47907 18.3873 5.5524C18.3457 5.62573 18.3238 5.70858 18.3237 5.79289V7.5839V7.58341Z" fill="#007FFF"/>
</g>
<defs>
<clipPath id="clip0_872_2642">
<rect width="24" height="24" fill="white"/>
</clipPath>
</defs>
</svg>
