<svg width="24" height="24" viewBox="0 0 24 24" fill="none" xmlns="http://www.w3.org/2000/svg">
<g clip-path="url(#clip0_872_2693)">
<path d="M18.375 0H5.625C2.5184 0 0 2.5184 0 5.625V18.375C0 21.4816 2.5184 24 5.625 24H18.375C21.4816 24 24 21.4816 24 18.375V5.625C24 2.5184 21.4816 0 18.375 0Z" fill="#F4F2ED"/>
<path d="M11.386 2.63005C11.3457 2.63371 11.2174 2.64655 11.1019 2.65571C8.43878 2.89581 5.94428 4.33276 4.36437 6.54134C3.4846 7.76935 2.92192 9.16231 2.70931 10.6377C2.63417 11.1528 2.625 11.3049 2.625 12.0032C2.625 12.7015 2.63417 12.8537 2.70931 13.3687C3.21884 16.8895 5.72434 19.8478 9.12244 20.9439C9.73097 21.14 10.3724 21.2738 11.1019 21.3544C11.386 21.3855 12.614 21.3855 12.8981 21.3544C14.1573 21.2151 15.224 20.9035 16.276 20.3664C16.4373 20.284 16.4685 20.262 16.4465 20.2437C16.4318 20.2327 15.7445 19.3107 14.9198 18.1964L13.4205 16.1711L11.5417 13.3907C10.5081 11.8621 9.65766 10.612 9.65025 10.612C9.64294 10.6103 9.63562 11.8456 9.63197 13.354C9.62644 15.9952 9.62466 16.1015 9.59166 16.1637C9.54403 16.2535 9.50737 16.2902 9.43031 16.3306C9.3717 16.3599 9.32038 16.3654 9.04362 16.3654H8.72654L8.64223 16.3122C8.58725 16.2774 8.54693 16.2316 8.51943 16.1784L8.48093 16.0959L8.4846 12.4211L8.4901 8.74442L8.54692 8.67294C8.57625 8.63445 8.63857 8.58496 8.68255 8.56113C8.75769 8.52447 8.78703 8.52081 9.10411 8.52081C9.47803 8.52081 9.54028 8.53547 9.6375 8.64178C9.66497 8.67111 10.6822 10.2034 11.8992 12.049C13.1162 13.8947 14.7804 16.4149 15.5978 17.652L17.0825 19.901L17.1577 19.8515C17.8229 19.4189 18.5268 18.8031 19.0839 18.1615C20.2698 16.7997 21.0341 15.1392 21.2907 13.3687C21.3658 12.8537 21.375 12.7015 21.375 12.0032C21.375 11.3049 21.3658 11.1528 21.2907 10.6377C20.7812 7.11686 18.2756 4.15864 14.8776 3.0626C14.2782 2.86832 13.6404 2.73452 12.9256 2.65388C12.7496 2.63555 11.5381 2.61538 11.386 2.63005ZM15.224 8.30087C15.3119 8.34486 15.3834 8.42917 15.4091 8.51714C15.4237 8.5648 15.4274 9.58389 15.4237 11.8804L15.4182 15.1759L14.8373 14.2851L14.2544 13.3944V10.9989C14.2544 9.45011 14.2617 8.57946 14.2727 8.53731C14.302 8.43467 14.3662 8.35403 14.4542 8.30636C14.5293 8.26788 14.5568 8.26421 14.8446 8.26421C15.1159 8.26421 15.1635 8.26788 15.224 8.30087Z" fill="black"/>
</g>
<defs>
<clipPath id="clip0_872_2693">
<rect width="24" height="24" fill="white"/>
</clipPath>
</defs>
</svg>
