<svg width="24" height="24" viewBox="0 0 24 24" fill="none" xmlns="http://www.w3.org/2000/svg">
<g clip-path="url(#clip0_872_2707)">
<path d="M18.375 0H5.625C2.5184 0 0 2.5184 0 5.625V18.375C0 21.4816 2.5184 24 5.625 24H18.375C21.4816 24 24 21.4816 24 18.375V5.625C24 2.5184 21.4816 0 18.375 0Z" fill="#F4F2ED"/>
<path d="M13.0113 17.75H19.4587C19.6634 17.7501 19.8646 17.6966 20.042 17.5951C20.2193 17.4937 20.3665 17.3477 20.4689 17.1718C20.5713 16.996 20.6251 16.7966 20.625 16.5937C20.6249 16.3907 20.5709 16.1914 20.4683 16.0157L16.1385 8.58265C16.0361 8.4069 15.8889 8.26094 15.7117 8.15947C15.5343 8.058 15.3332 8.00456 15.1284 8.00456C14.9237 8.00456 14.7226 8.058 14.5452 8.15947C14.3679 8.26094 14.2207 8.4069 14.1184 8.58265L13.0113 10.4845L10.8466 6.76549C10.7442 6.58976 10.5969 6.44382 10.4196 6.34236C10.2422 6.24092 10.041 6.1875 9.83625 6.1875C9.6315 6.1875 9.43031 6.24092 9.25296 6.34236C9.07558 6.44382 8.9283 6.58976 8.82588 6.76549L3.43785 16.0157C3.33535 16.1914 3.28134 16.3907 3.28125 16.5937C3.28117 16.7966 3.335 16.996 3.43734 17.1718C3.53969 17.3477 3.68694 17.4937 3.86429 17.5951C4.04163 17.6966 4.24282 17.7501 4.44759 17.75H8.49474C10.0983 17.75 11.2808 17.0519 12.0945 15.69L14.07 12.2992L15.1282 10.4845L18.3038 15.9353H14.07L13.0113 17.75ZM8.42876 15.9335L5.60437 15.9328L9.83813 8.66546L11.9506 12.2992L10.5362 14.7278C9.99581 15.6115 9.38194 15.9335 8.42876 15.9335Z" fill="#00DC82"/>
</g>
<defs>
<clipPath id="clip0_872_2707">
<rect width="24" height="24" fill="white"/>
</clipPath>
</defs>
</svg>
