<svg width="24" height="24" viewBox="0 0 24 24" fill="none" xmlns="http://www.w3.org/2000/svg">
<g clip-path="url(#clip0_872_2830)">
<path d="M18.375 0H5.625C2.5184 0 0 2.5184 0 5.625V18.375C0 21.4816 2.5184 24 5.625 24H18.375C21.4816 24 24 21.4816 24 18.375V5.625C24 2.5184 21.4816 0 18.375 0Z" fill="#F4F2ED"/>
<path d="M19.5811 9.37037C19.5461 8.58309 19.651 7.88528 19.3014 7.29481C18.4627 5.8276 16.3655 4.96875 12.1711 4.96875C7.97672 4.96875 5.7747 5.8276 4.93582 7.31271C4.60377 7.92106 4.63872 8.60098 4.58629 9.38831C4.55133 10.0145 4.27171 10.6765 4.39405 11.3922C4.53386 12.3227 4.58629 13.2531 4.7261 14.112C4.83096 14.8098 5.77469 15.4002 5.86207 16.0623C6.10674 17.8873 7.95925 18.7283 12.1536 18.7283V18.8714H12.0488H12.0662H12.1711V18.7283C16.3655 18.7283 18.148 17.8873 18.3752 16.0623C18.4627 15.3823 19.3364 14.8098 19.4413 14.112C19.5811 13.2531 19.6335 12.3227 19.7734 11.3922C19.8957 10.6765 19.6161 9.99666 19.5811 9.37037Z" fill="#EFCCA3"/>
<path d="M12.1014 10.0146C12.8529 10.0325 13.3771 10.5156 13.8665 10.9629C14.4432 11.4818 15.4219 11.8397 15.8239 12.287C16.2258 12.7343 16.7502 13.1816 16.9423 13.8794C17.1346 14.5773 17.187 15.4719 17.187 15.7045C17.187 15.9371 17.3094 15.8834 17.6589 15.7045C18.4803 15.293 19.389 14.1836 19.389 14.1836C19.2842 14.8814 18.3929 15.5076 18.3056 16.1697C18.0958 17.9947 16.3656 18.8715 12.0839 18.8715H12.0664H12.1713" fill="#CCAC8D"/>
<path d="M14.8612 8.61899C15.0185 9.17367 15.5777 11.0524 14.4941 10.4261C14.4941 10.4261 14.9485 10.6945 15.2282 11.7145C15.5253 12.7344 16.2418 12.8596 16.2418 12.8596C16.2418 12.8596 17.4128 13.0922 18.2865 12.3228C19.0206 11.6786 19.1429 10.5335 18.8283 9.65673C18.5138 8.79792 17.9545 8.52953 17.1331 8.3506C16.3118 8.15378 14.6689 7.99274 14.8612 8.61899Z" fill="#CCAC8D"/>
<path d="M16.5407 10.3724C16.7627 10.3724 16.9426 10.1881 16.9426 9.96088C16.9426 9.73354 16.7627 9.54932 16.5407 9.54932C16.3187 9.54932 16.1387 9.73354 16.1387 9.96088C16.1387 10.1881 16.3187 10.3724 16.5407 10.3724Z" fill="white"/>
<path d="M14.5989 10.5872C14.5989 10.5872 15.9795 11.5533 16.731 12.5017C17.4825 13.45 17.4651 13.629 17.4651 13.629L16.9233 13.8795C16.9233 13.8795 16.1543 12.3943 15.2106 11.8397C14.2493 11.2849 14.1445 10.8198 14.1445 10.8198L14.5989 10.5872Z" fill="#EFCCA3"/>
<path d="M12.1522 10.0146C11.4007 10.0325 10.8415 10.5156 10.3347 10.9629C9.75791 11.4818 8.7443 11.8397 8.34235 12.287C7.94038 12.7343 7.39861 13.1816 7.20637 13.8794C7.01413 14.5773 6.94423 15.4719 6.94423 15.7045C6.94423 15.9371 6.97918 15.955 6.47236 15.7045C5.65096 15.3109 4.74219 14.1836 4.74219 14.1836C4.84705 14.8814 5.73835 15.5076 5.82573 16.1697C6.0704 17.9947 7.80058 18.8715 12.0823 18.8715H12.0998H12.1697" fill="#CCAC8D"/>
<path d="M16.2072 13.0383C15.3683 11.9826 14.0227 10.9985 12.1526 10.9985H12.1352C10.2652 10.9985 8.91951 11.9826 8.08064 13.0383C7.20682 14.1297 7.27672 14.5592 7.27672 15.597C7.27672 19.3544 8.56998 18.2808 9.42629 18.746C10.3001 19.1934 11.2089 19.0503 12.1352 19.0503H12.1526C13.0964 19.0503 13.9877 19.1755 14.8615 18.7282C15.7178 18.2808 17.0111 19.3902 17.0111 15.6327C17.0286 14.595 17.0811 14.1297 16.2072 13.0383Z" fill="#56332B"/>
<path d="M12.0662 11.929C12.0662 11.929 11.9438 13.6645 11.6992 14.0046L12.1535 13.8971L12.0662 11.929Z" fill="#442823"/>
<path d="M12.1889 11.929C12.1889 11.929 12.3113 13.6645 12.556 14.0046L12.1016 13.8971L12.1889 11.929Z" fill="#442823"/>
<path d="M10.7205 11.5175C10.5457 11.106 11.1749 10.4439 12.1711 10.426C13.1673 10.426 13.7963 11.0881 13.6216 11.5175C13.4468 11.9469 12.8177 12.0722 12.1711 12.0901C11.5419 12.0722 10.8952 11.9469 10.7205 11.5175Z" fill="#56332B"/>
<path d="M12.2064 14.3268C12.5035 14.3268 13.0278 14.5415 13.4996 14.8814C13.0452 14.3625 12.5035 14.0046 12.2064 14.0046C11.8918 14.0046 11.2277 14.3983 10.7559 14.9709C11.2452 14.5773 11.8744 14.3268 12.2064 14.3268Z" fill="#7F4A41"/>
<path d="M12.0834 17.4937C11.4193 17.4937 10.7726 17.279 10.1784 17.1179C10.0561 17.0822 9.93372 17.1716 9.81147 17.1358C8.71042 16.778 7.81912 16.1696 7.27734 15.4002C7.27734 15.454 7.27734 15.5255 7.27734 15.5792C7.27734 19.3367 8.57061 18.281 9.42691 18.7284C10.3008 19.1756 11.2096 19.0325 12.1358 19.0325H12.1533C13.097 19.0325 13.9883 19.1577 14.8622 18.7105C15.7185 18.2631 17.0118 19.3546 17.0118 15.5971C17.0118 15.454 17.0118 15.3108 17.0292 15.1855C16.5224 16.0265 15.5961 16.6885 14.4427 17.0822C14.3378 17.1179 14.0931 17.0285 13.9883 17.0464C13.3592 17.2611 12.7999 17.4937 12.0834 17.4937Z" fill="#442823"/>
<path d="M10.4226 15.4719C10.4226 15.4719 9.98577 16.8139 10.2829 17.4043L9.88086 17.2254C9.88086 17.2254 10.178 15.8656 10.4226 15.4719Z" fill="#442823"/>
<path d="M13.8828 15.4719C13.8828 15.4719 14.3198 16.8139 14.0227 17.4043L14.4246 17.2254C14.4246 17.2254 14.1101 15.8656 13.8828 15.4719Z" fill="#442823"/>
<path d="M9.30543 8.61899C9.14815 9.17367 8.5889 11.0524 9.67241 10.4261C9.67241 10.4261 9.21805 10.6945 8.93843 11.7145C8.6588 12.7344 7.9248 12.8596 7.9248 12.8596C7.9248 12.8596 6.75387 13.0922 5.88004 12.3228C5.14603 11.6786 5.02369 10.5335 5.33827 9.65673C5.65285 8.78003 6.2121 8.52953 7.03349 8.3506C7.85489 8.15378 9.48022 7.99274 9.30543 8.61899Z" fill="#CCAC8D"/>
<path d="M12.5342 11.5271C12.609 11.5074 12.6403 11.375 12.6042 11.2315C12.5681 11.088 12.4781 10.9877 12.4033 11.0073C12.3285 11.0271 12.2972 11.1595 12.3334 11.303C12.3696 11.4466 12.4595 11.5469 12.5342 11.5271Z" fill="#331712"/>
<path d="M11.6355 11.5245C11.7092 11.548 11.8037 11.4522 11.8467 11.3106C11.8895 11.169 11.8646 11.0353 11.7908 11.0118C11.717 10.9884 11.6225 11.0842 11.5796 11.2258C11.5366 11.3673 11.5617 11.5011 11.6355 11.5245Z" fill="#331712"/>
<path d="M7.71446 10.3724C7.93645 10.3724 8.11642 10.1881 8.11642 9.96088C8.11642 9.73354 7.93645 9.54932 7.71446 9.54932C7.49246 9.54932 7.3125 9.73354 7.3125 9.96088C7.3125 10.1881 7.49246 10.3724 7.71446 10.3724Z" fill="white"/>
<path d="M12.6074 10.6764C12.6074 10.6585 12.2055 10.8554 12.1006 10.8733C11.9958 10.8554 11.5938 10.6585 11.5938 10.6764C11.5938 10.6764 11.9258 10.6764 12.1006 10.6764C12.2753 10.6764 12.6074 10.6764 12.6074 10.6764Z" fill="#7F4A41"/>
<path d="M9.54973 10.5872C9.54973 10.5872 8.16913 11.5533 7.41763 12.5017C6.66615 13.45 6.68363 13.629 6.68363 13.629L7.2254 13.8795C7.2254 13.8795 7.99437 12.3943 8.93809 11.8397C9.88179 11.2849 10.0041 10.8198 10.0041 10.8198L9.54973 10.5872Z" fill="#EFCCA3"/>
<path d="M6.52631 7.72412C6.52631 7.72412 6.05444 9.04819 5.00586 9.60289C5.00586 9.60289 6.64864 9.40601 6.52631 7.72412Z" fill="#CCAC8D"/>
<path d="M17.5534 7.72412C17.5534 7.72412 18.0252 9.04819 19.0738 9.60289C19.0738 9.60289 17.431 9.40601 17.5534 7.72412Z" fill="#CCAC8D"/>
<path d="M14.564 10.1935C14.564 10.1935 13.5328 9.08412 12.1521 9.04834C12.1347 9.04834 12.1871 9.04834 12.1697 9.04834C12.1521 9.04834 12.1871 9.04834 12.1871 9.04834C10.789 9.08412 9.77539 10.1935 9.77539 10.1935C10.9812 9.33462 12.0124 9.35252 12.1871 9.35252C12.1697 9.35252 13.358 9.33462 14.564 10.1935Z" fill="#CCAC8D"/>
<path d="M13.3591 7.86729C13.3591 7.86729 12.8349 7.1158 12.1358 7.0979H12.1532H12.1708C11.6464 7.1158 10.9648 7.86729 10.9648 7.86729C11.559 7.27683 12.1708 7.29472 12.1708 7.29472C12.1708 7.29472 12.7474 7.27683 13.3591 7.86729Z" fill="#CCAC8D"/>
<path d="M7.31131 13.3603C7.31131 13.3603 6.48992 13.7719 5.89571 13.5214H5.87824C5.35394 13.2172 5.0918 12.3047 5.0918 12.3047C5.0918 12.3047 5.61609 13.915 7.31131 13.3603Z" fill="#CCAC8D"/>
<path d="M16.8887 13.3603C16.8887 13.3603 17.71 13.7719 18.3043 13.5214C19.0033 13.2172 19.1082 12.3047 19.1082 12.3047C19.1082 12.3047 18.5839 13.915 16.8887 13.3603Z" fill="#CCAC8D"/>
<path d="M8.25586 7.63476C8.71025 7.54529 9.46172 7.52739 10.0559 7.72422C10.8074 7.99261 10.1958 8.97671 10.353 9.0304C10.5103 9.08407 10.72 8.35046 12.1181 8.42203C13.5337 8.49361 13.6911 9.13775 13.8832 9.0304C14.0755 8.92303 13.6911 7.24111 15.8057 7.63476C15.8057 7.63476 13.5862 7.0264 13.6911 8.67253C13.6911 8.67253 12.4152 7.67054 10.6327 8.56518C10.6501 8.56518 11.1045 7.0264 8.25586 7.63476Z" fill="#CCAC8D"/>
<path d="M15.998 7.63477C16.033 7.63477 16.0505 7.65637 16.068 7.65637C16.0854 7.65637 16.0505 7.63477 15.998 7.63477Z" fill="#CCAC8D"/>
<path d="M7.64406 5.43384C7.64406 5.43384 5.7566 7.86725 5.47698 8.79767C5.19735 9.74604 4.98763 13.6287 4.74297 14.1834L3.86914 10.3544L5.47698 6.36426L7.64406 5.43384Z" fill="#CCAC8D"/>
<path d="M16.5215 5.43384C16.5215 5.43384 18.409 7.86725 18.6886 8.79767C18.9683 9.74604 19.178 13.6287 19.4226 14.1834L20.2964 10.3544L18.6886 6.36426L16.5215 5.43384Z" fill="#CCAC8D"/>
<path d="M16.4358 5.43391C16.4358 5.43391 18.463 7.1695 19.0572 9.17349C19.6515 11.1775 19.4068 13.6109 19.8612 13.9151C20.5078 14.3445 21.2418 11.7858 21.4865 11.5174C21.8709 11.088 23.1468 9.99661 23.2341 9.79973C23.3215 9.60295 20.6476 6.61483 19.4766 6.02437C18.0611 5.34444 16.3134 5.29076 16.4358 5.43391Z" fill="#56332B"/>
<path d="M18.1641 6.50757C18.1641 6.50757 20.5583 9.63876 20.5234 13.5394L21.4846 11.5354C21.4672 11.5354 20.6283 8.97677 18.1641 6.50757Z" fill="#442823"/>
<path d="M7.64419 5.43391C7.64419 5.43391 5.61692 7.1695 5.02272 9.17349C4.42851 11.1775 4.67319 13.6109 4.21881 13.9151C3.57217 14.3445 2.83816 11.7858 2.59349 11.5174C2.209 11.088 0.933223 9.99661 0.845841 9.79973C0.758459 9.60295 3.43236 6.61483 4.60328 6.02437C6.01888 5.34444 7.76653 5.29076 7.64419 5.43391Z" fill="#56332B"/>
<path d="M5.91438 6.50757C5.91438 6.50757 3.52011 9.63876 3.55506 13.5394L2.61133 11.5354C2.61133 11.5354 3.4502 8.97677 5.91438 6.50757Z" fill="#442823"/>
<path d="M4.62109 13.611C4.62109 13.611 4.79585 14.5772 5.07548 14.8813C5.3551 15.1855 5.16287 14.6487 5.16287 14.6487C5.16287 14.6487 4.86576 14.4878 4.9182 13.2531C4.97062 12.0185 4.62109 13.611 4.62109 13.611Z" fill="#CCAC8D"/>
<path d="M19.5281 13.611C19.5281 13.611 19.3534 14.5772 19.0737 14.8813C18.794 15.1855 18.9863 14.6487 18.9863 14.6487C18.9863 14.6487 19.2834 14.4878 19.231 13.2531C19.1785 12.0185 19.5281 13.611 19.5281 13.611Z" fill="#CCAC8D"/>
<path d="M10.3351 13.0203C10.4123 13.0203 10.4749 12.9563 10.4749 12.8772C10.4749 12.7982 10.4123 12.7341 10.3351 12.7341C10.2578 12.7341 10.1953 12.7982 10.1953 12.8772C10.1953 12.9563 10.2578 13.0203 10.3351 13.0203Z" fill="#442823"/>
<path d="M9.53245 13.8792C9.60961 13.8792 9.67223 13.8152 9.67223 13.7362C9.67223 13.657 9.60961 13.593 9.53245 13.593C9.4552 13.593 9.39258 13.657 9.39258 13.7362C9.39258 13.8152 9.4552 13.8792 9.53245 13.8792Z" fill="#442823"/>
<path d="M9.26872 13.0203C9.34594 13.0203 9.40853 12.9563 9.40853 12.8772C9.40853 12.7982 9.34594 12.7341 9.26872 12.7341C9.1915 12.7341 9.12891 12.7982 9.12891 12.8772C9.12891 12.9563 9.1915 13.0203 9.26872 13.0203Z" fill="#442823"/>
<path d="M13.7433 13.0203C13.8205 13.0203 13.8832 12.9563 13.8832 12.8772C13.8832 12.7982 13.8205 12.7341 13.7433 12.7341C13.6661 12.7341 13.6035 12.7982 13.6035 12.8772C13.6035 12.9563 13.6661 13.0203 13.7433 13.0203Z" fill="#442823"/>
<path d="M14.548 13.8792C14.6252 13.8792 14.6879 13.8152 14.6879 13.7362C14.6879 13.657 14.6252 13.593 14.548 13.593C14.4708 13.593 14.4082 13.657 14.4082 13.7362C14.4082 13.8152 14.4708 13.8792 14.548 13.8792Z" fill="#442823"/>
<path d="M14.8097 13.0203C14.887 13.0203 14.9495 12.9563 14.9495 12.8772C14.9495 12.7982 14.887 12.7341 14.8097 12.7341C14.7325 12.7341 14.6699 12.7982 14.6699 12.8772C14.6699 12.9563 14.7325 13.0203 14.8097 13.0203Z" fill="#442823"/>
<path d="M7.40349 11.7786C8.26276 11.7786 8.95933 11.0788 8.95933 10.2156C8.95933 9.35236 8.26276 8.65259 7.40349 8.65259C6.54423 8.65259 5.84766 9.35236 5.84766 10.2156C5.84766 11.0788 6.54423 11.7786 7.40349 11.7786Z" fill="black" stroke="#242938" stroke-opacity="0.8" stroke-width="0.32"/>
<path d="M8.06935 10.1583C8.29642 10.1583 8.4805 9.97977 8.4805 9.75955C8.4805 9.53933 8.29642 9.36084 8.06935 9.36084C7.84228 9.36084 7.6582 9.53933 7.6582 9.75955C7.6582 9.97977 7.84228 10.1583 8.06935 10.1583Z" fill="white"/>
<path d="M16.8137 11.8059C17.6729 11.8059 18.3695 11.1062 18.3695 10.2429C18.3695 9.37966 17.6729 8.67993 16.8137 8.67993C15.9544 8.67993 15.2578 9.37966 15.2578 10.2429C15.2578 11.1062 15.9544 11.8059 16.8137 11.8059Z" fill="black" stroke="#242938" stroke-opacity="0.8" stroke-width="0.32"/>
<path d="M15.943 9.90556C16.0917 9.90556 16.2121 9.788 16.2121 9.64297C16.2121 9.49793 16.0917 9.38037 15.943 9.38037C15.7943 9.38037 15.6738 9.49793 15.6738 9.64297C15.6738 9.788 15.7943 9.90556 15.943 9.90556Z" fill="white"/>
<path d="M15.9971 10.1264C16.2242 10.1264 16.4082 9.94777 16.4082 9.72755C16.4082 9.50742 16.2242 9.32886 15.9971 9.32886C15.7701 9.32886 15.5859 9.50742 15.5859 9.72755C15.5859 9.94777 15.7701 10.1264 15.9971 10.1264Z" fill="white"/>
</g>
<defs>
<clipPath id="clip0_872_2830">
<rect width="24" height="24" fill="white"/>
</clipPath>
</defs>
</svg>
