<svg width="24" height="24" viewBox="0 0 24 24" fill="none" xmlns="http://www.w3.org/2000/svg">
<g clip-path="url(#clip0_872_2916)">
<path d="M18.375 0H5.625C2.5184 0 0 2.5184 0 5.625V18.375C0 21.4816 2.5184 24 5.625 24H18.375C21.4816 24 24 21.4816 24 18.375V5.625C24 2.5184 21.4816 0 18.375 0Z" fill="#F4F4ED"/>
<path d="M4.25501 14.3939C3.34199 9.53972 5.75492 4.85814 11.293 4.23535C10.5293 3.41931 9.486 3.41318 9.006 3.51244C8.15844 3.78256 8.18504 4.33102 7.22365 5.03947C6.26788 5.58537 5.78786 5.16732 5.09161 5.73323C4.39686 6.29493 4.88164 7.58435 4.59027 7.83504C4.30103 8.3364 3.4038 8.78302 3.24047 9.41625C3.1055 10.2261 3.60685 10.8046 3.58756 11.4987C3.64542 12.0772 3.01167 12.4043 3.10272 12.8732C3.37545 13.6391 3.90114 14.1002 4.14896 14.3126C4.20579 14.3527 4.26581 14.4514 4.25501 14.3939Z" fill="#FF0090"/>
<path d="M14.1087 7.67427C13.9063 7.67427 13.7423 7.51022 13.7423 7.3079C13.7423 7.10558 13.9063 6.94153 14.1087 6.94153C14.311 6.94153 14.475 7.10558 14.475 7.3079C14.475 7.51022 14.311 7.67427 14.1087 7.67427ZM4.46794 14.9233C3.59054 10.7044 6.30559 7.17936 11.5633 8.9148C14.6485 10.7196 18.5293 10.6021 18.7044 9.43544C19.1364 8.03683 16.7375 5.15468 13.1509 4.40265C6.03563 3.0143 2.19971 10.7044 4.46794 14.9233Z" fill="url(#paint0_radial_872_2916)"/>
<path d="M16.1404 15.3939C17.1969 15.5084 18.1998 15.2548 19.1292 14.4973C17.7251 16.0634 15.9695 16.8509 13.9551 17.0651C14.9168 17.8828 15.8444 18.2512 16.7317 18.0936C14.2661 18.7739 12.2003 18.025 9.68746 15.5226C9.55583 16.1962 10.2674 17.2458 11.0007 17.9158C6.74565 16.0711 6.37261 10.3245 11.5612 8.91094C6.18262 6.32677 3.14129 11.3478 4.63553 15.463C6.09756 18.6326 9.99355 21.0727 14.2635 20.536C16.3376 20.282 19.4348 18.852 20.7001 15.463C19.8083 16.2633 18.2143 16.9602 17.503 17.0137C19.9105 15.8106 21.2101 13.7661 20.8453 10.9719C20.3466 12.1591 19.6887 13.0708 18.8657 13.6971C20.6139 10.9719 20.3139 9.56326 19.0199 8.01514C19.9455 10.5605 18.7482 13.3854 16.1404 15.3939Z" fill="url(#paint1_radial_872_2916)"/>
<path d="M14.9052 18.3262C14.7225 18.2921 15.3193 18.568 14.1655 18.2626C13.0117 17.9571 11.8369 17.6628 9.6877 15.5225C9.55608 16.1961 10.2676 17.2458 11.001 17.9157C12.9807 19.2964 11.6343 18.6507 14.6507 19.6934C14.8928 19.2116 14.9052 18.7835 14.9052 18.3262Z" fill="url(#paint2_linear_872_2916)"/>
<path d="M11.0706 7.48456C11.0706 7.48456 11.3328 7.09748 11.4349 6.9229C11.56 6.70897 11.7522 6.31903 11.7522 6.31903C11.7522 6.31903 9.73346 5.66044 9.23808 5.58008C7.6981 5.97983 7.6925 6.62502 8.55347 7.61256C8.64926 7.72247 11.0706 7.48456 11.0706 7.48456Z" fill="url(#paint3_linear_872_2916)"/>
</g>
<defs>
<radialGradient id="paint0_radial_872_2916" cx="0" cy="0" r="1" gradientUnits="userSpaceOnUse" gradientTransform="translate(15.5822 8.28168) scale(13.4253 9.60375)">
<stop stop-color="#F80090"/>
<stop offset="1" stop-color="#4D008E"/>
</radialGradient>
<radialGradient id="paint1_radial_872_2916" cx="0" cy="0" r="1" gradientUnits="userSpaceOnUse" gradientTransform="translate(15.7011 8.56911) scale(13.6079 10.2938)">
<stop stop-color="#57008E"/>
<stop offset="0.291746" stop-color="#5C008E"/>
<stop offset="1" stop-color="#F80090"/>
</radialGradient>
<linearGradient id="paint2_linear_872_2916" x1="10.6263" y1="15.5225" x2="13.0318" y2="19.5678" gradientUnits="userSpaceOnUse">
<stop stop-color="#F70090"/>
<stop offset="0.669713" stop-color="#E50090"/>
<stop offset="0.827148" stop-color="#D6008F" stop-opacity="0.2"/>
<stop offset="1" stop-color="#C10090" stop-opacity="0"/>
</linearGradient>
<linearGradient id="paint3_linear_872_2916" x1="10.4271" y1="7.05524" x2="10.0781" y2="6.38667" gradientUnits="userSpaceOnUse">
<stop stop-color="#B2008F" stop-opacity="0.15134"/>
<stop offset="0.400351" stop-color="#F70090" stop-opacity="0.4"/>
<stop offset="0.648996" stop-color="#F60090" stop-opacity="0.891668"/>
<stop offset="1" stop-color="#FF0090"/>
</linearGradient>
<clipPath id="clip0_872_2916">
<rect width="24" height="24" fill="white"/>
</clipPath>
</defs>
</svg>
