<svg width="24" height="24" viewBox="0 0 24 24" fill="none" xmlns="http://www.w3.org/2000/svg">
<g clip-path="url(#clip0_872_2910)">
<path d="M18.375 0H5.625C2.5184 0 0 2.5184 0 5.625V18.375C0 21.4816 2.5184 24 5.625 24H18.375C21.4816 24 24 21.4816 24 18.375V5.625C24 2.5184 21.4816 0 18.375 0Z" fill="#F4F2ED"/>
<path d="M12.001 13.7766C12.967 13.7766 13.75 12.9935 13.75 12.0276C13.75 11.0617 12.967 10.2786 12.001 10.2786C11.035 10.2786 10.252 11.0617 10.252 12.0276C10.252 12.9935 11.035 13.7766 12.001 13.7766Z" fill="#00D8FF"/>
<path fill-rule="evenodd" clip-rule="evenodd" d="M12.0002 8.47168C14.3484 8.47168 16.5299 8.80864 18.1747 9.3749C20.1565 10.0572 21.375 11.0913 21.375 12.0278C21.375 13.0036 20.0837 14.1023 17.9555 14.8074C16.3465 15.3404 14.2293 15.6187 12.0002 15.6187C9.71475 15.6187 7.55052 15.3575 5.92344 14.8015C3.86489 14.0979 2.625 12.9851 2.625 12.0278C2.625 11.0989 3.7884 10.0727 5.74233 9.39153C7.39328 8.81593 9.62859 8.47168 11.9998 8.47168H12.0002Z" stroke="#00D8FF"/>
<path fill-rule="evenodd" clip-rule="evenodd" d="M8.90503 10.2598C10.0782 8.22564 11.4598 6.50422 12.7721 5.36223C14.3531 3.98631 15.8578 3.44745 16.6689 3.91522C17.5143 4.40272 17.8209 6.07028 17.3686 8.26605C17.0269 9.92616 16.2099 11.8992 15.0963 13.8303C13.9545 15.8101 12.6471 17.5544 11.3527 18.6858C9.71483 20.1175 8.13134 20.6357 7.30211 20.1575C6.49745 19.6938 6.18975 18.1731 6.57576 16.1401C6.90191 14.4223 7.7204 12.314 8.90464 10.2598H8.90503Z" stroke="#00D8FF"/>
<path fill-rule="evenodd" clip-rule="evenodd" d="M8.90696 13.8355C7.73049 11.8036 6.9295 9.7465 6.59516 8.03929C6.1927 5.98234 6.47725 4.40964 7.28769 3.94052C8.13223 3.45159 9.73006 4.01875 11.4065 5.50729C12.674 6.63268 13.9755 8.32555 15.0924 10.2547C16.2374 12.2327 17.0956 14.2366 17.4295 15.9229C17.8519 18.0571 17.51 19.6877 16.6815 20.1672C15.8777 20.6326 14.4067 20.1399 12.8382 18.7901C11.5129 17.6497 10.095 15.8877 8.90696 13.8355Z" stroke="#00D8FF"/>
</g>
<defs>
<clipPath id="clip0_872_2910">
<rect width="24" height="24" fill="white"/>
</clipPath>
</defs>
</svg>
