<svg width="24" height="24" viewBox="0 0 24 24" fill="none" xmlns="http://www.w3.org/2000/svg">
<g clip-path="url(#clip0_872_2939)">
<path d="M18.375 0H5.625C2.5184 0 0 2.5184 0 5.625V18.375C0 21.4816 2.5184 24 5.625 24H18.375C21.4816 24 24 21.4816 24 18.375V5.625C24 2.5184 21.4816 0 18.375 0Z" fill="#764ABC"/>
<path d="M15.6168 15.525C16.3087 15.4534 16.8337 14.8569 16.8097 14.1411C16.7859 13.4253 16.1894 12.8527 15.4736 12.8527H15.4259C14.6862 12.8765 14.1136 13.4968 14.1374 14.2365C14.1613 14.5944 14.3045 14.9046 14.5192 15.1194C13.7079 16.718 12.4672 17.8871 10.6061 18.8654C9.34155 19.5335 8.02924 19.7721 6.71692 19.6051C5.64322 19.4619 4.80812 18.9847 4.28319 18.1974C3.51966 17.0282 3.44809 15.7636 4.09231 14.499C4.54565 13.5923 5.26145 12.9242 5.7148 12.5902C5.61936 12.28 5.4762 11.755 5.40462 11.3733C1.9449 13.8787 2.3028 17.2668 3.35264 18.8654C4.14003 20.0584 5.73866 20.7981 7.50431 20.7981C7.98152 20.7981 8.45872 20.7504 8.93592 20.631C11.9901 20.0346 14.3045 18.2212 15.6168 15.525Z" fill="white"/>
<path d="M19.8163 12.5662C18.003 10.4425 15.3306 9.27343 12.2765 9.27343H11.8948C11.68 8.84394 11.2266 8.55762 10.7256 8.55762H10.6779C9.9382 8.58148 9.36555 9.20185 9.38939 9.94154C9.4133 10.6573 10.0097 11.2299 10.7256 11.2299H10.7733C11.2982 11.2061 11.7516 10.8721 11.9425 10.4187H12.372C14.1853 10.4187 15.9032 10.9436 17.4541 11.9696C18.6471 12.757 19.5061 13.783 19.9833 15.0237C20.389 16.0258 20.3651 17.0041 19.9356 17.8392C19.2675 19.1038 18.1461 19.7958 16.6667 19.7958C15.7124 19.7958 14.8057 19.5095 14.3284 19.2947C14.066 19.5333 13.5888 19.915 13.2548 20.1536C14.2807 20.6308 15.3306 20.8933 16.3327 20.8933C18.6233 20.8933 20.3174 19.6287 20.9616 18.3641C21.6536 16.9803 21.6059 14.5943 19.8163 12.5662Z" fill="white"/>
<path d="M7.69602 15.9306C7.71987 16.6463 8.31638 17.219 9.03219 17.219H9.07991C9.81953 17.1951 10.3922 16.5747 10.3683 15.835C10.3445 15.1193 9.748 14.5466 9.03219 14.5466H8.98446C8.93674 14.5466 8.86516 14.5466 8.81744 14.5705C7.83917 12.948 7.43355 11.1823 7.57671 9.27354C7.67216 7.84193 8.14935 6.60119 8.98446 5.57521C9.67637 4.69238 11.0126 4.2629 11.9192 4.23904C14.4484 4.19132 15.5222 7.34086 15.5937 8.60545C15.9039 8.67703 16.4288 8.84405 16.7867 8.96335C16.5004 5.098 14.1144 3.09375 11.8238 3.09375C9.67637 3.09375 7.69602 4.64466 6.90863 6.93524C5.81106 9.98934 6.52687 12.9241 7.86303 15.2386C7.74373 15.4056 7.67216 15.6681 7.69602 15.9306Z" fill="white"/>
</g>
<defs>
<clipPath id="clip0_872_2939">
<rect width="24" height="24" fill="white"/>
</clipPath>
</defs>
</svg>
