<svg width="24" height="24" viewBox="0 0 24 24" fill="none" xmlns="http://www.w3.org/2000/svg">
<g clip-path="url(#clip0_872_2947)">
<path d="M18.375 0H5.625C2.5184 0 0 2.5184 0 5.625V18.375C0 21.4816 2.5184 24 5.625 24H18.375C21.4816 24 24 21.4816 24 18.375V5.625C24 2.5184 21.4816 0 18.375 0Z" fill="#F4F2ED"/>
<path fill-rule="evenodd" clip-rule="evenodd" d="M17.6165 15.8181C17.7441 17.4576 17.7441 18.2261 17.7441 19.065H13.9508C13.9508 18.8823 13.9541 18.7151 13.9574 18.5456C13.9677 18.0187 13.9784 17.4692 13.893 16.3596C13.7802 14.735 13.0806 14.374 11.7943 14.374H10.6546H5.82812V11.4183H11.9748C13.5996 11.4183 14.412 10.924 14.412 9.61538C14.412 8.46462 13.5996 7.7673 11.9748 7.7673H5.82812V4.875H12.6518C16.3302 4.875 18.1581 6.61236 18.1581 9.38756C18.1581 11.4634 16.8719 12.8171 15.1341 13.0428C16.601 13.3361 17.4585 14.171 17.6165 15.8181Z" fill="black"/>
<path fill-rule="evenodd" clip-rule="evenodd" d="M17.6165 15.8181C17.7441 17.4576 17.7441 18.2261 17.7441 19.065H13.9508C13.9508 18.8823 13.9541 18.7151 13.9574 18.5456C13.9677 18.0187 13.9784 17.4692 13.893 16.3596C13.7802 14.735 13.0806 14.374 11.7943 14.374H10.6546H5.82812V11.4183H11.9748C13.5996 11.4183 14.412 10.924 14.412 9.61538C14.412 8.46462 13.5996 7.7673 11.9748 7.7673H5.82812V4.875H12.6518C16.3302 4.875 18.1581 6.61236 18.1581 9.38756C18.1581 11.4634 16.8719 12.8171 15.1341 13.0428C16.601 13.3361 17.4585 14.171 17.6165 15.8181Z" fill="black"/>
<path d="M5.82812 19.065V16.8616H9.83901C10.509 16.8616 10.6544 17.3584 10.6544 17.6548V19.065H5.82812Z" fill="black"/>
<path d="M5.8125 19.0651V19.0801H5.8275H10.6538H10.6688V19.0651V17.6549C10.6688 17.5047 10.6321 17.3029 10.5094 17.1381C10.3862 16.9727 10.1776 16.8467 9.83841 16.8467H5.8275H5.8125V16.8617V19.0651Z" fill="black" stroke="white" stroke-opacity="0.8" stroke-width="0.32"/>
</g>
<defs>
<clipPath id="clip0_872_2947">
<rect width="24" height="24" fill="white"/>
</clipPath>
</defs>
</svg>
