<svg width="24" height="24" viewBox="0 0 24 24" fill="none" xmlns="http://www.w3.org/2000/svg">
<g clip-path="url(#clip0_872_2968)">
<path d="M18.375 0H5.625C2.5184 0 0 2.5184 0 5.625V18.375C0 21.4816 2.5184 24 5.625 24H18.375C21.4816 24 24 21.4816 24 18.375V5.625C24 2.5184 21.4816 0 18.375 0Z" fill="#F4F2ED"/>
<path d="M19.0969 8.84053C19.0969 7.74366 18.8062 6.72178 18.3094 5.83116C16.9687 4.45303 14.0625 4.13428 13.3406 5.82178C12.6 7.55616 14.5875 9.47803 15.4594 9.32803C16.5656 9.13116 15.2625 6.59991 15.2625 6.59991C16.95 9.78741 16.5656 8.81241 13.5094 11.7374C10.4531 14.6624 7.32187 20.8405 6.8625 21.103C6.84375 21.1124 6.825 21.1218 6.79688 21.1312H18.7875C19.0031 21.1312 19.1344 20.9062 19.0406 20.7187L15.9094 14.5124C15.8437 14.3812 15.8906 14.2124 16.0219 14.1374C17.8594 13.0874 19.0969 11.1093 19.0969 8.84053Z" fill="url(#paint0_linear_872_2968)"/>
<path d="M19.0969 8.84053C19.0969 7.74366 18.8062 6.72178 18.3094 5.83116C16.9687 4.45303 14.0625 4.13428 13.3406 5.82178C12.6 7.55616 14.5875 9.47803 15.4594 9.32803C16.5656 9.13116 15.2625 6.59991 15.2625 6.59991C16.95 9.78741 16.5656 8.81241 13.5094 11.7374C10.4531 14.6624 7.32187 20.8405 6.8625 21.103C6.84375 21.1124 6.825 21.1218 6.79688 21.1312H18.7875C19.0031 21.1312 19.1344 20.9062 19.0406 20.7187L15.9094 14.5124C15.8437 14.3812 15.8906 14.2124 16.0219 14.1374C17.8594 13.0874 19.0969 11.1093 19.0969 8.84053Z" fill="url(#paint1_linear_872_2968)"/>
<path d="M6.86328 21.1032C7.32266 20.8407 10.4445 14.6626 13.5008 11.7376C16.557 8.8126 16.9508 9.78761 15.2539 6.6001C15.2539 6.6001 8.78516 15.6751 6.44141 20.1657" fill="url(#paint2_linear_872_2968)"/>
<path d="M7.77305 12.9656C12.1418 4.93125 12.7137 4.11563 14.9918 4.11563C16.1918 4.11563 17.3918 4.65938 18.1793 5.61563C17.1199 3.9 15.2356 2.75625 13.0793 2.71875H5.6543C5.49492 2.71875 5.37305 2.85 5.37305 3V17.9719C5.81367 16.8375 6.56367 15.2063 7.77305 12.9656Z" fill="url(#paint3_linear_872_2968)"/>
<path d="M13.5015 11.7375C10.4453 14.6625 7.32341 20.8406 6.86403 21.1031C6.40466 21.3656 5.64528 21.3937 5.24216 20.9437C4.81091 20.4562 4.13591 19.6781 7.78278 12.975C12.1515 4.94062 12.7234 4.125 15.0015 4.125C16.2015 4.125 17.4015 4.66875 18.189 5.625C18.2359 5.69062 18.2734 5.76562 18.3203 5.84062C16.9797 4.4625 14.0734 4.14375 13.3515 5.83125C12.6109 7.56563 14.5984 9.4875 15.4703 9.3375C16.5765 9.14062 15.2734 6.60938 15.2734 6.60938C16.9515 9.77812 16.5578 8.80312 13.5015 11.7375Z" fill="url(#paint4_linear_872_2968)"/>
<path opacity="0.3" d="M8.12888 13.3312C12.4976 5.29688 13.0695 4.48125 15.3476 4.48125C16.332 4.48125 17.3258 4.84687 18.0758 5.5125C17.2976 4.62187 16.1351 4.125 14.982 4.125C12.7039 4.125 12.132 4.93125 7.76325 12.975C4.11638 19.6781 4.79138 20.4562 5.22263 20.9437C5.28825 21.0094 5.35388 21.075 5.42888 21.1219C5.06325 20.5594 4.8945 19.275 8.12888 13.3312Z" fill="url(#paint5_linear_872_2968)"/>
</g>
<defs>
<linearGradient id="paint0_linear_872_2968" x1="10.0982" y1="12.6146" x2="15.1072" y2="13.7856" gradientUnits="userSpaceOnUse">
<stop stop-color="#FF6533"/>
<stop offset="0.157" stop-color="#FF5633"/>
<stop offset="0.434" stop-color="#FF4333"/>
<stop offset="0.714" stop-color="#FF3733"/>
<stop offset="1" stop-color="#FF3333"/>
</linearGradient>
<linearGradient id="paint1_linear_872_2968" x1="9.31428" y1="10.9543" x2="18.2916" y2="17.915" gradientUnits="userSpaceOnUse">
<stop stop-color="#BF3338"/>
<stop offset="1" stop-color="#FF3333"/>
</linearGradient>
<linearGradient id="paint2_linear_872_2968" x1="9.60856" y1="12.3249" x2="10.9096" y2="13.691" gradientUnits="userSpaceOnUse">
<stop stop-color="#FF6533"/>
<stop offset="0.157" stop-color="#FF5633"/>
<stop offset="0.434" stop-color="#FF4333"/>
<stop offset="0.714" stop-color="#FF3733"/>
<stop offset="1" stop-color="#FF3333"/>
</linearGradient>
<linearGradient id="paint3_linear_872_2968" x1="11.9747" y1="14.6765" x2="11.5843" y2="9.08192" gradientUnits="userSpaceOnUse">
<stop stop-color="#FF6533"/>
<stop offset="0.157" stop-color="#FF5633"/>
<stop offset="0.434" stop-color="#FF4333"/>
<stop offset="0.714" stop-color="#FF3733"/>
<stop offset="1" stop-color="#FF3333"/>
</linearGradient>
<linearGradient id="paint4_linear_872_2968" x1="10.2838" y1="12.2289" x2="12.1319" y2="13.4857" gradientUnits="userSpaceOnUse">
<stop stop-color="#FBB040"/>
<stop offset="1" stop-color="#FB8840"/>
</linearGradient>
<linearGradient id="paint5_linear_872_2968" x1="12.1766" y1="5.12355" x2="10.2901" y2="25.8753" gradientUnits="userSpaceOnUse">
<stop stop-color="white"/>
<stop offset="1" stop-color="white" stop-opacity="0"/>
</linearGradient>
<clipPath id="clip0_872_2968">
<rect width="24" height="24" fill="white"/>
</clipPath>
</defs>
</svg>
