<svg width="24" height="24" viewBox="0 0 24 24" fill="none" xmlns="http://www.w3.org/2000/svg">
<g clip-path="url(#clip0_872_3014)">
<path d="M18.375 0H5.625C2.5184 0 0 2.5184 0 5.625V18.375C0 21.4816 2.5184 24 5.625 24H18.375C21.4816 24 24 21.4816 24 18.375V5.625C24 2.5184 21.4816 0 18.375 0Z" fill="#CD6799"/>
<mask id="mask0_872_3014" style="mask-type:luminance" maskUnits="userSpaceOnUse" x="2" y="4" width="20" height="16">
<path d="M21.375 4.96875H2.625V19.0227H21.375V4.96875Z" fill="white"/>
</mask>
<g mask="url(#mask0_872_3014)">
<path d="M18.759 13.0452C18.1052 13.0486 17.537 13.2061 17.0613 13.4388C16.8867 13.0931 16.7121 12.7851 16.6813 12.5591C16.6471 12.2956 16.606 12.1347 16.6471 11.8198C16.6881 11.5049 16.873 11.0566 16.8695 11.0224C16.8662 10.9881 16.8285 10.8273 16.452 10.8238C16.0755 10.8205 15.7503 10.8957 15.7127 10.995C15.675 11.0942 15.6032 11.3201 15.5553 11.5529C15.4902 11.8952 14.8022 13.1171 14.4086 13.7572C14.2819 13.5073 14.1724 13.2882 14.1484 13.1137C14.1142 12.8501 14.0732 12.6893 14.1142 12.3744C14.1553 12.0595 14.3402 11.6111 14.3367 11.5768C14.3333 11.5426 14.2956 11.3817 13.9191 11.3784C13.5426 11.3749 13.2174 11.4502 13.1798 11.5495C13.1421 11.6487 13.1011 11.8815 13.0223 12.1074C12.9437 12.3333 12.0298 14.3733 11.7902 14.9004C11.667 15.1707 11.5608 15.3864 11.4856 15.5336C11.4856 15.5336 11.4821 15.5439 11.4719 15.5609C11.4068 15.6876 11.3691 15.756 11.3691 15.756C11.3691 15.756 11.3691 15.756 11.3691 15.7595C11.3178 15.8519 11.263 15.9374 11.2356 15.9374C11.2151 15.9374 11.1775 15.6911 11.2425 15.3556C11.3794 14.6471 11.7046 13.5449 11.7012 13.5073C11.7012 13.4868 11.7628 13.2951 11.4889 13.1958C11.2219 13.0965 11.1261 13.2609 11.1021 13.2609C11.0782 13.2609 11.0611 13.3191 11.0611 13.3191C11.0611 13.3191 11.3589 12.08 10.4929 12.08C9.9521 12.08 9.20595 12.6721 8.83629 13.2061C8.60354 13.3328 8.10724 13.6031 7.57671 13.8941C7.37477 14.007 7.16598 14.12 6.97087 14.2261C6.95719 14.2124 6.9435 14.1953 6.9298 14.1816C5.88244 13.0623 3.94514 12.2717 4.02728 10.7691C4.05809 10.2214 4.24634 8.78386 7.74785 7.03824C10.6298 5.61778 12.9231 6.0114 13.3202 6.88422C13.8883 8.13011 12.0914 10.4439 9.11354 10.7793C7.97718 10.906 7.38161 10.4679 7.23101 10.3036C7.07356 10.1324 7.04961 10.1222 6.99142 10.1564C6.89558 10.2077 6.95719 10.3617 6.99142 10.4507C7.0804 10.6835 7.44665 11.0942 8.06616 11.2961C8.61382 11.4742 9.94525 11.5735 11.5574 10.9505C13.3612 10.2522 14.7714 8.31151 14.3572 6.68569C13.9431 5.03592 11.2049 4.49169 8.61381 5.41242C7.07356 5.96007 5.40324 6.8226 4.20185 7.94528C2.77455 9.28017 2.54864 10.4405 2.64106 10.9265C2.97307 12.6516 5.35191 13.7742 6.30343 14.606C6.25552 14.6334 6.21102 14.6574 6.17337 14.6779C5.6976 14.9141 3.88353 15.8621 3.43172 16.8651C2.91831 18.0014 3.51387 18.816 3.90749 18.9255C5.12942 19.2644 6.38558 18.6551 7.05987 17.6488C7.73416 16.6425 7.65202 15.3351 7.34054 14.7361C7.33712 14.7293 7.3337 14.7224 7.32684 14.7156C7.45007 14.6437 7.57671 14.5684 7.69993 14.4965C7.94295 14.3528 8.18254 14.2193 8.38791 14.1097C8.27153 14.4281 8.18597 14.8079 8.14489 15.3556C8.09355 15.9991 8.3571 16.8342 8.7028 17.1628C8.85683 17.3066 9.03824 17.31 9.15461 17.31C9.55853 17.31 9.73994 16.9746 9.94188 16.5776C10.1883 16.0915 10.4108 15.5267 10.4108 15.5267C10.4108 15.5267 10.1335 17.0533 10.8865 17.0533C11.1603 17.0533 11.4376 16.6974 11.5608 16.516C11.5608 16.5193 11.5608 16.5193 11.5608 16.5193C11.5608 16.5193 11.5677 16.5091 11.5814 16.4851C11.6088 16.4406 11.6258 16.4132 11.6258 16.4132C11.6258 16.4132 11.6258 16.4098 11.6258 16.4064C11.7354 16.2147 11.9818 15.78 12.3481 15.0578C12.8204 14.1268 13.2756 12.9631 13.2756 12.9631C13.2756 12.9631 13.3167 13.2472 13.457 13.7195C13.5392 13.9968 13.7103 14.3014 13.8472 14.5958C13.7377 14.7498 13.6693 14.8353 13.6693 14.8353C13.6693 14.8353 13.6693 14.8353 13.6727 14.8388C13.5837 14.9551 13.4879 15.0818 13.3818 15.205C13.0086 15.65 12.5637 16.16 12.5021 16.3072C12.4302 16.4817 12.4473 16.6083 12.5842 16.7111C12.6835 16.7863 12.8614 16.7966 13.0428 16.7863C13.3783 16.7623 13.6145 16.6802 13.7309 16.6288C13.9123 16.5639 14.1245 16.4646 14.323 16.3174C14.6893 16.047 14.9118 15.6602 14.8912 15.1502C14.8809 14.8695 14.7885 14.5889 14.6756 14.3253C14.7098 14.2774 14.7406 14.2295 14.7748 14.1816C15.3533 13.3361 15.8016 12.4086 15.8016 12.4086C15.8016 12.4086 15.8427 12.6926 15.983 13.1651C16.0515 13.4046 16.1918 13.6647 16.3151 13.9181C15.7709 14.3596 15.4354 14.873 15.3156 15.2084C15.1 15.8314 15.2677 16.112 15.586 16.1771C15.7298 16.2079 15.9351 16.1395 16.0858 16.0744C16.2774 16.0128 16.5033 15.9067 16.719 15.7492C17.0852 15.4788 17.4378 15.1023 17.4172 14.5923C17.4069 14.3596 17.3453 14.1302 17.2597 13.9077C17.7218 13.7161 18.3174 13.61 19.0773 13.699C20.7065 13.8907 21.0283 14.9072 20.9666 15.3351C20.905 15.7629 20.5627 15.9956 20.4498 16.0676C20.3369 16.1395 20.2992 16.1634 20.3095 16.2147C20.3232 16.29 20.3779 16.2866 20.4738 16.2729C20.6073 16.249 21.3294 15.9272 21.3603 15.14C21.4116 14.1337 20.4532 13.0349 18.759 13.0452ZM6.19048 17.2826C5.64968 17.8713 4.89667 18.0939 4.57151 17.9056C4.22239 17.7036 4.3593 16.8342 5.02331 16.2113C5.42721 15.8314 5.94746 15.4788 6.29316 15.2632C6.37189 15.2153 6.48827 15.1468 6.6286 15.0612C6.65256 15.0476 6.66625 15.0407 6.66625 15.0407C6.69363 15.0236 6.72101 15.0065 6.7484 14.9893C6.99142 15.8793 6.75866 16.6631 6.19048 17.2826ZM10.1267 14.606C9.93841 15.0647 9.54485 16.2386 9.30521 16.1737C9.09984 16.1188 8.97321 15.229 9.26414 14.3493C9.41135 13.9077 9.72278 13.3807 9.90419 13.1753C10.1986 12.8467 10.5237 12.7372 10.6024 12.8707C10.7017 13.0452 10.2431 14.3185 10.1267 14.606ZM13.3749 16.16C13.2962 16.2011 13.2209 16.2284 13.1867 16.2079C13.1627 16.1942 13.2209 16.1395 13.2209 16.1395C13.2209 16.1395 13.6282 15.7013 13.7891 15.5028C13.8814 15.3864 13.991 15.2495 14.1074 15.0955C14.1074 15.1091 14.1074 15.1263 14.1074 15.14C14.1074 15.6637 13.6008 16.0162 13.3749 16.16ZM15.8804 15.5883C15.8222 15.5472 15.8325 15.4104 16.0276 14.9825C16.1028 14.8148 16.2809 14.5342 16.5855 14.2637C16.6197 14.3733 16.6437 14.4793 16.6402 14.5786C16.6368 15.2393 16.1644 15.4856 15.8804 15.5883Z" fill="white"/>
</g>
</g>
<defs>
<clipPath id="clip0_872_3014">
<rect width="24" height="24" fill="white"/>
</clipPath>
</defs>
</svg>
