<svg width="24" height="24" viewBox="0 0 24 24" fill="none" xmlns="http://www.w3.org/2000/svg">
<g clip-path="url(#clip0_872_3079)">
<path d="M18.375 0H5.625C2.5184 0 0 2.5184 0 5.625V18.375C0 21.4816 2.5184 24 5.625 24H18.375C21.4816 24 24 21.4816 24 18.375V5.625C24 2.5184 21.4816 0 18.375 0Z" fill="#F4F2ED"/>
<path d="M21.0003 7.20513C21.0003 7.20513 15.0003 2.79003 10.3589 3.8089L10.0192 3.9221C9.33995 4.14852 8.77391 4.48814 8.43429 4.94097L8.20788 5.2806L6.50977 8.22399L9.45314 8.79003C10.6984 9.58247 12.2834 9.92212 13.755 9.58247L18.9626 10.6013L21.0003 7.20513Z" fill="#76B3E1"/>
<path opacity="0.3" d="M21.0003 7.20513C21.0003 7.20513 15.0003 2.79003 10.3589 3.8089L10.0192 3.9221C9.33995 4.14852 8.77391 4.48814 8.43429 4.94097L8.20788 5.2806L6.50977 8.22399L9.45314 8.79003C10.6984 9.58247 12.2834 9.92212 13.755 9.58247L18.9626 10.6013L21.0003 7.20513Z" fill="url(#paint0_linear_872_3079)"/>
<path d="M8.43333 7.20514L7.9805 7.31835C6.05597 7.88438 5.48992 9.69567 6.5088 11.2806C7.64087 12.7523 10.0182 13.5448 11.9427 12.9787L18.9616 10.6014C18.9616 10.6014 12.9616 6.18627 8.43333 7.20514Z" fill="#518AC8"/>
<path opacity="0.3" d="M8.43333 7.20514L7.9805 7.31835C6.05597 7.88438 5.48992 9.69567 6.5088 11.2806C7.64087 12.7523 10.0182 13.5448 11.9427 12.9787L18.9616 10.6014C18.9616 10.6014 12.9616 6.18627 8.43333 7.20514Z" fill="url(#paint1_linear_872_3079)"/>
<path d="M17.717 12.2995C17.0831 11.5077 16.2275 10.9231 15.2593 10.6206C14.2913 10.318 13.2549 10.3114 12.283 10.6014L5.26415 12.8656L3 16.8278L15.6792 18.9787L17.9434 14.9033C18.3962 14.1109 18.283 13.2052 17.717 12.2995Z" fill="url(#paint2_linear_872_3079)"/>
<path d="M15.4528 16.2617C14.8191 15.4699 13.9633 14.8853 12.9952 14.5827C12.0271 14.2802 10.9908 14.2735 10.0189 14.5636L3 16.8278C3 16.8278 9 21.3561 13.6415 20.2239L13.9811 20.1108C15.9056 19.5447 16.5849 17.7334 15.4528 16.2617Z" fill="url(#paint3_linear_872_3079)"/>
</g>
<defs>
<linearGradient id="paint0_linear_872_3079" x1="5.66071" y1="3.58248" x2="19.755" y2="10.4316" gradientUnits="userSpaceOnUse">
<stop offset="0.1" stop-color="#76B3E1"/>
<stop offset="0.3" stop-color="#DCF2FD"/>
<stop offset="1" stop-color="#76B3E1"/>
</linearGradient>
<linearGradient id="paint1_linear_872_3079" x1="13.3918" y1="6.93344" x2="10.9239" y2="15.1523" gradientUnits="userSpaceOnUse">
<stop stop-color="#76B3E1"/>
<stop offset="0.5" stop-color="#4377BB"/>
<stop offset="1" stop-color="#1F3B77"/>
</linearGradient>
<linearGradient id="paint2_linear_872_3079" x1="4.63019" y1="10.5109" x2="18.883" y2="20.2014" gradientUnits="userSpaceOnUse">
<stop stop-color="#315AA9"/>
<stop offset="0.5" stop-color="#518AC8"/>
<stop offset="1" stop-color="#315AA9"/>
</linearGradient>
<linearGradient id="paint3_linear_872_3079" x1="11.0603" y1="11.6768" x2="5.30943" y2="32.7674" gradientUnits="userSpaceOnUse">
<stop stop-color="#4377BB"/>
<stop offset="0.5" stop-color="#1A336B"/>
<stop offset="1" stop-color="#1A336B"/>
</linearGradient>
<clipPath id="clip0_872_3079">
<rect width="24" height="24" fill="white"/>
</clipPath>
</defs>
</svg>
