<svg width="24" height="24" viewBox="0 0 24 24" fill="none" xmlns="http://www.w3.org/2000/svg">
<g clip-path="url(#clip0_872_3103)">
<path d="M18.375 0H5.625C2.5184 0 0 2.5184 0 5.625V18.375C0 21.4816 2.5184 24 5.625 24H18.375C21.4816 24 24 21.4816 24 18.375V5.625C24 2.5184 21.4816 0 18.375 0Z" fill="url(#paint0_linear_872_3103)"/>
<path d="M1.0777 12.1012L5.7937 14.0122V15.3499L0.210938 12.7633V11.9784L1.0777 12.1012ZM5.7937 10.5316L1.08453 12.4698L0.210938 12.5654V11.7737L5.7937 9.19385V10.5316Z" fill="white"/>
<path d="M22.6279 12.3742L17.7754 10.4837V9.18018L23.6038 11.76V12.5585L22.6279 12.3742ZM17.7754 14.0395L22.6416 12.108L23.6038 11.9647V12.7564L17.7754 15.3431V14.0395Z" fill="white"/>
<path fill-rule="evenodd" clip-rule="evenodd" d="M16.5078 5.72802C16.4808 6.15611 16.288 6.60313 16.3417 7.01929C16.6786 7.61491 17.4199 7.70994 18.0316 7.75077C18.4553 7.82648 18.45 7.54592 18.4216 7.23071C18.4232 6.72686 18.4249 6.22301 18.4267 5.71916C17.7871 5.72146 17.1472 5.71281 16.5078 5.72802ZM11.464 6.92529C10.4226 7.10199 9.36701 7.59963 8.50067 8.19872C7.80334 8.74141 9.09927 9.26737 9.5694 9.35529C10.5153 9.36682 11.3543 8.72882 11.9757 8.06651C12.1786 7.78802 12.432 7.36179 12.1771 7.03908C11.9824 6.8703 11.6994 6.91125 11.464 6.92529ZM13.68 8.43977C12.8237 8.6028 12.0091 8.95574 11.2882 9.44709C10.7597 9.61303 10.3242 10.1932 10.979 10.484C11.6667 11.0319 12.4636 10.8977 13.0969 10.5277C13.6769 10.183 14.3033 9.75769 14.5716 9.10877C14.825 8.39787 14.1712 8.37147 13.68 8.43977ZM16.1089 11.1944C15.9495 11.8604 15.2788 12.1632 14.922 12.6909C14.6302 13.0759 14.7653 13.5293 15.0975 13.8323C15.2592 14.1677 15.5427 14.3551 15.8467 14.0638C16.6297 13.5315 16.8463 12.4946 16.8137 11.5962C16.8716 11.2252 16.4459 11.5606 16.1089 11.1944ZM13.1293 12.4453C12.0895 12.6232 11.0495 13.1299 10.1828 13.728C9.50996 14.27 10.7772 14.776 11.2512 14.8563C12.2146 14.8577 13.0741 14.2368 13.6832 13.5316C13.8951 13.2516 14.1519 12.7077 13.7324 12.4851C13.5448 12.4056 13.327 12.4289 13.1293 12.4453Z" fill="#B956A6"/>
<path fill-rule="evenodd" clip-rule="evenodd" d="M8.50006 8.19881C7.70039 8.51879 6.92892 8.90731 6.1672 9.31414C6.0256 9.84056 6.13913 10.4924 6.10242 11.0696C6.09966 13.443 6.10102 15.8165 6.10056 18.1898C6.68872 18.1898 7.27689 18.1898 7.86505 18.1898C8.22125 17.8544 8.66755 17.6089 9.05448 17.3043C10.5445 16.2356 12.0341 15.1628 13.5222 14.0972C13.6317 14.1464 13.5616 13.453 13.3214 13.9346C12.7523 14.4702 11.9968 14.9108 11.1972 14.8677C10.7435 14.7185 10.012 14.4653 10.0074 13.9092C10.3268 13.5332 9.41813 14.1061 9.16953 14.1881C8.36116 14.5763 7.57193 15.0097 6.76193 15.3906C6.95665 15.1815 7.32084 14.9866 7.57894 14.7792C9.42328 13.4553 11.2672 12.1262 13.1159 10.8033C13.4715 10.5536 13.815 10.2813 14.1816 10.0479C14.215 10.1772 14.2778 9.42984 14.0052 9.88997C13.4495 10.4408 12.6998 10.8509 11.9093 10.8565C11.4646 10.7215 10.5175 10.3988 10.7284 9.82463C10.8312 9.62316 9.77325 10.2541 10.2407 9.89831C10.7382 9.53475 11.2397 9.17764 11.7411 8.81786C11.9943 8.79879 11.9404 7.85827 11.5963 8.46496C11.0183 8.9728 10.259 9.43744 9.46294 9.32732C9.01577 9.19859 8.4792 8.94925 8.3167 8.48163C8.26285 8.36931 8.61776 8.19435 8.50006 8.19881ZM11.8131 8.77943C11.7687 8.90627 11.8934 8.73307 11.8131 8.77943V8.77943Z" fill="#FCCC44"/>
<path fill-rule="evenodd" clip-rule="evenodd" d="M16.8646 7.5703C16.615 8.76254 16.3421 10.0102 16.1074 11.1945C16.7817 12.0442 16.847 10.6576 16.965 10.2656C17.1555 9.44612 17.3813 8.82734 17.4052 7.97888C17.4558 7.68938 17.1155 7.51399 16.8646 7.5703ZM17.6382 8.50519C17.6171 8.62744 17.6689 8.52817 17.6382 8.50519V8.50519ZM16.8516 11.1784C16.884 11.1085 16.884 11.2483 16.8516 11.1784V11.1784Z" fill="#62777F"/>
<path fill-rule="evenodd" clip-rule="evenodd" d="M17.3081 7.70521C17.5185 8.88676 16.8217 10.322 16.5938 11.436C17.1113 11.0552 17.5111 9.32735 17.6133 8.65105C17.6396 8.57369 17.6721 8.37903 17.6791 8.37205C17.7116 8.20784 18.0147 7.9297 18.0313 7.75075C18.2078 7.62622 17.1641 7.60615 17.3081 7.70521ZM16.879 11.1783C16.8465 11.1084 16.8465 11.2482 16.879 11.1783V11.1783Z" fill="#4E5E67"/>
<path fill-rule="evenodd" clip-rule="evenodd" d="M8.51668 8.21844C8.22496 8.51055 8.33443 8.4392 8.55162 8.19629L8.51668 8.21844ZM11.6723 8.36312C11.3344 8.87097 10.1156 9.29564 9.96214 9.32854C10.6953 9.19124 11.3786 8.7352 11.8595 8.2009C11.7831 8.23493 11.7377 8.31498 11.6723 8.36312ZM8.31622 8.52802C8.4984 8.96601 9.16076 9.25707 9.48261 9.32495C9.04319 9.18341 8.52594 8.93229 8.31622 8.52802ZM11.786 8.78131C11.694 8.8899 11.3664 9.05236 11.1937 9.21158C10.8233 9.48484 10.4402 9.73871 10.074 10.0187C10.3071 10.0087 10.9904 9.49834 10.6401 10.0162C10.937 10.5271 11.5832 10.8823 12.1724 10.8498C12.9505 10.7277 13.6681 10.2975 14.1839 9.69915C13.5577 10.3187 12.7299 10.9019 11.8139 10.8215C11.3706 10.7191 10.1591 10.0934 10.9695 9.65471C11.2552 9.41968 11.7479 9.29655 11.8037 8.88353C11.792 8.83197 11.8881 8.78164 11.786 8.78131ZM9.56793 9.35536C9.86277 9.31685 9.86277 9.3939 9.56793 9.35536V9.35536ZM14.162 10.0608C12.9921 10.8759 11.8391 11.7228 10.6793 12.5525C9.36497 13.4932 8.05623 14.4374 6.74219 15.3773C7.23624 15.2107 7.73125 14.8854 8.22208 14.6607C8.89791 14.3031 9.61068 14.0206 10.2431 13.5863C11.4936 12.8502 12.816 12.1488 13.7778 11.0226C13.9877 10.7764 14.1981 10.3801 14.2075 10.1136C14.1772 10.1221 14.2002 10.007 14.162 10.0608ZM10.1813 13.7281C9.97086 13.9659 9.88536 14.1359 10.1038 13.8334C10.1 13.8685 10.2811 13.6456 10.1813 13.7281ZM13.3835 13.8419C12.829 14.4265 12.009 14.8482 11.2396 14.8766C12.1291 14.8831 12.9316 14.3551 13.5342 13.7322C13.4946 13.6844 13.4145 13.8436 13.3835 13.8419ZM13.5529 14.0256C11.6901 15.3816 9.76311 16.7881 7.89409 18.1393C8.18857 18.2316 8.82963 18.2749 9.12216 17.898C9.74474 17.4684 10.4446 17.1526 11.0691 16.7172C11.9736 16.1303 12.9419 15.4889 13.4556 14.5025C13.48 14.3702 13.6618 14.1323 13.5529 14.0256ZM10.0079 14.1117C10.0943 14.4766 11.1749 14.8953 11.0577 14.8152C10.6593 14.6755 10.264 14.4578 10.0079 14.1117Z" fill="#DC9624"/>
</g>
<defs>
<linearGradient id="paint0_linear_872_3103" x1="0" y1="24" x2="24" y2="0" gradientUnits="userSpaceOnUse">
<stop stop-color="#DB7093"/>
<stop offset="1" stop-color="#F3B661"/>
</linearGradient>
<clipPath id="clip0_872_3103">
<rect width="24" height="24" fill="white"/>
</clipPath>
</defs>
</svg>
