<svg width="24" height="24" viewBox="0 0 24 24" fill="none" xmlns="http://www.w3.org/2000/svg">
<g clip-path="url(#clip0_872_3121)">
<path d="M18.375 0H5.625C2.5184 0 0 2.5184 0 5.625V18.375C0 21.4816 2.5184 24 5.625 24H18.375C21.4816 24 24 21.4816 24 18.375V5.625C24 2.5184 21.4816 0 18.375 0Z" fill="#FF3E00"/>
<mask id="mask0_872_3121" style="mask-type:luminance" maskUnits="userSpaceOnUse" x="4" y="3" width="15" height="18">
<path d="M18.9979 3.5625H4.96875V20.4375H18.9979V3.5625Z" fill="white"/>
</mask>
<g mask="url(#mask0_872_3121)">
<path d="M18.0966 5.79269C16.5378 3.54745 13.4345 2.88962 11.2037 4.3054L7.27088 6.82235C6.19832 7.49449 5.45467 8.59566 5.24015 9.83982C5.05425 10.8838 5.21156 11.9563 5.71208 12.8859C5.36886 13.4007 5.14005 13.9728 5.03994 14.5734C4.81113 15.8462 5.11145 17.1619 5.8551 18.2058C7.42818 20.4511 10.5171 21.1089 12.7481 19.6931L16.6808 17.1905C17.7534 16.5183 18.497 15.4172 18.7115 14.1729C18.8974 13.129 18.7401 12.0564 18.2396 11.1269C18.5828 10.612 18.8117 10.0401 18.9118 9.43942C19.1549 8.15233 18.8546 6.83665 18.0966 5.79269Z" fill="white"/>
<path d="M10.8181 18.4211C9.5454 18.75 8.21538 18.2495 7.47173 17.1769C7.0141 16.5476 6.84249 15.7612 6.9712 14.9889C6.9998 14.8601 7.02841 14.7458 7.057 14.6171L7.1285 14.3883L7.32872 14.5313C7.80064 14.8745 8.31548 15.1319 8.87321 15.3035L9.01622 15.3464L9.00192 15.4894C8.98762 15.6896 9.04482 15.9041 9.15923 16.0758C9.38808 16.4047 9.78849 16.562 10.1746 16.4619C10.2604 16.4333 10.3462 16.4047 10.4177 16.3617L14.3361 13.8591C14.5364 13.7305 14.6651 13.5445 14.7079 13.3157C14.7509 13.0869 14.6937 12.8438 14.565 12.6579C14.3361 12.3289 13.9357 12.1859 13.5496 12.286C13.4638 12.3146 13.378 12.3432 13.3065 12.3862L11.8049 13.3443C11.5618 13.5016 11.2901 13.616 11.0041 13.6875C9.7313 14.0164 8.40128 13.5159 7.65764 12.4434C7.21431 11.8141 7.02841 11.0276 7.17141 10.2553C7.30012 9.51171 7.75774 8.83953 8.40128 8.4391L12.334 5.93646C12.5771 5.77914 12.8489 5.66474 13.1349 5.57893C14.4076 5.25002 15.7376 5.75054 16.4813 6.82311C16.9389 7.45235 17.1105 8.23889 16.9818 9.01114C16.9531 9.13985 16.9246 9.25425 16.8817 9.38299L16.8102 9.61174L16.6099 9.46877C16.1381 9.12554 15.6232 8.86813 15.0655 8.69652L14.9224 8.65361L14.9368 8.51061C14.9511 8.31039 14.8938 8.09588 14.7795 7.92428C14.5506 7.59535 14.1502 7.45235 13.7641 7.55245C13.6783 7.58106 13.5925 7.60965 13.521 7.65256L9.60258 10.1552C9.40233 10.2839 9.27363 10.4698 9.23073 10.6987C9.18783 10.9274 9.24503 11.1706 9.37374 11.3565C9.60258 11.6854 10.003 11.8284 10.3891 11.7283C10.4749 11.6997 10.5607 11.6711 10.6322 11.6282L12.1338 10.6701C12.3769 10.5128 12.6486 10.3983 12.9346 10.3125C14.2074 9.98355 15.5374 10.4841 16.2811 11.5567C16.7386 12.1859 16.9103 12.9725 16.7816 13.7447C16.6529 14.4883 16.1953 15.1605 15.5517 15.5609L11.619 18.0636C11.3759 18.2209 11.1042 18.3353 10.8181 18.4211Z" fill="#FF3E00"/>
</g>
</g>
<defs>
<clipPath id="clip0_872_3121">
<rect width="24" height="24" fill="white"/>
</clipPath>
</defs>
</svg>
