<svg width="24" height="24" viewBox="0 0 24 24" fill="none" xmlns="http://www.w3.org/2000/svg">
<g clip-path="url(#clip0_872_3129)">
<path d="M18.375 0H5.625C2.5184 0 0 2.5184 0 5.625V18.375C0 21.4816 2.5184 24 5.625 24H18.375C21.4816 24 24 21.4816 24 18.375V5.625C24 2.5184 21.4816 0 18.375 0Z" fill="#F4F2ED"/>
<path d="M1.59375 11.25H22.2788V18.104C22.2788 19.7146 20.963 20.948 19.2455 20.948H4.62708C2.90917 20.948 1.59375 19.7146 1.59375 18.104V11.25Z" fill="black"/>
<path d="M5.77731 10.2102C5.13754 9.60996 4.10006 9.60996 3.4603 10.2102C2.82053 10.8101 2.82053 11.7827 3.4603 12.3829C4.10006 12.9827 5.13754 12.9827 5.77731 12.3829H18.0787C18.7189 12.9827 19.7559 12.9827 20.396 12.3829C21.0359 11.7827 21.0359 10.8101 20.396 10.2102C19.7559 9.60996 18.7189 9.60996 18.0787 10.2102H5.77731Z" fill="#FFB13B" stroke="black" stroke-width="28.695"/>
<path d="M8.39831 6.45019C8.39831 5.60132 7.66479 4.91357 6.75989 4.91357C5.85461 4.91357 5.12109 5.60132 5.12109 6.45019C5.12109 7.2987 5.85461 7.98645 6.75989 7.98645L15.4582 16.1427C15.4582 16.9912 16.1917 17.6789 17.0965 17.6789C18.0014 17.6789 18.735 16.9912 18.735 16.1427C18.735 15.2942 18.0014 14.6065 17.0965 14.6065L8.39831 6.45019Z" fill="#FFB13B" stroke="black" stroke-width="28.725"/>
<path d="M13.0882 5.52923C13.728 4.92902 13.728 3.95636 13.0882 3.35614C12.448 2.75629 11.4106 2.75629 10.7708 3.35614C10.1311 3.95636 10.1311 4.92902 10.7708 5.52923V17.0638C10.1311 17.6636 10.1311 18.6367 10.7708 19.2365C11.4106 19.8368 12.448 19.8368 13.0882 19.2365C13.728 18.6367 13.728 17.6636 13.0882 17.0638V5.52923Z" fill="#FFB13B" stroke="black" stroke-width="28.695"/>
<path d="M17.0965 7.98645C18.0014 7.98645 18.735 7.29871 18.735 6.45019C18.735 5.60132 18.0014 4.91357 17.0965 4.91357C16.1917 4.91357 15.4582 5.60132 15.4582 6.45019L6.75989 14.6065C5.85461 14.6065 5.12109 15.2942 5.12109 16.1426C5.12109 16.9912 5.85461 17.6789 6.75989 17.6789C7.66479 17.6789 8.39831 16.9912 8.39831 16.1426L17.0965 7.98645Z" fill="#FFB13B" stroke="black" stroke-width="28.725"/>
<path d="M5.77731 10.2102C5.13754 9.60996 4.10006 9.60996 3.4603 10.2102C2.82053 10.8101 2.82053 11.7827 3.4603 12.3829C4.10006 12.9827 5.13754 12.9827 5.77731 12.3829H18.0787C18.7189 12.9827 19.7559 12.9827 20.396 12.3829C21.0359 11.7827 21.0359 10.8101 20.396 10.2102C19.7559 9.60996 18.7189 9.60996 18.0787 10.2102H5.77731Z" fill="#FFB13B"/>
<path d="M8.39831 6.45019C8.39831 5.60131 7.66479 4.91357 6.75989 4.91357C5.85461 4.91357 5.12109 5.60131 5.12109 6.45019C5.12109 7.2987 5.85461 7.98645 6.75989 7.98645L15.4582 16.1427C15.4582 16.9912 16.1917 17.6789 17.0965 17.6789C18.0014 17.6789 18.735 16.9912 18.735 16.1427C18.735 15.2942 18.0014 14.6065 17.0965 14.6065L8.39831 6.45019Z" fill="#FFB13B"/>
<path d="M13.0882 5.52923C13.728 4.92902 13.728 3.95636 13.0882 3.35614C12.448 2.75629 11.4106 2.75629 10.7708 3.35614C10.1311 3.95636 10.1311 4.92902 10.7708 5.52923V17.0638C10.1311 17.6636 10.1311 18.6367 10.7708 19.2365C11.4106 19.8368 12.448 19.8368 13.0882 19.2365C13.728 18.6367 13.728 17.6636 13.0882 17.0638V5.52923Z" fill="#FFB13B"/>
<path d="M17.0965 7.98645C18.0014 7.98645 18.735 7.2987 18.735 6.45019C18.735 5.60131 18.0014 4.91357 17.0965 4.91357C16.1917 4.91357 15.4582 5.60131 15.4582 6.45019L6.75989 14.6065C5.85461 14.6065 5.12109 15.2942 5.12109 16.1427C5.12109 16.9912 5.85461 17.6789 6.75989 17.6789C7.66479 17.6789 8.39831 16.9912 8.39831 16.1427L17.0965 7.98645Z" fill="#FFB13B"/>
<path d="M1.59375 11.3438H22.2788V18.1977C22.2788 19.8083 20.963 21.0417 19.2455 21.0417H4.62708C2.90917 21.0417 1.59375 19.8083 1.59375 18.1977V11.3438Z" fill="black" fill-opacity="0.9"/>
<path d="M4.68982 16.1377C4.2046 15.6828 3.9043 15.0548 3.9043 14.3612C3.9043 12.9733 5.1051 11.8479 6.5846 11.8479C8.06482 11.8479 9.26526 12.9733 9.26526 14.3612H7.69531C7.69531 13.7863 7.19763 13.3204 6.5846 13.3204C5.97156 13.3204 5.47461 13.7863 5.47461 14.3612C5.47461 14.6483 5.59913 14.9086 5.79908 15.0961H5.79981C6.00086 15.2855 6.16822 15.3401 6.5846 15.4023C7.32508 15.4745 7.99488 15.6836 8.4801 16.1385C8.96534 16.5936 9.26526 17.2216 9.26526 17.9153C9.26526 19.3032 8.06482 20.4289 6.5846 20.4289C5.1051 20.4289 3.9043 19.3032 3.9043 17.9153H5.47461C5.47461 18.4903 5.97156 18.9568 6.5846 18.9568C7.19763 18.9568 7.69531 18.4903 7.69531 17.9153C7.69531 17.6281 7.57117 17.3686 7.37085 17.1803H7.37012C7.16908 16.9917 6.88049 16.9269 6.5846 16.8749V16.8745C5.86682 16.7713 5.17505 16.5929 4.68982 16.1377Z" fill="white"/>
<path d="M14.6266 11.8479L12.7303 20.4289H11.1604L9.26562 11.8479H10.8359L11.9471 16.8737L13.0563 11.8479H14.6266Z" fill="white"/>
<path d="M17.3079 15.4022H19.9879V17.9152H19.9886C19.9886 19.3034 18.7881 20.4292 17.3079 20.4292C15.8273 20.4292 14.6276 19.3034 14.6276 17.9152V14.3611H14.627C14.627 12.9731 15.8273 11.8481 17.3079 11.8481C18.7875 11.8481 19.9879 12.9731 19.9879 14.3611H18.4179C18.4179 13.7869 17.9203 13.3203 17.3079 13.3203C16.6945 13.3203 16.1976 13.7869 16.1976 14.3611V17.9152C16.1976 18.4901 16.6945 18.9563 17.3079 18.9563C17.9203 18.9563 18.4172 18.4901 18.4179 17.9159V16.8751H17.3079V15.4022Z" fill="white"/>
</g>
<defs>
<clipPath id="clip0_872_3129">
<rect width="24" height="24" fill="white"/>
</clipPath>
</defs>
</svg>
