<svg width="24" height="24" viewBox="0 0 24 24" fill="none" xmlns="http://www.w3.org/2000/svg">
<g clip-path="url(#clip0_872_3223)">
<path d="M18.375 0H5.625C2.5184 0 0 2.5184 0 5.625V18.375C0 21.4816 2.5184 24 5.625 24H18.375C21.4816 24 24 21.4816 24 18.375V5.625C24 2.5184 21.4816 0 18.375 0Z" fill="#F4F2ED"/>
<path d="M21.2895 5.40012L12.4928 21.1302C12.3111 21.455 11.8445 21.4569 11.6602 21.1337L2.68897 5.40163C2.48813 5.04944 2.78929 4.62283 3.1884 4.69417L11.9946 6.26821C12.0507 6.27825 12.1083 6.27816 12.1644 6.26792L20.7864 4.69642C21.1842 4.62392 21.4868 5.04722 21.2895 5.40012Z" fill="url(#paint0_linear_872_3223)"/>
<path d="M16.1893 2.62961L9.67952 3.9052C9.57245 3.92616 9.49324 4.01683 9.48686 4.12566L9.08637 10.8889C9.07695 11.0482 9.22324 11.1718 9.37867 11.1359L11.1911 10.7177C11.3607 10.6786 11.5139 10.8279 11.4791 10.9985L10.9406 13.6353C10.9044 13.8128 11.071 13.9644 11.2443 13.9118L12.3638 13.5717C12.5373 13.519 12.7041 13.6712 12.6673 13.8488L11.8116 17.9906C11.758 18.2498 12.1027 18.391 12.2464 18.1688L12.3424 18.0205L17.647 7.4343C17.7358 7.25705 17.5826 7.05493 17.3879 7.09251L15.5224 7.45256C15.3471 7.48636 15.1979 7.3231 15.2473 7.15157L16.465 2.93046C16.5145 2.75864 16.3648 2.59524 16.1893 2.62961Z" fill="url(#paint1_linear_872_3223)"/>
</g>
<defs>
<linearGradient id="paint0_linear_872_3223" x1="2.46993" y1="4.132" x2="13.4182" y2="19.0006" gradientUnits="userSpaceOnUse">
<stop stop-color="#41D1FF"/>
<stop offset="1" stop-color="#BD34FE"/>
</linearGradient>
<linearGradient id="paint1_linear_872_3223" x1="11.4891" y1="2.97594" x2="13.4695" y2="16.5619" gradientUnits="userSpaceOnUse">
<stop stop-color="#FFEA83"/>
<stop offset="0.0833333" stop-color="#FFDD35"/>
<stop offset="1" stop-color="#FFA800"/>
</linearGradient>
<clipPath id="clip0_872_3223">
<rect width="24" height="24" fill="white"/>
</clipPath>
</defs>
</svg>
