<svg width="24" height="24" viewBox="0 0 24 24" fill="none" xmlns="http://www.w3.org/2000/svg">
<g clip-path="url(#clip0_872_3248)">
<path d="M18.375 0H5.625C2.5184 0 0 2.5184 0 5.625V18.375C0 21.4816 2.5184 24 5.625 24H18.375C21.4816 24 24 21.4816 24 18.375V5.625C24 2.5184 21.4816 0 18.375 0Z" fill="#F4F2ED"/>
<path d="M19.5082 16.8006L12.3221 20.8654V17.6994L16.7994 15.2365L19.5082 16.8006ZM19.9998 16.3554V7.85445L17.3701 9.37211V14.836L19.9998 16.3554ZM4.50524 16.8006L11.6914 20.8654V17.6994L7.21399 15.2365L4.50524 16.8006ZM4.01367 16.3554V7.85445L6.64336 9.37211V14.836L4.01367 16.3554ZM4.32133 7.30446L11.6914 3.13477V6.19586L6.96993 8.7929L6.93384 8.81352L4.32133 7.30446ZM19.6921 7.30446L12.3221 3.13477V6.19586L17.0436 8.7929L17.0796 8.81352L19.6921 7.30446Z" fill="#8ED6FB"/>
<path d="M11.6907 16.9793L7.27344 14.5507V9.73821L11.6907 12.2889V16.9793ZM12.3214 16.9793L16.7386 14.5507V9.73821L12.3214 12.2889V16.9793ZM7.5725 9.18134L12.0069 6.74243L16.4412 9.18134L12.0069 11.7423L7.5725 9.18134Z" fill="#1C78C0"/>
</g>
<defs>
<clipPath id="clip0_872_3248">
<rect width="24" height="24" fill="white"/>
</clipPath>
</defs>
</svg>
