<svg width="24" height="24" viewBox="0 0 24 24" fill="none" xmlns="http://www.w3.org/2000/svg">
<g clip-path="url(#clip0_872_3252)">
<path d="M18.375 0H5.625C2.5184 0 0 2.5184 0 5.625V18.375C0 21.4816 2.5184 24 5.625 24H18.375C21.4816 24 24 21.4816 24 18.375V5.625C24 2.5184 21.4816 0 18.375 0Z" fill="#F4F2ED"/>
<path d="M12.3898 5.92149C12.3898 4.1037 10.9111 2.625 9.09329 2.625C7.17756 2.625 6.03227 4.06132 6.03227 5.45055H7.91597C7.91597 5.05969 8.28142 4.5087 9.09329 4.5087C9.87216 4.5087 10.5061 5.14258 10.5061 5.92149C10.5061 6.70041 9.9375 7.33427 8.50375 7.33427H3.375V9.21798H8.50375C10.9236 9.21798 12.3898 7.73928 12.3898 5.92149ZM12.3898 5.92149C12.3898 4.1037 10.9111 2.625 9.09329 2.625C7.17756 2.625 6.03227 4.06132 6.03227 5.45055H7.91597C7.91597 5.05969 8.28142 4.5087 9.09329 4.5087C9.87216 4.5087 10.5061 5.14258 10.5061 5.92149C10.5061 6.70041 9.9375 7.33427 8.50375 7.33427H3.375V9.21798H8.50375C10.9236 9.21798 12.3898 7.73928 12.3898 5.92149Z" fill="url(#paint0_linear_872_3252)"/>
<path d="M16.5695 18.0784C16.5695 19.8963 15.0908 21.375 13.273 21.375C11.3573 21.375 10.2119 19.9387 10.2119 18.5494H12.0956C12.0956 18.9403 12.4611 19.4913 13.273 19.4913C14.0519 19.4913 14.6858 18.8574 14.6858 18.0784C14.6858 17.2995 13.9694 16.6657 12.6835 16.6657H6.99219V14.782H12.6835C15.1032 14.782 16.5695 16.2607 16.5695 18.0784ZM16.5695 18.0784C16.5695 19.8963 15.0908 21.375 13.273 21.375C11.3573 21.375 10.2119 19.9387 10.2119 18.5494H12.0956C12.0956 18.9403 12.4611 19.4913 13.273 19.4913C14.0519 19.4913 14.6858 18.8574 14.6858 18.0784C14.6858 17.2995 13.9694 16.6657 12.6835 16.6657H6.99219V14.782H12.6835C15.1032 14.782 16.5695 16.2607 16.5695 18.0784Z" fill="url(#paint1_linear_872_3252)"/>
<path d="M17.0625 5.53125C14.9848 5.53125 13.5191 7.11129 13.5191 9.18902H15.1875C15.1875 8.15625 15.9375 7.40625 17.0625 7.40625C18.1875 7.40625 18.75 8.15625 18.75 9.18902C18.75 10.2217 18.0194 11.0727 16.0312 11.0727H3.375V12.9564H16.3125C19.2568 12.9564 20.625 11.064 20.625 9.18902C20.625 7.11129 19.2188 5.53125 17.0625 5.53125Z" fill="url(#paint2_linear_872_3252)"/>
<path d="M5.84439 14.782H3.375V16.6815H5.84439V14.782Z" fill="url(#paint3_linear_872_3252)"/>
</g>
<defs>
<linearGradient id="paint0_linear_872_3252" x1="4.875" y1="4.21875" x2="15.75" y2="21.375" gradientUnits="userSpaceOnUse">
<stop offset="0.078" stop-color="#54C8F1"/>
<stop offset="0.573" stop-color="#41A2EF"/>
<stop offset="1" stop-color="#3386EE"/>
</linearGradient>
<linearGradient id="paint1_linear_872_3252" x1="4.87567" y1="4.2187" x2="15.7507" y2="21.375" gradientUnits="userSpaceOnUse">
<stop offset="0.078" stop-color="#54C8F1"/>
<stop offset="0.573" stop-color="#41A2EF"/>
<stop offset="1" stop-color="#3386EE"/>
</linearGradient>
<linearGradient id="paint2_linear_872_3252" x1="4.875" y1="4.21875" x2="15.75" y2="21.375" gradientUnits="userSpaceOnUse">
<stop offset="0.078" stop-color="#54C8F1"/>
<stop offset="0.573" stop-color="#41A2EF"/>
<stop offset="1" stop-color="#3386EE"/>
</linearGradient>
<linearGradient id="paint3_linear_872_3252" x1="4.875" y1="4.2187" x2="15.75" y2="21.375" gradientUnits="userSpaceOnUse">
<stop offset="0.078" stop-color="#54C8F1"/>
<stop offset="0.573" stop-color="#41A2EF"/>
<stop offset="1" stop-color="#3386EE"/>
</linearGradient>
<clipPath id="clip0_872_3252">
<rect width="24" height="24" fill="white"/>
</clipPath>
</defs>
</svg>
