<svg width="127" height="30" viewBox="0 0 127 30" fill="none" xmlns="http://www.w3.org/2000/svg">
<path d="M14.4244 4.2002V24.2642H11.1364L10.9684 23.4482C10.0084 24.1922 8.83244 24.6242 7.60844 24.6242C3.21644 24.6242 0.648438 22.5122 0.648438 18.0002V15.2642C0.648438 11.1122 3.12044 8.6882 7.08044 8.6882C8.52044 8.6882 9.76844 9.0002 10.8004 9.6962V4.2002H14.4244ZM7.48844 21.4562C10.1764 21.4562 10.8004 19.7042 10.8004 17.3042V15.9842C10.8004 13.8002 9.98444 11.8562 7.34444 11.8562C5.06444 11.8562 4.27244 13.3202 4.27244 15.5522V17.7602C4.27244 19.9922 5.04044 21.4562 7.48844 21.4562ZM31.2721 19.8962C30.6481 23.4002 27.6961 24.6242 24.5761 24.6242C20.3041 24.6242 17.3281 22.3202 17.3281 18.0242V15.2882C17.3281 11.0162 20.3041 8.6882 24.4081 8.6882C28.4881 8.6882 31.5361 11.0402 31.5361 15.3842V17.7602H20.9761C20.9761 20.2082 21.9121 21.4802 24.5281 21.4802C25.6081 21.4802 27.0721 21.2642 27.3601 19.8962H31.2721ZM24.3841 11.8802C22.3921 11.8802 21.2401 12.6962 21.0001 14.7602H27.7201C27.5041 12.7202 26.4001 11.8802 24.3841 11.8802ZM36.8092 9.2402L40.2172 19.5362L43.5772 9.2402H47.5612L42.1852 24.2642H38.2492L32.8732 9.2402H36.8092ZM51.9887 12.0722V7.8722H56.4287V12.0722H51.9887ZM51.9887 21.2642V17.0642H56.4287V21.2642H51.9887Z" fill="#0084D1"/>
<path d="M64.944 10.8242C65.664 9.5282 67.104 8.7362 68.616 8.7362C70.32 8.7362 71.592 9.2882 72.288 10.9202C73.128 9.5762 74.784 8.7362 76.344 8.7362C79.704 8.7362 80.856 10.8722 80.856 13.9682V24.2642H77.232V14.6882C77.232 13.3922 77.112 11.9042 75.384 11.9042C73.584 11.9042 72.912 13.5362 72.912 15.1922V24.2642H69.288V14.2562C69.288 13.1282 69.096 11.9042 67.536 11.9042C65.76 11.9042 64.944 13.4882 64.944 15.1922V24.2642H61.248V9.2402H64.68L64.944 10.8242ZM97.4592 19.8962C96.8352 23.4002 93.8832 24.6242 90.7632 24.6242C86.4912 24.6242 83.5152 22.3202 83.5152 18.0242V15.2882C83.5152 11.0162 86.4912 8.6882 90.5952 8.6882C94.6752 8.6882 97.7232 11.0402 97.7232 15.3842V17.7602H87.1632C87.1632 20.2082 88.0992 21.4802 90.7152 21.4802C91.7952 21.4802 93.2593 21.2642 93.5472 19.8962H97.4592ZM90.5712 11.8802C88.5792 11.8802 87.4272 12.6962 87.1872 14.7602H93.9072C93.6912 12.7202 92.5872 11.8802 90.5712 11.8802ZM113.928 19.8962C113.304 23.4002 110.352 24.6242 107.232 24.6242C102.96 24.6242 99.9839 22.3202 99.9839 18.0242V15.2882C99.9839 11.0162 102.96 8.6882 107.064 8.6882C111.144 8.6882 114.192 11.0402 114.192 15.3842V17.7602H103.632C103.632 20.2082 104.568 21.4802 107.184 21.4802C108.264 21.4802 109.728 21.2642 110.016 19.8962H113.928ZM107.04 11.8802C105.048 11.8802 103.896 12.6962 103.656 14.7602H110.376C110.16 12.7202 109.056 11.8802 107.04 11.8802ZM118.805 4.2002H122.501V9.4562H125.357V12.6002H122.501V19.1522C122.501 21.2402 123.245 21.3842 124.757 21.3842H125.621V24.5282H123.821C120.509 24.5282 118.805 23.1362 118.805 19.7762V12.6002H116.189V9.4562H118.805V4.2002Z" fill="#171717"/>
</svg>
