<svg width="24" height="24" viewBox="0 0 24 24" fill="none" xmlns="http://www.w3.org/2000/svg">
<g clip-path="url(#clip0_872_2059)">
<path d="M18.375 0H5.625C2.5184 0 0 2.5184 0 5.625V18.375C0 21.4816 2.5184 24 5.625 24H18.375C21.4816 24 24 21.4816 24 18.375V5.625C24 2.5184 21.4816 0 18.375 0Z" fill="#2B2E3A"/>
<path d="M9.44672 6.63477C7.00875 6.19077 5.08107 6.65549 4.31278 7.98617C3.7395 8.97917 3.90338 10.2957 4.71028 11.703C4.72621 11.7322 4.74782 11.7579 4.77385 11.7787C4.79986 11.7995 4.82976 11.8148 4.86179 11.8239C4.89383 11.8329 4.92735 11.8355 4.96039 11.8314C4.99343 11.8274 5.02532 11.8168 5.0542 11.8002C5.08308 11.7836 5.10836 11.7615 5.12856 11.735C5.14875 11.7085 5.16346 11.6783 5.17183 11.6461C5.18019 11.6139 5.18203 11.5804 5.17724 11.5474C5.17246 11.5145 5.16115 11.4828 5.14397 11.4543C4.41722 10.1866 4.27575 9.05042 4.74582 8.2362C5.38407 7.1308 7.10344 6.71624 9.3571 7.12667C9.42188 7.13746 9.48825 7.12233 9.54197 7.08457C9.59569 7.04681 9.63235 6.98944 9.64416 6.92486C9.65588 6.86027 9.64182 6.79364 9.60488 6.73937C9.56794 6.68509 9.51113 6.64752 9.44672 6.63477ZM5.97807 13.4135C6.96385 14.4968 8.24457 15.513 9.70519 16.3562C13.2417 18.398 17.0067 18.9438 18.8622 17.6786C18.89 17.6604 18.9138 17.6368 18.9323 17.6092C18.9509 17.5818 18.9638 17.5507 18.9702 17.5182C18.9767 17.4857 18.9766 17.4521 18.9699 17.4196C18.9633 17.387 18.9503 17.3562 18.9315 17.3287C18.9128 17.3013 18.8888 17.2778 18.861 17.2598C18.8332 17.2417 18.8019 17.2295 18.7692 17.2235C18.7366 17.2176 18.703 17.2183 18.6707 17.2255C18.6383 17.2327 18.6076 17.2463 18.5805 17.2656C16.9198 18.3979 13.3434 17.8794 9.95522 15.9232C8.53829 15.1052 7.29807 14.1212 6.34791 13.077C6.32585 13.0525 6.29918 13.0327 6.26944 13.0186C6.23969 13.0045 6.20746 12.9965 6.17458 12.9949C6.14171 12.9932 6.10884 12.9981 6.07785 13.0092C6.04687 13.0204 6.01839 13.0374 5.99405 13.0596C5.9697 13.0818 5.94997 13.1085 5.93599 13.1383C5.922 13.1681 5.91403 13.2004 5.91255 13.2333C5.91107 13.2662 5.91609 13.299 5.92733 13.3299C5.93858 13.3609 5.95581 13.3893 5.97807 13.4135Z" fill="#9FEAF9"/>
<path d="M18.2704 13.1095C19.8668 11.2237 20.4241 9.32691 19.6575 7.99904C19.0934 7.02188 17.9008 6.50598 16.3157 6.48535C16.25 6.48545 16.187 6.5114 16.1403 6.55758C16.0936 6.60376 16.0669 6.66647 16.0661 6.73215C16.0652 6.79783 16.0903 6.86121 16.1357 6.90859C16.1813 6.95596 16.2436 6.98352 16.3093 6.98532C17.7347 7.00388 18.7622 7.44835 19.2245 8.24907C19.8613 9.35204 19.3642 11.0435 17.8888 12.7865C17.8671 12.8115 17.8506 12.8405 17.8403 12.872C17.83 12.9034 17.826 12.9365 17.8285 12.9695C17.831 13.0025 17.8401 13.0345 17.8552 13.064C17.8702 13.0935 17.891 13.1197 17.9162 13.141C17.9415 13.1623 17.9707 13.1785 18.0022 13.1885C18.0338 13.1985 18.067 13.2022 18.0999 13.1992C18.1328 13.1963 18.1649 13.1869 18.1941 13.1714C18.2235 13.156 18.2493 13.135 18.2704 13.1095ZM14.1678 6.71813C12.7245 7.02741 11.1881 7.6321 9.71265 8.48391C6.06184 10.5917 3.6803 13.6998 4.01105 15.9534C4.01546 15.9863 4.02634 16.0179 4.04305 16.0464C4.05976 16.0749 4.08198 16.0999 4.1084 16.1199C4.13483 16.1397 4.16495 16.1542 4.19702 16.1624C4.22908 16.1706 4.26244 16.1724 4.29518 16.1675C4.32792 16.1627 4.35938 16.1514 4.38773 16.1344C4.41609 16.1173 4.44078 16.0948 4.46037 16.0681C4.47995 16.0415 4.49405 16.0112 4.50184 15.979C4.50964 15.9469 4.51098 15.9135 4.50577 15.8808C4.21205 13.8798 6.46955 10.9337 9.96268 8.91694C11.394 8.09054 12.8816 7.50507 14.2726 7.20704C14.3051 7.20063 14.336 7.18779 14.3636 7.16929C14.3911 7.1508 14.4148 7.127 14.433 7.09929C14.4512 7.07159 14.4638 7.04052 14.4699 7.00791C14.4761 6.97531 14.4756 6.9418 14.4687 6.90936C14.4617 6.87692 14.4484 6.84619 14.4295 6.81894C14.4105 6.79171 14.3864 6.76851 14.3583 6.75071C14.3303 6.73292 14.2991 6.72087 14.2664 6.71527C14.2336 6.70969 14.2002 6.71065 14.1678 6.71813Z" fill="#9FEAF9"/>
<path d="M8.25338 17.5157C9.08812 19.8464 10.4536 21.2814 11.989 21.2814C13.1089 21.2814 14.1449 20.518 14.9528 19.1741C14.9704 19.1459 14.982 19.1145 14.9873 19.0818C14.9926 19.0491 14.9913 19.0157 14.9835 18.9835C14.9757 18.9512 14.9617 18.9209 14.942 18.8942C14.9224 18.8675 14.8977 18.8449 14.8693 18.8279C14.8409 18.8108 14.8093 18.7995 14.7766 18.7948C14.7438 18.79 14.7103 18.7918 14.6782 18.8C14.6462 18.8083 14.616 18.8228 14.5896 18.8428C14.5631 18.8627 14.541 18.8879 14.5243 18.9164C13.7982 20.1242 12.9064 20.7813 11.989 20.7813C10.7136 20.7813 9.49566 19.5014 8.72419 17.3473C8.71362 17.3158 8.69687 17.2866 8.6749 17.2617C8.65295 17.2366 8.62622 17.2163 8.59629 17.2018C8.56637 17.1872 8.53385 17.1788 8.50063 17.177C8.46742 17.1752 8.43417 17.1801 8.40285 17.1913C8.37153 17.2025 8.34276 17.2199 8.31823 17.2423C8.29371 17.2648 8.2739 17.292 8.25998 17.3221C8.24608 17.3523 8.23834 17.385 8.23721 17.4182C8.2361 17.4515 8.24152 17.4847 8.25338 17.5157ZM15.8773 17.0598C16.3095 15.6791 16.5415 14.0863 16.5415 12.4264C16.5415 8.28465 15.0919 4.71427 13.0271 3.79749C12.9668 3.77222 12.899 3.7716 12.8382 3.79575C12.7775 3.81989 12.7285 3.86688 12.702 3.92665C12.6755 3.98641 12.6734 4.05421 12.6963 4.11548C12.7192 4.17675 12.7651 4.22663 12.8243 4.25443C14.6658 5.07221 16.0415 8.46061 16.0415 12.4264C16.0415 14.0368 15.8167 15.5792 15.4002 16.9105C15.3899 16.942 15.3859 16.9752 15.3885 17.0083C15.3911 17.0413 15.4002 17.0734 15.4154 17.103C15.4305 17.1324 15.4514 17.1585 15.4767 17.1799C15.5021 17.2012 15.5315 17.2173 15.5631 17.2272C15.5947 17.2371 15.6279 17.2406 15.6609 17.2375C15.6939 17.2345 15.726 17.2248 15.7552 17.2093C15.7845 17.1937 15.8104 17.1725 15.8313 17.1468C15.8523 17.1211 15.8678 17.0916 15.8773 17.0598ZM20.5858 16.8149C20.5858 16.1541 20.0501 15.6184 19.3893 15.6184C18.7284 15.6184 18.1927 16.1541 18.1927 16.8149C18.1927 17.4758 18.7284 18.0115 19.3893 18.0115C20.0501 18.0115 20.5858 17.4758 20.5858 16.8149ZM20.0858 16.8149C20.0858 16.9064 20.0678 16.997 20.0328 17.0815C19.9978 17.166 19.9465 17.2428 19.8818 17.3075C19.8172 17.3722 19.7404 17.4235 19.6558 17.4585C19.5713 17.4935 19.4808 17.5115 19.3893 17.5115C19.2978 17.5115 19.2072 17.4935 19.1227 17.4585C19.0382 17.4235 18.9614 17.3722 18.8967 17.3075C18.832 17.2428 18.7807 17.166 18.7458 17.0815C18.7107 16.997 18.6927 16.9064 18.6927 16.8149C18.6927 16.6303 18.7661 16.4531 18.8967 16.3224C19.0274 16.1918 19.2045 16.1184 19.3893 16.1184C19.5741 16.1184 19.7512 16.1918 19.8818 16.3224C20.0124 16.4531 20.0858 16.6303 20.0858 16.8149ZM4.57153 18.0115C5.23247 18.0115 5.76816 17.4758 5.76816 16.8149C5.76816 16.1541 5.23237 15.6184 4.57153 15.6184C3.91078 15.6184 3.375 16.1541 3.375 16.8149C3.375 17.4758 3.91078 18.0115 4.57153 18.0115ZM4.57153 17.5115C4.38679 17.5115 4.20962 17.4381 4.07899 17.3075C3.94836 17.1769 3.87497 16.9997 3.87497 16.8149C3.87497 16.6303 3.94836 16.4531 4.07899 16.3224C4.20962 16.1918 4.38679 16.1184 4.57153 16.1184C4.75627 16.1184 4.93344 16.1918 5.06407 16.3224C5.19471 16.4531 5.26809 16.6303 5.26809 16.8149C5.26809 16.9997 5.19471 17.1769 5.06407 17.3075C4.93344 17.4381 4.75627 17.5115 4.57153 17.5115Z" fill="#9FEAF9"/>
<path d="M11.9895 5.01806C12.6503 5.01806 13.186 4.48238 13.186 3.82153C13.186 3.16069 12.6503 2.625 11.9895 2.625C11.3287 2.625 10.793 3.16069 10.793 3.82153C10.793 4.48238 11.3287 5.01806 11.9895 5.01806ZM11.9895 4.51809C11.8047 4.51809 11.6276 4.44471 11.4969 4.31408C11.3663 4.18344 11.2929 4.00628 11.2929 3.82153C11.2929 3.63679 11.3663 3.45962 11.4969 3.32899C11.6276 3.19836 11.8047 3.12497 11.9895 3.12497C12.1743 3.12497 12.3514 3.19836 12.4821 3.32899C12.6127 3.45962 12.6861 3.63679 12.6861 3.82153C12.6861 4.00628 12.6127 4.18344 12.4821 4.31408C12.3514 4.44471 12.1743 4.51809 11.9895 4.51809ZM12.1722 13.2727C11.7049 13.3736 11.2445 13.0766 11.1433 12.6093C11.0948 12.3848 11.1375 12.1504 11.2619 11.9574C11.3863 11.7645 11.5822 11.6288 11.8067 11.5803C12.274 11.4793 12.7344 11.7763 12.8357 12.2437C12.9367 12.711 12.6397 13.1715 12.1722 13.2727Z" fill="#9FEAF9"/>
</g>
<defs>
<clipPath id="clip0_872_2059">
<rect width="24" height="24" fill="white"/>
</clipPath>
</defs>
</svg>
