<svg width="24" height="24" viewBox="0 0 24 24" fill="none" xmlns="http://www.w3.org/2000/svg">
<g clip-path="url(#clip0_872_2887)">
<path d="M18.375 0H5.625C2.5184 0 0 2.5184 0 5.625V18.375C0 21.4816 2.5184 24 5.625 24H18.375C21.4816 24 24 21.4816 24 18.375V5.625C24 2.5184 21.4816 0 18.375 0Z" fill="#F4F2ED"/>
<path fill-rule="evenodd" clip-rule="evenodd" d="M9.33614 8.46216C8.5197 8.46216 7.95663 8.71901 7.64694 9.23949C7.3443 9.75997 7.18945 10.5846 7.18945 11.7269C7.18945 12.8625 7.33726 13.6804 7.63287 14.1671C7.92847 14.6537 8.49858 14.9038 9.33614 14.9038C10.1737 14.9038 10.7367 14.6606 11.0324 14.1806C11.321 13.7007 11.4687 12.8828 11.4687 11.7404C11.4687 10.5913 11.321 9.75997 11.0183 9.23949C10.7156 8.71901 10.1526 8.46216 9.33614 8.46216Z" fill="#41CD52"/>
<path fill-rule="evenodd" clip-rule="evenodd" d="M16.766 15.916C16.0222 15.916 15.5123 15.7559 15.2359 15.4357C14.9597 15.1155 14.818 14.5083 14.818 13.6144V10.7322H13.8123V9.58472H14.818V7.78344H16.2418V9.58472H18.055V10.7389H16.2418V13.4676C16.2418 13.9746 16.2843 14.3081 16.3622 14.4683C16.44 14.6351 16.6455 14.7152 16.9642 14.7152L18.0409 14.6751L18.1046 15.7559C17.5238 15.8626 17.0775 15.916 16.766 15.916ZM12.6648 17.2103L11.3119 17.8041L10.1432 15.996C9.97313 16.0428 9.71109 16.0695 9.34275 16.0695C7.9757 16.0695 7.01947 15.7225 6.48114 15.0287C5.94282 14.3349 5.67367 13.2341 5.67367 11.7396C5.67367 10.2385 5.94991 9.12442 6.49531 8.39722C7.04072 7.66996 7.98986 7.30302 9.34275 7.30302C10.6957 7.30302 11.6448 7.66336 12.1831 8.39055C12.7285 9.11108 12.9977 10.2252 12.9977 11.733C12.9977 12.727 12.8843 13.5276 12.6648 14.1348C12.438 14.7486 12.0769 15.2155 11.5669 15.5358L12.6648 17.2103ZM20.3783 4.78125H19.6559H4.47661L1.59375 7.49657V16.5765V17.317V19.1984H3.59121H4.31369H19.493L22.3758 16.4831V7.4031V6.66263V4.78125H20.3783Z" fill="#41CD52"/>
</g>
<defs>
<clipPath id="clip0_872_2887">
<rect width="24" height="24" fill="white"/>
</clipPath>
</defs>
</svg>
