<svg width="24" height="24" viewBox="0 0 24 24" fill="none" xmlns="http://www.w3.org/2000/svg">
<g clip-path="url(#clip0_872_3154)">
<path d="M18.375 0H5.625C2.5184 0 0 2.5184 0 5.625V18.375C0 21.4816 2.5184 24 5.625 24H18.375C21.4816 24 24 21.4816 24 18.375V5.625C24 2.5184 21.4816 0 18.375 0Z" fill="#F4F2ED"/>
<path d="M15.4595 9.3207C15.4595 9.81759 15.2639 10.294 14.9154 10.6454C14.567 10.9968 14.0945 11.1941 13.6019 11.1941C13.1091 11.1941 12.6366 10.9968 12.2883 10.6454C11.9399 10.294 11.7441 9.81759 11.7441 9.3207C11.7441 8.82383 11.9399 8.34732 12.2883 7.99598C12.6366 7.64465 13.1091 7.44727 13.6019 7.44727C14.0945 7.44727 14.567 7.64465 14.9154 7.99598C15.2639 8.34732 15.4595 8.82383 15.4595 9.3207Z" fill="#FFC131"/>
<path d="M10.4769 12.812C9.4509 12.812 8.61914 13.6508 8.61914 14.6854C8.61914 15.7201 9.4509 16.5589 10.4769 16.5589C11.5028 16.5589 12.3346 15.7201 12.3346 14.6854C12.3346 13.6508 11.5028 12.812 10.4769 12.812Z" fill="#24C8DB"/>
<path fill-rule="evenodd" clip-rule="evenodd" d="M17.4522 15.3241C16.7056 15.8108 15.8749 16.1517 15.0034 16.3289C15.256 15.6027 15.3397 14.8278 15.2483 14.0638C15.9872 13.8033 16.6548 13.3709 17.1971 12.8016C17.7394 12.2323 18.141 11.5421 18.3694 10.7872C18.5978 10.0321 18.6466 9.23342 18.5118 8.45583C18.377 7.67824 18.0625 6.94361 17.5935 6.31151C17.1247 5.67941 16.5147 5.16763 15.813 4.81764C15.1114 4.46765 14.3379 4.28931 13.5552 4.29708C12.7725 4.30484 12.0026 4.49849 11.3079 4.86232C10.6132 5.22617 10.0134 5.74995 9.55692 6.39123C8.61169 6.49848 7.69188 6.76926 6.83789 7.19169C7.17548 6.09325 7.77072 5.09309 8.57314 4.27597C9.37552 3.45887 10.3615 2.84891 11.4474 2.4978C12.5333 2.14669 13.6872 2.06479 14.8111 2.25903C15.9351 2.45327 16.996 2.91793 17.904 3.61362C18.812 4.30931 19.5404 5.21553 20.0272 6.25545C20.514 7.29537 20.7451 8.43833 20.7008 9.58744C20.6565 10.7366 20.338 11.858 19.7725 12.8566C19.207 13.8552 18.411 14.7017 17.4522 15.3241ZM6.92233 8.49458L8.66182 8.70747C8.70128 8.3687 8.77485 8.03488 8.88138 7.71114C8.19332 7.87246 7.53302 8.13651 6.92233 8.49458Z" fill="#FFC131"/>
<path fill-rule="evenodd" clip-rule="evenodd" d="M6.61836 8.68181C7.36946 8.19009 8.20611 7.84625 9.08406 7.66846C8.81849 8.39451 8.72312 9.1727 8.8054 9.94207C8.06904 10.2063 7.40464 10.6414 6.86589 11.2125C6.32716 11.7835 5.9292 12.4744 5.70417 13.2292C5.47915 13.984 5.43338 14.7816 5.57058 15.5576C5.70776 16.3335 6.02406 17.066 6.49389 17.6959C6.96372 18.3258 7.57392 18.8354 8.27515 19.1834C8.97639 19.5315 9.74897 19.7083 10.5306 19.6996C11.3121 19.6909 12.0805 19.4968 12.774 19.1331C13.4674 18.7695 14.0662 18.2464 14.5222 17.6061C15.4668 17.5016 16.3867 17.2337 17.2411 16.8142C16.9027 17.9115 16.3071 18.9104 15.5047 19.7264C14.7023 20.5424 13.7168 21.1514 12.6316 21.5019C11.5464 21.8524 10.3934 21.9341 9.27028 21.74C8.14713 21.546 7.08687 21.0819 6.17926 20.387C5.27165 19.6923 4.54339 18.7871 4.05614 17.7483C3.56889 16.7095 3.33699 15.5676 3.38007 14.4193C3.42315 13.2709 3.73994 12.15 4.30362 11.1513C4.8673 10.1525 5.66129 9.30551 6.61836 8.68181Z" fill="#24C8DB"/>
</g>
<defs>
<clipPath id="clip0_872_3154">
<rect width="24" height="24" fill="white"/>
</clipPath>
</defs>
</svg>
